<?xml version="1.0" encoding="UTF-8" standalone="no"?>
<!-- Created with Inkscape (http://www.inkscape.org/) -->

<svg
   width="1000"
   height="1000"
   viewBox="0 0 264.58333 264.58333"
   version="1.1"
   id="svg5"
   inkscape:version="1.2.2 (b0a8486541, 2022-12-01)"
   sodipodi:docname="anarcho_monarchism.svg"
   xml:space="preserve"
   xmlns:inkscape="http://www.inkscape.org/namespaces/inkscape"
   xmlns:sodipodi="http://sodipodi.sourceforge.net/DTD/sodipodi-0.dtd"
   xmlns="http://www.w3.org/2000/svg"
   xmlns:svg="http://www.w3.org/2000/svg"><sodipodi:namedview
     id="namedview7"
     pagecolor="#ffffff"
     bordercolor="#000000"
     borderopacity="0.25"
     inkscape:showpageshadow="2"
     inkscape:pageopacity="0.0"
     inkscape:pagecheckerboard="0"
     inkscape:deskcolor="#d1d1d1"
     inkscape:document-units="px"
     showgrid="false"
     inkscape:zoom="0.74653479"
     inkscape:cx="314.78774"
     inkscape:cy="466.15376"
     inkscape:window-width="1920"
     inkscape:window-height="1004"
     inkscape:window-x="0"
     inkscape:window-y="0"
     inkscape:window-maximized="1"
     inkscape:current-layer="layer1" /><defs
     id="defs2"><filter
       id="mask-powermask-path-effect1955_inverse"
       inkscape:label="filtermask-powermask-path-effect1955"
       style="color-interpolation-filters:sRGB"
       height="100"
       width="100"
       x="-50"
       y="-50"><feColorMatrix
         id="mask-powermask-path-effect1955_primitive1"
         values="1"
         type="saturate"
         result="fbSourceGraphic" /><feColorMatrix
         id="mask-powermask-path-effect1955_primitive2"
         values="-1 0 0 0 1 0 -1 0 0 1 0 0 -1 0 1 0 0 0 1 0 "
         in="fbSourceGraphic" /></filter><filter
       id="mask-powermask-path-effect1983_inverse"
       inkscape:label="filtermask-powermask-path-effect1983"
       style="color-interpolation-filters:sRGB"
       height="100"
       width="100"
       x="-50"
       y="-50"><feColorMatrix
         id="mask-powermask-path-effect1983_primitive1"
         values="1"
         type="saturate"
         result="fbSourceGraphic" /><feColorMatrix
         id="mask-powermask-path-effect1983_primitive2"
         values="-1 0 0 0 1 0 -1 0 0 1 0 0 -1 0 1 0 0 0 1 0 "
         in="fbSourceGraphic" /></filter><clipPath
       clipPathUnits="userSpaceOnUse"
       id="clipPath2020"><path
         id="path2022"
         style="fill:#000000;fill-opacity:1;stroke-width:0.246708"
         d="M 4.5525353,4.2133041 V 102.9105 c 0.296472,0.3053 0.5801511,0.64516 0.8495051,1.01767 -7.672e-4,-1.91712 -0.012729,-5.149521 0.00241,-5.166412 0.135305,-0.150852 4.6734766,4.290972 8.1196826,7.947182 6.366563,6.75451 12.8426,14.53743 21.564307,25.91591 9.783196,12.76331 19.924363,21.73247 34.55503,30.56193 7.984027,4.81823 11.853794,8.27569 26.714828,23.869 6.268452,6.57746 7.742222,8.34084 15.027502,17.97788 5.4076,7.1531 7.60886,9.89013 10.66482,13.26056 0.84619,0.93328 2.26018,2.62961 3.14215,3.76904 0.88199,1.13955 2.93583,3.41084 4.5641,5.04692 4.74345,4.76648 9.17715,8.22342 18.50311,14.42712 8.76639,5.83157 13.51803,9.70293 20.74661,16.90384 3.91762,3.90277 11.79925,12.67449 11.58804,12.89676 -0.001,0.003 -0.19849,0.0109 -0.20719,0.0124 1.32603,0.068 2.65041,0.16992 3.97431,0.27321 3.24351,0.20018 6.47984,0.49223 9.71413,0.80518 3.00066,0.35025 6.00005,0.70138 9.01255,0.93191 2.43835,0.24601 4.87968,0.43543 7.328,0.54015 0.46693,-0.004 0.93423,0.007 1.40075,-0.0124 3.29376,-0.13838 6.58675,-0.59812 9.85627,-0.98153 4.21137,-0.49384 6.1834,-0.73988 10.40029,-1.25524 4.17208,-0.52781 8.34005,-1.09021 12.5079,-1.64983 2.66528,-0.35785 4.89971,-0.14576 6.67896,0.4481 v -20.03059 -32.32694 l -4.48604,-5.35771 c -10.24278,-12.23257 -19.05105,-21.81288 -27.66552,-30.09019 -4.95529,-4.76144 -6.75657,-6.11603 -18.17689,-13.67207 -10.89829,-7.21054 -13.06069,-9.00929 -20.86562,-17.35532 -5.69167,-6.08625 -8.39473,-9.37728 -16.51018,-20.10237 -5.6931,-7.52391 -9.05109,-11.7248 -12.19228,-15.25302 -2.65046,-2.97683 -13.93001,-14.29966 -16.05627,-16.11794 -2.70902,-2.316527 -7.03797,-5.417803 -13.50389,-9.673176 C 108.50643,81.719218 105.09283,78.926591 97.826006,70.851944 90.074167,62.238392 85.215097,56.39599 79.438549,48.744108 67.056571,32.342412 53.274277,18.425937 39.401011,8.3167529 37.670573,7.0558119 35.613969,5.6166421 34.831131,5.1187032 L 33.407741,4.2133041 H 18.980138 Z m 59.6291447,0 3.307429,3.3922358 C 75.252,15.567778 81.543569,23.148801 94.522916,40.178712 101.5154,49.353427 103.5454,51.83384 107.0024,55.4298 c 4.78801,4.980601 10.3089,9.445604 16.60654,13.430171 12.57891,7.958888 20.15403,14.029676 29.5852,23.709992 7.29851,7.491337 8.7708,9.235157 19.56752,23.176587 6.51589,8.41379 11.05592,13.89712 15.65536,18.90738 6.78074,7.38625 11.49482,11.22371 23.36402,19.01916 11.37446,7.47051 11.51305,7.5828 20.87526,16.93323 7.66517,7.65554 13.19286,13.59859 17.03539,18.31567 0.79509,0.97609 1.47329,1.78117 1.50723,1.78863 0.0338,0.007 0.0616,-7.75038 0.0616,-17.23968 v -17.25319 l -3.38404,-3.4968 c -6.67881,-6.90082 -12.27598,-11.49889 -21.96618,-18.04583 -9.76478,-6.59721 -14.59185,-10.33415 -21.0839,-16.32127 -4.85271,-4.47521 -8.59421,-8.69705 -13.14588,-14.8338 C 184.24821,93.49905 178.26051,86.598862 168.7565,77.100596 157.53273,65.88354 148.11694,57.816882 136.44257,49.415808 122.30365,39.241309 113.70068,31.345986 106.9147,22.317435 103.57634,17.875918 99.262778,10.25703 97.537856,5.7552293 L 96.947108,4.2133041 H 80.564637 Z m 187.07891,0 -19.67496,0.060232 -19.67497,0.060232 19.55161,0.064568 19.55162,0.064568 V 27.528663 c 0,12.686 0.0555,23.065755 0.12335,23.065755 0.0679,0 0.12335,-10.435894 0.12335,-23.190557 z M 211.94102,15.446712 c -0.0635,0.04373 -0.1688,0.0575 -0.19034,0.131545 -0.0234,0.08048 -0.0411,0.161997 -0.0587,0.243817 0.0807,-0.127853 0.16126,-0.255952 0.24912,-0.375362 z M 5.5075653,44.426716 c 0.4097012,0 5.0994857,2.178254 7.1757347,3.332967 7.839108,4.359785 14.507717,9.491477 22.428749,17.258966 7.921564,7.768016 14.337374,15.289194 24.945462,29.243094 2.217798,2.917291 5.054581,6.580957 6.303584,8.141367 7.247736,9.0548 17.389123,18.33304 26.019508,23.80443 11.564767,7.33184 16.507437,11.23141 25.779547,20.33945 11.54899,11.34461 14.77002,15.09345 24.91992,29.00506 5.13309,7.03534 8.0953,10.54378 13.93467,16.50438 8.4488,8.6242 15.22375,13.96338 24.77489,19.52367 4.637,2.69955 10.62317,7.63753 16.97852,14.00646 5.22999,5.24117 12.63195,13.09366 14.8314,15.73391 2.07262,2.48801 8.69344,9.56784 15.32336,16.38536 2.24326,2.30672 4.07958,4.26107 4.08032,4.34294 7.9e-4,0.0819 -1.19249,0.708 -2.65115,1.39158 -3.41258,1.59925 -8.67229,3.26843 -14.12114,4.48123 -6.15867,1.37078 -5.89712,1.34837 -6.9218,0.5869 -0.48103,-0.35751 -1.36919,-1.32408 -1.97367,-2.1481 -7.41849,-10.11294 -14.36343,-18.0098 -24.46746,-27.82068 -8.15958,-7.92284 -10.08348,-9.46258 -18.66597,-14.94077 -7.48057,-4.77476 -10.33248,-6.80354 -13.36511,-9.5079 -1.40189,-1.25008 -3.3324,-2.94664 -4.28994,-3.77001 -2.51463,-2.16229 -8.28903,-7.99059 -11.2705,-11.37555 -3.7083,-4.20994 -7.753,-9.2987 -14.08405,-17.71913 -3.06047,-4.07069 -6.49095,-8.51143 -7.62289,-9.86833 -2.91591,-3.49533 -11.75137,-12.4023 -17.952823,-18.09834 -4.921104,-4.52007 -5.625864,-5.06975 -10.501003,-8.19004 C 70.981336,136.02312 67.017232,132.89414 57.508033,123.27885 48.876092,114.55063 46.741638,111.99883 36.744081,98.45578 30.572641,90.095754 27.746692,86.529282 24.49734,83.000389 20.845563,79.034488 15.925887,74.642574 12.758951,72.521561 9.5317383,70.360166 6.4315374,67.955281 5.8477525,67.159996 L 5.2926593,66.403971 V 55.415343 c 0,-6.076587 0.09608,-10.988627 0.214906,-10.988627 z M 186.03041,50.726927 c -0.10173,0.09071 -0.20156,0.183546 -0.30116,0.277066 0.0503,0.0058 0.10162,0.0131 0.15178,0.01831 0.0395,-0.08206 0.0797,-0.163962 0.12288,-0.2443 0.009,-0.01664 0.0176,-0.03435 0.0265,-0.05108 z m -2.496,14.330751 c -0.0306,-0.0141 -0.0104,0.03754 0.0173,0.136845 0.0317,0.03749 0.0804,0.067 0.0968,0.111789 0.0619,0.0053 0.12063,0.01029 0.17877,0.01542 -0.002,-0.0019 -0.004,-0.0039 -0.006,-0.0058 -0.17498,-0.164042 -0.25659,-0.244181 -0.28718,-0.25827 z"
         mask="none" /></clipPath></defs><g
     inkscape:label="Layer 1"
     inkscape:groupmode="layer"
     id="layer1"><circle
       style="display:inline;fill:#7851a9;fill-opacity:1;stroke:#000000;stroke-width:5.29167;stroke-dasharray:none;stroke-opacity:1;paint-order:normal"
       id="path236-3"
       mask="none"
       r="125.37917"
       cy="132.29167"
       cx="132.29167" /><circle
       style="fill:#000000;fill-opacity:1;stroke:#000000;stroke-width:0;stroke-linecap:square;stroke-miterlimit:0;stroke-opacity:1"
       id="path7116"
       cx="132.29167"
       cy="157.62291"
       r="63.245365" /><path
       id="path6648"
       style="fill:#ffffff;fill-opacity:1;stroke:#010101;stroke-width:4.1083;stroke-linecap:butt;stroke-linejoin:bevel;stroke-dasharray:none;stroke-opacity:1;paint-order:stroke fill markers"
       d="m 132.34129,30.182279 c -1.47336,0 -1.51284,0.09112 -1.15607,2.694025 l 0.36967,2.694027 -2.73164,-0.410124 c -2.67166,-0.400648 -2.73166,-0.375062 -2.73166,1.162643 0,1.530326 0.0706,1.56189 2.64512,1.175816 l 2.64511,-0.396956 -0.009,2.565158 c -0.0145,4.195433 -0.39341,4.340051 -5.32783,2.031808 -6.68306,-3.126217 -9.22759,-3.058835 -12.45236,0.331109 -2.31865,2.43739 -2.33363,2.442701 -6.33058,2.313062 -7.818321,-0.253573 -11.817111,4.326091 -10.017931,11.471245 1.552001,6.163633 4.466801,10.454899 13.724091,20.208017 l 5.02872,5.298689 h 16.43976 16.43978 l 1.62731,-2.203947 c 0.8949,-1.212354 4.05908,-4.585749 7.03137,-7.496053 4.38338,-4.291943 5.82126,-6.158843 7.6127,-9.883424 2.92656,-6.084534 3.3804,-10.406017 1.40063,-13.333734 -2.1679,-3.205959 -4.71842,-4.251017 -9.49494,-3.890537 -3.94827,0.297971 -4.0277,0.275084 -4.99578,-1.41568 -2.28638,-3.993063 -6.79373,-4.458181 -13.90378,-1.436374 -2.11586,0.899248 -3.93815,1.5278 -4.05046,1.396868 -0.11231,-0.130927 -0.37341,-1.524459 -0.57942,-3.096626 l -0.37438,-2.858639 2.64323,0.396014 c 2.57215,0.385717 2.64322,0.354319 2.64322,-1.175816 0,-1.533995 -0.0662,-1.562433 -2.68837,-1.169229 l -2.68746,0.40354 0.40356,-2.68744 c 0.39053,-2.604425 0.35566,-2.687442 -1.1222,-2.687442 z m 11.50698,16.439766 c 0.93006,-0.0098 1.78742,0.112053 2.49556,0.383786 2.69299,1.033405 3.45653,7.194285 1.56336,12.620721 -1.64418,4.712701 -5.81627,13.063922 -6.94671,13.905652 -0.54274,0.404117 -2.25873,0.734647 -3.81342,0.734647 h -2.82665 V 62.61312 c 0,-11.346018 0.0355,-11.685891 1.33103,-12.902917 1.97,-1.850725 5.40671,-3.058748 8.19683,-3.088158 z m -22.72144,0.02352 c 1.62159,0.0026 3.42736,0.38672 4.9262,1.151359 4.23048,2.158231 4.13838,1.848506 4.12381,13.802178 -0.007,5.926985 0.0628,11.136372 0.15527,11.575658 0.12312,0.584198 -0.73289,0.845245 -3.18504,0.973575 -3.31191,0.173344 -3.37118,0.147951 -4.85846,-2.099536 -1.97503,-2.984476 -5.49317,-11.660558 -6.31272,-15.567781 -0.7719,-3.679995 -0.24528,-7.121898 1.33102,-8.698206 0.76116,-0.76115 2.19839,-1.139741 3.81998,-1.137247 z m -13.02425,3.000679 c 0.27855,-0.002 0.56197,0.01359 0.84941,0.04703 1.43485,0.166828 1.62203,0.530738 2.52941,4.92055 1.12784,5.456448 3.70009,11.47635 6.66921,15.60917 1.13461,1.579285 2.06284,3.1353 2.06284,3.457834 0,0.322551 -1.41474,0.586025 -3.14364,0.586025 -3.06681,0 -3.22324,-0.08297 -6.41807,-3.432435 -3.94099,-4.13172 -7.8567,-10.041691 -8.68034,-13.100454 -1.1237,-4.173137 1.95277,-8.058913 6.13118,-8.087724 z m 48.0259,0.06678 c 2.42162,-0.194115 5.5605,1.59625 6.53,3.72404 1.4623,3.209395 -2.37042,10.951049 -8.82612,17.827228 -2.75202,2.931289 -2.89914,3.002558 -6.1688,3.002558 -1.84247,0 -3.34894,-0.197763 -3.34776,-0.440224 0.001,-0.242477 0.80918,-1.631464 1.79569,-3.086277 3.46445,-5.10913 5.9948,-10.835173 7.00974,-15.865029 l 1.0093,-5.002386 z m -23.57085,37.928019 c -19.721,0.02589 -36.970881,7.241965 -50.309789,21.046147 -12.951324,13.40301 -19.632309,30.03394 -19.637043,48.88001 -0.005,19.00155 6.799959,35.26377 20.517486,49.02958 10.511349,10.54837 22.637896,16.88232 37.434146,19.55426 6.29797,1.1374 16.48813,1.14338 23.20683,0.0127 29.22381,-4.91596 52.1556,-27.62053 57.27438,-56.70719 1.81762,-10.32829 0.87534,-23.80074 -2.35632,-33.70073 -9.45891,-28.97658 -35.81751,-48.155123 -66.12969,-48.115259 z m -0.3725,10.380094 c 22.33552,-0.0229 44.36273,12.560603 54.58225,35.704303 3.30118,7.47605 4.74993,14.55819 4.78979,23.42223 0.0761,16.89491 -6.04738,31.31563 -18.2204,42.91064 -7.52576,7.16841 -16.32959,12.19471 -25.91778,14.79833 -5.87874,1.59634 -20.77344,2.03961 -26.61762,0.79205 -24.134358,-5.15204 -41.923397,-23.12312 -46.757894,-47.23859 -1.352079,-6.74444 -0.942609,-19.62888 0.834358,-26.25171 2.516508,-9.37912 7.594628,-18.25929 14.711778,-25.72871 11.886678,-12.47499 27.313338,-18.392833 42.595518,-18.408543 z m -3.74285,16.510313 c -8.10304,0 -12.08217,0.96454 -19.09617,4.628 -13.166538,6.87701 -18.776063,23.92695 -12.209655,37.10682 0.873913,1.75405 3.583335,5.02037 6.720025,8.10184 l 5.25542,5.16323 -5.73329,7.76885 c -3.15314,4.27266 -6.482396,9.2228 -7.3982,11.00093 -2.632036,5.11016 -2.875662,9.25124 -0.674462,11.45242 1.159331,1.15935 3.105585,0.9591 3.962031,-0.40728 0.480731,-0.76703 0.321408,-1.63946 -0.674446,-3.68925 -1.721033,-3.54248 -1.673887,-5.32394 0.174016,-6.53472 1.093924,-0.71671 2.124971,-0.86472 3.962011,-0.57096 3.07505,0.4917 11.36175,4.43361 18.34272,8.72548 l 5.26765,3.23866 10.71119,-8.16486 c 5.89084,-4.49035 10.82639,-8.16392 10.968,-8.16392 0.14163,0 0.4366,1.38806 0.65563,3.08535 0.86733,6.72067 2.90955,10.47603 6.78775,12.4815 1.5313,0.79187 1.73512,0.66886 8.40943,-5.0466 4.59355,-3.9336 6.73141,-6.1412 6.50929,-6.72001 -0.46889,-1.22193 -1.25021,-1.0758 -3.25088,0.60766 -3.17897,2.67493 -5.36669,1.43767 -6.30426,-3.56695 -0.56075,-2.99329 -1.63993,-45.56628 -1.37429,-54.21351 0.21233,-6.91098 2.33643,-10.5252 7.86574,-13.38453 1.44213,-0.74575 1.60875,-1.05799 1.08456,-2.03746 -0.61232,-1.14406 -0.64523,-1.14305 -3.09568,0.10363 -2.63348,1.33966 -8.4827,5.64916 -9.7649,7.1941 -0.68906,0.83028 -1.022,0.75255 -3.20668,-0.745 -3.39577,-2.32768 -7.60201,-4.36123 -12.42976,-6.00889 -3.47548,-1.18608 -5.25656,-1.40438 -11.46279,-1.40438 z m -3.6074,9.21838 c 0.70976,-0.007 1.42319,0.009 2.1381,0.0498 4.74392,0.27263 12.63766,2.46047 12.63766,3.50301 0,0.30575 -0.85002,1.73946 -1.88883,3.18597 -1.49362,2.07983 -2.13858,2.55153 -3.08535,2.25476 -9.60592,-3.01122 -16.25645,-1.06705 -21.09316,6.16597 -1.02121,1.52719 -1.34276,5.30621 -0.4515,5.30621 0.2861,0 0.96158,-0.67383 1.50128,-1.49751 1.53839,-2.34787 4.39519,-3.78807 7.51861,-3.78989 2.65463,-10e-4 7.52441,1.47042 7.48948,2.26509 -0.009,0.20737 -4.17515,6.04426 -9.25789,12.97063 -5.08275,6.92642 -9.55654,12.69721 -9.94176,12.82297 -1.27258,0.41576 -8.69667,-7.56841 -10.515532,-11.30849 -1.528118,-3.14227 -1.714741,-4.13596 -1.712926,-9.11117 0.0011,-4.98881 0.180568,-5.92152 1.665903,-8.74713 4.443285,-8.45324 14.349715,-13.95695 24.995915,-14.07027 z m 17.46978,5.21874 c 0.35025,-0.0195 1.63915,0.8306 2.86334,1.88885 l 2.22558,1.92362 0.30478,15.1219 0.30572,15.12286 h -15.41352 c -8.47761,0 -15.32563,-0.21737 -15.21786,-0.48255 0.61258,-1.5074 24.40343,-33.54537 24.93196,-33.57468 z m -31.35473,42.28606 h 18.73872 18.73965 v 4.88104 4.88105 l -6.30707,4.61482 c -3.46887,2.5378 -6.70925,4.70216 -7.20068,4.80956 -1.04852,0.22928 -28.77659,-11.61785 -28.79898,-12.30468 -0.009,-0.25636 1.07417,-1.90994 2.40618,-3.67418 z" /></g></svg>
