<?xml version="1.0" encoding="UTF-8" standalone="no"?>
<!-- Created with Inkscape (http://www.inkscape.org/) -->

<svg
   width="1000"
   height="1000"
   viewBox="0 0 264.58333 264.58333"
   version="1.1"
   id="svg5"
   inkscape:version="1.2.2 (b0a8486541, 2022-12-01)"
   sodipodi:docname="autocracy.svg"
   xml:space="preserve"
   xmlns:inkscape="http://www.inkscape.org/namespaces/inkscape"
   xmlns:sodipodi="http://sodipodi.sourceforge.net/DTD/sodipodi-0.dtd"
   xmlns="http://www.w3.org/2000/svg"
   xmlns:svg="http://www.w3.org/2000/svg"><sodipodi:namedview
     id="namedview7"
     pagecolor="#ffffff"
     bordercolor="#000000"
     borderopacity="0.25"
     inkscape:showpageshadow="2"
     inkscape:pageopacity="0.0"
     inkscape:pagecheckerboard="0"
     inkscape:deskcolor="#d1d1d1"
     inkscape:document-units="px"
     showgrid="false"
     inkscape:zoom="0.52787981"
     inkscape:cx="331.51485"
     inkscape:cy="490.64199"
     inkscape:window-width="1920"
     inkscape:window-height="1004"
     inkscape:window-x="0"
     inkscape:window-y="0"
     inkscape:window-maximized="1"
     inkscape:current-layer="layer1" /><defs
     id="defs2"><inkscape:perspective
       sodipodi:type="inkscape:persp3d"
       inkscape:vp_x="0 : 552.5 : 1"
       inkscape:vp_y="0 : 1000 : 0"
       inkscape:vp_z="815 : 552.5 : 1"
       inkscape:persp3d-origin="407.5 : 368.33333 : 1"
       id="perspective11259" /><linearGradient
       id="linearGradient5938"><stop
         style="stop-color:#000000;stop-opacity:1;"
         offset="0"
         id="stop5940" /><stop
         id="stop5946"
         offset="0.5"
         style="stop-color:#000000;stop-opacity:0;" /><stop
         style="stop-color:#000000;stop-opacity:1;"
         offset="1"
         id="stop5942" /></linearGradient><linearGradient
       id="linearGradient5196"><stop
         style="stop-color:#860909;stop-opacity:1;"
         offset="0"
         id="stop5198" /><stop
         style="stop-color:#bb0d0d;stop-opacity:1;"
         offset="1"
         id="stop5200" /></linearGradient><linearGradient
       id="linearGradient7546"><stop
         style="stop-color:#6d0000;stop-opacity:1;"
         offset="0"
         id="stop7548" /><stop
         style="stop-color:#8a0000;stop-opacity:0;"
         offset="1"
         id="stop7550" /></linearGradient><linearGradient
       id="linearGradient13829"><stop
         id="stop13831"
         offset="0.00000000"
         style="stop-color:#ffffff;stop-opacity:1.0000000;" /><stop
         id="stop13833"
         offset="1.0000000"
         style="stop-color:#c9c9c9;stop-opacity:1.0000000;" /></linearGradient><linearGradient
       id="linearGradient15699"><stop
         style="stop-color:black;stop-opacity:0.78431374;"
         offset="0"
         id="stop15701" /><stop
         style="stop-color:black;stop-opacity:0;"
         offset="1"
         id="stop15703" /></linearGradient><polygon
       id="XMLID_5_"
       points="469.75879,342.92773 529.12402,342.16113 529.12402,440.2207 469.75879,440.2207 469.75879,342.92773 " /></defs><g
     inkscape:label="Layer 1"
     inkscape:groupmode="layer"
     id="layer1"><circle
       style="fill:#e71a1a;fill-opacity:1;stroke:#606060;stroke-width:0;stroke-dasharray:none;stroke-opacity:1;paint-order:stroke markers fill"
       id="path236"
       cx="132.29167"
       cy="132.29167"
       r="125.37917" /><circle
       style="fill:#212121;fill-opacity:0;stroke:#fec42f;stroke-width:5.29167;stroke-dasharray:none;stroke-opacity:1;paint-order:normal"
       id="path236-3"
       cx="132.29167"
       cy="132.29167"
       r="125.37917" /><path
       style="fill:#fec42f;stroke-width:0.193773;fill-opacity:1"
       d="m 105.79553,213.17216 c -0.76954,-0.13412 -1.45523,-0.29991 -1.52374,-0.36842 -0.0686,-0.0685 0.0568,-0.7218 0.27854,-1.45173 l 0.40311,-1.32716 0.95071,-1.34752 c 0.52289,-0.74114 1.50677,-1.87713 2.18639,-2.52443 0.67961,-0.6473 1.88965,-1.6576 2.68896,-2.24511 0.79932,-0.58752 2.20557,-1.51957 3.12501,-2.07122 0.91944,-0.55166 3.01219,-1.63924 4.65056,-2.41685 1.63837,-0.77761 3.26397,-1.5395 3.61246,-1.6931 l 0.63361,-0.27925 -2.28069,-0.0486 c -1.25437,-0.0267 -3.37065,-0.18668 -4.70284,-0.35549 l -2.42217,-0.30691 -2.9066,-0.75152 c -1.59862,-0.41334 -3.0899,-0.80516 -3.31394,-0.87071 l -0.40736,-0.11919 -0.45478,1.12931 c -0.25012,0.62112 -0.74261,1.62359 -1.09442,2.22772 -0.3518,0.60412 -1.01814,1.54184 -1.48076,2.08381 -0.46261,0.54197 -1.38491,1.42182 -2.04954,1.95522 l -1.20842,0.96982 -1.583678,0.76557 -1.58368,0.76559 -1.647075,0.41243 -1.647066,0.41244 -3.110726,0.10393 -3.110719,0.10394 -1.636726,-0.21613 c -0.900194,-0.11887 -2.530504,-0.40268 -3.622902,-0.6307 l -1.986177,-0.41458 v -1.03322 -1.03322 l 0.417605,-1.12147 0.417606,-1.12147 1.3748,-1.36431 1.374801,-1.36432 1.380418,-0.71647 c 0.759227,-0.39406 2.154395,-0.9693 3.10037,-1.27831 0.945975,-0.30901 2.635534,-0.74671 3.754575,-0.97266 1.119042,-0.22596 3.255392,-0.54 4.747445,-0.69789 1.492053,-0.15789 3.454009,-0.28953 4.359899,-0.29255 l 1.64707,-0.005 -2.80971,-1.42021 c -1.545344,-0.78113 -3.635737,-1.92309 -4.645319,-2.53771 -1.009588,-0.61462 -2.69539,-1.73975 -3.746226,-2.50028 -1.050836,-0.76054 -2.01745,-1.459 -2.148024,-1.55213 l -0.237413,-0.16934 -1.926452,1.93216 -1.926452,1.93217 -1.200525,0.80473 c -0.660284,0.44259 -1.8072,1.10918 -2.548682,1.48131 l -1.348164,0.67659 -1.617435,0.38775 -1.617443,0.38775 -1.761405,0.001 -1.761404,0.001 -1.532744,-0.38858 -1.532736,-0.38859 -1.74396,-0.84781 c -0.95918,-0.46629 -2.356537,-1.2827 -3.10524,-1.81424 -0.748696,-0.53154 -1.872638,-1.4338 -2.497636,-2.00502 l -1.136362,-1.03857 1.105851,-1.00498 1.105852,-1.00497 1.391784,-0.68061 c 0.765482,-0.37434 1.946226,-0.85978 2.623875,-1.07878 0.677648,-0.21898 2.203618,-0.54184 3.391034,-0.71745 l 2.158943,-0.31929 2.712828,0.11204 2.712829,0.11204 2.228387,0.38933 c 1.225616,0.21414 2.918126,0.56737 3.761137,0.78496 0.843004,0.2176 1.554188,0.39563 1.580407,0.39563 0.02622,0 -1.716716,-1.76575 -3.873198,-3.92391 -2.156475,-2.15815 -4.690188,-4.8622 -5.630472,-6.00901 l -1.709597,-2.0851 -0.767679,1.1749 -0.767679,1.1749 -0.995462,0.74232 c -0.547498,0.40827 -1.275403,0.88372 -1.617552,1.05654 -0.342149,0.17283 -1.214133,0.45558 -1.93773,0.62834 l -1.31564,0.31411 -2.615943,0.0101 -2.615936,0.0101 -1.522329,-0.2447 c -0.837276,-0.13458 -2.221956,-0.4541 -3.077059,-0.71005 -0.855109,-0.25594 -2.020261,-0.67848 -2.589233,-0.93896 -0.568965,-0.26048 -1.451436,-0.75595 -1.961042,-1.10104 -0.509599,-0.34509 -1.318943,-0.98278 -1.798529,-1.41709 -0.479593,-0.4343 -1.369549,-1.34934 -1.977688,-2.03342 l -1.105706,-1.24377 -0.777353,-1.56724 c -0.427552,-0.86198 -0.801962,-1.78523 -0.832033,-2.05167 l -0.05463,-0.48443 1.74396,-0.45297 1.743959,-0.45295 2.885083,-0.10711 2.885089,-0.10711 1.668584,0.244 c 0.91772,0.1342 2.366168,0.46182 3.218773,0.72806 0.852605,0.26623 3.454787,1.21882 5.782629,2.11687 2.327843,0.89804 4.794749,1.84446 5.482006,2.10314 l 1.249558,0.47032 -0.142622,-0.2365 c -0.07845,-0.13008 -0.709163,-1.02129 -1.401606,-1.98047 -0.692435,-0.95918 -2.058872,-2.96474 -3.036514,-4.45679 -0.97765,-1.49205 -2.397396,-3.80279 -3.154991,-5.13499 -0.757601,-1.33219 -1.445101,-2.52958 -1.527771,-2.66088 l -0.150319,-0.23871 -1.93773,0.66287 c -1.065755,0.36458 -2.609843,0.79899 -3.431307,0.96536 l -1.493577,0.3025 h -2.011788 -2.011795 l -1.532736,-0.38868 c -0.843011,-0.21377 -2.072524,-0.65267 -2.732251,-0.97532 -0.659728,-0.32264 -1.795987,-1.05334 -2.525019,-1.62377 -0.729032,-0.57042 -1.724882,-1.5049 -2.213,-2.07661 -0.488118,-0.57172 -1.280874,-1.64987 -1.761678,-2.3959 -0.480803,-0.74603 -1.152599,-1.91015 -1.49288,-2.58695 -0.34028,-0.6768 -0.960308,-2.24637 -1.37784,-3.48792 l -0.759147,-2.25738 0.626431,-0.26898 0.626432,-0.26899 1.937732,0.007 1.937736,0.007 1.743959,0.51693 c 0.959173,0.28432 2.52874,0.88893 3.48792,1.34357 0.959172,0.45465 2.547949,1.32492 3.530616,1.93393 0.98266,0.60902 2.508621,1.64008 3.391034,2.29124 0.882405,0.65118 2.708991,2.12534 4.059081,3.27592 l 2.454704,2.09197 -0.825771,-1.78235 c -0.454165,-0.98029 -1.26701,-2.87233 -1.806306,-4.20452 -0.539296,-1.33219 -1.388371,-3.73014 -1.886831,-5.32877 -0.498459,-1.59862 -0.979049,-3.09069 -1.06798,-3.3157 l -0.161701,-0.4091 -1.196263,-0.13535 c -0.657948,-0.0744 -2.069989,-0.35567 -3.137882,-0.62496 -1.067885,-0.26929 -2.544735,-0.73507 -3.281896,-1.03506 -0.737154,-0.29998 -1.951096,-0.90831 -2.697639,-1.35182 -0.74655,-0.44352 -1.921354,-1.33398 -2.610677,-1.9788 l -1.25331,-1.17241 -0.864478,-1.30037 c -0.475467,-0.71514 -1.126546,-1.95478 -1.446847,-2.7547 l -0.582366,-1.45438 -0.29741,-1.70548 -0.29741,-1.70548 0.0015,-1.67013 c 8.06e-4,-0.91857 0.09306,-2.23471 0.205017,-2.92476 0.111954,-0.69004 0.233727,-1.28479 0.270607,-1.32167 0.03688,-0.0369 0.664006,0.0795 1.393613,0.25867 0.729608,0.17915 2.034505,0.6539 2.899773,1.05498 0.865267,0.40109 2.118911,1.09983 2.785882,1.55276 0.666963,0.45293 1.851875,1.4307 2.633139,2.17282 0.781258,0.74211 1.893613,1.93031 2.471893,2.64044 0.578288,0.71013 1.519363,2.00319 2.09128,2.87349 0.571923,0.87028 1.131821,1.73476 1.244218,1.92104 l 0.204369,0.33871 -0.08265,-3.50183 -0.08266,-3.50183 0.217573,-1.81025 c 0.119669,-0.99564 0.27004,-2.12208 0.334166,-2.5032 l 0.116579,-0.69296 -1.658374,-0.79574 c -0.912111,-0.43766 -2.163631,-1.14029 -2.781159,-1.56139 -0.617521,-0.4211 -1.545018,-1.13906 -2.061091,-1.59545 -0.516073,-0.4564 -1.373226,-1.4039 -1.904774,-2.10556 -0.531548,-0.70166 -1.268511,-1.90326 -1.637707,-2.67023 l -0.671248,-1.39447 -0.466081,-1.83733 -0.466074,-1.83733 -0.128304,-1.90319 -0.128312,-1.903183 0.231818,-1.937738 c 0.127506,-1.065755 0.355852,-2.47724 0.507438,-3.13663 0.151586,-0.659398 0.325481,-1.328852 0.386421,-1.487681 l 0.110815,-0.288767 1.00198,0.589186 c 0.551087,0.324052 1.608976,0.993506 2.350868,1.487673 0.741893,0.494168 2.206819,1.719953 3.255399,2.723961 l 1.906509,1.825472 1.05244,1.581717 c 0.578837,0.86994 1.27076,2.07539 1.537607,2.67877 0.266847,0.60338 0.661339,1.64249 0.876656,2.30913 0.215317,0.66663 0.502267,1.97975 0.637668,2.91804 l 0.246194,1.70597 1.033472,-2.57796 c 0.568415,-1.41787 1.766729,-4.09794 2.662932,-5.95571 l 1.62946,-3.377769 -0.148913,-0.128553 c -0.0819,-0.07067 -0.827059,-0.590584 -1.655906,-1.155294 L 60.775522,95.565176 59.234884,93.937598 57.694238,92.310019 56.819105,90.525955 C 56.337783,89.544723 55.811625,88.218706 55.649867,87.579253 55.4881,86.939801 55.301126,85.707575 55.234356,84.840975 l -0.121391,-1.575641 0.240533,-1.910978 c 0.132295,-1.05104 0.454817,-2.652748 0.71672,-3.559354 0.261897,-0.906605 0.827727,-2.472919 1.257402,-3.480697 0.429667,-1.007778 1.177155,-2.518754 1.66107,-3.357723 l 0.879849,-1.525399 0.869435,0.83867 c 0.478187,0.461268 1.322589,1.449057 1.876445,2.195083 0.553863,0.746028 1.281738,1.84156 1.617509,2.434516 0.335763,0.592958 0.91334,1.862303 1.283495,2.820769 0.370163,0.958465 0.857241,2.609669 1.082409,3.669342 l 0.409381,1.926678 0.113092,2.913404 0.113086,2.913402 -0.225226,1.909747 c -0.123881,1.050367 -0.193031,1.941948 -0.153681,1.981299 0.03933,0.03933 0.577182,-0.692296 1.195172,-1.625894 0.617989,-0.933591 1.845444,-2.662376 2.727688,-3.841747 0.882237,-1.179368 2.306882,-2.940649 3.165873,-3.913957 l 1.561805,-1.769649 -1.619471,-1.619469 -1.619464,-1.619466 -0.787153,-1.636189 -0.787153,-1.636186 -0.328798,-1.642707 -0.328798,-1.642705 0.108383,-2.23276 0.108384,-2.23276 0.583385,-2.228392 c 0.320859,-1.225616 0.900363,-3.013175 1.287802,-3.972353 0.387425,-0.959178 1.161314,-2.615939 1.719748,-3.681692 0.558433,-1.065753 1.519722,-2.748861 2.136203,-3.740239 0.616473,-0.991379 1.324362,-2.037754 1.57309,-2.32528 l 0.452224,-0.522772 1.167056,2.422165 c 0.641887,1.332192 1.383824,3.076152 1.648759,3.875466 0.264935,0.799315 0.673958,2.368879 0.908939,3.487919 l 0.427236,2.03462 -0.0029,2.906599 -0.0029,2.906599 -0.412684,1.974242 c -0.226984,1.085832 -0.683691,2.742594 -1.01492,3.681692 -0.331223,0.939098 -0.865759,2.229943 -1.187863,2.868544 l -0.585641,1.161094 1.237547,-1.071375 c 0.680651,-0.589255 1.804336,-1.513371 2.497072,-2.053591 0.692743,-0.540219 2.044312,-1.50565 3.003485,-2.145398 0.959179,-0.63975 2.324759,-1.49479 3.034625,-1.90009 l 1.290666,-0.73691 0.131321,-0.875704 c 0.07221,-0.481637 0.306029,-1.448521 0.519566,-2.14863 0.213538,-0.700109 0.719123,-1.939043 1.123531,-2.753185 0.404401,-0.814142 1.081486,-1.947716 1.504628,-2.519053 0.42315,-0.571336 1.417615,-1.653441 2.209931,-2.404676 l 1.440582,-1.365882 1.508693,-0.940327 c 0.829777,-0.51718 2.308547,-1.269658 3.286147,-1.672175 0.9776,-0.402516 2.47582,-0.912867 3.32938,-1.134111 0.85356,-0.221244 2.29233,-0.532445 3.19726,-0.691556 0.90493,-0.159112 2.45667,-0.346333 3.4483,-0.416047 l 1.80297,-0.126752 -0.12686,1.046653 c -0.0698,0.57566 -0.24829,1.594342 -0.39672,2.263738 -0.14842,0.669396 -0.52389,1.871331 -0.8344,2.670965 -0.31049,0.799635 -0.93331,2.07461 -1.38402,2.833278 l -0.81949,1.379397 -1.46539,1.533805 -1.46538,1.533805 -1.56033,1.030577 c -0.85816,0.566817 -1.90909,1.205092 -2.3354,1.418389 -0.4263,0.213297 -1.55987,0.664706 -2.51905,1.003132 -0.959179,0.338425 -2.354347,0.744898 -3.10037,0.903271 -0.74603,0.158375 -2.188136,0.405569 -3.204682,0.549322 l -1.848264,0.261367 -1.930319,1.113765 c -1.061667,0.612569 -2.671493,1.612116 -3.577385,2.221211 -0.905885,0.609098 -2.497248,1.779242 -3.536359,2.600323 -1.03911,0.821081 -1.889291,1.521628 -1.889291,1.556772 0,0.03515 0.544987,-0.109456 1.211086,-0.321336 l 1.211079,-0.385234 2.043507,-0.104446 2.043499,-0.104444 1.578627,0.31987 c 0.868241,0.175928 2.18079,0.564922 2.916765,0.864432 0.735982,0.299507 1.910852,0.864837 2.610831,1.256286 0.699978,0.391451 1.955776,1.222587 2.790657,1.846974 0.834889,0.624385 2.041164,1.624003 2.680619,2.221374 l 1.16264,1.086128 -0.29066,0.198267 c -0.15986,0.109048 -0.90852,0.457378 -1.663703,0.77407 -0.75517,0.31669 -2.214903,0.794531 -3.243849,1.061876 l -1.870806,0.486075 -2.039413,0.170855 -2.039413,0.170848 -1.898065,-0.160492 -1.898065,-0.160499 -1.725299,-0.499968 c -0.948912,-0.274991 -2.438065,-0.853163 -3.309214,-1.284837 -0.871155,-0.431673 -2.26945,-1.298468 -3.10732,-1.926207 -0.83787,-0.627742 -1.566997,-1.135846 -1.620291,-1.129117 -0.05332,0.0067 -0.657707,0.661768 -1.343155,1.455647 -0.685448,0.79388 -1.89485,2.292385 -2.687554,3.330015 -0.792705,1.037624 -1.9417,2.627874 -2.553326,3.53389 -0.611625,0.90601 -1.47318,2.237322 -1.914565,2.958452 -0.441379,0.721137 -0.802518,1.353078 -0.802518,1.404315 0,0.05127 0.414192,-0.202772 0.92043,-0.564454 0.506229,-0.361681 1.400008,-0.939002 1.986169,-1.282939 0.586168,-0.343936 1.770508,-0.909532 2.631865,-1.256881 0.861357,-0.347349 2.212926,-0.78292 3.003485,-0.967946 l 1.437381,-0.3364 2.228387,0.0075 2.228394,0.0075 1.550189,0.403939 1.550189,0.403933 1.743959,0.842849 1.74396,0.842843 1.550181,1.1567 c 0.852605,0.636182 1.666153,1.298341 1.807881,1.471452 l 0.257693,0.314751 -1.584786,0.796813 c -0.871632,0.438251 -2.46996,1.091775 -3.551834,1.452278 -1.081881,0.360514 -2.882636,0.841974 -4.001678,1.069934 l -2.034615,0.41444 -2.519058,0.10563 -2.51905,0.10563 -2.145571,-0.317 c -1.180063,-0.17434 -2.908847,-0.53827 -3.841742,-0.80872 -0.932895,-0.27046 -2.17001,-0.701302 -2.749154,-0.957427 l -1.052989,-0.465678 -0.279305,0.426262 c -0.153608,0.234439 -0.926113,1.777793 -1.716671,3.429673 -0.790559,1.65188 -1.808892,3.91899 -2.26297,5.03804 -0.454077,1.11904 -1.206765,3.10878 -1.672634,4.42166 l -0.847046,2.38704 1.698824,-1.5667 c 0.934359,-0.86168 2.39503,-2.09366 3.245936,-2.73773 l 1.547113,-1.17104 2.325279,-1.14925 2.32528,-1.14924 1.550181,-0.41436 1.550189,-0.41436 2.573041,-0.0945 2.573033,-0.0945 1.796837,0.41521 1.796844,0.41522 1.201104,0.56803 1.201104,0.56803 v 0.23599 c 0,0.12979 -0.306204,0.85571 -0.680461,1.61314 -0.374256,0.75743 -1.036481,1.81031 -1.471613,2.33974 -0.435131,0.52942 -1.240703,1.33431 -1.79015,1.78865 -0.549447,0.45435 -1.652977,1.16479 -2.452295,1.57877 -0.79931,0.41398 -2.1598,0.97413 -3.02331,1.24479 -0.863502,0.27065 -2.487858,0.62838 -3.609676,0.79495 l -2.039662,0.30287 -2.97862,-0.001 c -1.638235,-7.3e-4 -3.676198,-0.0819 -4.528803,-0.18022 -0.852597,-0.0983 -1.995814,-0.23806 -2.540479,-0.31056 l -0.990291,-0.13182 -0.269234,1.62 -0.269235,1.62009 0.01216,3.48792 0.01216,3.48792 0.235787,1.74396 c 0.129688,0.95918 0.413856,2.65954 0.63148,3.77858 0.217632,1.11904 0.484435,2.3781 0.592913,2.79791 l 0.197221,0.7633 0.728248,-1.92594 c 0.400541,-1.05926 0.971454,-2.40552 1.268694,-2.99168 0.297241,-0.58617 0.846256,-1.54535 1.220036,-2.13151 0.373781,-0.58617 1.299234,-1.70772 2.056558,-2.49236 0.757331,-0.78462 1.888193,-1.77553 2.513023,-2.202 0.624822,-0.42648 1.696553,-1.02956 2.381613,-1.34018 0.685061,-0.31062 1.961394,-0.73011 2.836299,-0.9322 0.874906,-0.20208 2.201121,-0.42003 2.947151,-0.48434 l 1.356411,-0.11693 1.514031,0.17919 c 0.832721,0.0986 1.554686,0.21985 1.60437,0.26953 0.04966,0.0497 -0.144028,0.72259 -0.430459,1.49535 l -0.520797,1.40502 -0.963434,1.4797 -0.963435,1.47969 -1.396684,1.37775 c -0.768177,0.75776 -2.077686,1.83728 -2.910026,2.39894 -0.832348,0.56166 -2.481451,1.48348 -3.664678,2.04851 -1.183226,0.56502 -3.066908,1.3301 -4.185949,1.70018 -1.119035,0.37007 -2.75204,0.82644 -3.628894,1.01415 l -1.59427,0.34128 0.118483,0.50081 c 0.06518,0.27546 0.54933,1.80106 1.075905,3.39024 0.526575,1.58918 1.479742,4.11056 2.118143,5.60306 0.638393,1.49251 1.368993,3.1134 1.623543,3.60199 l 0.462822,0.88834 0.009,-0.9286 c 0.0051,-0.51072 0.140682,-1.56597 0.301591,-2.345 0.160917,-0.77904 0.518878,-1.97338 0.79548,-2.65409 0.276595,-0.68072 0.819853,-1.71516 1.207234,-2.29878 0.38738,-0.58361 1.180729,-1.52997 1.763001,-2.10301 0.582265,-0.57303 1.439579,-1.30396 1.905133,-1.62427 0.465561,-0.32031 1.67059,-0.97277 2.67785,-1.44992 l 1.83139,-0.86753 2.244616,-0.56689 c 1.23453,-0.31179 2.357475,-0.56688 2.495417,-0.56688 h 0.250808 l -0.296662,1.30796 c -0.163172,0.71939 -0.598582,2.17996 -0.967587,3.2457 -0.369005,1.06576 -1.074506,2.7209 -1.56778,3.67811 -0.493275,0.9572 -1.391572,2.39596 -1.996211,3.19725 -0.604638,0.8013 -1.657518,1.99199 -2.339729,2.646 -0.682204,0.65401 -1.902005,1.62102 -2.710653,2.14891 -0.808648,0.52789 -2.047264,1.21117 -2.752487,1.5184 -0.705215,0.30723 -1.282214,0.61074 -1.282214,0.67446 0,0.0637 0.620619,1.1997 1.379144,2.52437 0.758524,1.32469 2.19436,3.65109 3.190737,5.16979 0.996377,1.51869 1.836334,2.76133 1.866566,2.76142 0.03025,8e-5 0.0249,-0.82351 -0.01179,-1.8302 l -0.06679,-1.83034 0.214819,-1.00168 c 0.118153,-0.55093 0.436552,-1.55591 0.707544,-2.2333 0.270999,-0.67738 0.814771,-1.82104 1.208376,-2.54149 l 0.715659,-1.30987 1.267779,-1.26337 1.267786,-1.26338 1.103765,-0.6521 c 0.60707,-0.35865 1.824125,-0.899 2.704567,-1.20078 0.880443,-0.30178 2.072699,-0.61003 2.649464,-0.685 l 1.048668,-0.1363 -0.12413,3.95303 -0.124122,3.95303 -0.294069,1.93774 c -0.161744,1.06574 -0.476796,2.54812 -0.700125,3.29414 -0.22333,0.74603 -0.721196,1.9668 -1.106372,2.71283 l -0.700316,1.35641 -1.461828,1.47244 -1.461828,1.47244 -1.394391,0.6718 -1.394392,0.67179 1.764342,2.11878 c 0.970385,1.16532 2.583851,3.00635 3.585478,4.09117 1.001628,1.08482 2.469894,2.55303 3.262818,3.26269 l 1.441673,1.29029 -0.580551,-1.29394 c -0.319306,-0.71168 -0.761483,-1.8896 -0.982608,-2.61762 -0.221125,-0.728 -0.468989,-2.00633 -0.550809,-2.84071 l -0.148759,-1.51706 0.162806,-1.48971 0.162799,-1.48971 0.498327,-1.38146 c 0.274076,-0.75981 0.791122,-1.877 1.148988,-2.48265 0.357859,-0.60565 1.083947,-1.61004 1.613525,-2.23198 0.52957,-0.62194 1.514932,-1.59807 2.189688,-2.16919 0.674756,-0.57112 1.548189,-1.21901 1.94096,-1.43977 l 0.714136,-0.40137 0.406832,1.79547 c 0.223761,0.98751 0.535781,2.53434 0.693373,3.43741 0.157591,0.90307 0.381902,2.78705 0.498466,4.18662 l 0.211927,2.5447 -0.214256,2.14319 c -0.117845,1.17876 -0.38645,2.8263 -0.596904,3.66119 l -0.382642,1.518 -0.774,1.5752 -0.773999,1.57519 -0.869274,0.96684 -0.869266,0.96684 2.175011,1.54918 c 1.196256,0.85205 2.828997,1.9404 3.628315,2.41856 0.799317,0.47816 2.057656,1.19499 2.796304,1.59295 0.738657,0.39796 2.199777,1.10862 3.246917,1.57925 1.04715,0.47063 1.99117,0.85569 2.0978,0.85569 0.10664,0 -0.3383,-0.63219 -0.98876,-1.40486 -0.65046,-0.77267 -1.59564,-2.10244 -2.10041,-2.95504 -0.50477,-0.8526 -1.15714,-2.1488 -1.44969,-2.88043 -0.29256,-0.73163 -0.664385,-1.9524 -0.826283,-2.71282 l -0.294362,-1.38259 0.096,-2.22839 0.096,-2.2284 0.429445,-1.35641 c 0.23619,-0.74603 0.69297,-1.8796 1.01504,-2.51905 0.32208,-0.63945 0.91887,-1.64223 1.32622,-2.2284 0.40733,-0.58616 0.90823,-1.27662 1.1131,-1.53435 l 0.37249,-0.46859 0.54176,0.85614 c 0.29797,0.47088 0.86665,1.51013 1.26373,2.30944 0.39709,0.79932 0.98395,2.28168 1.30414,3.29415 l 0.58216,1.84085 0.29941,2.03462 c 0.16468,1.11904 0.35222,2.7758 0.41676,3.68169 l 0.11734,1.64707 -0.20548,2.51905 c -0.11302,1.38548 -0.34475,3.34744 -0.51496,4.35991 -0.17021,1.01246 -0.3226,1.92335 -0.33863,2.0242 -0.016,0.10084 0.31962,0.30344 0.74592,0.45022 0.4263,0.14678 1.55988,0.4767 2.51905,0.73317 0.95918,0.25646 2.79034,0.64645 4.06924,0.86664 l 2.32528,0.40035 2.61594,0.11532 2.61594,0.11531 1.74396,-0.14603 1.74396,-0.14603 -0.38754,-0.2773 c -0.21316,-0.15251 -1.30314,-0.87447 -2.42218,-1.60434 -1.11903,-0.72987 -2.705,-1.90121 -3.52437,-2.60299 -0.81936,-0.70176 -1.96552,-1.86655 -2.54702,-2.5884 -0.5815,-0.72186 -1.36508,-1.87927 -1.74129,-2.572 -0.37622,-0.69275 -0.8283,-1.76332 -1.00464,-2.37905 l -0.32062,-1.11952 0.001,-1.49642 c 7.3e-4,-0.82303 0.1003,-1.93236 0.22073,-2.46518 0.12042,-0.53281 0.48227,-1.50363 0.80411,-2.15738 0.32184,-0.65374 0.81798,-1.45755 1.10254,-1.78624 l 0.51739,-0.59761 1.02258,0.69551 c 0.56241,0.38253 1.45694,1.08605 1.98785,1.56338 0.53091,0.47733 1.52916,1.61919 2.21834,2.53747 l 1.25305,1.66959 0.96602,1.94419 c 0.5313,1.0693 1.27758,2.89554 1.65839,4.05831 0.38081,1.16276 0.90343,3.21191 1.16138,4.55367 0.25794,1.34175 0.52193,2.85374 0.58665,3.35997 l 0.11768,0.92043 h 4.90259 4.90259 l 0.13396,-1.3075 c 0.0737,-0.71912 0.33844,-2.27294 0.58837,-3.45292 0.24992,-1.17998 0.76307,-3.06787 1.14034,-4.1953 0.37726,-1.12744 0.99163,-2.69406 1.36524,-3.4814 0.37363,-0.78733 1.13186,-2.12474 1.68496,-2.97201 0.55311,-0.84727 1.58258,-2.14104 2.28772,-2.87506 0.70513,-0.73401 1.84662,-1.71536 2.53662,-2.18077 l 1.25455,-0.84621 0.23545,0.24027 c 0.12949,0.13215 0.54908,0.76345 0.93243,1.40291 0.38334,0.63944 0.8769,1.72942 1.09678,2.42216 l 0.39979,1.25953 0.0143,1.55018 0.0143,1.55019 -0.34157,1.16264 c -0.18786,0.63945 -0.64123,1.73502 -1.00747,2.4346 -0.36624,0.69957 -1.14739,1.85203 -1.73588,2.56102 -0.58848,0.70898 -1.73443,1.85827 -2.54654,2.55398 -0.81212,0.69572 -2.3121,1.81903 -3.33329,2.49626 -1.0212,0.67723 -2.16192,1.39433 -2.53493,1.59356 l -0.6782,0.36223 0.96886,0.1345 c 0.53288,0.074 1.9842,0.14214 3.22517,0.15148 1.24097,0.009 3.15933,-0.0744 4.26302,-0.18602 1.10368,-0.11165 2.87868,-0.37773 3.94443,-0.59129 1.06576,-0.21356 2.85122,-0.65057 3.96769,-0.97113 1.11648,-0.32055 2.05438,-0.60726 2.08423,-0.6371 0.0299,-0.0299 -0.13852,-1.13646 -0.37416,-2.45913 l -0.42844,-2.40486 -0.009,-4.06924 -0.009,-4.06924 0.36328,-1.93773 c 0.1998,-1.06575 0.61324,-2.70628 0.91876,-3.64563 0.30551,-0.93935 0.86866,-2.33452 1.25143,-3.10038 0.38277,-0.76585 0.92851,-1.7629 1.21274,-2.21566 0.28424,-0.45275 0.57297,-0.82334 0.64161,-0.82353 0.0686,-1.9e-4 0.60799,0.63184 1.19854,1.40451 l 1.07375,1.40486 0.78355,1.64707 c 0.43095,0.90589 0.93382,2.21386 1.11748,2.9066 l 0.33394,1.25952 v 2.2284 2.22839 l -0.33225,1.23608 c -0.18274,0.67984 -0.54273,1.75715 -0.79996,2.39402 -0.25724,0.63686 -0.88087,1.84136 -1.38584,2.67668 -0.50496,0.8353 -1.51116,2.21515 -2.23598,3.06631 l -1.31786,1.54756 1.39182,-0.57394 c 0.76551,-0.31567 2.44671,-1.12455 3.73601,-1.79751 1.2893,-0.67297 3.16819,-1.74148 4.17532,-2.37447 1.00712,-0.63299 2.50829,-1.65167 3.33592,-2.26373 l 1.50478,-1.11285 -0.90884,-1.10841 -0.90885,-1.10842 -0.74045,-1.57082 -0.74046,-1.57082 -0.40013,-1.62644 -0.40013,-1.62644 -0.10976,-3.00349 -0.10975,-3.00348 0.3192,-2.42217 c 0.17556,-1.33219 0.54278,-3.42494 0.81604,-4.65056 0.27326,-1.22561 0.55834,-2.33967 0.63351,-2.47568 l 0.13667,-0.2473 1.24898,0.80369 1.24898,0.80367 1.56447,1.58062 1.56446,1.58063 0.82811,1.39392 0.82811,1.39391 0.47838,1.50642 0.47838,1.50642 0.11031,1.56307 0.1103,1.56306 -0.22747,1.3443 c -0.1251,0.73936 -0.41137,1.91108 -0.63616,2.60382 -0.22478,0.69273 -0.64992,1.76091 -0.94476,2.37372 -0.29483,0.61281 -0.47034,1.1142 -0.39002,1.1142 0.0803,0 1.49207,-1.37337 3.13723,-3.05193 1.64515,-1.67856 3.7737,-3.99549 4.73011,-5.14874 0.95639,-1.15324 1.76045,-2.19961 1.78679,-2.32527 l 0.0479,-0.22848 -0.91986,-0.40899 c -0.50592,-0.22494 -1.35585,-0.73869 -1.88872,-1.14166 -0.53288,-0.40298 -1.33512,-1.16858 -1.78274,-1.70135 -0.44763,-0.53277 -1.11591,-1.54499 -1.48507,-2.24937 -0.36916,-0.70438 -0.85276,-1.84748 -1.07466,-2.54023 -0.2219,-0.69273 -0.53913,-2.1315 -0.70496,-3.19725 l -0.3015,-1.93773 -0.11628,-4.04967 -0.11628,-4.04967 1.04678,0.13605 c 0.57573,0.0748 1.76715,0.38297 2.64759,0.68475 0.88044,0.30178 2.09359,0.84213 2.69588,1.20078 l 1.09507,0.6521 1.29758,1.28732 1.29758,1.28731 0.88315,1.81306 c 0.48574,0.99718 1.08427,2.46704 1.33008,3.26635 l 0.44692,1.45331 0.005,1.89871 0.005,1.89872 0.33786,-0.4169 c 0.18582,-0.22928 1.00963,-1.47609 1.83069,-2.77069 0.82107,-1.29459 2.09014,-3.38877 2.82018,-4.65372 0.73003,-1.26496 1.30139,-2.31398 1.26968,-2.33117 -0.0317,-0.0172 -0.62444,-0.28564 -1.31718,-0.59659 -0.69275,-0.31094 -1.95711,-1.01973 -2.80972,-1.57509 l -1.55019,-1.00975 -1.57268,-1.61627 -1.57269,-1.61629 -1.06784,-1.64707 c -0.58731,-0.90589 -1.28668,-2.08307 -1.55416,-2.61594 -0.26748,-0.53288 -0.75751,-1.73795 -1.08895,-2.67794 -0.33144,-0.94 -0.78175,-2.41066 -1.00068,-3.26815 -0.21894,-0.85749 -0.35733,-1.5998 -0.30755,-1.64958 0.0498,-0.0498 0.79698,0.0535 1.66045,0.22969 0.86347,0.17611 2.28773,0.56302 3.16504,0.85979 0.87731,0.29677 2.0747,0.78071 2.66086,1.07543 0.58617,0.29471 1.60134,0.91552 2.25595,1.37956 0.65461,0.46405 1.68688,1.391 2.29394,2.05991 l 1.10375,1.21619 0.83393,1.74396 c 0.45867,0.95918 0.9316,2.1573 1.05096,2.66248 0.11936,0.50519 0.27338,1.58526 0.34227,2.40017 l 0.12524,1.48165 0.37434,-0.72966 c 0.20589,-0.40132 0.85195,-1.82472 1.43567,-3.16312 0.58374,-1.3384 1.57852,-3.96489 2.21064,-5.83663 0.63212,-1.87175 1.14943,-3.55241 1.14959,-3.73481 l 3.9e-4,-0.33163 -0.82353,-0.20501 c -0.45295,-0.11275 -1.52113,-0.39256 -2.37372,-0.62179 -0.85261,-0.22924 -2.29765,-0.69835 -3.21121,-1.04248 -0.91355,-0.34413 -2.39523,-0.99486 -3.2926,-1.44604 -0.89738,-0.45119 -2.28628,-1.25861 -3.08644,-1.79425 l -1.45483,-0.9739 -1.45875,-1.47097 -1.45875,-1.47096 -0.90632,-1.45567 c -0.49848,-0.80063 -1.13163,-2.0543 -1.40703,-2.78595 -0.27539,-0.73165 -0.45914,-1.37183 -0.40834,-1.42263 0.0508,-0.0508 0.81449,-0.17316 1.69709,-0.2719 l 1.60473,-0.17954 1.77082,0.19747 c 0.97395,0.10859 2.37184,0.38292 3.10641,0.60961 0.73459,0.22668 1.90243,0.69741 2.59522,1.04607 0.6928,0.34865 1.80014,1.04023 2.46077,1.53683 0.66063,0.49661 1.60933,1.35665 2.10822,1.9112 0.49888,0.55456 1.23266,1.48787 1.63061,2.07404 0.39795,0.58616 1.05373,1.71973 1.45728,2.51905 0.40354,0.79932 0.97112,2.10178 1.26127,2.89437 l 0.52755,1.44108 0.11039,-0.37533 c 0.0607,-0.20642 0.28946,-1.24729 0.50831,-2.31305 0.21886,-1.06575 0.52902,-2.96677 0.68925,-4.22449 l 0.29128,-2.28677 -0.0103,-3.23577 -0.0102,-3.23578 -0.24574,-1.49938 c -0.13516,-0.82466 -0.29237,-1.54602 -0.34937,-1.60301 -0.057,-0.057 -1.27156,0.0396 -2.69904,0.2148 l -2.5954,0.31844 -3.77858,-0.10818 -3.77857,-0.10817 -1.45331,-0.31559 c -0.79931,-0.17358 -2.17087,-0.5604 -3.04791,-0.85962 -0.87704,-0.29921 -2.19178,-0.89879 -2.92164,-1.3324 -0.72986,-0.4336 -1.7683,-1.18511 -2.30766,-1.67004 -0.53935,-0.48492 -1.37889,-1.47094 -1.86563,-2.19114 -0.48675,-0.7202 -1.06164,-1.76632 -1.27752,-2.3247 l -0.39251,-1.01523 0.723,-0.36728 c 0.39765,-0.20199 1.46418,-0.60537 2.37007,-0.89638 l 1.64708,-0.52912 2.37585,-0.10079 2.37584,-0.10081 1.46135,0.23575 c 0.80374,0.12965 2.17615,0.47766 3.0498,0.77334 0.87366,0.29568 2.11781,0.80514 2.76478,1.13215 0.64698,0.32701 1.96761,1.12385 2.93474,1.77075 l 1.75843,1.1762 1.95804,1.86176 c 1.07691,1.02396 1.95802,1.81898 1.95802,1.7667 0,-0.0523 -0.35611,-1.12933 -0.79136,-2.39343 -0.43524,-1.26411 -1.18191,-3.25755 -1.65925,-4.42988 -0.47734,-1.17233 -1.57731,-3.59772 -2.44436,-5.38976 l -1.57645,-3.258241 -0.30065,0.0924 c -0.16535,0.05083 -1.06044,0.363894 -1.98908,0.695717 -0.92863,0.331814 -2.54179,0.790404 -3.5848,1.019084 l -1.89638,0.41577 -3.29415,0.0152 -3.29414,0.0152 -1.93774,-0.36147 c -1.06575,-0.1988 -2.94294,-0.68947 -4.17153,-1.090391 -1.22858,-0.400907 -2.9577,-1.092903 -3.8425,-1.537768 l -1.60869,-0.808838 0.25769,-0.314751 c 0.14173,-0.173111 0.95527,-0.83527 1.80787,-1.471452 l 1.55019,-1.1567 1.74396,-0.842842 1.74396,-0.84285 1.55019,-0.403932 1.55018,-0.40394 2.22839,-0.01304 2.2284,-0.01296 1.71784,0.43404 c 0.94481,0.238717 2.31679,0.688913 3.04883,1.000427 0.73205,0.311514 1.79018,0.836654 2.3514,1.166983 0.56122,0.330328 1.26522,0.774394 1.56444,0.986804 0.29922,0.212417 0.5838,0.346434 0.6324,0.297834 0.0486,-0.04863 -0.55535,-1.095203 -1.34212,-2.32577 -0.78677,-1.230568 -2.11001,-3.140468 -2.94053,-4.244225 -0.83051,-1.10375 -2.19752,-2.809302 -3.03779,-3.790112 l -1.52778,-1.783288 -1.38988,1.073878 -1.38988,1.073878 -1.94384,0.943151 -1.94384,0.943151 -1.64707,0.443377 -1.64707,0.443371 -3.48792,-0.0037 -3.48792,-0.0037 -1.97318,-0.512572 c -1.08525,-0.281912 -2.73184,-0.821874 -3.65909,-1.199912 -0.92725,-0.378036 -1.73969,-0.743266 -1.8054,-0.81162 -0.0657,-0.06835 0.49089,-0.68261 1.23692,-1.365016 0.74603,-0.682404 2.0976,-1.771367 3.00349,-2.419916 l 1.64707,-1.179181 1.93773,-0.944505 1.93774,-0.944505 1.64707,-0.39186 1.64707,-0.391862 1.93774,0.0098 1.93773,0.0098 1.30797,0.341135 c 0.71938,0.187622 1.30797,0.31617 1.30797,0.285658 0,-0.03051 -0.80658,-0.700513 -1.7924,-1.488896 -0.98583,-0.78838 -2.57719,-1.957796 -3.53637,-2.598701 -0.95917,-0.640905 -2.61535,-1.655403 -3.68039,-2.254442 l -1.93644,-1.089156 h -0.41803 c -0.22992,0 -1.4387,-0.174492 -2.68617,-0.387758 l -2.26814,-0.387758 -1.73164,-0.580152 c -0.9524,-0.319082 -2.44734,-0.935832 -3.32209,-1.370554 -0.87476,-0.434722 -2.22337,-1.273318 -2.99691,-1.863548 -0.77355,-0.590229 -1.81197,-1.521148 -2.3076,-2.06871 -0.49564,-0.547561 -1.31836,-1.631364 -1.82827,-2.408452 l -0.92712,-1.412888 -0.59567,-1.544614 c -0.32761,-0.849537 -0.71882,-2.088495 -0.86934,-2.753238 -0.15053,-0.664743 -0.33516,-1.72371 -0.41032,-2.353259 l -0.13663,-1.144633 1.81853,0.127846 c 1.00019,0.07031 2.54697,0.255925 3.43729,0.412467 0.89032,0.156543 2.44328,0.509248 3.45104,0.783791 1.00775,0.274543 2.60109,0.832616 3.54073,1.240163 0.93965,0.407547 2.34979,1.155873 3.13364,1.662947 0.78386,0.507075 2.02513,1.499248 2.75838,2.20483 0.73325,0.705581 1.71769,1.819708 2.18764,2.475837 0.46995,0.656128 1.20243,1.935533 1.62774,2.84312 l 0.77329,1.65016 0.44107,1.88892 0.44106,1.88892 2.02727,1.25058 c 1.115,0.687819 2.98645,1.969702 4.15878,2.84863 1.17233,0.878926 2.61109,2.018637 3.19725,2.53269 0.58617,0.514051 1.22795,1.070258 1.42619,1.236013 l 0.36043,0.301374 -0.77523,-1.550186 c -0.42637,-0.852602 -1.0014,-2.183796 -1.27783,-2.958207 -0.27643,-0.774411 -0.69342,-2.300375 -0.92663,-3.391032 l -0.42405,-1.983012 -0.004,-3.003486 -0.004,-3.003486 0.34164,-1.736929 c 0.1879,-0.955311 0.60546,-2.568473 0.9279,-3.584806 0.32245,-1.016332 1.00666,-2.719856 1.52049,-3.78561 0.51382,-1.065752 1.06287,-2.109153 1.22012,-2.318666 l 0.2859,-0.380934 1.5289,2.337751 c 0.8409,1.285762 2.11027,3.506336 2.82084,4.934606 l 1.29194,2.596855 0.68117,2.040144 c 0.37464,1.122079 0.81688,2.685269 0.98274,3.473756 0.16586,0.788487 0.35519,2.189037 0.42073,3.112333 l 0.11916,1.678722 -0.23687,1.619969 -0.23688,1.619972 -0.47303,1.269143 -0.47305,1.269144 -0.89039,1.311899 -0.89039,1.311898 -1.23154,1.110268 -1.23153,1.110267 1.36693,1.550186 c 0.75183,0.852603 2.26657,2.745175 3.36611,4.205717 1.09954,1.460548 2.50043,3.446256 3.1131,4.412701 0.61266,0.966437 1.14472,1.726368 1.18236,1.688731 0.0376,-0.03764 -0.0381,-0.584579 -0.16832,-1.215436 l -0.23676,-1.147004 5.8e-4,-4.069243 5.8e-4,-4.069239 0.51143,-2.156284 c 0.28129,-1.185956 0.78629,-2.842718 1.12222,-3.681692 0.33593,-0.838975 0.88231,-2.004997 1.21418,-2.591162 0.33187,-0.586164 1.05655,-1.676139 1.61042,-2.422166 0.55386,-0.746027 1.40051,-1.736023 1.88144,-2.199989 l 0.87443,-0.843576 0.69218,1.237709 c 0.38068,0.680738 0.99946,1.902824 1.37505,2.715746 0.3756,0.812921 0.94123,2.249107 1.25697,3.191523 0.31573,0.942414 0.70905,2.487504 0.87402,3.433533 l 0.29995,1.72005 v 1.899681 1.899684 l -0.29347,1.395106 c -0.16141,0.767309 -0.50108,1.909099 -0.75482,2.537305 -0.25374,0.628206 -0.75387,1.639999 -1.11138,2.248424 l -0.65004,1.106233 -1.64707,1.65256 -1.64707,1.652559 -1.35642,0.858874 c -0.74603,0.472387 -1.39343,0.885855 -1.43866,0.918834 -0.0453,0.03296 0.58647,1.432635 1.40379,3.110374 0.81731,1.67773 2.00317,4.31235 2.63526,5.85469 l 1.14923,2.80427 0.0887,-0.47899 c 0.0488,-0.26344 0.23548,-1.2598 0.41491,-2.21413 0.17943,-0.95434 0.58016,-2.3931 0.89052,-3.19727 l 0.56428,-1.4621 1.18206,-1.82701 1.18204,-1.827004 1.68252,-1.660916 1.68253,-1.660916 1.7417,-1.175873 c 0.95793,-0.646736 2.14575,-1.40745 2.6396,-1.690482 l 0.89789,-0.514608 0.39539,1.593589 c 0.21745,0.87648 0.4989,2.46558 0.62544,3.531334 l 0.23006,1.93773 -0.12513,1.856986 -0.12512,1.85698 -0.38112,1.59565 c -0.20961,0.87761 -0.68417,2.25159 -1.05457,3.05329 -0.37042,0.80169 -1.05737,1.99475 -1.52657,2.65123 -0.4692,0.65647 -1.32142,1.63436 -1.89381,2.17308 -0.5724,0.53871 -1.58514,1.34815 -2.25054,1.79875 -0.66539,0.4506 -1.91492,1.16025 -2.77672,1.57701 -0.8618,0.41676 -1.6442,0.78449 -1.73866,0.81719 l -0.17175,0.0595 0.31038,1.64707 0.31039,1.64707 0.0209,3.68169 c 0.0115,2.02493 -0.0483,4.16128 -0.13284,4.74745 l -0.15381,1.06575 1.01283,-1.64707 c 0.55706,-0.90589 1.48287,-2.28638 2.05736,-3.06775 0.57448,-0.78137 1.70996,-2.11718 2.52328,-2.96847 0.81332,-0.85129 2.05,-1.97768 2.74819,-2.50309 0.69818,-0.52541 1.92341,-1.29325 2.72272,-1.70631 0.79932,-0.41307 2.02008,-0.93023 2.71283,-1.14924 0.69273,-0.21901 1.53466,-0.45302 1.87094,-0.52001 l 0.61142,-0.12181 0.14189,1.70335 0.14189,1.70336 -0.11376,2.03815 -0.11376,2.03815 -0.38806,1.45613 c -0.21342,0.80088 -0.57922,1.89085 -0.81286,2.42217 -0.23365,0.53132 -0.72438,1.43641 -1.09053,2.01132 -0.36613,0.57491 -1.11652,1.52282 -1.66752,2.10647 -0.551,0.58366 -1.53126,1.4396 -2.17834,1.9021 -0.64708,0.4625 -1.91146,1.19061 -2.80971,1.61802 -0.89826,0.4274 -2.41797,0.99823 -3.37715,1.26849 -0.95918,0.27027 -2.55396,0.61048 -3.54396,0.75604 -0.99,0.14555 -1.82589,0.29755 -1.85753,0.33778 -0.0316,0.0402 -0.29894,0.94514 -0.59399,2.01088 -0.29505,1.06576 -1.01895,3.24571 -1.60866,4.84434 -0.58971,1.59863 -1.58337,4.03691 -2.20813,5.41841 -0.62483,1.38149 -1.13599,2.53824 -1.13599,2.57056 0,0.0323 0.85018,-0.69219 1.88929,-1.60999 1.03911,-0.91781 2.85004,-2.39329 4.02428,-3.27884 1.17425,-0.88557 2.83644,-2.04517 3.69376,-2.57689 0.85733,-0.53173 2.29452,-1.33722 3.19377,-1.78998 0.89926,-0.45276 2.36121,-1.06912 3.2488,-1.3697 l 1.61378,-0.54651 1.51643,-0.20762 1.51642,-0.20763 1.3112,0.20946 c 0.72116,0.11521 1.38352,0.25417 1.47191,0.30879 0.0884,0.0546 0.1607,0.27933 0.1607,0.49933 0,0.22002 -0.30015,1.297 -0.667,2.39332 -0.36685,1.09632 -0.98829,2.63333 -1.38097,3.41558 -0.39269,0.78224 -1.15144,2.05682 -1.68612,2.83238 l -0.97214,1.41011 -1.62757,1.54063 -1.62758,1.54065 -1.78407,0.88054 -1.78406,0.88054 -1.35641,0.28303 -1.35641,0.28302 -1.99435,0.004 -1.99434,0.004 -1.49358,-0.3025 c -0.82147,-0.16638 -2.36555,-0.60136 -3.43131,-0.96663 l -1.93773,-0.66413 -0.25342,0.33685 c -0.13938,0.18528 -0.79756,1.29604 -1.46262,2.46837 -0.66507,1.17233 -1.87603,3.18231 -2.69103,4.46661 -0.81502,1.28432 -2.3105,3.48606 -3.32331,4.89278 -1.01281,1.40672 -1.7774,2.55767 -1.69911,2.55767 0.0783,0 1.62157,-0.57253 3.42951,-1.27229 1.80793,-0.69976 4.81312,-1.82401 6.67819,-2.49834 l 3.39103,-1.22605 1.90207,-0.33655 1.90207,-0.33656 3.03915,0.10571 3.03915,0.10572 1.64569,0.41221 c 0.90513,0.22671 1.70769,0.4742 1.78347,0.54998 l 0.13777,0.13777 -0.44141,1.26324 c -0.24278,0.69478 -0.77352,1.78442 -1.17943,2.42141 l -0.73801,1.15818 -1.42787,1.40895 -1.42788,1.40896 -1.36294,0.88169 c -0.74962,0.48493 -1.9609,1.12825 -2.69172,1.42963 -0.73082,0.30136 -2.0611,0.72821 -2.95616,0.94856 -0.89507,0.22034 -2.63851,0.49472 -3.87432,0.60972 l -2.24692,0.2091 -2.04861,-0.20839 c -1.12674,-0.11461 -2.38768,-0.32801 -2.80208,-0.47422 -0.41441,-0.14621 -1.09378,-0.44119 -1.50971,-0.6555 -0.41594,-0.21432 -1.12441,-0.70719 -1.57437,-1.09526 l -0.81813,-0.70559 -0.72355,-1.17225 -0.72356,-1.17225 -0.58983,0.74185 c -0.3244,0.40802 -1.09763,1.35443 -1.71829,2.10314 -0.62064,0.74871 -2.08768,2.38586 -3.26007,3.63812 -1.1724,1.25227 -2.99537,3.06162 -4.05104,4.0208 -1.05568,0.95918 -1.88533,1.74396 -1.84365,1.74396 0.0417,0 0.99482,-0.21717 2.11812,-0.48258 1.12329,-0.26542 2.89678,-0.63014 3.94109,-0.81049 l 1.89873,-0.32791 3.58481,-0.01 3.5848,-0.01 1.16264,0.25061 c 0.63946,0.13784 1.72943,0.42659 2.42217,0.64164 0.69274,0.21507 1.79779,0.65446 2.45567,0.97644 0.65787,0.32198 1.70371,0.99432 2.32407,1.49409 0.62036,0.49978 1.15351,1.04154 1.18479,1.20393 l 0.0568,0.29524 -1.50895,1.27054 c -0.82992,0.69879 -2.18121,1.70833 -3.00286,2.2434 -0.82165,0.53508 -2.16123,1.25068 -2.97684,1.59022 -0.81561,0.33954 -2.0617,0.74002 -2.7691,0.88996 l -1.28618,0.27261 -1.7614,0.004 -1.76141,0.004 -1.45395,-0.37186 c -0.79967,-0.20451 -2.03334,-0.63456 -2.74149,-0.95565 -0.70814,-0.32109 -1.95966,-1.04753 -2.78116,-1.61432 l -1.49362,-1.03052 -1.60909,-1.61809 c -0.88499,-0.88999 -1.60908,-1.69657 -1.60908,-1.79244 0,-0.0959 -0.0897,-0.1743 -0.19927,-0.1743 -0.10961,0 -1.27359,0.7703 -2.58665,1.71178 -1.31306,0.94147 -3.38154,2.28746 -4.59662,2.99107 -1.21508,0.70362 -3.16728,1.74268 -4.33822,2.30902 l -2.12898,1.02972 1.06323,0.0437 c 0.58477,0.024 2.284,0.13922 3.77605,0.25596 1.49205,0.11674 3.8464,0.42056 5.23188,0.67516 1.38548,0.25458 3.19475,0.68348 4.0206,0.9531 0.82585,0.26961 2.06297,0.74478 2.74915,1.0559 0.68618,0.31113 1.65797,0.84804 2.15953,1.19312 0.50157,0.34508 1.26151,0.98521 1.68877,1.4225 l 0.77682,0.79508 0.56194,1.19382 0.56194,1.19381 -0.0587,1.13147 -0.0586,1.13146 -1.35641,0.33887 c -0.74603,0.18638 -2.35919,0.47901 -3.58481,0.6503 l -2.22839,0.31143 -3.19726,-0.10123 -3.19726,-0.10123 -1.55018,-0.4056 -1.55019,-0.4056 -1.74396,-0.84863 -1.74396,-0.84863 -1.15795,-0.94661 c -0.63687,-0.52063 -1.57916,-1.46768 -2.09398,-2.10455 l -0.93605,-1.15795 -0.86106,-1.71521 c -0.47358,-0.94336 -0.86104,-1.83714 -0.86104,-1.98617 v -0.27096 l -0.24222,0.002 c -0.13322,0.001 -0.89759,0.21182 -1.6986,0.46769 -0.80101,0.25587 -2.50137,0.68404 -3.77858,0.95149 -1.27721,0.26747 -3.15058,0.58162 -4.16304,0.69813 -1.01247,0.11651 -2.81738,0.23221 -4.01093,0.25711 -1.19355,0.0249 -2.10912,0.0967 -2.03462,0.15955 0.0745,0.0628 0.44066,0.22795 0.81367,0.3669 0.37301,0.13894 2.16057,0.97363 3.97235,1.85487 l 3.29414,1.60226 2.42217,1.6011 2.42217,1.6011 1.95409,1.95229 1.95409,1.95229 0.69434,1.45329 c 0.38188,0.79932 0.74259,1.73498 0.80157,2.07925 l 0.10723,0.62595 -0.33869,0.18125 c -0.18628,0.0997 -1.01845,0.27582 -1.84926,0.39137 -0.83081,0.11556 -2.48524,0.20896 -3.6765,0.20755 l -2.16593,-0.002 -1.84084,-0.37727 -1.84085,-0.37727 -2.02579,-1.00395 -2.02581,-1.00396 -1.77495,-1.76505 -1.77496,-1.76505 -0.89012,-1.53226 c -0.48957,-0.84274 -1.18878,-2.2815 -1.55379,-3.19725 -0.36503,-0.91575 -0.85935,-2.51664 -1.09852,-3.55751 l -0.43483,-1.89252 -4.95639,0.0516 -4.95639,0.0516 -0.24629,1.21729 c -0.13546,0.66952 -0.51326,2.01415 -0.83955,2.98807 -0.32629,0.97392 -0.93756,2.43168 -1.35838,3.23948 -0.42082,0.8078 -1.23031,2.07911 -1.79887,2.82514 l -1.03375,1.35642 -1.29723,1.09182 c -0.71348,0.6005 -1.88767,1.40208 -2.60932,1.7813 -0.72165,0.37921 -2.09362,0.92254 -3.04883,1.20739 l -1.73675,0.51792 -3.10037,0.0657 -3.10037,0.0657 -1.39917,-0.24384 z"
       id="path51227" /></g></svg>
