<?xml version="1.0" encoding="UTF-8" standalone="no"?>
<!-- Created with Inkscape (http://www.inkscape.org/) -->

<svg
   width="1000"
   height="1000"
   viewBox="0 0 264.58333 264.58333"
   version="1.1"
   id="svg5"
   inkscape:version="1.2.2 (b0a8486541, 2022-12-01)"
   sodipodi:docname="constitutional.svg"
   xml:space="preserve"
   xmlns:inkscape="http://www.inkscape.org/namespaces/inkscape"
   xmlns:sodipodi="http://sodipodi.sourceforge.net/DTD/sodipodi-0.dtd"
   xmlns="http://www.w3.org/2000/svg"
   xmlns:svg="http://www.w3.org/2000/svg"><sodipodi:namedview
     id="namedview7"
     pagecolor="#ffffff"
     bordercolor="#000000"
     borderopacity="0.25"
     inkscape:showpageshadow="2"
     inkscape:pageopacity="0.0"
     inkscape:pagecheckerboard="0"
     inkscape:deskcolor="#d1d1d1"
     inkscape:document-units="px"
     showgrid="false"
     inkscape:zoom="0.52787981"
     inkscape:cx="331.51485"
     inkscape:cy="339.09234"
     inkscape:window-width="1920"
     inkscape:window-height="1004"
     inkscape:window-x="0"
     inkscape:window-y="0"
     inkscape:window-maximized="1"
     inkscape:current-layer="layer1" /><defs
     id="defs2"><inkscape:perspective
       sodipodi:type="inkscape:persp3d"
       inkscape:vp_x="0 : 552.5 : 1"
       inkscape:vp_y="0 : 1000 : 0"
       inkscape:vp_z="815 : 552.5 : 1"
       inkscape:persp3d-origin="407.5 : 368.33333 : 1"
       id="perspective11259" /><linearGradient
       id="linearGradient5938"><stop
         style="stop-color:#000000;stop-opacity:1;"
         offset="0"
         id="stop5940" /><stop
         id="stop5946"
         offset="0.5"
         style="stop-color:#000000;stop-opacity:0;" /><stop
         style="stop-color:#000000;stop-opacity:1;"
         offset="1"
         id="stop5942" /></linearGradient><linearGradient
       id="linearGradient5196"><stop
         style="stop-color:#860909;stop-opacity:1;"
         offset="0"
         id="stop5198" /><stop
         style="stop-color:#bb0d0d;stop-opacity:1;"
         offset="1"
         id="stop5200" /></linearGradient><linearGradient
       id="linearGradient7546"><stop
         style="stop-color:#6d0000;stop-opacity:1;"
         offset="0"
         id="stop7548" /><stop
         style="stop-color:#8a0000;stop-opacity:0;"
         offset="1"
         id="stop7550" /></linearGradient><linearGradient
       id="linearGradient13829"><stop
         id="stop13831"
         offset="0.00000000"
         style="stop-color:#ffffff;stop-opacity:1.0000000;" /><stop
         id="stop13833"
         offset="1.0000000"
         style="stop-color:#c9c9c9;stop-opacity:1.0000000;" /></linearGradient><linearGradient
       id="linearGradient15699"><stop
         style="stop-color:black;stop-opacity:0.78431374;"
         offset="0"
         id="stop15701" /><stop
         style="stop-color:black;stop-opacity:0;"
         offset="1"
         id="stop15703" /></linearGradient><polygon
       id="XMLID_5_"
       points="469.75879,342.92773 529.12402,342.16113 529.12402,440.2207 469.75879,440.2207 469.75879,342.92773 " /></defs><g
     inkscape:label="Layer 1"
     inkscape:groupmode="layer"
     id="layer1"><circle
       style="fill:#384a91;fill-opacity:1;stroke:#606060;stroke-width:0;stroke-dasharray:none;stroke-opacity:1;paint-order:stroke markers fill"
       id="path236"
       cx="132.29167"
       cy="132.29167"
       r="125.37917" /><circle
       style="fill:#ffffff;fill-opacity:0;stroke:#fffffe;stroke-width:5.29167;stroke-dasharray:none;stroke-opacity:1;paint-order:normal"
       id="path236-3"
       cx="132.29167"
       cy="132.29167"
       r="125.37917" /><path
       style="fill:#ffffff;stroke-width:0.34847;fill-opacity:1"
       d="m 69.398229,206.09618 c -0.383315,-0.21706 -0.812148,-0.56487 -0.952954,-0.77291 -0.140806,-0.20804 -0.258419,-2.68003 -0.261356,-5.49329 l -0.0053,-5.11505 0.547604,-0.54759 0.547591,-0.54761 h 62.994216 62.99419 l 0.57673,0.63727 0.57671,0.63726 v 5.05848 5.0585 l -0.73352,0.66383 -0.73352,0.66382 -62.4267,0.076 -62.426713,0.076 z m 8.007167,-17.78953 c -0.08851,-0.24017 -1.024101,-4.04334 -2.079179,-8.45149 -1.055078,-4.40815 -1.918827,-8.13242 -1.919446,-8.27616 l -0.0011,-0.26136 H 132.10234 190.799 l 0.15701,0.26136 c 0.0864,0.14374 -0.74182,4.02482 -1.84038,8.62463 l -1.99741,8.36328 -54.77597,0.0882 -54.775983,0.0883 z M 67.268212,165.72409 c -0.74507,-0.58489 -3.145293,-2.81945 -5.333813,-4.96569 -2.188534,-2.14625 -5.179047,-5.40396 -6.645598,-7.23938 -1.466552,-1.83541 -3.391793,-4.50121 -4.278301,-5.924 -0.886522,-1.42279 -2.33387,-4.11152 -3.216348,-5.97494 l -1.6045,-3.38807 -0.884401,-3.40711 -0.884414,-3.40711 -0.185125,-3.83317 -0.185111,-3.83318 0.537792,-2.835 0.537792,-2.835 1.073635,-2.56628 1.073635,-2.56629 1.798883,-2.39265 1.79887,-2.39267 1.945643,-1.54222 c 1.070105,-0.84823 3.200122,-2.16135 4.733395,-2.91805 1.533273,-0.7567 3.728629,-1.62804 4.878587,-1.93632 l 2.090822,-0.56049 4.530108,-0.17991 4.530108,-0.17992 3.136232,0.57526 c 1.724931,0.31639 4.596171,1.04966 6.380528,1.62948 1.784356,0.57981 3.957783,1.36006 4.82983,1.73387 l 1.585547,0.67964 2.231047,-2.08704 2.231048,-2.08703 2.870517,-1.370289 2.870516,-1.37029 2.508094,-0.55415 2.50807,-0.55415 4.11286,0.004 4.11285,0.004 3.31046,0.6878 c 1.82076,0.37828 3.40614,0.68984 3.52308,0.69236 0.11695,0.003 0.30081,-0.85017 0.40864,-1.89487 l 0.19603,-1.89946 0.92164,-1.846596 c 0.50689,-1.015633 1.46321,-2.405479 2.12518,-3.088542 l 1.20355,-1.241928 -0.54672,-1.545838 c -0.3007,-0.850197 -0.47535,-1.820904 -0.38813,-2.157095 l 0.15859,-0.61128 -0.85844,-0.215457 c -0.47214,-0.118534 -2.15047,-0.147641 -3.72963,-0.0648 l -2.87118,0.150698 -2.31183,1.081836 -2.31183,1.081827 -1.61726,1.490746 c -0.88949,0.819905 -2.01581,2.170806 -2.50292,3.001998 l -0.88566,1.511265 -0.46671,-0.387332 c -0.25669,-0.213033 -0.86634,-1.189299 -1.35478,-2.169463 l -0.88807,-1.782117 v -2.302458 -2.302442 l 0.89461,-1.795248 0.89461,-1.795248 1.26682,-1.112291 c 0.69675,-0.611757 2.29353,-1.598809 3.54839,-2.193459 l 2.28156,-1.081181 3.83317,0.004 3.83317,0.004 2.4393,0.828018 c 1.3416,0.45541 2.87051,1.045898 3.39759,1.312219 0.52705,0.266308 0.95828,0.403005 0.95828,0.303765 0,-0.09917 -0.85551,-2.181 -1.90115,-4.626174 -1.04563,-2.445161 -2.1433,-5.380371 -2.43929,-6.522677 -0.29598,-1.142267 -0.53814,-2.733069 -0.53814,-3.535075 V 61.97124 l 0.6918,-2.239793 0.6918,-2.239793 1.70421,-2.414144 c 0.93732,-1.327774 2.81897,-3.485014 4.18144,-4.793861 l 2.47721,-2.379717 0.99758,0.710352 c 0.54867,0.390691 1.94883,1.727223 3.11146,2.970073 1.16264,1.242863 2.59312,2.956296 3.17886,3.807652 0.58575,0.851343 1.41103,2.389015 1.83396,3.417041 l 0.76896,1.869134 -0.008,2.787766 -0.008,2.787753 -0.89413,2.613533 c -0.49176,1.437432 -1.60437,4.142434 -2.47245,6.011108 -0.86808,1.868674 -1.50123,3.397588 -1.40699,3.397588 0.0942,0 0.59476,-0.218776 1.11231,-0.486164 0.51754,-0.267388 1.96026,-0.82109 3.20604,-1.230456 l 2.26507,-0.744293 2.50579,-0.21281 2.5058,-0.212822 2.18694,0.430241 c 1.20281,0.236648 2.93122,0.80742 3.84091,1.268401 0.90969,0.460969 2.19807,1.315841 2.86306,1.899717 l 1.20907,1.061584 0.89462,1.795248 0.89461,1.795249 v 2.166179 2.166196 l -1.13254,2.180934 c -0.62288,1.199532 -1.28934,2.230534 -1.48099,2.291145 l -0.34847,0.110237 -0.67013,-1.398249 -0.67013,-1.398236 -1.69135,-1.582044 -1.69133,-1.582057 -2.32706,-1.088965 -2.32706,-1.088962 -2.87119,-0.150697 c -1.57914,-0.08284 -3.27199,-0.05005 -3.76187,0.07283 l -0.89068,0.223543 -0.003,1.300125 -0.003,1.300116 -0.52223,1.001342 -0.52222,1.001328 1.26058,1.395299 c 0.69331,0.767421 1.58129,2.120152 1.97327,3.006081 0.392,0.885915 0.81081,2.473219 0.9307,3.527349 l 0.218,1.91659 0.51104,-0.12446 c 0.28095,-0.0685 1.92222,-0.41919 3.64715,-0.77948 l 3.13624,-0.65507 4.18164,0.001 4.18164,10e-4 2.43929,0.50897 2.4393,0.50898 3.13623,1.561019 3.13623,1.56103 2.1182,1.90598 2.11821,1.90597 3.02888,-1.21615 c 1.66587,-0.66888 4.55456,-1.61313 6.41931,-2.09833 l 3.39044,-0.88219 4.87858,-0.17552 4.87858,-0.17552 2.48636,0.52978 c 1.36751,0.29139 3.56286,0.95492 4.87858,1.47452 1.31573,0.5196 3.43866,1.63351 4.71762,2.47535 l 2.3254,1.53061 1.74475,1.90906 c 0.95964,1.04996 2.29303,2.81157 2.96312,3.91467 0.67011,1.1031 1.65005,3.25861 2.17766,4.79004 l 0.9593,2.78442 0.14844,4.88532 0.14845,4.88533 -0.88955,3.69124 -0.88954,3.69124 -1.33591,3.09719 c -0.73476,1.70345 -2.09301,4.36938 -3.01833,5.92428 -0.92534,1.55488 -2.4608,3.86646 -3.41216,5.13681 -0.95135,1.27035 -2.94224,3.68324 -4.42417,5.36198 -1.48195,1.67873 -4.40691,4.58114 -6.49993,6.44982 l -3.80548,3.39757 h -10.2632 -10.2632 l 4.1565,-2.73181 c 2.28606,-1.50235 5.64619,-3.88457 7.46695,-5.29366 l 3.31046,-2.56197 4.53013,-4.5505 4.5301,-4.55047 1.97319,-2.78776 c 1.08525,-1.53328 2.6162,-3.98157 3.40211,-5.44068 0.7859,-1.45911 1.80707,-3.76471 2.26925,-5.12355 0.46216,-1.35885 1.0222,-3.67057 1.24451,-5.13716 l 0.4042,-2.66651 -0.39251,-2.31557 -0.39251,-2.31557 -0.87409,-1.81295 -0.87408,-1.81296 -1.74165,-1.5659 -1.74166,-1.56589 -1.98685,-0.77517 -1.98685,-0.77515 -3.83316,-0.14906 -3.83318,-0.14907 -3.07704,0.73136 c -1.69238,0.40224 -4.12296,1.14488 -5.40129,1.65028 -1.27833,0.50541 -2.3642,0.95043 -2.41304,0.98891 -0.0489,0.0385 0.0752,0.91862 0.27554,1.95585 l 0.36435,1.88588 0.003,4.2195 0.003,4.21951 -0.7201,3.53362 c -0.39606,1.94349 -1.20546,4.98428 -1.79866,6.75729 -0.5932,1.77303 -1.73903,4.635 -2.54627,6.35993 -0.80725,1.72492 -2.2269,4.39073 -3.15478,5.92399 -0.92787,1.53327 -2.77956,4.26706 -4.11485,6.07506 -1.33529,1.80801 -3.84113,4.74824 -5.56853,6.53382 l -3.14072,3.24653 -9.4446,-0.0183 -9.4446,-0.0183 0.86587,-0.59154 c 0.47624,-0.32535 2.12276,-1.52388 3.65895,-2.66341 l 2.79306,-2.07186 4.71253,-4.7233 4.71254,-4.72334 2.3302,-3.31046 c 1.28162,-1.82076 3.18304,-4.95699 4.2254,-6.9694 1.04234,-2.01241 2.38331,-5.09428 2.97991,-6.84858 l 1.08472,-3.18964 0.54218,-3.60553 0.54217,-3.60553 -0.23914,-2.43928 c -0.13157,-1.34162 -0.53737,-3.40934 -0.90189,-4.59495 l -0.66276,-2.15566 -1.38023,-1.74611 -1.38023,-1.74612 -1.48753,-0.86122 c -0.81814,-0.47367 -2.16335,-1.03941 -2.98936,-1.25721 l -1.50183,-0.39598 -3.02829,0.005 -3.02828,0.005 -2.43929,0.51695 c -1.3416,0.28432 -3.67596,0.93397 -5.18746,1.44367 -1.51149,0.50969 -3.74606,1.37444 -4.9657,1.92166 l -2.21753,0.99493 v 26.32407 26.3241 h -5.92399 -5.924 v -26.30244 -26.30242 l -1.30676,-0.6615 c -0.71872,-0.36382 -2.79647,-1.21614 -4.61723,-1.89404 -1.82076,-0.6779 -4.56043,-1.48962 -6.08817,-1.80382 l -2.77771,-0.57129 -3.10126,0.005 -3.10129,0.005 -1.78736,0.58776 c -0.98305,0.32327 -2.43584,1.0304 -3.2284,1.57139 l -1.441039,0.98362 -1.068999,1.6139 c -0.587959,0.88764 -1.350796,2.42139 -1.695192,3.40833 l -0.626206,1.79441 0.0079,4.87859 0.0079,4.87857 0.963476,3.48471 0.96349,3.4847 1.872164,3.89789 c 1.029696,2.14384 2.609706,5.04486 3.511166,6.4467 0.90144,1.40185 2.81533,4.00281 4.25308,5.77994 1.43775,1.77713 4.10812,4.63335 5.93416,6.34715 1.82605,1.71382 4.85735,4.2585 6.73624,5.65486 l 3.41616,2.53884 -9.28484,0.093 -9.28483,0.093 -1.70383,-1.66105 c -0.93711,-0.91359 -2.89455,-3.07237 -4.349862,-4.7973 -1.455304,-1.72492 -3.737625,-4.78275 -5.071786,-6.79518 -1.334174,-2.01241 -3.332446,-5.54068 -4.4406,-7.84058 -1.108168,-2.2999 -2.494735,-5.67135 -3.081284,-7.49211 -0.58655,-1.82076 -1.318462,-4.48655 -1.626468,-5.92398 l -0.560024,-2.61354 -0.1888,-3.87554 -0.188813,-3.87555 0.42151,-2.88274 0.421523,-2.88272 -0.462009,-0.29855 c -0.254126,-0.16421 -2.186953,-0.87886 -4.295199,-1.58813 l -3.833177,-1.28958 -5.070126,-0.0169 -5.070139,-0.0169 -2.670324,1.31939 -2.670338,1.31937 -1.225979,1.49614 c -0.674291,0.82289 -1.572165,2.26771 -1.995295,3.21074 l -0.769317,1.71459 -0.147615,3.16684 -0.147615,3.16683 0.725788,2.93139 0.725775,2.93139 1.921856,3.83318 1.921844,3.83317 2.347831,3.13624 c 1.291291,1.72493 3.998545,4.78571 6.016099,6.80172 2.01754,2.01602 5.001165,4.7333 6.630267,6.03838 1.629102,1.30508 5.078951,3.79024 7.66634,5.52259 2.58739,1.73234 4.769694,3.2098 4.849547,3.28321 0.07981,0.0734 -4.406911,0.13347 -9.970603,0.13347 h -10.1156 z"
       id="path61285" /></g></svg>
