<?xml version="1.0" encoding="UTF-8" standalone="no"?>
<!-- Created with Inkscape (http://www.inkscape.org/) -->

<svg
   width="1000"
   height="1000"
   viewBox="0 0 264.58333 264.58333"
   version="1.1"
   id="svg5"
   inkscape:version="1.2.2 (b0a8486541, 2022-12-01)"
   sodipodi:docname="meritocracy.svg"
   xml:space="preserve"
   xmlns:inkscape="http://www.inkscape.org/namespaces/inkscape"
   xmlns:sodipodi="http://sodipodi.sourceforge.net/DTD/sodipodi-0.dtd"
   xmlns="http://www.w3.org/2000/svg"
   xmlns:svg="http://www.w3.org/2000/svg"><sodipodi:namedview
     id="namedview7"
     pagecolor="#ffffff"
     bordercolor="#000000"
     borderopacity="0.25"
     inkscape:showpageshadow="2"
     inkscape:pageopacity="0.0"
     inkscape:pagecheckerboard="0"
     inkscape:deskcolor="#d1d1d1"
     inkscape:document-units="px"
     showgrid="false"
     inkscape:zoom="0.52787981"
     inkscape:cx="331.51485"
     inkscape:cy="490.64199"
     inkscape:window-width="1920"
     inkscape:window-height="1004"
     inkscape:window-x="0"
     inkscape:window-y="0"
     inkscape:window-maximized="1"
     inkscape:current-layer="layer1" /><defs
     id="defs2"><inkscape:perspective
       sodipodi:type="inkscape:persp3d"
       inkscape:vp_x="0 : 552.5 : 1"
       inkscape:vp_y="0 : 1000 : 0"
       inkscape:vp_z="815 : 552.5 : 1"
       inkscape:persp3d-origin="407.5 : 368.33333 : 1"
       id="perspective11259" /><linearGradient
       id="linearGradient5938"><stop
         style="stop-color:#000000;stop-opacity:1;"
         offset="0"
         id="stop5940" /><stop
         id="stop5946"
         offset="0.5"
         style="stop-color:#000000;stop-opacity:0;" /><stop
         style="stop-color:#000000;stop-opacity:1;"
         offset="1"
         id="stop5942" /></linearGradient><linearGradient
       id="linearGradient5196"><stop
         style="stop-color:#860909;stop-opacity:1;"
         offset="0"
         id="stop5198" /><stop
         style="stop-color:#bb0d0d;stop-opacity:1;"
         offset="1"
         id="stop5200" /></linearGradient><linearGradient
       id="linearGradient7546"><stop
         style="stop-color:#6d0000;stop-opacity:1;"
         offset="0"
         id="stop7548" /><stop
         style="stop-color:#8a0000;stop-opacity:0;"
         offset="1"
         id="stop7550" /></linearGradient><linearGradient
       id="linearGradient13829"><stop
         id="stop13831"
         offset="0.00000000"
         style="stop-color:#ffffff;stop-opacity:1.0000000;" /><stop
         id="stop13833"
         offset="1.0000000"
         style="stop-color:#c9c9c9;stop-opacity:1.0000000;" /></linearGradient><linearGradient
       id="linearGradient15699"><stop
         style="stop-color:black;stop-opacity:0.78431374;"
         offset="0"
         id="stop15701" /><stop
         style="stop-color:black;stop-opacity:0;"
         offset="1"
         id="stop15703" /></linearGradient><polygon
       id="XMLID_5_"
       points="469.75879,342.92773 529.12402,342.16113 529.12402,440.2207 469.75879,440.2207 469.75879,342.92773 " /></defs><g
     inkscape:label="Layer 1"
     inkscape:groupmode="layer"
     id="layer1"><circle
       style="fill:#003a84;fill-opacity:1;stroke:#606060;stroke-width:0;stroke-dasharray:none;stroke-opacity:1;paint-order:stroke markers fill"
       id="path236"
       cx="132.29167"
       cy="132.29167"
       r="125.37917" /><circle
       style="fill:#ffffff;fill-opacity:0;stroke:#fed602;stroke-width:5.29167;stroke-dasharray:none;stroke-opacity:1;paint-order:normal"
       id="path236-3"
       cx="132.29167"
       cy="132.29167"
       r="125.37917" /><path
       style="fill:#fed602;fill-opacity:1;stroke-width:0.289609"
       d="m 130.07937,213.15405 c -1.44883,-0.13834 -4.25079,-0.5272 -6.22659,-0.86414 -1.97581,-0.33696 -5.79929,-1.12646 -8.49664,-1.75447 -2.69734,-0.62801 -6.67926,-1.65605 -8.84872,-2.28452 -2.16944,-0.62848 -5.56647,-1.71955 -7.548927,-2.42462 -1.98247,-0.70508 -4.581913,-1.71419 -5.776544,-2.24248 -1.194646,-0.52829 -2.999476,-1.45592 -4.010753,-2.06139 l -1.838674,-1.10087 -0.3334,0.20075 c -0.183365,0.11041 -1.441142,0.99697 -2.795068,1.97013 -1.353915,0.97317 -2.600626,1.85288 -2.770462,1.95492 l -0.308783,0.18555 -4.54877,-4.55546 -4.54878,-4.55545 2.664429,-2.16215 c 1.465431,-1.1892 2.846197,-2.29761 3.068387,-2.46315 l 0.403956,-0.301 -3.076661,-3.53632 c -1.692175,-1.94498 -3.234446,-3.53634 -3.42729,-3.53634 -0.192844,0 -2.626601,0.83541 -5.408359,1.85647 l -5.057741,1.85645 -2.215738,-5.40417 c -1.218657,-2.97229 -2.134037,-5.48937 -2.034189,-5.5935 0.09983,-0.10409 2.266734,-1.12157 4.815302,-2.26094 2.548557,-1.13939 4.718803,-2.16195 4.822756,-2.27235 l 0.189024,-0.20074 -1.076066,-3.34288 c -0.591842,-1.8386 -1.157108,-3.47402 -1.256157,-3.63429 l -0.180082,-0.29138 -8.63477,0.78612 c -4.749123,0.43236 -8.646122,0.76455 -8.659979,0.73818 -0.0139,-0.0264 -0.246709,-2.57361 -0.517433,-5.66055 -0.270724,-3.08694 -0.454877,-5.64253 -0.409211,-5.67907 0.04564,-0.0366 3.520002,-0.73064 7.720759,-1.54244 4.200757,-0.81179 7.696974,-1.53522 7.76938,-1.60762 0.07235,-0.0724 -0.281002,-2.19591 -0.785321,-4.71892 -0.504319,-2.523 -1.023996,-4.69941 -1.154832,-4.83647 l -0.237875,-0.2492 -10.502484,-1.12879 c -5.776359,-0.62083 -10.546936,-1.17325 -10.601271,-1.22759 -0.05429,-0.0543 0.04783,-2.69234 0.227061,-5.86224 0.179216,-3.16989 0.369007,-5.80997 0.421755,-5.86684 0.05276,-0.0569 5.135358,0.76516 11.294701,1.82673 6.159333,1.06158 11.228337,1.89006 11.264448,1.84106 0.03612,-0.049 0.388654,-2.14885 0.783449,-4.66633 l 0.717808,-4.57726 -1.756263,-0.97564 c -0.96595,-0.53661 -6.447887,-3.53335 -12.182071,-6.65945 -5.734185,-3.12609 -10.5081,-5.7751 -10.608703,-5.88667 -0.100593,-0.11158 0.768563,-2.48354 1.931495,-5.27102 1.162931,-2.78749 2.222611,-5.233235 2.354848,-5.434989 l 0.240436,-0.366818 12.44695,6.807217 12.44694,6.80722 2.092508,-3.24117 2.092509,-3.24118 -0.330313,-0.398 C 71.501671,103.82506 65.315445,98.097042 57.936186,91.315025 L 44.519334,78.984079 44.917162,78.522296 c 0.218807,-0.253988 2.12921,-2.592789 4.245339,-5.197356 l 3.847502,-4.735572 13.936221,13.934 13.936233,13.93401 1.895472,-1.958214 c 1.042505,-1.077006 2.055019,-2.172468 2.250031,-2.434358 L 85.382529,91.588661 74.650466,74.01952 C 68.747825,64.356485 63.983487,56.34507 64.063031,56.216357 c 0.07958,-0.128712 1.981704,-1.31046 4.227016,-2.626108 l 4.082378,-2.392086 0.260906,0.260906 c 0.1435,0.1435 6.436831,9.771432 13.985182,21.395418 l 13.724287,21.134524 -0.32233,0.409254 c -0.177268,0.22508 -2.277187,1.918656 -4.666458,3.763478 -2.389273,1.844837 -5.565196,4.527807 -7.057609,5.962157 -1.492402,1.43435 -3.554645,3.65051 -4.582756,4.92478 -1.028123,1.27428 -2.695341,3.55495 -3.704932,5.06816 -1.009591,1.51321 -2.570142,4.22278 -3.467899,6.02127 -0.897747,1.79849 -2.078487,4.43926 -2.623854,5.86835 -0.545355,1.4291 -1.314575,3.80218 -1.709349,5.2735 -0.394784,1.47132 -0.914121,3.73527 -1.154087,5.031 -0.239955,1.29573 -0.582341,4.07654 -0.760857,6.17959 l -0.324578,3.8237 0.32137,4.09027 0.321382,4.09026 0.600095,2.90737 c 0.330051,1.59905 0.925352,3.94995 1.322873,5.22423 0.397532,1.27429 1.123231,3.2943 1.612675,4.48894 0.489444,1.19465 1.605418,3.47531 2.479948,5.06817 0.874519,1.59285 2.339589,4.01478 3.255725,5.38207 0.916113,1.36729 2.475395,3.49252 3.465053,4.72275 0.98967,1.23021 2.857974,3.30955 4.151808,4.62075 1.293833,1.31118 3.471621,3.31257 4.839535,4.44752 1.367908,1.13495 3.518255,2.73935 4.778549,3.56533 1.260284,0.82597 3.725006,2.19171 5.477136,3.03495 1.75213,0.84325 4.39165,2.00368 5.8656,2.57873 1.47393,0.57505 3.68702,1.32185 4.91797,1.65955 l 2.2381,0.61402 2.61184,-0.15495 2.61186,-0.15494 1.82185,-0.6356 1.82185,-0.6356 0.96685,-0.91186 0.96686,-0.91187 0.1785,-8.83187 c 0.0982,-4.85754 0.21721,-18.70393 0.2645,-30.76978 l 0.086,-21.93789 -0.30191,0.004 c -0.16604,0.002 -7.06942,3.51948 -15.34084,7.81604 -8.27144,4.29654 -15.067753,7.78086 -15.102943,7.74291 -0.03525,-0.038 -0.174839,-10.88588 -0.310326,-24.10654 -0.135499,-13.22067 -0.223964,-24.08169 -0.196588,-24.13561 0.02737,-0.0538 8.406047,4.6069 18.619287,10.35735 l 18.56954,10.45538 0.6397,-0.33784 c 0.35185,-0.18582 8.27237,-4.80898 17.60115,-10.27366 9.32879,-5.4647 17.14824,-10.00763 17.37655,-10.09539 l 0.41512,-0.15958 -0.24746,24.11346 c -0.13612,13.2624 -0.27699,24.14572 -0.31307,24.18517 -0.0361,0.0394 -6.11512,-3.07261 -13.50897,-6.91568 -7.39385,-3.84306 -14.2537,-7.38742 -15.24413,-7.87633 -0.99041,-0.48892 -1.85058,-0.83047 -1.91147,-0.75898 -0.0609,0.0715 -0.0221,13.85098 0.0862,30.62107 l 0.19695,30.4911 0.56942,0.78669 0.56943,0.7867 1.56193,0.76744 c 0.85905,0.4221 2.27576,0.91081 3.14826,1.08604 0.87249,0.17522 2.4495,0.31858 3.50447,0.31858 h 1.9181 l 1.69186,-0.44067 c 0.93052,-0.24237 3.19903,-1.02999 5.04114,-1.75026 1.8421,-0.72029 4.99584,-2.15707 7.0083,-3.19288 l 3.65903,-1.88328 3.13518,-2.354 c 1.72435,-1.2947 4.43914,-3.60191 6.03287,-5.12713 1.59373,-1.52523 3.87743,-3.94605 5.0749,-5.37961 1.19747,-1.43357 2.94948,-3.7794 3.89336,-5.21297 0.94387,-1.43357 2.43736,-4.04005 3.31885,-5.79218 0.88149,-1.75214 2.1002,-4.50834 2.70825,-6.1249 0.60806,-1.61657 1.4415,-4.26447 1.85209,-5.88424 0.41059,-1.61977 0.92874,-4.15892 1.15147,-5.64257 0.22271,-1.48365 0.49307,-4.24419 0.60076,-6.13454 l 0.19583,-3.437 -0.33913,-3.47531 c -0.18652,-1.91142 -0.60065,-4.77855 -0.92031,-6.3714 -0.31965,-1.59285 -1.11022,-4.52275 -1.75684,-6.51088 l -1.17565,-3.61478 -1.98379,-3.91506 -1.9838,-3.91506 -2.10601,-2.79963 c -1.15832,-1.5398 -3.27893,-4.13606 -4.7125,-5.76945 -1.43357,-1.6334 -4.29154,-4.51929 -6.35106,-6.41309 -2.05951,-1.893799 -4.75228,-4.202598 -5.98392,-5.130672 -1.23164,-0.928067 -2.40776,-1.743533 -2.61362,-1.812153 l -0.37427,-0.124749 13.57127,-21.266542 c 7.46419,-11.6966 13.7397,-21.450694 13.94558,-21.675764 l 0.3743,-0.409209 4.23512,2.535093 4.23511,2.535092 -0.14344,0.373824 c -0.0789,0.205595 -4.86272,8.11099 -10.63072,17.567531 -5.768,9.456553 -10.54614,17.297289 -10.6181,17.423867 -0.0719,0.126567 0.89047,1.255194 2.13872,2.508068 l 2.26956,2.277942 14.15167,-13.296009 c 7.78342,-7.312807 14.23446,-13.289814 14.33564,-13.282229 0.10125,0.0077 1.8782,2.09541 3.94891,4.63961 2.0707,2.544211 3.80134,4.732463 3.84586,4.862785 0.0445,0.130321 -6.04187,5.733932 -13.5253,12.452457 -7.48344,6.718508 -13.66911,12.317208 -13.74595,12.441528 -0.0768,0.12433 0.7444,1.78366 1.82499,3.6874 1.08058,1.90373 2.08204,3.43841 2.22544,3.41036 0.14342,-0.028 5.78981,-2.9929 12.54755,-6.5886 6.75774,-3.5957 12.36791,-6.537636 12.46704,-6.537636 0.0992,0 1.1561,2.384226 2.34882,5.298286 l 2.16856,5.29828 -12.53311,6.6481 c -6.89319,3.65645 -12.53437,6.77909 -12.53594,6.93921 -0.001,0.16012 0.50845,2.15928 1.13335,4.44256 0.62491,2.2833 1.182,4.19725 1.23799,4.25324 0.056,0.056 5.0509,-0.73711 11.0998,-1.76246 6.0489,-1.02535 11.07604,-1.86481 11.17145,-1.86547 0.0954,-5.8e-4 0.26564,2.61964 0.37834,5.82291 0.11269,3.20326 0.15516,5.87385 0.0944,5.93464 -0.0608,0.0607 -4.83664,0.61848 -10.613,1.23932 l -10.50247,1.12879 -0.23789,0.24919 c -0.13083,0.13706 -0.6505,2.31347 -1.15483,4.83647 -0.50432,2.52301 -0.86474,4.63949 -0.80094,4.70329 0.0638,0.0638 3.66566,0.88543 8.00414,1.82582 4.33846,0.94039 7.95977,1.78144 8.04732,1.869 0.0876,0.0876 -0.20662,2.57863 -0.65376,5.53572 l -0.81296,5.37651 -0.88424,-0.14565 c -0.48633,-0.0801 -3.94686,-0.47714 -7.69005,-0.88229 -3.7432,-0.40514 -7.21408,-0.80846 -7.71306,-0.89626 l -0.90723,-0.15964 -1.31599,3.93677 -1.31598,3.93676 0.51094,0.27345 c 0.28103,0.1504 1.67244,0.7897 3.09206,1.42069 1.4196,0.63097 3.45034,1.54654 4.51275,2.03459 l 1.93165,0.88737 -2.2717,5.28569 c -1.24945,2.90712 -2.38138,5.32224 -2.51541,5.36692 -0.13404,0.0447 -2.57833,-0.69969 -5.43178,-1.65416 -2.85344,-0.95446 -5.20476,-1.7045 -5.22515,-1.66676 -0.0204,0.0378 -1.20371,1.43703 -2.6296,3.10952 -1.4259,1.6725 -2.75533,3.2511 -2.9543,3.50802 l -0.36175,0.46712 2.8986,2.42289 c 1.59425,1.33259 2.89861,2.49237 2.89861,2.57728 0,0.0849 -1.98744,2.13708 -4.41653,4.56038 l -4.41655,4.40599 -3.2855,-2.05882 -3.28549,-2.05884 -6.99563,3.49696 c -3.84759,1.92332 -8.00257,3.89299 -9.23328,4.37704 -1.23072,0.48406 -3.70688,1.26543 -5.50258,1.73639 -1.7957,0.47097 -4.63332,1.12284 -6.3058,1.4486 -1.6725,0.32576 -4.53963,0.78094 -6.37141,1.01153 -1.83178,0.23058 -4.76406,0.48292 -6.5162,0.56076 l -3.1857,0.1415 z m -18.84926,-79.77819 c 3.12999,-1.75214 5.69108,-3.25086 5.6913,-3.3305 2.2e-4,-0.0797 -2.65216,-1.80644 -5.89418,-3.83732 -3.24202,-2.03088 -5.97701,-3.69253 -6.07775,-3.69253 -0.1007,0 -0.18317,3.20251 -0.18317,7.11667 v 7.11665 l 0.38644,-0.0936 c 0.21256,-0.0514 2.94736,-1.52721 6.07736,-3.27935 z m 47.86956,-10.49082 c -0.0681,-0.0681 -2.60578,1.54768 -5.63927,3.59065 -3.0335,2.04295 -5.51913,3.77963 -5.52364,3.85928 -0.004,0.0797 2.49817,1.53246 5.56152,3.22849 l 5.56974,3.0837 0.0777,-6.81914 c 0.0428,-3.75052 0.022,-6.87487 -0.0461,-6.94298 z"
       id="path66753" /></g></svg>
