<?xml version="1.0" encoding="UTF-8" standalone="no"?>
<!-- Created with Inkscape (http://www.inkscape.org/) -->

<svg
   width="1000"
   height="1000"
   viewBox="0 0 264.58333 264.58333"
   version="1.1"
   id="svg5"
   inkscape:version="1.2.2 (b0a8486541, 2022-12-01)"
   sodipodi:docname="partocracy.svg"
   xml:space="preserve"
   xmlns:inkscape="http://www.inkscape.org/namespaces/inkscape"
   xmlns:sodipodi="http://sodipodi.sourceforge.net/DTD/sodipodi-0.dtd"
   xmlns="http://www.w3.org/2000/svg"
   xmlns:svg="http://www.w3.org/2000/svg"><sodipodi:namedview
     id="namedview7"
     pagecolor="#ffffff"
     bordercolor="#000000"
     borderopacity="0.25"
     inkscape:showpageshadow="2"
     inkscape:pageopacity="0.0"
     inkscape:pagecheckerboard="0"
     inkscape:deskcolor="#d1d1d1"
     inkscape:document-units="px"
     showgrid="false"
     inkscape:zoom="0.52787981"
     inkscape:cx="331.51485"
     inkscape:cy="490.64199"
     inkscape:window-width="1920"
     inkscape:window-height="1004"
     inkscape:window-x="0"
     inkscape:window-y="0"
     inkscape:window-maximized="1"
     inkscape:current-layer="layer1" /><defs
     id="defs2"><inkscape:perspective
       sodipodi:type="inkscape:persp3d"
       inkscape:vp_x="0 : 552.5 : 1"
       inkscape:vp_y="0 : 1000 : 0"
       inkscape:vp_z="815 : 552.5 : 1"
       inkscape:persp3d-origin="407.5 : 368.33333 : 1"
       id="perspective11259" /><linearGradient
       id="linearGradient5938"><stop
         style="stop-color:#000000;stop-opacity:1;"
         offset="0"
         id="stop5940" /><stop
         id="stop5946"
         offset="0.5"
         style="stop-color:#000000;stop-opacity:0;" /><stop
         style="stop-color:#000000;stop-opacity:1;"
         offset="1"
         id="stop5942" /></linearGradient><linearGradient
       id="linearGradient5196"><stop
         style="stop-color:#860909;stop-opacity:1;"
         offset="0"
         id="stop5198" /><stop
         style="stop-color:#bb0d0d;stop-opacity:1;"
         offset="1"
         id="stop5200" /></linearGradient><linearGradient
       id="linearGradient7546"><stop
         style="stop-color:#6d0000;stop-opacity:1;"
         offset="0"
         id="stop7548" /><stop
         style="stop-color:#8a0000;stop-opacity:0;"
         offset="1"
         id="stop7550" /></linearGradient><linearGradient
       id="linearGradient13829"><stop
         id="stop13831"
         offset="0.00000000"
         style="stop-color:#ffffff;stop-opacity:1.0000000;" /><stop
         id="stop13833"
         offset="1.0000000"
         style="stop-color:#c9c9c9;stop-opacity:1.0000000;" /></linearGradient><linearGradient
       id="linearGradient15699"><stop
         style="stop-color:black;stop-opacity:0.78431374;"
         offset="0"
         id="stop15701" /><stop
         style="stop-color:black;stop-opacity:0;"
         offset="1"
         id="stop15703" /></linearGradient><polygon
       id="XMLID_5_"
       points="469.75879,342.92773 529.12402,342.16113 529.12402,440.2207 469.75879,440.2207 469.75879,342.92773 " /></defs><g
     inkscape:label="Layer 1"
     inkscape:groupmode="layer"
     id="layer1"><circle
       style="fill:#e71a1a;fill-opacity:1;stroke:#606060;stroke-width:0;stroke-dasharray:none;stroke-opacity:1;paint-order:stroke markers fill"
       id="path236"
       cx="132.29167"
       cy="132.29167"
       r="125.37917" /><circle
       style="fill:#212121;fill-opacity:0;stroke:#fec42f;stroke-width:5.29167;stroke-dasharray:none;stroke-opacity:1;paint-order:normal"
       id="path236-3"
       cx="132.29167"
       cy="132.29167"
       r="125.37917" /><path
       style="fill:#fec42f;fill-opacity:1;stroke-width:0.179939"
       d="m 91.302773,228.60591 c 23.776687,-0.0252 62.683987,-0.0252 86.460667,0 23.77668,0.0252 4.32303,0.0457 -43.23033,0.0457 -47.553367,0 -67.007019,-0.0205 -43.230337,-0.0457 z m 64.013277,-5.60312 c -0.69276,-0.18745 -2.47416,-0.78935 -3.95865,-1.33753 -1.4845,-0.54819 -8.00278,-2.74819 -14.48509,-4.88889 -6.48229,-2.14072 -12.39329,-4.09527 -13.13554,-4.34344 -0.74225,-0.24819 -2.15926,-0.84285 -3.14893,-1.32147 l -1.79939,-0.8702 -2.44728,-1.7076 c -1.34601,-0.93919 -6.12339,-4.16597 -10.6164,-7.17063 -4.49301,-3.00467 -8.880229,-5.90793 -9.749377,-6.45169 l -1.580257,-0.98865 -0.167389,-0.62979 c -0.09206,-0.34638 -0.213241,-0.99683 -0.26928,-1.44543 l -0.101897,-0.81565 -2.918839,-0.96005 c -1.605359,-0.52803 -3.755819,-1.31444 -4.778795,-1.74759 -1.022969,-0.43315 -2.33022,-0.9094 -2.904993,-1.05835 l -1.045045,-0.27079 -1.773415,0.001 c -0.975383,6.8e-4 -2.826062,0.1229 -4.112626,0.2711 -1.286562,0.14821 -3.50971,0.4441 -4.940335,0.65754 l -2.601131,0.38807 -0.974105,-0.20432 -0.974105,-0.20432 -0.605683,-0.46198 c -0.333126,-0.25408 -1.084578,-1.0863 -1.669899,-1.84936 -0.585315,-0.76308 -1.446294,-1.75178 -1.913294,-2.19713 -0.466993,-0.44535 -1.082422,-1.12552 -1.367622,-1.5115 l -0.518544,-0.70176 v -1.02805 -1.02805 l 1.101295,-2.22884 c 0.60571,-1.22586 1.177123,-2.47176 1.269804,-2.76866 0.09269,-0.29689 0.239825,-1.86111 0.326985,-3.47604 l 0.158459,-2.93624 0.532255,-1.11239 0.532254,-1.11239 0.873514,-1.01366 c 0.480432,-0.5575 1.793647,-2.0555 2.918254,-3.32887 1.124608,-1.27337 2.404037,-2.78 2.843167,-3.34806 0.439137,-0.56806 1.006123,-1.48652 1.259978,-2.041 l 0.461553,-1.00817 -0.09819,-0.60509 c -0.054,-0.3328 -0.416933,-1.15525 -0.806499,-1.82768 -0.389565,-0.67242 -0.809497,-1.53568 -0.933184,-1.91834 l -0.224883,-0.69574 0.09016,-0.67221 0.09016,-0.6722 -0.474148,-0.28828 c -0.260778,-0.15855 -1.153926,-0.90004 -1.984764,-1.64776 -0.830846,-0.74773 -1.955555,-1.61406 -2.499364,-1.92519 -0.543802,-0.31114 -1.259672,-0.80359 -1.590812,-1.09433 l -0.602079,-0.52863 -0.198047,-0.73551 -0.198054,-0.73551 0.113846,-0.75917 0.113846,-0.75918 0.548332,-0.82783 0.548331,-0.82783 1.46771,-0.97018 c 0.80724,-0.5336 1.992871,-1.23278 2.634735,-1.55374 0.641863,-0.32095 1.674054,-0.90377 2.293753,-1.29514 0.6197,-0.39137 1.403096,-1.03447 1.74088,-1.42909 0.337791,-0.39463 0.665374,-0.92157 0.727976,-1.17099 l 0.113812,-0.45347 -0.19596,-0.23613 c -0.10778,-0.12986 -0.457302,-0.36013 -0.776717,-0.5117 -0.319415,-0.15158 -1.171391,-0.39874 -1.89328,-0.54925 l -1.312528,-0.27368 -0.620114,-0.38325 -0.620122,-0.38325 -0.564599,-0.82062 -0.564606,-0.82063 -0.332561,-1.06852 -0.332568,-1.06854 v -1.57136 -1.57136 l 0.292987,-0.85987 0.292987,-0.85987 1.10154,-1.17916 c 0.605846,-0.64853 2.549268,-2.39631 4.318711,-3.88396 1.769443,-1.48765 4.117645,-3.54286 5.218232,-4.56714 1.10058,-1.02429 2.63606,-2.56561 3.412179,-3.42517 0.776112,-0.85956 1.565595,-1.86564 1.754407,-2.23573 l 0.343279,-0.67289 v -0.82407 -0.82406 l -0.346843,-0.67987 c -0.19077,-0.37393 -0.667299,-0.96939 -1.058952,-1.32322 l -0.712103,-0.64335 -1.648694,-0.851512 -1.648694,-0.85152 -1.116059,-1.24414 -1.116059,-1.24414 -1.484692,-0.904682 -1.484692,-0.904689 -0.188499,-0.352222 -0.188505,-0.352223 0.495958,-0.911233 0.495951,-0.911238 0.959463,-0.876894 0.959456,-0.876887 1.414004,-0.681498 1.414004,-0.681492 0.333255,-0.715381 c 0.183296,-0.393462 0.664721,-1.162699 1.069833,-1.709418 0.405113,-0.54672 1.439983,-1.763282 2.299712,-2.703457 0.859728,-0.940183 1.879181,-2.176188 2.265449,-2.746677 0.386274,-0.570482 0.875506,-1.50015 1.087182,-2.065919 0.211683,-0.565768 0.655248,-2.285266 0.985701,-3.8211 0.330446,-1.535834 0.820895,-3.39972 1.089882,-4.141971 0.268987,-0.742251 1.05362,-2.564128 1.743627,-4.048623 0.690007,-1.484501 1.940436,-4.237564 2.778735,-6.117926 0.838293,-1.880362 1.893042,-4.107106 2.343876,-4.94832 0.450835,-0.841215 1.217929,-2.107242 1.704645,-2.813392 0.486716,-0.706151 1.391643,-1.770468 2.010941,-2.365148 0.619302,-0.594682 1.832282,-1.541618 2.695527,-2.104303 0.86323,-0.562683 3.73345,-2.15452 6.37825,-3.537414 2.6448,-1.382893 5.82089,-3.003017 7.05797,-3.600276 1.23708,-0.597259 3.02374,-1.396063 3.97035,-1.775119 0.9466,-0.379058 2.20168,-0.836892 2.78905,-1.01741 l 1.06795,-0.328217 3.41883,0.02028 3.41884,0.02028 3.77872,0.301583 c 2.0783,0.165871 5.35768,0.500833 7.28753,0.74436 1.92984,0.243527 6.42382,0.929341 9.98661,1.52403 3.56279,0.59469 7.32637,1.250739 8.36352,1.457886 1.03715,0.207147 2.57534,0.620032 3.41819,0.917523 0.84286,0.297491 2.3932,0.972567 3.44522,1.500169 1.052,0.527602 2.67175,1.418436 3.59942,1.979629 0.92768,0.561194 2.92864,1.865009 4.44658,2.897366 1.51793,1.032358 4.43294,3.140109 6.4778,4.683891 2.04485,1.543783 3.96083,3.003892 4.25773,3.244686 0.29689,0.240794 1.17437,1.058833 1.94993,1.817862 0.77555,0.759031 1.8344,1.946863 2.35299,2.639628 0.51857,0.692765 1.79255,2.636102 2.83104,4.318535 1.03849,1.682426 2.62011,4.314032 3.51471,5.848009 0.89459,1.533984 2.51885,4.327532 3.60946,6.207897 1.09061,1.880358 2.31178,4.075499 2.7137,4.87808 0.40192,0.802581 1.2613,2.801287 1.90973,4.441576 0.64843,1.640281 1.47514,3.493769 1.83715,4.118861 0.362,0.625093 0.99127,1.460429 1.39838,1.856292 0.40711,0.395863 1.59424,1.300484 2.63809,2.010261 1.04383,0.709776 2.32207,1.625815 2.84052,2.035625 0.51844,0.40981 1.02505,0.92598 1.12577,1.14704 l 0.18313,0.40194 -1.46751,8.628692 c -0.80713,4.74578 -2.19031,12.87975 -3.07375,18.07549 -0.88343,5.19573 -1.76026,10.74235 -1.94851,12.32581 -0.18825,1.58347 -0.43396,3.11737 -0.54602,3.40869 -0.11206,0.29131 -0.59526,1.06055 -1.07377,1.70942 -0.47851,0.64887 -2.652,4.2972 -4.82997,8.1074 -2.17797,3.81021 -4.5477,7.93981 -5.26605,9.17689 -0.71835,1.23708 -1.66162,3.01099 -2.09616,3.94203 -0.43454,0.93104 -1.07516,2.51001 -1.42362,3.50881 -0.34845,0.99881 -0.91621,2.81693 -1.26168,4.04028 -0.34547,1.22334 -1.66977,6.32462 -2.9429,11.33615 -1.27313,5.01154 -2.65162,10.32647 -3.06333,11.81097 -0.4117,1.4845 -1.18254,4.35902 -1.71297,6.38784 -0.53043,2.0288 -1.08236,4.0184 -1.2265,4.42132 -0.14414,0.40291 -0.46871,1.14037 -0.72128,1.63878 -0.25257,0.49842 -0.67553,1.16329 -0.93991,1.47748 -0.26439,0.31421 -0.97739,0.92004 -1.58444,1.3463 -0.60705,0.42624 -2.79449,1.97487 -4.86098,3.44139 -2.06648,1.4665 -4.96801,3.66733 -6.44783,4.89074 -1.47982,1.22341 -3.14942,2.53548 -3.71021,2.91573 -0.56081,0.38025 -1.46499,0.91881 -2.0093,1.19682 l -0.98967,0.50548 -1.43951,0.0597 -1.43951,0.0597 z m 5.10913,-5.62287 c 0.85174,-0.50847 2.1964,-1.37468 2.98812,-1.92492 0.79174,-0.55023 3.11333,-2.21926 5.15911,-3.70893 2.04577,-1.48968 4.44942,-3.16696 5.34143,-3.72728 l 1.62184,-1.01878 0.37354,-0.73221 c 0.20544,-0.40271 0.61611,-1.75323 0.9126,-3.00115 0.29647,-1.24792 0.9891,-3.77985 1.53916,-5.62651 0.55006,-1.84667 2.042,-6.71794 3.31541,-10.82504 1.27341,-4.10711 2.679,-8.68923 3.12351,-10.1825 0.44452,-1.49327 1.14442,-4.14795 1.55534,-5.8993 0.41092,-1.75135 0.97489,-3.85811 1.25328,-4.68169 0.27838,-0.82358 0.60342,-1.67915 0.72229,-1.90127 0.11887,-0.22213 0.60411,-0.94223 1.07831,-1.60023 0.4742,-0.658 2.72268,-4.39478 4.99663,-8.30396 2.27396,-3.90917 4.58322,-7.80279 5.13169,-8.65248 0.54848,-0.84969 1.21574,-1.9761 1.4828,-2.50314 0.26707,-0.52703 0.67536,-1.70634 0.90729,-2.62067 0.23194,-0.91434 0.59433,-2.8244 0.80531,-4.24457 0.21098,-1.42018 0.90398,-5.61861 1.54001,-9.32985 0.63603,-3.71124 1.87698,-11.16072 2.75767,-16.55439 l 1.60125,-9.80667 -0.38677,-0.42322 c -0.21273,-0.232782 -1.27747,-1.207992 -2.3661,-2.167142 -1.08864,-0.95916 -2.50565,-2.15178 -3.14894,-2.650282 -0.64328,-0.498494 -1.55855,-1.169853 -2.03395,-1.4919 l -0.86434,-0.585532 -1.16186,0.465116 c -0.63902,0.255821 -1.36787,0.46513 -1.61967,0.46513 h -0.4578 l -2.39014,-2.384193 c -1.31458,-1.311305 -3.55713,-3.720102 -4.98346,-5.352875 -1.42632,-1.632773 -3.25443,-3.625773 -4.06247,-4.428878 -0.80804,-0.803111 -1.8405,-1.764471 -2.29435,-2.136369 l -0.82518,-0.67618 -0.5764,0.238757 c -0.31702,0.131311 -1.28443,0.703663 -2.14979,1.271887 -0.86535,0.568224 -1.81777,1.159516 -2.11647,1.313983 -0.29871,0.154468 -1.58472,0.515708 -2.8578,0.802758 -1.27309,0.287057 -3.06183,0.772229 -3.97498,1.078165 l -1.66027,0.556241 h -1.19909 c -0.65951,0 -2.41605,-0.17096 -3.90344,-0.379902 l -2.70434,-0.379895 -1.1986,0.09818 -1.19862,0.09818 -0.78071,0.394959 c -0.4294,0.217233 -1.4285,0.9387 -2.22023,1.603265 -0.79174,0.664564 -2.05982,1.623347 -2.81797,2.130629 l -1.37846,0.922337 -0.37595,0.527969 c -0.20677,0.290383 -0.37594,0.640735 -0.37594,0.778561 0,0.137832 0.30364,0.539157 0.67476,0.891842 0.37113,0.352684 2.05131,1.736554 3.73374,3.075267 1.68243,1.338705 3.56451,2.89478 4.1824,3.45793 l 1.12344,1.02391 -0.17568,0.32827 c -0.0966,0.18054 -0.58332,0.62749 -1.08154,0.99321 -0.49822,0.365732 -0.9948,0.831162 -1.10351,1.034292 l -0.19765,0.36932 2.09009,2.02148 2.0901,2.02147 v 0.25815 c 0,0.14198 -0.54657,0.84477 -1.21459,1.56175 l -1.21459,1.3036 -0.70775,0.23757 -0.70775,0.23758 -0.53895,-0.18788 -0.53896,-0.18788 -1.3624,-1.28892 c -0.74933,-0.70891 -2.01019,-1.78008 -2.80193,-2.38037 -0.79173,-0.6003 -2.37427,-1.98237 -3.51675,-3.07126 -1.14248,-1.08889 -2.47414,-2.231512 -2.95923,-2.539152 -0.4851,-0.30764 -1.01166,-0.55935 -1.17014,-0.55935 h -0.28813 l -0.64502,0.67477 c -0.35477,0.37112 -0.74006,0.860022 -0.85622,1.086432 l -0.21118,0.41166 0.12138,0.39807 c 0.0668,0.21893 0.5243,0.99366 1.01675,1.72162 0.49246,0.72795 1.00913,1.59581 1.14816,1.92856 0.13904,0.33276 0.25279,0.83418 0.25279,1.11427 v 0.50926 l -0.71976,1.46843 c -0.39586,0.80762 -0.71975,1.62942 -0.71975,1.82621 v 0.3578 l 2.45127,4.10312 c 1.3482,2.25671 2.92223,4.79138 3.49784,5.63259 0.5756,0.84122 1.3307,1.86134 1.67798,2.26694 l 0.63143,0.73745 2.93335,-0.69706 c 1.61333,-0.38339 4.29519,-0.90065 5.95968,-1.14947 l 3.02635,-0.4524 1.02228,-0.37411 1.02228,-0.37411 2.15927,-1.45456 c 1.18759,-0.80001 2.9987,-1.96392 4.02468,-2.58647 1.02598,-0.62254 2.18281,-1.21736 2.57073,-1.32181 l 0.70532,-0.18992 1.11801,0.28195 1.11802,0.28196 3.59878,1.77473 3.59878,1.77474 0.80973,0.71725 0.80972,0.71726 v 6.72654 6.72655 l -0.30497,0.75921 c -0.16773,0.41757 -0.71191,1.39362 -1.20929,2.169 -0.49739,0.77539 -1.26247,2.17465 -1.70016,3.10948 -0.43769,0.93482 -0.95334,2.06406 -1.14589,2.50941 -0.19254,0.44534 -0.84127,1.41701 -1.44162,2.15926 -0.60035,0.74225 -2.15795,2.35338 -3.46134,3.58029 -1.30339,1.22692 -3.48682,3.49743 -4.85207,5.04559 -1.36525,1.54816 -2.90157,3.19182 -3.41404,3.65258 l -0.93177,0.83774 -1.02594,0.41453 -1.02595,0.41454 -5.66807,6.8e-4 -5.66808,6.8e-4 -0.4135,0.149 -0.4135,0.14901 -0.26253,-0.21788 -0.26252,-0.21788 -0.44928,-1.47295 c -0.2471,-0.81013 -0.55451,-1.61688 -0.68314,-1.79278 l -0.23386,-0.31982 -0.71014,0.19217 c -0.39057,0.10569 -1.59487,0.54834 -2.67624,0.98366 l -1.9661,0.79148 -1.4949,2.13675 c -0.8222,1.17521 -2.07753,2.97655 -2.78962,4.00298 -0.71209,1.02643 -1.70003,2.26521 -2.19542,2.75285 l -0.90071,0.88661 -2.08094,1.02959 c -1.14452,0.56628 -2.99331,1.42083 -4.10841,1.89901 l -2.02746,0.8694 -0.90304,0.94619 -0.90304,0.94618 -0.87979,0.47884 c -0.48389,0.26336 -1.51337,0.64953 -2.28773,0.85816 l -1.40794,0.37932 -4.13859,0.0799 -4.1386,0.0799 -1.88935,-1.4343 c -1.03915,-0.78886 -2.96815,-2.33338 -4.28665,-3.43225 -1.31852,-1.09887 -2.7599,-2.21044 -3.20308,-2.47017 l -0.80578,-0.47221 -0.69529,0.0933 -0.69529,0.0933 -0.78417,0.53951 c -0.43129,0.29674 -1.12644,0.91085 -1.54479,1.3647 -0.41834,0.45385 -0.76062,0.90228 -0.76062,0.99652 0,0.0942 0.50016,0.60213 1.11147,1.12864 0.61131,0.52652 1.54249,1.37008 2.0693,1.87459 l 0.95783,0.9173 v 0.38032 0.38033 l -0.67477,0.1817 c -0.37113,0.0999 -1.45096,0.3414 -2.39963,0.53659 -0.94867,0.1952 -4.470985,0.76847 -7.827348,1.27394 -3.356372,0.50547 -6.982145,1.1266 -8.057284,1.38029 l -1.954793,0.46124 -0.969004,-0.0804 c -0.532955,-0.0442 -1.01323,-0.12458 -1.06729,-0.17863 -0.05407,-0.0541 -0.0014,-0.49275 0.116668,-0.97488 0.118226,-0.48213 0.51768,-1.56486 0.88768,-2.40608 0.37,-0.84121 0.759416,-1.81288 0.865366,-2.15927 0.105951,-0.34638 0.21622,-0.95367 0.245042,-1.34954 l 0.05243,-0.71976 -0.936013,-0.0541 -0.936007,-0.0541 -0.539184,0.27882 c -0.296551,0.15336 -0.734947,0.54207 -0.974214,0.86382 -0.239267,0.32174 -0.973581,1.66945 -1.631808,2.9949 -0.658233,1.32545 -1.580026,3.06171 -2.048434,3.85836 -0.468408,0.79664 -1.181904,1.79723 -1.585548,2.22351 l -0.7339,0.77491 -0.795583,-0.002 c -0.437572,-0.001 -1.240936,-0.12167 -1.785248,-0.26777 -0.544312,-0.14609 -1.383189,-0.26659 -1.864172,-0.26777 l -0.874506,-0.002 -1.072602,0.57169 -1.072594,0.57169 -0.711096,0.80784 c -0.391096,0.44432 -0.759457,1.00055 -0.81857,1.23608 -0.0591,0.23553 -0.06366,0.47204 -0.01013,0.52556 0.05352,0.0535 0.407384,0.16929 0.786347,0.25724 0.378963,0.088 1.579727,0.16019 2.668358,0.16053 l 1.979323,5.4e-4 2.699084,-0.3555 2.699085,-0.35549 2.072917,-6.8e-4 2.072917,-6.8e-4 1.265208,0.35061 c 0.695862,0.19283 2.313687,0.792 3.595156,1.33147 1.281476,0.53947 3.544545,1.40008 5.029039,1.91246 1.484495,0.51238 3.291764,1.21452 4.016155,1.56033 l 1.317065,0.62873 -0.118885,1.56169 -0.118886,1.56169 8.158649,5.42338 c 4.48725,2.98287 9.41372,6.19002 10.9477,7.12699 1.53397,0.93698 3.26451,1.97133 3.84562,2.29855 l 1.05657,0.59495 0.33067,-0.43441 c 0.18186,-0.23892 3.02251,-4.92032 6.31254,-10.40311 3.29004,-5.48279 6.8272,-11.31281 7.86035,-12.9556 1.03315,-1.6428 2.08956,-3.32127 2.34758,-3.72994 l 0.46912,-0.74304 3.86869,-1.27916 c 2.12778,-0.70353 4.73185,-1.51704 5.78683,-1.80778 1.05497,-0.29074 2.67442,-0.69104 3.59878,-0.88956 0.92435,-0.19851 2.27342,-0.41796 2.99795,-0.48766 l 1.3173,-0.12673 -0.12644,0.69928 c -0.0695,0.3846 -0.32202,1.2256 -0.56107,1.86887 -0.23905,0.64329 -1.06909,2.3842 -1.84455,3.86869 -0.77546,1.4845 -2.09713,4.19708 -2.93705,6.02796 -0.83992,1.83087 -3.12758,6.97263 -5.08371,11.42612 -1.95612,4.45348 -4.15806,9.42534 -4.89321,11.04857 l -1.33662,2.95132 0.23634,0.16641 c 0.12998,0.0915 1.20817,0.6444 2.39597,1.22857 1.18779,0.58419 3.13006,1.42112 4.31616,1.85985 1.18611,0.43872 2.22579,0.7549 2.31042,0.70259 0.0846,-0.0523 0.47267,-0.75373 0.86231,-1.55874 l 0.70844,-1.46364 1.3391,-4.13859 c 0.7365,-2.27623 1.62246,-4.72728 1.9688,-5.44678 l 0.62969,-1.30817 0.31132,-0.11946 0.31131,-0.11946 1.53835,0.31621 1.53836,0.31621 0.8997,0.48423 0.89969,0.48422 -0.0261,1.61686 -0.0261,1.61687 -0.49016,2.87902 -0.49016,2.87902 -0.0235,1.88936 c -0.013,1.03915 0.0408,2.19301 0.11955,2.56413 0.0787,0.37112 0.19156,0.67477 0.25077,0.67477 0.0592,0 0.80454,-0.41602 1.65628,-0.92449 z M 75.198604,174.86234 c 0.371326,-0.13251 0.941073,-0.44377 1.266112,-0.69169 0.325034,-0.24792 0.81481,-0.77375 1.088394,-1.16853 0.273584,-0.39479 0.775684,-1.35529 1.11578,-2.13446 l 0.618353,-1.41667 -0.492531,-0.21681 c -0.270884,-0.11924 -0.770603,-0.22046 -1.110482,-0.22492 l -0.617965,-0.008 -0.786477,0.38072 -0.786484,0.38073 -0.711939,0.94297 c -0.391572,0.51862 -0.903084,1.42018 -1.136706,2.00346 -0.233616,0.58327 -0.479255,1.36414 -0.545863,1.73527 l -0.121116,0.67477 0.772895,-0.008 c 0.425094,-0.004 1.076703,-0.11632 1.448029,-0.24884 z m 5.823724,-8.81258 0.920752,-0.42873 0.470299,-0.61659 c 0.258656,-0.33912 0.714775,-1.15578 1.013591,-1.8148 0.298808,-0.65901 0.543292,-1.31278 0.543292,-1.45282 0,-0.14004 -0.141703,-0.31102 -0.314893,-0.37997 -0.17319,-0.069 -0.936945,-0.16978 -1.697238,-0.22407 l -1.382346,-0.0987 -0.998745,1.53221 c -0.54931,0.84271 -1.162087,1.91326 -1.361718,2.379 -0.199639,0.46573 -0.362982,1.00202 -0.362982,1.19175 v 0.34496 l 1.124621,-0.002 1.124615,-0.002 0.920752,-0.42873 z m 30.298662,-8.07272 c 0,-0.17951 -0.15442,-0.62907 -0.34316,-0.99903 -0.18874,-0.36994 -1.21529,-1.92544 -2.28123,-3.45665 l -1.93807,-2.78402 -2.04994,-2.02622 c -1.12746,-1.11443 -2.2879,-2.14928 -2.57874,-2.29968 l -0.52882,-0.27346 -0.32806,0.17557 c -0.18044,0.0966 -0.42742,0.29529 -0.54884,0.4416 l -0.22079,0.26602 0.35626,0.68849 c 0.19593,0.37866 0.81426,1.13383 1.37405,1.67814 0.5598,0.54432 1.13303,1.20832 1.27386,1.47556 0.14082,0.26724 0.25604,0.72903 0.25604,1.02618 0,0.29716 -0.094,0.74653 -0.20882,0.9986 l -0.20882,0.45832 h -0.24701 c -0.13585,0 -0.62894,-0.19556 -1.09573,-0.43457 -0.46681,-0.23903 -1.1859,-0.76166 -1.598,-1.16143 -0.412095,-0.39976 -1.391785,-1.52 -2.177075,-2.48942 -0.785305,-0.96943 -1.759104,-2.06166 -2.163999,-2.42719 -0.404901,-0.36552 -0.987026,-0.79431 -1.293608,-0.95284 l -0.557431,-0.28827 -1.927481,0.039 -1.927481,0.039 -0.741897,-0.38265 -0.741897,-0.38265 -1.870245,-1.97729 -1.870245,-1.97729 -1.240956,-0.81506 c -0.682519,-0.44828 -1.637024,-0.94661 -2.121115,-1.10741 l -0.880158,-0.29234 -1.654577,0.82956 -1.654577,0.82957 -0.53981,-0.002 c -0.296904,-0.001 -1.374137,-0.20447 -2.393856,-0.45152 -1.019718,-0.24704 -2.278424,-0.49905 -2.797125,-0.56002 l -0.943093,-0.11084 -2.061226,0.38627 c -1.133673,0.21244 -2.286994,0.47566 -2.562931,0.58493 -0.275938,0.10927 -0.582438,0.34951 -0.681104,0.53387 l -0.179393,0.3352 0.169606,0.31691 c 0.09328,0.17429 0.324618,0.45719 0.514083,0.62865 0.189457,0.17146 0.940882,0.60201 1.669824,0.95676 l 1.325348,0.64501 1.277361,1.23859 1.277368,1.23859 0.672318,0.28091 0.672324,0.28091 0.400794,-0.43073 c 0.220443,-0.2369 0.586892,-0.65488 0.81434,-0.92884 l 0.413545,-0.4981 1.257598,0.11688 c 0.69168,0.0643 2.20601,0.16651 3.365173,0.22719 l 2.107574,0.11031 1.585249,-0.19695 1.585242,-0.19696 0.363165,0.21972 c 0.199741,0.12085 0.676419,0.75279 1.059286,1.40433 0.382867,0.65154 0.801642,1.26884 0.930613,1.37177 0.128971,0.10293 0.660423,0.22607 1.180994,0.27364 l 0.946507,0.0865 0.35805,0.32404 0.358058,0.32403 v 0.38666 0.38667 l -0.584804,0.56599 c -0.321639,0.31129 -0.878159,0.68835 -1.236706,0.83788 -0.358547,0.14954 -1.370703,0.35576 -2.249236,0.45826 -0.878533,0.10249 -2.31787,0.26619 -3.198531,0.36376 -0.880661,0.0976 -1.633936,0.21013 -1.673939,0.25014 -0.03999,0.04 0.156046,0.669 0.435676,1.39777 l 0.50841,1.32505 1.435434,0.0501 c 0.789489,0.0276 2.083213,-0.0222 2.874947,-0.11065 l 1.439513,-0.1608 0.359874,0.18195 c 0.197938,0.10008 0.736374,0.49475 1.196533,0.87703 0.460158,0.3823 1.12558,0.81581 1.478714,0.96335 0.35314,0.14755 0.817461,0.26827 1.03183,0.26827 0.214376,0 0.700977,-0.0932 1.081348,-0.2072 l 0.69157,-0.2072 1.455401,-1.18732 c 0.800473,-0.65303 1.748707,-1.36361 2.1072,-1.57908 l 0.651793,-0.39175 0.774688,0.55634 c 0.42608,0.30599 1.19968,1.04908 1.719115,1.65132 0.51942,0.60225 1.31465,1.45936 1.76716,1.90471 l 0.82275,0.80973 4.35197,0.004 4.35197,0.004 z m 53.69935,-7.18772 c 0.97723,-0.61469 2.03868,-1.36463 2.35879,-1.66654 l 0.58203,-0.54891 0.181,-0.65556 0.18101,-0.65556 -0.12288,-0.60082 -0.12288,-0.60083 -0.30445,-0.0586 -0.30446,-0.0586 -1.30784,0.70718 c -0.71931,0.38896 -1.85441,1.00732 -2.52243,1.37414 l -1.21458,0.66696 v 1.60741 1.60742 h 0.40996 0.40996 z m -3.35427,-5.88485 c 0.36718,-0.18961 1.26762,-0.79595 2.00097,-1.34744 0.73335,-0.55148 1.67619,-1.16865 2.0952,-1.37149 l 0.76184,-0.36881 2.08061,-0.24199 2.08062,-0.24199 0.5862,-0.34237 0.5862,-0.34235 0.36624,-0.62342 0.36624,-0.62342 -0.0122,-2.15927 -0.0122,-2.15926 -0.62486,-2.08954 -0.62487,-2.08952 1.0503,-0.19533 c 0.57767,-0.10742 1.51214,-0.40637 2.0766,-0.66431 l 1.0263,-0.46899 1.9142,-1.99536 1.91421,-1.99536 0.22449,0.41949 0.22451,0.41948 -0.1123,1.63064 c -0.0617,0.89684 -0.16403,2.1264 -0.22727,2.73234 l -0.11498,1.1017 0.4043,0.4043 0.4043,0.4043 0.82593,-0.11321 c 0.45427,-0.0623 0.89859,-0.18586 0.9874,-0.27466 0.0888,-0.0888 0.28109,-1.12044 0.4273,-2.2925 l 0.26583,-2.13103 -0.0812,-2.24923 -0.0811,-2.24924 -0.20729,-0.53982 -0.20727,-0.53981 -1.29823,-0.76474 -1.29823,-0.76475 h -0.41383 c -0.2276,0 -0.83624,0.21316 -1.35252,0.47368 -0.51629,0.26052 -2.35572,1.30106 -4.08763,2.3123 -1.73191,1.01125 -3.65405,2.11389 -4.27141,2.45033 l -1.12249,0.61171 -0.002,0.66306 c -0.001,0.36468 -0.0868,0.891 -0.1904,1.1696 l -0.18827,0.50654 -1.27347,1.20275 -1.27347,1.20275 -0.24518,1.67627 c -0.13484,0.92195 -0.45249,2.76941 -0.70589,4.10545 -0.2534,1.33605 -0.49714,2.55273 -0.54165,2.70374 l -0.0809,0.27456 -1.21527,0.52 c -0.6684,0.28599 -1.53097,0.72925 -1.91683,0.98501 l -0.70158,0.46501 -0.34395,0.62979 -0.34395,0.62978 0.0994,0.77967 c 0.0547,0.42882 0.14534,0.85392 0.20143,0.94468 l 0.10199,0.16502 h 0.7163 0.71631 l 0.6676,-0.34474 z m -67.84415,-10.17895 0.76474,-0.31173 v -1.66199 -1.66199 l -0.314892,-0.2761 c -0.17319,-0.15185 -0.582049,-0.41147 -0.908578,-0.57692 l -0.593687,-0.30082 -1.332482,0.0353 -1.332482,0.0353 -0.479337,-0.31407 c -0.263642,-0.17275 -1.096017,-0.88587 -1.849727,-1.58472 l -1.37039,-1.27064 -1.082456,-0.50299 -1.082455,-0.50298 -1.259578,-0.19872 -1.25957,-0.19872 -4.647519,0.12804 -4.647511,0.12805 -0.268498,0.26849 -0.26849,0.2685 0.05788,0.91915 0.05787,0.91915 1.169357,0.19311 c 0.643149,0.10621 1.351552,0.29124 1.574225,0.41119 l 0.404861,0.21809 0.0151,0.39853 c 0.0083,0.21919 0.02856,0.86126 0.04495,1.42682 l 0.02992,1.02829 0.286397,0.28633 0.286391,0.28632 0.97318,0.0964 0.97318,0.0964 1.436208,-0.46048 1.436209,-0.46047 1.047289,0.27138 c 0.57601,0.14926 2.271671,0.80161 3.768128,1.44966 1.496457,0.64805 3.293893,1.33339 3.994298,1.52298 l 1.273471,0.3447 1.169602,-0.0685 1.169602,-0.0685 0.764741,-0.31172 z m 18.30879,-17.70431 0.71976,-0.32957 0.83546,-0.89777 c 0.4595,-0.49377 0.96218,-1.14283 1.11707,-1.44235 l 0.28161,-0.54458 -2.10673,-0.50771 -2.10674,-0.50772 -1.25957,-0.0626 -1.25957,-0.0626 -0.43219,0.23192 c -0.2377,0.12755 -0.51936,0.3715 -0.62591,0.54211 l -0.19371,0.3102 0.63592,0.67946 c 0.34976,0.37371 0.94822,1.07353 1.32991,1.55516 l 0.69399,0.87569 0.55557,0.24189 c 0.30555,0.13303 0.67702,0.24328 0.82547,0.24498 0.14845,0.001 0.59379,-0.14522 0.98966,-0.32648 z m 4.67841,-5.28705 0.8997,-0.36025 1.71697,-0.0888 1.71697,-0.0888 2.64892,0.30132 c 1.4569,0.16572 2.72882,0.25193 2.82648,0.19157 0.0977,-0.0604 0.17758,-0.21397 0.17758,-0.34136 0,-0.12738 -0.36438,-0.56322 -0.80973,-0.96853 l -0.80972,-0.73691 v -0.37756 c 0,-0.20766 0.16673,-0.70438 0.37051,-1.10382 l 0.37051,-0.72627 -0.0556,-0.48116 -0.0556,-0.48116 -0.68977,0.0414 c -0.37938,0.0227 -1.43202,0.27717 -2.3392,0.5654 -0.9072,0.28824 -1.97653,0.57752 -2.3763,0.64285 l -0.72687,0.11879 -0.80261,-0.18365 -0.80262,-0.18364 -0.91286,0.62407 c -0.50208,0.34325 -0.99436,0.62408 -1.09396,0.62408 -0.0996,0 -1.02486,-0.43894 -2.05613,-0.97541 -1.03127,-0.53648 -2.60379,-1.27642 -3.49449,-1.64431 -0.89069,-0.36789 -2.79355,-1.04955 -4.22856,-1.5148 l -2.60911,-0.84591 -0.40191,-0.70371 -0.4019,-0.70369 -0.003,-0.65717 -0.003,-0.65717 0.56342,-0.19641 c 0.30988,-0.10802 1.45872,-0.28084 2.55299,-0.38403 l 1.98957,-0.18763 0.73684,-0.325932 0.73684,-0.32594 0.44685,-0.53106 c 0.24577,-0.29207 0.84547,-1.24128 1.33267,-2.10934 l 0.88582,-1.578292 0.51963,-0.43724 c 0.28579,-0.240485 0.72174,-0.487974 0.96878,-0.549971 l 0.44915,-0.11273 0.19776,0.197755 0.19776,0.197761 -0.19304,1.039638 -0.19304,1.039649 0.13598,0.14487 c 0.0748,0.0797 1.54448,0.50525 3.26599,0.94573 1.72151,0.44048 4.32069,1.10095 5.77596,1.46774 1.45528,0.36677 2.68238,0.62946 2.7269,0.58375 0.0445,-0.0457 0.0973,-0.32605 0.11718,-0.62295 0.0199,-0.29689 0.0277,-0.88071 0.0172,-1.29737 l -0.0191,-0.75756 -3.8237,-1.88574 -3.8237,-1.885737 -1.43952,-1.111403 c -0.79173,-0.611273 -1.78356,-1.267663 -2.20406,-1.458651 l -0.76457,-0.347258 -4.09378,1.608012 c -2.25159,0.88441 -4.62012,1.776926 -5.2634,1.983372 -0.64328,0.206446 -2.01982,0.579615 -3.05896,0.829267 -1.03915,0.249653 -2.055985,0.454025 -2.259625,0.454154 l -0.37026,1.77e-4 -0.53642,-1.304558 -0.536429,-1.30456 -0.442857,0.04625 c -0.243572,0.02544 -0.867965,0.13238 -1.387542,0.237678 l -0.944678,0.191457 v 0.675629 0.67563 l -0.466055,1.333944 -0.466048,1.333937 0.18822,0.93722 c 0.103523,0.51548 0.527045,1.73096 0.941169,2.701072 l 0.752948,1.76385 0.0886,0.76914 0.08859,0.76915 -0.332187,0.36706 c -0.182698,0.20189 -0.834783,0.72572 -1.449082,1.16406 l -1.116896,0.79701 -0.20916,0.63377 -0.209166,0.63378 0.329793,0.52312 c 0.181385,0.28772 0.606587,0.93422 0.944895,1.43666 l 0.615102,0.91353 h 0.384588 0.384581 l 0.609736,-0.44985 0.609736,-0.44984 h 0.501202 0.501195 l 0.384505,0.76474 c 0.21147,0.4206 0.50907,0.90644 0.66132,1.07963 l 0.27684,0.31489 h 0.38702 c 0.21286,0 0.908825,-0.17328 1.546575,-0.38507 0.63776,-0.21178 1.25596,-0.46062 1.37379,-0.55297 l 0.21423,-0.1679 -0.0991,-0.25811 c -0.0545,-0.14196 -0.044,-0.55151 0.0233,-0.9101 l 0.12232,-0.65199 1.11204,0.11323 c 0.61162,0.0623 2.28615,0.19276 3.72116,0.28995 l 2.60911,0.17671 1.07964,0.27915 1.07963,0.27915 0.71975,0.54241 c 0.39587,0.29831 1.08228,0.78318 1.52536,1.07748 l 0.8056,0.53508 0.27404,-0.11655 c 0.15071,-0.0641 0.67889,-0.27867 1.17372,-0.47681 z m -32.704276,-14.002352 0.224543,-0.61627 -0.101605,-1.169601 c -0.0559,-0.643285 -0.245496,-1.857867 -0.421359,-2.699084 l -0.319749,-1.529484 -0.85528,-0.05454 -0.855281,-0.05454 -1.713445,-0.620244 -1.713438,-0.620237 h -0.855002 -0.855002 l -0.597563,1.165073 c -0.328664,0.640789 -0.56179,1.192289 -0.518068,1.225552 0.04373,0.03326 0.80826,0.668144 1.69896,1.410857 0.8907,0.7427 2.086791,1.700245 2.657993,2.127868 0.571196,0.42763 1.623844,1.08808 2.339204,1.46768 0.715367,0.37961 1.381639,0.66612 1.480605,0.6367 0.09897,-0.0294 0.280983,-0.33081 0.404487,-0.66975 z M 48.162416,28.378867 c 0,-0.04948 0.04047,-0.08997 0.08997,-0.08997 0.04951,0 0.08997,0.04049 0.08997,0.08997 0,0.04948 -0.04046,0.08997 -0.08997,0.08997 -0.04951,0 -0.08997,-0.04048 -0.08997,-0.08997 z"
       id="path53791" /></g></svg>
