<?xml version="1.0" encoding="UTF-8" standalone="no"?>
<!-- Created with Inkscape (http://www.inkscape.org/) -->

<svg
   width="1000"
   height="1000"
   viewBox="0 0 264.58333 264.58333"
   version="1.1"
   id="svg5"
   inkscape:version="1.2.2 (b0a8486541, 2022-12-01)"
   sodipodi:docname="religious_authoritarianism.svg"
   xml:space="preserve"
   xmlns:inkscape="http://www.inkscape.org/namespaces/inkscape"
   xmlns:sodipodi="http://sodipodi.sourceforge.net/DTD/sodipodi-0.dtd"
   xmlns="http://www.w3.org/2000/svg"
   xmlns:svg="http://www.w3.org/2000/svg"><sodipodi:namedview
     id="namedview7"
     pagecolor="#ffffff"
     bordercolor="#000000"
     borderopacity="0.25"
     inkscape:showpageshadow="2"
     inkscape:pageopacity="0.0"
     inkscape:pagecheckerboard="0"
     inkscape:deskcolor="#d1d1d1"
     inkscape:document-units="px"
     showgrid="false"
     inkscape:zoom="0.52787981"
     inkscape:cx="331.51485"
     inkscape:cy="490.64199"
     inkscape:window-width="1920"
     inkscape:window-height="1004"
     inkscape:window-x="0"
     inkscape:window-y="0"
     inkscape:window-maximized="1"
     inkscape:current-layer="layer1" /><defs
     id="defs2"><inkscape:perspective
       sodipodi:type="inkscape:persp3d"
       inkscape:vp_x="0 : 552.5 : 1"
       inkscape:vp_y="0 : 1000 : 0"
       inkscape:vp_z="815 : 552.5 : 1"
       inkscape:persp3d-origin="407.5 : 368.33333 : 1"
       id="perspective11259" /><linearGradient
       id="linearGradient5938"><stop
         style="stop-color:#000000;stop-opacity:1;"
         offset="0"
         id="stop5940" /><stop
         id="stop5946"
         offset="0.5"
         style="stop-color:#000000;stop-opacity:0;" /><stop
         style="stop-color:#000000;stop-opacity:1;"
         offset="1"
         id="stop5942" /></linearGradient><linearGradient
       id="linearGradient5196"><stop
         style="stop-color:#860909;stop-opacity:1;"
         offset="0"
         id="stop5198" /><stop
         style="stop-color:#bb0d0d;stop-opacity:1;"
         offset="1"
         id="stop5200" /></linearGradient><linearGradient
       id="linearGradient7546"><stop
         style="stop-color:#6d0000;stop-opacity:1;"
         offset="0"
         id="stop7548" /><stop
         style="stop-color:#8a0000;stop-opacity:0;"
         offset="1"
         id="stop7550" /></linearGradient><linearGradient
       id="linearGradient13829"><stop
         id="stop13831"
         offset="0.00000000"
         style="stop-color:#ffffff;stop-opacity:1.0000000;" /><stop
         id="stop13833"
         offset="1.0000000"
         style="stop-color:#c9c9c9;stop-opacity:1.0000000;" /></linearGradient><linearGradient
       id="linearGradient15699"><stop
         style="stop-color:black;stop-opacity:0.78431374;"
         offset="0"
         id="stop15701" /><stop
         style="stop-color:black;stop-opacity:0;"
         offset="1"
         id="stop15703" /></linearGradient><polygon
       id="XMLID_5_"
       points="469.75879,342.92773 529.12402,342.16113 529.12402,440.2207 469.75879,440.2207 469.75879,342.92773 " /></defs><g
     inkscape:label="Layer 1"
     inkscape:groupmode="layer"
     id="layer1"><circle
       style="fill:#e71a1a;fill-opacity:1;stroke:#606060;stroke-width:0;stroke-dasharray:none;stroke-opacity:1;paint-order:stroke markers fill"
       id="path236"
       cx="132.29167"
       cy="132.29167"
       r="125.37917" /><circle
       style="fill:#212121;fill-opacity:0;stroke:#f6b333;stroke-width:5.29167;stroke-dasharray:none;stroke-opacity:1;paint-order:normal"
       id="path236-3"
       cx="132.29167"
       cy="132.29167"
       r="125.37917" /><path
       style="fill:#f6b333;fill-opacity:1;stroke-width:0.201764"
       d="m 132.80671,234.70273 c 0,-0.0837 -0.45034,-2.61836 -1.00075,-5.63256 -0.5504,-3.01419 -1.81772,-10.11084 -2.81623,-15.7703 -0.99852,-5.65945 -2.95018,-16.82706 -4.33703,-24.8169 -1.38684,-7.98983 -3.61078,-20.88251 -4.9421,-28.6504 -1.33131,-7.7679 -3.01503,-17.68287 -3.74159,-22.03328 -0.72655,-4.3504 -1.32101,-8.08919 -1.32101,-8.30841 v -0.3986 l 1.0786,-0.31355 1.07859,-0.31356 1.52867,-0.99792 c 0.84078,-0.54888 2.22346,-1.65791 3.07265,-2.46455 0.84917,-0.80663 2.09614,-2.19766 2.77105,-3.09119 l 1.2271,-1.62457 0.72502,-1.51323 0.72501,-1.51322 0.0709,-2.70163 c 0.039,-1.48591 0.008,-3.29164 -0.0694,-4.01274 l -0.1404,-1.31112 -8.40458,0.11989 c -4.62252,0.066 -9.67568,0.21239 -11.22926,0.32545 -1.55358,0.11307 -3.64182,0.30898 -4.64056,0.43538 -0.99873,0.1264 -2.40602,0.4091 -3.127333,0.62823 -0.721299,0.21915 -1.892806,0.7204 -2.603361,1.11391 l -1.291898,0.71548 -1.262512,1.26251 -1.262512,1.26251 -0.708694,1.48459 -0.708696,1.48459 -0.245471,1.27075 -0.245479,1.27075 0.108208,1.57871 0.108208,1.5787 0.227223,0.42458 c 0.12497,0.23351 0.425735,0.53081 0.668362,0.66066 l 0.441139,0.2361 1.420547,-0.0163 1.420555,-0.0163 1.916857,-0.41698 c 1.054266,-0.22934 3.437587,-0.90501 5.296287,-1.50148 l 3.37944,-1.08451 v 0.27006 c 0,0.14853 -0.18506,0.73954 -0.41125,1.31337 -0.22618,0.57382 -0.80804,1.65672 -1.29303,2.40644 -0.485,0.74972 -1.52775,2.09618 -2.31727,2.99214 l -1.43547,1.62901 -1.659846,1.29195 c -0.912915,0.71058 -2.159976,1.57269 -2.771256,1.9158 -0.611268,0.34311 -1.519208,0.77093 -2.017632,0.9507 -0.498431,0.17979 -1.450996,0.40688 -2.116811,0.50465 l -1.21058,0.17776 -1.359847,-0.28334 -1.359854,-0.28335 -1.574616,-0.81921 -1.574617,-0.8192 -1.458096,-1.33078 c -0.801956,-0.73194 -1.854075,-1.88915 -2.33804,-2.57162 -0.483965,-0.68246 -1.16401,-1.80767 -1.511208,-2.50046 -0.347207,-0.6928 -0.766483,-1.77869 -0.931732,-2.41311 L 78.3306,123.32948 v -1.37499 -1.375 l 0.403216,-1.14721 c 0.221763,-0.63096 0.723886,-1.63018 1.115832,-2.22049 0.391938,-0.5903 1.060545,-1.42121 1.485792,-1.84645 0.425247,-0.42525 1.670898,-1.36558 2.768116,-2.08961 1.097216,-0.72403 2.161124,-1.50079 2.364242,-1.7261 l 0.369297,-0.40967 -0.06664,-0.46038 -0.06665,-0.4604 -0.706171,-0.41374 -0.706171,-0.41374 -4.16076,-0.0704 -4.160759,-0.0703 -0.524145,0.27463 c -0.288282,0.15105 -0.958871,0.81828 -1.490193,1.48276 l -0.966047,1.20813 -0.90636,0.46669 -0.906359,0.46668 -1.315297,-0.0671 -1.315297,-0.0671 -1.206746,-0.57978 -1.206745,-0.57977 -3.228214,-3.26837 -3.228215,-3.26836 -0.990172,-0.66871 c -0.544594,-0.36777 -1.396929,-0.82309 -1.894078,-1.01181 l -0.903906,-0.34311 0.582616,-0.14514 c 0.320439,-0.0798 1.08198,-0.42843 1.692315,-0.77467 l 1.109698,-0.62954 3.344334,-3.360349 3.344334,-3.360342 1.371625,-0.675248 1.371626,-0.67525 1.388375,0.0214 1.388374,0.02139 0.878324,0.514731 c 0.483073,0.283102 1.034388,0.752914 1.22513,1.044032 0.19075,0.291112 0.668157,0.884994 1.060919,1.319724 l 0.714108,0.790441 h 4.023322 4.023329 l 0.883972,-0.222592 0.883979,-0.222582 0.351866,-0.38881 0.351872,-0.388816 -0.190482,-0.548744 -0.190475,-0.548738 -2.317924,-1.543027 -2.317925,-1.543026 -0.973817,-1.079898 -0.973818,-1.079899 -0.82064,-1.688819 -0.82064,-1.688815 0.0135,-1.640281 0.0135,-1.640277 0.417493,-1.311462 c 0.229617,-0.721305 0.758673,-1.919956 1.175677,-2.663669 0.416996,-0.743714 1.278755,-1.983783 1.915012,-2.755708 l 1.156842,-1.403499 1.365208,-1.02532 c 0.750857,-0.563927 1.828597,-1.245764 2.394966,-1.515193 0.566376,-0.269431 1.51349,-0.633521 2.104702,-0.809091 l 1.074919,-0.319218 h 1.137336 1.137344 l 1.095874,0.325145 c 0.602736,0.178831 1.549848,0.553724 2.104702,0.833095 0.554847,0.279372 1.508183,0.835393 2.118508,1.235605 0.610336,0.400213 1.954127,1.541194 2.98622,2.535519 1.03208,0.994324 2.31288,2.402936 2.84623,3.130249 0.53336,0.727312 1.21889,1.754561 1.52339,2.282775 0.30451,0.528214 0.68084,1.383026 0.8363,1.899578 0.15545,0.516554 0.24557,0.976265 0.20025,1.021581 -0.0453,0.04532 -1.63123,-0.421264 -3.52426,-1.036846 -1.89303,-0.615582 -4.344502,-1.303184 -5.447723,-1.528002 -1.103205,-0.224822 -2.51814,-0.408765 -3.144293,-0.408765 h -1.138473 l -0.570822,0.295182 c -0.31395,0.16235 -0.633878,0.45743 -0.710959,0.65573 -0.07708,0.198304 -0.188537,1.132295 -0.24769,2.075538 l -0.107552,1.71499 0.321225,1.361908 c 0.176672,0.749046 0.60359,1.921284 0.948713,2.604973 l 0.627505,1.243066 1.026092,1.084944 c 0.564347,0.596718 1.55276,1.436637 2.196462,1.866483 l 1.170358,0.781536 1.567295,0.512745 c 0.862017,0.281998 2.112072,0.606318 2.777892,0.720704 0.66581,0.114385 2.39089,0.307779 3.8335,0.429753 l 2.62293,0.22177 9.20522,0.108775 9.20523,0.108663 0.14944,-5.180889 0.14944,-5.180893 -0.13602,-6.798187 c -0.0748,-3.739002 -0.22053,-8.310465 -0.32382,-10.158803 -0.10333,-1.848339 -0.29096,-3.841566 -0.41702,-4.429396 l -0.22922,-1.068778 -0.56425,-0.56425 -0.56425,-0.56425 h -1.20375 -1.20375 l -0.46623,0.377533 -0.46623,0.37753 6e-5,0.681727 4e-5,0.681726 0.86909,2.318633 0.86908,2.318631 0.0287,0.928677 0.0288,0.928676 -0.28762,0.538251 -0.28764,0.538248 -1.02383,0.500107 -1.02382,0.500107 -1.63055,0.218774 -1.63055,0.218774 -1.4253,-0.197516 c -0.78393,-0.10863 -1.75361,-0.353304 -2.15486,-0.543715 -0.40127,-0.190408 -0.97034,-0.63043 -1.26462,-0.977825 -0.29429,-0.347397 -0.78841,-1.187843 -1.09803,-1.867657 -0.30964,-0.679815 -0.74163,-1.918145 -0.96,-2.751849 -0.21836,-0.8337 -0.45631,-2.229549 -0.52878,-3.101884 l -0.13173,-1.586067 0.1957,-2.366269 0.1957,-2.366267 0.61888,-1.322517 c 0.34038,-0.727383 1.08554,-1.997562 1.6559,-2.822621 0.57037,-0.825057 1.85137,-2.478315 2.84667,-3.673906 0.99531,-1.19559 4.34191,-4.943758 7.43688,-8.32926 3.09496,-3.385501 6.35518,-7.063393 7.24493,-8.173092 0.88976,-1.109698 1.94224,-2.630394 2.33886,-3.379324 l 0.72112,-1.36169 0.60916,1.159927 c 0.33502,0.637959 1.10697,1.822074 1.7154,2.631365 0.60845,0.809293 1.74806,2.216592 2.53247,3.127334 0.78439,0.910742 3.29882,3.698791 5.58762,6.195667 2.28878,2.496875 4.96536,5.464443 5.94794,6.594596 0.98259,1.130151 2.45637,2.94598 3.27505,4.03517 l 1.48852,1.980351 0.81834,1.614107 0.81833,1.614108 0.2163,1.916752 0.21628,1.916753 -0.11626,2.017634 -0.11628,2.017634 -0.51532,1.896213 -0.51532,1.896213 -0.63934,1.199506 -0.63932,1.199505 -0.62845,0.47934 c -0.34564,0.263637 -0.94134,0.608337 -1.32376,0.766001 -0.38242,0.157666 -1.33087,0.346984 -2.10765,0.420711 l -1.41235,0.134048 -1.51323,-0.215681 -1.51323,-0.215683 -0.90792,-0.457409 -0.90794,-0.457407 -0.3871,-0.786607 -0.3871,-0.786609 0.21474,-1.02381 c 0.11812,-0.563097 0.55122,-1.884858 0.96245,-2.937248 0.41123,-1.052388 0.79466,-2.202902 0.85208,-2.556694 l 0.10433,-0.643259 -0.51923,-0.51923 -0.51923,-0.519233 h -1.19254 -1.19255 l -0.517,0.406683 -0.51702,0.40668 -0.21254,0.652577 c -0.1169,0.358918 -0.31065,1.333528 -0.43056,2.165802 l -0.21803,1.513226 -0.16781,8.255747 -0.16782,8.255747 0.10977,6.220778 0.10978,6.220779 4.15618,-0.0011 c 2.28589,-7.67e-4 6.3806,-0.09344 9.09937,-0.205905 2.71876,-0.112507 6.32015,-0.3396 8.00307,-0.504661 l 3.05988,-0.300124 1.78245,-0.513091 1.78245,-0.513088 1.10969,-0.645439 1.10971,-0.645444 1.36837,-1.347509 1.36838,-1.34751 0.68653,-1.485883 0.68652,-1.485882 0.24164,-1.387582 0.24163,-1.387581 -0.12586,-1.488885 c -0.0692,-0.818887 -0.21395,-1.653502 -0.32163,-1.854699 -0.10767,-0.201196 -0.47672,-0.482183 -0.8201,-0.624417 l -0.62433,-0.258604 -1.65323,0.123448 -1.65322,0.123448 -2.03781,0.500572 c -1.1208,0.275313 -3.28469,0.921415 -4.80867,1.43578 -1.52398,0.514366 -2.8284,0.877678 -2.89871,0.807362 -0.0703,-0.07032 0.0363,-0.599956 0.23711,-1.176975 0.20074,-0.577018 0.7259,-1.631578 1.16704,-2.343462 0.44115,-0.711885 1.33704,-1.937599 1.9909,-2.723806 0.65385,-0.786209 1.75995,-1.936061 2.45801,-2.555228 0.69807,-0.619171 1.72317,-1.448497 2.27803,-1.842952 0.55485,-0.394455 1.55357,-0.989876 2.2194,-1.323157 0.66582,-0.33328 1.70372,-0.752365 2.30646,-0.931296 l 1.09587,-0.325267 h 1.13734 1.13733 l 1.09589,0.322084 c 0.60273,0.177147 1.73144,0.647874 2.50822,1.04606 l 1.41235,0.723976 2.01763,2.030832 2.01764,2.030831 0.95276,1.829613 0.95277,1.829615 0.32906,1.3986 0.32908,1.398602 -0.10888,1.498917 -0.10889,1.498915 -0.70959,1.426654 -0.70959,1.426653 -0.93692,1.063755 -0.93693,1.063756 -2.25378,1.481973 c -1.23958,0.815085 -2.37267,1.625209 -2.51796,1.800265 l -0.26415,0.318296 0.066,0.444831 0.066,0.444834 0.56907,0.423765 0.56907,0.423775 4.25054,0.06533 c 2.3378,0.03589 4.46482,0.01156 4.72673,-0.05411 l 0.47621,-0.119519 0.98999,-1.259736 0.98998,-1.259736 0.83679,-0.470296 0.83678,-0.470298 1.37696,-0.02121 1.37696,-0.02122 1.32868,0.654103 1.32867,0.654104 3.48817,3.483084 3.48817,3.483077 1.29324,0.64423 c 0.71129,0.35435 1.43764,0.64849 1.61411,0.65368 0.17648,0.006 -0.108,0.1771 -0.63216,0.382 -0.52416,0.20491 -1.53067,0.78477 -2.23671,1.28858 l -1.2837,0.91603 -2.20094,2.35987 c -1.21052,1.29792 -2.73228,2.76872 -3.38172,3.26844 l -1.18076,0.90858 -0.99149,0.37673 -0.99149,0.37675 h -1.01313 -1.01314 l -0.75013,-0.30702 -0.75013,-0.307 -1.53734,-1.63021 -1.53735,-1.63023 -4.3138,0.0709 -4.31379,0.0709 -0.70617,0.41338 -0.70617,0.4134 -0.0607,0.51225 -0.0607,0.51225 0.78721,0.68847 c 0.43298,0.37865 1.44521,1.09703 2.24943,1.59639 l 1.46222,0.90794 1.24124,1.3157 1.24123,1.31572 0.68911,1.4081 0.68911,1.4081 0.0925,1.66036 0.0925,1.66037 -0.52065,1.66874 -0.52065,1.66872 -0.76545,1.26074 c -0.421,0.69341 -1.16313,1.76853 -1.64918,2.38915 l -0.88373,1.1284 -1.53744,1.22567 -1.53743,1.22567 -1.41234,0.65419 c -0.77679,0.3598 -1.92272,0.74804 -2.54651,0.86278 l -1.13416,0.20858 -1.18612,-0.17837 c -0.65236,-0.0981 -1.45849,-0.26163 -1.7914,-0.36341 -0.33291,-0.10177 -1.19545,-0.48265 -1.91675,-0.8464 -0.72131,-0.36375 -1.96747,-1.15464 -2.76925,-1.75756 -0.80178,-0.60291 -2.19295,-1.88196 -3.09147,-2.84233 -0.89853,-0.96038 -2.05082,-2.37357 -2.56063,-3.14043 -0.50981,-0.76687 -1.13666,-1.90413 -1.39297,-2.52725 -0.25633,-0.62311 -0.4682,-1.28242 -0.47083,-1.46514 l -0.004,-0.33221 2.47161,0.81454 c 1.35937,0.44801 3.39783,1.06673 4.52988,1.37495 1.13208,0.30822 2.81644,0.65313 3.74303,0.76647 l 1.6847,0.20607 0.79667,-0.17959 0.79666,-0.17958 0.33599,-0.41472 0.33599,-0.41474 0.1443,-1.53992 0.14431,-1.53992 -0.32119,-1.63032 -0.32119,-1.63031 -0.66118,-1.30263 -0.66117,-1.30261 -1.22853,-1.24682 -1.22854,-1.2468 -1.29585,-0.71768 c -0.71271,-0.39472 -1.886,-0.89697 -2.6073,-1.11611 -0.72129,-0.21915 -2.12861,-0.50119 -3.12733,-0.62681 -0.99873,-0.12561 -3.04158,-0.3231 -4.53968,-0.43888 -1.49809,-0.11577 -6.36938,-0.26225 -10.82508,-0.32553 l -8.10127,-0.11504 -0.14706,1.56938 c -0.0809,0.86316 -0.10311,2.6229 -0.0494,3.91051 l 0.0976,2.34114 0.4984,1.2305 c 0.27412,0.67679 0.93302,1.88428 1.46421,2.68333 0.53121,0.79904 1.68808,2.21582 2.57085,3.1484 0.88276,0.93257 2.21202,2.14271 2.9539,2.68919 0.74189,0.54648 1.72254,1.18191 2.17926,1.41206 0.4567,0.23014 1.25365,0.52502 1.77098,0.65529 l 0.94059,0.23684 -0.0917,0.32773 c -0.0504,0.18026 -0.28798,1.55346 -0.52795,3.05155 -0.23996,1.49809 -1.56702,9.44253 -2.949,17.6543 -1.38197,8.21176 -3.83012,22.64795 -5.44031,32.08038 -1.6102,9.43244 -3.83382,22.37052 -4.9414,28.75129 -1.10758,6.38076 -2.51259,14.32015 -3.12225,17.64308 -0.60965,3.32292 -1.15134,6.08456 -1.20375,6.13698 -0.0523,0.0523 -0.0953,0.0268 -0.0953,-0.0569 z"
       id="path48925" /></g></svg>
