<?xml version="1.0" encoding="UTF-8" standalone="no"?>
<!-- Created with Inkscape (http://www.inkscape.org/) -->

<svg
   width="1000"
   height="1000"
   viewBox="0 0 264.58333 264.58333"
   version="1.1"
   id="svg5"
   inkscape:version="1.2.2 (b0a8486541, 2022-12-01)"
   sodipodi:docname="representative_democracy.svg"
   xml:space="preserve"
   xmlns:inkscape="http://www.inkscape.org/namespaces/inkscape"
   xmlns:sodipodi="http://sodipodi.sourceforge.net/DTD/sodipodi-0.dtd"
   xmlns="http://www.w3.org/2000/svg"
   xmlns:svg="http://www.w3.org/2000/svg"><sodipodi:namedview
     id="namedview7"
     pagecolor="#ffffff"
     bordercolor="#000000"
     borderopacity="0.25"
     inkscape:showpageshadow="2"
     inkscape:pageopacity="0.0"
     inkscape:pagecheckerboard="0"
     inkscape:deskcolor="#d1d1d1"
     inkscape:document-units="px"
     showgrid="false"
     inkscape:zoom="0.52787981"
     inkscape:cx="331.51485"
     inkscape:cy="490.64199"
     inkscape:window-width="1920"
     inkscape:window-height="1004"
     inkscape:window-x="0"
     inkscape:window-y="0"
     inkscape:window-maximized="1"
     inkscape:current-layer="layer1" /><defs
     id="defs2"><inkscape:perspective
       sodipodi:type="inkscape:persp3d"
       inkscape:vp_x="0 : 552.5 : 1"
       inkscape:vp_y="0 : 1000 : 0"
       inkscape:vp_z="815 : 552.5 : 1"
       inkscape:persp3d-origin="407.5 : 368.33333 : 1"
       id="perspective11259" /><linearGradient
       id="linearGradient5938"><stop
         style="stop-color:#000000;stop-opacity:1;"
         offset="0"
         id="stop5940" /><stop
         id="stop5946"
         offset="0.5"
         style="stop-color:#000000;stop-opacity:0;" /><stop
         style="stop-color:#000000;stop-opacity:1;"
         offset="1"
         id="stop5942" /></linearGradient><linearGradient
       id="linearGradient5196"><stop
         style="stop-color:#860909;stop-opacity:1;"
         offset="0"
         id="stop5198" /><stop
         style="stop-color:#bb0d0d;stop-opacity:1;"
         offset="1"
         id="stop5200" /></linearGradient><linearGradient
       id="linearGradient7546"><stop
         style="stop-color:#6d0000;stop-opacity:1;"
         offset="0"
         id="stop7548" /><stop
         style="stop-color:#8a0000;stop-opacity:0;"
         offset="1"
         id="stop7550" /></linearGradient><linearGradient
       id="linearGradient13829"><stop
         id="stop13831"
         offset="0.00000000"
         style="stop-color:#ffffff;stop-opacity:1.0000000;" /><stop
         id="stop13833"
         offset="1.0000000"
         style="stop-color:#c9c9c9;stop-opacity:1.0000000;" /></linearGradient><linearGradient
       id="linearGradient15699"><stop
         style="stop-color:black;stop-opacity:0.78431374;"
         offset="0"
         id="stop15701" /><stop
         style="stop-color:black;stop-opacity:0;"
         offset="1"
         id="stop15703" /></linearGradient><polygon
       id="XMLID_5_"
       points="469.75879,342.92773 529.12402,342.16113 529.12402,440.2207 469.75879,440.2207 469.75879,342.92773 " /></defs><g
     inkscape:label="Layer 1"
     inkscape:groupmode="layer"
     id="layer1"><circle
       style="fill:#384a91;fill-opacity:1;stroke:#606060;stroke-width:0;stroke-dasharray:none;stroke-opacity:1;paint-order:stroke markers fill"
       id="path236"
       cx="132.29167"
       cy="132.29167"
       r="125.37917" /><circle
       style="fill:#ffffff;fill-opacity:0;stroke:#fffffe;stroke-width:5.29167;stroke-dasharray:none;stroke-opacity:1;paint-order:normal"
       id="path236-3"
       cx="132.29167"
       cy="132.29167"
       r="125.37917" /><path
       style="fill:#ffffff;fill-opacity:1;stroke-width:0.100048"
       d="m 91.803926,207.49295 c -0.02397,-0.024 -0.907717,-0.0488 -1.963853,-0.0552 l -1.920246,-0.0115 -0.05668,-0.0917 -0.05668,-0.0917 0.23075,-0.0954 c 0.126913,-0.0525 1.378802,-0.3487 2.781983,-0.65831 1.403176,-0.3096 3.60924,-0.82743 4.902364,-1.15072 1.293125,-0.32329 3.319101,-0.86236 4.502176,-1.19794 1.18307,-0.33557 3.47917,-1.05293 5.10246,-1.59412 1.62328,-0.54119 3.60766,-1.23336 4.40973,-1.53814 0.80207,-0.30479 2.24969,-0.89289 3.21693,-1.30691 0.96725,-0.41401 2.65213,-1.20039 3.74421,-1.7475 1.09207,-0.54713 2.32324,-1.19528 2.73593,-1.44036 0.4127,-0.24507 1.0205,-0.61687 1.35066,-0.82625 0.33016,-0.20935 1.20687,-0.83397 1.94825,-1.38802 l 1.34795,-1.00735 1.16274,-1.15384 1.16275,-1.15385 0.51294,-0.73702 c 0.28211,-0.40537 0.605,-0.98309 0.71752,-1.28382 l 0.20458,-0.5468 0.0933,-0.90184 0.0933,-0.90184 -0.1,-1.16596 c -0.055,-0.64127 -0.18532,-1.6837 -0.28962,-2.31651 -0.10429,-0.6328 -0.3079,-1.78086 -0.45247,-2.55123 l -0.26286,-1.40068 -0.0526,-1.75084 -0.0526,-1.75084 0.30811,-8.60415 c 0.16945,-4.73229 0.35485,-10.06737 0.41198,-11.85573 0.0571,-1.78836 0.23842,-7.12344 0.40289,-11.85572 0.16446,-4.73228 0.41078,-11.82321 0.54739,-15.75761 0.1366,-3.9344 0.2935,-8.45908 0.34865,-10.05485 0.0552,-1.59577 0.19107,-5.55768 0.30202,-8.80425 0.11094,-3.24657 0.31459,-9.099392 0.45255,-13.006282 0.13796,-3.906883 0.27972,-8.503109 0.31503,-10.213831 l 0.0642,-3.110404 -0.93161,-0.06613 c -0.51239,-0.03637 -11.04744,-0.06613 -23.41121,-0.06613 -12.363775,0 -23.162071,0.02954 -23.996217,0.06564 l -1.516633,0.06564 v 0.145928 c 0,0.08026 1.558602,4.429084 3.463564,9.664051 1.904958,5.234966 5.104572,13.997788 7.110255,19.472928 2.005682,5.47514 3.985798,10.87774 4.400257,12.00579 0.414463,1.12804 1.059989,2.88389 1.434509,3.90188 0.374517,1.018 1.972441,5.36259 3.550945,9.65466 1.5785,4.29208 3.61286,9.80724 4.52079,12.25592 l 1.6508,4.45215 0.17419,0.18067 0.17421,0.1807 1.33992,0.10042 c 0.73696,0.0553 1.35214,0.11266 1.36707,0.12759 0.0149,0.0149 -0.86193,0.86101 -1.94858,1.88016 -1.08666,1.01915 -2.42596,2.25463 -2.97622,2.7455 -0.55027,0.49087 -1.51824,1.32223 -2.15104,1.84746 -0.6328,0.52522 -1.69081,1.36079 -2.351133,1.85682 -0.660319,0.49602 -1.69737,1.21998 -2.304561,1.60878 -0.607187,0.3888 -1.602166,0.98116 -2.211062,1.31636 -0.6089,0.33518 -1.620336,0.82902 -2.24764,1.09743 -0.627304,0.2684 -1.770857,0.69985 -2.541228,0.95878 -0.770371,0.25892 -2.121025,0.64379 -3.001449,0.85525 -0.880427,0.21146 -2.321122,0.49902 -3.201546,0.63901 -0.880424,0.13999 -2.073501,0.30878 -2.65128,0.37507 l -1.050505,0.12054 h -2.801348 -2.801351 l -1.482233,-0.17097 c -0.815229,-0.094 -1.985796,-0.26114 -2.601256,-0.37135 -0.615461,-0.11021 -1.726816,-0.35304 -2.469674,-0.5396 -0.742858,-0.18657 -2.025977,-0.57236 -2.851374,-0.8573 -0.825397,-0.28494 -2.063495,-0.76649 -2.751327,-1.07014 -0.687832,-0.30365 -1.993465,-0.94492 -2.901401,-1.42505 -0.907937,-0.48013 -2.181455,-1.19426 -2.830041,-1.58696 -0.648584,-0.39269 -1.684085,-1.06287 -2.301111,-1.4893 -0.617026,-0.42615 -1.572083,-1.12994 -2.122349,-1.56367 l -1.000481,-0.78862 -1.455333,-1.46305 -1.45533,-1.46303 -0.968344,-1.30063 -0.968344,-1.30063 1.238277,-0.0279 1.238277,-0.028 0.101192,-0.12213 c 0.05565,-0.0672 0.942199,-2.37324 1.970095,-5.12457 1.027893,-2.75133 3.278448,-8.80675 5.001229,-13.4565 1.722784,-4.64974 5.023469,-13.58655 7.334859,-19.85958 2.311389,-6.27303 4.85554,-13.18386 5.653663,-15.35741 0.798126,-2.173552 2.315587,-6.315548 3.372131,-9.204442 1.056547,-2.888894 2.210434,-6.057358 2.564199,-7.041032 0.353764,-0.983673 0.615275,-1.816574 0.581133,-1.850893 -0.03414,-0.03432 -1.045279,-0.08491 -2.246978,-0.11242 -1.201703,-0.02752 -2.216341,-0.08155 -2.254763,-0.120075 -0.03842,-0.03853 -0.129459,-0.528391 -0.20231,-1.088585 -0.07285,-0.560194 -0.233027,-2.216986 -0.355947,-3.681761 l -0.223489,-2.663225 0.06315,-0.250121 c 0.03471,-0.137566 0.126229,-0.336368 0.203327,-0.441782 l 0.140186,-0.191661 1.890139,-0.01727 1.89014,-0.01727 1.50072,-0.222479 c 0.825401,-0.122363 2.272517,-0.375467 3.215817,-0.562452 0.9433,-0.186985 2.361485,-0.50205 3.151523,-0.700144 0.790034,-0.198094 2.201798,-0.579842 3.137248,-0.848329 0.935454,-0.268486 2.286104,-0.665842 3.001449,-0.883011 0.715344,-0.217169 2.381147,-0.734419 3.701785,-1.149446 1.320637,-0.415025 3.101715,-0.958244 3.957945,-1.207155 0.856235,-0.248908 2.431993,-0.677767 3.501684,-0.953017 1.0697,-0.275251 2.59772,-0.634405 3.39561,-0.798123 0.79788,-0.163715 2.10351,-0.401934 2.9014,-0.529373 l 1.4507,-0.231707 4.10198,-4.92e-4 4.10198,-4.91e-4 1.54381,0.3325 c 0.8491,0.182875 1.90711,0.447229 2.35113,0.587452 0.44404,0.140224 1.23503,0.43783 1.75779,0.661348 0.52275,0.223517 1.33314,0.62582 1.80087,0.894007 0.46772,0.268186 1.17704,0.737589 1.57626,1.043117 0.39922,0.305527 1.1797,0.956591 1.73439,1.446805 0.55468,0.490216 1.14317,0.960931 1.30774,1.046032 l 0.29922,0.154732 0.24172,-0.158384 0.24172,-0.158383 0.2385,-0.47343 c 0.13116,-0.260386 0.35158,-0.788582 0.48982,-1.173768 0.13823,-0.385186 0.34374,-1.150555 0.45669,-1.700821 0.11296,-0.550266 0.27392,-1.473211 0.3577,-2.05099 0.0838,-0.577779 0.24371,-1.883408 0.35541,-2.9014 0.11169,-1.017991 0.3142,-3.088991 0.45003,-4.602221 0.13583,-1.513231 0.36267,-4.214534 0.5041,-6.002896 0.14141,-1.788369 0.30325,-3.634259 0.35962,-4.101982 0.0564,-0.467722 0.13991,-0.888101 0.18564,-0.934163 l 0.0831,-0.08375 0.0683,0.11045 c 0.0376,0.06073 0.15351,1.111431 0.25769,2.334841 0.10419,1.223417 0.32849,3.912708 0.49846,5.976201 0.16998,2.063501 0.39711,4.629738 0.50476,5.702755 0.10764,1.073018 0.28728,2.646905 0.39921,3.497526 0.11193,0.850621 0.31437,2.115194 0.44988,2.810162 0.13551,0.694967 0.35626,1.586647 0.49056,1.981509 0.13431,0.394863 0.36696,0.9435 0.51701,1.219196 l 0.27282,0.501266 0.23291,0.05845 c 0.1281,0.03215 0.3358,0.03263 0.46156,0.0011 l 0.22865,-0.05739 1.14701,-1.069294 c 0.63086,-0.588115 1.55221,-1.370147 2.04745,-1.737854 0.49524,-0.367708 1.19307,-0.830286 1.55074,-1.027953 0.35768,-0.197667 0.99966,-0.497424 1.42663,-0.666126 0.42697,-0.168702 1.23736,-0.444418 1.80087,-0.612702 l 1.02456,-0.305971 1.40068,-0.198806 1.40067,-0.198807 2.35114,-0.09838 2.35113,-0.09838 1.35065,0.05983 c 0.74286,0.03291 2.04849,0.125396 2.9014,0.205533 0.85291,0.08014 2.22607,0.257938 3.05147,0.395111 0.8254,0.137174 2.15354,0.385086 2.95143,0.550917 0.79788,0.165831 2.53122,0.569154 3.85185,0.896273 1.32064,0.32712 4.3371,1.13599 6.70324,1.797488 2.36614,0.661499 5.40511,1.499138 6.75326,1.861419 1.34815,0.362281 3.45157,0.899483 4.67427,1.193781 1.22269,0.294298 2.84348,0.649823 3.60174,0.790056 0.75826,0.140233 1.76134,0.295199 2.22906,0.344372 0.46772,0.04917 1.12911,0.06712 1.46975,0.03988 l 0.61933,-0.04952 0.26798,0.286725 0.26799,0.286727 -0.0646,1.050507 c -0.0355,0.577779 -0.15538,2.018474 -0.26635,3.201545 -0.111,1.183071 -0.24662,2.44368 -0.3014,2.801352 l -0.0996,0.650314 -0.16531,0.125061 -0.16532,0.12506 h -2.18507 -2.18509 l -0.0591,0.153845 -0.0591,0.153844 0.15745,0.421433 c 0.0866,0.231789 0.62878,1.727064 1.20487,3.322834 0.57608,1.59577 1.87939,5.174997 2.89625,7.953838 1.01685,2.778841 2.35235,6.425603 2.96776,8.103913 0.61542,1.67831 2.40221,6.54065 3.97067,10.80521 1.56845,4.26456 4.26282,11.58059 5.9875,16.25785 1.72468,4.67726 3.88435,10.53009 4.79926,13.00628 0.91491,2.4762 2.27519,6.1378 3.02284,8.1369 l 1.35933,3.63472 0.24218,0.0921 0.24216,0.0921 h 1.24409 c 0.68425,0 1.24409,0.0163 1.24409,0.0362 0,0.0199 -0.43896,0.4634 -0.97547,0.98548 -0.53651,0.52207 -1.69582,1.61496 -2.57624,2.42862 -0.88043,0.81368 -2.05099,1.87017 -2.60126,2.34776 -0.55027,0.47759 -1.42818,1.20658 -1.95094,1.61996 -0.52275,0.41338 -1.36801,1.05303 -1.87837,1.42143 -0.51034,0.3684 -1.47405,1.01226 -2.14156,1.4308 -0.66751,0.41854 -1.87073,1.08964 -2.67383,1.49135 -0.8031,0.40171 -1.91039,0.90743 -2.46066,1.12383 -0.55026,0.2164 -1.42819,0.53393 -1.95094,0.70562 -0.52275,0.17168 -1.60327,0.46879 -2.40116,0.66023 -0.79788,0.19144 -2.10352,0.46298 -2.9014,0.60343 -0.79788,0.14045 -2.12603,0.31973 -2.95142,0.39842 -0.8254,0.0787 -2.15354,0.17323 -2.95143,0.21011 l -1.45069,0.067 -1.82778,-0.11418 c -1.00527,-0.0628 -2.33276,-0.18079 -2.94997,-0.26218 -0.61721,-0.0814 -1.61809,-0.24008 -2.22419,-0.3526 -0.60609,-0.11251 -1.68726,-0.35871 -2.4026,-0.54709 -0.71535,-0.18839 -1.81838,-0.51695 -2.45119,-0.73015 -0.63272,-0.21324 -1.70943,-0.62285 -2.39259,-0.9103 -0.68317,-0.28744 -1.65114,-0.72778 -2.15104,-0.97854 -0.49991,-0.25075 -1.42667,-0.74922 -2.05947,-1.10771 -0.63281,-0.35849 -2.05099,-1.25015 -3.15152,-1.98144 -1.10053,-0.7313 -2.49621,-1.7154 -3.1015,-2.18687 -0.60529,-0.47148 -1.60475,-1.33096 -2.22101,-1.90995 l -1.12049,-1.05271 -0.82337,-1.02299 c -0.45285,-0.56265 -0.99733,-1.29186 -1.20995,-1.62047 l -0.38659,-0.59747 0.17941,-0.0708 c 0.0987,-0.039 0.56207,-0.0746 1.0298,-0.0792 0.46773,-0.005 0.94748,-0.0344 1.06613,-0.0663 l 0.21571,-0.0579 1.65389,-4.41793 c 0.90964,-2.42986 3.14673,-8.44737 4.97131,-13.37224 1.82458,-4.92488 4.32157,-11.67814 5.54886,-15.00725 1.22729,-3.32911 3.73998,-10.1499 5.58376,-15.15732 1.84378,-5.00741 4.07223,-11.062842 4.95213,-13.456494 0.8799,-2.393655 2.07721,-5.667195 2.66069,-7.274533 0.58349,-1.607338 1.06089,-2.985343 1.06089,-3.062232 v -0.139835 l -0.61496,-0.06427 c -0.33824,-0.03535 -10.86624,-0.06428 -23.39559,-0.06428 -12.52934,0 -23.32596,0.02933 -23.99249,0.06516 l -1.21186,0.06516 -0.0294,0.150101 c -0.0161,0.08256 0.001,1.707781 0.0388,3.611613 0.0376,1.903832 0.16067,6.365414 0.27359,9.914618 0.1129,3.54922 0.22959,6.813292 0.25931,7.253512 0.0297,0.44021 0.14311,3.43416 0.252,6.65321 0.10888,3.21905 0.28778,8.5091 0.39753,11.75567 0.10976,3.24657 0.28969,8.52536 0.39985,11.73066 0.11017,3.2053 0.29032,8.45033 0.40035,11.65563 0.11002,3.2053 0.29074,8.48409 0.40161,11.73066 0.11088,3.24657 0.31194,9.09981 0.44682,13.00721 l 0.24522,7.10437 -0.10042,1.24966 -0.10042,1.24967 -0.46091,2.25109 -0.46091,2.25108 -0.0447,2.31735 -0.0447,2.31733 0.45749,0.88578 0.45749,0.88578 0.7914,0.90792 0.7914,0.90792 1.10544,0.95002 c 0.60799,0.52252 1.514,1.23879 2.01337,1.59173 0.49936,0.35292 1.34625,0.91693 1.88196,1.25336 0.53572,0.33641 1.42425,0.85527 1.97451,1.15301 0.55027,0.29776 1.76586,0.90782 2.70131,1.35572 0.93545,0.44789 2.33112,1.08189 3.1015,1.40887 0.77037,0.32698 2.21106,0.89842 3.20154,1.26986 0.99047,0.37143 2.92641,1.05198 4.30208,1.51233 1.37566,0.46034 3.78432,1.19447 5.35258,1.63139 1.56825,0.43691 3.7293,1.00483 4.80231,1.26204 1.07302,0.2572 3.01981,0.70845 4.32622,1.00276 1.30638,0.29431 2.42646,0.56676 2.48903,0.60544 l 0.11378,0.0703 -0.18793,0.11122 -0.18793,0.11121 -42.28148,0.0223 c -23.25482,0.0123 -42.301105,0.003 -42.325091,-0.0213 z m 9.902394,-53.14282 1.53261,-0.0655 -0.0626,-0.24929 c -0.0344,-0.1371 -0.75943,-2.18029 -1.61115,-4.54041 -0.85173,-2.36012 -2.879139,-7.92481 -4.505363,-12.36597 -1.626227,-4.44117 -3.443469,-9.403 -4.038325,-11.02628 -0.594852,-1.62328 -1.645123,-4.45965 -2.33393,-6.30304 -0.688812,-1.84339 -1.95792,-5.26504 -2.820246,-7.60367 -0.862326,-2.33861 -2.46258,-6.66739 -3.556117,-9.61951 -1.09354,-2.952112 -2.728763,-7.341729 -3.633834,-9.754705 -0.905071,-2.412977 -1.854791,-4.92749 -2.110494,-5.587809 -0.255699,-0.660319 -0.500345,-1.236254 -0.543649,-1.279856 l -0.07874,-0.07928 -0.10288,0.129301 c -0.05659,0.07112 -0.834227,2.110256 -1.7281,4.531425 -0.893871,2.421168 -2.298953,6.225512 -3.122403,8.454082 -0.82345,2.228582 -2.907561,7.878802 -4.631355,12.556062 -1.723794,4.67726 -4.169528,11.31796 -5.434958,14.75712 -1.265429,3.43916 -2.895615,7.87381 -3.622637,9.85476 -0.727022,1.98096 -2.487238,6.79623 -3.91159,10.7006 -1.424352,3.90438 -2.589735,7.1572 -2.589735,7.2285 0,0.0713 0.01127,0.13767 0.02503,0.14751 0.01376,0.01 2.478695,0.0455 5.47764,0.0792 2.99895,0.0338 13.646587,0.0705 23.66142,0.0817 10.014833,0.0112 18.898466,-0.009 19.741396,-0.0451 z m 104.54358,0 5.32756,-0.0663 v -0.0926 c 0,-0.0509 -0.64916,-1.87821 -1.44257,-4.0606 -0.79342,-2.18239 -2.52346,-6.9169 -3.84454,-10.52114 -1.32108,-3.60424 -3.54937,-9.65966 -4.95176,-13.45649 -1.40238,-3.79683 -3.43497,-9.28949 -4.51685,-12.20589 -1.0819,-2.91641 -2.95845,-7.98136 -4.17013,-11.25544 -1.21168,-3.274082 -3.10394,-8.361536 -4.205,-11.305457 -1.10107,-2.943921 -2.04156,-5.394604 -2.08998,-5.445961 l -0.0881,-0.09338 -0.0656,0.06562 c -0.0361,0.03609 -1.69668,4.467731 -3.69019,9.848086 -1.9935,5.380142 -4.66221,12.596112 -5.93046,16.035272 -1.26826,3.43915 -2.96726,8.05389 -3.77557,10.25495 -0.8083,2.20106 -2.88761,7.85128 -4.62069,12.55606 -1.73309,4.70477 -3.86128,10.51257 -4.72932,12.90622 -0.86805,2.39366 -1.74147,4.82942 -1.94094,5.41279 -0.19947,0.58339 -0.36266,1.13403 -0.36266,1.22368 v 0.16299 l 2.22607,0.029 c 1.22434,0.016 10.17241,0.0392 19.88459,0.0519 9.71219,0.0126 20.05594,-0.007 22.9861,-0.0434 z"
       id="path56093" /></g></svg>
