<?xml version="1.0" encoding="UTF-8" standalone="no"?>
<!-- Created with Inkscape (http://www.inkscape.org/) -->

<svg
   width="1000"
   height="1000"
   viewBox="0 0 264.58333 264.58333"
   version="1.1"
   id="svg5"
   inkscape:version="1.2.2 (b0a8486541, 2022-12-01)"
   sodipodi:docname="totalitarianism.svg"
   xml:space="preserve"
   xmlns:inkscape="http://www.inkscape.org/namespaces/inkscape"
   xmlns:sodipodi="http://sodipodi.sourceforge.net/DTD/sodipodi-0.dtd"
   xmlns="http://www.w3.org/2000/svg"
   xmlns:svg="http://www.w3.org/2000/svg"><sodipodi:namedview
     id="namedview7"
     pagecolor="#ffffff"
     bordercolor="#000000"
     borderopacity="0.25"
     inkscape:showpageshadow="2"
     inkscape:pageopacity="0.0"
     inkscape:pagecheckerboard="0"
     inkscape:deskcolor="#d1d1d1"
     inkscape:document-units="px"
     showgrid="false"
     inkscape:zoom="0.52787981"
     inkscape:cx="331.51485"
     inkscape:cy="490.64199"
     inkscape:window-width="1920"
     inkscape:window-height="1004"
     inkscape:window-x="0"
     inkscape:window-y="0"
     inkscape:window-maximized="1"
     inkscape:current-layer="layer1" /><defs
     id="defs2"><inkscape:perspective
       sodipodi:type="inkscape:persp3d"
       inkscape:vp_x="0 : 552.5 : 1"
       inkscape:vp_y="0 : 1000 : 0"
       inkscape:vp_z="815 : 552.5 : 1"
       inkscape:persp3d-origin="407.5 : 368.33333 : 1"
       id="perspective11259" /><linearGradient
       id="linearGradient5938"><stop
         style="stop-color:#000000;stop-opacity:1;"
         offset="0"
         id="stop5940" /><stop
         id="stop5946"
         offset="0.5"
         style="stop-color:#000000;stop-opacity:0;" /><stop
         style="stop-color:#000000;stop-opacity:1;"
         offset="1"
         id="stop5942" /></linearGradient><linearGradient
       id="linearGradient5196"><stop
         style="stop-color:#860909;stop-opacity:1;"
         offset="0"
         id="stop5198" /><stop
         style="stop-color:#bb0d0d;stop-opacity:1;"
         offset="1"
         id="stop5200" /></linearGradient><linearGradient
       id="linearGradient7546"><stop
         style="stop-color:#6d0000;stop-opacity:1;"
         offset="0"
         id="stop7548" /><stop
         style="stop-color:#8a0000;stop-opacity:0;"
         offset="1"
         id="stop7550" /></linearGradient><linearGradient
       id="linearGradient13829"><stop
         id="stop13831"
         offset="0.00000000"
         style="stop-color:#ffffff;stop-opacity:1.0000000;" /><stop
         id="stop13833"
         offset="1.0000000"
         style="stop-color:#c9c9c9;stop-opacity:1.0000000;" /></linearGradient><linearGradient
       id="linearGradient15699"><stop
         style="stop-color:black;stop-opacity:0.78431374;"
         offset="0"
         id="stop15701" /><stop
         style="stop-color:black;stop-opacity:0;"
         offset="1"
         id="stop15703" /></linearGradient><polygon
       id="XMLID_5_"
       points="469.75879,342.92773 529.12402,342.16113 529.12402,440.2207 469.75879,440.2207 469.75879,342.92773 " /></defs><g
     inkscape:label="Layer 1"
     inkscape:groupmode="layer"
     id="layer1"><circle
       style="fill:#1d1d1d;fill-opacity:1;stroke:#000000;stroke-width:0;stroke-dasharray:none;stroke-opacity:1;paint-order:stroke markers fill"
       id="path236"
       cx="132.29167"
       cy="132.29167"
       r="125.37917" /><circle
       style="fill:#ffffff;fill-opacity:0;stroke:#f1cc19;stroke-width:5.29167;stroke-dasharray:none;stroke-opacity:1;paint-order:normal"
       id="path236-3"
       cx="132.29167"
       cy="132.29167"
       r="125.37917" /><path
       style="fill:#f1cc19;fill-opacity:1;stroke-width:0.421659"
       d="m 117.29821,226.46221 c -0.15459,-0.15458 -0.28111,-1.29309 -0.28111,-2.52995 v -2.24885 h 4.84909 4.84908 v 2.52996 2.52995 h -4.56798 c -2.51239,0 -4.69448,-0.12654 -4.84908,-0.28111 z m -0.93257,-6.57367 c -0.11713,-0.30538 -0.16085,-3.77395 -0.0971,-7.70794 l 0.11602,-7.15273 5.59654,-0.11777 5.59655,-0.11777 -0.1149,7.70759 -0.11507,7.70759 -5.38452,0.11809 -5.38454,0.11809 z m -6.9384,-0.27134 -1.89746,-0.25292 -0.11506,-7.73398 -0.11507,-7.73396 1.59089,0.23194 c 0.87499,0.12749 2.58705,0.35253 3.80459,0.49992 l 2.2137,0.26797 v 7.5503 7.55031 l -1.79205,-0.0633 c -0.98562,-0.0349 -2.64591,-0.17715 -3.68951,-0.31625 z m 19.39631,-7.11628 v -7.60475 l 2.21373,-0.26797 c 1.21753,-0.14742 2.92525,-0.37161 3.79493,-0.4983 l 1.58121,-0.2303 v 7.60204 7.60204 l -0.32019,0.19789 c -0.1761,0.10885 -1.88381,0.33429 -3.79493,0.50099 l -3.47475,0.3031 z m -26.66993,5.9201 -2.846203,-0.65 v -7.58384 -7.58385 l 1.205853,0.24117 c 0.66322,0.13259 2.1812,0.37056 3.37328,0.5287 l 2.16741,0.28751 v 7.74637 7.74637 l -0.52708,-0.0411 c -0.28988,-0.0226 -1.80786,-0.33372 -3.37326,-0.69123 z m 35.62049,-6.89359 0.11507,-7.72233 2.74078,-0.52217 c 1.50742,-0.28719 2.97797,-0.53388 3.26786,-0.54819 l 0.52707,-0.026 v 7.52277 7.52276 l -2.42455,0.525 c -1.33349,0.28875 -2.85583,0.62522 -3.38297,0.74774 l -0.95843,0.22273 z m 8.33748,-40.86478 v -40.05762 l 3.05703,-8e-5 3.05703,-8e-5 -0.10997,39.53063 c -0.0606,21.74184 -0.19683,39.7678 -0.303,40.05769 l -0.19306,0.52708 h -2.75402 -2.75401 z m -29.84206,32.83259 c -3.07817,-0.17672 -8.01157,-0.72896 -10.96313,-1.22719 -2.95158,-0.49823 -5.508803,-0.99358 -5.682733,-1.10078 -0.17394,-0.10726 -0.31625,-1.34594 -0.31625,-2.75271 v -2.55778 l 1.370403,0.29051 c 0.75371,0.15979 4.12171,0.6543 7.48444,1.09894 l 6.11406,0.80842 7.39163,0.008 7.39163,0.008 5.25814,-0.63792 c 2.89198,-0.35085 6.27906,-0.8438 7.52686,-1.09546 l 2.2687,-0.45756 0.29614,0.47916 c 0.16285,0.26351 0.21862,1.37315 0.12398,2.46584 -0.0947,1.09268 -0.30015,2.11303 -0.45654,2.26744 -0.15633,0.15443 -2.61486,0.6732 -5.46331,1.15291 -2.84844,0.4797 -7.30748,0.97904 -9.90898,1.10965 -2.60151,0.13068 -5.20438,0.28799 -5.78415,0.34974 -0.5798,0.0617 -3.57265,-0.0323 -6.65081,-0.20907 z m 2.75045,-6.58424 -2.8462,-0.14407 v -3.28373 c 0,-1.80606 0.0998,-3.38346 0.22158,-3.50533 0.12192,-0.12192 1.16958,-0.0493 2.32825,0.16131 1.15864,0.21059 3.57307,0.51586 5.36538,0.67838 l 3.25876,0.2955 0.12462,2.8462 0.12463,2.84619 h -2.30391 c -1.26714,0 -2.5566,0.0561 -2.86545,0.12478 -0.30887,0.0685 -1.84235,0.0599 -3.40777,-0.0193 z m -6.64113,-0.38532 c -0.81169,-0.0797 -2.28222,-0.2507 -3.26786,-0.38003 l -1.79205,-0.23513 v -4.33597 -4.33596 l 3.79233,1.09394 3.79235,1.09394 0.003,3.68953 0.003,3.68951 -0.52708,-0.0674 c -0.28989,-0.0371 -1.19119,-0.13259 -2.00288,-0.21236 z m 16.4447,-2.46409 v -2.7956 l 3.4787,0.2936 c 1.91327,0.16147 3.621,0.37545 3.79494,0.47552 0.17393,0.10008 0.31623,1.01295 0.31623,2.02866 v 1.84675 l -2.00288,0.25249 c -1.10158,0.13881 -2.80929,0.35185 -3.79493,0.47332 l -1.79206,0.22087 z m -27.30243,0.97504 -2.213703,-0.40374 v -6.08118 -6.0812 l 2.002883,1.42304 c 1.10158,0.78268 2.61955,1.73597 3.37328,2.11842 l 1.37038,0.69538 v 4.41659 4.4166 l -1.15956,-0.05 c -0.63775,-0.0276 -2.15573,-0.23176 -3.37328,-0.45381 z m 36.15728,-1.18273 c 0,-0.92764 0.0601,-1.68663 0.13339,-1.68663 0.0733,0 1.25929,0.20033 2.63537,0.44516 1.37609,0.24485 2.83403,0.54225 3.23989,0.66091 0.40585,0.11857 0.7379,0.46137 0.7379,0.7616 v 0.54585 l -2.38945,0.47987 c -1.31419,0.26393 -2.83217,0.47988 -3.37328,0.47988 h -0.98382 z m 6.23927,-1.9128 c -0.11171,-0.11172 -2.84212,-0.5601 -6.06744,-0.99625 -3.22533,-0.43616 -8.42581,-1.02105 -11.55663,-1.29977 -3.13082,-0.27872 -7.53933,-0.87182 -9.79669,-1.318 -2.25736,-0.44617 -5.48304,-1.30305 -7.16821,-1.90418 -1.68515,-0.60112 -4.16469,-1.67341 -5.51012,-2.38285 l -2.44619,-1.28988 -1.0325,-1.22704 -1.032473,-1.22703 v -1.0218 c 0,-0.56197 0.0668,-1.02178 0.14837,-1.02178 0.0816,0 1.425603,0.83892 2.986753,1.86428 l 2.83842,1.86429 4.07605,1.28383 c 2.24183,0.70611 5.21454,1.47337 6.60601,1.70501 1.39148,0.23164 4.99665,0.63331 8.01151,0.8926 3.01488,0.25929 7.89205,0.91211 10.83816,1.45073 l 5.35655,0.97932 2.33872,1.07069 2.33871,1.07071 v 0.63093 c 0,0.34701 -0.16327,0.73183 -0.36284,0.85518 -0.19956,0.12335 -0.45431,0.13276 -0.56609,0.021 z m -2.97142,-4.37057 -3.26785,-1.08805 v -3.86086 -3.86088 l 2.66991,-0.46494 c 1.46846,-0.25572 2.98643,-0.46495 3.37328,-0.46495 h 0.70336 v 5.48158 c 0,3.01486 -0.0475,5.45109 -0.1055,5.41386 -0.058,-0.0373 -1.57595,-0.55733 -3.37328,-1.15576 z m -8.74942,-1.90068 -3.16245,-0.46954 -0.12335,-2.78164 -0.12335,-2.78165 1.97423,-0.27059 c 1.08583,-0.14885 2.80159,-0.2706 3.81284,-0.2706 h 1.83861 v 3.5841 3.58411 l -0.52708,-0.0623 c -0.28989,-0.0343 -1.95016,-0.27362 -3.68951,-0.53186 z m -9.69816,-1.12669 c -1.97125,-0.18753 -4.20078,-0.4549 -4.95449,-0.59414 l -1.3704,-0.25315 v -2.0892 -2.08917 h 5.69241 5.69239 v 2.74078 2.74078 l -0.73791,-0.0575 c -0.40584,-0.0316 -2.35074,-0.21091 -4.322,-0.39845 z m -12.22811,-2.19439 -2.74078,-0.93381 -0.13339,-1.15956 -0.13339,-1.15957 h 1.86662 c 1.02663,0 2.74695,0.12064 3.82293,0.26815 l 1.95631,0.26813 v 1.84015 1.84017 l -0.94872,-0.0143 c -0.5218,-0.008 -2.18209,-0.43514 -3.68951,-0.94873 z m -6.23674,-2.68991 c -0.99512,-0.59989 -1.71946,-1.18057 -1.60964,-1.29039 0.1098,-0.1098 0.97145,-0.0693 1.91473,0.09 l 1.71505,0.28974 v 1.01708 c 0,0.5594 -0.0475,1.00969 -0.10534,1.00064 -0.058,-0.01 -0.91961,-0.50727 -1.91474,-1.10716 z m 12.10456,-1.44484 c -3.15029,-0.15794 -8.22602,-0.6179 -11.27939,-1.0223 l -5.551573,-0.73527 v -2.733 -2.73299 l 1.397513,0.26217 c 0.76862,0.14423 4.04177,0.54277 7.27361,0.88573 l 5.87614,0.62356 7.90224,0.005 7.90226,0.005 6.43415,-0.70004 c 3.53878,-0.38501 6.90373,-0.71707 7.47764,-0.7379 l 1.04347,-0.0379 -0.0306,0.84333 c -0.0169,0.46382 -0.0594,1.62385 -0.0948,2.57784 l -0.0642,1.73452 -5.18696,0.6951 c -2.85284,0.3823 -7.35931,0.79524 -10.01442,0.91765 -2.65509,0.1224 -5.39668,0.27091 -6.09242,0.33002 -0.69573,0.0591 -3.84248,-0.0217 -6.99278,-0.17958 z m 2.98702,-6.70806 -2.74079,-0.21083 -0.11172,-12.01998 -0.11172,-12.02001 0.95503,-1.31605 c 0.52527,-0.72383 3.04225,-3.72143 5.59328,-6.66135 l 4.63825,-5.34527 0.10981,18.64176 c 0.0604,10.25297 0.0604,18.685 0,18.73783 -0.0604,0.0529 -1.3432,0.16552 -2.85064,0.2504 -1.50743,0.0849 -3.97414,0.0594 -5.48156,-0.0564 z m -7.16821,-0.28606 c -1.0436,-0.0763 -2.51414,-0.24151 -3.26785,-0.36711 l -1.3704,-0.22835 v -6.64778 -6.64779 l 3.59894,-4.29625 c 1.97942,-2.36294 3.68714,-4.29625 3.79493,-4.29625 0.10773,0 0.19599,5.12316 0.19599,11.38479 v 11.3848 l -0.52707,-0.0736 c -0.28989,-0.0405 -1.38094,-0.1361 -2.42454,-0.2124 z m 16.86636,-19.40611 v -19.59506 l 3.05703,-4.07684 c 1.68138,-2.24225 3.37915,-4.55023 3.77283,-5.12885 l 0.71579,-1.05203 0.0221,24.34279 0.0222,24.34279 -0.94873,0.19422 c -0.5218,0.10678 -2.22952,0.27834 -3.79493,0.38113 l -2.84621,0.18692 z m -24.24539,18.637 c -0.23192,-0.0798 -1.5127,-0.26833 -2.84621,-0.4187 l -2.424533,-0.27345 v -0.84095 -0.84095 l 3.004393,-4.08319 c 1.65241,-2.24577 3.17039,-4.26347 3.37328,-4.48378 l 0.36887,-0.40059 v 5.77673 5.77674 l -0.52708,-0.0333 c -0.28988,-0.0183 -0.71681,-0.0986 -0.94872,-0.17856 z m 33.10024,-24.95954 v -25.26526 l 2.86539,-5.66821 c 1.57597,-3.11751 3.07376,-6.23744 3.32842,-6.93318 l 0.46302,-1.26498 0.0448,31.68198 0.0449,31.68198 -2.00288,0.27998 c -1.10159,0.15395 -2.61956,0.38642 -3.37327,0.51648 l -1.3704,0.23647 z m -38.370983,18.14991 v -2.06359 l 2.573063,-4.62855 c 1.41518,-2.5457 3.56449,-6.14652 4.77625,-8.00183 1.21174,-1.85529 3.7892,-5.36561 5.72768,-7.80069 1.93846,-2.43508 5.90849,-7.15476 8.82225,-10.48817 2.91378,-3.3334 6.41756,-7.50784 7.78619,-9.27649 1.36863,-1.76868 3.93022,-5.41003 5.69241,-8.09192 1.76218,-2.68188 4.62707,-7.4814 6.36642,-10.66562 l 3.16245,-5.789466 0.1259,2.319861 0.1259,2.319875 -1.26573,3.77795 c -0.69615,2.07786 -2.10067,5.48339 -3.12114,7.56785 -1.02048,2.08446 -3.27204,5.94257 -5.00345,8.57358 -1.73143,2.63101 -4.6772,6.68112 -6.54618,9.00025 -1.86897,2.31913 -5.79084,6.92624 -8.71529,10.23802 -2.92444,3.3118 -7.0981,8.15035 -9.27481,10.75232 -2.1767,2.60197 -5.59436,6.88847 -7.59478,9.52554 l -3.637163,4.79467 z m 0,-37.32813 V 94.01091 l 0.55901,-0.214524 c 0.307453,-0.117932 1.825423,-0.35013 3.373283,-0.515888 l 2.81427,-0.301379 v 27.155811 27.15583 l -3.37327,5.66221 -3.373283,5.66219 z m 8.024893,-7.13814 -0.0127,-26.399044 2.59182,-0.270909 c 1.42549,-0.149008 3.13321,-0.270892 3.79493,-0.270892 h 1.20311 v 21.849325 21.84933 l -2.84618,3.55565 c -1.56542,1.95559 -3.26713,4.12487 -3.78158,4.8206 l -0.93538,1.26498 -0.0127,-26.39904 z m 8.95966,-6.06872 0.0926,-21.082952 h 5.48158 5.48156 l 0.11076,14.576912 0.11076,14.5769 -3.48407,4.17465 c -1.91623,2.29605 -4.47447,5.22377 -5.68499,6.50604 l -2.20093,2.33141 z m 29.81962,14.12558 v -2.10829 h 3.5841 3.58411 v 2.10829 2.1083 h -3.58411 -3.5841 z m 0,-15.53903 V 99.402256 h 3.45329 c 1.89933,0 4.55872,0.22831 5.90976,0.507362 l 2.45643,0.507382 1.94797,-0.521008 c 1.07136,-0.286542 2.66009,-1.032907 3.53051,-1.658567 0.87041,-0.62566 2.00837,-1.759 2.52882,-2.518544 l 0.94626,-1.380965 0.52948,-2.277789 0.5295,-2.277788 -0.35939,-1.923706 c -0.19766,-1.058039 -0.72832,-2.64105 -1.17924,-3.517809 -0.45091,-0.876759 -1.35902,-2.090516 -2.01802,-2.697227 -0.659,-0.606727 -1.55705,-1.29339 -1.99566,-1.525921 l -0.79749,-0.422785 4.0799,-3.248042 c 2.24395,-1.786422 4.25044,-3.186975 4.45886,-3.112342 0.20843,0.07463 1.63595,1.248698 3.17228,2.609025 l 2.79333,2.473318 2.8837,3.73124 2.88369,3.731249 2.11292,4.336909 2.11292,4.336925 0.77681,2.951609 0.7768,2.951608 v 5.90323 5.90322 l -0.70324,2.52996 c -0.38679,1.39148 -1.09847,3.58492 -1.58151,4.87431 -0.48306,1.28939 -1.11534,2.6541 -1.40507,3.03268 l -0.52677,0.68834 -18.65843,0.29754 -18.65841,0.29753 z m -17.28804,-5.88125 V 92.234045 h 1.20313 c 0.66174,0 2.36946,0.121916 3.79493,0.270892 l 2.59181,0.270909 v 7.880104 7.88009 l -3.41609,5.02585 c -1.87884,2.76421 -3.58656,5.2061 -3.79493,5.42643 l -0.37885,0.40057 z m 8.85485,-6.364527 v -6.467824 l 2.8462,0.296821 c 1.56542,0.163256 3.01265,0.456157 3.2161,0.65092 l 0.36989,0.354098 -2.63753,4.985183 c -1.45066,2.741849 -2.89789,5.359469 -3.21611,5.816919 l -0.57855,0.83172 z m 8.60796,-1.27454 c -0.0961,-0.09658 -0.17477,-2.967019 -0.17477,-6.378658 v -6.202988 l 0.62864,-0.52172 0.62862,-0.521705 1.16343,0.211034 c 0.63989,0.116019 1.82754,0.448013 2.63923,0.737647 0.81169,0.289618 1.95018,0.79604 2.52996,1.125356 0.57978,0.329317 1.67082,0.87558 2.42453,1.213917 l 1.3704,0.615141 v 1.680974 1.68099 l -0.87762,0.877619 -0.87763,0.87762 -0.78245,-0.708101 -0.78243,-0.7081 -0.44824,0.277028 c -0.24652,0.152355 -0.44822,0.465432 -0.44822,0.695734 0,0.230285 0.57892,0.620512 1.28651,0.867181 l 1.28649,0.448475 -0.13131,0.689152 -0.13132,0.689152 -1.04985,0.141199 c -0.5774,0.07761 -1.52421,0.582742 -2.10398,1.122344 l -1.05415,0.981065 -2.46059,0.142633 c -1.35333,0.07841 -2.53924,0.06359 -2.63537,-0.03299 z m 7.22908,-9.957537 c -0.45015,-0.340488 -1.16169,-0.619078 -1.5812,-0.619078 -0.4195,0 -0.76273,0.173934 -0.76273,0.38653 0,0.21258 0.23719,0.482229 0.52706,0.599189 0.28991,0.116975 1.00143,0.221632 1.58123,0.232564 l 1.05413,0.01992 -0.81849,-0.619078 z m -54.208013,1.58172 v -2.555453 l 1.159563,-0.23537 c 0.63777,-0.129406 3.5314,-0.559937 6.43029,-0.956602 l 5.27074,-0.721216 9.90899,0.0048 9.90901,0.0048 6.30658,0.917636 c 3.46863,0.504685 6.31483,0.919151 6.32489,0.921031 0.01,0.0016 0.0446,1.140353 0.0768,2.529956 l 0.0587,2.526544 -1.11272,-0.0032 c -0.612,-0.0016 -3.29482,-0.284949 -5.96182,-0.628529 -2.66699,-0.343595 -8.16964,-0.744261 -12.2281,-0.890368 l -7.37904,-0.265666 -6.95739,0.687033 c -3.82655,0.377859 -8.04841,0.806796 -9.38191,0.953175 L 99.307467,92.3513 v -2.555438 z m 41.322593,-4.466442 -2.74076,-0.476062 -0.11873,-4.445183 -0.11873,-4.445191 3.0704,-1.430879 c 1.68872,-0.786985 3.21272,-1.506146 3.38665,-1.598134 l 0.31625,-0.167252 v 6.570859 6.570855 l -0.52708,-0.05148 c -0.28989,-0.02821 -1.76042,-0.265697 -3.26785,-0.527537 z M 102.68071,85.16088 c 0,-0.07586 0.65801,-0.413016 1.46226,-0.749042 0.80425,-0.336042 1.56322,-0.610982 1.68663,-0.610982 0.12335,0 0.22438,0.264693 0.22438,0.588208 v 0.588193 l -1.68664,0.160849 c -0.92764,0.08845 -1.68663,0.09865 -1.68663,0.02279 z m -2.55202,-1.329043 c 0.54376,-0.763656 2.1039,-2.209452 3.46695,-3.212876 l 2.47829,-1.824414 3.36646,-1.298237 c 1.85154,-0.714034 4.64581,-1.564298 6.20948,-1.889478 1.56368,-0.325179 5.68924,-0.986239 9.16794,-1.469018 3.47868,-0.482783 8.23232,-1.340298 10.56364,-1.905596 2.33131,-0.565293 5.25413,-1.428041 6.49519,-1.917217 l 2.25645,-0.889414 0.46218,0.471019 0.46217,0.471023 -1.05416,0.877427 c -0.57977,0.482588 -2.38236,1.487309 -4.00575,2.232719 -1.62338,0.745409 -4.46959,1.755459 -6.32489,2.244554 -1.85531,0.4891 -6.69384,1.459493 -10.7523,2.156438 -4.05848,0.696939 -9.06249,1.756586 -11.12005,2.354772 -2.05754,0.598177 -5.47298,1.847091 -7.58986,2.775341 -2.11687,0.928251 -4.12372,1.805567 -4.459653,1.949572 l -0.61078,0.261856 z m 7.19026,0.07713 v -0.845619 l 2.84621,-0.874687 c 1.56541,-0.481098 3.27313,-0.992045 3.79493,-1.135444 l 0.94873,-0.260742 v 1.715048 1.715062 l -2.21371,0.0048 c -1.21753,0.0032 -2.92526,0.122235 -3.79493,0.266 l -1.58123,0.261347 v -0.845603 z m 24.35082,0.422594 -2.84622,-0.147574 v -3.143169 -3.143186 h 0.76643 c 0.42153,0 2.12925,-0.357798 3.79494,-0.79511 l 3.0285,-0.79511 v 4.168384 4.168379 l -0.94873,-0.08255 c -0.5218,-0.04542 -2.22952,-0.149008 -3.79492,-0.230094 z m -15.49599,-2.18738 v -1.656739 l 2.31913,-0.451554 c 1.27552,-0.248358 3.41017,-0.64877 4.74366,-0.889811 1.3335,-0.241041 2.85149,-0.529279 3.37328,-0.640526 l 0.94874,-0.202261 v 2.748811 2.74883 h -5.69239 -5.69241 z m -16.771603,-6.398107 0.11602,-6.88031 1.468963,-0.300018 c 0.80792,-0.165012 2.27848,-0.421415 3.26786,-0.569784 l 1.79889,-0.269761 v 5.00765 5.007654 l -1.37038,0.660263 c -0.75373,0.363142 -2.2765,1.462243 -3.38394,2.442439 l -2.013543,1.782188 z m 7.916763,-3.510249 v -4.759474 l 2.59182,-0.270894 c 1.42549,-0.148992 3.13321,-0.2709 3.79493,-0.2709 h 1.20311 v 3.761428 3.761431 l -1.37038,0.292831 c -0.75373,0.161056 -2.46144,0.73208 -3.79493,1.268941 l -2.42455,0.976112 z m 8.94385,-1.822579 0.12175,-3.689518 5.58699,-0.117661 5.58698,-0.117645 v 2.944745 2.944745 l -1.37038,0.229223 c -0.75373,0.12606 -3.21839,0.514159 -5.47704,0.862424 -2.25863,0.348262 -4.21091,0.633206 -4.33842,0.633206 -0.12749,0 -0.17696,-1.660283 -0.10996,-3.689518 z m 12.56076,-0.894841 v -2.583848 h 1.20313 c 0.66174,0 2.36946,0.1219 3.79493,0.2709 l 2.59181,0.270894 v 1.591629 1.591628 l -2.09855,0.450058 c -1.15418,0.247531 -2.86192,0.572129 -3.79493,0.72132 l -1.69639,0.271266 z m 8.85485,-0.567027 V 67.67246 l 1.31769,0.263538 c 0.72473,0.144945 1.67346,0.263536 2.10829,0.263536 0.43483,0 0.79064,0.153534 0.79064,0.341178 0,0.187647 -0.94875,0.644564 -2.10832,1.01538 l -2.1083,0.674203 z M 99.307427,65.003614 v -2.622652 l 3.057023,-0.65473 c 1.68137,-0.360102 4.57502,-0.88971 6.43029,-1.17691 l 3.37328,-0.522183 9.69817,-0.0072 9.69816,-0.0072 3.37327,0.529295 c 1.8553,0.291113 4.74893,0.823928 6.4303,1.184027 l 3.05703,0.654732 0.0633,1.433481 c 0.0348,0.788414 0.0822,1.955285 0.10535,2.593044 l 0.0422,1.159563 -0.6325,-0.08993 c -0.34787,-0.04947 -3.28894,-0.467498 -6.53571,-0.928971 -3.24678,-0.461472 -8.36994,-0.964486 -11.3848,-1.11781 l -5.48157,-0.278771 -6.11406,0.495732 c -3.36273,0.272654 -8.15383,0.829462 -10.64689,1.23735 l -4.532843,0.741618 v -2.622566 z m 0,-11.496616 v -7.615756 l 1.581213,-0.450672 c 0.86969,-0.247869 2.38764,-0.567199 3.37327,-0.709622 l 1.79207,-0.258951 v 7.580081 7.580079 l -2.42455,0.524996 c -1.33351,0.288744 -2.85148,0.624126 -3.37328,0.745295 l -0.948733,0.220309 z m 41.217173,6.774953 -2.8462,-0.642254 V 52.113161 44.58662 l 0.94874,0.0024 c 0.5218,0.0013 1.61285,0.172625 2.42454,0.380738 0.81169,0.208112 1.95017,0.483143 2.52995,0.61118 l 1.05415,0.232796 -0.12383,7.60882 -0.12382,7.608824 -0.50867,-0.05356 c -0.27979,-0.02947 -1.78947,-0.342576 -3.35489,-0.695817 z m -33.20566,-8.447949 v -7.630828 l 1.3704,-0.212208 c 0.75371,-0.116721 2.46142,-0.328713 3.79493,-0.471107 l 2.42455,-0.258897 v 7.831034 7.831037 h -1.20311 c -0.66174,0 -2.36946,0.1219 -3.79494,0.270899 l -2.59182,0.270896 z m 23.71834,7.199827 -2.21373,-0.154873 v -7.809002 -7.808999 l 2.42455,0.258897 c 1.33349,0.142395 3.04121,0.354391 3.79494,0.471107 l 1.37038,0.212209 v 7.570759 7.570759 l -1.58121,-0.078 c -0.86968,-0.0429 -2.57738,-0.147685 -3.79493,-0.232866 z m -14.8635,-8.074737 V 43.416808 L 119.02,43.263816 c 1.56541,-0.08415 4.12697,-0.08937 5.69239,-0.01163 l 2.8462,0.141391 v 7.553888 7.553885 h -5.69239 -5.69241 z m 1.26498,-11.010724 V 37.84001 h 4.42743 4.42741 v 2.108295 2.108296 h -4.42741 -4.42743 z"
       id="path45964" /></g></svg>
