<?xml version="1.0" encoding="UTF-8" standalone="no"?>
<!-- Created with Inkscape (http://www.inkscape.org/) -->

<svg
   width="1000"
   height="1000"
   viewBox="0 0 264.58333 264.58333"
   version="1.1"
   id="svg5"
   inkscape:version="1.2.2 (b0a8486541, 2022-12-01)"
   sodipodi:docname="civil_liberalism.svg"
   xml:space="preserve"
   xmlns:inkscape="http://www.inkscape.org/namespaces/inkscape"
   xmlns:sodipodi="http://sodipodi.sourceforge.net/DTD/sodipodi-0.dtd"
   xmlns="http://www.w3.org/2000/svg"
   xmlns:svg="http://www.w3.org/2000/svg"><sodipodi:namedview
     id="namedview7"
     pagecolor="#ffffff"
     bordercolor="#000000"
     borderopacity="0.25"
     inkscape:showpageshadow="2"
     inkscape:pageopacity="0.0"
     inkscape:pagecheckerboard="0"
     inkscape:deskcolor="#d1d1d1"
     inkscape:document-units="px"
     showgrid="false"
     inkscape:zoom="0.52787981"
     inkscape:cx="219.74699"
     inkscape:cy="490.64199"
     inkscape:window-width="1920"
     inkscape:window-height="1004"
     inkscape:window-x="0"
     inkscape:window-y="0"
     inkscape:window-maximized="1"
     inkscape:current-layer="layer1" /><defs
     id="defs2" /><g
     inkscape:label="Layer 1"
     inkscape:groupmode="layer"
     id="layer1"><circle
       style="fill:#063199;fill-opacity:1;stroke:#000000;stroke-width:0;stroke-dasharray:none;stroke-opacity:1;paint-order:stroke markers fill"
       id="path236"
       cx="132.29167"
       cy="132.29167"
       r="125.37917" /><circle
       style="fill:#000000;fill-opacity:0;stroke:#f8c369;stroke-width:5.29167;stroke-dasharray:none;stroke-opacity:1;paint-order:normal"
       id="path236-3"
       cx="132.29167"
       cy="132.29167"
       r="125.37917" /><path
       style="fill:#f8c369;fill-opacity:1;stroke-width:0.244629"
       d="m 126.87665,213.06611 c -5.12322,-0.4989 -6.80282,-0.71364 -9.66287,-1.23545 -7.97454,-1.45493 -15.16359,-3.83474 -22.585024,-7.47638 -3.769539,-1.84968 -11.587155,-6.6819 -12.405717,-7.6682 -0.236749,-0.28527 -0.0065,-0.67169 1.230233,-2.06695 l 1.521421,-1.71608 2.236828,1.54295 c 21.930839,15.12782 50.346669,18.18588 75.136409,8.08605 1.48,-0.60298 4.08028,-1.79443 5.77839,-2.64763 l 3.08745,-1.5513 1.68283,1.70324 c 1.62822,1.648 1.66694,1.71528 1.19356,2.07372 -1.0683,0.80893 -8.9992,4.52828 -12.1519,5.69888 -6.25285,2.3217 -12.85888,3.94428 -19.52763,4.79641 -2.87689,0.3676 -13.31204,0.67711 -15.53398,0.46074 z m -69.789444,-1.78975 c 1.42459,-1.88538 8.314727,-9.40758 16.491722,-18.00456 4.74686,-4.99066 5.96193,-6.38798 5.96193,-6.85611 0,-0.67648 -2.807731,-2.21396 -5.511159,-3.01783 -0.945665,-0.28119 -2.872127,-0.66038 -4.281019,-0.84265 -2.268845,-0.29351 -2.449776,-0.3508 -1.58309,-0.50126 0.538181,-0.0934 2.325921,-0.26997 3.972761,-0.39231 1.646833,-0.12235 3.105437,-0.29117 3.241333,-0.37516 0.490455,-0.30312 0.222806,-0.86173 -1.15952,-2.42003 -0.773638,-0.87213 -1.617644,-1.94377 -1.875575,-2.38143 l -0.468958,-0.79572 0.740351,0.52717 c 1.179824,0.84011 4.764492,2.49987 5.399081,2.49987 1.756091,0 2.060611,-0.92564 2.201037,-6.69038 0.108716,-4.46288 -0.142128,-8.48732 -0.715573,-11.48084 -0.148997,-0.77773 -0.215576,-1.4694 -0.147961,-1.53701 0.141637,-0.14163 1.730229,2.4886 2.848024,4.71547 0.643805,1.28262 1.314823,2.02739 1.826589,2.02739 0.161451,0 0.971118,-1.41365 3.712926,-6.48266 4.075567,-7.53488 7.381809,-12.7543 12.551815,-19.815 1.28072,-1.7491 2.59897,-3.54921 2.92945,-4.00022 0.64434,-0.87943 5.27707,-6.44843 6.54211,-7.8643 6.98049,-7.8128 9.93411,-10.7516 20.58174,-20.47863 12.67445,-11.578606 29.02635,-24.360634 43.5003,-34.00351 9.19641,-6.126854 18.60008,-11.65478 24.66227,-14.497663 3.06824,-1.438851 7.80468,-3.111241 9.41735,-3.325172 2.00654,-0.266176 3.78372,0.400808 5.31539,1.99489 1.45882,1.518288 2.7666,3.864879 3.51334,6.304087 0.9302,3.038552 0.61512,8.269869 -0.74599,12.385697 -1.22746,3.711627 -4.17446,9.167142 -6.92912,12.827236 -5.70195,7.576095 -20.15537,20.172535 -26.46369,23.063615 -1.18096,0.54123 -4.99976,1.68919 -8.2378,2.47637 l -0.69141,0.16808 0.81372,0.61024 c 0.77029,0.57766 1.01282,0.61466 4.54432,0.69335 2.05183,0.0457 3.7306,0.14579 3.7306,0.2224 0,0.80752 -7.52989,8.6176 -10.42416,10.81204 -2.8291,2.14504 -6.22668,3.57769 -10.71723,4.51912 -1.33496,0.27987 -2.47248,0.64645 -2.52782,0.81465 -0.0612,0.18577 0.12341,0.30637 0.47018,0.30728 0.31393,7.4e-4 0.90105,0.19326 1.30469,0.42761 0.59814,0.34729 1.26806,0.41848 3.62206,0.38494 3.39887,-0.0484 3.40518,-0.003 0.26621,1.89245 -2.95032,1.78209 -6.23673,3.2817 -9.42052,4.29866 -3.49473,1.11629 -3.81983,1.34347 -3.03939,2.12389 0.23706,0.23708 1.1833,0.41647 2.81122,0.53298 l 2.45387,0.17563 -0.53629,0.76882 c -2.48238,3.55874 -13.38695,14.68998 -17.56339,17.92845 -1.41336,1.09595 -3.67007,2.70858 -5.01491,3.58359 -1.34482,0.87503 -2.66531,1.80703 -2.9344,2.07112 -1.07051,1.05061 -6.08584,3.29425 -9.95721,4.45444 -4.05345,1.21475 -7.40072,1.71541 -13.12294,1.96284 -5.16332,0.22328 -5.90844,0.36565 -5.90844,1.1289 0,0.84954 3.65339,2.37996 7.5575,3.16586 3.61624,0.72794 10.3803,0.22238 13.58192,-1.01515 2.22934,-0.86173 -4.7166,3.75546 -7.31786,4.86442 -2.17203,0.92594 -5.67951,1.89258 -9.09641,2.50688 -2.4647,0.4431 -3.18011,0.79318 -2.93362,1.43549 0.29306,0.76371 1.86973,1.19372 4.93578,1.34616 l 2.93555,0.14596 -1.62166,0.92187 c -3.13021,1.77942 -7.45646,2.86989 -11.385916,2.86989 -3.061908,0 -8.288077,-0.69484 -10.222473,-1.35909 l -1.702658,-0.58468 -0.743634,0.90572 c -3.177177,3.86976 -16.247937,18.60448 -17.403648,19.6192 -1.063642,0.93389 -3.379975,1.61143 -7.069055,2.06776 -4.940884,0.61117 -5.306225,0.6236 -4.96264,0.16888 z m 29.205213,-28.80665 c 0.340237,-0.22293 2.562244,-2.72732 4.937788,-5.56531 15.708633,-18.76668 25.335143,-29.50283 41.802463,-46.62103 19.65183,-20.42857 34.04624,-33.934336 48.32499,-45.341672 2.65168,-2.118425 5.05018,-4.142746 5.33,-4.498487 0.60881,-0.773978 0.55061,-1.386396 -0.14122,-1.485799 -0.74323,-0.106787 -4.53363,2.575914 -11.47777,8.123521 -9.04564,7.22647 -15.04359,12.460776 -23.72697,20.706107 -1.21207,1.15091 -3.35963,3.18169 -4.77237,4.51282 -6.80767,6.41445 -18.89753,18.78699 -30.34965,31.05925 -8.97589,9.61872 -30.61443,34.31946 -32.330412,36.90571 -0.81612,1.23001 -0.822926,1.32462 -0.147065,2.04404 0.631094,0.67176 1.670419,0.73732 2.550216,0.16085 z m 91.842351,23.33388 c -1.24828,-3.02222 -1.96069,-4.01289 -5.06867,-7.04844 -3.48972,-3.40837 -13.81899,-12.44632 -20.87028,-18.26114 -1.0091,-0.83216 -2.99061,-2.46866 -4.40334,-3.63667 -1.41274,-1.16803 -5.01796,-4.09388 -8.01162,-6.5019 -2.99365,-2.40801 -5.43584,-4.45664 -5.42707,-4.55249 0.009,-0.0958 0.80686,-0.68868 1.77356,-1.3174 2.95932,-1.92465 6.95102,-5.2755 11.02207,-9.25251 l 3.88259,-3.79288 0.39843,0.60278 c 0.43802,0.66268 4.65675,5.61941 9.79322,11.50637 10.66357,12.2217 22.26744,24.50922 25.33629,26.82904 1.78545,1.34965 2.73907,1.84671 4.85339,2.52979 0.89776,0.29003 1.68881,0.6188 1.7579,0.73057 0.0691,0.11179 -0.17333,0.57033 -0.53867,1.019 -2.36817,2.90821 -12.07176,12.89693 -13.02374,13.40641 -0.39034,0.2089 -0.56424,-0.0578 -1.47406,-2.26053 z m 12.46788,-14.3286 c 0,-0.11364 0.22016,-0.40596 0.48925,-0.64949 0.55031,-0.49801 0.64494,-0.22559 0.14874,0.42811 -0.34768,0.458 -0.63799,0.55874 -0.63799,0.22138 z m -2.35622,-1.20666 c -0.54894,-0.36628 -1.38343,-1.00649 -1.85438,-1.42268 l -0.85632,-0.7567 3.28676,-3.36754 c 12.34262,-12.64598 19.78686,-27.85857 22.21165,-45.39041 0.5509,-3.9831 0.74043,-12.39635 0.37569,-16.67674 -0.72396,-8.4962 -2.8328,-17.20415 -5.85483,-24.176371 -0.55402,-1.2782 -1.00759,-2.417607 -1.0079,-2.532034 -9.2e-4,-0.390555 3.25688,-3.848938 3.44309,-3.654857 0.39539,0.412127 3.15323,7.194391 4.10728,10.100952 3.03264,9.23899 4.27811,17.09906 4.26393,26.90924 -0.0236,16.23318 -4.45694,31.43722 -13.12532,45.01182 -3.44001,5.38702 -9.00708,12.08589 -13.25965,15.95532 l -0.73193,0.66598 z M 71.918707,187.69352 c -1.433983,-1.50652 -2.907225,-3.10266 -3.273878,-3.547 l -0.666634,-0.80786 0.58295,0.12618 c 0.320627,0.0695 1.406006,0.24518 2.411944,0.39059 2.587762,0.37409 5.060674,1.29019 6.036933,2.23642 0.450133,0.43628 0.818432,0.85574 0.818432,0.93212 0,0.21592 -2.953824,3.43623 -3.138501,3.42164 -0.09024,-0.007 -1.337261,-1.24555 -2.771246,-2.75209 z M 64.680083,179.2679 C 49.916678,159.63618 44.523894,133.03773 50.457569,109.11927 c 0.478491,-1.92879 1.952989,-7.00616 2.087202,-7.18723 0.05983,-0.0806 4.224119,1.17495 4.453176,1.34271 0.234705,0.17192 -1.495007,4.97987 -2.058624,5.7222 -1.462895,1.92674 -1.784197,3.38114 -0.894489,4.04903 0.291928,0.21914 0.267834,0.70847 -0.162587,3.30248 -0.277911,1.67488 -0.633044,4.53136 -0.789179,6.34774 -0.349464,4.06551 -0.145262,12.71844 0.392569,16.6348 1.965018,14.30886 7.452082,27.36181 16.24789,38.65146 l 2.001215,2.5686 -1.417636,0.15736 c -0.779693,0.0866 -2.036267,0.23762 -2.792373,0.33572 l -1.374745,0.17837 z M 100.7013,133.06603 c -1.076355,-0.86938 -3.663316,-2.869 -5.748783,-4.44359 -6.574624,-4.96404 -7.370645,-5.65443 -7.100889,-6.15847 0.259994,-0.48581 8.007466,-7.96189 13.216342,-12.75338 1.81622,-1.6707 3.83359,-3.533 4.48305,-4.13845 1.22,-1.13735 3.02463,-2.44631 3.37266,-2.44631 0.37623,0 1.23442,1.10914 2.83923,3.66945 0.88552,1.41274 2.75108,4.26695 4.1457,6.34268 l 2.53568,3.77408 -2.40414,2.46396 c -3.07718,3.15376 -7.55454,8.2127 -10.78693,12.188 -1.39485,1.71547 -2.54934,3.11086 -2.5655,3.10087 -0.0162,-0.0104 -0.91003,-0.72945 -1.98642,-1.59884 z m 62.50283,-1.16771 c 0,-0.20759 1.24395,-0.3151 1.36575,-0.11803 0.072,0.1165 -0.20583,0.21183 -0.61741,0.21183 -0.41159,0 -0.74834,-0.0423 -0.74834,-0.0938 z m -84.7641,-13.22497 c -2.890241,-0.75349 -4.293705,-1.32636 -7.828148,-3.19536 -3.345653,-1.76916 -6.091354,-2.91904 -8.545486,-3.57881 -1.891616,-0.50856 -2.791948,-0.55935 -4.052933,-0.22867 -0.470909,0.12349 -1.43414,0.29833 -2.140513,0.38854 -1.144774,0.14617 -1.284026,0.11503 -1.281733,-0.28706 0.0028,-0.49515 1.5163,-2.60577 3.431908,-4.78597 1.62687,-1.85156 2.341611,-2.04972 5.537879,-1.53539 3.073761,0.49462 4.482263,0.21925 4.482263,-0.8763 0,-0.24676 -1.211963,-1.73519 -2.693257,-3.30762 -2.692787,-2.858461 -2.693397,-2.859391 -3.426305,-5.204069 -1.42263,-4.55121 -1.513637,-9.515232 -0.221133,-12.061904 0.312482,-0.615713 2.4956,-3.047917 5.230316,-5.827103 6.811993,-6.922751 8.611113,-9.551029 10.531761,-15.385482 1.290877,-3.921354 4.391764,-10.023219 6.169101,-12.139429 1.402512,-1.669906 4.072959,-3.821802 5.143083,-4.144378 0.988157,-0.29787 0.874544,0.46885 -0.54472,3.675927 -1.701049,3.843846 -2.077512,5.212995 -2.25739,8.209955 -0.263451,4.389257 0.217222,4.621256 3.60915,1.741984 5.781752,-4.907878 7.64366,-6.068809 11.484377,-7.160657 2.59879,-0.738788 6.59768,-0.902856 9.58686,-0.393332 3.00945,0.512983 7.30618,0.535424 10.10581,0.05279 1.21092,-0.208753 2.55158,-0.381477 2.97923,-0.383825 0.79987,-0.0045 1.54642,0.519176 1.54642,1.084538 0,1.073295 -3.98558,3.70343 -8.31741,5.488781 -2.22721,0.917933 -3.24626,1.86271 -6.03726,5.597209 -3.4544,4.622132 -5.01768,7.059703 -4.92898,7.685556 0.1111,0.784077 1.24886,0.858582 3.33424,0.218339 2.18979,-0.672302 4.7378,-1.132244 9.58904,-1.730931 5.77149,-0.712252 9.86298,-1.577365 14.0662,-2.974184 3.71183,-1.233525 5.49384,-1.537862 6.00599,-1.025722 0.21157,0.211578 0.18615,0.60433 -0.10289,1.58976 -0.98644,3.36305 -4.252,7.186187 -7.64674,8.952319 -2.59586,1.350523 -6.01301,2.26604 -13.45322,3.604366 -3.38005,0.607997 -6.60645,1.268071 -7.16981,1.466834 -2.80089,0.988209 -6.66984,3.6303 -8.1361,5.556109 -1.0411,1.367374 -1.5528,2.590774 -3.101529,7.415223 -1.395723,4.347855 -1.579192,4.756675 -2.841516,6.331766 -0.767064,0.95715 -1.349457,1.92946 -1.349457,2.25302 0,0.64965 0.574497,0.85742 3.703504,1.33941 1.027827,0.15831 2.007888,0.37384 2.177908,0.47893 0.21502,0.13289 -0.35388,0.82157 -1.868775,2.26222 -3.545353,3.3716 -7.237554,6.53117 -8.415964,7.20185 -0.605455,0.34459 -2.036536,1.20399 -3.180181,1.90976 -4.247936,2.6215 -5.103694,2.78204 -9.173602,1.72101 z m -3.468956,-14.92673 c 0.311122,-0.31113 0.313489,-0.59005 0.01813,-2.14018 -0.423237,-2.221251 -0.713991,-5.574851 -0.483326,-5.574851 0.09491,0 1.014593,0.410578 2.043729,0.91242 1.609857,0.785 2.138775,0.92048 3.787558,0.97016 1.329282,0.04 1.94796,-0.0334 2.019439,-0.23969 0.05668,-0.16358 0.280676,-2.489422 0.497796,-5.168533 0.428647,-5.289182 0.847364,-7.165433 2.453939,-10.995789 1.123637,-2.678955 2.991879,-5.220968 5.995188,-8.157321 2.639807,-2.580955 4.172159,-3.808559 7.08705,-5.677627 5.140423,-3.296116 9.716233,-6.411184 10.444643,-7.110411 0.98228,-0.942895 1.03669,-1.646925 0.14459,-1.870831 -0.86838,-0.217948 -7.06811,0.08365 -8.18268,0.398051 -0.48548,0.136952 -2.907316,1.466351 -5.381837,2.954221 -6.071164,3.650424 -12.085398,6.543341 -12.578395,6.05035 -0.06906,-0.0691 -0.194893,-1.023866 -0.279558,-2.121712 -0.334783,-4.341445 -1.618021,-3.552563 -4.125013,2.535893 -0.498609,1.210917 -1.18417,2.751417 -1.523464,3.423335 -1.123887,2.22566 -3.565436,5.087798 -5.244148,6.147522 -0.511776,0.323075 -0.930511,0.73358 -0.930511,0.912234 0,0.178658 -0.561259,1.250588 -1.247245,2.38207 -3.213289,5.300099 -4.012426,7.464074 -4.011936,10.863899 2.5e-4,2.183943 0.07665,2.611574 0.711615,3.987435 0.731872,1.585794 1.290034,2.114184 1.961237,1.856624 0.492026,-0.18881 0.490104,-1.08394 -0.0065,-3.19911 -0.609043,-2.592139 -0.03828,-6.377431 1.376308,-9.127629 0.894942,-1.739902 2.006651,-2.460623 2.26597,-1.469012 0.194301,0.74302 0.869377,0.863667 2.196053,0.392472 0.661938,-0.235102 1.25491,-0.376071 1.317717,-0.313263 0.250868,0.250872 -1.1279,2.984653 -2.378964,4.716918 l -1.327045,1.83748 -0.159362,-0.7792 c -0.08765,-0.428557 -0.297975,-0.864866 -0.467386,-0.96957 -0.982344,-0.607117 -1.532775,0.972641 -1.537398,4.412324 -0.0037,2.7974 0.188596,3.44118 1.901444,6.36371 0.712974,1.216511 0.786875,1.476521 0.489715,1.723141 -0.586964,0.48714 -0.400844,1.16875 0.445085,1.63005 1.538055,0.83873 2.204282,0.94807 2.70794,0.44442 z m 5.906242,-25.756456 c 0.253751,-1.387554 1.166326,-2.769722 2.872183,-4.350144 2.57124,-2.38217 5.432745,-4.315859 4.43154,-2.994655 -3.74964,4.948071 -6.546073,8.26216 -6.971604,8.26216 -0.444372,0 -0.481254,-0.101861 -0.332119,-0.917361 z m -1.699968,-8.401496 c 0.100647,-0.323752 0.654264,-1.579388 1.230261,-2.790304 l 1.047277,-2.201666 0.02136,1.712407 0.02136,1.712406 -1.251646,1.077898 c -1.079433,0.929588 -1.22647,0.996905 -1.068662,0.489259 z m -23.36555,32.166552 c -2.842042,-0.76023 -4.619332,-2.168811 -7.029935,-5.571481 -1.804577,-2.547238 -1.872941,-3.231908 -0.695104,-6.961015 0.598706,-1.895534 0.918427,-3.443077 1.010793,-4.892591 0.191593,-3.006705 0.326637,-3.710202 0.712188,-3.710202 0.725873,0 3.054642,2.484484 3.855655,4.113444 l 0.800939,1.628839 v 5.140474 c 0,5.851401 0.02625,5.948201 2.026475,7.464441 3.162659,2.397471 3.539576,2.746071 3.20103,2.960531 -0.500421,0.31703 -2.361266,0.23436 -3.882041,-0.17244 z m 1.673136,-3.401461 c -2.596,-1.883927 -2.66098,-2.61854 -0.599288,-6.775297 0.887314,-1.788986 1.885921,-3.693035 2.219122,-4.23122 l 0.605834,-0.978517 0.01193,2.690924 c 0.0065,1.480009 0.168476,3.429858 0.359884,4.333003 l 0.347995,1.642093 -0.872354,2.027354 c -0.479795,1.11504 -0.887315,2.04703 -0.905594,2.07106 -0.0183,0.0241 -0.543655,-0.3267 -1.167481,-0.7794 z M 208.70522,91.153438 c 0,-0.126607 0.10879,-0.297451 0.24185,-0.379651 0.13866,-0.08571 0.17966,0.0125 0.0961,0.230191 -0.16263,0.423801 -0.33798,0.501342 -0.33798,0.14946 z M 55.574947,90.069372 c -0.0065,-0.814724 0.04355,-0.904692 0.359164,-0.642779 0.456651,0.378985 0.457632,0.520471 0.0074,1.115235 -0.335919,0.444139 -0.359663,0.413574 -0.366939,-0.472456 z M 66.460741,76.522387 c 1.810141,-2.242802 6.545758,-7.400043 6.795054,-7.400043 0.251644,0 -0.551755,1.131789 -2.257446,3.180184 -1.609997,1.933481 -5.186953,5.626477 -5.449692,5.626477 -0.122749,0 0.287685,-0.632978 0.912084,-1.406618 z M 178.97286,64.885833 C 167.7227,56.619496 154.5296,51.59643 139.96493,50.034183 c -3.21796,-0.345167 -11.45091,-0.346053 -15.16763,-0.0017 -2.87209,0.266153 -7.5743,1.00104 -10.08074,1.575476 -1.21876,0.279319 -1.73229,0.262532 -4.0364,-0.131946 -3.2054,-0.548785 -4.69754,-0.567112 -7.40333,-0.09095 -5.318406,0.935953 -8.360141,2.569869 -13.828473,7.428199 -2.163868,1.92248 -2.203829,1.94482 -2.32764,1.3011 -0.06926,-0.36023 -0.08654,-0.997436 -0.03837,-1.416015 0.07933,-0.688732 0.370203,-0.92497 3.061529,-2.486163 10.168734,-5.898617 20.618544,-9.321312 33.185654,-10.869423 3.86261,-0.475826 14.9691,-0.392248 18.95878,0.142663 11.81605,1.584223 22.14153,5.010795 31.80388,10.554309 4.792,2.749281 11.78221,7.726171 11.49788,8.186253 -0.11582,0.187375 -3.90072,2.450064 -4.09836,2.450064 -0.0453,0 -1.17883,-0.805596 -2.51886,-1.790215 z"
       id="path4866" /></g></svg>
