<?xml version="1.0" encoding="UTF-8" standalone="no"?>
<!-- Created with Inkscape (http://www.inkscape.org/) -->

<svg
   width="1000"
   height="1000"
   viewBox="0 0 264.58333 264.58333"
   version="1.1"
   id="svg5"
   inkscape:version="1.2.2 (b0a8486541, 2022-12-01)"
   sodipodi:docname="conservative_liberalism.svg"
   xml:space="preserve"
   xmlns:inkscape="http://www.inkscape.org/namespaces/inkscape"
   xmlns:sodipodi="http://sodipodi.sourceforge.net/DTD/sodipodi-0.dtd"
   xmlns="http://www.w3.org/2000/svg"
   xmlns:svg="http://www.w3.org/2000/svg"><sodipodi:namedview
     id="namedview7"
     pagecolor="#ffffff"
     bordercolor="#000000"
     borderopacity="0.25"
     inkscape:showpageshadow="2"
     inkscape:pageopacity="0.0"
     inkscape:pagecheckerboard="0"
     inkscape:deskcolor="#d1d1d1"
     inkscape:document-units="px"
     showgrid="false"
     inkscape:zoom="0.52787981"
     inkscape:cx="212.16951"
     inkscape:cy="494.43073"
     inkscape:window-width="1920"
     inkscape:window-height="1004"
     inkscape:window-x="0"
     inkscape:window-y="0"
     inkscape:window-maximized="1"
     inkscape:current-layer="layer1" /><defs
     id="defs2" /><g
     inkscape:label="Layer 1"
     inkscape:groupmode="layer"
     id="layer1"><circle
       style="fill:#006aa7;fill-opacity:1;stroke:#000000;stroke-width:0;stroke-dasharray:none;stroke-opacity:1;paint-order:stroke markers fill"
       id="path236"
       cx="132.29167"
       cy="132.29167"
       r="125.37917" /><circle
       style="fill:#000000;fill-opacity:0;stroke:#feda0a;stroke-width:5.29167;stroke-dasharray:none;stroke-opacity:1;paint-order:normal"
       id="path236-3"
       cx="132.29167"
       cy="132.29167"
       r="125.37917" /><path
       style="fill:#feda0a;fill-opacity:1;stroke:#feda0a;stroke-width:0;stroke-opacity:1"
       d="m 52.552629,212.26463 c 0,-1.03781 3.112144,-9.43925 5.804107,-15.66857 6.784073,-15.69867 17.241687,-33.93482 28.434887,-49.58516 31.402757,-43.90739 71.398057,-75.212196 118.844387,-93.020932 3.27624,-1.229721 6.14057,-2.174599 6.36519,-2.099727 0.22461,0.07487 -0.85794,1.061921 -2.40567,2.193445 -4.31647,3.155715 -11.38027,9.422139 -15.93671,14.13774 -7.82632,8.099713 -12.25398,13.599376 -28.20435,35.033104 -4.38216,5.88864 -9.8366,12.93718 -12.12097,15.66339 -16.91844,20.1908 -34.68964,31.55762 -58.142341,37.18906 -2.385542,0.57282 -4.429512,1.1394 -4.542166,1.2591 -0.11262,0.1197 1.730731,0.11592 4.096386,-0.008 7.794701,-0.40965 15.937471,-2.43691 24.351121,-6.0626 2.0154,-0.8685 3.73914,-1.50432 3.83051,-1.41293 0.39373,0.39371 -2.17478,3.11603 -4.43749,4.70324 -5.05459,3.54558 -14.06577,7.02199 -23.85595,9.20332 -4.96291,1.10578 -12.901314,2.0477 -13.930222,1.65288 -0.717767,-0.27546 -1.954245,1.29214 -7.125873,9.03399 -7.499858,11.22719 -13.051346,21.11448 -17.94022,31.95178 -2.994078,6.63707 -3.084626,6.80845 -3.084626,5.83725 z"
       id="path5433" /></g></svg>
