<?xml version="1.0" encoding="UTF-8" standalone="no"?>
<!-- Created with Inkscape (http://www.inkscape.org/) -->

<svg
   width="1000"
   height="1000"
   viewBox="0 0 264.58333 264.58333"
   version="1.1"
   id="svg5"
   inkscape:version="1.2.2 (b0a8486541, 2022-12-01)"
   sodipodi:docname="liberal_conservatism.svg"
   xml:space="preserve"
   xmlns:inkscape="http://www.inkscape.org/namespaces/inkscape"
   xmlns:sodipodi="http://sodipodi.sourceforge.net/DTD/sodipodi-0.dtd"
   xmlns="http://www.w3.org/2000/svg"
   xmlns:svg="http://www.w3.org/2000/svg"><sodipodi:namedview
     id="namedview7"
     pagecolor="#ffffff"
     bordercolor="#000000"
     borderopacity="0.25"
     inkscape:showpageshadow="2"
     inkscape:pageopacity="0.0"
     inkscape:pagecheckerboard="0"
     inkscape:deskcolor="#d1d1d1"
     inkscape:document-units="px"
     showgrid="false"
     inkscape:zoom="0.52787981"
     inkscape:cx="219.74699"
     inkscape:cy="490.64199"
     inkscape:window-width="1920"
     inkscape:window-height="1004"
     inkscape:window-x="0"
     inkscape:window-y="0"
     inkscape:window-maximized="1"
     inkscape:current-layer="layer1" /><defs
     id="defs2" /><g
     inkscape:label="Layer 1"
     inkscape:groupmode="layer"
     id="layer1"><circle
       style="fill:#0183be;fill-opacity:1;stroke:#000000;stroke-width:0;stroke-dasharray:none;stroke-opacity:1;paint-order:stroke markers fill"
       id="path236"
       cx="132.29167"
       cy="132.29167"
       r="125.37917" /><circle
       style="fill:#000000;fill-opacity:0;stroke:#ffffff;stroke-width:5.29167;stroke-dasharray:none;stroke-opacity:1;paint-order:normal"
       id="path236-3"
       cx="132.29167"
       cy="132.29167"
       r="125.37917" /><path
       style="fill:#ffffff;fill-opacity:1;stroke-width:0.0973894"
       d="m 118.84346,206.44931 c -3.36149,-0.61898 -6.27591,-1.31492 -9.05965,-2.16343 -2.43471,-0.74213 -4.28202,-1.42229 -7.91673,-2.91483 l -0.37148,-0.15254 18.69164,-18.70589 c 11.94904,-11.95813 18.85042,-18.93422 19.13181,-19.3389 1.19538,-1.71918 1.74172,-3.43137 1.74025,-5.45381 -0.003,-3.36213 -1.61825,-6.21822 -4.51276,-7.97669 -1.67201,-1.0158 -3.5334,-1.44526 -5.51473,-1.27237 -1.70197,0.14844 -3.10262,0.65498 -4.64067,1.67809 -0.38137,0.25368 -7.65493,7.45465 -20.93874,20.72977 l -20.354388,20.34106 -1.266062,-1.051 c -3.252032,-2.69966 -6.7285,-6.18819 -9.577366,-9.61057 l -0.891365,-1.07082 20.292034,-20.30616 c 13.009637,-13.01869 20.449997,-20.53334 20.732147,-20.9392 1.19542,-1.71941 1.74169,-3.43142 1.74022,-5.4538 -0.003,-3.35935 -1.6185,-6.21836 -4.5067,-7.97302 -1.67838,-1.01965 -3.5367,-1.44917 -5.52079,-1.27604 -1.70205,0.14845 -3.1029,0.65508 -4.6407,1.67815 -0.3804,0.25307 -7.12778,6.92761 -19.333463,19.12472 l -18.749144,18.73598 -0.45773,-1.09647 c -2.20849,-5.29036 -3.706397,-10.37555 -4.783846,-16.24053 l -0.134193,-0.73042 15.551037,-15.58231 c 11.872868,-11.89674 15.656147,-15.74355 15.995498,-16.26403 1.127471,-1.72925 1.540211,-2.98923 1.611129,-4.91816 0.03594,-0.97674 0.0076,-1.53172 -0.110387,-2.1586 -0.383294,-2.03736 -1.577861,-4.07262 -3.132614,-5.33722 -2.018669,-1.641945 -4.275004,-2.358524 -6.747227,-2.142799 -1.702896,0.148599 -3.106912,0.656519 -4.640678,1.678889 -0.365659,0.24374 -3.858033,3.65587 -9.331563,9.11713 -8.266165,8.24764 -8.743695,8.70619 -8.682865,8.33806 0.137697,-0.83332 0.657174,-3.08684 1.032707,-4.47991 2.664019,-9.88221 7.446385,-19.298183 13.849911,-27.269036 3.389447,-4.219058 7.946895,-8.722783 12.237708,-12.093503 7.178382,-5.639081 15.71726,-10.089644 24.33456,-12.683481 5.79942,-1.745641 11.15299,-2.715627 17.23412,-3.122575 1.86134,-0.12449 7.15946,-0.125703 9.1699,-0.0015 9.6103,0.591348 19.26487,3.11739 27.92016,7.305085 19.65672,9.510533 34.07222,26.90366 39.75564,47.96749 0.89165,3.30464 1.59336,6.95165 2.05097,10.65957 0.58678,4.7546 0.64504,11.44386 0.14253,16.36143 -2.17111,21.24424 -13.43938,40.67776 -30.81477,53.14383 -8.10634,5.81592 -17.16672,9.90984 -26.8953,12.15258 -1.0532,0.24279 -1.95082,0.44144 -1.9947,0.44144 -0.0438,0 3.82445,-3.91141 8.59627,-8.69201 5.30836,-5.31812 8.84721,-8.93772 9.11698,-9.32503 1.19509,-1.71572 1.7425,-3.43052 1.74103,-5.45382 -0.003,-3.36212 -1.61824,-6.21822 -4.51275,-7.97667 -1.67202,-1.01579 -3.53342,-1.44526 -5.51473,-1.27239 -1.7022,0.1486 -3.10362,0.65536 -4.64069,1.67829 -0.37715,0.251 -6.10941,5.905 -16.16664,15.94594 l -15.5823,15.55704 -0.73043,-0.13449 z"
       id="path5110" /></g></svg>
