<?xml version="1.0" encoding="UTF-8" standalone="no"?>
<!-- Created with Inkscape (http://www.inkscape.org/) -->

<svg
   width="1000"
   height="1000"
   viewBox="0 0 264.58333 264.58333"
   version="1.1"
   id="svg5"
   inkscape:version="1.2.2 (b0a8486541, 2022-12-01)"
   sodipodi:docname="neoreactionaryism.svg"
   xml:space="preserve"
   xmlns:inkscape="http://www.inkscape.org/namespaces/inkscape"
   xmlns:sodipodi="http://sodipodi.sourceforge.net/DTD/sodipodi-0.dtd"
   xmlns="http://www.w3.org/2000/svg"
   xmlns:svg="http://www.w3.org/2000/svg"><sodipodi:namedview
     id="namedview7"
     pagecolor="#ffffff"
     bordercolor="#000000"
     borderopacity="0.25"
     inkscape:showpageshadow="2"
     inkscape:pageopacity="0.0"
     inkscape:pagecheckerboard="0"
     inkscape:deskcolor="#d1d1d1"
     inkscape:document-units="px"
     showgrid="false"
     inkscape:zoom="0.52787981"
     inkscape:cx="212.16951"
     inkscape:cy="494.43073"
     inkscape:window-width="1920"
     inkscape:window-height="1004"
     inkscape:window-x="0"
     inkscape:window-y="0"
     inkscape:window-maximized="1"
     inkscape:current-layer="layer1" /><defs
     id="defs2"><clipPath
       clipPathUnits="userSpaceOnUse"
       id="clipPath7346"><path
         style="fill:#fbc900;fill-opacity:1;stroke-width:0.36595"
         d="m -30.680096,232.57021 -3.971658,-0.18297 18.243746,-8.87521 18.2437599,-8.87522 130.5072281,7.9e-4 130.50725,8e-4 11.4817,5.60541 c 6.31494,3.08299 14.51451,7.07642 18.22132,8.87431 l 6.7396,3.2689 -2.89713,0.25653 c -1.5934,0.1411 -74.94369,0.22344 -163.00063,0.18298 -88.056929,-0.04 -161.890765,-0.15557 -164.075186,-0.2562 z M 41.9325,195.97512 c -1.176483,-0.17144 -0.922486,-0.34296 4.02545,-2.71865 2.904651,-1.39462 10.698292,-5.22339 17.319212,-8.50837 l 12.03802,-5.97267 h 3.464306 3.464303 l 7.003638,4.17027 c 3.852015,2.29365 8.485735,4.98726 10.297207,5.9858 1.811454,0.99856 4.503154,2.34598 5.981564,2.99432 1.47841,0.6483 3.3722,1.4287 4.20843,1.7342 0.83624,0.30548 3.3319,1.03199 5.5459,1.61441 l 4.02546,1.05898 -38.058903,-0.0876 C 60.31471,196.19751 42.623136,196.07583 41.9325,195.97519 Z m 106.28361,-0.90019 c 2.61656,-0.66884 6.23945,-1.74401 8.05092,-2.38924 1.81146,-0.64525 5.10502,-2.05542 7.319,-3.13372 2.21402,-1.07832 5.7546,-3.08838 7.86796,-4.46685 2.11336,-1.37847 5.02745,-3.52674 6.47573,-4.77395 l 2.63323,-2.26763 h 3.42965 3.42968 l 18.45581,8.99833 c 10.15069,4.9491 18.52443,9.06605 18.60828,9.1488 0.0838,0.0827 -18.11304,0.13923 -40.43757,0.1254 l -40.59005,-0.025 z m -24.16019,-4.5825 c -1.61426,-0.1709 -4.66079,-0.73628 -6.77007,-1.25639 -2.1093,-0.5201 -5.31718,-1.49894 -7.12864,-2.17523 -1.81145,-0.67627 -4.69333,-1.93212 -6.40413,-2.7908 -1.71084,-0.85865 -4.263345,-2.30106 -5.672243,-3.20534 -1.408925,-0.90429 -4.022331,-2.81856 -5.807586,-4.2539 -1.785239,-1.43534 -4.638505,-4.17416 -6.340591,-6.08627 -1.702067,-1.91209 -4.15054,-5.05365 -5.441019,-6.98124 -1.290494,-1.92761 -3.149949,-5.22116 -4.132146,-7.31904 -0.982183,-2.09785 -2.211419,-5.1317 -2.731622,-6.74189 -0.520194,-1.61018 -1.193207,-3.91567 -1.495557,-5.1233 -0.302363,-1.20764 -0.741574,-4.08951 -0.976029,-6.40415 -0.253233,-2.50002 -0.332613,-6.24109 -0.195504,-9.2156 0.126979,-2.75393 0.48386,-6.45846 0.793195,-8.23229 0.309319,-1.77382 1.047562,-4.6732 1.64052,-6.44306 0.592957,-1.76986 1.971265,-5.06413 3.062922,-7.32062 1.091644,-2.25647 2.94699,-5.52928 4.122976,-7.272875 1.175985,-1.743599 3.287,-4.515779 4.691149,-6.160381 1.404139,-1.644603 3.926671,-4.170273 5.605569,-5.612625 1.678932,-1.442349 4.151267,-3.386114 5.494102,-4.319487 1.342834,-0.933357 4.005954,-2.522482 5.918044,-3.531362 1.9121,-1.008882 4.98168,-2.42825 6.82128,-3.154151 1.83961,-0.725884 5.21551,-1.817793 7.50199,-2.426448 3.01698,-0.803111 5.7028,-1.218547 9.79204,-1.514589 4.13872,-0.299641 6.9207,-0.299887 10.47806,-0.0011 2.66382,0.223858 6.13891,0.670647 7.72244,0.992902 1.58353,0.322238 4.60824,1.159205 6.7216,1.859909 2.11339,0.700709 5.53198,2.079877 7.5969,3.064828 2.0649,0.984948 5.11143,2.676951 6.77008,3.759985 1.65865,1.083056 4.08612,2.860292 5.39438,3.94942 1.30829,1.089115 3.40638,3.021362 4.66243,4.293862 1.25607,1.2725 3.32993,3.66277 4.60859,5.311706 1.27865,1.648942 3.11912,4.315486 4.08992,5.925666 0.97081,1.61018 2.29302,4.08461 2.93829,5.49873 0.64524,1.41414 1.61779,3.80195 2.16119,5.30629 0.5434,1.50434 1.38757,4.38194 1.87589,6.39469 0.8089,3.33395 0.88795,4.41356 0.88838,12.13566 2.6e-4,6.01221 -0.15888,9.30909 -0.54775,11.34144 -0.30152,1.57592 -1.06541,4.43109 -1.69757,6.34485 -0.63212,1.91377 -1.84037,4.96167 -2.68496,6.77313 -0.84461,1.81146 -2.24266,4.44631 -3.1068,5.8552 -0.86413,1.40893 -2.64098,3.93515 -3.94852,5.61382 -1.30754,1.67869 -3.5117,4.18648 -4.89807,5.57286 -1.38639,1.38637 -4.03431,3.69048 -5.88426,5.12024 -1.84997,1.42973 -4.77087,3.43078 -6.49092,4.44674 -1.72002,1.01597 -4.5271,2.46024 -6.23792,3.20947 -1.71081,0.74923 -4.18098,1.71547 -5.48928,2.14718 -1.30825,0.43172 -4.19013,1.20607 -6.40412,1.72078 -3.37729,0.78514 -5.14504,0.95817 -10.97853,1.07459 -3.82418,0.0762 -8.27382,-7.9e-4 -9.8881,-0.17197 z m 18.80027,-3.5022 c 2.53699,-0.51369 5.85126,-1.3454 7.365,-1.84826 1.51376,-0.50287 4.76807,-1.88397 7.23182,-3.06909 2.46375,-1.18513 6.00431,-3.18777 7.86793,-4.45035 2.06798,-1.401 5.17649,-4.08364 7.97684,-6.88399 2.77369,-2.7737 5.48403,-5.91062 6.85294,-7.93151 1.24549,-1.83871 2.99795,-4.80291 3.89434,-6.58712 0.8964,-1.78422 2.05768,-4.38758 2.58067,-5.78528 0.52294,-1.3977 1.29226,-3.86787 1.70959,-5.48926 0.41732,-1.6214 0.88616,-5.00648 1.04187,-7.52239 0.15571,-2.5159 0.15431,-7.20923 -0.003,-10.4296 -0.25537,-5.22386 -0.43024,-6.32872 -1.62188,-10.24663 -0.73461,-2.41527 -2.21195,-6.22245 -3.28295,-8.4604 -1.07102,-2.23795 -2.86782,-5.44916 -3.99287,-7.13603 -1.12508,-1.68689 -3.08017,-4.230893 -4.34463,-5.653367 -1.26447,-1.42249 -3.50483,-3.685783 -4.97856,-5.029581 -1.47372,-1.343782 -4.30408,-3.524761 -6.28967,-4.846629 -1.98559,-1.321856 -5.22612,-3.202263 -7.20115,-4.178666 -1.97506,-0.976386 -5.38758,-2.374029 -7.58338,-3.105835 -2.19579,-0.731806 -5.98338,-1.66956 -8.41686,-2.083885 -3.7926,-0.645747 -5.44366,-0.726313 -11.56055,-0.564224 -5.80481,0.153845 -7.887,0.359453 -11.16151,1.102247 -2.21399,0.50225 -5.4929,1.447977 -7.28646,2.101662 -1.79355,0.653685 -4.94264,2.042985 -6.99803,3.087312 -2.05537,1.044358 -5.116559,2.857727 -6.802656,4.029715 -1.686081,1.172003 -5.133406,4.20348 -7.660706,6.736609 -2.964641,2.97149 -5.411629,5.83375 -6.896397,8.066772 -1.265721,1.90361 -3.088605,5.03249 -4.05086,6.95307 -0.962234,1.9206 -2.258097,4.97644 -2.879672,6.79081 -0.621575,1.81434 -1.404975,4.53152 -1.740893,6.03817 -0.462626,2.07502 -0.61477,4.6475 -0.627385,10.60731 -0.0096,4.88466 0.163859,8.90864 0.459407,10.61259 0.26181,1.50953 0.957754,4.2243 1.546508,6.03283 0.58878,1.8085 2.055746,5.28199 3.25996,7.71885 1.204204,2.43687 3.0328,5.71526 4.063532,7.28534 1.030726,1.57005 3.537077,4.58439 5.569616,6.69851 2.032556,2.11409 5.146101,4.96729 6.918987,6.34039 1.77287,1.37313 4.654719,3.30219 6.404119,4.28679 1.74942,0.98463 4.33648,2.29633 5.74905,2.9149 1.41256,0.61857 3.88274,1.55599 5.48928,2.08315 1.60652,0.52715 4.0737,1.2102 5.4826,1.51787 1.40891,0.30769 3.71441,0.6882 5.12332,0.8456 1.40892,0.15741 5.17581,0.30855 8.3709,0.33589 4.91199,0.0421 6.52167,-0.0946 10.42194,-0.88429 z M 99.910587,158.27724 c -1.811473,-0.14326 -4.360127,-0.54437 -5.663692,-0.89123 -1.303565,-0.34685 -2.662156,-0.78694 -3.019092,-0.97796 -0.356936,-0.19103 -0.648962,-0.5698 -0.648962,-0.84176 0,-0.27192 0.426339,-1.78938 0.947436,-3.37215 0.521086,-1.58276 1.811689,-4.68921 2.867983,-6.90321 1.056309,-2.214 2.928837,-5.359 4.161197,-6.98887 1.232366,-1.62987 3.305553,-3.95959 4.607123,-5.17712 1.30155,-1.21755 3.4078,-2.95668 4.68055,-3.86476 1.27275,-0.90809 3.84758,-2.42435 5.72186,-3.36952 1.87428,-0.94513 3.46523,-1.66004 3.53543,-1.58868 0.0703,0.0713 0.38933,1.14159 0.70917,2.37827 0.31982,1.23669 0.58151,2.59291 0.58151,3.01382 0,0.57188 -0.57807,1.05659 -2.28717,1.91775 -1.25797,0.63385 -3.27527,1.85716 -4.48291,2.71842 -1.20765,0.86129 -3.28464,2.60937 -4.61556,3.88464 -1.33091,1.27528 -3.34891,3.74476 -4.48445,5.48775 -1.13552,1.74297 -2.47398,4.04847 -2.974339,5.12331 -0.500388,1.07484 -0.911371,2.21949 -0.913342,2.54369 -0.0031,0.43852 0.488392,0.64852 1.917661,0.82021 1.05669,0.12696 3.09358,0.23219 4.52646,0.23394 1.43286,7.9e-4 4.04679,-0.24819 5.80873,-0.55547 1.76196,-0.30725 4.66406,-1.10723 6.44913,-1.77773 1.78508,-0.67052 4.59416,-2.02473 6.24237,-3.00938 1.75547,-1.04872 4.31657,-3.0787 6.18307,-4.90087 1.75246,-1.71081 3.92478,-4.26332 4.82738,-5.67223 0.90257,-1.4089 2.1585,-3.5909 2.79093,-4.84885 0.83473,-1.66033 1.35057,-2.28719 1.88205,-2.28719 0.40268,0 1.71773,0.27403 2.92235,0.60893 1.34523,0.37401 2.19016,0.80685 2.19016,1.12197 0,0.2822 -0.71798,1.94504 -1.59551,3.69523 -0.87751,1.75019 -2.21374,4.14865 -2.9694,5.32991 -0.75564,1.18126 -2.63134,3.47023 -4.16821,5.08658 -1.5369,1.61636 -4.10083,3.91219 -5.69764,5.10189 -1.59681,1.18966 -4.56103,2.96447 -6.58712,3.94403 -2.02608,0.97956 -4.73168,2.11766 -6.01241,2.52911 -1.28075,0.41145 -3.64562,0.99791 -5.25524,1.30326 -1.60964,0.30535 -4.26701,0.53035 -5.90527,0.50002 -1.63827,-0.0303 -4.46078,-0.1724 -6.272233,-0.31575 z m 53.209693,0.007 c -1.1269,-0.17926 -3.92642,-0.92651 -6.22118,-1.6606 -2.29473,-0.73405 -5.40733,-2.00266 -6.91689,-2.8191 -1.50954,-0.81643 -3.70965,-2.13709 -4.88913,-2.93481 l -2.1445,-1.45041 2.29444,-2.31501 2.29446,-2.31505 1.61157,1.10876 c 0.88634,0.60983 3.29016,1.91064 5.34184,2.89071 2.05164,0.98005 5.21125,2.14981 7.0213,2.59944 2.62383,0.65178 4.37919,0.8216 8.65831,0.83765 2.95201,0.0108 5.49668,-0.10925 5.65485,-0.26743 0.15813,-0.15815 0.009,-1.0375 -0.33013,-1.95413 -0.33972,-0.9166 -1.4023,-3.00522 -2.36128,-4.64138 -0.96195,-1.64126 -3.05601,-4.35359 -4.67122,-6.05043 -1.61018,-1.69156 -3.91565,-3.77725 -5.1233,-4.63483 -1.20763,-0.8576 -3.55331,-2.2384 -5.21258,-3.06845 -1.65927,-0.83005 -4.29412,-1.92878 -5.8552,-2.44166 -2.4479,-0.8042 -3.7306,-0.96257 -9.32438,-1.15119 l -6.48603,-0.21874 -0.55853,-1.92124 c -0.30719,-1.05669 -0.55851,-2.33765 -0.55851,-2.84662 0,-0.56822 0.24717,-0.99543 0.64041,-1.10686 0.35223,-0.0999 2.1225,-0.28756 3.93397,-0.41726 1.82189,-0.13039 4.76523,-0.0546 6.58711,0.16995 1.81146,0.22317 4.858,0.8245 6.77009,1.33624 1.91209,0.51177 4.96737,1.63278 6.78949,2.49115 1.82214,0.85837 4.22539,2.14435 5.34061,2.85773 1.11521,0.7134 3.21923,2.32266 4.67562,3.57611 1.45638,1.25347 3.64599,3.53495 4.86581,5.06996 1.21981,1.535 2.59833,3.39364 3.06337,4.13033 0.46503,0.73668 1.42908,2.48448 2.14234,3.88401 0.71325,1.39954 1.8741,4.30699 2.57973,6.46101 0.70559,2.15402 1.28291,4.04665 1.28291,4.20579 0,0.15919 -0.61754,0.56035 -1.37233,0.89149 -0.75476,0.33116 -2.44272,0.85951 -3.75098,1.17417 -1.42154,0.34189 -4.66111,0.62933 -8.05092,0.71435 -3.11973,0.0783 -6.59425,-0.005 -7.72114,-0.18365 z m -27.1043,-16.349 c -0.69625,-0.97111 -1.86333,-2.78671 -2.59348,-4.03463 -0.73015,-1.24792 -1.89342,-3.55603 -2.58506,-5.12907 -0.69162,-1.57306 -1.60782,-4.09261 -2.03597,-5.59898 -0.42816,-1.50637 -0.97153,-4.57713 -1.20746,-6.82387 -0.32413,-3.08648 -0.32699,-5.00969 -0.0108,-7.86794 0.22945,-2.08063 0.74342,-5.05065 1.14213,-6.60006 0.39867,-1.54941 1.23601,-4.10192 1.86075,-5.67224 0.6247,-1.570314 2.01916,-4.337231 3.09883,-6.148669 1.07965,-1.81147 3.03858,-4.544986 4.35324,-6.074484 1.31463,-1.529501 2.81094,-3.056575 3.32513,-3.39348 0.8653,-0.566973 1.00251,-0.568264 1.84365,-0.01709 0.4998,0.327501 1.90896,1.772216 3.13146,3.210496 1.22248,1.438281 2.80762,3.493418 3.52254,4.566944 0.71492,1.073542 2.00204,3.37902 2.86025,5.123318 0.8582,1.744281 1.90723,4.241845 2.33115,5.550105 0.42394,1.30828 1.01112,3.53531 1.30485,4.94897 0.29375,1.41367 0.63421,4.21319 0.75656,6.22118 0.12244,2.00796 0.0879,4.72125 -0.0762,6.02955 -0.28134,2.23922 -0.3527,2.37529 -1.21742,2.32079 -0.50523,-0.0319 -1.83896,-0.32544 -2.96385,-0.65245 l -2.04525,-0.59457 -0.19323,-5.75169 c -0.14047,-4.18221 -0.40422,-6.55054 -0.9665,-8.67929 -0.42529,-1.61019 -1.43585,-4.31354 -2.24564,-6.00746 -0.80982,-1.69394 -2.22055,-4.205272 -3.13499,-5.580759 -0.91441,-1.375473 -1.81793,-2.500876 -2.00781,-2.500876 -0.18986,0 -1.06193,1.11157 -1.93786,2.470176 -0.87596,1.358572 -2.08473,3.458229 -2.68619,4.665861 -0.60144,1.207648 -1.45202,3.243298 -1.89013,4.523698 -0.43812,1.28039 -1.04892,3.50355 -1.35732,4.94034 -0.30909,1.43999 -0.56954,4.50099 -0.58034,6.82077 -0.0108,2.31464 0.1759,5.19651 0.41485,6.40416 0.23896,1.20763 0.7764,3.2661 1.19434,4.57438 0.41792,1.30826 1.33281,3.53143 2.03304,4.94034 0.70027,1.4089 1.97625,3.57262 2.83553,4.80823 l 1.56231,2.24656 -2.28401,2.26372 -2.28405,2.26371 -1.26594,-1.76563 z M 72.830226,84.703265 C 70.817493,83.707562 62.583596,79.641392 54.53268,75.667327 L 39.89465,68.441752 76.123786,68.33554 c 19.926019,-0.05837 36.970184,-7.94e-4 37.875914,0.128217 l 1.64678,0.234328 -4.06859,1.182013 c -2.23774,0.65011 -5.03727,1.564685 -6.22119,2.032389 -1.18391,0.467717 -4.12871,1.830962 -6.543981,3.02945 -2.415273,1.198486 -5.958681,3.202744 -7.874222,4.45394 -1.915557,1.251162 -4.743228,3.374115 -6.283716,4.717648 l -2.80089,2.442782 -2.682081,-0.0213 C 76.715164,86.515587 76.182153,86.361502 72.830226,84.7033 Z m 107.955514,1.492684 c -0.40255,-0.172709 -2.04933,-1.426577 -3.65951,-2.786364 -1.61018,-1.359805 -4.24504,-3.324825 -5.85522,-4.366696 -1.61018,-1.041874 -3.99802,-2.480961 -5.30629,-3.197987 -1.30827,-0.717016 -4.02298,-2.001756 -6.03268,-2.854947 -2.00971,-0.853207 -5.44803,-2.102083 -7.64069,-2.775275 -2.19265,-0.673209 -4.2536,-1.243481 -4.57987,-1.267299 -0.32628,-0.02379 -0.0992,-0.159822 0.50463,-0.302241 0.60381,-0.142423 17.31862,-0.296098 37.14402,-0.341506 23.08012,-0.05284 35.91452,0.04399 35.68021,0.269364 -0.20127,0.193551 -7.94113,4.054369 -17.1997,8.579599 -9.25856,4.525222 -17.62171,8.492294 -18.58479,8.81571 -0.96308,0.3234 -2.19817,0.577586 -2.74464,0.564814 -0.54647,-0.01243 -1.32293,-0.164476 -1.72547,-0.337172 z m -197.418421,-45.109531 -18.076847,-8.874316 4.732462,-0.232738 c 2.602841,-0.128079 74.802903,-0.232751 160.444556,-0.232751 85.64167,0 157.83412,0.104709 160.42765,0.232751 l 4.71551,0.232738 -18.12653,8.874316 -18.12655,8.874302 H 130.40085 1.4441485 Z"
         id="path7348" /></clipPath></defs><g
     inkscape:label="Layer 1"
     inkscape:groupmode="layer"
     id="layer1"><circle
       style="fill:#000000;fill-opacity:1;stroke:#000000;stroke-width:0;stroke-dasharray:none;stroke-opacity:1;paint-order:stroke markers fill"
       id="path236"
       r="125.37917"
       cy="133.86221"
       cx="131.73282" /><circle
       style="fill:#fbc900;fill-opacity:1;stroke:#000000;stroke-width:0;stroke-dasharray:none;stroke-opacity:1;paint-order:stroke markers fill"
       id="path236-36"
       r="125.37917"
       cy="132.29167"
       cx="132.29167"
       clip-path="url(#clipPath7346)" /><circle
       style="fill:#000000;fill-opacity:0;stroke:#fbc900;stroke-width:5.29167;stroke-dasharray:none;stroke-opacity:1;paint-order:normal"
       id="path236-3"
       cx="132.29167"
       cy="132.29167"
       r="125.37917" /></g></svg>
