<?xml version="1.0" encoding="UTF-8" standalone="no"?>
<!-- Created with Inkscape (http://www.inkscape.org/) -->

<svg
   width="1000"
   height="1000"
   viewBox="0 0 264.58333 264.58333"
   version="1.1"
   id="svg5"
   inkscape:version="1.2.2 (b0a8486541, 2022-12-01)"
   sodipodi:docname="paleoconservatism.svg"
   xml:space="preserve"
   xmlns:inkscape="http://www.inkscape.org/namespaces/inkscape"
   xmlns:sodipodi="http://sodipodi.sourceforge.net/DTD/sodipodi-0.dtd"
   xmlns="http://www.w3.org/2000/svg"
   xmlns:svg="http://www.w3.org/2000/svg"><sodipodi:namedview
     id="namedview7"
     pagecolor="#ffffff"
     bordercolor="#000000"
     borderopacity="0.25"
     inkscape:showpageshadow="2"
     inkscape:pageopacity="0.0"
     inkscape:pagecheckerboard="0"
     inkscape:deskcolor="#d1d1d1"
     inkscape:document-units="px"
     showgrid="false"
     inkscape:zoom="0.52787981"
     inkscape:cx="212.16951"
     inkscape:cy="494.43073"
     inkscape:window-width="1920"
     inkscape:window-height="1004"
     inkscape:window-x="0"
     inkscape:window-y="0"
     inkscape:window-maximized="1"
     inkscape:current-layer="layer1" /><defs
     id="defs2" /><g
     inkscape:label="Layer 1"
     inkscape:groupmode="layer"
     id="layer1"><circle
       style="fill:#353456;fill-opacity:1;stroke:#000000;stroke-width:0;stroke-dasharray:none;stroke-opacity:1;paint-order:stroke markers fill"
       id="path236"
       cx="132.29167"
       cy="132.29167"
       r="125.37917" /><circle
       style="fill:#000000;fill-opacity:0;stroke:#ffffff;stroke-width:5.29167;stroke-dasharray:none;stroke-opacity:1;paint-order:normal"
       id="path236-3"
       cx="132.29167"
       cy="132.29167"
       r="125.37917" /><path
       style="fill:#ffffff;fill-opacity:1;stroke-width:0.341274"
       d="m 81.525006,200.59879 c -0.131825,-0.6002 -0.226071,-1.76944 -0.209431,-2.59833 0.01661,-0.82887 0.349834,-2.16723 0.74044,-2.97411 0.390603,-0.80689 1.321829,-2.16192 2.069388,-3.0112 0.747563,-0.84927 2.293616,-2.16811 3.435675,-2.93074 l 2.076476,-1.38662 h -3.210218 -3.210218 l -0.422174,1.57846 c -0.232197,0.86816 -0.971316,2.40578 -1.642488,3.41695 -0.671175,1.01116 -1.856818,2.38335 -2.634763,3.04929 -0.777947,0.66595 -2.335889,1.65891 -3.462096,2.2066 -1.126207,0.54768 -2.7237,1.0993 -3.549988,1.22584 l -1.502335,0.23004 0.231599,-1.44834 c 0.127373,-0.79657 0.552048,-2.08692 0.94371,-2.86743 0.391664,-0.7805 1.458318,-2.12816 2.370341,-2.99478 0.912022,-0.86662 2.787382,-2.1336 4.167466,-2.81551 1.380084,-0.68192 2.757476,-1.23985 3.060876,-1.23985 0.303397,0 0.626645,-0.12137 0.718328,-0.26972 0.09168,-0.14835 -1.033721,-0.4586 -2.500901,-0.68946 l -2.667602,-0.41975 -2.171484,2.16553 c -1.366341,1.36257 -3.011756,2.5778 -4.437712,3.27747 -1.395783,0.68486 -3.133526,1.21952 -4.524254,1.39199 -1.241916,0.15402 -2.909651,0.20847 -3.70608,0.12099 -0.79643,-0.0874 -1.78911,-0.22809 -2.205953,-0.31248 -0.665278,-0.13472 -0.716161,-0.26325 -0.416366,-1.05178 0.187848,-0.49408 0.802477,-1.48029 1.365847,-2.19161 0.563369,-0.7113 1.750334,-1.74002 2.637699,-2.28602 0.887366,-0.546 2.443954,-1.19197 3.459082,-1.4355 1.230354,-0.29516 2.907566,-0.37303 5.030752,-0.23355 1.751784,0.11505 3.185063,0.14888 3.185063,0.0752 0,-0.0738 -0.806261,-0.39744 -1.791693,-0.71935 -0.98543,-0.32191 -2.764946,-1.02179 -3.95448,-1.55528 l -2.162789,-0.97 -1.249959,1.00054 c -0.687477,0.55029 -1.864254,1.26294 -2.615058,1.58365 -0.750805,0.32071 -2.346545,0.77372 -3.546087,1.00669 -1.507702,0.29281 -2.8463,0.32936 -4.336135,0.11841 -1.185329,-0.16786 -2.814636,-0.54734 -3.620683,-0.84325 -0.806044,-0.29594 -1.73429,-0.62259 -2.062767,-0.7259 -0.328477,-0.10332 -0.597231,-0.30393 -0.597231,-0.44582 0,-0.14191 0.665159,-0.87113 1.478126,-1.6205 0.812967,-0.74937 2.354464,-1.69037 3.425549,-2.09112 1.071083,-0.40073 2.594351,-0.72596 3.38504,-0.72269 0.790689,0.004 2.435845,0.22048 3.655902,0.48274 1.220056,0.26224 2.525433,0.58437 2.900835,0.71584 0.375402,0.13147 -0.238892,-0.38688 -1.365099,-1.15187 -1.126207,-0.765 -2.48676,-1.74908 -3.023449,-2.18686 l -0.975803,-0.79597 -1.59059,0.78717 c -1.06006,0.52463 -2.498953,0.85684 -4.313959,0.99602 -1.986512,0.15233 -3.313135,0.0574 -4.903122,-0.35083 -1.198863,-0.30781 -3.08014,-1.03957 -4.180614,-1.62612 -1.100472,-0.58654 -2.00086,-1.17185 -2.00086,-1.30068 0,-0.12886 0.362457,-0.57475 0.805463,-0.99093 0.443001,-0.41618 1.596452,-1.05725 2.563218,-1.42459 0.96677,-0.36734 2.354234,-0.6679 3.083251,-0.6679 0.729021,0 2.378289,0.32419 3.665042,0.72044 1.286756,0.39623 2.753435,0.93331 3.25929,1.19352 0.532692,0.274 -0.283944,-0.74972 -1.940581,-2.43266 l -2.860316,-2.90577 -1.472167,0.77374 c -1.231156,0.64705 -2.002942,0.77342 -4.714278,0.77189 -2.849033,-0.001 -3.500608,-0.12099 -5.374216,-0.98473 -1.264495,-0.58293 -2.697208,-1.59595 -3.520819,-2.48946 -0.76379,-0.82862 -1.327303,-1.6908 -1.25225,-1.91597 0.07506,-0.22516 0.891557,-0.69278 1.814444,-1.03915 1.28532,-0.48238 2.316874,-0.59588 4.408182,-0.48499 2.122794,0.11261 3.147789,0.35727 4.607209,1.09997 1.032357,0.52537 2.299339,1.25313 2.815518,1.61723 0.516177,0.36412 0.938505,0.50706 0.938505,0.31766 0,-0.1894 -0.146151,-0.43471 -0.324778,-0.5451 -0.178626,-0.11041 -1.162729,-1.38978 -2.186891,-2.84307 l -1.862116,-2.64235 -3.188184,-0.38518 c -1.753505,-0.21185 -4.063805,-0.71587 -5.134009,-1.12007 -1.092366,-0.41257 -2.707718,-1.41991 -3.68289,-2.29667 -0.955385,-0.85897 -1.961043,-1.9949 -2.234794,-2.52427 -0.27375,-0.52937 -0.497725,-1.29077 -0.497725,-1.69199 0,-0.66518 0.127864,-0.71012 1.450418,-0.50972 0.79773,0.12086 2.218286,0.36785 3.156792,0.54883 0.938505,0.18096 2.474241,0.76956 3.412747,1.30798 0.938505,0.53842 2.467454,1.64872 3.397663,2.46734 l 1.69129,1.48838 -1.060743,-1.87702 c -0.58341,-1.03235 -1.443272,-2.56561 -1.910805,-3.40726 -0.806859,-1.45248 -0.960299,-1.55226 -3.01947,-1.96365 -1.193174,-0.23838 -3.014062,-0.76834 -4.046419,-1.17768 -1.032357,-0.40935 -2.415373,-1.07806 -3.073374,-1.48603 -0.657997,-0.40797 -1.767916,-1.37441 -2.466485,-2.14763 -0.698568,-0.77324 -1.505991,-1.9704 -1.794272,-2.66034 -0.288282,-0.68996 -0.441094,-1.33752 -0.339582,-1.43903 0.101511,-0.10151 1.140151,0.0116 2.308086,0.25049 1.167933,0.23928 3.066548,0.88326 4.219141,1.43105 1.152595,0.54777 2.876715,1.69824 3.831384,2.55656 l 1.735757,1.5606 -0.82179,-1.85821 c -0.451987,-1.02202 -1.34252,-2.68395 -1.978967,-3.69318 -0.636446,-1.00923 -1.606826,-2.90812 -2.156402,-4.21975 -0.797337,-1.90296 -0.994642,-2.86832 -0.976514,-4.77785 0.01648,-1.73496 0.220771,-2.77471 0.742924,-3.78097 0.396115,-0.76336 0.979394,-1.60303 1.296179,-1.86593 0.505814,-0.4198 0.658708,-0.37584 1.255239,0.36083 0.373597,0.46139 1.043944,1.55853 1.489658,2.43809 0.445715,0.87958 1.04165,2.26321 1.324296,3.07474 0.28265,0.81153 0.516144,2.49741 0.518877,3.74642 0.0034,1.50085 -0.269514,3.08219 -0.804496,4.66345 l -0.809459,2.39257 1.412263,2.98121 1.412266,2.98119 -0.0039,-2.86682 c -0.0027,-1.91971 0.213996,-3.53337 0.655722,-4.88432 l 0.659664,-2.01748 -1.087889,-0.90821 c -0.598357,-0.49951 -1.087906,-1.08251 -1.087906,-1.29556 0,-0.21303 0.728247,-0.81412 1.618326,-1.33575 1.394878,-0.81745 1.972107,-0.94541 4.180615,-0.92681 2.020487,0.017 2.987362,0.21504 4.572536,0.93643 1.105635,0.50316 2.773267,1.463 3.705851,2.13299 0.932581,0.67 1.640495,1.09124 1.573137,0.9361 -0.06736,-0.15514 -0.635652,-1.51067 -1.26288,-3.01226 l -1.140421,-2.7302 -2.591365,0.11454 c -2.155033,0.0952 -2.968622,-0.0338 -4.83189,-0.76617 -1.232289,-0.48436 -3.085178,-1.5484 -4.117535,-2.36453 -1.032356,-0.81615 -2.380213,-2.19148 -2.995242,-3.05631 -1.09856,-1.54476 -1.105819,-1.57907 -0.412619,-1.95005 0.388085,-0.2077 1.592195,-0.3902 2.675793,-0.40556 1.083598,-0.0154 2.574652,0.17054 3.313454,0.41314 0.738801,0.24261 1.957568,0.82614 2.708374,1.29675 0.750804,0.47061 2.426862,1.86759 3.724576,3.1044 1.297714,1.2368 2.275474,2.09516 2.172801,1.90746 -0.102673,-0.1877 -0.368471,-1.43345 -0.590664,-2.76835 l -0.403988,-2.42707 -1.427539,-0.42072 c -0.785146,-0.2314 -2.237036,-0.88003 -3.226422,-1.44143 -0.989382,-0.56138 -2.548428,-1.75078 -3.464543,-2.64311 -0.916114,-0.89232 -2.087795,-2.45333 -2.603738,-3.4689 -0.515943,-1.01558 -1.143498,-2.61437 -1.394572,-3.55287 -0.251072,-0.93852 -0.458314,-1.91922 -0.460543,-2.17936 -0.0031,-0.3615 0.342835,-0.42543 1.467704,-0.27126 0.809463,0.11093 2.169039,0.50062 3.021278,0.86594 0.852241,0.36531 2.115494,1.16113 2.807226,1.76847 0.691734,0.60735 1.646573,1.76784 2.121863,2.57886 0.475293,0.81102 1.305635,2.74803 1.845204,4.30445 l 0.981039,2.82986 0.01877,-4.29377 0.01877,-4.29378 -1.661339,-1.07652 c -0.913737,-0.59208 -2.18968,-1.73135 -2.835434,-2.53172 -0.645749,-0.80035 -1.497803,-1.99271 -1.89345,-2.64966 -0.395647,-0.65695 -0.962586,-2.13807 -1.259863,-3.29137 -0.297292,-1.1533 -0.540522,-3.11137 -0.540522,-4.35125 0,-1.33296 0.145042,-2.25435 0.354871,-2.25435 0.195179,0 0.958777,0.30809 1.696884,0.68464 0.738108,0.37656 1.877904,1.15517 2.532878,1.73024 0.654978,0.57508 1.51306,1.56692 1.906853,2.20408 0.39379,0.63718 0.872954,1.66306 1.064808,2.27975 0.191855,0.61668 0.551439,2.34984 0.799071,3.85145 0.247636,1.50161 0.465441,2.3791 0.484012,1.94998 0.01856,-0.42912 0.36112,-2.08543 0.761221,-3.68069 l 0.727458,-2.90045 -1.25809,-1.25808 c -0.69195,-0.69196 -1.819239,-2.3935 -2.505088,-3.78122 -1.107252,-2.24038 -1.262642,-2.880756 -1.38657,-5.714289 -0.07676,-1.755134 -0.03774,-3.733969 0.08672,-4.397407 0.128922,-0.687223 0.428487,-1.206249 0.696211,-1.206249 0.258454,0 1.13295,0.505714 1.943324,1.123814 0.911654,0.695336 1.859634,1.879013 2.486449,3.104648 0.859794,1.6812 1.034356,2.468116 1.153919,5.201733 l 0.140868,3.22088 1.604575,-3.510011 1.604574,-3.510024 -1.3163,-1.145819 C 53.61219,94.63093 52.716555,93.520789 52.345852,92.794161 51.975153,92.06752 51.430355,90.433101 51.135197,89.162115 50.793693,87.691574 50.676691,86.223729 50.81345,85.125609 c 0.118202,-0.94909 0.584437,-2.523219 1.036087,-3.498067 0.451652,-0.974836 1.042702,-1.772432 1.313443,-1.772432 0.270744,0 0.967947,0.541779 1.549343,1.20394 0.581396,0.662174 1.400997,1.852377 1.821338,2.644878 0.650014,1.225533 0.765111,1.976604 0.769965,5.024317 0.0031,1.970865 -0.114797,4.044117 -0.262072,4.607217 -0.218282,0.83459 -0.06578,0.708441 0.825106,-0.682554 0.601088,-0.9385 1.614118,-2.489335 2.251176,-3.446293 L 61.276129,87.4667 60.534505,85.281953 c -0.407896,-1.201605 -0.821056,-3.421269 -0.918139,-4.932595 -0.12816,-1.995035 -0.02051,-3.284506 0.392913,-4.706638 0.351776,-1.210067 1.03597,-2.475185 1.789972,-3.309761 0.671295,-0.743048 1.40726,-1.350997 1.635477,-1.350997 0.228219,0 0.604244,0.575896 0.835612,1.279784 0.231367,0.703875 0.505401,2.585158 0.60896,4.180608 0.162983,2.510952 0.07236,3.244856 -0.67425,5.460405 -0.474391,1.40775 -0.828293,2.594703 -0.786442,2.637642 0.04184,0.04295 1.115657,-1.180774 2.38624,-2.71938 2.113061,-2.558807 2.285951,-2.885747 2.026442,-3.832115 -0.156045,-0.569046 -0.283306,-3.031087 -0.282804,-5.471214 6.82e-4,-4.143976 0.06065,-4.549094 0.906682,-6.142945 0.498175,-0.938501 1.388084,-2.164394 1.97757,-2.724205 0.888195,-0.843463 1.125054,-0.931664 1.382658,-0.514846 0.170972,0.276648 0.414894,1.335647 0.542047,2.353344 0.127154,1.017698 0.139223,3.042903 0.02683,4.500467 -0.138465,1.795611 -0.483173,3.235659 -1.069064,4.466157 l -0.864701,1.816055 1.961285,-2.061927 c 1.078705,-1.134056 2.611189,-2.923449 3.405523,-3.976411 0.794331,-1.052962 2.369267,-2.609833 3.499855,-3.459707 1.367071,-1.027643 2.669789,-1.682684 3.889211,-1.955579 1.072132,-0.239926 2.49691,-0.310868 3.430839,-0.170816 0.894303,0.134107 1.680324,0.456029 1.786024,0.731478 0.104814,0.273128 -0.443324,1.329198 -1.232228,2.374086 -0.781556,1.035162 -2.29601,2.572285 -3.365453,3.415826 -1.069446,0.843528 -2.682996,1.755315 -3.585676,2.026185 -0.902678,0.270883 -2.769109,0.594702 -4.147627,0.719625 l -2.506397,0.227118 -2.50723,2.542283 -2.50723,2.54227 2.047649,-1.022315 c 1.126206,-0.562275 3.011961,-1.209486 4.190564,-1.438256 1.1786,-0.228769 2.88902,-0.327572 3.80093,-0.219572 0.911911,0.107961 2.251206,0.44798 2.976211,0.755508 l 1.318186,0.559128 -1.309112,1.144077 c -0.720012,0.629231 -2.02259,1.479441 -2.894614,1.889345 -0.872029,0.409903 -2.651688,0.893019 -3.954805,1.073612 -1.5797,0.218915 -3.003453,0.209796 -4.272156,-0.02735 -1.046571,-0.195619 -2.224357,-0.449296 -2.617311,-0.563732 -0.562203,-0.163721 -1.00102,0.142891 -2.059153,1.438823 -0.73958,0.90579 -1.754367,2.202741 -2.255078,2.882122 l -0.910389,1.235219 2.400586,-1.197491 c 1.817151,-0.90646 2.973263,-1.238469 4.75695,-1.366101 1.390076,-0.09945 2.985239,0.0077 3.8899,0.260771 0.843444,0.236147 1.694422,0.62322 1.891072,0.860167 0.264673,0.318917 0.06692,0.676595 -0.761384,1.377116 -0.615407,0.520458 -1.886792,1.298332 -2.825297,1.728603 -0.938506,0.43027 -2.716234,0.884906 -3.950502,1.010306 -1.254741,0.127438 -2.985376,0.06901 -3.92542,-0.132571 -0.924712,-0.198303 -1.929567,-0.455836 -2.233015,-0.572284 -0.420346,-0.161297 -1.006,0.549569 -2.459497,2.985389 -1.049275,1.758398 -2.016404,3.480177 -2.149177,3.826181 -0.155611,0.405505 0.415525,0.107058 1.60707,-0.83971 1.01666,-0.807838 2.685067,-1.84131 3.707575,-2.296617 1.069623,-0.47628 2.808708,-0.901262 4.095297,-1.000762 1.450809,-0.112217 2.696545,-0.0077 3.546926,0.296977 l 1.310727,0.469934 -1.357557,1.717445 c -0.746658,0.944588 -2.194239,2.272793 -3.216849,2.951568 -1.022609,0.678761 -2.585606,1.417011 -3.47333,1.640543 -0.959193,0.241526 -2.826404,0.337298 -4.602241,0.236044 l -2.988205,-0.17039 -0.974981,2.598553 c -0.536239,1.4292 -1.054198,2.82891 -1.151021,3.11046 -0.09683,0.28155 0.65993,-0.24101 1.681672,-1.16123 1.021743,-0.92022 2.855942,-2.14881 4.075999,-2.7302 1.882567,-0.897089 2.614259,-1.057057 4.834727,-1.057057 1.439039,0 2.737682,0.121246 2.885866,0.269425 0.148185,0.148192 -0.02306,0.812542 -0.380531,1.476342 -0.357479,0.66379 -1.544074,2.03469 -2.63688,3.04643 -1.538631,1.42451 -2.49394,1.99615 -4.234182,2.53366 -1.395701,0.43108 -3.197478,0.69411 -4.754842,0.69411 h -2.50757 l -0.371191,1.27977 c -0.204154,0.70389 -0.595098,2.50837 -0.868763,4.00998 -0.273661,1.5016 -0.497779,3.03598 -0.498036,3.40972 -2.9e-4,0.42294 0.68903,-0.3502 1.82565,-2.04765 1.004364,-1.49995 2.480668,-3.31834 3.280671,-4.04089 0.800006,-0.72256 2.089891,-1.60224 2.86641,-1.95485 0.830015,-0.37689 2.185395,-0.64204 3.288869,-0.64337 1.032356,-0.001 2.092307,0.13405 2.355451,0.30064 0.392428,0.24847 0.304693,0.6003 -0.488016,1.95712 -0.531553,0.9098 -1.803057,2.53325 -2.82556,3.60766 -1.022508,1.07443 -2.622558,2.33394 -3.555671,2.79893 -0.93311,0.46499 -2.833198,1.03643 -4.222418,1.26985 l -2.525853,0.42442 0.01518,4.11407 c 0.01375,3.71935 0.06382,4.04858 0.52199,3.43151 0.278735,-0.3754 1.106095,-1.60398 1.838576,-2.7302 0.732478,-1.1262 1.960333,-2.69835 2.728563,-3.49367 0.76823,-0.7953 1.885154,-1.69856 2.482057,-2.00723 0.596904,-0.30867 2.052051,-0.63882 3.233664,-0.73367 1.506694,-0.12099 2.14839,-0.0537 2.14839,0.22528 0,0.21875 -0.481383,1.35133 -1.069733,2.51686 -0.636577,1.26106 -1.983919,3.03181 -3.327428,4.37312 -1.692502,1.68974 -2.684874,2.38849 -3.964071,2.79125 -0.938505,0.29548 -2.265108,0.63055 -2.94801,0.74457 l -1.241639,0.20732 0.321256,1.44211 c 0.176691,0.79316 0.554933,2.25035 0.840535,3.23819 0.285606,0.98785 0.665506,1.70571 0.844229,1.59526 0.178722,-0.11041 0.939239,-1.4226 1.690037,-2.91585 0.750793,-1.49327 2.090441,-3.4631 2.976987,-4.37742 1.204591,-1.24232 2.080298,-1.80018 3.465535,-2.20765 1.019501,-0.29991 2.209698,-0.54528 2.64488,-0.54528 0.544736,0 0.791246,0.19837 0.791246,0.6367 0,0.35018 -0.533375,1.70286 -1.185278,3.00594 -0.651903,1.30307 -1.918886,3.11465 -2.815516,4.02572 -0.896632,0.91108 -2.251059,1.9319 -3.009836,2.26847 -0.75878,0.33659 -2.037032,0.71711 -2.840562,0.84559 -1.366079,0.21845 -1.446811,0.29148 -1.243053,1.1245 0.119854,0.48999 0.80581,1.96591 1.524355,3.2798 0.71854,1.31391 1.438012,2.36204 1.598825,2.32916 0.160811,-0.0329 0.637419,-1.258 1.059129,-2.7225 0.421712,-1.46451 1.189581,-3.34233 1.706373,-4.17294 0.516796,-0.83061 1.497398,-1.95965 2.179118,-2.509 0.729031,-0.58747 1.818271,-1.07644 2.64488,-1.1873 0.798197,-0.10706 1.40539,-0.0475 1.40539,0.13792 0,0.17955 -0.368253,1.40916 -0.818344,2.73246 -0.450087,1.32333 -1.007897,2.77078 -1.239575,3.21657 -0.231678,0.4458 -0.966036,1.48437 -1.631907,2.3079 -0.752848,0.93114 -1.897283,1.81172 -3.026356,2.32863 -0.998628,0.45718 -1.815688,0.91638 -1.815688,1.02044 0,0.10409 0.769418,1.22709 1.70982,2.49561 0.940401,1.26854 1.915828,2.47739 2.167615,2.68636 0.374692,0.31097 0.496039,-0.162 0.668479,-2.6055 0.163426,-2.31576 0.424552,-3.40361 1.164095,-4.84967 0.602369,-1.17784 1.45445,-2.20476 2.314228,-2.78912 0.748449,-0.50868 1.727898,-1.03093 2.176548,-1.16055 l 0.815725,-0.23567 -0.244838,2.4847 c -0.13466,1.3666 -0.549886,3.30003 -0.922721,4.29652 -0.518878,1.38683 -1.212317,2.29417 -2.956286,3.86815 l -2.278398,2.05634 3.027524,2.98507 c 1.665133,1.64178 2.926823,2.69409 2.803752,2.33846 -0.123078,-0.35563 -0.377924,-1.73356 -0.566338,-3.06204 -0.188414,-1.32849 -0.241555,-3.11077 -0.118086,-3.96061 0.123465,-0.84984 0.429386,-1.94921 0.679823,-2.44302 0.250435,-0.49382 0.942051,-1.3074 1.536927,-1.80795 0.594873,-0.50056 1.323359,-0.86355 1.618851,-0.80664 0.300943,0.0579 0.740975,0.77816 1.000393,1.63732 0.25472,0.84361 0.472091,2.60886 0.48305,3.92276 0.01393,1.6702 -0.203846,2.97506 -0.723843,4.3371 -0.413131,1.08211 -1.190361,2.32394 -1.748372,2.79348 -0.55253,0.46493 -1.004603,0.92057 -1.004603,1.01255 0,0.092 1.238042,1.10012 2.751204,2.24031 1.51316,1.1402 2.887483,2.0731 3.054057,2.0731 0.166569,0 0.0784,-0.5372 -0.195936,-1.19379 -0.274337,-0.65657 -0.59147,-2.30749 -0.704739,-3.6687 -0.126252,-1.51727 -0.04785,-3.05701 0.202608,-3.97926 0.224705,-0.82739 0.825073,-1.92087 1.334148,-2.42995 0.50908,-0.50908 0.867764,-1.0991 0.797074,-1.31117 -0.08332,-0.24998 0.433399,-0.38557 1.469393,-0.38557 0.878854,0 2.125313,0.25025 2.769905,0.55614 0.644594,0.30588 1.726841,1.18893 2.404991,1.96233 0.679335,0.77475 1.123262,1.09969 0.988612,0.72363 -0.134414,-0.3754 -0.40667,-1.38213 -0.605006,-2.23719 -0.333694,-1.43858 -0.442735,-1.55697 -1.460614,-1.58583 -0.604998,-0.0171 -1.622144,-0.29492 -2.260321,-0.61727 -0.638177,-0.32236 -1.596712,-0.99091 -2.13008,-1.48566 -0.533369,-0.49474 -1.262844,-1.46933 -1.621055,-2.16572 -0.358213,-0.69641 -0.651295,-1.65624 -0.651295,-2.13297 0,-0.47673 0.191966,-0.86592 0.426593,-0.86488 0.234626,0.001 1.013363,0.16485 1.730529,0.36399 0.717165,0.19914 1.917609,0.91649 2.667656,1.59412 0.750047,0.67762 1.66042,1.78081 2.023052,2.45153 0.531963,0.9839 0.630056,1.05467 0.507769,0.3663 -0.08336,-0.46925 -0.245038,-1.57526 -0.359283,-2.45781 -0.175401,-1.355 -0.389115,-1.71673 -1.373853,-2.32533 -0.641378,-0.39639 -1.766342,-1.40256 -2.499919,-2.23595 -0.73358,-0.83339 -1.486729,-2.11783 -1.673666,-2.85431 -0.186938,-0.73647 -0.264359,-1.73414 -0.172047,-2.21704 0.0923,-0.48289 0.281886,-0.87799 0.42128,-0.87799 0.139393,0 0.988287,0.64684 1.88643,1.43742 0.923728,0.8131 1.980735,2.18419 2.433637,3.1568 l 0.800647,1.71938 0.0034,-1.94609 c 0.0031,-1.88448 -0.05121,-2.00063 -1.720075,-3.66949 -0.947878,-0.94788 -2.019521,-2.37575 -2.381429,-3.17304 -0.36191,-0.79729 -0.661391,-2.10232 -0.665514,-2.90005 -0.0052,-1.01114 0.135517,-1.45041 0.464708,-1.45041 0.25971,0 1.042501,0.63125 1.739535,1.40278 0.697034,0.77153 1.616885,2.15726 2.044113,3.07938 l 0.776775,1.67659 0.153328,-3.84724 c 0.105833,-2.6554 0.326877,-4.17826 0.713538,-4.91575 0.308119,-0.58767 1.038233,-1.47072 1.622481,-1.96232 0.584245,-0.49162 1.268641,-0.89385 1.520878,-0.89385 0.252235,0 0.548554,0.42234 0.658486,0.93851 0.109935,0.51618 0.04945,1.84576 -0.134384,2.95463 -0.198782,1.19896 -0.709828,2.55806 -1.26088,3.35323 -0.509644,0.73542 -1.304316,1.63421 -1.76594,1.99733 -0.648973,0.51047 -0.874504,1.06576 -0.994454,2.44843 l -0.155134,1.78822 1.05415,-1.62564 c 0.579784,-0.89412 1.777369,-2.08431 2.661301,-2.64488 0.883936,-0.56058 1.807446,-1.01924 2.052249,-1.01924 0.244803,0 0.443596,0.26876 0.441763,0.59723 -0.0017,0.32849 -0.364871,1.37365 -0.80675,2.3226 -0.444851,0.95532 -1.467375,2.29366 -2.291117,2.99876 -0.818236,0.70038 -1.837362,1.36118 -2.264722,1.46844 -0.70331,0.17652 -0.776825,0.39386 -0.774919,2.29099 l 0.0021,2.09596 0.532677,-1.02158 c 0.292973,-0.56188 0.89765,-1.50009 1.343734,-2.08494 0.446081,-0.58485 1.342049,-1.31532 1.991038,-1.62329 0.648992,-0.30796 1.348742,-0.55994 1.555002,-0.55994 0.206258,0 0.375016,0.31207 0.375016,0.69351 0,0.38143 -0.213225,1.20383 -0.473836,1.82756 -0.260608,0.62372 -1.031455,1.69167 -1.712991,2.37321 -0.681536,0.68152 -1.738331,1.51003 -2.348432,1.84113 l -1.109276,0.60199 0.31855,2.55955 c 0.305243,2.45266 0.330344,2.50565 0.600951,1.26869 0.155324,-0.70998 0.531661,-1.78499 0.836307,-2.38892 0.304646,-0.60392 0.958696,-1.53409 1.453445,-2.06702 0.494749,-0.53294 1.324631,-1.191 1.844184,-1.46236 0.839689,-0.43855 0.967776,-0.43306 1.152929,0.0494 0.114565,0.29854 0.111185,1.2513 -0.0075,2.11726 -0.118692,0.86596 -0.602541,2.23438 -1.07522,3.04096 -0.472682,0.80656 -1.431896,1.88553 -2.131592,2.39771 -0.699691,0.51219 -1.388163,1.025 -1.529931,1.13959 -0.141769,0.11454 0.03898,1.04449 0.401661,2.06647 0.47967,1.35164 0.666212,1.6189 0.68435,0.98043 0.01372,-0.48274 0.274358,-1.60972 0.579205,-2.5044 0.304847,-0.89467 1.125722,-2.2274 1.824168,-2.96163 0.698446,-0.73421 1.521116,-1.33494 1.828155,-1.33494 0.316952,0 0.654765,0.38455 0.781539,0.88964 0.122807,0.48931 0.03369,1.73693 -0.198076,2.77249 -0.3445,1.5394 -0.757739,2.23014 -2.265464,3.78677 -1.287342,1.32911 -1.785737,2.08783 -1.650787,2.51302 0.106323,0.335 0.605903,1.34049 1.110174,2.2344 l 0.916849,1.62531 0.171596,-3.07148 c 0.135042,-2.41716 0.328835,-3.29218 0.909705,-4.10753 0.40596,-0.56984 1.134773,-1.24835 1.619585,-1.50781 0.484806,-0.25947 0.994854,-0.35836 1.13345,-0.21977 0.138595,0.13859 0.246427,1.4314 0.239655,2.87292 -0.009,1.80284 -0.195478,2.96569 -0.599126,3.72545 -0.322735,0.6075 -1.058973,1.64233 -1.636081,2.29961 l -1.049283,1.19507 1.018068,1.28378 c 0.559941,0.70608 1.328554,1.56404 1.708043,1.9066 0.684153,0.61756 0.687429,0.6118 0.387022,-0.68255 -0.166637,-0.71795 -0.306625,-2.02762 -0.311101,-2.91037 -0.0052,-0.88274 0.174401,-2.03454 0.397508,-2.55955 0.223107,-0.52502 0.789354,-1.3769 1.258308,-1.89308 0.468966,-0.51617 0.970282,-0.9385 1.114049,-0.9385 0.143755,0 0.421306,0.5759 0.616784,1.27977 0.195478,0.70389 0.356272,2.01419 0.357317,2.9118 0.001,0.89762 -0.236599,2.20299 -0.528107,2.90084 -0.291507,0.69785 -0.893806,1.65275 -1.338433,2.12201 l -0.808418,0.85318 1.518704,1.15639 c 0.835285,0.63602 1.598352,1.07675 1.695711,0.97939 0.09738,-0.0974 -0.0052,-1.16821 -0.228847,-2.37967 -0.223223,-1.21147 -0.306122,-2.73432 -0.18423,-3.38411 0.121891,-0.64978 0.676814,-1.71183 1.233116,-2.3601 0.843851,-0.98332 1.068183,-1.09383 1.353628,-0.66675 0.18819,0.28155 0.50863,1.30823 0.712092,2.28151 0.203462,0.97327 0.266626,2.32028 0.140349,2.99336 -0.126277,0.67307 -0.669758,1.87321 -1.207745,2.66697 l -0.978163,1.44321 1.938268,0.92781 c 1.06605,0.51028 1.99529,0.87077 2.06498,0.80108 0.0697,-0.0697 -0.22567,-0.87114 -0.65635,-1.78099 -0.50115,-1.05869 -0.780108,-2.2742 -0.774807,-3.37615 0.0052,-1.15789 0.226357,-2.02069 0.674087,-2.63416 0.36621,-0.50175 0.75772,-0.9171 0.87001,-0.92299 0.11235,-0.006 0.46875,0.64196 0.7921,1.43968 0.32336,0.79774 0.67254,2.30486 0.77596,3.34918 0.13934,1.40703 0.0382,2.18859 -0.39067,3.01788 -0.31829,0.61551 -0.52899,1.16556 -0.46822,1.22234 0.0607,0.0567 0.71797,0.2692 1.46045,0.47206 1.00667,0.27505 1.41273,0.26732 1.59672,-0.0303 0.1357,-0.21959 -0.13575,-1.05191 -0.60323,-1.84962 -0.49498,-0.84461 -0.85765,-2.00709 -0.86837,-2.78334 -0.0103,-0.73314 0.15837,-1.66326 0.3744,-2.06695 0.21604,-0.40367 0.53787,-0.73394 0.71517,-0.73394 0.1773,0 0.78474,0.80626 1.3499,1.79168 0.74261,1.29491 1.0284,2.23936 1.03072,3.40625 0.003,1.48289 0.0797,1.63132 0.9417,1.8202 0.51619,0.11313 1.13048,0.26478 1.36511,0.33707 0.23462,0.0722 0.42659,0.0294 0.42659,-0.0952 0,-0.12459 -0.38696,-0.63047 -0.85992,-1.12412 -0.47294,-0.49366 -0.98379,-1.34672 -1.1352,-1.89568 -0.15143,-0.54898 -0.18256,-1.37069 -0.0691,-1.82602 0.11338,-0.45534 0.38318,-0.88691 0.59959,-0.95903 0.2164,-0.0721 1.02836,0.44245 1.80437,1.1435 0.776,0.70107 1.64133,1.72027 1.92297,2.2649 0.28164,0.54463 0.62063,1.63119 0.75333,2.41457 0.22194,1.31028 0.33326,1.43318 1.39008,1.53481 0.63183,0.0608 1.5256,0.0159 1.98613,-0.0997 0.82493,-0.20705 0.81776,-0.22433 -0.48395,-1.1673 -0.72671,-0.52641 -1.68581,-1.64425 -2.13135,-2.48409 -0.5696,-1.07372 -0.74194,-1.79836 -0.58059,-2.44125 0.12628,-0.50285 0.45647,-0.91427 0.7339,-0.91427 0.27744,0 1.13028,0.56543 1.89523,1.25651 0.76494,0.69106 1.68682,1.83675 2.04863,2.54596 0.3618,0.7092 0.65783,1.68986 0.65783,2.17925 0,0.68469 0.13765,0.85056 0.59724,0.71965 0.32847,-0.0936 1.5065,-0.35062 2.61783,-0.57122 1.63951,-0.32543 2.31536,-0.68238 3.58339,-1.8926 1.38271,-1.31967 1.47394,-1.49245 0.79186,-1.49944 l -0.77091,-0.008 0.0884,-17.80779 0.0884,-17.80778 3.41274,-2.48461 c 1.87701,-1.36653 3.58344,-2.42686 3.79206,-2.35628 0.20861,0.0705 1.85554,1.17795 3.65985,2.4608 l 3.28055,2.33246 0.009,17.8316 c 0.008,16.13843 -0.0431,17.8316 -0.53841,17.8316 -0.40051,0 -0.24717,0.34318 0.57183,1.27978 0.82513,0.9436 1.63388,1.42755 3.0788,1.84229 1.07785,0.30937 2.59139,0.66921 3.36343,0.79964 0.77205,0.13045 1.38076,0.10771 1.3527,-0.0506 -0.028,-0.15825 -0.0328,-0.68374 -0.0103,-1.16773 0.0222,-0.484 0.49499,-1.55902 1.05058,-2.38894 0.55561,-0.8299 1.5456,-1.86861 2.2,-2.30823 0.65439,-0.43964 1.35161,-0.69933 1.54939,-0.5771 0.19776,0.12228 0.35957,0.76454 0.35957,1.42734 0,0.76851 -0.33757,1.67473 -0.93174,2.50133 -0.51245,0.71292 -1.46325,1.65889 -2.11289,2.10218 l -1.18116,0.80596 1.58936,0.10358 c 0.87415,0.057 1.90174,-0.0636 2.28354,-0.26796 0.4807,-0.25727 0.69416,-0.71456 0.69416,-1.48715 0,-0.64288 0.41632,-1.7721 0.98243,-2.66477 0.54034,-0.85203 1.51831,-1.88033 2.17326,-2.2851 0.65494,-0.40478 1.2809,-0.73596 1.39102,-0.73596 0.11015,0 0.29854,0.52414 0.41873,1.16479 0.12021,0.64063 0.1166,1.48611 -0.008,1.87884 -0.1246,0.39274 -0.63579,1.20032 -1.13586,1.79463 l -0.90925,1.08058 1.14612,-0.22923 c 0.6304,-0.12602 1.24213,-0.22922 1.35944,-0.22922 0.11725,0 0.2133,-0.74151 0.2133,-1.64782 0,-1.23621 0.25574,-2.06055 1.02383,-3.30013 0.5631,-0.90877 1.20126,-1.71093 1.41812,-1.78259 0.21685,-0.0717 0.57761,0.42516 0.80167,1.10408 0.23263,0.70488 0.30793,1.76452 0.17552,2.47025 -0.12756,0.67975 -0.68023,1.88759 -1.22826,2.68413 -0.54802,0.79653 -0.99642,1.5186 -0.99642,1.6046 0,0.086 0.92598,-0.0769 2.05773,-0.36197 2.03513,-0.51266 2.05207,-0.52696 1.54361,-1.30298 -0.28277,-0.43153 -0.60827,-1.3735 -0.72337,-2.09324 -0.14424,-0.90204 0.0208,-1.99634 0.53093,-3.5221 0.40711,-1.21741 0.87146,-2.34914 1.03188,-2.51498 0.16546,-0.17103 0.59634,0.19819 0.99565,0.85318 0.40682,0.66732 0.70109,1.73091 0.69714,2.51981 -0.004,0.7508 -0.37225,2.25378 -0.8189,3.33995 l -0.81207,1.97486 0.73486,-0.22695 c 0.40416,-0.12486 1.31075,-0.51752 2.01464,-0.87266 0.70387,-0.35512 1.27977,-0.7296 1.27977,-0.83216 0,-0.10254 -0.4106,-0.7248 -0.91247,-1.38278 -0.64554,-0.84634 -0.95679,-1.73077 -1.06397,-3.02323 -0.0833,-1.00481 0.0355,-2.60626 0.26396,-3.55877 0.22851,-0.95252 0.54006,-1.73184 0.69236,-1.73184 0.1523,0 0.67045,0.4677 1.15145,1.03934 0.481,0.57164 1.02415,1.60826 1.20699,2.3036 0.23534,0.89505 0.19817,1.96192 -0.12731,3.65318 -0.25285,1.31392 -0.42248,2.42884 -0.37696,2.47763 0.0455,0.0488 0.79889,-0.45811 1.67417,-1.12644 l 1.59142,-1.21513 -1.01257,-1.26249 c -0.57363,-0.71519 -1.17605,-2.02727 -1.38967,-3.02668 -0.27005,-1.26344 -0.27424,-2.32053 -0.0147,-3.72427 0.1993,-1.07803 0.44034,-2.03805 0.53564,-2.13337 0.0953,-0.0953 0.57123,0.19845 1.05757,0.6528 0.48635,0.45435 1.11757,1.27469 1.40271,1.82298 0.38806,0.7462 0.48221,1.75459 0.37438,4.00997 -0.0792,1.65721 -0.10525,3.0131 -0.0577,3.0131 0.0475,0 0.78698,-0.86008 1.64328,-1.9113 l 1.55694,-1.91129 -0.82573,-0.64952 c -0.45415,-0.35722 -1.22311,-1.44697 -1.70882,-2.42164 -0.68268,-1.36998 -0.8819,-2.27969 -0.87786,-4.00873 0.003,-1.23013 0.14416,-2.45616 0.31399,-2.72452 0.25512,-0.40312 0.51576,-0.33002 1.50005,0.42073 0.70901,0.5408 1.43046,1.53497 1.78214,2.45581 0.46137,1.20809 0.54182,2.08819 0.36708,4.01584 l -0.22377,2.46868 0.73834,-1.19444 c 0.4061,-0.65697 1.01094,-1.79957 1.34411,-2.53911 l 0.60575,-1.34466 -1.4815,-1.30407 c -0.81482,-0.71725 -1.80151,-1.96513 -2.19263,-2.77309 -0.46497,-0.96049 -0.71114,-2.1405 -0.71114,-3.4089 0,-1.58526 0.10422,-1.93989 0.57042,-1.93989 0.31373,0 1.19902,0.65606 1.96734,1.45791 0.81405,0.84959 1.58795,2.09558 1.85475,2.98615 0.2518,0.84054 0.56741,1.82458 0.70134,2.18676 0.19164,0.51823 0.34162,0.30813 0.70396,-0.986 0.45983,-1.64238 0.45914,-1.64549 -0.53571,-2.35548 -0.54789,-0.39101 -1.42704,-1.16289 -1.95367,-1.71529 -0.52662,-0.55239 -1.17931,-1.53523 -1.45041,-2.18408 -0.27111,-0.64883 -0.49292,-1.92882 -0.49292,-2.8444 0,-1.12335 0.14178,-1.66469 0.43598,-1.66469 0.23979,0 0.81569,0.26402 1.27977,0.58673 0.46411,0.32271 1.12118,0.89859 1.46018,1.27977 0.33901,0.38117 0.91153,1.30735 1.27229,2.05815 0.36075,0.75081 0.65929,1.74135 0.6634,2.20123 0.005,0.52099 0.12731,0.71392 0.32538,0.5119 0.17484,-0.17831 0.42213,-1.25839 0.54955,-2.40017 0.23,-2.06112 0.22447,-2.07896 -0.7727,-2.49201 -0.55241,-0.22882 -1.5911,-0.98393 -2.30819,-1.67805 -0.7171,-0.6941 -1.58406,-1.8763 -1.9266,-2.62711 -0.34253,-0.7508 -0.62617,-1.6505 -0.63029,-1.99933 -0.006,-0.522 0.15857,-0.59278 0.93101,-0.40001 0.51618,0.12886 1.44002,0.61583 2.05299,1.08226 0.61298,0.46644 1.57137,1.64467 2.12977,2.61831 l 1.01528,1.77023 0.003,-2.12836 c 0.003,-2.10598 -0.009,-2.1336 -1.17677,-2.62142 -0.64898,-0.27117 -1.86935,-1.1824 -2.71193,-2.02497 -1.01854,-1.01856 -1.69684,-2.08435 -2.02399,-3.18026 -0.27064,-0.90658 -0.37392,-1.77594 -0.22952,-1.93192 0.14439,-0.15599 0.87125,0.0269 1.61524,0.40648 0.74398,0.37955 1.85581,1.26312 2.47072,1.96346 0.61492,0.70035 1.32693,1.74602 1.58227,2.32372 0.43768,0.99021 0.4521,0.93311 0.25206,-0.99731 -0.19126,-1.84587 -0.37257,-2.21899 -1.83991,-3.78653 -0.93988,-1.00406 -1.78409,-2.30202 -1.99773,-3.07147 -0.2035,-0.73292 -0.37085,-2.21564 -0.37189,-3.29492 -0.001,-1.51594 0.11428,-1.96233 0.50901,-1.96233 0.28101,0 1.11711,0.54764 1.85798,1.21698 0.74088,0.66933 1.53382,1.78273 1.7621,2.47424 0.22826,0.69149 0.44725,2.48585 0.48663,3.98747 0.0393,1.5016 0.0949,2.96055 0.12344,3.2421 0.0285,0.28155 0.34397,-0.1316 0.70105,-0.91813 0.35709,-0.78653 1.29471,-2.1303 2.08361,-2.98616 0.78892,-0.85586 1.66658,-1.5561 1.95036,-1.5561 0.41765,0 0.47801,0.32072 0.31666,1.68303 -0.10964,0.92567 -0.50565,2.28348 -0.88005,3.01735 -0.37439,0.73387 -1.4195,2.06265 -2.32245,2.95285 -1.61658,1.59372 -1.64183,1.65171 -1.64841,3.78463 l -0.006,2.16611 0.60341,-1.61756 c 0.33187,-0.88965 1.09068,-2.11594 1.68624,-2.7251 0.59555,-0.60915 1.51787,-1.41732 2.04957,-1.79592 0.86372,-0.61503 0.98931,-0.62952 1.17871,-0.13595 0.11661,0.30382 0.13116,1.15506 0.0324,1.89165 -0.0988,0.73658 -0.52215,1.89344 -0.94077,2.5708 -0.41863,0.67736 -1.50469,1.81929 -2.41347,2.53763 -0.90877,0.71833 -1.78809,1.35866 -1.95403,1.4229 -0.16593,0.0642 -0.40583,1.11507 -0.5331,2.33512 l -0.2314,2.2183 0.85096,-1.39417 c 0.46803,-0.76678 1.46155,-1.81731 2.20785,-2.33449 0.7463,-0.51718 1.88889,-1.06031 2.53911,-1.20697 0.6502,-0.14664 1.36028,-0.15656 1.57792,-0.022 0.24781,0.15315 0.30816,0.61517 0.16147,1.23603 -0.12886,0.5453 -0.5306,1.48471 -0.89279,2.08759 -0.36218,0.6029 -1.24569,1.56122 -1.96336,2.12962 -0.71768,0.5684 -2.1176,1.24145 -3.11095,1.49567 l -1.8061,0.46222 -0.55467,2.01538 -0.55466,2.01538 1.76198,-1.76751 c 1.19484,-1.1986 2.147,-1.83975 2.95816,-1.99193 0.65791,-0.12344 1.56184,-0.1727 2.00876,-0.10951 0.44691,0.0632 0.81693,0.34528 0.82226,0.62683 0.005,0.28155 0.38467,1.27977 0.843,2.21829 0.68184,1.39622 0.8232,2.17159 0.77771,4.26593 -0.0306,1.40776 -0.27972,3.28903 -0.55364,4.18062 -0.27392,0.89158 -0.42556,1.62105 -0.33698,1.62105 0.0886,0 0.80914,-0.44589 1.60121,-0.99085 0.79209,-0.54497 2.07748,-1.52332 2.85645,-2.17413 l 1.41631,-1.18329 -0.9895,-0.94798 c -0.54422,-0.5214 -1.3305,-1.65468 -1.7473,-2.5184 -0.61081,-1.26577 -0.75759,-2.16621 -0.75672,-4.64187 6.9e-4,-2.0816 0.17993,-3.48393 0.55598,-4.35126 0.3052,-0.70389 0.73099,-1.27978 0.94623,-1.27978 0.21523,0 0.85525,0.33034 1.42227,0.73411 0.56702,0.40375 1.31684,1.36358 1.66625,2.13296 0.43901,0.96666 0.63508,2.18969 0.63464,3.95843 -3.5e-4,1.40775 -0.13286,3.09706 -0.29445,3.75401 -0.16159,0.65696 -0.40945,1.50161 -0.55079,1.87702 -0.14136,0.3754 1.0034,-0.54604 2.54389,-2.04765 1.54049,-1.5016 2.94138,-2.98429 3.11307,-3.29485 0.24718,-0.44707 -0.0424,-0.83515 -1.3909,-1.86345 -0.9367,-0.71433 -2.07349,-1.85851 -2.52621,-2.54263 -0.45272,-0.6841 -1.06606,-2.06185 -1.36296,-3.06166 -0.29678,-0.99982 -0.5397,-2.6239 -0.5397,-3.60907 v -1.79125 l 1.02776,0.29476 c 0.56528,0.16212 1.48158,0.65051 2.03625,1.08532 0.55466,0.43481 1.47433,1.69813 2.04371,2.80739 0.79634,1.55144 1.04307,2.49644 1.06924,4.0953 0.0187,1.14315 0.13869,2.45338 0.26661,2.91163 0.21522,0.77086 0.39373,0.61935 2.38685,-2.02572 l 2.15424,-2.85889 -1.67585,-0.87512 c -0.92173,-0.48132 -1.99042,-1.10548 -2.37488,-1.38704 -0.38446,-0.28155 -1.16379,-1.20299 -1.73184,-2.04764 -0.56806,-0.84465 -1.50587,-2.8795 -2.08404,-4.52189 l -1.05121,-2.98615 1.09954,0.005 c 0.60476,0.003 1.71008,0.3514 2.45629,0.77403 0.74619,0.42264 1.91014,1.56055 2.58651,2.5287 0.80335,1.14988 1.49784,2.77492 2.00278,4.68635 0.42515,1.60934 0.89501,2.92608 1.04416,2.92608 0.14913,0 0.88483,-1.19019 1.63487,-2.64488 0.75004,-1.45467 1.46859,-2.9904 1.59677,-3.41273 0.1989,-0.65537 0.10654,-0.76788 -0.63033,-0.76788 -0.47486,0 -1.74744,-0.33075 -2.82795,-0.73502 -1.3282,-0.49694 -2.52784,-1.2984 -3.70355,-2.47424 -0.98761,-0.98773 -2.19824,-2.69771 -2.80182,-3.95751 -0.58455,-1.22005 -1.16087,-2.56382 -1.28072,-2.98614 -0.19075,-0.67214 -0.0922,-0.76787 0.78971,-0.76787 0.5542,0 1.80798,0.25848 2.78618,0.5744 1.10955,0.35835 2.32248,1.10305 3.22462,1.97983 0.79534,0.77297 2.20105,2.81658 3.1238,4.54135 0.92277,1.72476 1.75645,3.13745 1.85265,3.1393 0.0962,0.001 0.44372,-0.95647 0.77228,-2.12961 0.32856,-1.17312 0.6899,-2.6247 0.803,-3.22573 0.1871,-0.99445 0.11763,-1.11068 -0.77229,-1.29206 -0.53785,-0.10964 -1.76405,-0.42564 -2.7249,-0.70229 -0.96086,-0.27663 -2.44018,-1.03226 -3.28741,-1.67916 -0.84722,-0.6469 -2.07698,-1.91237 -2.73282,-2.81216 -0.65584,-0.89979 -1.5953,-2.43715 -2.08767,-3.41633 -0.49239,-0.97919 -0.89524,-1.86224 -0.89524,-1.96234 0,-0.10009 0.80626,-0.18047 1.79169,-0.17864 1.172,0.003 2.38187,0.28316 3.49806,0.81239 0.9385,0.44499 2.25319,1.40333 2.92153,2.12964 0.66833,0.72631 1.60127,1.85808 2.0732,2.51503 0.47193,0.65695 1.23049,1.86641 1.68569,2.68768 l 0.82762,1.49323 0.21559,-0.98131 c 0.11854,-0.53972 0.23375,-2.38418 0.25595,-4.09878 l 0.0404,-3.11748 -1.95634,-0.24443 c -1.07597,-0.13443 -2.76561,-0.54722 -3.75474,-0.9173 -0.98911,-0.37007 -2.57717,-1.28845 -3.52899,-2.04084 -0.97154,-0.76794 -2.47675,-2.51092 -3.43173,-3.97381 -1.5151,-2.3209 -1.63366,-2.63247 -1.08421,-2.8492 0.33931,-0.13383 1.31905,-0.25414 2.17719,-0.26733 0.85815,-0.0132 2.27529,0.21965 3.14922,0.51742 1.0004,0.34088 2.2554,1.19831 3.38822,2.31489 0.98959,0.9754 2.47298,2.80958 3.2964,4.07596 0.82342,1.26637 1.53459,2.25953 1.58038,2.20702 0.0458,-0.0525 -0.0543,-1.10179 -0.22256,-2.33173 -0.16821,-1.22991 -0.57224,-3.27352 -0.89785,-4.54134 l -0.592,-2.3051 -3.07148,-0.1059 c -1.68931,-0.0583 -3.63686,-0.28421 -4.32792,-0.50206 -0.69104,-0.21786 -1.99641,-0.9045 -2.90082,-1.52588 -0.90443,-0.62136 -2.32438,-2.00263 -3.15546,-3.06949 -1.19536,-1.53447 -1.42334,-2.02725 -1.09121,-2.358701 0.26014,-0.259584 1.41918,-0.416843 3.0468,-0.413386 2.29168,0.0052 2.91979,0.151842 4.92149,1.151527 1.262,0.63028 3.07741,1.89656 4.03425,2.81397 0.95684,0.91741 1.65342,1.39744 1.54793,1.06675 -0.10551,-0.3307 -0.62782,-1.73533 -1.16074,-3.12138 l -0.96895,-2.520105 -3.89735,-0.03947 c -3.52996,-0.03573 -4.07998,-0.129141 -5.83495,-0.990959 -1.19325,-0.585969 -2.66819,-1.740611 -3.83934,-3.0056 -1.04596,-1.12976 -1.90173,-2.192989 -1.90173,-2.36276 0,-0.169771 0.65269,-0.485245 1.45042,-0.701051 0.79773,-0.215806 2.33993,-0.312493 3.42713,-0.214851 1.26623,0.113765 2.86086,0.603202 4.43658,1.361818 1.35292,0.651352 3.03576,1.722669 3.73963,2.38069 0.70388,0.658021 1.27978,1.131179 1.27978,1.051466 0,-0.07971 -0.32378,-0.791521 -0.71949,-1.581765 -0.39572,-0.790257 -1.35393,-2.475778 -2.12935,-3.745591 -1.00662,-1.648439 -1.55731,-2.250003 -1.92538,-2.103294 -0.28355,0.112991 -1.39908,0.372897 -2.47897,0.57752 -1.41469,0.268059 -2.63258,0.268458 -4.35764,0.0013 -1.31681,-0.203836 -3.04402,-0.705513 -3.83824,-1.114849 -0.79422,-0.409336 -1.86636,-1.143162 -2.38253,-1.630715 -0.51618,-0.487553 -0.93852,-0.994622 -0.93852,-1.126833 0,-0.132197 0.61741,-0.487398 1.37201,-0.789328 0.75461,-0.30193 2.29519,-0.548976 3.42352,-0.548976 1.17533,0 2.95202,0.303362 4.15999,0.710299 1.15967,0.390672 2.537,1.015414 3.06072,1.388338 0.52372,0.372923 0.95221,0.591567 0.95221,0.485863 0,-0.105639 -0.94793,-1.432502 -2.10653,-2.948472 -1.72978,-2.263351 -2.23332,-2.719793 -2.81551,-2.552099 -0.38994,0.112347 -1.5395,0.36592 -2.55457,0.563565 -1.02564,0.199721 -2.76922,0.254179 -3.92465,0.122536 -1.14351,-0.130237 -2.78462,-0.50258 -3.64694,-0.82743 -0.86231,-0.324851 -2.28287,-1.082591 -3.15678,-1.68387 -0.87393,-0.60119 -1.58895,-1.308909 -1.58895,-1.57262 0,-0.263712 0.57589,-0.645471 1.27977,-0.848352 0.70389,-0.202882 2.00479,-0.461318 2.89089,-0.574309 0.88612,-0.112992 2.57542,-0.01844 3.75403,0.210195 1.17859,0.228601 2.94908,0.848932 3.93439,1.378522 l 1.79147,0.962878 -0.65458,-0.905557 c -0.36003,-0.498065 -1.3637,-1.595669 -2.2304,-2.439133 -1.53869,-1.49746 -1.65131,-1.543056 -4.78293,-1.936334 -1.76393,-0.221533 -3.87002,-0.698406 -4.68021,-1.059721 -0.8102,-0.361328 -2.27159,-1.378522 -3.24756,-2.260436 -0.97596,-0.881914 -2.34354,-2.378703 -3.03906,-3.326181 -1.01539,-1.383243 -1.1701,-1.78159 -0.78507,-2.021542 0.26372,-0.164353 1.13116,-0.397392 1.92764,-0.517839 0.79647,-0.120473 2.01791,-0.112088 2.71432,0.01857 0.6964,0.13065 1.87636,0.548821 2.62211,0.929278 0.74577,0.380469 2.19203,1.481053 3.21392,2.44575 1.02187,0.96471 2.51933,2.675448 3.32767,3.801661 0.80836,1.1262 2.10363,2.661943 2.8784,3.412743 l 1.40868,1.365095 -0.90806,-1.986484 c -0.49945,-1.092573 -1.02899,-2.961473 -1.17677,-4.153108 -0.14778,-1.191622 -0.14774,-3.268511 1.1e-4,-4.615316 0.14784,-1.346792 0.43654,-2.61645 0.64153,-2.821447 0.26945,-0.269464 0.60159,-0.157737 1.19871,0.403235 0.45428,0.426775 1.32765,1.7172 1.94081,2.867598 1.00143,1.878871 1.12844,2.439985 1.24868,5.516037 0.0905,2.318312 -0.0271,4.020227 -0.36431,5.26908 l -0.49817,1.844702 1.75692,2.07996 c 0.9663,1.143987 2.11432,2.540696 2.55118,3.103796 0.50396,0.649611 0.70401,0.774353 0.54731,0.341271 -0.13582,-0.3754 -0.54944,-1.527204 -0.91916,-2.559555 -0.43137,-1.204533 -0.6787,-2.794037 -0.69032,-4.43658 -0.0103,-1.458364 0.23042,-3.403805 0.55957,-4.521892 0.34285,-1.164676 0.76954,-1.962324 1.04971,-1.962324 0.25962,0 0.89391,0.49911 1.40954,1.109148 0.51562,0.610025 1.25216,1.800215 1.63674,2.644879 0.52384,1.150488 0.70292,2.263415 0.7139,4.436567 0.008,1.595463 -0.20123,3.668703 -0.46507,4.607203 -0.26384,0.938513 -0.68427,2.117404 -0.93429,2.619777 -0.43073,0.865495 -0.33769,1.088202 1.77411,4.246805 2.19917,3.289266 2.2251,3.313322 1.95811,1.816803 -0.14881,-0.834138 -0.25084,-2.680853 -0.22673,-4.103824 0.0307,-1.810315 0.25921,-3.074091 0.76104,-4.208547 0.39445,-0.89173 1.12326,-2.107872 1.61958,-2.702547 0.49631,-0.594663 1.12473,-1.210196 1.39647,-1.367855 0.31759,-0.184257 0.72408,-0.07842 1.13799,0.296099 0.35415,0.320504 0.89894,1.35052 1.21063,2.288929 0.40885,1.230924 0.52593,2.479351 0.42031,4.481752 -0.10925,2.07213 -0.38133,3.288246 -1.07339,4.798502 -0.50984,1.112619 -1.54823,2.596458 -2.3075,3.297418 l -1.38052,1.274482 0.61189,1.13915 c 0.33654,0.626536 1.09972,2.290955 1.69596,3.698721 l 1.08408,2.55955 0.0342,-3.00978 c 0.0188,-1.655362 0.13294,-3.421461 0.25375,-3.92466 0.12073,-0.503173 0.49387,-1.462866 0.82904,-2.132611 0.33517,-0.669759 1.21785,-1.76744 1.9615,-2.439275 0.74364,-0.671848 1.68778,-1.328076 2.09808,-1.4583 0.41029,-0.130224 0.84944,-0.13332 0.97588,-0.0064 0.12641,0.126406 0.23005,2.032196 0.23024,4.23504 l 3.4e-4,4.005149 -1.44867,2.926007 c -0.81924,1.65469 -1.96182,3.37655 -2.62972,3.96297 l -1.18104,1.03696 0.66738,2.40835 c 0.36707,1.32459 0.66739,2.71743 0.66739,3.09522 0,0.37777 0.15358,0.68686 0.34128,0.68686 0.1877,0 0.34127,-0.52132 0.34127,-1.15851 0,-0.63718 0.32232,-2.21131 0.71627,-3.49807 0.39395,-1.28675 1.12172,-2.87705 1.61726,-3.53401 0.49555,-0.65695 1.28664,-1.53735 1.75797,-1.95642 0.47134,-0.41908 1.50546,-1.08343 2.29805,-1.47633 0.79259,-0.39292 1.59885,-0.61688 1.79169,-0.49768 0.19285,0.11918 0.34797,0.9371 0.3447,1.8176 -0.004,0.88051 -0.22657,2.64221 -0.49626,3.9149 -0.26968,1.27269 -0.89897,3.0648 -1.39843,3.98247 -0.49947,0.91768 -1.7546,2.51498 -2.78916,3.54955 -1.03459,1.03458 -2.28389,2.04798 -2.77626,2.25202 l -0.89519,0.37098 v 4.37865 4.37865 l 1.08368,-3.03555 c 0.59603,-1.66956 1.56755,-3.78961 2.15895,-4.71123 0.5914,-0.9216 1.78611,-2.14649 2.6549,-2.72196 0.8688,-0.57545 2.34393,-1.27327 3.27807,-1.55067 0.93414,-0.27741 1.96865,-0.50439 2.2989,-0.50439 0.33026,0 0.68366,0.13462 0.78536,0.29916 0.10164,0.16454 -0.0601,1.12438 -0.35951,2.13297 -0.29942,1.00859 -0.97499,2.67846 -1.50128,3.71081 -0.5263,1.03237 -1.69923,2.58305 -2.60652,3.44596 -0.90728,0.86293 -2.24734,1.92557 -2.97789,2.36142 -0.73055,0.43586 -2.18399,1.14026 -3.22984,1.56532 l -1.90158,0.77286 -0.4192,2.48796 c -0.23057,1.3684 -0.37268,2.53451 -0.31581,2.59138 0.0569,0.0569 0.50379,-0.42155 0.99317,-1.06314 0.48937,-0.64161 1.85455,-1.89645 3.03374,-2.78853 1.17919,-0.89209 2.7912,-1.91183 3.58223,-2.26609 0.79105,-0.35425 2.24999,-0.66276 3.24211,-0.68559 0.99212,-0.0228 2.30298,0.0709 2.913,0.20833 0.61003,0.13743 1.10915,0.44581 1.10915,0.68529 0,0.2395 -0.93227,1.45285 -2.07169,2.69632 -1.5253,1.6646 -2.72388,2.58322 -4.54456,3.48304 -1.36007,0.6722 -3.30732,1.33298 -4.32721,1.46841 -1.01989,0.13544 -2.44357,0.14803 -3.16374,0.028 -1.18465,-0.19747 -1.34391,-0.13354 -1.67196,0.67134 -0.19941,0.48926 -0.79232,1.84942 -1.31756,3.02254 -0.52525,1.17313 -0.87004,2.13296 -0.76623,2.13296 0.10383,0 0.67165,-0.40749 1.26185,-0.90553 0.5902,-0.49804 2.11532,-1.40583 3.38913,-2.01732 1.27382,-0.61148 3.08072,-1.21697 4.01532,-1.3455 1.00496,-0.13822 2.40247,-0.065 3.42027,0.17914 0.94655,0.22707 2.18204,0.80081 2.74554,1.27496 l 1.02454,0.86208 -1.03369,1.06649 -1.03368,1.06651 0.69636,2.21319 c 0.52389,1.66504 0.66914,2.90636 0.58642,5.0118 -0.0605,1.53924 -0.024,2.69105 0.0813,2.55957 0.10512,-0.13148 0.77531,-1.51165 1.4892,-3.06705 l 1.298,-2.828 -0.80444,-2.46176 c -0.54258,-1.66036 -0.80086,-3.23945 -0.79341,-4.85067 0.009,-1.91394 0.22962,-2.90119 1.11032,-4.96542 0.60461,-1.41708 1.53122,-3.09391 2.05916,-3.72629 0.627,-0.75104 1.11139,-1.05612 1.39678,-0.87974 0.24032,0.14852 0.80357,1.05747 1.25171,2.01991 0.58466,1.25567 0.81572,2.35537 0.8181,3.89385 0.003,1.5756 -0.27094,2.85523 -1.0313,4.82688 -0.56906,1.47561 -1.4848,3.30434 -2.03498,4.06385 -0.55019,0.75951 -1.4631,2.4015 -2.02868,3.64885 l -1.02833,2.26793 2.01234,-1.86306 c 1.37858,-1.27632 2.82318,-2.20062 4.58705,-2.93492 1.41611,-0.58952 3.27121,-1.16732 4.12246,-1.284 1.38287,-0.18955 1.54773,-0.14073 1.54773,0.45828 0,0.36875 -0.47629,1.38949 -1.05842,2.26834 -0.58212,0.87885 -1.61592,2.05746 -2.29733,2.61912 -0.6814,0.56167 -2.38076,1.49659 -3.77636,2.07756 -1.39559,0.581 -3.47643,1.21194 -4.62408,1.40212 l -2.08664,0.34577 -1.69577,3.11713 c -0.93269,1.71443 -1.75803,3.27143 -1.8341,3.46001 -0.0761,0.18856 0.38465,-0.17542 1.02382,-0.80888 0.63919,-0.63345 1.94259,-1.65828 2.89647,-2.27739 0.95388,-0.61912 2.5664,-1.35576 3.58339,-1.63697 1.01699,-0.28122 2.57967,-0.60974 3.47266,-0.73006 1.25775,-0.16945 1.66683,-0.10603 1.8155,0.28138 0.10551,0.27506 -0.11184,1.0909 -0.4832,1.81299 -0.37131,0.72207 -1.11149,1.71048 -1.64486,2.19646 -0.53337,0.48598 -1.43666,1.20297 -2.0073,1.59331 -0.57065,0.39033 -1.95281,1.01667 -3.07148,1.39186 -1.11867,0.37518 -3.26252,0.78852 -4.76414,0.91855 l -2.73019,0.23642 -2.31324,3.2441 c -2.06322,2.89346 -2.19232,3.16344 -1.19446,2.49779 0.61533,-0.41046 1.96343,-1.1401 2.99578,-1.62144 1.23451,-0.57558 2.69476,-0.93072 4.26594,-1.03751 1.31391,-0.0893 3.02707,0.0103 3.80704,0.22119 0.77996,0.21095 1.7667,0.66582 2.19277,1.01082 l 0.77465,0.62728 -1.56304,1.56304 c -0.85968,0.85968 -2.15357,1.85992 -2.87532,2.22277 -0.72174,0.36285 -2.13561,0.85358 -3.1419,1.09049 -1.02384,0.24103 -2.84375,0.35818 -4.13224,0.26599 -1.53365,-0.10977 -2.77335,-0.42933 -3.71226,-0.95702 -0.77532,-0.43576 -1.44978,-0.72208 -1.4988,-0.63628 -0.049,0.0858 -1.31363,1.41801 -2.81023,2.96043 l -2.72108,2.80441 2.46457,-1.0355 c 1.42012,-0.59667 3.3687,-1.11464 4.59808,-1.22224 1.50391,-0.13163 2.57983,-0.0251 3.64585,0.36076 0.83176,0.30112 2.02195,0.93623 2.64488,1.41135 0.62291,0.47513 1.13257,0.97418 1.13257,1.10899 0,0.13483 -0.88305,0.72871 -1.96233,1.31973 -1.07929,0.59103 -2.90594,1.31755 -4.05924,1.61452 -1.1533,0.29695 -2.78326,0.53991 -3.62212,0.53991 -0.83887,0 -2.32538,-0.15174 -3.30337,-0.33722 -0.97797,-0.18547 -2.3137,-0.59135 -2.96825,-0.90196 -1.15367,-0.54746 -1.22341,-0.54 -2.27841,0.24359 -0.59856,0.44458 -1.85617,1.32552 -2.79467,1.95764 -0.93852,0.63212 -1.75989,1.20128 -1.82529,1.26479 -0.0654,0.0636 0.62568,-0.12279 1.53574,-0.41391 0.92094,-0.29467 3.01659,-0.54917 4.72611,-0.57395 2.46867,-0.0357 3.37628,0.0965 4.62456,0.67409 0.85419,0.39523 2.12117,1.21741 2.81551,1.82705 0.69434,0.60964 1.26245,1.31185 1.26245,1.56047 0,0.24863 -0.84098,0.76669 -1.86881,1.15125 -1.02785,0.38457 -2.8683,0.85889 -4.08988,1.05403 -1.7255,0.27565 -2.74686,0.24519 -4.57754,-0.13652 -1.29606,-0.27024 -3.02621,-0.8272 -3.84477,-1.23769 -0.81855,-0.4105 -1.89481,-1.12698 -2.39166,-1.59219 l -0.90339,-0.84584 -2.26205,1.047 c -1.24412,0.57585 -3.10282,1.29142 -4.13042,1.59015 -1.02761,0.29873 -1.86839,0.57065 -1.86841,0.60425 -4e-5,0.0337 1.95803,0.0617 4.35124,0.0624 3.83615,0.001 4.56196,0.0964 6.13063,0.80457 0.99622,0.44975 2.46123,1.53229 3.32871,2.45968 0.85215,0.91104 1.72892,2.05049 1.94838,2.53212 0.26361,0.57857 0.28422,0.99047 0.0608,1.21394 -0.18603,0.18604 -1.79416,0.34613 -3.57364,0.35578 -1.77946,0.009 -3.68866,-0.0921 -4.24264,-0.22598 -0.55399,-0.13394 -1.88916,-0.68377 -2.96703,-1.22185 -1.07787,-0.53807 -3.038,-1.99547 -4.35583,-3.23865 l -2.39607,-2.26032 -1.95775,0.38034 c -1.07676,0.20918 -2.26489,0.44382 -2.64029,0.5214 -0.61389,0.12692 -0.59689,0.16807 0.1691,0.40958 0.46841,0.14769 2.03734,0.86199 3.48654,1.58733 1.4492,0.72535 3.30881,1.99272 4.13249,2.8164 0.82366,0.82367 1.77616,2.08371 2.11664,2.80009 0.3405,0.71638 0.68867,2.02301 0.77374,2.90362 l 0.15465,1.60111 -1.69366,-0.44676 c -0.93151,-0.24573 -2.52432,-0.86083 -3.53958,-1.36689 -1.01524,-0.50605 -2.66955,-1.71658 -3.67623,-2.69006 -1.06252,-1.02749 -2.24349,-2.62895 -2.81524,-3.81763 -0.54171,-1.1262 -0.98504,-2.39319 -0.9852,-2.81552 -2.5e-4,-0.74371 -0.10473,-0.76786 -3.32313,-0.76786 h -3.32288 l 1.70182,1.14844 c 0.936,0.63164 2.33926,1.76847 3.11836,2.5263 0.7791,0.75783 1.85412,2.12232 2.38892,3.03218 0.82569,1.40475 0.97239,2.02486 0.97239,4.11061 0,1.40895 -0.16894,2.62559 -0.3962,2.85336 -0.30113,0.3018 -0.81854,0.16719 -2.15661,-0.56108 -0.96823,-0.52698 -2.65332,-1.91264 -3.74461,-3.07924 -1.0913,-1.16661 -2.42205,-3.01606 -2.95721,-4.10989 -0.74901,-1.53091 -0.97424,-2.47746 -0.97832,-4.11136 l -0.005,-2.12256 -1.70637,-0.38835 c -0.93852,-0.21358 -2.76259,-0.69295 -4.05352,-1.06526 -1.29092,-0.37229 -2.5963,-0.76224 -2.90083,-0.86654 -0.30453,-0.10435 0.17675,0.30709 1.06951,0.9142 0.89278,0.6071 2.17316,1.74139 2.84531,2.52064 0.67216,0.77926 1.49981,1.95521 1.83925,2.61321 0.33943,0.65801 0.78986,1.83779 1.00094,2.62173 0.25862,0.96043 0.27905,1.89163 0.0627,2.85484 -0.17665,0.78622 -0.47675,1.58505 -0.66688,1.77519 -0.23342,0.23342 -0.83026,0.0617 -1.83756,-0.52859 -0.82052,-0.48086 -2.13133,-1.49487 -2.91291,-2.25337 -0.78158,-0.7585 -1.96124,-2.19266 -2.62145,-3.18703 -0.6901,-1.03937 -1.3619,-2.61205 -1.58029,-3.69946 -0.27551,-1.37187 -0.27774,-2.26097 -0.008,-3.23643 0.20446,-0.73971 0.25817,-1.38411 0.11932,-1.432 -0.13882,-0.0479 -1.72306,-0.75026 -3.52057,-1.56083 l -3.26816,-1.47378 1.56858,2.07275 c 0.86274,1.14002 1.91727,2.88349 2.34344,3.87441 0.42617,0.99091 0.85559,2.75701 0.95426,3.92465 0.14832,1.75508 0.0581,2.31523 -0.52066,3.23215 -0.38505,0.61004 -0.84994,1.10915 -1.03309,1.10915 -0.18314,0 -0.66498,-0.34554 -1.07076,-0.76787 -0.40576,-0.42232 -1.2477,-1.55315 -1.87097,-2.51295 -0.62326,-0.95979 -1.44906,-2.68266 -1.83508,-3.82858 -0.38607,-1.14591 -0.70192,-2.78435 -0.70192,-3.64094 0,-0.85661 0.23238,-2.11363 0.5164,-2.79337 0.28401,-0.67974 0.47598,-1.26178 0.42659,-1.2934 -0.0494,-0.0316 -0.85766,-0.48925 -1.79616,-1.01693 -0.93852,-0.52766 -2.54189,-1.58028 -3.56307,-2.33914 l -1.85668,-1.37974 0.78894,1.27655 c 0.43392,0.70211 1.13689,1.9978 1.56214,2.8793 0.42526,0.88151 0.94328,2.21541 1.15115,2.96419 0.20789,0.7488 0.37882,2.06677 0.37986,2.92883 10e-4,0.98682 -0.2927,2.1245 -0.79348,3.07147 -0.51558,0.97501 -1.02458,1.50411 -1.44693,1.50411 -0.42583,0 -1.04153,-0.65031 -1.77712,-1.87702 -0.61905,-1.03236 -1.44384,-2.92022 -1.83285,-4.19525 -0.5113,-1.6758 -0.67004,-2.95256 -0.57287,-4.60721 0.0739,-1.25893 0.40469,-2.82501 0.73501,-3.48016 l 0.60058,-1.1912 -3.3422,-3.27719 c -1.83821,-1.80245 -4.07783,-4.06913 -4.97694,-5.03706 l -1.63473,-1.75989 h -2.81898 -2.81898 l -5.10198,5.0338 -5.10199,5.03381 0.67934,1.3651 c 0.49521,0.99511 0.6802,2.05882 0.68255,3.92466 0.003,1.9676 -0.21939,3.16452 -0.95932,5.17536 -0.52938,1.43869 -1.46913,3.20188 -2.08833,3.91817 -1.02511,1.18588 -1.18031,1.25716 -1.73522,0.79694 -0.33518,-0.27798 -0.82406,-1.01894 -1.0864,-1.64657 -0.26236,-0.62763 -0.48116,-2.0098 -0.48622,-3.07147 -0.005,-1.14084 0.28118,-2.70642 0.7008,-3.8279 0.3905,-1.04366 1.22896,-2.75939 1.86325,-3.81272 l 1.15325,-1.91516 -2.65645,1.76508 c -1.46105,0.97079 -3.13792,2.03012 -3.72638,2.35405 -1.0045,0.55297 -1.03981,0.63645 -0.57753,1.3651 0.27081,0.42688 0.5929,1.40198 0.71574,2.16692 0.1228,0.76495 0.041,2.14711 -0.18187,3.07147 -0.22287,0.92438 -0.83619,2.60212 -1.36291,3.72834 -0.52673,1.1262 -1.51711,2.70033 -2.20085,3.49805 -0.68374,0.79774 -1.43737,1.45042 -1.67473,1.45042 -0.23738,0 -0.70583,-0.50922 -1.041,-1.13161 -0.46313,-0.85998 -0.57534,-1.66666 -0.46747,-3.36073 0.10216,-1.60411 0.44356,-2.84175 1.21767,-4.4141 0.59165,-1.20175 1.62248,-2.82369 2.29075,-3.60434 0.66824,-0.78063 1.215,-1.49738 1.215,-1.59275 0,-0.0953 -1.51134,0.52583 -3.35852,1.38047 l -3.3585,1.5539 0.16072,2.50437 c 0.14187,2.21061 0.0536,2.72328 -0.75224,4.3704 -0.50211,1.0263 -1.63462,2.66868 -2.516649,3.64971 -0.88203,0.98104 -2.428001,2.31101 -3.435496,2.95548 -1.577973,1.00942 -1.898618,1.105 -2.313927,0.68968 -0.265169,-0.26517 -0.569794,-1.24072 -0.67693,-2.16789 -0.147031,-1.2723 -0.0064,-2.18391 0.570517,-3.71674 0.559979,-1.486 1.324181,-2.5906 2.848108,-4.11668 1.145523,-1.14716 2.466698,-2.3535 2.935948,-2.68075 0.657259,-0.45839 0.696449,-0.54557 0.170648,-0.37967 -0.375413,0.11841 -1.987928,0.57627 -3.583391,1.01739 -1.595464,0.4411 -3.323163,0.89326 -3.839338,1.00478 -0.903468,0.1952 -0.938513,0.28332 -0.938513,2.36004 0,1.7151 -0.208467,2.57066 -1.017053,4.17411 -0.559384,1.10927 -1.636931,2.7353 -2.394554,3.61342 -0.757624,0.87812 -2.313905,2.2219 -3.458403,2.98616 -1.1445,0.76427 -2.281566,1.38958 -2.526815,1.38958 -0.245247,0 -0.553763,-0.49108 -0.685588,-1.09127 z m 1.848289,-15.88386 c -0.257608,-0.32667 -1.292318,-1.57816 -2.299355,-2.7811 -1.007038,-1.20295 -2.195732,-2.97051 -2.641545,-3.92795 -0.454777,-0.97669 -0.812033,-2.386 -0.813903,-3.21073 -0.0017,-0.80845 0.16847,-2.15223 0.378453,-2.98614 0.209986,-0.83394 0.503527,-1.51623 0.652316,-1.51623 0.148789,0 1.204656,1.01944 2.346367,2.26541 1.14171,1.24598 2.499087,3.12725 3.016386,4.18061 0.733653,1.49391 0.94055,2.40317 0.94055,4.13349 0,1.22006 -0.113933,2.7304 -0.253195,3.35629 l -0.253195,1.138 2.642119,-0.2398 c 1.453165,-0.13188 3.254283,-0.34073 4.002484,-0.46409 l 1.360361,-0.22428 -2.760469,-2.10137 c -1.667105,-1.26906 -3.172257,-2.75253 -3.800121,-3.74538 -0.571809,-0.90422 -1.144891,-2.14648 -1.273518,-2.76058 -0.128625,-0.6141 -0.130646,-1.72752 -0.0045,-2.47425 0.126161,-0.74672 0.340959,-1.35767 0.477331,-1.35767 0.136374,0 1.327034,0.90831 2.64591,2.01847 1.318873,1.11017 2.894645,2.7925 3.501704,3.73853 0.784182,1.22203 1.207087,2.41624 1.460621,4.12446 0.201476,1.35746 0.524676,2.40131 0.742236,2.39727 0.211949,-0.004 1.675925,-0.38586 3.253291,-0.84873 1.577354,-0.46285 2.932233,-0.90585 3.010837,-0.98445 0.07855,-0.0786 -1.209758,-0.8101 -2.863006,-1.62553 -2.392892,-1.18026 -3.258167,-1.81891 -4.242806,-3.13158 -0.708441,-0.94446 -1.424982,-2.43301 -1.677137,-3.4841 -0.429335,-1.78969 -0.416987,-1.86563 0.498569,-3.06598 0.516343,-0.67697 0.842574,-1.32708 0.724964,-1.44469 -0.117635,-0.11764 -1.016188,-0.19797 -1.996802,-0.17856 -0.980618,0.0195 -2.589203,-0.11557 -3.574635,-0.29985 -0.98543,-0.18432 -1.791691,-0.4471 -1.791691,-0.58396 0,-0.13685 0.180763,-0.42958 0.401697,-0.65051 0.308079,-0.30808 0.08936,-0.52927 -0.938505,-0.94907 -0.737114,-0.30105 -2.899358,-1.28622 -4.804992,-2.18927 l -3.464789,-1.6419 -1.299144,1.33044 c -0.73309,0.75076 -2.073306,1.6201 -3.075913,1.99523 -0.977219,0.36562 -2.536842,0.76559 -3.46583,0.88882 l -1.68906,0.22407 0.953494,1.92449 c 0.524423,1.05845 1.139854,2.84593 1.367625,3.97213 0.341985,1.69095 0.325484,2.4638 -0.09473,4.43656 -0.279874,1.31392 -0.618759,2.64051 -0.753081,2.94797 -0.196435,0.44965 0.210832,0.73228 2.081236,1.44428 1.279006,0.48688 3.054938,1.10333 3.946519,1.3699 0.89158,0.26656 1.621055,0.41732 1.621055,0.33504 0,-0.0823 -0.792348,-1.18068 -1.760776,-2.44085 -0.968425,-1.26018 -2.119614,-3.07155 -2.558189,-4.02527 -0.438576,-0.95374 -0.893693,-2.43651 -1.011372,-3.29506 -0.145788,-1.06364 -0.02262,-2.16935 0.386621,-3.47039 0.330319,-1.05016 0.783477,-1.90939 1.00702,-1.90939 0.223541,0 1.128394,0.88305 2.010783,1.96233 0.88239,1.07929 2.09052,2.94005 2.684731,4.13505 0.723321,1.45462 1.128353,2.8358 1.225517,4.17906 0.07982,1.10349 -0.03378,2.7168 -0.252424,3.58514 -0.218648,0.86835 -0.333955,1.64241 -0.256229,1.72012 0.07773,0.0778 1.351622,0.26897 2.830885,0.42501 1.479262,0.15603 2.977123,0.30412 3.328582,0.32908 0.560185,0.0397 0.581235,-0.0279 0.170637,-0.54854 z m 96.380655,-2.57281 c -0.17659,-2.95997 -0.12693,-3.29791 0.7611,-5.17496 0.55757,-1.1786 1.90467,-3.00725 3.26093,-4.4266 l 2.31091,-2.41842 0.41204,1.02383 c 0.22662,0.5631 0.43066,2.02204 0.45341,3.24211 0.0312,1.67468 -0.14619,2.59462 -0.72406,3.75402 -0.42099,0.84465 -1.78049,2.7358 -3.0211,4.20255 -1.2406,1.46675 -2.19313,2.72933 -2.11675,2.80572 0.0764,0.0764 1.58945,-0.0231 3.36234,-0.22099 1.77289,-0.19794 3.25769,-0.39413 3.29954,-0.43598 0.0418,-0.0418 -0.0886,-0.67266 -0.28994,-1.40178 -0.20133,-0.72913 -0.30735,-2.4098 -0.23562,-3.73483 0.10061,-1.85813 0.38319,-2.91653 1.23562,-4.62744 0.60788,-1.22005 1.84118,-3.05134 2.74069,-4.06953 0.89949,-1.01817 1.79632,-1.75182 1.99292,-1.6303 0.1966,0.1215 0.61312,1.13207 0.92558,2.2457 0.45352,1.61631 0.4961,2.34622 0.21106,3.61811 -0.19639,0.87631 -0.72139,2.31133 -1.16667,3.18891 -0.44529,0.87758 -1.58381,2.59109 -2.53005,3.80781 -0.94623,1.21671 -1.67586,2.25679 -1.62137,2.31127 0.0544,0.0546 1.38819,-0.34675 2.96379,-0.89165 1.57559,-0.5449 3.28705,-1.15885 3.80323,-1.36433 0.51617,-0.20548 0.9385,-0.46894 0.9385,-0.58548 0,-0.11648 -0.24887,-1.06798 -0.55306,-2.11432 -0.38044,-1.30871 -0.50283,-2.68487 -0.39216,-4.40945 0.12563,-1.95781 0.41663,-3.02221 1.32829,-4.85885 l 1.16741,-2.35183 -2.0849,-0.22328 c -1.14669,-0.12279 -2.90185,-0.60178 -3.90037,-1.0644 -0.99852,-0.46262 -2.31083,-1.36635 -2.91627,-2.0083 l -1.10079,-1.16716 -2.17297,1.14847 c -1.19514,0.63167 -3.21623,1.56394 -4.49131,2.07171 -2.23914,0.89169 -2.29828,0.94537 -1.7315,1.57165 0.46343,0.51209 0.49883,0.73644 0.16829,1.06696 -0.26251,0.26252 -1.5889,0.43498 -3.55825,0.46264 -1.72685,0.0242 -3.34761,0.0627 -3.60167,0.0853 -0.29328,0.0262 -0.0752,0.48169 0.59723,1.24754 0.58253,0.66349 1.05918,1.34201 1.05918,1.50783 0,0.16581 0.0932,0.54441 0.20715,0.84131 0.14588,0.38018 0.008,0.53982 -0.4683,0.53982 -0.52078,0 -0.72398,0.30357 -0.88743,1.32566 -0.14676,0.91785 -0.70563,1.87473 -1.81669,3.11049 -1.17365,1.30538 -2.28844,2.09641 -4.14999,2.94475 -1.39989,0.63795 -2.45577,1.2494 -2.34639,1.35878 0.10938,0.10938 1.46884,0.56808 3.02104,1.01935 1.55219,0.45127 3.02202,0.82049 3.26628,0.82049 0.29614,0 0.44412,-0.49146 0.44412,-1.47495 0,-0.81122 0.25581,-2.23176 0.56846,-3.15678 0.44442,-1.3149 1.23429,-2.33693 3.62011,-4.68421 1.67841,-1.65129 3.22709,-2.94467 3.44152,-2.87415 0.21443,0.0706 0.4396,0.88406 0.50037,1.80789 0.0608,0.92383 -0.0561,2.24097 -0.25992,2.92697 -0.20373,0.686 -1.0411,1.99137 -1.86082,2.90084 -0.81973,0.90945 -2.35038,2.26785 -3.40143,3.01865 -1.05106,0.7508 -1.91433,1.46923 -1.91838,1.5965 -0.004,0.1273 0.8757,0.33099 1.95497,0.45271 1.07929,0.12176 2.11591,0.27422 2.30361,0.33888 0.1877,0.0646 0.98165,0.12971 1.76434,0.14453 l 1.42306,0.027 -0.18893,-3.16675 z m -74.80745,-1.65842 3.55402,-1.47679 -1.61859,-0.23313 c -0.89023,-0.12821 -2.60962,-0.56292 -3.82088,-0.966 -1.21126,-0.40308 -2.58036,-1.03026 -3.04245,-1.39374 -0.462076,-0.36348 -1.084677,-0.66087 -1.38355,-0.66087 -0.298873,0 -0.543404,-0.25093 -0.543404,-0.55763 0,-0.3067 -0.175472,-1.1433 -0.389937,-1.85912 l -0.389937,-1.3015 -1.316441,0.67161 c -0.724036,0.36937 -1.316441,0.72437 -1.316441,0.78887 0,0.0645 0.609599,0.53976 1.354672,1.05609 0.745073,0.51633 1.807116,1.65062 2.360117,2.52065 0.553,0.87003 1.187546,2.27295 1.410111,3.11761 0.22256,0.84465 0.48143,1.66139 0.57524,1.81496 0.0938,0.15357 0.36023,0.20644 0.59202,0.11751 0.23178,-0.0889 2.02074,-0.82627 3.97545,-1.63851 z m 59.99447,-0.5789 c 0.47825,-1.57451 1.14116,-2.82412 2.03975,-3.84498 0.73219,-0.8318 1.7337,-1.72776 2.22557,-1.99101 0.49189,-0.26323 0.89432,-0.5778 0.89432,-0.69903 0,-0.12124 -0.56134,-0.48808 -1.24743,-0.81525 -1.0078,-0.48059 -1.30403,-0.50912 -1.54204,-0.14853 -0.16203,0.24549 -0.25648,1.05913 -0.20991,1.8081 0.0702,1.12807 -0.0312,1.3806 -0.59093,1.47157 -0.37159,0.0604 -1.75064,0.64221 -3.06454,1.2929 -1.31391,0.6507 -3.46075,1.37911 -4.77077,1.61868 -1.31871,0.24117 -2.15651,0.53275 -1.87701,0.65327 0.27767,0.11969 1.96378,0.83602 3.74695,1.59178 1.78316,0.75576 3.34233,1.37883 3.46482,1.3846 0.12254,0.005 0.54155,-1.03917 0.93122,-2.3221 z M 64.829759,177.81968 c -1.023557,-1.55579 -2.112975,-3.58728 -2.420931,-4.51444 -0.366482,-1.10338 -0.518762,-2.47272 -0.440794,-3.96374 0.100183,-1.91578 0.02839,-2.29574 -0.451356,-2.38961 -0.408188,-0.0798 -0.523802,0.067 -0.406401,0.51582 0.09024,0.34509 -0.07194,1.75935 -0.360403,3.14282 -0.288462,1.38347 -0.835054,3.11126 -1.214652,3.83952 -0.379596,0.72828 -0.690177,1.37395 -0.690177,1.43483 0,0.0609 0.944786,0.77341 2.099527,1.5834 1.154737,0.81001 2.878301,1.89862 3.830144,2.41913 0.951838,0.52052 1.772341,0.90468 1.823338,0.85368 0.05099,-0.051 -0.744736,-1.36563 -1.768295,-2.92141 z m 136.263221,1.3728 c 1.25506,-0.73881 2.81637,-1.79552 3.46959,-2.34822 l 1.18766,-1.00491 -0.75835,-1.66414 c -0.41709,-0.91528 -0.90939,-2.35523 -1.094,-3.19988 -0.1846,-0.84466 -0.3394,-2.1229 -0.34399,-2.84055 -0.006,-1.06267 -0.11918,-1.28055 -0.60557,-1.17418 -0.33839,0.074 -0.52803,0.3437 -0.43756,0.62225 0.0878,0.27041 0.15799,1.48987 0.15594,2.70993 -0.003,1.55168 -0.23028,2.71898 -0.75767,3.88448 -0.41468,0.91642 -1.54147,2.8218 -2.50398,4.23418 -1.05542,1.54874 -1.52059,2.47993 -1.17199,2.34616 0.3179,-0.12202 1.60487,-0.82629 2.85992,-1.56512 z m -88.58982,-3.59347 c 0.48758,-1.48103 0.48092,-1.5522 -0.14509,-1.5522 -0.36085,0 -1.31854,0.55374 -2.12822,1.23056 -1.36907,1.14438 -1.44673,1.29788 -1.10921,2.19208 l 0.36294,0.96154 1.25429,-0.63988 c 0.97524,-0.49754 1.36797,-0.98522 1.76529,-2.1921 z m 43.04062,1.77521 c 0.44995,-1.08211 0.42877,-1.13943 -0.8695,-2.35245 -0.85551,-0.79932 -1.5554,-1.18454 -1.95995,-1.07875 -0.56827,0.14861 -0.58334,0.25258 -0.15545,1.07267 0.26059,0.49946 0.47501,1.21527 0.47651,1.59067 0.001,0.37773 0.42156,0.93534 0.94062,1.24858 0.51583,0.31132 0.97584,0.58008 1.02222,0.59723 0.0464,0.0172 0.29188,-0.46791 0.54555,-1.07795 z m -99.259813,-4.77783 c -0.44932,-0.98544 -0.983517,-2.84236 -1.187112,-4.12649 -0.25329,-1.5976 -0.262928,-2.91491 -0.0305,-4.17212 0.186806,-1.01053 0.569806,-2.2824 0.851105,-2.82637 0.281302,-0.54399 0.415201,-1.08532 0.297555,-1.20296 -0.117661,-0.11764 -0.462514,-0.21391 -0.766358,-0.21391 -0.431316,0 -0.630456,0.58273 -0.908291,2.65788 -0.24093,1.79951 -0.71833,3.37008 -1.478236,4.86316 l -1.122377,2.20529 2.490558,2.3036 c 1.369808,1.26699 2.53107,2.30361 2.580583,2.30361 0.04952,0 -0.277599,-0.80627 -0.726919,-1.79169 z m 156.386523,-2.95267 c -0.0615,-0.11222 -0.62845,-1.26202 -1.25991,-2.55501 -0.88326,-1.80855 -1.1849,-2.92415 -1.30759,-4.8359 -0.12189,-1.89971 -0.26991,-2.45125 -0.62827,-2.34165 -0.25783,0.0788 -0.69723,0.21461 -0.97646,0.30168 -0.4232,0.13197 -0.38061,0.37331 0.25596,1.45042 0.66083,1.11818 0.76322,1.77448 0.76063,4.87549 -0.003,3.18797 -0.10628,3.80447 -0.93851,5.58695 -0.51453,1.10198 -0.9355,2.07562 -0.9355,2.16366 0,0.088 1.15682,-0.87528 2.57073,-2.14071 1.4139,-1.26544 2.52042,-2.39266 2.45892,-2.50493 z m -105.92857,3.35272 c -0.34668,-0.12615 -0.75295,-0.15809 -0.90285,-0.071 -0.14989,0.0871 -0.0911,0.3769 0.1306,0.64406 0.31961,0.38509 0.50665,0.39981 0.90285,0.0709 0.43205,-0.35858 0.41438,-0.44578 -0.1306,-0.64405 z m 52.28131,0.34511 c 0.1237,-0.20019 0.13941,-0.44953 0.0348,-0.55407 -0.10461,-0.10461 -0.43681,-0.0954 -0.73836,0.0203 -0.30154,0.1157 -0.45267,0.36504 -0.33585,0.55407 0.11686,0.18902 0.34786,0.34367 0.5134,0.34367 0.16554,0 0.40222,-0.16379 0.52595,-0.36397 z m -12.67526,-1.93929 c -0.17285,-0.86427 -0.41597,-1.08593 -1.39171,-1.26899 -0.65025,-0.12202 -1.44011,-0.3201 -1.75526,-0.44026 -0.31515,-0.12022 0.24923,0.51277 1.25418,1.40651 1.00494,0.89373 1.88906,1.56309 1.9647,1.48745 0.0756,-0.0756 0.0433,-0.60876 -0.0719,-1.18471 z M 121.2581,170.1706 c 0.355,-0.42774 0.22284,-0.44753 -0.96881,-0.14505 -1.14086,0.28958 -1.37989,0.49488 -1.37989,1.18517 v 0.83491 l 0.96881,-0.68985 c 0.53286,-0.37943 1.15381,-0.91276 1.37989,-1.18518 z m -4.39635,0.80473 c 0.3989,-0.25779 0.30474,-0.33198 -0.42659,-0.33606 -0.51618,-0.003 -0.9385,0.14836 -0.9385,0.33606 0,0.1877 0.19197,0.33893 0.42659,0.33605 0.23463,-0.003 0.65695,-0.1541 0.9385,-0.33605 z m 32.25047,0 c 0.11764,-0.1903 -0.13768,-0.33897 -0.57709,-0.33606 -0.63397,0.004 -0.68793,0.0699 -0.2761,0.33606 0.28155,0.18195 0.54124,0.33317 0.5771,0.33605 0.0359,0.003 0.16008,-0.14835 0.27609,-0.33605 z m -46.24274,-1.49338 c -1.40775,-0.423 -2.67473,-0.71169 -2.81551,-0.64154 -0.140775,0.0702 -0.255959,0.25545 -0.255959,0.41176 0,0.15632 0.729479,0.43625 1.621069,0.62208 0.89157,0.18581 2.15856,0.34661 2.81551,0.35731 0.93114,0.0152 0.63019,-0.15007 -1.36511,-0.74961 z m 58.26557,0.60464 c -0.11338,-0.11337 -0.40775,-0.1255 -0.65411,-0.0269 -0.27224,0.10899 -0.19138,0.18981 0.20618,0.20618 0.35977,0.0148 0.56133,-0.0658 0.44793,-0.17924 z m 2.99327,-0.52636 c 0.7508,-0.21312 1.21152,-0.43949 1.02382,-0.50307 -0.18771,-0.0636 -1.10915,0.0979 -2.04765,0.35885 -0.93851,0.26096 -1.39923,0.48733 -1.02382,0.50307 0.3754,0.0157 1.29683,-0.14574 2.04765,-0.35885 z m -66.377958,-1.31502 1.194473,-0.009 -1.781048,-0.9181 -1.781048,-0.9181 -0.889847,0.83598 -0.88986,0.83597 0.793895,0.23086 c 0.436629,0.12705 1.101022,0.16809 1.476435,0.0913 0.3754,-0.0768 1.22005,-0.14365 1.877,-0.14875 z m 72.960368,-0.32287 c 0.3338,-0.17521 0.28272,-0.37252 -0.21246,-0.82066 -0.62049,-0.56152 -0.72841,-0.54931 -2.2381,0.2534 -1.53669,0.81707 -1.55668,0.84755 -0.64072,0.97739 0.51999,0.0736 1.32937,0.0635 1.79862,-0.0227 0.46925,-0.0862 1.05095,-0.26052 1.29266,-0.38739 z m -121.110186,-1.7214 c -0.355881,-0.93661 -0.745235,-2.75925 -0.865228,-4.05033 -0.137362,-1.47799 -0.05687,-3.02766 0.217341,-4.18407 0.239531,-1.01016 0.881377,-2.48935 1.426325,-3.28708 0.544944,-0.79773 1.122412,-1.45042 1.283261,-1.45042 0.160846,0 0.697453,0.69108 1.192451,1.53574 0.495002,0.84465 0.95156,1.53573 1.014576,1.53573 0.06302,0 0.70923,-0.25646 1.436033,-0.56991 0.900529,-0.38838 2.245469,-0.56622 4.222292,-0.55832 1.989564,0.008 3.593104,0.23627 5.104518,0.72677 l 2.203684,0.71518 -2.770824,-2.72655 -2.77082,-2.72656 -1.25888,0.8543 c -0.692383,0.46986 -1.794615,0.95481 -2.449404,1.07764 -0.654787,0.12279 -2.215946,0.14997 -3.469239,0.0604 -1.253292,-0.0896 -2.994513,-0.47968 -3.869374,-0.86667 l -1.590665,-0.70362 -0.236735,1.40124 c -0.130206,0.77067 -0.530119,2.25396 -0.8887,3.29619 -0.358577,1.04223 -1.107904,2.46232 -1.665169,3.15575 -0.557263,0.69344 -1.013206,1.43364 -1.013206,1.64486 0,0.21123 0.417468,0.94971 0.927707,1.64106 0.51024,0.69137 1.677236,2.14007 2.593326,3.21935 0.916095,1.07928 1.712459,1.96233 1.769705,1.96233 0.05724,0 -0.187093,-0.76631 -0.542975,-1.70292 z m 168.831026,-2.98108 1.54291,-2.12445 -0.83808,-1.11766 c -0.46094,-0.61472 -1.1597,-1.75823 -1.5528,-2.54113 -0.39309,-0.78292 -0.90691,-2.43662 -1.1418,-3.67491 -0.33939,-1.78911 -0.53351,-2.20709 -0.94533,-2.0355 -0.28502,0.1188 -1.32064,0.50548 -2.30139,0.85938 -1.06333,0.38369 -2.68651,0.64345 -4.02093,0.64345 -1.24176,0 -2.79697,-0.23365 -3.49411,-0.52492 -0.69098,-0.28871 -1.53776,-0.77962 -1.88171,-1.0909 -0.59253,-0.53623 -0.77246,-0.41714 -3.42524,2.26741 -1.53992,1.55836 -2.48966,2.67706 -2.11054,2.48602 0.37913,-0.19104 1.91486,-0.60117 3.41275,-0.91141 1.81972,-0.3769 3.37182,-0.48931 4.67743,-0.33877 1.07471,0.12396 2.53279,0.52038 3.2402,0.88105 0.7074,0.36065 1.32814,0.53798 1.37938,0.39404 0.0512,-0.14392 0.43605,-0.86404 0.8551,-1.60025 0.41906,-0.73621 0.91549,-1.38536 1.10319,-1.44255 0.1877,-0.0571 0.74196,0.46839 1.23167,1.16793 0.48972,0.69955 1.09197,1.88621 1.33832,2.63701 0.24636,0.7508 0.43429,2.5169 0.41764,3.92466 -0.0166,1.40776 -0.2549,3.25065 -0.52943,4.0953 -0.27452,0.84465 -0.60674,1.84288 -0.73825,2.21828 -0.14251,0.40678 0.26132,0.13101 0.99949,-0.68255 0.68124,-0.7508 1.93293,-2.3211 2.78153,-3.48953 z m -125.048303,1.47793 c -1.033924,-0.90781 -1.227313,-0.95848 -2.388932,-0.62584 -0.695155,0.19907 -1.910954,0.46414 -2.701765,0.58907 -0.926794,0.14638 -2.079125,0.0389 -3.242111,-0.30214 -0.992348,-0.29109 -2.38017,-0.92347 -3.084049,-1.40527 -0.703879,-0.48182 -1.279779,-1.03158 -1.279779,-1.22169 0,-0.19011 0.652687,-0.64193 1.450417,-1.00403 0.797729,-0.3621 2.080233,-0.66173 2.850006,-0.66586 0.842211,-0.004 2.025838,0.32548 2.972114,0.82863 0.864889,0.45986 2.001171,1.11076 2.525072,1.44643 0.725037,0.46456 0.565378,0.17453 -0.66851,-1.21429 -0.89158,-1.00355 -1.621055,-1.94698 -1.621055,-2.09653 0,-0.14953 -0.601186,-0.19124 -1.335969,-0.0927 -0.734781,0.0986 -2.129052,-0.0116 -3.098381,-0.2436 -0.96933,-0.23253 -2.427446,-0.93042 -3.240264,-1.55086 -0.812818,-0.62043 -1.568574,-1.03734 -1.679464,-0.92645 -0.110889,0.11093 -0.201615,0.4531 -0.201615,0.76047 0,0.30736 -0.468584,1.29774 -1.041298,2.20081 -0.572713,0.90308 -0.995041,1.67834 -0.938505,1.72281 0.05653,0.0445 1.024233,0.58534 2.15044,1.20193 1.126206,0.61659 3.37334,1.68084 4.993631,2.365 2.816247,1.18917 3.116832,1.24346 6.825495,1.23293 l 3.879509,-0.0116 z m 85.590493,0.40226 1.19446,-0.5183 -1.57106,0.16406 c -0.93984,0.0982 -2.36161,-0.0658 -3.53867,-0.40793 -1.95351,-0.5679 -1.97405,-0.56638 -2.86551,0.21209 -0.49384,0.43125 -1.00516,0.86319 -1.13625,0.95985 -0.13108,0.0966 1.32787,0.16063 3.24211,0.14213 2.29395,-0.0222 3.88766,-0.21031 4.67492,-0.5519 z m 26.60928,-3.49605 0.63959,-1.03756 -2.34137,-0.0668 c -1.5277,-0.0436 -2.94602,-0.32692 -4.08127,-0.8153 -0.95694,-0.41165 -2.03917,-1.12894 -2.40495,-1.59396 l -0.66506,-0.84548 -1.12058,0.97822 c -0.61632,0.53802 -2.15886,1.65192 -3.42788,2.47534 -1.26902,0.82343 -2.26002,1.54441 -2.20223,1.60219 0.0578,0.0578 0.71505,-0.0364 1.46058,-0.2092 0.74554,-0.17285 2.47772,-0.31794 3.84927,-0.32241 1.37157,-0.004 3.19437,0.16827 4.05067,0.38388 1.03959,0.26178 2.02533,0.85711 2.96665,1.79171 l 1.40972,1.39965 0.61364,-1.35136 c 0.3375,-0.74326 0.90145,-1.81827 1.25322,-2.38893 z m -141.838613,0.92838 c 0.812726,-0.43457 1.983332,-0.57699 4.826949,-0.58727 2.064713,-0.008 4.291531,0.0998 4.948485,0.23835 1.168752,0.24649 1.157378,0.22812 -0.528604,-0.85319 -0.947683,-0.60781 -2.549979,-1.76423 -3.56065,-2.56985 l -1.837587,-1.46475 -0.844187,0.91041 c -0.464301,0.50074 -1.497538,1.19943 -2.296084,1.55267 -0.830727,0.36746 -2.412385,0.67764 -3.696899,0.72496 -1.234749,0.0455 -2.201042,0.15953 -2.147312,0.25338 0.05372,0.0939 0.551252,1.10207 1.105606,2.24047 l 1.007913,2.06985 0.974721,-0.97067 c 0.536098,-0.53386 1.45754,-1.22882 2.047649,-1.54436 z m 123.667003,-1.5289 c 0.31905,-0.25605 0.22456,-0.58907 -0.40002,-1.40995 -0.44975,-0.5911 -0.92283,-1.49588 -1.05128,-2.01061 l -0.23354,-0.93586 -0.96494,0.6871 c -0.53073,0.3779 -1.62777,0.92234 -2.43791,1.20986 -0.81013,0.28754 -2.26194,0.48747 -3.22625,0.44431 l -1.75329,-0.0784 -1.64653,2.02276 c -1.29072,1.58565 -1.44651,1.89369 -0.72096,1.42552 0.50907,-0.32847 1.27112,-0.81432 1.69345,-1.07966 0.42233,-0.26534 1.40575,-0.66914 2.18536,-0.89734 0.77963,-0.22822 1.93143,-0.31781 2.55957,-0.19913 0.62813,0.11867 1.67053,0.53808 2.31643,0.93199 l 1.17436,0.7162 -0.83309,0.66643 c -0.61289,0.49028 -0.33696,0.42532 1.04392,-0.24575 1.03236,-0.50169 2.06498,-1.06303 2.29472,-1.2474 z m 35.6178,-4.75717 c 1.73923,-3.03925 1.77342,-3.15013 1.23676,-4.00997 -0.30355,-0.48637 -0.8855,-1.49122 -1.29321,-2.23299 -0.40771,-0.74177 -1.02951,-2.18637 -1.38176,-3.21022 -0.35226,-1.02384 -0.64046,-2.39166 -0.64046,-3.03957 0,-1.11633 -0.0491,-1.16534 -0.9385,-0.93579 -0.51619,0.13323 -1.7597,0.35656 -2.76338,0.49629 -1.00368,0.13973 -2.6162,0.11286 -3.58339,-0.0596 -0.96719,-0.1725 -2.12048,-0.54704 -2.56286,-0.83235 -0.44239,-0.28529 -0.91492,-0.38924 -1.05003,-0.23099 -0.13513,0.15826 -0.98624,1.36275 -1.89136,2.67665 -0.90512,1.31391 -2.11365,2.88804 -2.68562,3.49807 -0.57196,0.61002 -0.94073,1.10915 -0.81946,1.10915 0.12124,0 0.88085,-0.43988 1.688,-0.97751 0.80714,-0.53762 2.35633,-1.30549 3.44265,-1.70638 1.17666,-0.43421 2.77715,-0.72887 3.95905,-0.72887 1.09115,0 2.50596,0.16815 3.144,0.37365 0.63803,0.2055 1.64974,0.91124 2.24824,1.56833 0.59849,0.65708 1.33466,1.9095 1.63595,2.78314 0.30127,0.87366 0.63196,2.50991 0.73485,3.63612 0.10294,1.1262 0.0357,2.70033 -0.14924,3.49806 -0.185,0.79774 -0.28742,1.45042 -0.22764,1.45042 0.0598,0 0.91362,-1.40655 1.89741,-3.12568 z M 43.329084,155.53264 c 0.0098,-2.83229 0.161639,-3.87443 0.798051,-5.47552 0.597409,-1.50298 1.115863,-2.19575 2.160709,-2.8872 1.021214,-0.67581 1.923599,-0.94468 3.50935,-1.04565 1.321286,-0.0841 2.834047,0.068 3.970195,0.39908 1.009552,0.29427 2.718595,1.06757 3.797877,1.71845 1.079281,0.65088 1.962329,1.13237 1.962329,1.06998 0,-0.0624 -0.557667,-0.78067 -1.239261,-1.59616 -0.68159,-0.81549 -1.857169,-2.40415 -2.612393,-3.53035 -0.755223,-1.12622 -1.411874,-2.09738 -1.459222,-2.15814 -0.04735,-0.0608 -0.563186,0.13623 -1.146302,0.43778 -0.583118,0.30154 -1.782881,0.68326 -2.666136,0.84827 -0.920382,0.17194 -2.389323,0.17252 -3.441094,0.001 -1.009345,-0.16428 -2.12746,-0.39145 -2.484703,-0.50484 -0.526604,-0.16716 -0.649527,-0.0356 -0.649527,0.69516 0,0.49572 -0.385429,2.04949 -0.856508,3.45281 -0.471079,1.40332 -1.113723,2.96613 -1.428102,3.47292 -0.314379,0.50679 -0.868804,1.25808 -1.232049,1.66952 -0.658452,0.74583 -0.656384,0.75511 0.684122,3.07147 0.739515,1.27786 1.562732,2.66893 1.829374,3.09126 0.266638,0.42232 0.486251,0.76786 0.488025,0.76786 0.0017,0 0.0086,-1.57412 0.01526,-3.49806 z m 138.748126,-1.29608 c 0.71826,-0.36644 1.69598,-0.66624 2.17271,-0.66624 0.68782,0 0.86679,-0.1694 0.86679,-0.8204 v -0.8204 l -1.71003,0.64976 c -0.94053,0.35737 -2.01295,0.64976 -2.38318,0.64976 -0.46808,0 -0.94602,0.53851 -1.56889,1.76769 l -0.89577,1.7677 1.10622,-0.93082 c 0.60843,-0.51195 1.69388,-1.23063 2.41215,-1.59705 z m -96.269009,0.61353 c -0.441326,-0.98977 -0.892217,-1.48802 -1.419695,-1.5688 -0.425133,-0.0651 -1.547156,-0.4228 -2.493377,-0.79484 -0.946225,-0.37204 -1.989165,-0.91847 -2.317642,-1.21428 -0.558977,-0.50339 -0.597231,-0.44965 -0.597231,0.83914 v 1.37697 l 2.001502,0.14478 c 1.649326,0.11931 2.294855,0.36489 3.668704,1.39575 0.91696,0.68804 1.698086,1.25564 1.735835,1.26134 0.03776,0.005 -0.222394,-0.64232 -0.578096,-1.44006 z m 22.862959,-16.21094 c 0,-0.14098 1.70198,-5.47765 3.78218,-11.85928 2.08019,-6.38162 4.05908,-12.4813 4.39753,-13.55482 l 0.61535,-1.95187 -2.46707,-1.80215 c -1.35689,-0.99118 -6.62933,-4.79684 -11.71654,-8.45702 -5.087195,-3.660162 -9.25773,-6.770034 -9.267855,-6.910809 -0.01032,-0.140775 6.548595,-0.255959 14.574935,-0.255959 h 14.59336 l 4.43271,-13.64744 c 2.438,-7.506093 4.53884,-13.649039 4.66853,-13.650986 0.1297,-0.0026 2.09543,5.71706 4.3683,12.708938 2.27288,6.991866 4.29703,13.134813 4.49813,13.650988 l 0.36562,0.9385 h 14.46277 c 7.95453,0 14.45879,0.115184 14.45391,0.255959 -0.005,0.140775 -1.27186,1.170133 -2.81551,2.287459 -1.54366,1.117326 -6.72277,4.86125 -11.50915,8.31984 -4.78638,3.4586 -8.76813,6.347 -8.84833,6.41868 -0.0802,0.0717 0.90718,3.39214 2.1942,7.37879 1.28702,3.98666 3.3043,10.15996 4.48285,13.71847 1.17855,3.55851 2.08285,6.52997 2.00954,6.60327 -0.0733,0.0733 -1.18031,-0.6069 -2.46001,-1.51157 -1.27971,-0.90466 -6.52543,-4.69353 -11.65718,-8.41971 -5.13173,-3.72616 -9.53126,-6.69779 -9.77669,-6.60359 -0.24545,0.0942 -5.53389,3.86787 -11.75209,8.38596 -6.2182,4.51809 -11.37865,8.2147 -11.46765,8.2147 -0.089,0 -0.16184,-0.11532 -0.16184,-0.25635 z m -6.91081,-30.37922 -8.105285,-0.0914 v -5.7955 c 0,-3.503434 0.130495,-5.795497 0.329946,-5.795497 0.18147,0 3.752053,2.476165 7.934639,5.502587 4.18259,3.02641 7.74803,5.63461 7.92322,5.79598 0.17518,0.16136 0.25197,0.33435 0.17063,0.38441 -0.0814,0.05 -3.79525,0.0498 -8.25315,-3.5e-4 z m 52.80613,-0.0885 c -0.061,-0.0989 3.36019,-2.68678 7.60257,-5.75067 4.24237,-3.063903 7.91607,-5.648493 8.16377,-5.743542 0.36211,-0.138957 0.45035,0.968682 0.45035,5.653342 v 5.82616 l -8.05293,0.0974 c -4.42911,0.0535 -8.10281,0.0164 -8.16376,-0.0827 z M 125.05235,73.95092 v -7.746935 h 2.55956 c 1.79131,0 2.55956,0.125374 2.55956,0.417785 0,0.229762 -1.0247,3.56999 -2.27713,7.422716 -1.25242,3.852727 -2.40423,7.150853 -2.55957,7.329163 -0.15533,0.178323 -0.28242,-3.161904 -0.28242,-7.422729 z m 13.81707,6.847517 c -0.12344,-0.425046 -1.20948,-3.813244 -2.41351,-7.52931 -1.20403,-3.716066 -2.18914,-6.825925 -2.18914,-6.91081 0,-0.08487 1.1461,-0.154332 2.54687,-0.154332 h 2.54688 l 0.098,7.541061 c 0.0539,4.147588 -0.006,7.605218 -0.13337,7.683642 -0.12731,0.07842 -0.33234,-0.205191 -0.45573,-0.630251 z"
       id="path7057" /></g></svg>
