<?xml version="1.0" encoding="UTF-8" standalone="no"?>
<!-- Created with Inkscape (http://www.inkscape.org/) -->

<svg
   width="1000"
   height="1000"
   viewBox="0 0 264.58333 264.58333"
   version="1.1"
   id="svg5"
   inkscape:version="1.2.2 (b0a8486541, 2022-12-01)"
   sodipodi:docname="postmodernism.svg"
   xml:space="preserve"
   xmlns:inkscape="http://www.inkscape.org/namespaces/inkscape"
   xmlns:sodipodi="http://sodipodi.sourceforge.net/DTD/sodipodi-0.dtd"
   xmlns="http://www.w3.org/2000/svg"
   xmlns:svg="http://www.w3.org/2000/svg"><sodipodi:namedview
     id="namedview7"
     pagecolor="#ffffff"
     bordercolor="#000000"
     borderopacity="0.25"
     inkscape:showpageshadow="2"
     inkscape:pageopacity="0.0"
     inkscape:pagecheckerboard="0"
     inkscape:deskcolor="#d1d1d1"
     inkscape:document-units="px"
     showgrid="false"
     inkscape:zoom="0.52787981"
     inkscape:cx="219.74699"
     inkscape:cy="490.64199"
     inkscape:window-width="1920"
     inkscape:window-height="1004"
     inkscape:window-x="0"
     inkscape:window-y="0"
     inkscape:window-maximized="1"
     inkscape:current-layer="layer1" /><defs
     id="defs2" /><g
     inkscape:label="Layer 1"
     inkscape:groupmode="layer"
     id="layer1"><circle
       style="fill:#188891;fill-opacity:1;stroke:#000000;stroke-width:0;stroke-dasharray:none;stroke-opacity:1;paint-order:stroke markers fill"
       id="path236"
       cx="132.29167"
       cy="132.29167"
       r="125.37917" /><circle
       style="fill:#ffffff;fill-opacity:0;stroke:#000000;stroke-width:5.29167;stroke-dasharray:none;stroke-opacity:1;paint-order:normal"
       id="path236-3"
       cx="132.29167"
       cy="132.29167"
       r="125.37917" /><path
       style="fill:#000000;stroke-width:0.121708"
       d="m 120.91287,224.57753 -11.31743,-11.31792 7.54472,-0.0314 7.54472,-0.0314 0.0306,-31.27899 0.0306,-31.27899 -22.12034,22.12021 -22.120348,22.12022 5.35436,5.35539 5.354359,5.3554 H 75.118707 59.023323 v -16.09537 -16.0954 l 5.355399,5.35437 5.355395,5.35436 22.12022,-22.12035 22.120213,-22.12034 -31.278992,0.0306 -31.278995,0.0306 -0.06085,7.51576 -0.06085,7.51576 -11.318609,-11.31913 -11.318615,-11.31915 11.318615,-11.31915 11.318609,-11.31914 0.06085,7.51577 0.06085,7.51576 31.278995,0.0306 31.278992,0.0306 -22.120213,-22.12034 -22.12022,-22.120348 -5.355395,5.354359 -5.355399,5.35436 V 75.148903 59.053519 h 16.095384 16.095384 l -5.354359,5.355398 -5.35436,5.355396 22.120348,22.120217 22.12034,22.12022 -0.0306,-31.278996 -0.0306,-31.278993 -7.51576,-0.06086 -7.51576,-0.06085 11.31914,-11.318612 11.31914,-11.318612 11.31915,11.318612 11.31914,11.318612 -7.51576,0.06085 -7.51577,0.06086 -0.0306,31.278993 -0.0306,31.278996 22.12035,-22.12022 22.12034,-22.120217 -5.35436,-5.355396 -5.35436,-5.355398 h 16.09539 16.09538 v 16.095384 16.095384 l -5.3554,-5.35436 -5.35539,-5.354359 -22.12022,22.120342 -22.12022,22.12034 31.27899,-0.0306 31.279,-0.0306 0.0608,-7.51576 0.0609,-7.51576 11.31861,11.31914 11.31861,11.31914 -11.31861,11.31915 -11.31861,11.31914 -0.0609,-7.51576 -0.0608,-7.51577 -31.279,-0.0306 -31.27899,-0.0306 22.12022,22.12035 22.12022,22.12034 5.35539,-5.35435 5.3554,-5.35437 v 16.09539 16.09538 h -16.09538 -16.09539 l 5.35436,-5.3554 5.35436,-5.35539 -22.12034,-22.12023 -22.12035,-22.12021 0.0306,31.279 0.0306,31.27899 7.54473,0.0314 7.54471,0.0314 -11.31742,11.31792 c -6.2246,6.22487 -11.34504,11.31793 -11.37878,11.31793 -0.0338,0 -5.15418,-5.09306 -11.37877,-11.31793 z"
       id="path856" /></g></svg>
