<?xml version="1.0" encoding="UTF-8" standalone="no"?>
<!-- Created with Inkscape (http://www.inkscape.org/) -->

<svg
   width="1000"
   height="1000"
   viewBox="0 0 264.58333 264.58333"
   version="1.1"
   id="svg5"
   inkscape:version="1.2.2 (b0a8486541, 2022-12-01)"
   sodipodi:docname="reactionary_modernism.svg"
   xml:space="preserve"
   xmlns:inkscape="http://www.inkscape.org/namespaces/inkscape"
   xmlns:sodipodi="http://sodipodi.sourceforge.net/DTD/sodipodi-0.dtd"
   xmlns="http://www.w3.org/2000/svg"
   xmlns:svg="http://www.w3.org/2000/svg"><sodipodi:namedview
     id="namedview7"
     pagecolor="#ffffff"
     bordercolor="#000000"
     borderopacity="0.25"
     inkscape:showpageshadow="2"
     inkscape:pageopacity="0.0"
     inkscape:pagecheckerboard="0"
     inkscape:deskcolor="#d1d1d1"
     inkscape:document-units="px"
     showgrid="false"
     inkscape:zoom="0.74653479"
     inkscape:cx="196.90978"
     inkscape:cy="488.92564"
     inkscape:window-width="1920"
     inkscape:window-height="1004"
     inkscape:window-x="0"
     inkscape:window-y="0"
     inkscape:window-maximized="1"
     inkscape:current-layer="layer1" /><defs
     id="defs2"><filter
       id="mask-powermask-path-effect1955_inverse"
       inkscape:label="filtermask-powermask-path-effect1955"
       style="color-interpolation-filters:sRGB"
       height="100"
       width="100"
       x="-50"
       y="-50"><feColorMatrix
         id="mask-powermask-path-effect1955_primitive1"
         values="1"
         type="saturate"
         result="fbSourceGraphic" /><feColorMatrix
         id="mask-powermask-path-effect1955_primitive2"
         values="-1 0 0 0 1 0 -1 0 0 1 0 0 -1 0 1 0 0 0 1 0 "
         in="fbSourceGraphic" /></filter><filter
       id="mask-powermask-path-effect1983_inverse"
       inkscape:label="filtermask-powermask-path-effect1983"
       style="color-interpolation-filters:sRGB"
       height="100"
       width="100"
       x="-50"
       y="-50"><feColorMatrix
         id="mask-powermask-path-effect1983_primitive1"
         values="1"
         type="saturate"
         result="fbSourceGraphic" /><feColorMatrix
         id="mask-powermask-path-effect1983_primitive2"
         values="-1 0 0 0 1 0 -1 0 0 1 0 0 -1 0 1 0 0 0 1 0 "
         in="fbSourceGraphic" /></filter><clipPath
       clipPathUnits="userSpaceOnUse"
       id="clipPath2020"><path
         id="path2022"
         style="fill:#000000;fill-opacity:1;stroke-width:0.246708"
         d="M 4.5525353,4.2133041 V 102.9105 c 0.296472,0.3053 0.5801511,0.64516 0.8495051,1.01767 -7.672e-4,-1.91712 -0.012729,-5.149521 0.00241,-5.166412 0.135305,-0.150852 4.6734766,4.290972 8.1196826,7.947182 6.366563,6.75451 12.8426,14.53743 21.564307,25.91591 9.783196,12.76331 19.924363,21.73247 34.55503,30.56193 7.984027,4.81823 11.853794,8.27569 26.714828,23.869 6.268452,6.57746 7.742222,8.34084 15.027502,17.97788 5.4076,7.1531 7.60886,9.89013 10.66482,13.26056 0.84619,0.93328 2.26018,2.62961 3.14215,3.76904 0.88199,1.13955 2.93583,3.41084 4.5641,5.04692 4.74345,4.76648 9.17715,8.22342 18.50311,14.42712 8.76639,5.83157 13.51803,9.70293 20.74661,16.90384 3.91762,3.90277 11.79925,12.67449 11.58804,12.89676 -0.001,0.003 -0.19849,0.0109 -0.20719,0.0124 1.32603,0.068 2.65041,0.16992 3.97431,0.27321 3.24351,0.20018 6.47984,0.49223 9.71413,0.80518 3.00066,0.35025 6.00005,0.70138 9.01255,0.93191 2.43835,0.24601 4.87968,0.43543 7.328,0.54015 0.46693,-0.004 0.93423,0.007 1.40075,-0.0124 3.29376,-0.13838 6.58675,-0.59812 9.85627,-0.98153 4.21137,-0.49384 6.1834,-0.73988 10.40029,-1.25524 4.17208,-0.52781 8.34005,-1.09021 12.5079,-1.64983 2.66528,-0.35785 4.89971,-0.14576 6.67896,0.4481 v -20.03059 -32.32694 l -4.48604,-5.35771 c -10.24278,-12.23257 -19.05105,-21.81288 -27.66552,-30.09019 -4.95529,-4.76144 -6.75657,-6.11603 -18.17689,-13.67207 -10.89829,-7.21054 -13.06069,-9.00929 -20.86562,-17.35532 -5.69167,-6.08625 -8.39473,-9.37728 -16.51018,-20.10237 -5.6931,-7.52391 -9.05109,-11.7248 -12.19228,-15.25302 -2.65046,-2.97683 -13.93001,-14.29966 -16.05627,-16.11794 -2.70902,-2.316527 -7.03797,-5.417803 -13.50389,-9.673176 C 108.50643,81.719218 105.09283,78.926591 97.826006,70.851944 90.074167,62.238392 85.215097,56.39599 79.438549,48.744108 67.056571,32.342412 53.274277,18.425937 39.401011,8.3167529 37.670573,7.0558119 35.613969,5.6166421 34.831131,5.1187032 L 33.407741,4.2133041 H 18.980138 Z m 59.6291447,0 3.307429,3.3922358 C 75.252,15.567778 81.543569,23.148801 94.522916,40.178712 101.5154,49.353427 103.5454,51.83384 107.0024,55.4298 c 4.78801,4.980601 10.3089,9.445604 16.60654,13.430171 12.57891,7.958888 20.15403,14.029676 29.5852,23.709992 7.29851,7.491337 8.7708,9.235157 19.56752,23.176587 6.51589,8.41379 11.05592,13.89712 15.65536,18.90738 6.78074,7.38625 11.49482,11.22371 23.36402,19.01916 11.37446,7.47051 11.51305,7.5828 20.87526,16.93323 7.66517,7.65554 13.19286,13.59859 17.03539,18.31567 0.79509,0.97609 1.47329,1.78117 1.50723,1.78863 0.0338,0.007 0.0616,-7.75038 0.0616,-17.23968 v -17.25319 l -3.38404,-3.4968 c -6.67881,-6.90082 -12.27598,-11.49889 -21.96618,-18.04583 -9.76478,-6.59721 -14.59185,-10.33415 -21.0839,-16.32127 -4.85271,-4.47521 -8.59421,-8.69705 -13.14588,-14.8338 C 184.24821,93.49905 178.26051,86.598862 168.7565,77.100596 157.53273,65.88354 148.11694,57.816882 136.44257,49.415808 122.30365,39.241309 113.70068,31.345986 106.9147,22.317435 103.57634,17.875918 99.262778,10.25703 97.537856,5.7552293 L 96.947108,4.2133041 H 80.564637 Z m 187.07891,0 -19.67496,0.060232 -19.67497,0.060232 19.55161,0.064568 19.55162,0.064568 V 27.528663 c 0,12.686 0.0555,23.065755 0.12335,23.065755 0.0679,0 0.12335,-10.435894 0.12335,-23.190557 z M 211.94102,15.446712 c -0.0635,0.04373 -0.1688,0.0575 -0.19034,0.131545 -0.0234,0.08048 -0.0411,0.161997 -0.0587,0.243817 0.0807,-0.127853 0.16126,-0.255952 0.24912,-0.375362 z M 5.5075653,44.426716 c 0.4097012,0 5.0994857,2.178254 7.1757347,3.332967 7.839108,4.359785 14.507717,9.491477 22.428749,17.258966 7.921564,7.768016 14.337374,15.289194 24.945462,29.243094 2.217798,2.917291 5.054581,6.580957 6.303584,8.141367 7.247736,9.0548 17.389123,18.33304 26.019508,23.80443 11.564767,7.33184 16.507437,11.23141 25.779547,20.33945 11.54899,11.34461 14.77002,15.09345 24.91992,29.00506 5.13309,7.03534 8.0953,10.54378 13.93467,16.50438 8.4488,8.6242 15.22375,13.96338 24.77489,19.52367 4.637,2.69955 10.62317,7.63753 16.97852,14.00646 5.22999,5.24117 12.63195,13.09366 14.8314,15.73391 2.07262,2.48801 8.69344,9.56784 15.32336,16.38536 2.24326,2.30672 4.07958,4.26107 4.08032,4.34294 7.9e-4,0.0819 -1.19249,0.708 -2.65115,1.39158 -3.41258,1.59925 -8.67229,3.26843 -14.12114,4.48123 -6.15867,1.37078 -5.89712,1.34837 -6.9218,0.5869 -0.48103,-0.35751 -1.36919,-1.32408 -1.97367,-2.1481 -7.41849,-10.11294 -14.36343,-18.0098 -24.46746,-27.82068 -8.15958,-7.92284 -10.08348,-9.46258 -18.66597,-14.94077 -7.48057,-4.77476 -10.33248,-6.80354 -13.36511,-9.5079 -1.40189,-1.25008 -3.3324,-2.94664 -4.28994,-3.77001 -2.51463,-2.16229 -8.28903,-7.99059 -11.2705,-11.37555 -3.7083,-4.20994 -7.753,-9.2987 -14.08405,-17.71913 -3.06047,-4.07069 -6.49095,-8.51143 -7.62289,-9.86833 -2.91591,-3.49533 -11.75137,-12.4023 -17.952823,-18.09834 -4.921104,-4.52007 -5.625864,-5.06975 -10.501003,-8.19004 C 70.981336,136.02312 67.017232,132.89414 57.508033,123.27885 48.876092,114.55063 46.741638,111.99883 36.744081,98.45578 30.572641,90.095754 27.746692,86.529282 24.49734,83.000389 20.845563,79.034488 15.925887,74.642574 12.758951,72.521561 9.5317383,70.360166 6.4315374,67.955281 5.8477525,67.159996 L 5.2926593,66.403971 V 55.415343 c 0,-6.076587 0.09608,-10.988627 0.214906,-10.988627 z M 186.03041,50.726927 c -0.10173,0.09071 -0.20156,0.183546 -0.30116,0.277066 0.0503,0.0058 0.10162,0.0131 0.15178,0.01831 0.0395,-0.08206 0.0797,-0.163962 0.12288,-0.2443 0.009,-0.01664 0.0176,-0.03435 0.0265,-0.05108 z m -2.496,14.330751 c -0.0306,-0.0141 -0.0104,0.03754 0.0173,0.136845 0.0317,0.03749 0.0804,0.067 0.0968,0.111789 0.0619,0.0053 0.12063,0.01029 0.17877,0.01542 -0.002,-0.0019 -0.004,-0.0039 -0.006,-0.0058 -0.17498,-0.164042 -0.25659,-0.244181 -0.28718,-0.25827 z"
         mask="none" /></clipPath></defs><g
     inkscape:label="Layer 1"
     inkscape:groupmode="layer"
     id="layer1"><circle
       style="display:inline;fill:#2d2d2d;fill-opacity:1;stroke:#7f7f7f;stroke-width:5.29167;stroke-dasharray:none;stroke-opacity:1;paint-order:normal"
       id="path236-3"
       mask="none"
       r="125.37917"
       cy="132.29167"
       cx="132.29167" /><path
       style="display:inline;fill:#7f7f7f;fill-opacity:1;stroke:#7f7f7f;stroke-width:0;stroke-linecap:square;stroke-miterlimit:0;stroke-opacity:1"
       d="m 126.13056,222.6178 c -1.19398,-0.34625 -2.00628,-2.60393 -2.69487,-7.49 -1.00247,-7.11322 -2.08821,-13.50857 -2.33178,-13.7349 -0.14031,-0.13039 -2.10373,-0.69941 -4.36315,-1.26451 -2.25943,-0.5651 -5.17519,-1.32629 -6.47948,-1.69153 -1.30429,-0.36524 -2.652,-0.55641 -2.99492,-0.42483 -0.34291,0.13159 -3.49084,3.68436 -6.9954,7.89503 -3.504559,4.21067 -6.649189,7.65577 -6.98807,7.65577 -0.661011,0 -9.433191,-4.76022 -11.191455,-6.07304 l -1.059761,-0.79128 1.577839,-4.49049 c 0.86781,-2.46976 2.50931,-7.0094 3.647772,-10.08809 l 2.069931,-5.5976 -5.101449,-5.10145 -5.101447,-5.10145 -9.187672,3.3601 c -5.053219,1.84805 -9.710152,3.46459 -10.348741,3.5923 -1.143999,0.22881 -1.206784,0.14992 -4.270619,-5.36594 -1.710252,-3.07899 -3.230538,-5.89643 -3.378419,-6.26098 -0.203589,-0.50189 0.461351,-1.26171 2.738694,-3.12948 1.654159,-1.35666 4.341346,-3.61595 5.971525,-5.02065 1.63018,-1.40469 3.953008,-3.39181 5.161842,-4.41583 l 2.197878,-1.86186 -0.612962,-2.05056 c -0.337128,-1.12781 -1.169362,-4.2513 -1.849411,-6.94109 l -1.236456,-4.89052 -1.551836,-0.29966 c -0.853512,-0.16482 -5.49078,-0.98752 -10.30504,-1.82822 -4.81426,-0.84071 -8.95164,-1.72673 -9.194183,-1.96894 -0.557464,-0.55671 -0.843789,-11.03528 -0.35326,-12.92829 0.399463,-1.54158 -0.418024,-1.3208 13.605741,-3.67459 3.442927,-0.57788 6.62758,-1.20182 7.077002,-1.38653 0.667855,-0.2745 1.120081,-1.4952 2.475394,-6.68183 0.912042,-3.49029 1.559007,-6.74142 1.437702,-7.22474 -0.121305,-0.48332 -0.883114,-1.37619 -1.692909,-1.98416 -3.758631,-2.82186 -13.796472,-11.70105 -13.796472,-12.203967 0,-0.537758 3.265135,-6.649535 5.431816,-10.167437 0.563023,-0.914145 1.312209,-1.662396 1.664861,-1.662778 0.74592,-8.77e-4 7.34405,2.269731 14.617248,5.03008 l 5.086145,1.930308 5.180476,-5.143321 5.180476,-5.143324 -3.357781,-9.376354 C 82.96858,63.464174 81.42963,58.827531 81.395472,58.31752 c -0.05411,-0.807893 0.711934,-1.361216 5.949321,-4.297263 l 6.011426,-3.369969 1.61779,1.772073 c 0.889782,0.974639 3.0575,3.518562 4.817145,5.653157 1.759656,2.134597 4.107666,4.981453 5.217816,6.326347 1.11016,1.344895 2.2233,2.445339 2.47365,2.445433 0.41711,1.58e-4 8.48113,-2.151053 12.19239,-3.252517 1.80983,-0.537139 1.40919,0.796289 3.71512,-12.364954 0.91355,-5.21414 1.74105,-8.900249 2.04073,-9.090382 0.86437,-0.548404 13.45631,-0.405959 13.90104,0.157254 0.30873,0.390981 1.91707,8.971837 3.5016,18.6818 0.35202,2.157183 0.75455,2.614988 2.55151,2.901859 0.92234,0.147244 3.91381,0.903148 6.64769,1.679783 4.15412,1.180088 5.07159,1.32834 5.58477,0.902432 0.33774,-0.280296 3.14373,-3.521513 6.23554,-7.202703 3.09182,-3.681188 6.06741,-7.107589 6.61244,-7.61422 l 0.99096,-0.921151 5.74279,3.244808 c 3.15854,1.784647 5.8391,3.495778 5.95681,3.802516 0.19927,0.519305 -0.76555,3.502256 -5.05528,15.629308 l -1.69559,4.793415 5.1164,5.089436 5.11639,5.089439 5.02157,-1.992943 c 2.76187,-1.096119 7.22417,-2.714543 9.91625,-3.5965 l 4.89467,-1.603551 1.2039,1.404551 c 1.21917,1.42237 6.09442,10.055412 6.09442,10.791936 0,0.220082 -0.74825,0.986901 -1.66278,1.70404 -0.91452,0.717142 -3.95473,3.240772 -6.75601,5.608076 -2.80128,2.3673 -5.69771,4.80683 -6.43651,5.42117 l -1.34327,1.11698 0.91258,3.57792 c 1.65613,6.49313 2.78257,10.19293 3.1777,10.43714 0.21428,0.13243 1.8379,0.46579 3.60806,0.74081 1.77016,0.27501 4.45088,0.72947 5.95716,1.00992 1.50628,0.28044 4.49928,0.81625 6.65111,1.1907 2.36265,0.41113 4.10614,0.9204 4.40147,1.28567 0.55347,0.68453 0.70391,12.81353 0.16937,13.65514 -0.33907,0.53388 -1.06857,0.69141 -12.32833,2.66214 -4.26663,0.74677 -8.08331,1.53212 -8.48153,1.74524 -0.47074,0.25194 -0.88133,1.17489 -1.1737,2.63835 -0.24732,1.23796 -0.96415,3.99819 -1.59295,6.13382 -0.62881,2.13563 -1.14328,4.17638 -1.14328,4.535 0,0.36874 3.39192,3.48737 7.80681,7.17781 4.29375,3.58919 7.91592,6.70231 8.04926,6.91807 0.13334,0.21575 -1.21753,3.029 -3.00194,6.25166 -2.95769,5.34163 -3.33932,5.8594 -4.31879,5.8594 -1.29057,0 -2.62374,-0.43578 -12.21929,-3.99412 l -7.40073,-2.74444 -5.2409,5.28041 -5.2409,5.28042 0.66162,1.51223 c 1.21913,2.78649 3.37962,8.51142 5.07396,13.44511 1.63588,4.76346 1.66004,4.90577 0.93,5.47738 -1.68843,1.32202 -11.34976,6.32922 -11.84527,6.13907 -0.29408,-0.11284 -3.24346,-3.46073 -6.55417,-7.43975 -3.31071,-3.97902 -6.42666,-7.46252 -6.92433,-7.74111 -0.89186,-0.49925 -2.6345,-0.15391 -12.45992,2.46918 -1.58231,0.42243 -1.80641,1.0737 -3.27036,9.50434 -1.86077,10.71585 -1.989,11.36731 -2.35377,11.95878 -0.27469,0.44541 -1.60145,0.57869 -6.32899,0.63577 -3.2898,0.0397 -6.4216,-0.0554 -6.95956,-0.21144 z m 11.47045,-15.41265 c 0.24727,-5.22945 1.46324,-15.75116 2.23765,-19.36211 l 0.41916,-1.95443 1.83712,-0.22452 c 2.74888,-0.33594 8.42205,-2.08222 11.73041,-3.61078 5.39781,-2.49394 12.61626,-7.60429 17.05137,-12.07162 7.1575,-7.20951 12.01158,-16.52754 14.39074,-27.62488 1.11775,-5.21367 1.12596,-14.28975 0.0179,-19.7993 -3.93265,-19.5541 -16.23084,-34.075121 -34.70218,-40.974398 -16.44794,-6.143508 -36.03428,-3.261536 -50.25947,7.395274 -13.566807,10.163579 -21.139161,24.411914 -21.818549,41.054304 -0.628334,15.39177 4.796878,29.40433 15.528051,40.10677 7.981858,7.96048 19.147128,14.17942 27.559898,15.35055 1.74245,0.24257 3.23333,0.48799 3.31305,0.54539 0.54376,0.39149 2.34568,14.57586 2.66198,20.95454 l 0.24638,4.96875 1.60329,0.14686 c 0.8818,0.0808 3.02861,0.17761 4.77068,0.21521 l 3.16741,0.0683 z"
       id="path2973" /><path
       style="display:inline;fill:#ffc90e;fill-opacity:1;stroke:#7f7f7f;stroke-width:0;stroke-linecap:square;stroke-miterlimit:0;stroke-opacity:1"
       d="m 128.14253,216.01175 c -0.25541,-0.17384 -0.68618,-3.25154 -0.96842,-6.91883 -0.5456,-7.08958 -2.09666,-19.24607 -2.64247,-20.71047 -0.28239,-0.75763 -0.80782,-0.93375 -3.45822,-1.15925 -3.30174,-0.2809 -7.23939,-1.48403 -11.92958,-3.64504 l -2.8379,-1.30757 0.2298,-1.82457 c 0.1264,-1.00352 0.3537,-2.59169 0.50511,-3.52927 l 0.27529,-1.7047 5.27602,-0.1202 5.276,-0.12019 -0.24296,-40.13741 -0.24297,-40.137402 3.90548,-5.479139 c 4.98363,-6.991757 10.04294,-13.517417 10.47995,-13.517417 0.37661,0 4.03732,4.795627 6.65115,8.713172 0.92975,1.393503 3.08086,4.361197 4.78023,6.594878 l 3.08977,4.061234 0.003,37.088014 c 0.002,20.39841 0.12476,38.37684 0.27353,39.95206 l 0.27052,2.86404 5.16017,0.11918 5.1602,0.11918 1.37309,2.55704 c 0.75519,1.40639 1.37849,2.75989 1.38507,3.00779 0.0315,1.18618 -12.04453,5.91161 -16.42226,6.42612 -1.22465,0.14394 -2.45427,0.40237 -2.73247,0.5743 -0.87116,0.53842 -3.41451,20.27796 -3.41906,26.53626 l -0.002,2.02433 -4.3683,-0.006 c -2.40256,-0.003 -4.57531,-0.14742 -4.82833,-0.31962 z"
       id="path2902" /></g></svg>
