<?xml version="1.0" encoding="UTF-8" standalone="no"?>
<!-- Created with Inkscape (http://www.inkscape.org/) -->

<svg
   width="1000"
   height="1000"
   viewBox="0 0 264.58333 264.58333"
   version="1.1"
   id="svg5"
   inkscape:version="1.2.2 (b0a8486541, 2022-12-01)"
   sodipodi:docname="reactionaryism.svg"
   xml:space="preserve"
   xmlns:inkscape="http://www.inkscape.org/namespaces/inkscape"
   xmlns:sodipodi="http://sodipodi.sourceforge.net/DTD/sodipodi-0.dtd"
   xmlns="http://www.w3.org/2000/svg"
   xmlns:svg="http://www.w3.org/2000/svg"><sodipodi:namedview
     id="namedview7"
     pagecolor="#ffffff"
     bordercolor="#000000"
     borderopacity="0.25"
     inkscape:showpageshadow="2"
     inkscape:pageopacity="0.0"
     inkscape:pagecheckerboard="0"
     inkscape:deskcolor="#d1d1d1"
     inkscape:document-units="px"
     showgrid="false"
     inkscape:zoom="0.52787981"
     inkscape:cx="331.51485"
     inkscape:cy="490.64199"
     inkscape:window-width="1920"
     inkscape:window-height="1004"
     inkscape:window-x="0"
     inkscape:window-y="0"
     inkscape:window-maximized="1"
     inkscape:current-layer="layer1" /><defs
     id="defs2" /><g
     inkscape:label="Layer 1"
     inkscape:groupmode="layer"
     id="layer1"><circle
       style="fill:#2a387a;fill-opacity:1;stroke:#ea8a12;stroke-width:0;stroke-dasharray:none;stroke-opacity:1;paint-order:stroke markers fill"
       id="path236"
       cx="132.29167"
       cy="132.29167"
       r="125.37917" /><circle
       style="fill:#427328;fill-opacity:0;stroke:#fbc714;stroke-width:5.29167;stroke-dasharray:none;stroke-opacity:1;paint-order:normal"
       id="path236-3"
       cx="132.29167"
       cy="132.29167"
       r="125.37917" /><path
       style="fill:#fbc714;stroke-width:0.823375;fill-opacity:1"
       d="m 125.29297,201.70969 c -1.35857,-0.19935 -5.24903,-0.94571 -8.64546,-1.65864 l -6.1753,-1.29622 -6.68485,-3.10838 c -3.67668,-1.70962 -8.863955,-4.60427 -11.52728,-6.43254 -2.663324,-1.8283 -7.10717,-5.67293 -9.875214,-8.54364 -2.768045,-2.87069 -6.2327,-7.00783 -7.699231,-9.19365 -1.466532,-2.18579 -4.074643,-7.00255 -5.795828,-10.70389 l -3.129405,-6.7297 -1.488454,-6.58699 -1.488454,-6.58701 v -8.64545 -8.64545 l 1.488454,-6.58701 1.488454,-6.58701 3.129405,-6.7297 c 1.721185,-3.701336 4.329296,-8.51808 5.795828,-10.703871 1.466531,-2.185812 4.931186,-6.322954 7.699231,-9.193668 2.768044,-2.870692 7.21189,-6.715318 9.875214,-8.543616 2.663325,-1.828298 7.8506,-4.722943 11.52728,-6.432546 l 6.68485,-3.10838 6.587,-1.488454 6.58701,-1.488458 h 8.64543 8.64546 l 6.58701,1.488458 6.587,1.488454 6.68485,3.10838 c 3.67668,1.709603 8.86396,4.604248 11.52728,6.432546 2.66332,1.828298 7.10717,5.672924 9.87521,8.543616 2.76805,2.870714 6.2327,7.007856 7.69924,9.193668 1.46653,2.185791 4.07464,7.002535 5.79582,10.703871 l 3.12941,6.7297 1.48845,6.58701 1.48846,6.58701 v 8.64545 8.64545 l -1.48846,6.58701 -1.48845,6.58699 -3.12941,6.7297 c -1.72118,3.70134 -4.32929,8.5181 -5.79582,10.70389 -1.46654,2.18582 -4.93119,6.32296 -7.69924,9.19365 -2.76804,2.87071 -7.21189,6.71534 -9.87521,8.54364 -2.66332,1.82827 -7.8506,4.72031 -11.52728,6.42673 l -6.68485,3.10259 -5.9639,1.33053 c -3.28015,0.7318 -9.20845,1.48081 -13.17402,1.66443 -3.96556,0.18355 -8.32165,0.17073 -9.68023,-0.0284 z m 24.70127,-10.20984 c 3.17,-1.00595 7.80395,-2.85783 10.29768,-4.11531 2.49372,-1.25747 6.89406,-4.06037 9.77853,-6.22866 l 5.24447,-3.94236 4.37567,-5.30479 c 2.40659,-2.91766 5.66051,-7.76049 7.23088,-10.76188 1.57038,-3.00138 3.72294,-8.23596 4.78348,-11.63239 l 1.92823,-6.1753 v -11.11558 -11.11557 l -1.92823,-6.17533 c -1.06054,-3.39641 -3.2131,-8.63099 -4.78348,-11.63238 -1.57037,-3.00138 -4.82429,-7.844211 -7.23088,-10.761868 l -4.37567,-5.304811 -5.24447,-3.942339 c -2.88447,-2.168291 -7.29787,-4.978899 -9.80754,-6.245776 -2.5097,-1.266877 -7.3289,-3.171925 -10.70937,-4.233422 l -6.14629,-1.930005 h -11.1156 -11.11557 l -6.17531,1.928232 c -3.39643,1.060513 -8.63101,3.213078 -11.63238,4.783475 -3.00137,1.570376 -7.844228,4.824266 -10.761863,7.230886 l -5.304812,4.375663 -3.94236,5.24447 c -2.168291,2.884453 -4.971185,7.284795 -6.228661,9.778525 -1.257475,2.49372 -3.105474,7.12766 -4.106651,10.29767 l -1.820371,5.76362 -0.412962,9.05714 -0.412962,9.05713 1.258779,5.91029 c 0.692337,3.25064 2.171817,8.1707 3.287736,10.93342 1.115918,2.76275 3.271881,7.11888 4.791061,9.68033 l 2.762104,4.65713 6.228875,6.22887 6.228875,6.2289 4.657153,2.7621 c 2.561429,1.51916 6.933649,3.68164 9.716049,4.80549 2.78241,1.12386 7.33193,2.56138 10.11006,3.19449 l 5.05114,1.15111 9.88052,-0.31109 9.88051,-0.31108 z m -32.52335,-19.34253 v -3.70521 h 4.94027 4.94025 V 152.80797 137.16383 H 111.70727 96.063126 v 4.94026 4.94025 h -3.705184 -3.705206 v -14.82076 -14.82076 h 3.705206 3.705184 v 4.94025 4.94024 h 15.644144 15.64414 V 111.63917 95.995032 h -4.94025 -4.94027 v -3.705185 -3.705184 h 14.82076 14.82079 v 3.705184 3.705185 h -4.94027 -4.94025 v 15.644138 15.64414 h 15.64414 15.64414 v -4.94024 -4.94025 h 3.70519 3.7052 v 14.82076 14.82076 h -3.7052 -3.70519 v -4.94025 -4.94026 h -15.64414 -15.64414 v 15.64414 15.64414 h 4.94025 4.94027 v 3.70521 3.70518 h -14.82079 -14.82076 z"
       id="path25708" /></g></svg>
