<?xml version="1.0" encoding="UTF-8" standalone="no"?>
<!-- Created with Inkscape (http://www.inkscape.org/) -->

<svg
   width="1000"
   height="1000"
   viewBox="0 0 264.58333 264.58333"
   version="1.1"
   id="svg5"
   inkscape:version="1.2.2 (b0a8486541, 2022-12-01)"
   sodipodi:docname="traditionalism.svg"
   xml:space="preserve"
   xmlns:inkscape="http://www.inkscape.org/namespaces/inkscape"
   xmlns:sodipodi="http://sodipodi.sourceforge.net/DTD/sodipodi-0.dtd"
   xmlns="http://www.w3.org/2000/svg"
   xmlns:svg="http://www.w3.org/2000/svg"><sodipodi:namedview
     id="namedview7"
     pagecolor="#ffffff"
     bordercolor="#000000"
     borderopacity="0.25"
     inkscape:showpageshadow="2"
     inkscape:pageopacity="0.0"
     inkscape:pagecheckerboard="0"
     inkscape:deskcolor="#d1d1d1"
     inkscape:document-units="px"
     showgrid="false"
     inkscape:zoom="0.52787981"
     inkscape:cx="331.51485"
     inkscape:cy="490.64199"
     inkscape:window-width="1920"
     inkscape:window-height="1004"
     inkscape:window-x="0"
     inkscape:window-y="0"
     inkscape:window-maximized="1"
     inkscape:current-layer="layer1" /><defs
     id="defs2" /><g
     inkscape:label="Layer 1"
     inkscape:groupmode="layer"
     id="layer1"><circle
       style="fill:#2e2e2e;fill-opacity:1;stroke:#000000;stroke-width:0;stroke-dasharray:none;stroke-opacity:1;paint-order:stroke markers fill"
       id="path236"
       cx="132.29167"
       cy="132.29167"
       r="125.37917" /><circle
       style="fill:#ffffff;fill-opacity:0;stroke:#ffffff;stroke-width:5.29167;stroke-dasharray:none;stroke-opacity:1;paint-order:normal"
       id="path236-3"
       cx="132.29167"
       cy="132.29167"
       r="125.37917" /><path
       style="fill:#ffffff;fill-opacity:1;stroke-width:0.631775"
       d="m 122.37489,207.3364 c -2.15319,-0.30526 -6.68555,-1.29243 -10.07192,-2.19376 l -6.15701,-1.63876 -5.77691,-2.73653 c -3.177272,-1.50511 -8.02678,-4.25009 -10.776683,-6.1 l -4.999798,-3.36348 -5.728463,-5.72846 -5.728439,-5.72844 -3.186969,-4.73834 c -1.752799,-2.60608 -4.2202,-6.79015 -5.483068,-9.29798 -1.262891,-2.50783 -3.006688,-6.67633 -3.875113,-9.26334 -0.868448,-2.58703 -2.053377,-6.78975 -2.633186,-9.33941 l -1.054197,-4.63573 v -10.42431 -10.42432 l 1.054197,-4.63575 c 0.579809,-2.54964 1.764738,-6.75238 2.633186,-9.33939 0.868425,-2.58703 2.612222,-6.75553 3.875113,-9.263333 1.262868,-2.507827 3.721028,-6.691923 5.46258,-9.297984 l 3.166458,-4.738332 5.74895,-5.721586 5.748951,-5.721563 4.738332,-3.193821 c 2.606085,-1.756596 6.790181,-4.227077 9.297984,-5.489969 2.507825,-1.262867 6.676325,-3.006664 9.263335,-3.875113 2.58703,-0.868424 6.78975,-2.051156 9.33941,-2.628315 l 4.63573,-1.049349 10.10843,-0.03868 10.10841,-0.03868 5.3701,1.157469 c 2.95356,0.636591 7.36018,1.871402 9.79252,2.744005 2.43235,0.872603 6.41253,2.585215 8.84488,3.805819 2.43232,1.220579 6.55467,3.644139 9.16075,5.385692 l 4.73831,3.166457 5.72159,5.748951 5.72158,5.748951 3.1938,4.738308 c 1.7566,2.606085 4.2271,6.790181 5.48997,9.297983 1.26287,2.50783 3.00666,6.67634 3.87511,9.26334 0.86843,2.58703 2.05336,6.78975 2.63317,9.33941 l 1.05422,4.63573 v 10.42434 10.42429 l -1.05422,4.63575 c -0.57981,2.54964 -1.76474,6.75239 -2.63317,9.33942 -0.86845,2.587 -2.61224,6.75551 -3.87511,9.26331 -1.26287,2.50783 -3.73027,6.69192 -5.48309,9.29801 l -3.18695,4.73831 -5.72844,5.72848 -5.72846,5.72844 -4.73831,3.18623 c -2.60608,1.75242 -6.58256,4.11688 -8.83661,5.25434 -2.25405,1.13746 -5.94993,2.76695 -8.21308,3.6211 -2.26314,0.85414 -6.53136,2.09877 -9.48492,2.76583 l -5.37008,1.21286 -8.52899,0.27357 -8.52896,0.2736 z m -0.19174,-42.65206 V 142.25629 H 99.755121 c -12.335427,0 -22.428075,0.0769 -22.428075,0.17073 0,0.0938 0.57637,2.25059 1.280847,4.79275 0.704477,2.54216 2.249943,6.65878 3.434394,9.14805 1.184452,2.48928 3.166267,5.94745 4.404038,7.68483 1.237772,1.73737 4.170008,5.10063 6.516084,7.4739 2.346076,2.37325 6.134941,5.56044 8.419701,7.08262 2.28478,1.52219 5.5542,3.39053 7.26542,4.15191 1.71123,0.76138 5.24357,2.03669 7.84964,2.83403 2.60608,0.79731 4.95156,1.4649 5.21217,1.48352 l 0.47381,0.0339 z m 25.27106,21.14207 c 1.56363,-0.40117 4.80032,-1.55893 7.1926,-2.5728 2.39228,-1.01384 6.23033,-3.09637 8.52898,-4.62784 2.29863,-1.53148 6.11782,-4.71723 8.48704,-7.07944 2.36923,-2.3622 5.56396,-6.18464 7.0994,-8.49427 1.53546,-2.30964 3.62124,-6.15667 4.63511,-8.54895 1.01384,-2.39231 2.1716,-5.62897 2.57277,-7.19263 0.40118,-1.56363 0.8738,-3.3405 1.05028,-3.94858 l 0.32085,-1.10561 h -22.47062 -22.47063 v 22.47063 22.47062 l 1.10561,-0.32087 c 0.60808,-0.17646 2.38494,-0.64908 3.94861,-1.05026 z M 122.18325,99.59934 V 77.159254 l -1.73738,0.405117 c -0.95555,0.222783 -3.94111,1.11893 -6.63457,1.991389 l -4.89721,1.58625 -4.42405,2.601046 c -2.43323,1.430564 -6.065695,4.014442 -8.072152,5.741955 -2.006481,1.727512 -5.061547,4.782578 -6.789059,6.789035 -1.727513,2.006457 -4.311415,5.638944 -5.741979,8.072174 l -2.601046,4.42405 -1.586249,4.89719 c -0.872436,2.69346 -1.768559,5.67901 -1.991366,6.63459 l -0.405117,1.73738 h 22.440087 22.440091 z m 64.83724,21.33448 c -0.17646,-0.60808 -0.64911,-2.38495 -1.05028,-3.94861 -0.40118,-1.56364 -1.55894,-4.80032 -2.57278,-7.1926 -1.01386,-2.39228 -3.09964,-6.23931 -4.6351,-8.54895 -1.53544,-2.30966 -4.73017,-6.132074 -7.09941,-8.494292 -2.36921,-2.362217 -6.1884,-5.547944 -8.48703,-7.079417 -2.29866,-1.531473 -6.13671,-3.614005 -8.52899,-4.627871 -2.39228,-1.013843 -5.62896,-2.171599 -7.1926,-2.572775 -1.56366,-0.401177 -3.34053,-0.873797 -3.94861,-1.050257 l -1.10561,-0.320874 V 99.5688 122.03943 h 22.47063 22.47063 z"
       id="path30552" /></g></svg>
