<?xml version="1.0" encoding="UTF-8" standalone="no"?>
<!-- Created with Inkscape (http://www.inkscape.org/) -->

<svg
   width="1000"
   height="1000"
   viewBox="0 0 264.58333 264.58333"
   version="1.1"
   id="svg5"
   inkscape:version="1.2.2 (b0a8486541, 2022-12-01)"
   sodipodi:docname="absolute.svg"
   xml:space="preserve"
   xmlns:inkscape="http://www.inkscape.org/namespaces/inkscape"
   xmlns:sodipodi="http://sodipodi.sourceforge.net/DTD/sodipodi-0.dtd"
   xmlns="http://www.w3.org/2000/svg"
   xmlns:svg="http://www.w3.org/2000/svg"><sodipodi:namedview
     id="namedview7"
     pagecolor="#ffffff"
     bordercolor="#000000"
     borderopacity="0.25"
     inkscape:showpageshadow="2"
     inkscape:pageopacity="0.0"
     inkscape:pagecheckerboard="0"
     inkscape:deskcolor="#d1d1d1"
     inkscape:document-units="px"
     showgrid="false"
     inkscape:zoom="0.52787981"
     inkscape:cx="331.51485"
     inkscape:cy="490.64199"
     inkscape:window-width="1920"
     inkscape:window-height="1004"
     inkscape:window-x="0"
     inkscape:window-y="0"
     inkscape:window-maximized="1"
     inkscape:current-layer="layer1" /><defs
     id="defs2"><inkscape:perspective
       sodipodi:type="inkscape:persp3d"
       inkscape:vp_x="0 : 552.5 : 1"
       inkscape:vp_y="0 : 1000 : 0"
       inkscape:vp_z="815 : 552.5 : 1"
       inkscape:persp3d-origin="407.5 : 368.33333 : 1"
       id="perspective11259" /><linearGradient
       id="linearGradient5938"><stop
         style="stop-color:#000000;stop-opacity:1;"
         offset="0"
         id="stop5940" /><stop
         id="stop5946"
         offset="0.5"
         style="stop-color:#000000;stop-opacity:0;" /><stop
         style="stop-color:#000000;stop-opacity:1;"
         offset="1"
         id="stop5942" /></linearGradient><linearGradient
       id="linearGradient5196"><stop
         style="stop-color:#860909;stop-opacity:1;"
         offset="0"
         id="stop5198" /><stop
         style="stop-color:#bb0d0d;stop-opacity:1;"
         offset="1"
         id="stop5200" /></linearGradient><linearGradient
       id="linearGradient7546"><stop
         style="stop-color:#6d0000;stop-opacity:1;"
         offset="0"
         id="stop7548" /><stop
         style="stop-color:#8a0000;stop-opacity:0;"
         offset="1"
         id="stop7550" /></linearGradient><linearGradient
       id="linearGradient13829"><stop
         id="stop13831"
         offset="0.00000000"
         style="stop-color:#ffffff;stop-opacity:1.0000000;" /><stop
         id="stop13833"
         offset="1.0000000"
         style="stop-color:#c9c9c9;stop-opacity:1.0000000;" /></linearGradient><linearGradient
       id="linearGradient15699"><stop
         style="stop-color:black;stop-opacity:0.78431374;"
         offset="0"
         id="stop15701" /><stop
         style="stop-color:black;stop-opacity:0;"
         offset="1"
         id="stop15703" /></linearGradient><polygon
       id="XMLID_5_"
       points="469.75879,342.92773 529.12402,342.16113 529.12402,440.2207 469.75879,440.2207 469.75879,342.92773 " /></defs><g
     inkscape:label="Layer 1"
     inkscape:groupmode="layer"
     id="layer1"><circle
       style="fill:#2f3294;fill-opacity:1;stroke:#000000;stroke-width:0;stroke-dasharray:none;stroke-opacity:1;paint-order:stroke markers fill"
       id="path236"
       cx="132.29167"
       cy="132.29167"
       r="125.37917" /><circle
       style="fill:#ffffff;fill-opacity:0;stroke:#f1cc19;stroke-width:5.29167;stroke-dasharray:none;stroke-opacity:1;paint-order:normal"
       id="path236-3"
       cx="132.29167"
       cy="132.29167"
       r="125.37917" /><path
       style="fill:#f1cc19;stroke-width:0.233516;fill-opacity:1"
       d="m 131.16614,225.63974 c -0.52745,-0.54585 -1.34502,-1.60346 -1.81681,-2.35024 -0.47179,-0.74679 -1.16452,-2.07857 -1.53939,-2.9595 -0.37486,-0.88093 -0.94225,-2.63427 -1.26084,-3.89631 -0.3186,-1.26204 -0.67864,-3.0302 -0.80009,-3.92923 -0.12146,-0.89904 -0.29346,-2.50651 -0.38223,-3.57216 -0.0888,-1.06564 -0.22883,-1.9063 -0.31126,-1.86813 -0.0824,0.0382 -0.94076,0.45952 -1.90743,0.9363 l -1.75758,0.86688 -2.32895,0.38355 -2.32896,0.38356 -3.50274,-0.12297 -3.50274,-0.12297 -0.58163,-0.21936 -0.58164,-0.21936 1.28219,-0.64841 c 0.7052,-0.35663 2.13347,-1.21419 3.17393,-1.9057 1.04047,-0.69151 2.66924,-1.92444 3.6195,-2.73984 0.95027,-0.81541 2.2716,-2.10933 2.9363,-2.87536 0.66471,-0.76604 1.77673,-2.18471 2.47116,-3.1526 0.69442,-0.96789 1.75227,-2.70788 2.35074,-3.86665 0.59848,-1.15877 1.45081,-3.19512 1.89407,-4.52521 0.44325,-1.33009 1.02202,-3.48568 1.28615,-4.79019 0.26413,-1.30451 0.48025,-2.64432 0.48025,-2.97733 v -0.60549 h 4.16289 4.16288 l 0.29277,1.9125 c 0.16103,1.05188 0.53963,2.88564 0.84135,4.07505 0.30171,1.18939 1.02852,3.2996 1.61514,4.68936 0.58661,1.38976 1.55264,3.31269 2.14674,4.27316 0.59409,0.96049 1.66769,2.47787 2.38576,3.37197 0.71807,0.8941 2.06201,2.3723 2.98652,3.2849 0.92452,0.91259 2.63697,2.33524 3.80543,3.16144 1.16848,0.8262 2.91783,1.93488 3.88746,2.46373 l 1.76298,0.96155 -0.53941,0.15163 c -0.29667,0.0834 -2.11917,0.21778 -4.05,0.29863 l -3.51061,0.147 -2.44406,-0.40303 -2.44405,-0.40304 -1.75137,-0.85714 c -0.96326,-0.47143 -1.81631,-0.88755 -1.89568,-0.92471 -0.0793,-0.0371 -0.2164,0.90858 -0.30452,2.10165 -0.0882,1.19306 -0.31698,3.11494 -0.50857,4.27085 -0.19158,1.15591 -0.61249,2.99484 -0.93533,4.08653 -0.32284,1.09169 -1.05591,2.94154 -1.62903,4.11077 l -1.04204,2.12588 -1.29882,1.43524 c -0.71434,0.78939 -1.37319,1.43524 -1.46412,1.43524 -0.0909,0 -0.59685,-0.4466 -1.12431,-0.99244 z m -27.97747,-25.27472 c -0.7706,-0.17036 -1.9195,-0.53432 -2.55311,-0.8088 -0.63361,-0.27448 -1.801931,-0.96282 -2.59628,-1.52965 -0.79434,-0.56684 -1.904706,-1.54692 -2.467484,-2.17797 -0.562769,-0.63105 -1.372175,-1.7301 -1.798682,-2.44233 -0.426498,-0.71223 -1.045858,-2.0657 -1.376349,-3.00771 l -0.600905,-1.71275 -0.111788,-2.2239 -0.111796,-2.22389 0.508755,-1.85443 c 0.279822,-1.01995 0.828796,-2.45489 1.219947,-3.18877 l 0.711183,-1.33431 1.583712,-1.70959 1.583711,-1.7096 0.149607,1.63462 c 0.08226,0.89903 0.348266,2.49251 0.591064,3.54104 l 0.441458,1.90643 0.778869,1.56555 0.778868,1.56556 1.44162,1.34878 1.44161,1.34877 1.24381,0.41568 1.24382,0.41569 1.44363,-0.0113 1.44363,-0.0113 1.48733,-0.69601 1.48736,-0.69601 1.19372,-1.2127 1.19373,-1.21271 0.95428,-1.83424 c 0.52485,-1.00884 0.95428,-1.94272 0.95428,-2.07529 0,-0.13258 0.0976,-0.4978 0.21692,-0.81161 l 0.21693,-0.57056 2.20868,0.53396 c 1.21477,0.29367 2.90355,0.60837 3.75284,0.69932 l 1.54418,0.16537 v 0.40924 c 0,0.22508 -0.16266,1.34202 -0.36147,2.48207 -0.19881,1.14006 -0.67568,3.01067 -1.05971,4.15691 -0.38403,1.14625 -1.11747,2.88991 -1.62987,3.87481 l -0.93163,1.79073 -1.29198,1.56632 -1.29197,1.56632 -1.44539,1.07416 c -0.79497,0.59079 -2.18096,1.41722 -3.08,1.83651 l -1.63461,0.76234 -1.79991,0.37105 c -0.98995,0.20407 -2.35601,0.36268 -3.03571,0.35247 -0.67969,-0.0102 -1.86629,-0.15795 -2.6369,-0.3283 z m 52.90896,0.093 c -0.56829,-0.1115 -1.56658,-0.37458 -2.2184,-0.58463 -0.65183,-0.21005 -1.84412,-0.74418 -2.64952,-1.18697 -0.80541,-0.44278 -2.09256,-1.32782 -2.86032,-1.96676 l -1.39595,-1.16172 -1.19809,-1.68469 c -0.65895,-0.92657 -1.61455,-2.56163 -2.12356,-3.63344 l -0.92546,-1.94876 -0.65628,-2.60481 c -0.36096,-1.43264 -0.72843,-3.18759 -0.8166,-3.89988 l -0.16032,-1.29509 2.18098,-0.30818 c 1.19954,-0.1695 2.89747,-0.49606 3.77318,-0.72568 l 1.5922,-0.41749 0.0969,0.26939 c 0.0533,0.14816 0.25911,0.73722 0.45735,1.30902 0.19826,0.57179 0.71824,1.67939 1.15553,2.46134 l 0.79506,1.42171 1.25905,1.19075 c 0.69247,0.65492 1.70764,1.41961 2.25593,1.69933 0.54829,0.27971 1.54208,0.5973 2.20843,0.70575 l 1.21153,0.19719 1.1484,-0.21455 c 0.63162,-0.118 1.57414,-0.42209 2.09449,-0.67577 0.52035,-0.25368 1.31672,-0.80464 1.7697,-1.22435 0.453,-0.41972 1.10553,-1.14463 1.45009,-1.61092 0.34456,-0.46629 0.88072,-1.42269 1.19147,-2.12535 0.31075,-0.70265 0.73101,-1.94992 0.93392,-2.7717 0.20291,-0.82179 0.44201,-2.32795 0.53134,-3.34704 l 0.1624,-1.8529 1.54103,1.61937 1.54103,1.61938 0.86949,1.65869 0.86947,1.65869 0.35212,1.49378 0.35211,1.49378 0.004,1.87282 0.004,1.87282 -0.48297,1.74286 c -0.26564,0.95858 -0.86727,2.48016 -1.33697,3.3813 l -0.854,1.63842 -1.88321,1.89414 -1.88322,1.89415 -1.78533,0.85871 -1.78534,0.85872 -1.59131,0.33717 c -0.87522,0.18545 -2.16927,0.32749 -2.87565,0.31565 -0.70639,-0.0118 -1.74931,-0.11275 -2.31761,-0.22425 z m -31.23197,-23.82001 c -1.17791,-0.10507 -3.12193,-0.36096 -4.32004,-0.56865 -1.19813,-0.20769 -3.01906,-0.65205 -4.04653,-0.98747 l -1.86813,-0.60984 -0.74142,-0.77236 -0.74143,-0.77234 -0.51202,-1.34465 -0.51202,-1.34465 -0.11886,-1.55125 -0.11887,-1.55126 0.40034,-1.27278 c 0.22019,-0.70002 0.62756,-1.55555 0.90528,-1.90116 l 0.50493,-0.62838 1.65671,0.56559 c 0.91119,0.31107 2.90776,0.78315 4.43681,1.04905 1.52905,0.26591 4.29411,0.60823 6.14457,0.76072 l 3.36447,0.27724 5.27563,-0.14208 5.27562,-0.14207 2.59231,-0.35751 c 1.42575,-0.19664 3.73757,-0.66079 5.13735,-1.03145 1.39978,-0.37066 2.76932,-0.74813 3.04342,-0.83882 l 0.49838,-0.16489 0.6692,1.36288 0.66921,1.36288 -0.004,2.10165 -0.004,2.10164 -0.55826,1.4011 -0.55826,1.4011 -0.73101,0.7333 -0.731,0.73329 -1.89341,0.59812 c -1.04138,0.32898 -2.82355,0.75491 -3.96038,0.94653 -1.13684,0.19161 -3.21485,0.4594 -4.61783,0.59509 l -2.55087,0.24669 -4.92167,-0.0321 c -2.70691,-0.0177 -5.8854,-0.11807 -7.06331,-0.22314 z M 70.262895,166.41425 c -1.155899,-0.35466 -2.872624,-0.98701 -3.814938,-1.40521 -0.942313,-0.41821 -2.467898,-1.21851 -3.390186,-1.77844 -0.922297,-0.55994 -2.410575,-1.63284 -3.307304,-2.38423 l -1.630409,-1.36616 -1.517853,-1.89137 c -0.834824,-1.04024 -1.948147,-2.6654 -2.474059,-3.61146 -0.525912,-0.94604 -1.228958,-2.40538 -1.562309,-3.24297 -0.333368,-0.83759 -0.821436,-2.30874 -1.084595,-3.26923 -0.263167,-0.96048 -0.636605,-2.79716 -0.829855,-4.0815 l -0.351364,-2.33516 v -3.38599 -3.38598 l 0.340835,-2.2184 c 0.187469,-1.22013 0.557226,-2.98828 0.821691,-3.92923 0.264474,-0.94096 0.783405,-2.37808 1.153189,-3.19363 0.369784,-0.81554 1.167628,-2.2524 1.772981,-3.19301 l 1.10064,-1.71021 2.132659,-2.10165 2.13265,-2.10164 1.731756,-1.15002 c 0.952464,-0.63251 2.73886,-1.64757 3.969777,-2.25569 l 2.238022,-1.10566 2.335159,-0.70695 c 1.28434,-0.38882 2.965656,-0.84471 3.736255,-1.01309 l 1.401097,-0.30614 4.436812,0.0156 4.436804,0.0156 2.238269,0.60287 c 1.23105,0.33156 3.069995,0.93299 4.086534,1.33648 1.016547,0.40349 2.688923,1.21674 3.716388,1.80722 1.027474,0.59049 2.846429,1.80661 4.04214,2.70248 1.195703,0.89589 3.192269,2.64218 4.436799,3.88065 1.24454,1.23847 2.97819,3.14412 3.85256,4.23477 0.87437,1.09065 2.40542,3.19145 3.40234,4.66844 0.99691,1.47699 2.29114,3.52609 2.87605,4.55357 0.58492,1.02746 1.64148,3.02403 2.34791,4.4368 0.70645,1.41278 1.76395,3.67204 2.35001,5.0206 0.58606,1.34855 1.50085,3.63995 2.03286,5.09197 0.53201,1.45203 1.38598,4.02654 1.89773,5.72115 0.51174,1.6946 1.19396,4.16809 1.51605,5.49665 0.3221,1.32856 0.53813,2.46305 0.48007,2.52111 -0.0581,0.0581 -1.09461,-0.0536 -2.30345,-0.24811 -1.20883,-0.19452 -2.92907,-0.57902 -3.82273,-0.85444 -0.89367,-0.27541 -2.01261,-0.698 -2.48655,-0.93909 l -0.86169,-0.43833 -0.88728,-1.69539 c -0.48799,-0.93245 -1.64831,-2.70835 -2.5785,-3.94645 l -1.69125,-2.25107 -1.69715,-1.57385 c -0.93343,-0.86561 -2.47652,-2.10065 -3.42909,-2.74454 -0.95257,-0.6439 -2.58135,-1.56353 -3.619503,-2.04364 -1.038153,-0.48013 -2.518047,-1.08612 -3.288646,-1.34667 -0.770607,-0.26055 -2.241755,-0.65038 -3.269228,-0.86632 l -1.868124,-0.39258 -2.918959,0.003 -2.91895,0.003 -1.700186,0.36741 c -0.935103,0.20208 -2.473591,0.66773 -3.41887,1.03477 -0.94528,0.36706 -2.457661,1.15864 -3.36085,1.75907 l -1.642156,1.09171 -1.140736,1.24815 -1.140735,1.24815 -0.840473,1.60642 c -0.462251,0.88353 -0.967599,2.07929 -1.122978,2.65724 -0.155378,0.57795 -0.370587,1.73386 -0.478226,2.56868 l -0.195712,1.51786 0.240265,2.19907 0.240256,2.19908 0.778047,2.35449 c 0.42792,1.29496 0.851761,2.53838 0.941864,2.76314 l 0.163834,0.40865 -0.316882,-0.0132 c -0.174283,-0.007 -1.26262,-0.30344 -2.418527,-0.65809 z m 121.311635,0.56063 c 0,-0.0609 0.30294,-0.87525 0.6732,-1.80975 0.37026,-0.93448 0.86625,-2.53972 1.1022,-3.56719 l 0.42897,-1.86813 -0.0224,-2.56868 -0.0224,-2.56868 -0.60753,-1.86813 -0.60753,-1.86812 -0.94398,-1.43866 -0.94398,-1.43866 -1.39886,-1.29509 -1.39885,-1.29509 -1.53475,-0.85828 c -0.84411,-0.47206 -2.46347,-1.15694 -3.59857,-1.52197 l -2.06382,-0.66369 -2.29527,-0.21284 -2.29527,-0.21284 -2.28997,0.19634 -2.28996,0.19634 -1.79657,0.48389 c -0.98812,0.26614 -2.37453,0.70864 -3.08092,0.98333 -0.70638,0.27468 -1.80975,0.7592 -2.45191,1.0767 -0.64217,0.31751 -2.06078,1.16702 -3.15247,1.88781 l -1.98488,1.31051 -2.10165,2.10911 -2.10164,2.10911 -1.4289,2.09418 c -0.78589,1.1518 -1.70653,2.64469 -2.04588,3.31753 l -0.61698,1.22335 -1.12955,0.57238 c -0.62126,0.31482 -1.95987,0.78047 -2.97472,1.03479 -1.01484,0.25431 -2.62135,0.57904 -3.57002,0.72162 -0.94867,0.14257 -1.77081,0.21328 -1.82699,0.1571 -0.0561,-0.0561 0.32131,-1.72823 0.83884,-3.71568 0.51753,-1.98745 1.32432,-4.80816 1.79286,-6.26824 0.46854,-1.46009 1.43036,-4.12585 2.13738,-5.92393 0.70702,-1.79807 1.95591,-4.67327 2.77529,-6.38934 0.81938,-1.71607 2.03277,-4.08042 2.69642,-5.25411 0.66365,-1.1737 2.04788,-3.39498 3.07606,-4.93619 1.02819,-1.5412 2.62501,-3.74794 3.54849,-4.90383 0.92348,-1.15591 2.71918,-3.13836 3.99045,-4.40545 1.27127,-1.26708 3.16999,-2.94872 4.21938,-3.73697 1.04939,-0.78825 2.73071,-1.93052 3.73626,-2.53838 1.00556,-0.60786 2.75082,-1.4813 3.87838,-1.94097 1.12756,-0.45969 3.07158,-1.1047 4.32005,-1.43339 l 2.26994,-0.59759 3.54763,-0.1158 3.54764,-0.1158 2.40703,0.39504 2.40703,0.39502 2.71647,0.90017 c 1.49405,0.4951 3.38553,1.23468 4.20329,1.64351 0.81775,0.40883 2.32748,1.29924 3.35495,1.97868 1.02747,0.67945 2.59658,1.90263 3.4869,2.7182 0.89032,0.81557 2.20658,2.22196 2.92502,3.12532 0.71844,0.90335 1.73935,2.47959 2.26869,3.50274 0.52933,1.02315 1.22559,2.70093 1.54723,3.72841 0.32165,1.02746 0.76574,3.02381 0.98689,4.43632 l 0.40209,2.56818 -0.12686,4.4373 -0.12687,4.43729 -0.47254,2.10164 c -0.2599,1.15591 -0.69878,2.78469 -0.97528,3.6195 -0.27651,0.83483 -0.84278,2.25631 -1.25839,3.15886 -0.41561,0.90254 -1.26919,2.42624 -1.89686,3.38598 l -1.1412,1.74499 -1.9921,1.99556 -1.99211,1.99556 -2.02571,1.34189 -2.02571,1.3419 -2.11516,0.9174 c -1.16334,0.50456 -3.0319,1.18317 -4.15237,1.508 -1.12047,0.32484 -2.12056,0.59061 -2.22244,0.59061 -0.10189,0 -0.18524,-0.0498 -0.18524,-0.11069 z m -64.134,-5.18825 -0.50085,-0.098 -0.15801,-1.09617 c -0.0869,-0.6029 -0.47283,-2.72496 -0.85759,-4.71569 -0.38476,-1.99072 -1.01366,-4.88048 -1.39756,-6.42169 -0.38389,-1.54121 -1.01682,-3.85302 -1.4065,-5.13736 -0.38968,-1.28433 -1.00481,-3.17582 -1.36696,-4.20329 -0.36214,-1.02747 -0.98837,-2.72469 -1.39162,-3.7716 -0.40324,-1.04692 -1.63121,-3.72651 -2.7288,-5.95467 -1.09759,-2.22814 -2.60295,-5.52233 -3.34525,-7.32041 -0.74231,-1.79807 -1.87953,-4.89799 -2.52717,-6.88872 -0.64764,-1.99073 -1.44507,-4.82795 -1.77206,-6.30494 -0.32699,-1.47698 -0.76377,-3.68371 -0.97061,-4.90384 l -0.37608,-2.2184 -0.12873,-4.436803 -0.12873,-4.436804 0.26758,-2.445666 c 0.14716,-1.345119 0.52629,-3.723396 0.84249,-5.285066 0.3162,-1.561667 0.95035,-4.077987 1.40921,-5.591822 0.45886,-1.513833 1.37151,-4.111805 2.02811,-5.77327 0.6566,-1.661467 2.31506,-5.295273 3.68548,-8.075126 1.37041,-2.779853 3.78441,-7.366089 5.36444,-10.191634 1.58003,-2.825545 4.26585,-7.659329 5.96851,-10.741742 1.70265,-3.082413 3.3377,-6.103528 3.63344,-6.713589 0.29574,-0.610061 0.60091,-1.109202 0.67816,-1.109202 0.0772,0 0.37862,0.490216 0.6697,1.089368 0.2911,0.599151 1.87758,3.515183 3.52552,6.480072 1.64793,2.964889 4.22726,7.597434 5.73181,10.294545 1.50456,2.697111 3.69967,6.79532 4.87803,9.107129 1.17835,2.31181 2.64926,5.359195 3.2687,6.771968 0.61943,1.412772 1.5514,3.724582 2.07106,5.137355 0.51964,1.412772 1.28973,3.800024 1.71131,5.305003 0.42158,1.504979 1.0073,4.079495 1.30161,5.721145 l 0.5351,2.98482 0.004,5.837906 0.004,5.837903 -0.42845,2.56868 c -0.23565,1.41277 -0.88155,4.35507 -1.43535,6.53845 -0.55379,2.18337 -1.49701,5.31988 -2.09605,6.97001 -0.59904,1.65013 -1.76546,4.56193 -2.59206,6.47066 -0.82659,1.90873 -1.8646,4.13142 -2.30668,4.93931 -0.44209,0.80789 -1.38399,2.80259 -2.09312,4.43266 -0.70914,1.63008 -1.86355,4.67747 -2.56537,6.77197 -0.70182,2.09451 -1.64494,5.2268 -2.09581,6.96066 -0.45088,1.73386 -1.13203,4.7287 -1.51366,6.65521 -0.38163,1.92651 -0.81614,4.25204 -0.96557,5.16784 l -0.27168,1.6651 -0.8593,0.14208 c -0.4726,0.0781 -2.64568,0.12893 -4.82907,0.11285 -2.18337,-0.0161 -4.19515,-0.0733 -4.47062,-0.12721 z"
       id="path42798" /></g></svg>
