<?xml version="1.0" encoding="UTF-8" standalone="no"?>
<!-- Created with Inkscape (http://www.inkscape.org/) -->

<svg
   width="1000"
   height="1000"
   viewBox="0 0 264.58333 264.58333"
   version="1.1"
   id="svg5"
   inkscape:version="1.2.2 (b0a8486541, 2022-12-01)"
   sodipodi:docname="agorism.svg"
   xml:space="preserve"
   xmlns:inkscape="http://www.inkscape.org/namespaces/inkscape"
   xmlns:sodipodi="http://sodipodi.sourceforge.net/DTD/sodipodi-0.dtd"
   xmlns="http://www.w3.org/2000/svg"
   xmlns:svg="http://www.w3.org/2000/svg"><sodipodi:namedview
     id="namedview7"
     pagecolor="#ffffff"
     bordercolor="#000000"
     borderopacity="0.25"
     inkscape:showpageshadow="2"
     inkscape:pageopacity="0.0"
     inkscape:pagecheckerboard="0"
     inkscape:deskcolor="#d1d1d1"
     inkscape:document-units="px"
     showgrid="false"
     inkscape:zoom="0.52787981"
     inkscape:cx="198.90891"
     inkscape:cy="541.79"
     inkscape:window-width="1920"
     inkscape:window-height="1004"
     inkscape:window-x="0"
     inkscape:window-y="0"
     inkscape:window-maximized="1"
     inkscape:current-layer="layer1" /><defs
     id="defs2" /><g
     inkscape:label="Layer 1"
     inkscape:groupmode="layer"
     id="layer1"><circle
       style="fill:#717171;stroke:#000000;stroke-width:0;stroke-dasharray:none;stroke-opacity:1;paint-order:stroke markers fill;fill-opacity:1"
       id="path236"
       cx="132.29167"
       cy="132.29167"
       r="125.37917" /><circle
       style="fill:#427328;stroke:#000000;stroke-width:5.2916666;fill-opacity:0;stroke-opacity:1;stroke-dasharray:none;paint-order:normal"
       id="path236-3"
       cx="132.29167"
       cy="132.29167"
       r="125.37917" /><path
       style="fill:#000000;stroke-width:0.0458505"
       d="m 129.27889,221.92129 c -6.4785,-0.23475 -12.75473,-1.14575 -18.96734,-2.75312 -13.050655,-3.37656 -25.268678,-9.81739 -35.57192,-18.752 -1.599102,-1.3867 -2.717444,-2.43532 -4.56691,-4.28225 -1.932719,-1.93004 -2.897686,-2.9576 -4.337899,-4.61927 -6.54678,-7.55351 -11.680458,-15.96101 -15.350591,-25.13992 -3.342507,-8.35953 -5.360466,-17.13682 -6.003306,-26.11191 -0.172859,-2.41335 -0.205849,-3.42739 -0.205849,-6.32738 0,-3.99082 0.156631,-6.72901 0.596671,-10.431 2.20103,-18.51679 10.369567,-35.966249 23.266787,-49.702016 0.989184,-1.053501 3.48802,-3.540637 4.401742,-4.381131 4.579825,-4.212811 9.206943,-7.702918 14.326829,-10.806339 11.516884,-6.980947 24.196496,-11.14874 37.620396,-12.36583 4.15144,-0.376395 8.88984,-0.443082 13.09035,-0.184237 14.81488,0.912936 28.94731,5.493689 41.56354,13.472019 10.34596,6.542645 19.42978,15.390979 26.2246,25.544758 1.81764,2.71617 3.03391,4.747603 4.74496,7.925065 0.12012,0.223068 0.23514,0.388129 0.25562,0.366804 0.074,-0.07704 0.44967,-0.871656 0.56651,-1.198231 0.81157,-2.268021 0.76481,-5.935856 -0.10793,-8.469155 -0.20837,-0.604822 -0.77974,-1.723931 -1.13535,-2.223753 -0.39893,-0.560703 -1.19953,-1.360216 -1.7542,-1.751813 -0.81379,-0.574536 -1.89365,-1.043622 -2.93444,-1.27471 -0.91509,-0.20318 -1.30075,-0.236904 -2.99175,-0.261602 l -1.63915,-0.02394 v -4.092353 -4.092348 l 1.57038,-0.02446 c 1.26275,-0.01967 1.68938,-0.04287 2.17777,-0.118362 3.61549,-0.558982 5.94507,-2.540541 6.61074,-5.623155 0.33509,-1.5518 0.21159,-3.585897 -0.31273,-5.150894 -0.75073,-2.240778 -2.19791,-3.910406 -4.24042,-4.892232 -1.23108,-0.59177 -2.37523,-0.859214 -3.94879,-0.923021 -3.59628,-0.145829 -6.49156,1.480279 -7.93277,4.455363 -0.46214,0.954004 -0.73736,1.898473 -0.9653,3.312705 l -0.024,0.149017 h -4.39844 -4.39842 l 0.0208,-0.126093 c 0.23864,-1.446173 0.45742,-2.364111 0.81141,-3.404404 1.49182,-4.384112 4.49029,-7.862011 8.51858,-9.880585 1.86392,-0.934009 3.76104,-1.492834 5.93808,-1.749132 0.96736,-0.113892 3.1466,-0.114104 4.19532,-4.19e-4 2.53216,0.274503 4.65464,0.88459 6.71711,1.930778 1.35348,0.68655 2.50251,1.471159 3.57635,2.442083 2.21333,2.001226 3.80196,4.671222 4.57717,7.692858 0.60036,2.340127 0.70572,4.374611 0.35163,6.789807 -0.61295,4.180606 -2.54871,7.310316 -5.67387,9.173405 -0.28371,0.16913 -0.51582,0.313606 -0.51582,0.321057 0,0.0074 0.21932,0.117003 0.48738,0.243446 3.90585,1.842385 6.19979,5.878887 6.71041,11.807933 0.0832,0.966183 0.10888,2.700298 0.0506,3.415868 -0.29822,3.657932 -1.6165,7.059864 -3.79335,9.789093 -0.4124,0.517066 -1.50534,1.643516 -2.02931,2.091516 l -0.29373,0.25116 0.46142,1.16704 c 3.0673,7.75776 4.94406,16.29788 5.5111,25.07811 0.2726,4.22093 0.23227,8.8125 -0.11382,12.95279 -1.43905,17.21766 -7.83504,33.43714 -18.55984,47.06562 -3.04549,3.87004 -6.7453,7.81872 -10.46203,11.16574 -9.23567,8.31701 -20.42621,14.7431 -32.12901,18.44987 -7.45452,2.36115 -14.49015,3.62186 -22.5478,4.04034 -1.2338,0.0641 -5.70122,0.0912 -7.03806,0.0428 z m 5.525,-19.07294 c 1.9342,-0.0746 3.498,-0.18984 5.31866,-0.39179 13.54484,-1.50242 26.398,-6.9952 36.84093,-15.74393 1.18946,-0.99649 1.92574,-1.66495 1.92574,-1.74837 0,-0.0439 -3.48593,-7.64386 -7.7465,-16.88863 l -7.74647,-16.80867 H 132.28202 101.1678 l -7.746406,16.80606 c -4.260521,9.24332 -7.750816,16.84134 -7.756206,16.88447 -0.01002,0.0805 0.556353,0.59706 1.801326,1.64294 4.425676,3.71797 8.885133,6.64115 13.981076,9.16462 8.12682,4.02435 16.80301,6.34447 26.06605,6.97038 2.25822,0.15259 5.11573,0.19685 7.29025,0.11288 z m 57.90722,-35.0064 c 0.61571,-1.11049 1.86578,-3.58347 2.39882,-4.74554 3.61096,-7.87213 5.69897,-16.02942 6.26718,-24.48421 0.19161,-2.85105 0.19169,-6.42491 0,-9.26181 -0.52292,-7.74773 -2.45298,-15.73858 -5.61477,-23.24625 -0.20709,-0.49174 -0.3721,-0.89984 -0.36668,-0.90689 0.006,-0.007 0.38924,0.0384 0.85294,0.10098 2.39956,0.32399 3.9701,0.44465 5.84078,0.44875 1.40299,0.004 2.17965,-0.0388 3.25509,-0.17512 3.35322,-0.42537 5.98901,-1.53841 8.3752,-3.53669 l 0.35107,-0.29399 -0.54224,-1.34126 c -0.7066,-1.747784 -1.26066,-3.038851 -1.83484,-4.27554 -0.41387,-0.891408 -1.07167,-2.197558 -1.28518,-2.551887 l -0.0778,-0.129027 -0.16227,0.290178 c -1.09509,1.958191 -2.56871,3.325859 -4.33849,4.026588 -2.19624,0.869564 -5.60655,0.885718 -8.06448,0.03818 -2.96268,-1.021584 -4.91267,-3.208917 -5.80516,-6.511753 -0.12444,-0.460512 -0.31949,-1.487047 -0.37097,-1.952409 l -0.0317,-0.286567 h -3.20504 c -1.76277,0 -3.20503,0.0094 -3.20503,0.02098 0,0.01155 0.22203,0.286911 0.49341,0.611933 2.55643,3.061779 5.17145,7.092727 7.76922,11.975984 0.89523,1.68286 1.65267,3.16738 1.62844,3.19162 -0.033,0.033 -1.07567,-0.23774 -1.72967,-0.44897 -2.70691,-0.87433 -4.89475,-2.27271 -6.5507,-4.18693 -1.74763,-2.020197 -2.89345,-4.507842 -3.53726,-7.679541 -0.17467,-0.860542 -0.36991,-2.24501 -0.43478,-3.083104 l -0.031,-0.400411 1.17075,-0.01224 1.17096,-0.01224 -0.69041,-0.802385 c -1.93288,-2.246368 -4.33614,-4.686608 -6.51223,-6.61246 -8.67864,-7.680616 -19.14272,-12.979929 -30.39073,-15.390731 -1.1915,-0.255381 -3.37498,-0.661529 -3.43352,-0.63868 -0.0206,0.008 10.78504,23.242595 24.01251,51.632352 13.22747,28.38975 24.06572,51.60161 24.08501,51.58188 0.0193,-0.0197 0.26387,-0.44849 0.54352,-0.95285 z M 96.49628,116.88939 c 13.20841,-28.351739 24.00246,-51.561448 23.98679,-51.577126 -0.037,-0.03701 -1.37056,0.203752 -2.7356,0.493918 -4.33573,0.92166 -8.55257,2.248393 -12.58598,3.959886 -16.660235,7.069416 -29.872515,20.387136 -36.835942,37.129882 -2.755891,6.62623 -4.493204,13.85015 -5.069367,21.07892 -0.164589,2.065 -0.185501,2.71491 -0.183681,5.70839 0.002,3.15861 0.03035,3.86531 0.251719,6.25861 0.894429,9.66947 3.848106,19.15748 8.676117,27.87006 0.266021,0.48006 0.427044,0.72727 0.447982,0.68776 0.01796,-0.0339 10.839556,-23.25856 24.047962,-51.6103 z m 58.05689,15.52153 c -0.0972,-0.25181 -22.25084,-47.718985 -22.27118,-47.718985 -0.0204,0 -22.17501,47.469645 -22.27101,47.718985 -0.0177,0.0458 4.45537,0.0573 22.27113,0.0573 17.81577,0 22.28874,-0.0118 22.27106,-0.0573 z"
       id="path965" /></g></svg>
