<?xml version="1.0" encoding="UTF-8" standalone="no"?>
<!-- Created with Inkscape (http://www.inkscape.org/) -->

<svg
   width="1000"
   height="1000"
   viewBox="0 0 264.58333 264.58333"
   version="1.1"
   id="svg5"
   inkscape:version="1.2.2 (b0a8486541, 2022-12-01)"
   sodipodi:docname="anarchism.svg"
   xml:space="preserve"
   xmlns:inkscape="http://www.inkscape.org/namespaces/inkscape"
   xmlns:sodipodi="http://sodipodi.sourceforge.net/DTD/sodipodi-0.dtd"
   xmlns="http://www.w3.org/2000/svg"
   xmlns:svg="http://www.w3.org/2000/svg"><sodipodi:namedview
     id="namedview7"
     pagecolor="#ffffff"
     bordercolor="#000000"
     borderopacity="0.25"
     inkscape:showpageshadow="2"
     inkscape:pageopacity="0.0"
     inkscape:pagecheckerboard="0"
     inkscape:deskcolor="#d1d1d1"
     inkscape:document-units="px"
     showgrid="false"
     inkscape:zoom="0.52787981"
     inkscape:cx="331.51485"
     inkscape:cy="490.64199"
     inkscape:window-width="1920"
     inkscape:window-height="1004"
     inkscape:window-x="0"
     inkscape:window-y="0"
     inkscape:window-maximized="1"
     inkscape:current-layer="layer1" /><defs
     id="defs2"><inkscape:perspective
       sodipodi:type="inkscape:persp3d"
       inkscape:vp_x="0 : 552.5 : 1"
       inkscape:vp_y="0 : 1000 : 0"
       inkscape:vp_z="815 : 552.5 : 1"
       inkscape:persp3d-origin="407.5 : 368.33333 : 1"
       id="perspective11259" /><linearGradient
       id="linearGradient5938"><stop
         style="stop-color:#000000;stop-opacity:1;"
         offset="0"
         id="stop5940" /><stop
         id="stop5946"
         offset="0.5"
         style="stop-color:#000000;stop-opacity:0;" /><stop
         style="stop-color:#000000;stop-opacity:1;"
         offset="1"
         id="stop5942" /></linearGradient><linearGradient
       id="linearGradient5196"><stop
         style="stop-color:#860909;stop-opacity:1;"
         offset="0"
         id="stop5198" /><stop
         style="stop-color:#bb0d0d;stop-opacity:1;"
         offset="1"
         id="stop5200" /></linearGradient><linearGradient
       id="linearGradient7546"><stop
         style="stop-color:#6d0000;stop-opacity:1;"
         offset="0"
         id="stop7548" /><stop
         style="stop-color:#8a0000;stop-opacity:0;"
         offset="1"
         id="stop7550" /></linearGradient><linearGradient
       id="linearGradient13829"><stop
         id="stop13831"
         offset="0.00000000"
         style="stop-color:#ffffff;stop-opacity:1.0000000;" /><stop
         id="stop13833"
         offset="1.0000000"
         style="stop-color:#c9c9c9;stop-opacity:1.0000000;" /></linearGradient><linearGradient
       id="linearGradient15699"><stop
         style="stop-color:black;stop-opacity:0.78431374;"
         offset="0"
         id="stop15701" /><stop
         style="stop-color:black;stop-opacity:0;"
         offset="1"
         id="stop15703" /></linearGradient><polygon
       id="XMLID_5_"
       points="469.75879,342.92773 529.12402,342.16113 529.12402,440.2207 469.75879,440.2207 469.75879,342.92773 " /></defs><g
     inkscape:label="Layer 1"
     inkscape:groupmode="layer"
     id="layer1"><circle
       style="fill:#1b1b1b;fill-opacity:1;stroke:#606060;stroke-width:0;stroke-dasharray:none;stroke-opacity:1;paint-order:stroke markers fill"
       id="path236"
       cx="132.29167"
       cy="132.29167"
       r="125.37917" /><circle
       style="fill:#212121;fill-opacity:0;stroke:#ffffff;stroke-width:5.29167;stroke-dasharray:none;stroke-opacity:1;paint-order:normal"
       id="path236-3"
       cx="132.29167"
       cy="132.29167"
       r="125.37917" /><path
       style="fill:#ffffff;fill-opacity:1;stroke-width:0.314517"
       d="m 124.90051,208.13882 c -1.55686,-0.15972 -4.38752,-0.58245 -6.29035,-0.9394 -1.90283,-0.35695 -5.01655,-1.07462 -6.91938,-1.59481 -1.90283,-0.52017 -5.08732,-1.58834 -7.07664,-2.37367 -1.98933,-0.78535 -5.327437,-2.31404 -7.418027,-3.3971 -2.090591,-1.08306 -5.133543,-2.85477 -6.762122,-3.93713 -1.62858,-1.08236 -4.297914,-3.04853 -5.931855,-4.36927 -1.633941,-1.32073 -4.363793,-3.79352 -6.066347,-5.4951 -1.702554,-1.70159 -4.134677,-4.39071 -5.404713,-5.97584 -1.270036,-1.58512 -3.178014,-4.18839 -4.239963,-5.78503 -1.061938,-1.59665 -2.70206,-4.36022 -3.64472,-6.14126 -0.942661,-1.78106 -2.365139,-4.79146 -3.161063,-6.6898 -0.795924,-1.89833 -1.922897,-5.01959 -2.504374,-6.93613 -0.581478,-1.91653 -1.411614,-5.31332 -1.844738,-7.54841 -0.433125,-2.2351 -0.937822,-5.69143 -1.121552,-7.68075 -0.18373,-1.98932 -0.334056,-5.10305 -0.334056,-6.91939 0,-1.81633 0.150326,-4.93005 0.334056,-6.91938 0.18373,-1.98932 0.688427,-5.44565 1.121552,-7.68074 0.433124,-2.23509 1.26326,-5.63188 1.844738,-7.54842 0.581477,-1.91653 1.70845,-5.0378 2.504374,-6.93612 0.795924,-1.89834 2.218402,-4.908745 3.161063,-6.689802 0.94266,-1.781046 2.582782,-4.544602 3.64472,-6.141253 1.061949,-1.596638 2.969927,-4.199915 4.239963,-5.785034 1.270036,-1.585132 3.7421,-4.314984 5.493464,-6.066359 1.751375,-1.751364 4.481227,-4.223428 6.066359,-5.493464 1.585119,-1.270036 4.202565,-3.187476 5.816536,-4.260992 1.613982,-1.073515 4.515404,-2.779576 6.447608,-3.791242 1.932216,-1.011678 5.083477,-2.480184 7.002807,-3.263365 1.91933,-0.783181 5.02307,-1.867038 6.89718,-2.408575 1.87412,-0.541524 5.11588,-1.317834 7.2039,-1.725128 2.08802,-0.407293 5.7071,-0.909554 8.04239,-1.116143 l 4.24598,-0.375614 4.87503,0.198149 c 2.68125,0.109006 6.3611,0.417909 8.17744,0.686514 1.81634,0.268592 5.21631,0.963391 7.5555,1.543978 2.33918,0.580586 5.6652,1.572293 7.39115,2.203804 1.72596,0.631511 5.26109,2.195626 7.85585,3.475826 l 4.71777,2.327634 3.14518,2.091708 c 1.72984,1.150438 4.47737,3.162037 6.10562,4.470219 1.62825,1.308183 4.31737,3.739284 5.97582,5.402455 1.65847,1.663172 4.09598,4.364649 5.41671,6.003297 1.32074,1.638637 3.26945,4.285694 4.33049,5.882332 1.06103,1.596651 2.70042,4.360207 3.64308,6.141253 0.94266,1.781057 2.36514,4.791462 3.16106,6.689802 0.79592,1.89832 1.9229,5.01959 2.50437,6.93612 0.58148,1.91654 1.41162,5.31333 1.84474,7.54842 0.43313,2.23509 0.93782,5.69142 1.12155,7.68074 0.18373,1.98933 0.33406,5.10305 0.33406,6.91938 0,1.81634 -0.15033,4.93007 -0.33406,6.91939 -0.18373,1.98932 -0.68842,5.44565 -1.12155,7.68075 -0.43312,2.23509 -1.26326,5.63188 -1.84474,7.54841 -0.58147,1.91654 -1.70845,5.0378 -2.50437,6.93613 -0.79592,1.89834 -2.2184,4.90874 -3.16106,6.6898 -0.94266,1.78104 -2.58205,4.54461 -3.64308,6.14126 -1.06104,1.59664 -3.00975,4.24369 -4.33049,5.88234 -1.32073,1.63864 -3.74974,4.32775 -5.3978,5.97583 -1.64808,1.64806 -4.33719,4.07798 -5.97583,5.39984 -1.63865,1.32184 -4.39468,3.34416 -6.12452,4.49403 l -3.14518,2.09067 -4.71777,2.33128 c -2.59476,1.2822 -6.12989,2.84797 -7.85585,3.47948 -1.72595,0.63151 -5.05197,1.62322 -7.39115,2.2038 -2.33919,0.58059 -5.73916,1.27999 -7.5555,1.55422 l -3.30243,0.4986 -6.13309,0.12384 -6.13308,0.12383 z m 12.8952,-15.7225 c 1.90284,-0.17943 4.87503,-0.61156 6.60487,-0.96028 1.72985,-0.34873 4.84357,-1.19577 6.91939,-1.8823 l 3.77421,-1.24826 3.7742,-1.85406 c 2.07582,-1.01974 5.048,-2.70295 6.60487,-3.74047 1.55685,-1.03752 4.05295,-2.90111 5.54687,-4.1413 l 2.71623,-2.2549 -4.7941,-9.80195 c -2.63675,-5.39108 -5.87678,-11.96034 -7.20006,-14.59836 l -2.40597,-4.79639 h -26.53088 -26.53088 l -7.132116,14.83977 -7.132113,14.83976 0.147022,0.38313 c 0.08083,0.21071 1.112196,1.15924 2.291854,2.10786 1.179657,0.94861 3.347872,2.5256 4.818232,3.50441 1.470371,0.97882 4.371791,2.6175 6.447611,3.6415 l 3.7742,1.86182 3.77421,1.25273 c 2.07582,0.689 5.29458,1.55275 7.15282,1.91944 1.85823,0.36668 4.54736,0.77969 5.97583,0.9178 1.42847,0.13809 3.80025,0.27026 5.27062,0.29368 1.47037,0.0234 4.23025,-0.10426 6.13308,-0.28363 z m -35.09446,-74.2419 c 11.97694,-24.925193 21.69366,-45.401122 21.59271,-45.502057 -0.10092,-0.100923 -1.77492,0.129857 -3.71995,0.512889 -1.94504,0.383043 -5.18713,1.247687 -7.20465,1.921458 -2.01751,0.67377 -5.13123,1.918153 -6.91938,2.765311 -1.78814,0.847147 -4.2419,2.149659 -5.45279,2.894455 -1.210889,0.744809 -3.530464,2.339486 -5.154586,3.543738 l -2.952977,2.18954 -3.199886,3.192029 c -1.759946,1.755619 -4.085144,4.36388 -5.167099,5.796129 -1.081956,1.432262 -2.689911,3.767551 -3.573218,5.189538 -0.883308,1.42198 -2.282582,4.00076 -3.109484,5.73061 -0.826914,1.72984 -2.068337,4.84356 -2.758714,6.91937 -0.690389,2.07582 -1.544763,5.18955 -1.898623,6.91939 -0.353849,1.72984 -0.812816,5.0927 -1.019928,7.47302 l -0.376577,4.32785 0.373748,4.63589 0.373748,4.6359 0.646192,3.14517 c 0.355405,1.72985 1.205975,4.84358 1.890171,6.91939 l 1.243978,3.77421 2.062252,4.16735 c 1.134235,2.29205 2.171732,4.16736 2.305535,4.16736 0.133804,0 10.042592,-20.39335 22.019528,-45.31854 z m 83.85046,40.52215 c 0.93413,-1.94608 2.26256,-5.23672 2.95205,-7.31253 0.68947,-2.07581 1.54355,-5.18954 1.89792,-6.91939 0.35438,-1.72983 0.81136,-5.16201 1.0155,-7.62704 l 0.37117,-4.48188 -0.37117,-4.48187 c -0.20414,-2.46502 -0.66112,-5.8972 -1.0155,-7.62704 -0.35437,-1.72984 -1.20592,-4.84357 -1.8923,-6.91939 l -1.24797,-3.7742 -1.85406,-3.77421 c -1.01974,-2.07582 -2.70108,-5.048 -3.7363,-6.604865 -1.03524,-1.556852 -3.02146,-4.191047 -4.41383,-5.853747 -1.39237,-1.662708 -3.7061,-4.078332 -5.14165,-5.368053 -1.43551,-1.28971 -3.4858,-3.009132 -4.55614,-3.820913 -1.07035,-0.811782 -3.12257,-2.206765 -4.5605,-3.099963 -1.43793,-0.893197 -4.02974,-2.300555 -5.75958,-3.127457 -1.72985,-0.826914 -4.84357,-2.068456 -6.91938,-2.759 -2.07582,-0.690543 -5.2419,-1.55237 -7.03573,-1.915193 -1.79383,-0.362812 -3.3662,-0.618138 -3.49416,-0.567391 -0.12796,0.05076 8.25327,17.430041 18.62496,38.620632 10.37169,21.19061 20.22373,41.31996 21.89343,44.73191 1.6697,3.41193 3.15034,6.20721 3.2903,6.21171 0.13996,0.005 1.01879,-1.58405 1.95294,-3.53012 z m -35.07449,-27.48619 c 0,-0.11103 -4.20351,-8.81526 -9.34114,-19.34282 -5.13763,-10.52756 -9.42504,-19.141005 -9.52758,-19.141005 -0.10258,0 -4.32054,8.598115 -9.37338,19.106925 -5.05282,10.50881 -9.18662,19.21308 -9.18621,19.34282 l 7.5e-4,0.23588 h 18.71378 c 10.29258,0 18.71378,-0.0908 18.71378,-0.2018 z"
       id="path53736" /></g></svg>
