<?xml version="1.0" encoding="UTF-8" standalone="no"?>
<!-- Created with Inkscape (http://www.inkscape.org/) -->

<svg
   width="1000"
   height="1000"
   viewBox="0 0 264.58333 264.58333"
   version="1.1"
   id="svg5"
   inkscape:version="1.2.2 (b0a8486541, 2022-12-01)"
   sodipodi:docname="capitalism.svg"
   xmlns:inkscape="http://www.inkscape.org/namespaces/inkscape"
   xmlns:sodipodi="http://sodipodi.sourceforge.net/DTD/sodipodi-0.dtd"
   xmlns="http://www.w3.org/2000/svg"
   xmlns:svg="http://www.w3.org/2000/svg">
  <sodipodi:namedview
     id="namedview7"
     pagecolor="#ffffff"
     bordercolor="#000000"
     borderopacity="0.25"
     inkscape:showpageshadow="2"
     inkscape:pageopacity="0.0"
     inkscape:pagecheckerboard="0"
     inkscape:deskcolor="#d1d1d1"
     inkscape:document-units="px"
     showgrid="false"
     inkscape:zoom="0.52787981"
     inkscape:cx="172.38772"
     inkscape:cy="496.3251"
     inkscape:window-width="1920"
     inkscape:window-height="1004"
     inkscape:window-x="0"
     inkscape:window-y="0"
     inkscape:window-maximized="1"
     inkscape:current-layer="layer1" />
  <defs
     id="defs2" />
  <g
     inkscape:label="Layer 1"
     inkscape:groupmode="layer"
     id="layer1">
    <circle
       style="fill:#427328;stroke:#eecc0e;stroke-width:0;stroke-dasharray:none;stroke-opacity:1;paint-order:stroke markers fill"
       id="path236"
       cx="132.29167"
       cy="132.29167"
       r="125.37917" />
    <circle
       style="fill:#427328;stroke:#f4d527;stroke-width:5.2916666;fill-opacity:0;stroke-opacity:1;stroke-dasharray:none;paint-order:normal"
       id="path236-3"
       cx="132.29167"
       cy="132.29167"
       r="125.37917" />
    <path
       fill="currentColor"
       d="M 143.25703,118.98136 V 93.121498 c 8.4333,2.06419 16.67722,5.99556 23.4222,12.180512 l 0.029,-0.0387 c 0.50367,0.4012 1.11523,0.67769 1.811,0.67769 0.91551,0 1.70099,-0.44277 2.24324,-1.09474 l 0.0387,0.008 10.9015,-15.367592 -0.029,-0.01 c 0.44761,-0.51625 0.7444,-1.17151 0.7444,-1.90817 0,-0.8691 -0.39153,-1.63186 -0.98985,-2.1716 -10.11177,-9.338367 -23.0212,-14.945199 -38.17396,-16.630816 V 53.915243 h -0.003 c 0,-1.629353 -1.3199,-2.949153 -2.94925,-2.949153 h -11.70979 c -1.62936,0 -2.94916,1.3198 -2.94916,2.949153 v 14.474882 c -25.29666,2.621813 -40.285657,18.738803 -40.285657,37.664305 0,25.48379 20.987167,32.79161 40.286107,37.47752 v 29.0418 c -12.3928,-2.22013 -22.57814,-8.6429 -29.507382,-15.83306 q -0.06767,-0.0773 -0.153713,-0.14792 l -0.13341,-0.13051 -0.01933,0.029 a 2.8903666,2.8903666 0 0 0 -1.83904,-0.69799 2.9159451,2.9159451 0 0 0 -2.552787,1.5552 l -0.03867,-0.005 -10.551056,15.66426 0.0097,0.029 a 2.8903666,2.8903666 0 0 0 -0.747294,1.91328 c 0,0.93871 0.465004,1.73676 1.145883,2.27649 l -0.029,0.0387 c 10.305599,10.30551 24.734368,17.80001 44.409378,19.48823 v 13.91466 c 0,1.62935 1.3198,2.94915 2.94915,2.94915 h 11.7098 c 1.62935,0 2.94924,-1.32241 2.94924,-2.94915 h 0.003 v -13.9174 c 27.54547,-2.81361 41.22482,-18.92297 41.22482,-39.72588 0,-25.66805 -21.73659,-33.16757 -41.22482,-38.03775 m -17.61333,-4.31255 c -7.68117,-2.43252 -12.92992,-5.24614 -12.92992,-10.68157 0,-6.369022 4.68601,-10.865742 12.92992,-11.991131 z m 17.61333,58.27801 V 147.8447 c 8.24653,2.62181 14.05541,5.62471 14.05541,11.80444 0,5.99817 -4.49923,11.42847 -14.05541,13.30338"
       id="path927"
       style="stroke-width:2.55784;fill:#f4d527;fill-opacity:1" />
  </g>
</svg>
