<?xml version="1.0" encoding="UTF-8" standalone="no"?>
<!-- Created with Inkscape (http://www.inkscape.org/) -->

<svg
   width="1000"
   height="1000"
   viewBox="0 0 264.58333 264.58333"
   version="1.1"
   id="svg5"
   inkscape:version="1.2.2 (b0a8486541, 2022-12-01)"
   sodipodi:docname="conservatism.svg"
   xml:space="preserve"
   xmlns:inkscape="http://www.inkscape.org/namespaces/inkscape"
   xmlns:sodipodi="http://sodipodi.sourceforge.net/DTD/sodipodi-0.dtd"
   xmlns="http://www.w3.org/2000/svg"
   xmlns:svg="http://www.w3.org/2000/svg"><sodipodi:namedview
     id="namedview7"
     pagecolor="#ffffff"
     bordercolor="#000000"
     borderopacity="0.25"
     inkscape:showpageshadow="2"
     inkscape:pageopacity="0.0"
     inkscape:pagecheckerboard="0"
     inkscape:deskcolor="#d1d1d1"
     inkscape:document-units="px"
     showgrid="false"
     inkscape:zoom="0.52787981"
     inkscape:cx="331.51485"
     inkscape:cy="490.64199"
     inkscape:window-width="1920"
     inkscape:window-height="1004"
     inkscape:window-x="0"
     inkscape:window-y="0"
     inkscape:window-maximized="1"
     inkscape:current-layer="layer1" /><defs
     id="defs2" /><g
     inkscape:label="Layer 1"
     inkscape:groupmode="layer"
     id="layer1"><circle
       style="fill:#c51818;fill-opacity:1;stroke:#ea8a12;stroke-width:0;stroke-dasharray:none;stroke-opacity:1;paint-order:stroke markers fill"
       id="path236"
       cx="132.29167"
       cy="132.29167"
       r="125.37917" /><circle
       style="fill:#ffffff;fill-opacity:0;stroke:#ffffff;stroke-width:5.29167;stroke-dasharray:none;stroke-opacity:1;paint-order:normal"
       id="path236-3"
       cx="132.29167"
       cy="132.29167"
       r="125.37917" /><path
       style="fill:#ffffff;fill-opacity:1;stroke-width:0.533833"
       d="m 52.867415,198.67995 -1.067431,-0.78043 v -38.34571 -38.34572 l 73.789086,-0.13526 73.78909,-0.13526 0.14697,28.77321 0.14682,28.77319 1.01696,1.12338 1.01694,1.12338 h 1.78568 1.78569 l 1.06766,-1.06767 1.06766,-1.06765 v -5.87218 -5.87217 l 1.06767,-1.06767 1.06767,-1.06767 h 6.03706 6.03706 l 1.03623,0.76034 1.03625,0.76032 -0.044,8.44831 -0.044,8.4483 -1.17606,3.01751 c -0.64683,1.65963 -1.99942,4.09586 -3.00574,5.41382 l -1.82971,2.39629 -2.65826,1.63563 c -1.46204,0.89961 -4.05337,2.0493 -5.75854,2.5549 l -3.10028,0.91924 -5.33834,-0.0156 -5.33834,-0.0156 -3.19907,-1.23356 -3.19906,-1.23357 -2.97756,-2.98273 -2.97754,-2.98272 -1.70127,-3.46992 -1.70128,-3.46991 -1.31354,-5.33835 c -0.72244,-2.93609 -1.79251,-9.02389 -2.37793,-13.52846 l -1.0644,-8.19013 -0.95469,-1.94567 -0.95468,-1.94568 -1.80052,-1.19915 c -0.9903,-0.65954 -2.00172,-1.07481 -2.24762,-0.92284 l -0.44708,0.27631 -0.0263,23.60374 -0.0263,23.60373 -0.89766,0.6673 -0.89765,0.66729 h -14.84523 -14.84532 l -1.06767,-1.06767 -1.06767,-1.06767 V 182.06516 166.85088 H 110.28488 85.758586 l -0.16351,15.45534 -0.16353,15.45534 -0.69318,0.69313 -0.69317,0.69315 -15.05518,0.15626 -15.055157,0.15626 -1.067429,-0.78042 z M 51.882982,115.7363 c -0.135815,-0.22022 -0.279694,-4.12388 -0.319741,-8.6748 l -0.07281,-8.274443 0.560636,-4.94033 0.560636,-4.940353 1.329175,-3.53128 c 0.731035,-1.9422 2.217545,-5.003992 3.30335,-6.803987 l 1.974182,-3.272725 4.8453,-4.804512 4.845316,-4.804502 4.642839,-2.85644 c 2.55355,-1.571042 6.87168,-3.821275 9.59582,-5.000517 l 4.953,-2.144077 5.882021,-1.493344 c 3.235099,-0.82134 7.756714,-1.754093 10.048014,-2.072783 l 4.166,-0.579437 h 17.79175 17.79176 l 6.11773,1.045878 c 3.36477,0.575234 8.41745,1.782541 11.2282,2.682905 2.81075,0.900364 6.50098,2.251982 8.20052,3.003594 1.69952,0.751614 4.70918,2.312198 6.68814,3.467967 1.97894,1.155767 5.40042,3.533651 7.60328,5.284186 l 4.00521,3.182794 2.98831,3.611806 2.98829,3.611821 2.09652,4.270663 c 1.15307,2.34887 2.45923,5.70244 2.90257,7.45238 l 0.80605,3.18169 v 11.899106 11.89911 H 125.76748 52.129912 Z m 34.120664,-16.015033 1.57613,-5.20486 6.13263,-0.26692 6.13263,-0.26692 -4.67104,-3.446253 c -2.56908,-1.89544 -4.6668,-3.69713 -4.66162,-4.00376 0.006,-0.30662 0.72392,-2.82156 1.59718,-5.58877 0.87326,-2.767183 1.50814,-5.110847 1.41088,-5.208126 -0.0973,-0.09728 -2.25188,1.388285 -4.788,3.301233 l -4.61113,3.478103 -4.68323,-3.439792 c -2.57578,-1.891885 -4.7458,-3.267846 -4.82228,-3.05769 -0.0764,0.210142 0.58414,2.521574 1.46804,5.136492 0.88391,2.61494 1.60709,5.02099 1.60709,5.3468 0,0.32581 -2.1791,2.1425 -4.84245,4.03707 l -4.84246,3.444693 6.14775,0.15014 6.14776,0.15015 1.74431,5.32165 c 0.95937,2.926903 1.88771,5.321653 2.063,5.321653 0.17526,0 1.02794,-2.34219 1.89481,-5.204893 z m 41.618894,-0.002 1.61964,-5.2029 6.12095,-0.26692 6.12095,-0.26691 -4.67106,-3.446253 c -2.56907,-1.89545 -4.66679,-3.69714 -4.66161,-4.00376 0.006,-0.30663 0.72392,-2.82157 1.59718,-5.58877 0.87325,-2.767188 1.51607,-5.102925 1.42848,-5.190521 -0.0875,-0.08752 -2.26945,1.377972 -4.84858,3.256812 l -4.68931,3.416079 -4.62265,-3.395378 c -2.54246,-1.867445 -4.68521,-3.223424 -4.7617,-3.013268 -0.0764,0.210141 0.58414,2.521573 1.46805,5.136496 0.8839,2.6151 1.60709,5.03424 1.60709,5.37607 0,0.34181 -2.03306,2.03839 -4.51793,3.77015 -2.48487,1.73177 -4.52679,3.328833 -4.5376,3.549043 l -0.0197,0.40038 h 5.83741 5.83741 l 1.74978,5.33832 c 0.96238,2.936093 1.87887,5.337473 2.03664,5.336383 0.15777,-10e-4 1.01569,-2.34328 1.9065,-5.204883 z m 41.65919,0.002 1.57613,-5.20486 6.13263,-0.26692 6.13263,-0.26692 -3.20301,-2.346173 c -1.76165,-1.29039 -3.96261,-2.90803 -4.89104,-3.59475 l -1.68803,-1.2486 1.82565,-5.43177 c 1.00412,-2.987473 1.74883,-5.508596 1.65493,-5.602497 -0.0938,-0.09398 -2.26896,1.37563 -4.83347,3.265624 l -4.66272,3.436353 -4.64393,-3.405563 c -2.55415,-1.873075 -4.72328,-3.326214 -4.82027,-3.22922 -0.097,0.09698 0.56258,2.483142 1.46571,5.302563 0.90314,2.81941 1.64207,5.31486 1.64207,5.54544 0,0.23057 -2.1791,1.96933 -4.84245,3.8639 l -4.84246,3.444693 6.14775,0.15014 6.14774,0.15015 1.74432,5.32165 c 0.95938,2.926903 1.88772,5.321653 2.06299,5.321653 0.17529,0 1.02795,-2.34219 1.89483,-5.204893 z"
       id="path28130" /></g></svg>
