<?xml version="1.0" encoding="UTF-8" standalone="no"?>
<!-- Created with Inkscape (http://www.inkscape.org/) -->

<svg
   width="1000"
   height="1000"
   viewBox="0 0 264.58333 264.58333"
   version="1.1"
   id="svg5"
   inkscape:version="1.2.2 (b0a8486541, 2022-12-01)"
   sodipodi:docname="Cosmopolitanism.svg"
   xml:space="preserve"
   xmlns:inkscape="http://www.inkscape.org/namespaces/inkscape"
   xmlns:sodipodi="http://sodipodi.sourceforge.net/DTD/sodipodi-0.dtd"
   xmlns="http://www.w3.org/2000/svg"
   xmlns:svg="http://www.w3.org/2000/svg"><sodipodi:namedview
     id="namedview7"
     pagecolor="#ffffff"
     bordercolor="#000000"
     borderopacity="0.25"
     inkscape:showpageshadow="2"
     inkscape:pageopacity="0.0"
     inkscape:pagecheckerboard="0"
     inkscape:deskcolor="#d1d1d1"
     inkscape:document-units="px"
     showgrid="false"
     inkscape:zoom="0.52787981"
     inkscape:cx="219.74699"
     inkscape:cy="490.64199"
     inkscape:window-width="1920"
     inkscape:window-height="1004"
     inkscape:window-x="0"
     inkscape:window-y="0"
     inkscape:window-maximized="1"
     inkscape:current-layer="layer1" /><defs
     id="defs2" /><g
     inkscape:label="Layer 1"
     inkscape:groupmode="layer"
     id="layer1"><circle
       style="fill:#013ba6;fill-opacity:1;stroke:#ea8a12;stroke-width:0;stroke-dasharray:none;stroke-opacity:1;paint-order:stroke markers fill"
       id="path236"
       cx="132.29167"
       cy="132.29167"
       r="125.37917" /><circle
       style="fill:#427328;fill-opacity:0;stroke:#fffcf4;stroke-width:5.29167;stroke-dasharray:none;stroke-opacity:1;paint-order:normal"
       id="path236-3"
       cx="132.29167"
       cy="132.29167"
       r="125.37917" /><path
       style="fill:#ededed;fill-opacity:1;stroke-width:1.30004"
       d="M 95.23949,213.74906 C 78.374325,206.56047 68.134051,194.79694 65.28878,179.34305 l -0.905253,-4.91677 3.402598,1.55034 c 1.871423,0.85267 3.402589,2.2405 3.402589,3.08406 0,0.84355 1.789987,5.11579 3.977717,9.49384 6.81765,13.64331 19.831033,21.47846 35.673559,21.47846 16.14291,0 29.57856,-8.85346 36.35682,-23.95741 3.09756,-6.90233 3.49502,-9.21453 3.07217,-17.87229 -0.55284,-11.31884 -3.82488,-19.19494 -11.07559,-26.65992 -4.39462,-4.52449 -4.4111,-4.58554 -1.6386,-6.06934 2.40158,-1.28528 3.35002,-0.97282 6.656,2.19278 2.12043,2.03039 5.71729,7.49426 7.99299,12.14192 3.72809,7.61377 4.13767,9.62144 4.13767,20.2817 0,10.95919 -0.33547,12.48781 -4.55015,20.73432 -8.21813,16.07969 -23.66015,25.35533 -41.97509,25.21346 -5.78515,-0.0449 -11.368323,-0.92161 -14.57672,-2.28914 z m 45.17645,0.9677 c -4.80828,-1.45705 -5.2425,-2.54529 -1.85883,-4.65843 1.67291,-1.04472 4.37571,-1.11256 9.22358,-0.23143 12.0334,2.18713 25.47005,-2.26176 34.69632,-11.48801 11.68763,-11.68764 15.21925,-31.66398 8.02979,-45.41975 -1.90868,-3.65195 -4.86407,-8.33209 -6.56752,-10.40035 -2.16847,-2.63285 -2.86379,-4.69635 -2.31888,-6.88168 0.74555,-2.99004 1.0337,-2.83713 6.85538,3.63801 20.36287,22.6484 13.37515,58.39633 -14.14001,72.33792 -6.42497,3.25545 -9.29506,3.88905 -18.64434,4.11592 -6.07771,0.14755 -12.95165,-0.308 -15.27549,-1.0122 z m -20.98301,-13.59254 c -15.25602,-17.37564 -15.26967,-44.87214 -0.0307,-62.18432 10.08039,-11.4519 30.97334,-17.99307 45.38966,-14.21054 4.41729,1.159 4.55015,1.37952 4.55015,7.55282 0,5.67511 -0.34951,6.45617 -3.25009,7.26301 -6.81638,1.89604 -16.399,1.27215 -18.64912,-1.21421 -1.18341,-1.3076 -2.15161,-2.64831 -2.15161,-2.97937 0,-0.33106 3.99474,-0.63851 8.87721,-0.68322 4.88246,-0.0447 9.99311,-0.70578 11.35698,-1.46904 2.27118,-1.27103 2.15325,-1.47216 -1.40195,-2.39093 -11.99573,-3.10002 -26.89821,0.52289 -36.341,8.83476 -8.58383,7.55579 -12.67704,16.26823 -13.41404,28.55201 -0.5248,8.74696 -0.18005,10.8476 2.88087,17.55058 1.91238,4.18789 5.55879,9.7529 8.10318,12.36672 4.46926,4.59119 4.536,4.80063 1.9676,6.1752 -3.58754,1.91998 -3.3346,2.02143 -7.88701,-3.16347 z M 74.304014,176.62687 c -11.270573,-3.65633 -21.098706,-12.47402 -27.562088,-24.72841 -3.126652,-5.92803 -3.502116,-8.03368 -3.502116,-19.64032 0,-11.70895 0.359587,-13.68307 3.619677,-19.87232 3.704749,-7.03339 12.020176,-17.178859 14.080173,-17.178859 2.821716,0 0.956849,7.497649 -2.74761,11.046759 -8.693096,8.32851 -11.682945,27.46443 -6.468603,41.40103 3.508575,9.37746 13.650946,19.07798 23.296763,22.28179 5.514248,1.83155 9.441646,2.17162 18.386689,1.5921 8.895841,-0.57634 11.522201,-0.35255 12.051541,1.02691 0.37228,0.97011 -0.25477,2.5379 -1.39346,3.48396 -2.88174,2.39426 -22.969114,2.79071 -29.760966,0.58736 z m 44.986256,0.16012 c -2.89003,-1.54767 -3.22685,-2.50521 -3.04013,-8.64305 0.16341,-5.3703 0.92451,-7.66643 3.4288,-10.34384 1.77036,-1.89271 4.40532,-5.78138 5.85546,-8.64148 l 2.63663,-5.20017 1.48719,3.86329 c 1.86706,4.85008 0.61922,7.79823 -6.62898,15.66157 -2.98054,3.23354 -4.99295,6.30595 -4.47196,6.82758 1.21735,1.21894 26.21246,1.24619 27.4327,0.03 0.50686,-0.50521 -1.46323,-3.62784 -4.37799,-6.93918 -8.96601,-10.1859 -13.7364,-22.72312 -9.02004,-23.70575 1.67042,-0.34802 3.11432,1.48322 5.59582,7.09695 1.83948,4.1613 4.83588,9.12383 6.65869,11.02788 3.52805,3.68525 5.33782,14.27847 3.06707,17.95262 -1.62584,2.63069 -24.11646,3.42718 -28.62326,1.01367 z m 43.22637,0.28202 c -1.6088,-0.64665 -2.92508,-2.24136 -2.92508,-3.54377 0,-2.147 1.30446,-2.36329 13.97543,-2.31697 7.68651,0.028 14.85299,-0.24145 15.92553,-0.59895 1.38033,-0.46011 1.95005,0.28239 1.95005,2.54148 0,2.29647 -0.91144,3.44501 -3.25011,4.09555 -4.7318,1.3162 -22.26129,1.19514 -25.67582,-0.17734 z m -62.2305,-11.20231 c -8.465377,-7.92119 -14.796964,-22.30222 -14.796964,-33.60861 0,-7.81749 3.539014,-18.51476 8.695707,-26.28427 5.075121,-7.646647 17.026877,-16.389367 25.552907,-18.691989 8.91814,-2.408522 25.0949,-0.88661 32.86487,3.091958 8.86694,4.540227 17.68297,13.573711 22.17549,22.722431 3.19453,6.50544 3.664,8.96067 3.664,19.16187 0,10.16242 -0.47494,12.66752 -3.61326,19.05817 -1.9873,4.04679 -6.03255,9.85068 -8.98942,12.89756 -5.25237,5.4122 -5.40139,5.47151 -6.47249,2.57604 -0.87656,-2.3695 -0.27467,-3.89959 3.00185,-7.63136 6.95951,-7.9264 9.53175,-15.16912 9.55368,-26.90041 0.0155,-8.7886 -0.54592,-11.55162 -3.62867,-17.82935 -4.36444,-8.88768 -13.07418,-16.952207 -21.35639,-19.774232 -7.70157,-2.624189 -21.59197,-2.624189 -29.29354,0 -8.28222,2.822025 -16.99197,10.886552 -21.356389,19.774232 -3.082752,6.27773 -3.645088,9.04075 -3.628669,17.82935 0.02205,11.80663 2.593556,18.97331 9.720318,27.09024 3.41538,3.8899 4.0263,5.39209 3.06711,7.54172 -1.17128,2.62494 -1.2854,2.6023 -5.16014,-1.02335 z m 102.20678,-0.21432 c 0,-2.36541 1.37608,-4.97527 3.89638,-7.38987 11.95582,-11.45441 11.95582,-40.55444 0,-52.00885 -3.73109,-3.57462 -5.56201,-11.046757 -2.70682,-11.046757 2.04886,0 11.55169,11.649047 14.67513,17.989507 2.51137,5.09796 2.98591,8.12736 2.98591,19.06168 0,14.91373 -2.09572,20.71946 -11.22164,31.08705 -6.08049,6.90781 -7.62896,7.3761 -7.62896,2.30724 z M 66.909262,163.10342 c -1.839437,-2.03689 -1.80511,-2.87341 0.371229,-9.04642 2.665816,-7.56146 5.660306,-12.18403 11.463323,-17.69592 3.804247,-3.61341 3.912293,-3.63499 4.76419,-0.95091 0.619831,1.95293 -0.15297,3.96002 -2.675437,6.94737 -3.985859,4.72066 -9.611809,16.05286 -9.631148,19.39976 -0.01934,3.26806 -1.99642,3.88826 -4.292157,1.34612 z m 31.580339,-23.55829 c -2.902727,-0.80744 -3.250111,-1.58631 -3.250111,-7.28704 0,-5.70074 0.347384,-6.47961 3.250111,-7.28705 7.739259,-2.15276 29.900959,-0.24166 29.900959,2.57851 0,0.45814 -1.16712,1.56187 -2.59359,2.45271 -1.95532,1.22112 -4.08432,1.28565 -8.65102,0.26224 -7.59217,-1.70146 -22.096426,0.6926 -18.019365,2.97424 1.325095,0.74157 6.404015,1.38488 11.286475,1.42959 4.88247,0.0447 8.87721,0.4538 8.87721,0.9091 0,0.45529 -1.06985,1.79602 -2.37745,2.97937 -2.47698,2.24166 -12.06781,2.75615 -18.423219,0.98833 z M 76.607912,125.84491 C 67.736076,116.22012 65.441731,109.82319 65.385996,94.556866 65.32972,79.143277 67.594728,72.936929 76.911126,62.97695 85.562644,53.727803 95.332239,49.264584 108.23991,48.664459 c 22.16543,-1.030549 39.54045,11.143855 46.72608,32.740249 1.16176,3.491673 1.84433,6.616429 1.51684,6.943933 -2.00236,2.002347 -5.85912,-1.966048 -9.06689,-9.329345 -11.1397,-25.570437 -40.98508,-32.629166 -63.284779,-14.967472 -3.098436,2.454007 -6.665048,7.278489 -9.225032,12.478577 -7.295079,14.818416 -5.526674,30.498259 4.99415,44.281269 3.499795,4.58498 4.27335,6.52144 3.393141,8.49408 -1.04341,2.33835 -1.610696,2.04468 -6.685508,-3.46084 z m 104.822038,2.80531 c -0.44226,-2.31351 0.0953,-4.16476 1.60644,-5.53233 1.2491,-1.13043 4.23461,-5.67903 6.63445,-10.108 3.84946,-7.10426 4.36285,-9.20105 4.35906,-17.802987 -0.004,-7.787553 -0.68821,-11.212333 -3.40163,-17.012991 -7.90558,-16.900063 -25.64499,-26.631251 -42.84758,-23.50458 -6.56149,1.19259 -11.58989,0.04448 -11.58989,-2.646429 0,-1.981828 11.3865,-3.867814 20.75387,-3.437524 38.27544,1.758194 57.3575,48.494704 31.3487,76.780441 -6.175,6.71558 -6.2013,6.72809 -6.86342,3.2644 z m -51.15398,-7.11748 c 2.40156,-9.90034 11.99053,-23.725763 16.45556,-23.725763 3.75884,0 8.9599,3.838513 8.9599,6.612663 0,1.32742 -1.42079,5.62616 -3.1573,9.55272 -2.36602,5.34999 -4.01031,7.35334 -6.56076,7.99346 -4.86576,1.22123 -5.18502,0.15084 -1.64363,-5.51042 3.21708,-5.14291 6.53942,-13.5037 5.69967,-14.34345 -1.27667,-1.27668 -10.04958,10.60938 -12.10778,16.40435 -1.92261,5.41325 -2.89275,6.59156 -5.42701,6.59156 -2.70998,0 -2.98024,-0.43553 -2.21865,-3.57512 z m -13.13418,-0.31868 c -2.64906,-1.06865 -8.25186,-12.99975 -8.25186,-17.57227 0,-1.96296 6.33789,-5.834813 9.55109,-5.834813 2.08924,0 9.44195,7.863903 11.42775,12.222263 0.86651,1.90179 0.79784,4.04299 -0.21376,6.66519 l -1.4904,3.86329 -3.01751,-5.85021 c -1.65962,-3.2176 -4.81335,-7.55595 -7.00831,-9.64078 l -3.99079,-3.79061 1.20183,4.19056 c 0.66101,2.30483 2.69555,6.86312 4.5212,10.12957 1.82565,3.26643 3.31937,6.15779 3.31937,6.42524 0,0.80413 -3.06934,0.3944 -6.04861,-0.80743 z M 72.940816,93.209719 c -1.972856,-5.141202 2.741131,-7.103111 17.067024,-7.103111 7.899622,0 16.282,1.939496 16.282,3.76729 0,2.888146 -3.55375,3.68572 -13.62333,3.057516 -6.34584,-0.395906 -12.494656,-0.0849 -14.900025,0.753597 -3.331141,1.161242 -4.231714,1.072553 -4.825669,-0.475292 z m 113.951614,0.438645 c -1.78755,-0.707803 -8.32781,-1.014982 -14.53391,-0.682643 -10.47931,0.561175 -14.06702,-0.227387 -14.06702,-3.091823 0,-1.959976 8.62518,-3.76116 17.41955,-3.637701 11.45235,0.160706 15.58758,1.257917 16.17162,4.29064 0.6552,3.402173 -1.25836,4.599172 -4.99024,3.121527 z M 109.72112,81.881469 c 2.37112,-8.127879 6.79549,-16.080327 11.27284,-20.262031 2.76674,-2.584061 3.67828,-2.807889 6.11786,-1.502263 2.86089,1.531098 2.85749,1.543784 -1.68958,6.286586 -4.73393,4.937671 -10.0321,14.261815 -10.0321,17.655246 0,1.91366 -3.73227,4.647674 -6.34466,4.647674 -0.80143,0 -0.53741,-2.666986 0.67564,-6.825212 z"
       id="path1132" /></g></svg>
