<?xml version="1.0" encoding="UTF-8" standalone="no"?>
<!-- Created with Inkscape (http://www.inkscape.org/) -->

<svg
   width="1000"
   height="1000"
   viewBox="0 0 264.58333 264.58333"
   version="1.1"
   id="svg5"
   inkscape:version="1.2.2 (b0a8486541, 2022-12-01)"
   sodipodi:docname="cultural_nationalism.svg"
   xml:space="preserve"
   xmlns:inkscape="http://www.inkscape.org/namespaces/inkscape"
   xmlns:sodipodi="http://sodipodi.sourceforge.net/DTD/sodipodi-0.dtd"
   xmlns="http://www.w3.org/2000/svg"
   xmlns:svg="http://www.w3.org/2000/svg"><sodipodi:namedview
     id="namedview7"
     pagecolor="#ffffff"
     bordercolor="#000000"
     borderopacity="0.25"
     inkscape:showpageshadow="2"
     inkscape:pageopacity="0.0"
     inkscape:pagecheckerboard="0"
     inkscape:deskcolor="#d1d1d1"
     inkscape:document-units="px"
     showgrid="false"
     inkscape:zoom="0.52787981"
     inkscape:cx="219.74699"
     inkscape:cy="490.64199"
     inkscape:window-width="1920"
     inkscape:window-height="1004"
     inkscape:window-x="0"
     inkscape:window-y="0"
     inkscape:window-maximized="1"
     inkscape:current-layer="layer1" /><defs
     id="defs2" /><g
     inkscape:label="Layer 1"
     inkscape:groupmode="layer"
     id="layer1"><circle
       style="fill:#585858;fill-opacity:1;stroke:#ea8a12;stroke-width:0;stroke-dasharray:none;stroke-opacity:1;paint-order:stroke markers fill"
       id="path236"
       cx="132.29167"
       cy="132.29167"
       r="125.37917" /><circle
       style="fill:#427328;fill-opacity:0;stroke:#ff6600;stroke-width:5.29167;stroke-dasharray:none;stroke-opacity:1;paint-order:normal"
       id="path236-3"
       cx="132.29167"
       cy="132.29167"
       r="125.37917" /><path
       style="fill:#ff6600;fill-opacity:1;stroke-width:0.223135"
       d="m 82.47623,215.17288 c -0.06249,-0.21476 -0.616165,-2.95095 -1.230425,-6.08043 C 79.128687,198.30631 73.570016,172.40999 68.720964,150.7426 59.5078,109.57471 51.970617,73.826118 50.418794,63.936076 l -0.491249,-3.130803 0.500171,-1.162683 c 0.905703,-2.105357 2.67145,-3.211724 4.560316,-2.857372 0.704919,0.132243 2.180884,1.119547 4.142514,2.771014 l 0.780972,0.65749 5.264434,-2.066291 c 17.529938,-6.880501 30.094417,-9.70334 40.196818,-9.030951 6.4468,0.429082 10.35021,1.88857 14.47175,5.411005 2.07434,1.772815 3.96614,4.000875 8.56288,10.084912 8.32405,11.017359 12.45151,14.630632 18.46228,16.162376 3.78696,0.96504 11.70357,1.119532 17.35755,0.338746 8.19983,-1.132369 16.87149,-3.89156 33.90971,-10.789572 2.75753,-1.116404 5.13545,-2.029823 5.28427,-2.029823 0.44533,0 1.18532,1.23099 1.87348,3.116576 2.15673,5.909584 4.61053,20.019054 6.44305,37.04778 0.89917,8.35538 2.91805,31.40787 2.91805,33.31936 0,0.49185 -0.49215,0.75919 -5.41103,2.93934 -10.3309,4.57885 -18.63504,7.4795 -27.11255,9.4704 -9.40168,2.20795 -18.02959,2.60973 -23.88466,1.11226 -5.95913,-1.5241 -10.621,-5.71721 -17.71872,-15.93714 -1.36371,-1.96359 -3.04084,-4.37079 -3.72696,-5.34933 -1.54423,-2.20235 -4.56533,-5.39515 -6.49119,-6.86011 -2.06312,-1.56937 -5.5101,-3.20714 -8.14443,-3.86966 -8.10529,-2.03846 -19.39019,-0.40337 -35.565256,5.1531 -6.854598,2.3547 -9.842768,3.74459 -9.842768,4.57817 0,0.9578 4.05921,20.14148 7.915679,37.40921 2.020447,9.04677 9.841829,43.80434 10.04457,44.63724 l 0.122209,0.50205 h -6.125431 c -5.641723,0 -6.134406,-0.0309 -6.239023,-0.39049 z m -6.029174,-96.67332 c 1.584683,-7.73948 1.975329,-16.55995 1.013553,-22.885209 -1.090095,-7.169155 -3.44001,-13.394986 -7.08678,-18.775592 -2.89249,-4.267717 -6.29001,-7.875229 -7.416812,-7.875229 -0.419253,0 -0.29195,0.92084 1.110509,8.032867 3.832871,19.436893 9.494824,42.949143 10.853547,45.071203 l 0.355807,0.55571 0.322386,-0.77886 c 0.177305,-0.42836 0.558809,-1.93356 0.84779,-3.34489 z"
       id="path1307" /></g></svg>
