<?xml version="1.0" encoding="UTF-8" standalone="no"?>
<!-- Created with Inkscape (http://www.inkscape.org/) -->

<svg
   width="1000"
   height="1000"
   viewBox="0 0 264.58333 264.58333"
   version="1.1"
   id="svg5"
   inkscape:version="1.2.2 (b0a8486541, 2022-12-01)"
   sodipodi:docname="direct_democracy.svg"
   xml:space="preserve"
   xmlns:inkscape="http://www.inkscape.org/namespaces/inkscape"
   xmlns:sodipodi="http://sodipodi.sourceforge.net/DTD/sodipodi-0.dtd"
   xmlns="http://www.w3.org/2000/svg"
   xmlns:svg="http://www.w3.org/2000/svg"><sodipodi:namedview
     id="namedview7"
     pagecolor="#ffffff"
     bordercolor="#000000"
     borderopacity="0.25"
     inkscape:showpageshadow="2"
     inkscape:pageopacity="0.0"
     inkscape:pagecheckerboard="0"
     inkscape:deskcolor="#d1d1d1"
     inkscape:document-units="px"
     showgrid="false"
     inkscape:zoom="0.52787981"
     inkscape:cx="331.51485"
     inkscape:cy="490.64199"
     inkscape:window-width="1920"
     inkscape:window-height="1004"
     inkscape:window-x="0"
     inkscape:window-y="0"
     inkscape:window-maximized="1"
     inkscape:current-layer="layer1" /><defs
     id="defs2"><inkscape:perspective
       sodipodi:type="inkscape:persp3d"
       inkscape:vp_x="0 : 552.5 : 1"
       inkscape:vp_y="0 : 1000 : 0"
       inkscape:vp_z="815 : 552.5 : 1"
       inkscape:persp3d-origin="407.5 : 368.33333 : 1"
       id="perspective11259" /><linearGradient
       id="linearGradient5938"><stop
         style="stop-color:#000000;stop-opacity:1;"
         offset="0"
         id="stop5940" /><stop
         id="stop5946"
         offset="0.5"
         style="stop-color:#000000;stop-opacity:0;" /><stop
         style="stop-color:#000000;stop-opacity:1;"
         offset="1"
         id="stop5942" /></linearGradient><linearGradient
       id="linearGradient5196"><stop
         style="stop-color:#860909;stop-opacity:1;"
         offset="0"
         id="stop5198" /><stop
         style="stop-color:#bb0d0d;stop-opacity:1;"
         offset="1"
         id="stop5200" /></linearGradient><linearGradient
       id="linearGradient7546"><stop
         style="stop-color:#6d0000;stop-opacity:1;"
         offset="0"
         id="stop7548" /><stop
         style="stop-color:#8a0000;stop-opacity:0;"
         offset="1"
         id="stop7550" /></linearGradient><linearGradient
       id="linearGradient13829"><stop
         id="stop13831"
         offset="0.00000000"
         style="stop-color:#ffffff;stop-opacity:1.0000000;" /><stop
         id="stop13833"
         offset="1.0000000"
         style="stop-color:#c9c9c9;stop-opacity:1.0000000;" /></linearGradient><linearGradient
       id="linearGradient15699"><stop
         style="stop-color:black;stop-opacity:0.78431374;"
         offset="0"
         id="stop15701" /><stop
         style="stop-color:black;stop-opacity:0;"
         offset="1"
         id="stop15703" /></linearGradient><polygon
       id="XMLID_5_"
       points="469.75879,342.92773 529.12402,342.16113 529.12402,440.2207 469.75879,440.2207 469.75879,342.92773 " /></defs><g
     inkscape:label="Layer 1"
     inkscape:groupmode="layer"
     id="layer1"><circle
       style="fill:#a42525;fill-opacity:1;stroke:#606060;stroke-width:0;stroke-dasharray:none;stroke-opacity:1;paint-order:stroke markers fill"
       id="path236"
       cx="132.29167"
       cy="132.29167"
       r="125.37917" /><circle
       style="fill:#ffffff;fill-opacity:0;stroke:#fffffe;stroke-width:5.29167;stroke-dasharray:none;stroke-opacity:1;paint-order:normal"
       id="path236-3"
       cx="132.29167"
       cy="132.29167"
       r="125.37917" /><path
       style="fill:#ffffff;stroke-width:0.311022;fill-opacity:1"
       d="m 102.09282,217.04146 -0.56688,-0.32967 0.17418,-1.13824 c 0.0958,-0.62602 1.09133,-7.36645 2.21227,-14.97872 1.12094,-7.61228 2.53487,-17.12956 3.14207,-21.14951 l 1.10402,-7.30903 0.0498,-2.7992 0.0498,-2.7992 -0.67964,-1.29274 c -0.3738,-0.711 -1.14358,-1.91418 -1.71062,-2.6737 -0.56705,-0.75954 -2.4306,-3.43504 -4.14121,-5.94556 -1.71062,-2.51053 -8.603661,-12.50416 -15.31784,-22.20808 -6.714191,-9.70392 -12.589333,-18.26991 -13.055872,-19.03552 l -0.848254,-1.39204 v -1.13196 -1.13198 l 0.926002,-1.44869 c 0.509293,-0.79679 6.174499,-9.16027 12.589333,-18.585509 6.414834,-9.425239 12.034397,-17.539695 12.487924,-18.032119 l 0.82459,-0.895321 h 1.685937 1.68595 l 17.65423,7.751761 17.65422,7.75175 0.43058,0.568092 0.43057,0.568081 0.007,1.555115 c 0.004,0.855307 -0.20481,3.354809 -0.46379,5.554435 -0.25897,2.199628 -0.60191,4.244215 -0.7621,4.543525 -0.16019,0.29932 -0.66459,0.78883 -1.12091,1.08783 -0.45631,0.29898 -1.26676,0.674 -1.80101,0.83338 -0.53423,0.15936 -2.75149,0.63002 -4.92721,1.04589 -2.17573,0.41587 -4.85203,0.84794 -5.94733,0.96015 l -1.99146,0.20404 -2.12243,-0.36961 -2.12243,-0.3696 -1.68334,-0.79635 -1.68333,-0.79634 -3.02061,-3.07172 -3.02061,-3.071721 h -0.65639 -0.65637 l -0.10897,0.699797 c -0.06,0.3849 -0.008,1.180137 0.11391,1.767202 0.12258,0.587065 0.67277,1.705662 1.22263,2.485762 l 0.99977,1.41838 0.14758,1.3094 0.14759,1.3094 -0.90858,0.90859 -0.90857,0.90856 -1.63369,0.35037 c -0.89853,0.1927 -1.94171,0.35251 -2.31818,0.35513 -0.37647,0.002 -0.87737,0.12692 -1.11312,0.27625 l -0.42862,0.27149 0.19019,0.30772 c 0.10462,0.16924 1.90702,1.14659 4.00538,2.17185 l 3.8152,1.86414 3.57675,1.17684 c 1.96722,0.64727 3.89996,1.38662 4.29498,1.64302 0.39503,0.25641 1.32322,1.31942 2.06266,2.36224 0.73943,1.04283 3.69262,6.09485 6.56263,11.22671 2.87001,5.13187 6.78591,12.12987 8.70198,15.55112 1.91606,3.42124 4.27306,7.6191 5.23778,9.32859 l 1.75402,3.10814 v 1.16466 1.16468 l -2.41042,1.90889 c -1.32573,1.04989 -2.52711,2.10977 -2.66972,2.3553 -0.14261,0.24553 -0.1843,0.64185 -0.0926,0.8807 l 0.16666,0.4343 2.42531,0.0911 2.4253,0.0911 -0.0783,2.48817 c -0.043,1.3685 -0.28566,5.07745 -0.53911,8.2421 -0.25346,3.16465 -0.74734,9.32289 -1.09752,13.68498 -0.35019,4.36209 -0.96924,12.09974 -1.37567,17.1948 l -0.73896,9.26372 -0.37821,0.45573 -0.37821,0.45571 -17.45692,-0.009 -17.45693,-0.009 -0.56688,-0.32966 z m 39.80427,-0.19572 c -0.079,-0.12829 0.32199,-6.25154 0.89108,-13.60722 0.56909,-7.35568 1.19752,-15.47336 1.39653,-18.03929 0.19899,-2.56594 0.61123,-7.71599 0.91609,-11.44458 l 0.5543,-6.77923 0.71686,-0.76305 c 0.39427,-0.41969 0.95351,-0.76306 1.24274,-0.76306 0.28924,0 0.88175,0.27992 1.31669,0.62204 l 0.79079,0.62205 h 0.74406 c 0.40922,0 0.912,-0.16796 1.11727,-0.37323 0.20528,-0.20528 0.37323,-0.66014 0.37321,-1.01083 l -10e-6,-0.63758 -8.89156,-14.77357 c -4.89037,-8.12545 -9.47405,-15.51664 -10.18597,-16.42485 -0.71193,-0.90822 -2.16861,-2.79768 -3.23707,-4.1988 l -1.94267,-2.54751 -1.43266,-2.82051 -1.43266,-2.82052 -0.15956,-1.41551 -0.15955,-1.41551 0.30429,-0.18806 c 0.16736,-0.10344 2.10795,-0.0577 4.31244,0.10157 l 4.00815,0.28957 1.71062,0.60691 c 0.94085,0.33379 4.53703,1.79736 7.99153,3.25235 3.4545,1.45501 6.88352,3.06156 7.62005,3.57011 0.73653,0.50855 3.60531,3.24102 6.37509,6.07215 l 5.03595,5.14749 1.14888,0.31723 1.14889,0.31721 0.96868,-0.40589 c 0.53276,-0.22325 4.66185,-3.16513 9.17572,-6.53753 l 8.20705,-6.13162 0.33087,0.33086 0.33086,0.33086 -0.0377,3.18764 -0.0377,3.18762 -0.49842,3.11022 c -0.27413,1.71063 -1.12296,5.62951 -1.8863,8.70862 -0.76333,3.07913 -1.88597,6.92802 -2.49475,8.55312 -0.60879,1.62509 -1.92865,4.63423 -2.93305,6.68697 -1.00438,2.05275 -2.66893,4.99192 -3.69897,6.53147 -1.03005,1.53957 -2.90954,4.04559 -4.17665,5.56896 l -2.30383,2.76973 -0.20635,15.89159 c -0.11355,8.74039 -0.29649,18.51585 -0.40666,21.72327 l -0.20029,5.83167 h -11.13127 -11.13126 z m 21.32146,-81.88958 c -0.56296,-0.12358 -1.29775,-0.47284 -1.63287,-0.77611 -0.33511,-0.30329 -0.6093,-0.7632 -0.6093,-1.02205 v -0.4706 l -3.30723,-3.20854 -3.30722,-3.20854 0.17823,-1.09832 0.17823,-1.09832 0.64176,-0.81587 c 0.35296,-0.44873 3.54551,-3.97633 7.09452,-7.83913 3.54903,-3.86278 8.88087,-9.65171 11.84855,-12.86427 l 5.39576,-5.841031 h 0.67772 c 0.37275,0 0.9855,0.215578 1.36168,0.47907 0.37617,0.26348 2.60386,2.957711 4.95042,5.987181 2.34654,3.02946 4.5192,5.8419 4.82813,6.24985 l 0.56167,0.74175 v 1.01217 1.01218 l -0.54428,0.62547 c -0.29936,0.34401 -4.67311,4.02801 -9.71945,8.18666 -5.04633,4.15866 -10.78469,8.90791 -12.75191,10.55389 -1.96722,1.64599 -3.85668,3.13369 -4.19881,3.30598 l -0.62205,0.31329 z m -14.52046,-12.03389 c -0.33822,-0.0857 -3.2639,-1.39687 -6.5015,-2.91367 -3.2376,-1.5168 -6.14496,-2.99168 -6.46081,-3.27752 l -0.57426,-0.5197 v -0.92312 -0.92312 l 1.46754,-2.06114 c 0.80715,-1.13364 4.12161,-5.63013 7.36549,-9.99222 3.24386,-4.362086 8.12956,-10.940209 10.85709,-14.61805 2.72754,-3.67783 5.38883,-7.141844 5.91398,-7.697793 l 0.95482,-1.010828 0.63879,0.0082 0.63879,0.0082 6.92809,6.75604 6.92809,6.756027 -0.009,1.088577 -0.009,1.088585 -0.57835,0.933067 c -0.31808,0.513184 -1.41039,1.8428 -2.42734,2.95471 -1.01696,1.111899 -4.34909,4.820845 -7.40474,8.242095 -3.05565,3.42123 -6.68161,7.48007 -8.05767,9.01963 -1.37606,1.53957 -3.49668,3.81391 -4.71248,5.05412 l -2.21056,2.25491 -1.06601,-0.0361 c -0.5863,-0.0199 -1.34273,-0.10626 -1.68095,-0.19192 z m -25.82195,-10.16985 c -2.73699,-0.89522 -6.08945,-2.14503 -7.44991,-2.77735 -1.36046,-0.63233 -2.72507,-1.37729 -3.03247,-1.65549 -0.3074,-0.2782 -0.55891,-0.74906 -0.55891,-1.04638 v -0.54056 l 0.49217,-0.18886 0.49217,-0.18887 2.48649,0.63487 2.48649,0.63485 1.91994,-0.20782 c 1.05596,-0.11426 3.52949,-0.66427 5.4967,-1.22213 1.96722,-0.55787 4.34654,-1.1808 5.28738,-1.38431 l 1.71062,-0.37002 2.02164,0.10203 2.02166,0.10204 -0.0869,0.93307 c -0.0479,0.51318 -0.56708,1.92104 -1.15397,3.12858 -0.58689,1.20752 -1.54956,2.80522 -2.13924,3.55041 -0.5897,0.7452 -1.40003,1.53674 -1.80076,1.759 l -0.72857,0.40409 -1.24409,-0.0197 -1.24408,-0.0197 -4.97637,-1.62766 z m 18.08009,-12.862805 c -0.0832,-0.13475 -0.0222,-2.186556 0.13575,-4.559585 l 0.28717,-4.31457 -0.30286,-1.116577 -0.30286,-1.116565 -0.80263,-0.861502 -0.80263,-0.861501 -2.96104,-1.383702 c -1.62857,-0.76103 -3.85039,-2.018328 -4.93738,-2.793993 l -1.97635,-1.410292 -0.20362,-0.641526 -0.20361,-0.641516 1.80525,-2.856495 c 0.99286,-1.571079 3.53023,-5.515739 5.63858,-8.765927 2.10835,-3.250188 4.16489,-6.294308 4.5701,-6.764739 l 0.73677,-0.855306 h 1.33473 1.33474 l 7.25837,7.231266 7.25838,7.231266 0.18692,0.738154 0.18692,0.738154 -0.62748,1.283489 c -0.34512,0.705922 -2.41769,3.59284 -4.60572,6.415363 -2.18801,2.822535 -5.78107,7.476196 -7.98456,10.341494 l -4.00634,5.209625 h -0.43259 c -0.23791,0 -0.50072,-0.11027 -0.58401,-0.245015 z m -20.41275,-22.28059 c -1.79616,-0.724272 -5.81327,-2.472983 -8.92694,-3.886025 -3.11366,-1.413043 -5.8244,-2.765828 -6.02388,-3.006186 l -0.36269,-0.437011 0.14281,-0.545945 c 0.0785,-0.300274 3.19326,-4.744753 6.92159,-9.876615 3.72833,-5.131874 7.24269,-9.905674 7.80968,-10.608457 l 1.0309,-1.277776 0.93877,-0.388849 0.93878,-0.38885 0.92182,0.32134 0.92183,0.321351 6.07532,4.85457 c 3.34143,2.670011 6.28996,5.161003 6.55229,5.535535 0.26234,0.374531 0.47696,0.878111 0.47696,1.11908 0,0.240958 -2.55427,4.513106 -5.67615,9.493643 -3.12189,4.980538 -5.92109,9.300953 -6.22045,9.60091 l -0.54429,0.545369 -0.8553,-0.02962 c -0.47043,-0.01634 -2.3249,-0.62219 -4.12105,-1.346461 z"
       id="path58326" /></g></svg>
