<?xml version="1.0" encoding="UTF-8" standalone="no"?>
<!-- Created with Inkscape (http://www.inkscape.org/) -->

<svg
   width="1000"
   height="1000"
   viewBox="0 0 264.58333 264.58333"
   version="1.1"
   id="svg5"
   inkscape:version="1.2.2 (b0a8486541, 2022-12-01)"
   sodipodi:docname="dirigisme.svg"
   xml:space="preserve"
   xmlns:inkscape="http://www.inkscape.org/namespaces/inkscape"
   xmlns:sodipodi="http://sodipodi.sourceforge.net/DTD/sodipodi-0.dtd"
   xmlns="http://www.w3.org/2000/svg"
   xmlns:svg="http://www.w3.org/2000/svg"><sodipodi:namedview
     id="namedview7"
     pagecolor="#ffffff"
     bordercolor="#000000"
     borderopacity="0.25"
     inkscape:showpageshadow="2"
     inkscape:pageopacity="0.0"
     inkscape:pagecheckerboard="0"
     inkscape:deskcolor="#d1d1d1"
     inkscape:document-units="px"
     showgrid="false"
     inkscape:zoom="0.52787981"
     inkscape:cx="198.90891"
     inkscape:cy="541.79"
     inkscape:window-width="1920"
     inkscape:window-height="1004"
     inkscape:window-x="0"
     inkscape:window-y="0"
     inkscape:window-maximized="1"
     inkscape:current-layer="layer1" /><defs
     id="defs2" /><g
     inkscape:label="Layer 1"
     inkscape:groupmode="layer"
     id="layer1"><circle
       style="fill:#904020;stroke:#000000;stroke-width:0;stroke-dasharray:none;stroke-opacity:1;paint-order:stroke markers fill;fill-opacity:1"
       id="path236"
       cx="132.29167"
       cy="132.29167"
       r="125.37917" /><circle
       style="fill:#427328;stroke:#ffd000;stroke-width:5.2916666;fill-opacity:0;stroke-opacity:1;stroke-dasharray:none;paint-order:normal"
       id="path236-3"
       cx="132.29167"
       cy="132.29167"
       r="125.37917" /><path
       style="fill:#ffd000;fill-opacity:1;stroke-width:0.0738311"
       d="m 130.78608,217.29036 c -1.18603,-0.0725 -2.64712,-0.19045 -3.21163,-0.25942 -1.96727,-0.24039 -4.91821,-0.90579 -6.99621,-1.57758 -8.35452,-2.7009 -15.77892,-8.53317 -20.38546,-16.01391 -2.12432,-3.44977 -2.673784,-4.93212 -2.671708,-7.20789 7.33e-4,-0.54996 0.05046,-1.28099 0.111618,-1.63094 0.33908,-1.94301 1.351982,-3.83513 2.78109,-5.19512 2.91088,-2.77007 7.13745,-3.4106 10.73329,-1.62661 0.97954,0.48597 1.63657,0.96425 2.47851,1.80419 0.77887,0.77702 1.1391,1.28412 1.90094,2.67587 2.13077,3.8926 4.79527,6.47496 8.59838,8.33327 3.96331,1.9366 8.72474,2.36273 13.1642,1.17819 2.34553,-0.62584 4.43758,-1.63597 6.34363,-3.06297 4.61369,-3.45411 7.32528,-8.64422 7.5424,-14.43651 0.16653,-4.44251 -1.18107,-8.69441 -3.86565,-12.19671 -0.30596,-0.39916 -0.58575,-0.74394 -0.62175,-0.7662 -0.036,-0.0222 -0.52214,0.13272 -1.08032,0.34437 -4.07475,1.54508 -8.84135,2.42986 -13.09043,2.42986 -8.88179,0 -17.46083,-3.04967 -24.21807,-8.60903 -1.05835,-0.87073 -3.02012,-2.71797 -3.87305,-3.64693 -4.887933,-5.32369 -8.218686,-12.174 -9.405292,-19.34374 -0.385889,-2.33169 -0.562067,-4.89763 -0.496762,-7.23544 0.216835,-7.76284 2.911452,-15.40115 7.625314,-21.61507 l 0.68687,-0.90546 -0.71299,-0.94031 c -3.255291,-4.2932 -5.628615,-9.485501 -6.774252,-14.820566 -0.522604,-2.433683 -0.763204,-4.592857 -0.826806,-7.420011 -0.06451,-2.865686 0.140678,-5.147552 0.719538,-8.003456 1.723354,-8.502417 6.51666,-16.372951 13.29,-21.821995 5.38434,-4.331629 11.49066,-7.047277 18.08319,-8.042131 2.14399,-0.323543 3.26216,-0.400917 5.79574,-0.401041 3.09229,-1.5e-4 4.88493,0.188942 7.96506,0.840229 9.60535,2.031037 18.44901,8.217823 23.79621,16.64718 2.21433,3.490709 2.90291,5.284427 2.90211,7.560004 -0.001,4.224901 -2.72222,7.878886 -6.75524,9.072316 -1.04461,0.309112 -1.92323,0.413172 -3.04623,0.360782 -2.02129,-0.09434 -3.68892,-0.687085 -5.25977,-1.869663 -1.26014,-0.948666 -1.95638,-1.785416 -2.88435,-3.466434 -0.7132,-1.291947 -1.51604,-2.502517 -2.24833,-3.390166 -2.61962,-3.175332 -6.18165,-5.429145 -10.03602,-6.350105 -1.75141,-0.418481 -2.52902,-0.506768 -4.50727,-0.511728 -1.84197,-0.005 -2.32917,0.04089 -3.98687,0.37228 -8.63653,1.72666 -14.95122,9.456863 -14.95073,18.302077 0,3.862056 1.01571,7.374929 3.0095,10.410627 0.52388,0.797645 1.41216,1.970976 1.56248,2.063888 0.0322,0.01989 0.62959,-0.178701 1.32762,-0.441276 5.60663,-2.108959 11.52998,-2.814451 17.61553,-2.098107 6.31866,0.7438 12.67904,3.293575 17.94095,7.192226 1.96693,1.45735 4.29353,3.60848 5.90778,5.46223 5.05367,5.80348 8.22892,13.03812 9.07451,20.67586 1.06202,9.59277 -1.48492,18.94684 -7.29723,26.80022 -0.39051,0.52764 -0.69706,0.99277 -0.6812,1.03364 0.0159,0.0409 0.29931,0.43334 0.62992,0.87219 2.25152,2.98859 4.12066,6.48514 5.46222,10.21795 1.87233,5.20963 2.55479,11.53485 1.84649,17.11378 -1.59687,12.57768 -9.37481,23.52589 -20.73824,29.19108 -4.25436,2.121 -8.41045,3.31892 -13.21689,3.80955 -1.05256,0.10739 -4.1855,0.19583 -5.0563,0.14266 z m 3.50698,-66.21888 c 6.33797,-0.68949 11.83601,-4.44788 14.76465,-10.0929 1.34604,-2.59452 2.01257,-5.13536 2.11702,-8.07028 0.21818,-6.12986 -2.56533,-11.96432 -7.4898,-15.69917 -5.67055,-4.30071 -13.35954,-5.03701 -19.72106,-1.8885 -4.12796,2.04305 -7.3605,5.47144 -9.12111,9.67376 -2.05651,4.90857 -1.91427,10.55537 0.38868,15.42986 2.33432,4.94091 6.9819,8.79186 12.22167,10.12682 2.34666,0.59786 4.57181,0.76716 6.83995,0.52041 z"
       id="path1347" /></g></svg>
