<?xml version="1.0" encoding="UTF-8" standalone="no"?>
<!-- Created with Inkscape (http://www.inkscape.org/) -->

<svg
   width="1000"
   height="1000"
   viewBox="0 0 264.58333 264.58333"
   version="1.1"
   id="svg5"
   inkscape:version="1.2.2 (b0a8486541, 2022-12-01)"
   sodipodi:docname="Imperialism.svg"
   xml:space="preserve"
   xmlns:inkscape="http://www.inkscape.org/namespaces/inkscape"
   xmlns:sodipodi="http://sodipodi.sourceforge.net/DTD/sodipodi-0.dtd"
   xmlns="http://www.w3.org/2000/svg"
   xmlns:svg="http://www.w3.org/2000/svg"><sodipodi:namedview
     id="namedview7"
     pagecolor="#ffffff"
     bordercolor="#000000"
     borderopacity="0.25"
     inkscape:showpageshadow="2"
     inkscape:pageopacity="0.0"
     inkscape:pagecheckerboard="0"
     inkscape:deskcolor="#d1d1d1"
     inkscape:document-units="px"
     showgrid="false"
     inkscape:zoom="0.52787981"
     inkscape:cx="426.23339"
     inkscape:cy="460.33206"
     inkscape:window-width="1920"
     inkscape:window-height="1004"
     inkscape:window-x="0"
     inkscape:window-y="0"
     inkscape:window-maximized="1"
     inkscape:current-layer="layer1" /><defs
     id="defs2"><filter
       id="mask-powermask-path-effect9341_inverse"
       inkscape:label="filtermask-powermask-path-effect9341"
       style="color-interpolation-filters:sRGB"
       height="100"
       width="100"
       x="-50"
       y="-50"><feColorMatrix
         id="mask-powermask-path-effect9341_primitive1"
         values="1"
         type="saturate"
         result="fbSourceGraphic" /><feColorMatrix
         id="mask-powermask-path-effect9341_primitive2"
         values="-1 0 0 0 1 0 -1 0 0 1 0 0 -1 0 1 0 0 0 1 0 "
         in="fbSourceGraphic" /></filter><filter
       id="mask-powermask-path-effect9411_inverse"
       inkscape:label="filtermask-powermask-path-effect9411"
       style="color-interpolation-filters:sRGB"
       height="100"
       width="100"
       x="-50"
       y="-50"><feColorMatrix
         id="mask-powermask-path-effect9411_primitive1"
         values="1"
         type="saturate"
         result="fbSourceGraphic" /><feColorMatrix
         id="mask-powermask-path-effect9411_primitive2"
         values="-1 0 0 0 1 0 -1 0 0 1 0 0 -1 0 1 0 0 0 1 0 "
         in="fbSourceGraphic" /></filter><clipPath
       clipPathUnits="userSpaceOnUse"
       id="clipPath9423"><circle
         style="fill:#427328;fill-opacity:0;stroke:#000000;stroke-width:5.29167;stroke-dasharray:none;stroke-opacity:1;paint-order:normal"
         id="circle9425"
         cx="132.29167"
         cy="132.29167"
         r="125.37917" /></clipPath></defs><g
     inkscape:label="Layer 1"
     inkscape:groupmode="layer"
     id="layer1"><circle
       style="fill:#1c2166;fill-opacity:1;stroke:#327e4c;stroke-width:0;stroke-dasharray:none;stroke-opacity:0.99215686;paint-order:stroke markers fill"
       id="path236"
       r="125.37917"
       cy="132.29167"
       cx="132.29167" /><circle
       style="fill:#427328;fill-opacity:0;stroke:#ffffff;stroke-width:5.29167;stroke-dasharray:none;stroke-opacity:1;paint-order:normal"
       id="circle9421"
       cx="132.29167"
       cy="132.29167"
       r="125.37917" /><path
       style="fill:#ffffff;fill-opacity:1;stroke-width:0.232186"
       d="m 124.53083,214.96746 c -4.24363,-6.18506 -7.7157,-11.30475 -7.7157,-11.3771 0,-0.0723 7.00911,-0.13154 15.5758,-0.13154 8.95777,0 15.54291,0.0875 15.49841,0.20583 -0.14306,0.38047 -15.40026,22.53949 -15.52224,22.54397 -0.0663,0.003 -3.59264,-5.05609 -7.83627,-11.24116 z M 65.733291,198.77271 c -0.0018,-0.45832 4.922149,-26.7582 5.032379,-26.88103 0.0523,-0.0583 5.054844,4.85246 11.11675,10.91274 8.782705,8.78035 10.938686,11.05166 10.61328,11.18099 -0.224592,0.0893 -6.154953,1.21961 -13.178577,2.51189 -7.023625,1.29227 -12.953064,2.40172 -13.176542,2.46544 -0.239774,0.0684 -0.406719,-0.01 -0.40729,-0.19003 z m 119.228379,-2.67405 c -7.15132,-1.34259 -13.05008,-2.48633 -13.10836,-2.54166 -0.0583,-0.0554 4.85244,-5.06034 10.91273,-11.12224 8.81893,-8.82129 11.05186,-10.94013 11.18483,-10.61329 0.0914,0.2246 1.21606,6.10272 2.49927,13.06249 1.28321,6.95977 2.38587,12.88922 2.45036,13.17655 0.0958,0.42658 0.0206,0.51845 -0.40958,0.50081 -0.28977,-0.0118 -6.37793,-1.12008 -13.52925,-2.46266 z m -59.09129,1.30497 c -13.49884,-1.2809 -26.586187,-6.97748 -36.988091,-16.09995 l -1.579744,-1.38544 15.600545,-15.60183 15.60054,-15.60182 1.92304,1.2535 c 2.91706,1.90143 5.28228,2.8077 8.98454,3.44253 l 0.8707,0.14929 v 22.04714 22.04713 l -1.21898,-0.0316 c -0.67044,-0.0175 -2.10708,-0.11592 -3.19255,-0.21891 z m 8.59087,-21.79658 v -22.04714 l 0.8707,-0.14929 c 3.70226,-0.63483 6.06749,-1.5411 8.98453,-3.44253 l 1.92306,-1.2535 15.60054,15.60182 15.60054,15.60183 -1.57975,1.38544 c -4.82083,4.22787 -10.04971,7.65651 -15.62251,10.24385 -5.05967,2.3491 -11.70115,4.41455 -16.95404,5.27256 -2.27864,0.3722 -6.74256,0.83356 -8.06846,0.8339 l -0.75461,1.9e-4 z m -51.798589,-0.53294 c -7.6691,-8.86952 -12.888406,-19.64525 -15.041657,-31.05485 -0.415223,-2.20018 -0.665949,-4.18802 -1.076222,-8.53283 l -0.13703,-1.45116 H 88.593021 110.7783 l 0.002,0.52242 c 0.007,2.16532 1.9038,7.08723 3.74126,9.70672 l 0.98771,1.40807 -15.541195,15.54248 c -8.547645,8.54838 -15.610557,15.5425 -15.695347,15.5425 -0.08477,0 -0.809147,-0.75751 -1.609686,-1.68335 z m 82.112809,-13.85915 -15.5412,-15.54248 0.98771,-1.40807 c 1.83747,-2.61949 3.73452,-7.5414 3.74126,-9.70672 l 0.002,-0.52242 h 22.17019 22.17018 l -0.12326,1.45116 c -0.8849,10.4179 -2.68371,17.15226 -6.83761,25.59848 -1.92288,3.90983 -4.15005,7.50808 -6.6827,10.79665 -1.692,2.19699 -4.00584,4.8759 -4.21145,4.8759 -0.0735,0 -7.1271,-6.99412 -15.67475,-15.5425 z m -36.81542,-12.3288 c -3.11321,-0.80058 -5.40083,-2.1392 -7.91651,-4.63241 -1.9174,-1.9003 -2.37854,-2.51552 -3.3084,-4.41384 -1.51627,-3.0955 -1.8819,-4.65182 -1.8819,-8.01041 0,-3.34063 0.36734,-4.92053 1.84269,-7.92525 1.72618,-3.51557 5.26443,-6.85093 8.71476,-8.21502 3.18192,-1.25798 3.22253,-1.26536 6.96089,-1.26536 3.73837,0 3.77898,0.007 6.9609,1.26536 4.53794,1.79408 8.57112,6.41844 10.02683,11.49656 0.75354,2.62867 0.75354,6.65875 0,9.28743 -0.90427,3.15447 -2.18228,5.27832 -4.68188,7.78053 -1.78551,1.78737 -2.58179,2.39624 -4.17934,3.19575 -1.08548,0.54322 -2.80005,1.19521 -3.81016,1.44885 -2.45404,0.61623 -6.30504,0.61084 -8.72788,-0.0122 z m -78.209705,-9.11061 c -6.173259,-4.24262 -11.240713,-7.80693 -11.261011,-7.92068 -0.02027,-0.11375 5.030536,-3.68947 11.224101,-7.94606 l 11.261011,-7.73923 0.06108,7.90497 c 0.03361,4.34773 0.03361,11.39468 0,15.65992 l -0.06108,7.75496 z M 203.42044,131.8295 c 0,-8.6199 0.0455,-15.67254 0.10128,-15.67254 0.28506,0 22.57234,15.47461 22.57234,15.67254 0,0.19793 -22.28728,15.67254 -22.57234,15.67254 -0.0557,0 -0.10128,-7.05264 -0.10128,-15.67254 z M 66.544782,128.17258 c 0.62437,-6.6121 1.081706,-9.33649 2.33329,-13.89965 1.781984,-6.49698 4.871611,-13.24365 8.653652,-18.896602 2.165677,-3.237002 6.128934,-8.235762 6.661792,-8.402356 0.127965,-0.04002 7.219495,6.914659 15.758951,15.454828 l 15.526283,15.52758 -0.98645,1.4526 c -1.86485,2.74613 -3.70571,7.55227 -3.71237,9.69234 l -0.002,0.52241 H 88.592899 66.407629 Z m 87.418458,0.92874 c -0.007,-2.14007 -1.84752,-6.94621 -3.71238,-9.69234 l -0.98644,-1.4526 15.52627,-15.52758 c 8.53946,-8.540169 15.63099,-15.494845 15.75896,-15.454828 0.53373,0.166866 4.49714,5.167065 6.66014,8.402356 5.95394,8.905592 10.03124,20.402582 10.74569,30.300252 0.0784,1.08546 0.19711,2.41763 0.26389,2.96036 l 0.12144,0.98679 h -22.18798 -22.18797 l -0.002,-0.52241 z M 102.90289,99.342401 87.302545,83.74076 88.882289,82.355324 C 99.775746,72.801768 113.65778,66.985121 127.66982,66.103145 l 2.61209,-0.164409 v 22.050274 22.05028 l -2.29591,0.48353 c -2.77528,0.58448 -5.54447,1.74911 -7.80365,3.28195 l -1.67911,1.13926 z m 41.65845,14.473769 c -2.15806,-1.50044 -5.01852,-2.70668 -7.81549,-3.29573 l -2.2846,-0.48115 V 87.987861 65.936428 l 2.4594,0.159003 c 14.39616,0.930733 28.65134,6.959748 39.40404,16.665349 l 1.11483,1.006254 -15.62644,15.589592 -15.62644,15.589584 z m 37.96238,-31.674434 c -6.05471,-6.055709 -10.96088,-11.056768 -10.9026,-11.113449 0.15908,-0.154721 26.92021,-5.104066 27.02595,-4.99833 0.0996,0.09956 -4.88096,26.888346 -5.02599,27.03337 -0.0488,0.04888 -5.04265,-4.865871 -11.09736,-10.921591 z M 68.443806,79.2153 c -1.3786,-7.419988 -2.473856,-13.523455 -2.43391,-13.563261 0.06397,-0.0638 25.197548,4.55248 26.642,4.893295 0.507173,0.119664 -0.554675,1.25261 -10.447449,11.147034 -6.056597,6.057606 -11.066475,11.013822 -11.133055,11.013822 -0.06661,0 -1.248995,-6.070901 -2.627586,-13.49089 z M 116.87794,60.838689 c 0.22639,-0.584073 15.31694,-22.463977 15.49339,-22.463977 0.1847,0 15.55671,22.3399 15.55671,22.608334 0,0.08021 -7.01159,0.145876 -15.5813,0.145876 -12.37024,0 -15.55811,-0.05985 -15.4688,-0.290233 z"
       id="path9608" /></g></svg>
