<?xml version="1.0" encoding="UTF-8" standalone="no"?>
<!-- Created with Inkscape (http://www.inkscape.org/) -->

<svg
   width="1000"
   height="1000"
   viewBox="0 0 264.58333 264.58333"
   version="1.1"
   id="svg5"
   inkscape:version="1.2.2 (b0a8486541, 2022-12-01)"
   sodipodi:docname="Internationalism.svg"
   xml:space="preserve"
   xmlns:inkscape="http://www.inkscape.org/namespaces/inkscape"
   xmlns:sodipodi="http://sodipodi.sourceforge.net/DTD/sodipodi-0.dtd"
   xmlns="http://www.w3.org/2000/svg"
   xmlns:svg="http://www.w3.org/2000/svg"><sodipodi:namedview
     id="namedview7"
     pagecolor="#ffffff"
     bordercolor="#000000"
     borderopacity="0.25"
     inkscape:showpageshadow="2"
     inkscape:pageopacity="0.0"
     inkscape:pagecheckerboard="0"
     inkscape:deskcolor="#d1d1d1"
     inkscape:document-units="px"
     showgrid="false"
     inkscape:zoom="0.52787981"
     inkscape:cx="219.74699"
     inkscape:cy="490.64199"
     inkscape:window-width="1920"
     inkscape:window-height="1004"
     inkscape:window-x="0"
     inkscape:window-y="0"
     inkscape:window-maximized="1"
     inkscape:current-layer="layer1" /><defs
     id="defs2" /><g
     inkscape:label="Layer 1"
     inkscape:groupmode="layer"
     id="layer1"><circle
       style="fill:#d33e3e;fill-opacity:1;stroke:#ea8a12;stroke-width:0;stroke-dasharray:none;stroke-opacity:1;paint-order:stroke markers fill"
       id="path236"
       cx="132.29167"
       cy="132.29167"
       r="125.37917" /><circle
       style="fill:#427328;fill-opacity:0;stroke:#fffcf4;stroke-width:5.29167;stroke-dasharray:none;stroke-opacity:1;paint-order:normal"
       id="path236-3"
       cx="132.29167"
       cy="132.29167"
       r="125.37917" /><path
       fill="currentColor"
       d="m 195.3953,185.53515 c 0.0368,-0.0553 0.0921,-0.11058 0.12901,-0.16587 12.07148,-14.35678 19.33281,-32.86024 19.33281,-53.07769 0,-20.21744 -7.26133,-38.720901 -19.31439,-53.077678 -0.0369,-0.05529 -0.0922,-0.09215 -0.129,-0.147439 -0.20274,-0.239587 -0.38703,-0.460743 -0.58976,-0.6819 -0.0737,-0.09215 -0.14744,-0.165869 -0.22115,-0.258017 l -0.75562,-0.866198 -0.0185,-0.01843 c -0.27645,-0.313305 -0.57132,-0.626611 -0.84777,-0.939917 l -0.0185,-0.01843 c -0.58975,-0.626612 -1.17951,-1.253224 -1.78768,-1.861405 l -0.0185,-0.01843 -0.88463,-0.884628 -0.0553,-0.05529 c -0.27645,-0.276447 -0.55289,-0.534463 -0.82934,-0.792479 -0.0922,-0.09215 -0.18429,-0.184298 -0.29487,-0.276447 -0.18431,-0.184298 -0.3686,-0.350165 -0.5529,-0.516033 -0.0553,-0.05529 -0.12901,-0.110579 -0.1843,-0.184298 -14.70694,-13.638016 -34.40834,-21.968265 -56.06331,-21.968265 -21.65496,0 -41.356352,8.330249 -56.081726,21.968265 -0.05531,0.05529 -0.129009,0.110579 -0.184295,0.184298 -0.184295,0.165868 -0.368598,0.350166 -0.552893,0.534463 -0.09215,0.09215 -0.184295,0.184297 -0.294874,0.276446 -0.276449,0.258017 -0.552892,0.534463 -0.829342,0.792479 l -0.05531,0.05529 -0.884628,0.884628 -0.01846,0.01843 c -0.60818,0.608182 -1.197934,1.234793 -1.787688,1.861405 l -0.01846,0.01843 c -0.294873,0.313305 -0.571324,0.626611 -0.847767,0.939917 l -0.01846,0.01843 c -0.258018,0.276446 -0.51603,0.571322 -0.755618,0.866199 -0.07372,0.09215 -0.147441,0.165867 -0.221157,0.258016 -0.202726,0.221157 -0.387029,0.460744 -0.589755,0.6819 -0.03685,0.05529 -0.09215,0.09215 -0.129009,0.147437 C 56.987529,93.570688 49.72621,112.07415 49.72621,132.29159 c 0,20.21745 7.261319,38.72091 19.314378,53.07769 0.03685,0.0553 0.09215,0.11058 0.129009,0.16587 l 0.571324,0.6819 c 0.07372,0.0922 0.147434,0.16587 0.221158,0.25802 l 0.755618,0.8662 c 0,0.0184 0.01846,0.0184 0.01846,0.0369 0.276443,0.3133 0.552893,0.62661 0.847767,0.92149 l 0.01846,0.0185 c 0.589755,0.62661 1.179509,1.25322 1.769257,1.8614 l 0.01846,0.0185 c 0.294874,0.29487 0.571324,0.58975 0.866198,0.8662 l 0.05531,0.0553 c 0.608186,0.60819 1.234795,1.19794 1.861404,1.76926 14.76234,13.63795 34.463737,21.9682 56.118697,21.9682 21.65496,0 41.35636,-8.33025 56.08174,-21.96827 a 55.289258,55.289258 0 0 0 1.84298,-1.76926 l 0.0553,-0.0553 c 0.29488,-0.29488 0.58976,-0.57133 0.8662,-0.8662 l 0.0185,-0.0185 c 0.60819,-0.60818 1.19793,-1.23479 1.76926,-1.8614 l 0.0185,-0.0185 c 0.27644,-0.31331 0.57132,-0.60819 0.84776,-0.92149 0,-0.0185 0.0185,-0.0185 0.0185,-0.0368 0.25802,-0.27645 0.51603,-0.57132 0.75562,-0.8662 0.0737,-0.0922 0.14744,-0.16587 0.22116,-0.25802 a 18.245455,18.245455 0 0 0 0.60818,-0.6819 m 0.75562,-26.28082 c -2.54331,6.00809 -5.89752,11.57388 -9.98893,16.62363 a 81.828103,81.828103 0 0 0 -15.02025,-10.30223 c 2.13786,-8.64355 3.4648,-18.13488 3.81497,-28.1238 h 26.44669 c -0.5529,7.53777 -2.32215,14.85437 -5.25248,21.8024 m 5.25248,-32.12307 h -26.44669 c -0.35027,-9.98885 -1.67722,-19.48018 -3.81507,-28.123724 5.39992,-2.875041 10.43124,-6.339835 15.02025,-10.302232 a 68.901474,68.901474 0 0 1 15.2414,38.426026 M 159.25455,68.432506 c 7.31661,3.096199 13.96975,7.371901 19.83041,12.753389 a 72.742234,72.742234 0 0 1 -10.94727,7.703637 c -2.89347,-8.293389 -6.59785,-15.499422 -10.91041,-21.267935 0.6819,0.258017 1.3638,0.534463 2.02727,0.810909 M 142.5572,197.55135 c -1.69554,1.32694 -3.39108,2.34058 -5.10505,3.02248 v -34.18719 a 71.710165,71.710165 0 0 1 21.32323,4.82859 c -1.52967,4.53372 -3.29893,8.71728 -5.34463,12.49537 -3.20678,5.97124 -6.96645,10.74455 -10.87355,13.84075 M 153.43075,80.872589 c 2.02727,3.796529 3.81496,7.980083 5.34463,12.495373 a 71.710165,71.710165 0 0 1 -21.32323,4.828595 V 64.027796 c 1.69554,0.6819 3.40951,1.677107 5.10505,3.022479 3.9071,3.077769 7.66677,7.851074 10.87355,13.822314 m -15.9786,75.174961 v -18.59562 h 27.18389 c -0.29488,8.14595 -1.30851,16.05231 -3.00405,23.55322 l -0.0553,0.22116 a 82.012399,82.012399 0 0 0 -24.12453,-5.17876 m 0,-28.91629 v -18.59562 c 8.44083,-0.51603 16.54992,-2.30372 24.12455,-5.17876 l 0.0553,0.22116 c 1.69554,7.50091 2.70918,15.38884 3.00405,23.55322 z m -10.32066,10.32067 v 18.59562 c -8.44082,0.51603 -16.54992,2.30372 -24.12454,5.17876 l -0.0553,-0.22116 c -1.69554,-7.50091 -2.70917,-15.38884 -3.00405,-23.55322 z M 99.94762,127.13126 c 0.29488,-8.14595 1.30852,-16.05231 3.00405,-23.55322 l 0.0553,-0.22116 c 7.57463,2.87504 15.6653,4.66273 24.12454,5.17876 v 18.59562 z m 27.18388,39.25538 v 34.16876 c -1.69553,-0.6819 -3.4095,-1.67711 -5.10504,-3.02248 -3.90711,-3.07777 -7.68521,-7.8695 -10.89198,-13.84074 -2.02728,-3.79653 -3.81496,-7.98009 -5.34463,-12.49537 6.85586,-2.69075 13.98818,-4.29414 21.34165,-4.81017 m 0,-68.190084 a 71.710165,71.710165 0 0 1 -21.32322,-4.828595 c 1.52967,-4.533719 3.29892,-8.717273 5.34463,-12.495373 3.20677,-5.97124 6.96644,-10.762976 10.89198,-13.840744 1.69554,-1.326942 3.39108,-2.340578 5.10504,-3.02248 v 34.187192 z m -21.8024,-29.76405 c 0.6819,-0.276446 1.34537,-0.552892 2.02727,-0.810909 -4.31256,5.768513 -8.01694,12.974546 -10.910414,21.267935 -3.870248,-2.21157 -7.53777,-4.791736 -10.947273,-7.703637 5.860661,-5.381488 12.513803,-9.65719 19.830417,-12.753389 M 68.432736,105.32887 c 2.543306,-6.008099 5.897517,-11.573883 9.988922,-16.623636 4.589012,3.962397 9.620331,7.42719 15.020247,10.302231 -2.137846,8.643545 -3.464789,18.134875 -3.814955,28.123795 H 63.180253 c 0.552893,-7.53777 2.322149,-14.85437 5.252483,-21.80239 m -5.252483,32.12306 H 89.62695 c 0.350166,9.98892 1.677109,19.48025 3.814955,28.1238 A 81.828103,81.828103 0 0 0 78.421658,175.87796 68.901474,68.901474 0 0 1 63.180253,137.45193 m 42.148847,58.69876 c -7.316614,-3.0962 -13.969756,-7.3719 -19.830417,-12.75339 3.409503,-2.9119 7.077025,-5.47364 10.947273,-7.70364 2.893474,8.29339 6.597854,15.49943 10.910414,21.26794 -0.6819,-0.25802 -1.3638,-0.53447 -2.02727,-0.81091 m 53.92545,0 c -0.6819,0.27644 -1.34537,0.55289 -2.02727,0.81091 4.31256,-5.76851 8.01694,-12.97455 10.91041,-21.26794 3.87025,2.21157 7.53777,4.79174 10.94727,7.70364 a 68.890416,68.890416 0 0 1 -19.83041,12.75339"
       id="path881"
       style="fill:#ffffff;fill-opacity:1;stroke-width:0.184297" /></g></svg>
