<?xml version="1.0" encoding="UTF-8" standalone="no"?>
<!-- Created with Inkscape (http://www.inkscape.org/) -->

<svg
   width="1000"
   height="1000"
   viewBox="0 0 264.58333 264.58333"
   version="1.1"
   id="svg5"
   inkscape:version="1.2.2 (b0a8486541, 2022-12-01)"
   sodipodi:docname="laissez_faire_georgism.svg"
   xml:space="preserve"
   xmlns:inkscape="http://www.inkscape.org/namespaces/inkscape"
   xmlns:sodipodi="http://sodipodi.sourceforge.net/DTD/sodipodi-0.dtd"
   xmlns="http://www.w3.org/2000/svg"
   xmlns:svg="http://www.w3.org/2000/svg"><sodipodi:namedview
     id="namedview7"
     pagecolor="#ffffff"
     bordercolor="#000000"
     borderopacity="0.25"
     inkscape:showpageshadow="2"
     inkscape:pageopacity="0.0"
     inkscape:pagecheckerboard="0"
     inkscape:deskcolor="#d1d1d1"
     inkscape:document-units="px"
     showgrid="false"
     inkscape:zoom="0.52787981"
     inkscape:cx="331.51485"
     inkscape:cy="490.64199"
     inkscape:window-width="1920"
     inkscape:window-height="1004"
     inkscape:window-x="0"
     inkscape:window-y="0"
     inkscape:window-maximized="1"
     inkscape:current-layer="layer1" /><defs
     id="defs2" /><g
     inkscape:label="Layer 1"
     inkscape:groupmode="layer"
     id="layer1"><circle
       style="fill:#436a06;fill-opacity:1;stroke:#ea8a12;stroke-width:0;stroke-dasharray:none;stroke-opacity:1;paint-order:stroke markers fill"
       id="path236"
       cx="132.29167"
       cy="132.29167"
       r="125.37917" /><circle
       style="fill:#427328;fill-opacity:0;stroke:#ffffff;stroke-width:5.29167;stroke-dasharray:none;stroke-opacity:1;paint-order:normal"
       id="path236-3"
       cx="132.29167"
       cy="132.29167"
       r="125.37917" /><path
       style="fill:#ffffff;fill-opacity:1;stroke-width:0.253001"
       d="M 88.837534,175.61979 45.450859,132.23255 66.448054,111.19254 C 77.996516,99.620535 97.505805,80.122883 109.80203,67.864424 c 12.29622,-12.25846 22.45804,-22.28811 22.58182,-22.28811 0.12379,0 19.69287,19.467445 43.48684,43.260988 23.79398,23.793538 43.26178,43.331208 43.26178,43.417028 0,0.0858 -16.99221,17.09377 -37.76045,37.79546 -20.76824,20.70167 -40.32261,40.18592 -43.45414,43.29832 l -5.69367,5.6589 z m 55.765406,5.21658 11.61744,-11.64054 -2.88889,-3.01508 c -1.58889,-1.65829 -6.95685,-7.10104 -11.92881,-12.09498 l -9.03991,-9.07991 -7.86451,7.84303 c -4.32547,4.31368 -9.69679,9.75517 -11.93626,12.09222 l -4.07177,4.24916 11.84787,11.86557 11.84788,11.86557 0.39976,-0.22226 c 0.21987,-0.12224 5.62761,-5.46049 12.0172,-11.86278 z m -37.12619,-36.77114 c 6.44908,-6.43125 11.69592,-11.77477 11.65963,-11.87448 -0.0362,-0.0997 -4.56305,-4.71561 -10.05951,-10.25753 -5.49645,-5.54195 -10.813533,-10.85691 -11.815744,-11.81102 l -1.822193,-1.73477 -1.71983,1.52852 c -0.945898,0.84069 -6.32135,6.21407 -11.945438,11.94085 l -10.22561,10.41233 11.742604,11.74464 11.742605,11.74464 h 0.358928 0.358939 z m 73.94994,-0.0628 11.75396,-11.75599 -6.79861,-6.90286 c -3.73925,-3.79657 -9.08591,-9.14864 -11.88148,-11.89348 -2.79557,-2.74484 -5.17784,-4.99339 -5.29394,-4.99678 -0.11609,-0.003 -5.27875,5.03174 -11.47255,11.18916 -6.1938,6.15742 -11.47834,11.49764 -11.74342,11.86714 l -0.48196,0.67184 11.82089,11.78848 c 6.5015,6.48367 11.93841,11.78848 12.08203,11.78848 0.14362,0 5.55042,-5.29019 12.01508,-11.75599 z m -37.25272,-36.63052 c 6.32295,-6.29657 11.59837,-11.635381 11.72315,-11.864025 l 0.22687,-0.415719 -11.88625,-11.981354 -11.88626,-11.981345 -11.88091,12.005872 c -6.53451,6.603235 -11.85667,12.035123 -11.82705,12.070876 0.0297,0.03576 5.34111,5.363525 11.80332,11.839505 6.46221,6.47598 11.85777,11.7745 11.99016,11.7745 0.13237,0 5.41401,-5.15173 11.73697,-11.44831 z"
       id="path22767" /></g></svg>
