<?xml version="1.0" encoding="UTF-8" standalone="no"?>
<!-- Created with Inkscape (http://www.inkscape.org/) -->

<svg
   width="1000"
   height="1000"
   viewBox="0 0 264.58333 264.58333"
   version="1.1"
   id="svg5"
   inkscape:version="1.2.2 (b0a8486541, 2022-12-01)"
   sodipodi:docname="market_socialism.svg"
   xml:space="preserve"
   xmlns:inkscape="http://www.inkscape.org/namespaces/inkscape"
   xmlns:sodipodi="http://sodipodi.sourceforge.net/DTD/sodipodi-0.dtd"
   xmlns="http://www.w3.org/2000/svg"
   xmlns:svg="http://www.w3.org/2000/svg"><sodipodi:namedview
     id="namedview7"
     pagecolor="#ffffff"
     bordercolor="#000000"
     borderopacity="0.25"
     inkscape:showpageshadow="2"
     inkscape:pageopacity="0.0"
     inkscape:pagecheckerboard="0"
     inkscape:deskcolor="#d1d1d1"
     inkscape:document-units="px"
     showgrid="false"
     inkscape:zoom="0.74653479"
     inkscape:cx="482.22803"
     inkscape:cy="483.56755"
     inkscape:window-width="1920"
     inkscape:window-height="1004"
     inkscape:window-x="0"
     inkscape:window-y="0"
     inkscape:window-maximized="1"
     inkscape:current-layer="layer1" /><defs
     id="defs2" /><g
     inkscape:label="Layer 1"
     inkscape:groupmode="layer"
     id="layer1"><circle
       style="fill:#c51d1d;stroke:#eecc0e;stroke-width:0;stroke-dasharray:none;stroke-opacity:1;paint-order:stroke markers fill;fill-opacity:1"
       id="path236"
       cx="132.29167"
       cy="132.29167"
       r="125.37917" /><circle
       style="fill:#427328;stroke:#ffffff;stroke-width:5.2916666;fill-opacity:0;stroke-opacity:1;stroke-dasharray:none;paint-order:normal"
       id="path236-3"
       cx="132.29167"
       cy="132.29167"
       r="125.37917" /><path
       style="fill:#ffffff;fill-opacity:1;stroke-width:0.264583"
       d="m 115.736,213.28306 c 0,-0.1045 0.64467,-2.22489 1.4326,-4.71197 2.06128,-6.50642 4.38824,-14.06725 4.38824,-14.25842 0,-0.35545 -1.74042,-1.75179 -8.73125,-7.00508 l -7.27604,-5.46762 1.05833,-0.17676 c 0.58208,-0.0972 5.16745,-0.26409 10.18971,-0.37082 l 9.13137,-0.19406 3.15681,-9.37657 c 1.73624,-5.15712 3.24154,-9.42895 3.34512,-9.49296 0.21484,-0.13279 0.76267,1.36464 4.2266,11.55274 l 2.48309,7.30327 4.10656,0.17033 c 2.25862,0.0937 6.81524,0.17073 10.12584,0.17122 3.35452,5.2e-4 6.01927,0.10546 6.01927,0.23713 0,0.12993 -3.30398,2.70896 -7.34218,5.73117 -4.03821,3.02221 -7.65011,5.77699 -8.02645,6.12173 l -0.68427,0.6268 2.44317,7.73109 c 1.34374,4.25209 2.68404,8.59343 2.97844,9.64742 0.53258,1.90668 0.53263,1.91492 0.009,1.6349 -0.67189,-0.35959 -4.54788,-3.06579 -11.04073,-7.70858 l -5.12619,-3.66554 -0.69465,0.44878 c -0.38206,0.24683 -3.0759,2.13714 -5.98632,4.20069 -8.56562,6.07323 -10.18646,7.16336 -10.18646,6.85111 z M 89.01309,168.76485 v -6.91678 l 4.29948,-0.005 c 4.738676,-0.005 7.00738,-0.35483 9.39666,-1.44868 2.04305,-0.93534 2.93353,-1.70985 10.72521,-9.3285 3.75786,-3.6744 6.98293,-6.68073 7.16683,-6.68073 0.33923,0 6.44839,5.51827 8.62848,7.79392 l 1.19063,1.24281 -7.04656,6.95671 c -9.12378,9.00742 -10.44011,10.11876 -14.10003,11.90425 -4.98517,2.432 -7.26172,2.90993 -15.299764,3.21196 l -4.960936,0.18641 v -6.91678 z m 78.44895,6.56451 c -3.13338,-0.15044 -4.46997,-0.33928 -6.34999,-0.89716 -2.84954,-0.84556 -5.97475,-2.16252 -7.99381,-3.36855 -0.95798,-0.57223 -5.80756,-5.11007 -13.83119,-12.9421 -15.62323,-15.25016 -16.43137,-15.95859 -20.50834,-17.97791 -4.64853,-2.30243 -6.36014,-2.65594 -13.69218,-2.828 -4.16533,-0.0977 -6.019284,-0.0546 -6.019284,0.1402 0,0.15479 0.2985,1.50941 0.66332,3.01027 0.364824,1.50086 0.738124,3.52182 0.829544,4.49101 0.1558,1.65178 0.12329,1.80511 -0.519,2.4474 -0.376874,0.37687 -0.857274,0.68522 -1.067554,0.68522 -0.58043,0 -2.45741,-1.49729 -8.936536,-7.12877 -9.873551,-8.58182 -11.895322,-10.39677 -11.815791,-10.6071 0.175408,-0.46389 16.293977,-14.6815 18.597067,-16.4038 1.85238,-1.38525 2.35813,-1.49396 3.17059,-0.6815 0.881264,0.88126 0.860544,1.71819 -0.15572,6.28824 -0.45188,2.03204 -0.7629,3.7533 -0.69117,3.82504 0.0717,0.0717 2.495284,0.19197 5.385654,0.2672 2.89038,0.0752 6.55406,0.31674 8.14151,0.5367 6.97461,0.96639 14.12565,4.01359 19.27831,8.21488 2.01682,1.64444 8.55368,7.92057 18.97812,18.22114 8.45161,8.35118 9.44258,9.19618 11.76525,10.03221 2.75396,0.99127 4.26704,1.19409 8.90836,1.19409 h 4.19722 v 6.87917 6.87916 l -2.18281,-0.0433 c -1.20055,-0.0238 -3.96875,-0.12899 -6.15157,-0.23379 z m -2.65785,-27.88906 c -0.86851,-0.8685 -0.84474,-1.91612 0.14431,-6.36202 0.43657,-1.96239 0.79375,-3.64338 0.79375,-3.73553 0,-0.0922 -2.7682,-0.10668 -6.15156,-0.0323 -6.92578,0.15227 -8.26535,0.39567 -12.50156,2.27152 l -2.38125,1.05445 -4.89479,-4.88116 -4.89479,-4.88115 0.66145,-0.51422 c 0.36381,-0.28282 2.09021,-1.22069 3.83646,-2.08415 7.42827,-3.67301 10.42993,-4.34146 20.89388,-4.65292 2.76039,-0.0822 5.11212,-0.24263 5.22608,-0.35658 0.11396,-0.11397 -0.14883,-1.74881 -0.58397,-3.633 -0.99858,-4.32388 -1.02236,-5.47389 -0.13158,-6.36467 0.76794,-0.76794 1.33275,-0.69304 2.74225,0.36367 2.0209,1.51507 17.51424,15.15066 18.61712,16.3848 0.44847,0.50185 0.34897,0.61608 -3.47249,3.98669 -9.86952,8.70511 -16.30819,14.08601 -16.85502,14.08601 -0.21938,0 -0.69111,-0.29225 -1.04829,-0.64944 z m -35.73738,-24.74611 c -0.97781,-0.32088 -2.07719,-0.93836 -2.77813,-1.56036 l -1.15997,-1.02933 -0.0702,-24.768837 -0.0701,-24.768841 h -5.81683 -5.81683 V 60.90953 51.252239 l 12.36927,0.0052 c 6.81581,0.0029 13.19096,0.124005 14.19942,0.269767 2.70192,0.390533 4.93162,1.595107 7.35347,3.972642 3.41602,3.353519 4.4348,6.279232 4.44042,12.751829 l 0.002,2.315107 h -5.82084 -5.82083 v 24.651604 24.651602 l -1.18185,1.13241 c -1.41199,1.35293 -3.06386,1.92188 -6.09419,2.09903 -1.65438,0.0967 -2.47008,0.008 -3.73482,-0.40728 z"
       id="path5006" /></g></svg>
