<?xml version="1.0" encoding="UTF-8" standalone="no"?>
<!-- Created with Inkscape (http://www.inkscape.org/) -->

<svg
   width="1000"
   height="1000"
   viewBox="0 0 264.58333 264.58333"
   version="1.1"
   id="svg5"
   inkscape:version="1.2.2 (b0a8486541, 2022-12-01)"
   sodipodi:docname="neo_corporatism.svg"
   xml:space="preserve"
   xmlns:inkscape="http://www.inkscape.org/namespaces/inkscape"
   xmlns:sodipodi="http://sodipodi.sourceforge.net/DTD/sodipodi-0.dtd"
   xmlns="http://www.w3.org/2000/svg"
   xmlns:svg="http://www.w3.org/2000/svg"><sodipodi:namedview
     id="namedview7"
     pagecolor="#ffffff"
     bordercolor="#000000"
     borderopacity="0.25"
     inkscape:showpageshadow="2"
     inkscape:pageopacity="0.0"
     inkscape:pagecheckerboard="0"
     inkscape:deskcolor="#d1d1d1"
     inkscape:document-units="px"
     showgrid="false"
     inkscape:zoom="0.74653479"
     inkscape:cx="179.49599"
     inkscape:cy="419.27048"
     inkscape:window-width="1920"
     inkscape:window-height="1004"
     inkscape:window-x="0"
     inkscape:window-y="0"
     inkscape:window-maximized="1"
     inkscape:current-layer="layer1" /><defs
     id="defs2" /><g
     inkscape:label="Layer 1"
     inkscape:groupmode="layer"
     id="layer1"><circle
       style="fill:#ffffff;stroke:#eecc0e;stroke-width:0;stroke-dasharray:none;stroke-opacity:1;paint-order:stroke markers fill;fill-opacity:1"
       id="path236"
       cx="132.29167"
       cy="132.29167"
       r="125.37917" /><circle
       style="fill:#427328;stroke:#ff1d1d;stroke-width:5.2916666;fill-opacity:0;stroke-opacity:1;stroke-dasharray:none;paint-order:normal"
       id="path236-3"
       cx="132.29167"
       cy="132.29167"
       r="125.37917" /><path
       style="display:inline;fill:#ff1d1d;stroke-width:0.794414;fill-opacity:1"
       d="m 128.96471,219.47865 c -1.88374,-1.4996 -13.35574,-23.03309 -13.35574,-25.06937 v -1.77643 l 15.29248,0.21577 15.29248,0.21575 0.25543,2.22669 c 0.1811,1.57879 -1.40974,5.27721 -5.46735,12.71063 -5.8183,10.65894 -7.19579,12.46998 -9.48475,12.46998 -0.70684,0 -1.84648,-0.44686 -2.53255,-0.99302 z m 1.78545,-47.20495 c -4.53468,-0.47236 -8.56934,-3.63431 -11.4939,-9.0077 -1.85294,-3.40444 -2.34875,-5.57727 -2.93398,-12.85765 -1.67744,-20.86764 2.97962,-42.79723 12.11933,-57.068595 5.02403,-7.844867 17.77077,-17.597139 31.13193,-23.818394 6.47285,-3.013906 22.51652,-8.447105 23.13049,-7.833148 0.17852,0.178525 -1.08436,4.46036 -2.8064,9.515189 -6.35406,18.651547 -8.3255,33.757918 -5.98794,45.883548 1.74209,9.03677 1.74218,27.65932 1.5e-4,33.53067 -2.9326,9.88408 -7.74575,16.12216 -15.0532,19.5097 -3.39332,1.57306 -5.62242,1.91425 -14.29946,2.1887 -5.6537,0.17883 -11.86687,0.15978 -13.80702,-0.0423 z m -16.73002,-1.00685 c -4.41907,-1.35503 -11.81836,-5.67629 -15.708749,-9.17409 -4.852665,-4.36296 -9.265058,-12.6314 -10.60398,-19.87091 -1.126098,-6.08878 -0.400973,-17.1102 1.694605,-25.75706 1.465624,-6.04749 1.542086,-7.60684 0.794963,-16.21119 C 89.019466,86.692622 86.063045,74.825909 81.68254,66.077673 80.621568,63.95882 79.917184,62.061527 80.117242,61.861467 c 0.601999,-0.602001 15.53116,5.23923 23.178308,9.068817 3.93235,1.969268 10.00962,5.494267 13.50504,7.833331 10.56679,7.071071 9.93034,5.219985 5.34792,15.554294 -13.0003,29.318321 -14.73484,53.990221 -5.36452,76.304251 0.62984,1.49988 0.28642,1.57999 -2.76385,0.64469 z m 11.1218,-94.720389 c -2.84003,-2.242188 -7.82243,-5.795476 -11.072,-7.896196 -3.53422,-2.284743 -5.4495,-3.960785 -4.76648,-4.171124 12.89686,-3.971699 23.52254,-8.224072 35.13144,-14.059527 7.77109,-3.906301 14.78767,-7.102365 15.59241,-7.102365 2.73459,0 3.58262,2.259762 3.91038,10.420141 0.25396,6.322725 0.10046,7.851391 -0.78834,7.851391 -1.58759,0 -17.24735,8.835599 -25.44738,14.358001 -3.84486,2.58937 -7.08194,4.700845 -7.19349,4.692166 -0.11156,-0.0087 -2.5265,-1.850298 -5.36654,-4.092487 z M 97.635844,58.597562 c -1.412866,-0.923197 -2.09719,-5.532175 -1.514201,-10.198267 0.451315,-3.612151 0.827684,-4.359336 2.39388,-4.752427 1.072968,-0.269297 3.315137,0.184149 5.305237,1.072903 4.45434,1.989256 15.97858,10.62417 15.18077,11.374685 -0.7622,0.717001 -14.71708,3.115424 -18.03061,3.098917 -1.343026,-0.0067 -2.84381,-0.274805 -3.335076,-0.595811 z"
       id="path5083" /><path
       id="path5085"
       style="fill:#000000;stroke-width:0.794414"
       d="m 99.517439,43.576151 c -0.392185,-0.01853 -0.733777,0.0035 -1.002006,0.0708 -1.566183,0.393078 -1.942338,1.140065 -2.393653,4.752164 -0.582976,4.66604 0.101267,9.27516 1.51412,10.198344 0.491253,0.321006 1.992148,0.589129 3.3352,0.595829 3.3134,0.01651 17.26822,-2.382047 18.03042,-3.099035 0.79781,-0.750502 -10.72665,-9.38527 -15.18099,-11.3745 -1.49245,-0.666552 -3.12654,-1.088017 -4.303091,-1.143599 z M 80.392508,61.822065 c -0.14428,-0.01065 -0.237811,0.0016 -0.275435,0.03927 -0.200058,0.200047 0.50432,2.097453 1.565279,4.21628 4.38044,8.748119 7.337225,20.615375 8.514725,34.17621 0.747123,8.60422 0.670311,10.16353 -0.7953,16.21089 -2.095552,8.64686 -2.820555,19.66831 -1.69447,25.75709 1.338896,7.23938 5.751391,15.50818 10.604004,19.87114 3.890389,3.49767 11.289659,7.81908 15.708599,9.17411 3.05027,0.9353 3.39401,0.85496 2.76417,-0.64492 -9.37019,-22.31377 -7.63551,-46.98645 5.36453,-76.304384 4.58242,-10.334179 5.21867,-8.483109 -5.34799,-15.554089 -3.49542,-2.339038 -9.57277,-5.864388 -13.50512,-7.83363 C 96.126428,67.339868 82.556685,61.981793 80.392508,61.822065 Z M 115.60896,192.63268 v 1.77664 c 0,0.93362 2.41442,5.94967 5.2064,11.26184 0.68917,-0.46164 1.38076,-0.92261 2.03967,-1.42627 0.47982,-0.36676 0.8781,-0.82125 1.29191,-1.25935 0.53299,-0.59359 1.05062,-1.20341 1.52859,-1.84226 0.53629,-0.73486 1.05884,-1.48149 1.51464,-2.26963 0.4306,-0.75313 0.82802,-1.5267 1.20354,-2.30839 0.39525,-0.88254 0.60323,-1.82993 0.89349,-2.7497 0.0924,-0.32821 0.18262,-0.65754 0.27492,-0.98599 z" /></g></svg>
