<?xml version="1.0" encoding="UTF-8" standalone="no"?>
<!-- Created with Inkscape (http://www.inkscape.org/) -->

<svg
   width="1000"
   height="1000"
   viewBox="0 0 264.58333 264.58333"
   version="1.1"
   id="svg5"
   inkscape:version="1.2.2 (b0a8486541, 2022-12-01)"
   sodipodi:docname="pan_nationalism.svg"
   xml:space="preserve"
   xmlns:inkscape="http://www.inkscape.org/namespaces/inkscape"
   xmlns:sodipodi="http://sodipodi.sourceforge.net/DTD/sodipodi-0.dtd"
   xmlns="http://www.w3.org/2000/svg"
   xmlns:svg="http://www.w3.org/2000/svg"><sodipodi:namedview
     id="namedview7"
     pagecolor="#ffffff"
     bordercolor="#000000"
     borderopacity="0.25"
     inkscape:showpageshadow="2"
     inkscape:pageopacity="0.0"
     inkscape:pagecheckerboard="0"
     inkscape:deskcolor="#d1d1d1"
     inkscape:document-units="px"
     showgrid="false"
     inkscape:zoom="0.52787981"
     inkscape:cx="219.74699"
     inkscape:cy="490.64199"
     inkscape:window-width="1920"
     inkscape:window-height="1004"
     inkscape:window-x="0"
     inkscape:window-y="0"
     inkscape:window-maximized="1"
     inkscape:current-layer="layer1" /><defs
     id="defs2" /><g
     inkscape:label="Layer 1"
     inkscape:groupmode="layer"
     id="layer1"><circle
       style="fill:#ff9800;fill-opacity:0.99215686;stroke:#ea8a12;stroke-width:0;stroke-dasharray:none;stroke-opacity:1;paint-order:stroke markers fill"
       id="path236"
       cx="132.29167"
       cy="132.29167"
       r="125.37917" /><circle
       style="fill:#427328;fill-opacity:0;stroke:#000000;stroke-width:5.29167;stroke-dasharray:none;stroke-opacity:1;paint-order:normal"
       id="path236-3"
       cx="132.29167"
       cy="132.29167"
       r="125.37917" /><path
       style="fill:#000000;stroke-width:0.226112"
       d="m 133.44276,223.32208 c -0.0861,-0.13926 -0.0905,-6.7781 -0.01,-14.75298 0.0806,-7.97488 0.25638,-27.93084 0.39063,-44.34657 0.13425,-16.41574 0.31102,-35.34131 0.39281,-42.05684 l 0.14871,-12.21005 4.44426,-0.0613 4.44425,-0.0613 0.15538,2.09625 c 0.0855,1.15294 0.10879,15.22204 0.0519,31.26469 -0.0927,26.13065 -0.15332,30.02799 -0.58174,37.42154 -0.56085,9.67905 -0.8091,12.941 -1.3956,18.33783 -1.36682,12.57692 -3.32051,20.30875 -5.83493,23.09191 -0.95828,1.06069 -1.97535,1.64939 -2.2057,1.27669 z m -3.75857,-0.44535 c -6.00685,-3.0852 -9.2523,-32.38272 -9.20264,-83.0743 0.0156,-15.92973 0.22874,-29.60808 0.46502,-29.84436 0.077,-0.077 2.13563,-0.20128 4.57464,-0.27607 l 4.43458,-0.136 8e-5,6.53596 c 1.2e-4,9.4373 0.62829,86.20032 0.79759,97.46492 0.0788,5.24074 0.0587,9.58061 -0.0446,9.64415 -0.10329,0.0636 -0.56439,-0.0779 -1.02467,-0.3143 z m 46.64473,-8.51387 c -1.87916,-1.91299 -8.60206,-9.42638 -13.98739,-15.63205 l -3.41114,-3.93076 2.07313,-1.69265 c 1.14022,-0.93096 2.1999,-1.87366 2.35486,-2.09489 0.23599,-0.33694 0.0594,-1.11113 -1.08815,-4.76932 -0.75342,-2.40189 -1.41612,-4.44193 -1.47266,-4.5334 -0.0566,-0.0915 -0.88861,0.33715 -1.84904,0.95251 -0.96044,0.61537 -1.86157,1.11887 -2.00253,1.11889 -0.14095,1e-5 -0.30571,-0.22891 -0.36614,-0.50872 -0.10437,-0.48335 -5.5442,-20.59934 -6.05345,-22.38509 -0.13299,-0.46636 -0.31333,-0.84747 -0.40075,-0.84691 -0.0874,4.6e-4 -0.78578,0.56019 -1.55188,1.24362 -0.76611,0.68343 -1.45293,1.2426 -1.52626,1.2426 -0.18167,0 -0.12581,-46.66691 0.0587,-49.02492 l 0.14714,-1.88057 0.90445,0.77479 c 0.49744,0.42613 1.45099,1.05142 2.11898,1.38954 1.1043,0.55894 1.46346,0.61826 3.95696,0.65355 2.58373,0.0366 2.81676,0.003 4.02701,-0.59202 4.57201,-2.2452 6.62709,-8.02603 4.45787,-12.53984 -0.73364,-1.526588 -2.78465,-3.596925 -4.38578,-4.427106 -1.28436,-0.665936 -1.49527,-0.703794 -3.95696,-0.710366 -2.44672,-0.0068 -2.68773,0.03453 -4.08073,0.694607 -0.81424,0.385842 -1.84601,1.022517 -2.29283,1.414828 -0.97603,0.856972 -1.08813,0.706572 -1.08813,-1.459856 0,-1.330906 0.0625,-1.520601 0.73486,-2.231566 0.40417,-0.427358 2.41855,-1.831913 4.47638,-3.121234 4.75222,-2.977475 5.81811,-3.77125 8.47547,-6.311692 5.81388,-5.558111 8.3515,-11.250092 8.91203,-19.990017 0.12334,-1.923287 0.31486,-3.201857 0.54677,-3.650324 0.61688,-1.192914 1.6872,-2.070739 2.98476,-2.447949 2.94559,-0.856309 8.42145,0.89672 18.41379,5.894956 2.05197,1.026405 4.95186,2.576686 6.4442,3.445067 17.8432,10.382802 25.12904,14.214405 28.24953,14.85631 l 1.37114,0.282042 -0.003,1.376602 c -0.003,1.038053 -0.1168,1.53089 -0.47003,2.004012 -1.65628,2.21837 -5.67651,2.257545 -12.19061,0.118771 -5.19515,-1.705715 -8.09293,-3.016597 -22.02289,-9.962573 -4.52652,-2.257084 -8.25372,-4.076469 -8.28267,-4.043071 -0.029,0.03341 0.0449,0.772974 0.16401,1.643509 0.14359,1.049145 0.13444,2.566507 -0.0272,4.500571 -0.20528,2.457076 -0.40106,3.385341 -1.23987,5.878909 -1.85595,5.517276 -3.62439,9.108 -7.08209,14.379784 -3.58588,5.467226 -7.11426,9.932676 -11.30433,14.306586 -1.40183,1.46399 -2.5493,2.74488 -2.5493,2.84641 0,0.63142 4.15728,12.76014 4.71578,13.75813 0.20275,0.3623 1.00918,-0.21062 5.00703,-3.55726 1.43016,-1.1972 2.87856,-2.35775 3.21866,-2.579 0.75053,-0.48825 0.24983,-1.65477 4.02108,9.36805 3.37286,9.85838 5.36852,15.54535 5.60073,15.9603 0.12261,0.21908 0.64919,0.011 2.07733,-0.82079 1.36907,-0.79741 1.95749,-1.0348 2.06924,-0.83478 0.0859,0.15372 1.23901,3.73901 2.56252,7.9673 3.16009,10.09579 3.2987,10.51491 3.47578,10.51017 0.0832,-0.003 1.11702,-0.76535 2.29755,-1.69584 1.18053,-0.93049 2.27434,-1.6918 2.43071,-1.6918 0.15872,0 0.28551,0.27464 0.28706,0.62181 0.002,0.34199 0.20399,5.04795 0.44992,10.45768 0.57628,12.67594 0.84187,27.00539 0.5044,27.21396 -0.24942,0.15416 -1.24082,-2.76696 -10.55635,-31.10388 l -4.4379,-13.49968 -1.71574,1.12005 c -0.94366,0.61603 -1.79713,1.12004 -1.8966,1.12004 -0.19555,0 -0.74722,-1.37198 -1.90926,-4.74835 -0.62288,-1.80979 -2.67766,-7.49505 -7.0485,-19.50216 -0.44139,-1.21253 -0.87729,-2.20459 -0.96867,-2.20459 -0.0914,0 -0.91952,0.63322 -1.84031,1.40716 -5.27515,4.43384 -6.18343,5.15456 -6.40479,5.08221 -0.13411,-0.0438 -1.36699,-3.4297 -2.73973,-7.52414 -1.37275,-4.09444 -2.70393,-7.83811 -2.95818,-8.31926 l -0.46227,-0.87484 -0.96349,0.91654 c -0.87258,0.83008 -0.94826,0.98726 -0.80226,1.66623 0.17944,0.8344 6.18756,19.00227 6.33174,19.14645 0.11214,0.11213 2.56471,-1.75875 5.8726,-4.47976 2.36134,-1.9424 3.27862,-2.42857 3.27862,-1.73774 0,0.33069 1.12039,3.85148 5.573,17.51309 l 2.82377,8.66395 0.71955,-0.54443 c 0.39575,-0.29943 1.24824,-0.92234 1.89441,-1.38425 l 1.17485,-0.83983 0.32252,0.63423 c 0.17738,0.34883 0.7345,1.80436 1.23805,3.23452 1.11872,3.17731 4.5718,12.87879 8.93335,25.09843 4.01256,11.24186 4.34256,12.26369 4.13479,12.80308 -0.19415,0.50403 0.5072,1.23611 -7.82088,-8.16354 -8.91866,-10.06624 -12.66228,-14.42402 -12.66228,-14.73965 0,-0.32769 0.68074,-0.99772 2.65683,-2.61505 0.88861,-0.72729 1.41319,-1.32682 1.41319,-1.61512 0,-0.44603 -1.69207,-5.83878 -2.01652,-6.42683 -0.118,-0.21384 -0.5586,0.0161 -1.6166,0.84343 -0.79992,0.62557 -1.66969,1.13942 -1.93281,1.14189 -0.43056,0.004 -0.86593,-1.14119 -4.35389,-11.45309 -2.13151,-6.30166 -3.9223,-11.5044 -3.97953,-11.56161 -0.0917,-0.0917 -2.25157,1.49074 -4.02241,2.94714 l -0.6242,0.51337 1.00764,3.69251 c 0.5542,2.03089 1.12212,4.24396 1.26203,4.91794 0.30113,1.45052 0.52006,1.50901 1.95432,0.52221 0.61446,-0.42275 1.10418,-0.62108 1.22796,-0.4973 0.20554,0.20553 0.92666,2.58477 6.53173,21.55059 1.63553,5.53409 3.06587,10.15566 3.17855,10.27015 0.12398,0.12596 0.72084,-0.19319 1.51166,-0.80834 0.71873,-0.55907 1.45022,-1.10122 1.62552,-1.20478 0.63344,-0.37421 -0.0432,23.60673 -0.70074,24.83537 -0.2392,0.44696 -0.24754,0.44721 -0.56256,0.0173 -0.17587,-0.24004 -0.8298,-2.06445 -1.45318,-4.05423 -3.87742,-12.37641 -14.00522,-42.84823 -14.24131,-42.84823 -0.12408,0 -0.77688,0.40726 -1.45068,0.90503 l -1.22509,0.90503 -0.21959,-0.8485 c -0.12078,-0.46668 -1.20037,-4.71375 -2.39908,-9.43795 -1.19873,-4.72419 -2.20966,-8.6196 -2.24651,-8.65646 -0.11654,-0.11654 -2.40905,1.77473 -2.52848,2.08593 -0.0628,0.16362 0.14316,1.25042 0.45765,2.4151 0.31449,1.16469 1.49129,5.67888 2.6151,10.03153 1.12381,4.35266 2.11932,8.09423 2.21225,8.3146 0.15244,0.3615 0.29007,0.32265 1.40756,-0.39737 0.68122,-0.43893 1.33692,-0.76527 1.4571,-0.72521 0.12018,0.0401 1.70759,4.54327 3.52758,10.00713 3.85182,11.56371 4.66382,13.82095 8.72797,24.26233 2.8479,7.31667 3.3835,9.07456 2.76487,9.07456 -0.14288,0 -1.0344,-0.78857 -1.98116,-1.75237 z m -90.593499,1.22833 c -0.0629,-0.16386 0.866536,-2.78393 2.065372,-5.82238 3.456339,-8.76013 6.133628,-16.12978 9.472067,-26.07328 1.706826,-5.08378 3.29604,-9.69282 3.53159,-10.24233 l 0.42825,-0.99909 1.33584,0.90715 c 1.30477,0.88605 1.33908,0.8955 1.47555,0.40644 0.26772,-0.95948 5.06312,-19.49858 5.19862,-20.09799 0.11806,-0.52225 -0.0372,-0.75868 -1.14811,-1.74886 -0.70655,-0.62973 -1.31067,-1.11893 -1.34249,-1.0871 -0.0318,0.0318 -1.0879,4.17657 -2.34684,9.21055 -1.25894,5.03398 -2.37855,9.24342 -2.48804,9.35431 -0.11606,0.11754 -0.66068,-0.0946 -1.30608,-0.50876 -0.60886,-0.3907 -1.219805,-0.71036 -1.357643,-0.71036 -0.242449,0 -10.894474,31.76325 -13.497422,40.24793 -2.07214,6.75444 -2.531349,7.61673 -3.040517,5.70933 -0.315184,-1.18072 -0.739124,-13.88985 -0.653459,-19.58992 l 0.07102,-4.72306 1.564065,1.28227 c 0.860229,0.70525 1.638946,1.20262 1.73049,1.10527 0.09154,-0.0974 1.303867,-4.04352 2.694073,-8.76926 5.762468,-19.58849 6.863941,-23.17649 7.11491,-23.17649 0.143871,0 0.742926,0.30526 1.331214,0.67834 0.588295,0.37309 1.146116,0.67834 1.239601,0.67834 0.09348,0 0.445065,-1.09382 0.781297,-2.43071 0.336241,-1.33688 0.908761,-3.54996 1.272273,-4.91794 0.619298,-2.33054 0.637248,-2.51394 0.284878,-2.91138 -0.542838,-0.61225 -4.111215,-3.37776 -4.219125,-3.26984 -0.04999,0.05 -1.205349,3.39453 -2.567362,7.43223 -3.819004,11.32145 -5.266084,15.46181 -5.486083,15.69674 -0.124762,0.13321 -0.858485,-0.24111 -1.922415,-0.98075 -0.946355,-0.65791 -1.801404,-1.111 -1.900101,-1.00685 -0.09871,0.10415 -0.640486,1.65126 -1.203973,3.438 l -1.024508,3.24865 0.715827,0.59526 c 0.393705,0.3274 1.406991,1.18696 2.251743,1.91014 l 1.535915,1.31488 -0.475583,0.60708 c -0.641443,0.81878 -11.668448,13.42071 -16.084739,18.38201 -3.425667,3.84844 -4.098893,4.47493 -4.358075,4.05556 -0.137291,-0.22214 1.087346,-3.77897 6.776755,-19.68244 2.202244,-6.1559 4.644912,-13.02405 5.428149,-15.26256 2.069047,-5.91342 2.374104,-6.6703 2.68839,-6.6703 0.155751,0 1.033678,0.56148 1.950942,1.24773 1.183591,0.8855 1.713107,1.16448 1.823974,0.96097 0.110901,-0.20356 7.003539,-21.28084 8.46777,-25.89394 0.04931,-0.15545 0.170715,-0.28264 0.269711,-0.28264 0.099,0 1.755641,1.2485 3.681423,2.77446 3.590595,2.84511 4.840745,3.78279 5.043375,3.78279 0.17481,0 6.48501,-19.08289 6.48501,-19.61155 0,-0.50012 -1.707,-2.18486 -2.0186,-1.99228 -0.2639,0.1631 -1.72659,4.22566 -3.74848,10.41129 -0.93496,2.86031 -1.83153,5.43332 -1.99239,5.7178 l -0.292476,0.51722 -0.89196,-0.6046 c -0.490581,-0.33253 -2.344961,-1.82563 -4.120847,-3.31799 -1.775886,-1.49237 -3.267371,-2.67405 -3.314416,-2.62597 -0.08991,0.0919 -1.090748,2.83247 -3.706497,10.14941 -1.554998,4.34974 -4.266343,11.78054 -5.383352,14.75381 -0.315363,0.83944 -0.67937,1.52625 -0.808893,1.52625 -0.129522,0 -0.982401,-0.50899 -1.89529,-1.13111 l -1.659797,-1.13111 -3.871477,11.81491 c -7.28059,22.21875 -10.348925,31.48674 -10.679688,32.25821 -0.920982,2.1481 -0.943202,-0.93787 -0.157759,-21.91304 0.361905,-9.66466 0.695975,-15.47445 0.901984,-15.68634 0.108072,-0.11118 1.224534,0.60178 2.551304,1.62922 l 2.35914,1.82688 1.632946,-5.24701 c 2.757142,-8.85931 4.106106,-12.92241 4.386448,-13.21203 0.210623,-0.2176 0.650254,-0.0596 2.044075,0.73486 0.97665,0.55665 1.840331,1.01087 1.919296,1.0094 0.07896,-0.002 1.660156,-4.45305 3.513768,-9.8924 3.028212,-8.88618 5.495936,-15.86923 5.678222,-16.06799 0.03692,-0.0403 1.978211,1.52849 4.313926,3.48617 l 4.246764,3.55939 0.396798,-0.93431 c 0.697436,-1.64218 4.492231,-12.73539 4.492231,-13.132 0,-0.21002 -0.61907,-0.98918 -1.37572,-1.73145 -1.982316,-1.94467 -6.176779,-6.83252 -8.301143,-9.6734 C 85.668814,96.460653 81.625803,88.621874 80.173766,81.853005 79.676699,79.535877 79.49261,75.178691 79.825476,73.609472 l 0.179576,-0.846589 -9.90239,4.926869 c -9.909749,4.930538 -14.564292,7.086958 -18.152726,8.410053 -2.627432,0.968771 -6.306795,1.956044 -8.516149,2.285132 -4.048344,0.602995 -6.636113,-0.890097 -6.636113,-3.828909 0,-0.84594 0.04273,-0.896404 1.074031,-1.268128 5.492073,-1.97959 9.631261,-4.085034 22.409839,-11.399013 13.104324,-7.500419 19.060127,-10.435505 24.904098,-12.273007 1.949002,-0.612822 2.738606,-0.746672 4.40918,-0.747427 2.299404,-0.0011 3.006531,0.263199 4.13065,1.5435 0.812636,0.925537 1.027687,1.879438 1.394992,6.187887 0.661279,7.756498 3.42037,13.57713 8.862666,18.696858 2.07417,1.951215 4.50502,3.698318 9.26151,6.656419 1.80498,1.12253 3.47983,2.259647 3.72187,2.526931 0.35139,0.388012 0.45621,0.896497 0.52006,2.522581 l 0.08,2.036615 -1.21052,-0.904548 c -0.66579,-0.497495 -1.77015,-1.194034 -2.45414,-1.547871 -1.14584,-0.592748 -1.43915,-0.643297 -3.73084,-0.643015 -2.37915,2.22e-4 -2.55053,0.03316 -3.94354,0.756471 -1.75231,0.909864 -3.80662,2.911611 -4.4859,4.371099 -2.232452,4.79671 -0.25051,10.37226 4.47248,12.58187 1.00961,0.47234 1.66907,0.5983 3.50473,0.66945 2.74755,0.10648 4.13511,-0.30435 6.33869,-1.87679 l 1.46217,-1.04338 v 25.20442 c 0,13.86243 0.0618,25.36536 0.13725,25.56207 0.29001,0.75575 -0.51224,0.3101 -1.87734,-1.04288 -0.77721,-0.77029 -1.4594,-1.35424 -1.51598,-1.29766 -0.0566,0.0566 -1.48818,5.17513 -3.18134,11.37457 -1.69316,6.19943 -3.20374,11.57867 -3.35683,11.95386 l -0.27835,0.68216 -1.85331,-1.26196 c -1.01932,-0.69408 -1.89603,-1.19041 -1.94822,-1.10296 -0.13479,0.22583 -2.85816,8.91464 -2.85816,9.11883 0,0.0929 1.02203,1.00458 2.2712,2.02595 1.24915,1.02138 2.24122,1.98948 2.20459,2.15133 -0.1153,0.50941 -17.286685,19.76492 -18.422136,20.65806 -0.68213,0.53656 -0.947192,0.57562 -1.105574,0.16287 z M 53.812828,150.88053 c -3.446648,-0.75442 -5.385497,-2.67583 -6.299265,-6.24261 -0.443023,-1.72927 -0.310279,-1.88866 1.321676,-1.58698 2.322631,0.42936 5.417185,-0.58401 8.901359,-2.91492 2.147669,-1.4368 8.279058,-7.50576 11.492222,-11.37522 2.986951,-3.59706 7.313595,-9.40007 10.120338,-13.57371 2.434198,-3.61966 5.129579,-7.37951 5.290269,-7.37951 0.214529,0 4.763846,6.27417 5.049692,6.96426 0.293246,0.70797 0.260754,0.84062 -0.662048,2.70293 -1.097789,2.21542 -3.281437,5.51972 -6.524572,9.87298 -7.443237,9.99106 -16.957589,19.43228 -22.66732,22.4931 -1.499868,0.80403 -2.053168,0.97735 -4.04413,1.26678 -0.310911,0.0452 -1.20111,-0.057 -1.978221,-0.2271 z m 153.153252,0.10134 c -4.94856,-1.23795 -15.08559,-10.64664 -24.35393,-22.60411 -2.74491,-3.54133 -6.21601,-8.73916 -7.29711,-10.92712 -0.7603,-1.53873 -0.82564,-1.80343 -0.6076,-2.4615 0.13437,-0.40555 1.33543,-2.15143 2.66902,-3.87973 l 2.42472,-3.14238 0.62362,0.7705 c 0.34299,0.42378 2.3193,3.21148 4.39179,6.19489 11.39059,16.39705 19.29224,24.82841 25.86118,27.5948 1.68317,0.70883 4.13958,0.9693 5.52741,0.5861 0.49025,-0.13536 0.93637,-0.20111 0.99139,-0.1461 0.22742,0.22743 -0.4963,3.01918 -1.04588,4.03448 -0.85867,1.5863 -2.6361,3.12216 -4.17441,3.60707 -1.57772,0.49733 -3.84013,0.66581 -5.0102,0.3731 z m 13.2084,-16.89033 c -5.21237,-0.49185 -16.86495,-7.85421 -26.89268,-16.99137 -5.5778,-5.08244 -10.68439,-10.73876 -11.19366,-12.39865 -0.14948,-0.48725 1.90428,-7.068352 2.98223,-9.55622 l 0.44086,-1.0175 7.32616,7.23793 c 10.34371,10.21912 13.90912,13.36166 19.09064,16.82648 7.02873,4.70001 11.86223,5.91124 15.84374,3.97032 0.63421,-0.30916 1.26206,-0.56212 1.39524,-0.56212 0.39226,0 0.55851,1.27266 0.38803,2.97022 -0.34112,3.39677 -1.06278,4.96338 -3.24503,7.04452 -1.9634,1.87241 -3.96686,2.68104 -6.13553,2.47639 z m -178.892209,-0.356 c -2.03082,-0.76187 -4.280118,-2.94393 -5.400118,-5.23871 -1.035121,-2.12086 -1.448567,-7.12253 -0.588765,-7.12253 0.147793,0 0.642878,0.25425 1.100199,0.56501 2.492336,1.69359 6.879912,1.21367 11.765213,-1.28691 6.324468,-3.23722 13.500054,-9.2617 26.042353,-21.864647 2.477322,-2.489294 4.600003,-4.466797 4.717066,-4.394438 0.634375,0.392063 3.668159,9.311005 3.455441,10.158545 -0.50434,2.00947 -7.959499,9.73118 -15.665439,16.22556 -7.266054,6.12364 -14.588921,10.78524 -19.568185,12.45672 -2.134082,0.71639 -4.699376,0.93597 -5.857765,0.5014 z M 226.32663,111.85532 c -2.99348,-0.37557 -8.45594,-2.12948 -12.92641,-4.15046 -8.26794,-3.73774 -19.14861,-10.834129 -25.47025,-16.611758 -1.0676,-0.975718 -1.2533,-1.258359 -1.16703,-1.776176 0.30777,-1.847237 2.28005,-10.144791 2.45473,-10.327324 0.24994,-0.261165 0.0613,-0.462098 2.88601,3.07424 4.35219,5.448654 7.79311,8.01235 16.7652,12.491077 8.29153,4.139008 14.41204,6.553841 19.50766,7.696691 3.00708,0.67444 3.39505,0.63676 5.90995,-0.57388 0.98388,-0.47364 1.8742,-0.80844 1.97849,-0.74399 0.52856,0.32667 -0.003,5.93514 -0.68834,7.26536 -1.37137,2.66097 -5.18085,4.16674 -9.25001,3.65622 z M 33.935904,111.64015 c -2.184221,-0.42756 -4.150964,-1.94621 -5.167156,-3.98989 -0.603901,-1.21453 -0.653459,-1.50903 -0.664501,-3.94894 -0.0068,-1.45008 0.0511,-2.7002 0.128139,-2.77803 0.077,-0.0779 0.976222,0.22612 1.998192,0.67545 1.021969,0.44934 2.184896,0.87 2.584283,0.93481 0.820515,0.13316 4.313551,-0.65732 7.713622,-1.7456 5.532069,-1.770669 15.039405,-6.085151 20.900775,-9.484882 4.887848,-2.835073 6.868812,-4.544505 10.759397,-9.284639 1.281502,-1.561323 2.490354,-2.971851 2.686339,-3.134498 0.449808,-0.373314 0.381851,-0.56735 1.379293,3.938274 0.440494,1.989783 1.000733,4.351145 1.244977,5.247454 l 0.444082,1.629673 -1.183753,1.115949 c -7.828241,7.379852 -23.985228,16.959059 -33.0094,19.570729 -3.694131,1.06912 -7.968933,1.61538 -9.814289,1.25414 z m 75.004546,-2.49881 c -1.99513,-0.38625 -3.51365,-2.19741 -3.48533,-4.15701 0.0519,-3.58717 4.02326,-5.526385 7.29785,-3.5635 l 1.03581,0.62089 h 18.65424 18.65424 l 1.03581,-0.62089 c 1.78704,-1.0712 4.10815,-1.03124 5.69407,0.098 1.4395,1.02502 2.05438,3.70121 1.22076,5.31327 -1.32367,2.55968 -5.19584,3.29931 -7.29355,1.39315 -0.45865,-0.41677 -1.0642,-0.42828 -19.33823,-0.36744 l -18.86474,0.0628 -0.6391,0.50281 c -0.35151,0.27655 -1.01035,0.56525 -1.46409,0.64156 -0.45373,0.0763 -0.9776,0.16845 -1.16414,0.20477 -0.18655,0.0363 -0.79116,-0.0215 -1.3436,-0.12843 z m 15.36295,-9.640828 c -1.16185,-0.103457 -1.71881,-0.51339 -2.23071,-1.641868 -0.29268,-0.645186 -0.37408,-1.940156 -0.4406,-7.009469 -0.11876,-9.049882 0.41468,-14.738017 1.91906,-20.463139 0.80997,-3.082487 1.20957,-3.934683 2.52721,-5.389667 1.70689,-1.884813 1.7278,-1.947182 1.71778,-5.124538 -0.009,-2.818062 -0.0124,-2.836409 -1.19536,-6.218082 -0.65254,-1.865424 -1.24486,-3.569743 -1.31626,-3.787376 -0.11389,-0.347122 0.0356,-0.395696 1.21817,-0.395696 1.62697,0 1.89831,0.238617 2.44262,2.148064 0.64777,2.272354 0.75437,2.286475 2.85294,0.377895 0.66553,-0.605276 1.66793,-1.381399 2.22756,-1.724717 1.35941,-0.833969 1.58278,-1.162653 1.58278,-2.329052 0,-1.922288 -0.67241,-2.244143 -3.15078,-1.508147 l -1.19785,0.355724 0.14684,0.918292 c 0.11055,0.691302 0.0541,1.020763 -0.22832,1.33284 -0.52141,0.576142 -1.07598,0.227634 -1.40957,-0.885802 l -0.26646,-0.889355 -2.58168,-0.09882 c -3.17051,-0.121359 -3.39072,-0.250781 -3.17182,-1.864123 0.34554,-2.546679 1.34029,-3.825676 3.19133,-4.103258 1.43457,-0.215127 4.44395,0.263412 7.31164,1.162664 2.9631,0.929173 4.60003,1.22888 6.71183,1.22888 1.17338,0 1.65394,0.08217 1.65305,0.28264 -0.003,0.720838 -0.56337,2.174131 -1.15614,2.999543 -0.84776,1.180496 -1.0347,1.883077 -1.21447,4.564382 -0.2291,3.416837 0.20324,8.112482 1.46015,15.858733 1.83132,11.286393 2.2656,14.570736 2.52696,19.111107 0.27621,4.798364 0.031,9.176291 -0.65401,11.676593 l -0.40266,1.469727 -8.92806,0.01829 c -4.91045,0.01008 -9.38577,-0.02248 -9.94517,-0.0723 z M 113.63494,61.764481 c -0.44086,-0.491675 -0.86367,-1.518644 -0.86367,-2.09783 0,-0.578232 3.83678,-2.31759 6.25117,-2.83389 2.67721,-0.572502 1.19746,-3.278337 -2.8232,-5.162485 -2.3029,-1.079176 -4.34586,-1.366957 -5.29398,-0.745732 -0.31864,0.208781 -0.62806,0.29776 -0.68761,0.197732 -0.0596,-0.100029 -0.18001,-0.81179 -0.26769,-1.58169 -0.15905,-1.396408 -0.15732,-1.402086 0.70913,-2.329132 0.76019,-0.813359 1.05506,-0.961145 2.36319,-1.184447 1.97121,-0.336492 7.36523,0.02636 7.67509,0.516295 0.11379,0.179897 0.47595,1.14109 0.80482,2.135983 0.32887,0.994893 1.18795,3.335152 1.90908,5.200576 2.18327,5.647773 2.20856,5.99391 0.50152,6.86477 -0.94495,0.482086 -4.43093,1.06381 -7.76105,1.29515 -1.91412,0.132975 -2.17645,0.104277 -2.5168,-0.2753 z m -7.77852,-4.598953 c -0.25887,-0.104722 -0.73374,-0.503048 -1.05528,-0.885167 -0.69792,-0.829431 -1.84376,-3.176187 -1.64693,-3.373017 0.0764,-0.07643 0.87246,0.238385 1.76897,0.699575 1.93242,0.994095 2.50998,1.030113 4.045,0.252261 1.39016,-0.704441 2.34772,-0.63198 4.3838,0.331732 1.50574,0.712693 2.10676,1.275001 1.74715,1.63461 -0.12686,0.12686 -1.18583,0.324193 -2.35328,0.43852 -1.16745,0.114326 -2.96853,0.41322 -4.00238,0.66421 -2.06873,0.502222 -2.20453,0.513384 -2.88705,0.237276 z"
       id="path6549" /></g></svg>
