<?xml version="1.0" encoding="UTF-8" standalone="no"?>
<!-- Created with Inkscape (http://www.inkscape.org/) -->

<svg
   width="1000"
   height="1000"
   viewBox="0 0 264.58333 264.58333"
   version="1.1"
   id="svg5"
   inkscape:version="1.2.2 (b0a8486541, 2022-12-01)"
   sodipodi:docname="progressivism.svg"
   xml:space="preserve"
   xmlns:inkscape="http://www.inkscape.org/namespaces/inkscape"
   xmlns:sodipodi="http://sodipodi.sourceforge.net/DTD/sodipodi-0.dtd"
   xmlns="http://www.w3.org/2000/svg"
   xmlns:svg="http://www.w3.org/2000/svg"><sodipodi:namedview
     id="namedview7"
     pagecolor="#ffffff"
     bordercolor="#000000"
     borderopacity="0.25"
     inkscape:showpageshadow="2"
     inkscape:pageopacity="0.0"
     inkscape:pagecheckerboard="0"
     inkscape:deskcolor="#d1d1d1"
     inkscape:document-units="px"
     showgrid="false"
     inkscape:zoom="0.52787981"
     inkscape:cx="331.51485"
     inkscape:cy="490.64199"
     inkscape:window-width="1920"
     inkscape:window-height="1004"
     inkscape:window-x="0"
     inkscape:window-y="0"
     inkscape:window-maximized="1"
     inkscape:current-layer="layer1" /><defs
     id="defs2" /><g
     inkscape:label="Layer 1"
     inkscape:groupmode="layer"
     id="layer1"><circle
       style="fill:#14cf1b;fill-opacity:1;stroke:#000000;stroke-width:0;stroke-dasharray:none;stroke-opacity:1;paint-order:stroke markers fill"
       id="path236"
       cx="132.29167"
       cy="132.29167"
       r="125.37917" /><circle
       style="fill:#ffffff;fill-opacity:0;stroke:#000000;stroke-width:5.29167;stroke-dasharray:none;stroke-opacity:1;paint-order:normal"
       id="path236-3"
       cx="132.29167"
       cy="132.29167"
       r="125.37917" /><path
       style="fill:#000000;stroke-width:0.264583"
       d="m 206.05836,204.37489 c -0.23447,-0.99909 -0.8499,-2.8555 -1.36762,-4.12537 -0.51771,-1.26986 -1.42586,-3.15382 -2.0181,-4.18659 -0.59223,-1.03277 -1.85798,-2.92554 -2.81276,-4.20616 -0.95479,-1.28062 -2.88679,-3.48328 -4.29335,-4.89479 -1.40656,-1.41152 -3.6264,-3.36831 -4.93299,-4.34842 l -2.37562,-1.78202 -3.04271,-1.563 c -1.67349,-0.85965 -3.99199,-1.8778 -5.15223,-2.26258 l -2.10953,-0.69958 -2.57723,-0.30238 -2.57723,-0.30238 -1.79554,0.32513 c -0.98754,0.17882 -2.18366,0.46266 -2.65803,0.63076 l -0.8625,0.30563 -0.42723,-0.42723 -0.42723,-0.42723 0.45578,-1.28051 0.45579,-1.2805 0.13952,-2.53419 0.13952,-2.53418 -0.44757,-2.22832 c -0.24616,-1.22557 -0.86912,-3.29987 -1.38436,-4.60956 -0.51523,-1.30969 -1.47881,-3.33375 -2.14128,-4.49792 -0.66248,-1.16417 -1.8591,-3.00963 -2.65917,-4.10104 -0.80007,-1.09141 -2.53728,-3.0986 -3.86047,-4.46044 -1.32319,-1.36184 -3.3583,-3.22338 -4.52247,-4.13675 -1.16417,-0.91338 -3.18252,-2.32961 -4.48524,-3.14717 l -2.36857,-1.48649 -2.65851,-1.0312 c -1.46218,-0.56717 -3.35067,-1.18274 -4.19664,-1.36794 l -1.53812,-0.33672 -23.06813,23.02729 -23.068126,23.02728 -1.71979,1.19728 c -0.94589,0.65851 -2.67229,1.67319 -3.83646,2.25486 -1.16417,0.58166 -3.06917,1.35637 -4.233328,1.72156 -1.16417,0.3652 -3.2229,0.81364 -4.57495,0.99653 l -2.45829,0.33254 -2.83338,-0.15613 -2.83338,-0.15612 -2.64584,-0.67002 -2.64583,-0.67003 -2.91042,-1.45394 -2.91041,-1.45394 -2.38016,-1.92852 -2.38015,-1.92852 -1.78292,-2.22435 -1.78292,-2.22435 -1.17695,-2.2788 c -0.64733,-1.25334 -1.47891,-3.1783 -1.84796,-4.27768 -0.36905,-1.09939 -0.85283,-3.12004 -1.07505,-4.49033 -0.22223,-1.37029 -0.40383,-3.32488 -0.40356,-4.34353 2.6e-4,-1.01864 0.17193,-2.98317 0.38147,-4.36562 0.20953,-1.38245 0.70024,-3.46604 1.09047,-4.63021 0.39023,-1.16417 1.06509,-2.83104 1.4997,-3.70417 0.43461,-0.87312 1.27082,-2.30187 1.85825,-3.175 0.58743,-0.87312 1.6367,-2.24843 2.33171,-3.05624 l 1.26365,-1.46875 1.40846,-0.77522 1.40846,-0.77521 1.5875,0.0172 1.5875,0.0172 1.05833,0.54991 c 0.58208,0.30244 1.43925,0.94729 1.90482,1.43298 0.46557,0.4857 1.03111,1.32574 1.25677,1.86677 l 0.41028,0.98369 -0.006,1.39756 -0.006,1.39756 -0.48275,1.06268 c -0.26552,0.58448 -1.10807,1.77511 -1.87234,2.64584 -0.76427,0.87073 -1.69125,2.17579 -2.05994,2.90012 -0.36869,0.72433 -0.89872,1.97449 -1.17783,2.77812 l -0.50747,1.46116 -0.15482,2.13321 -0.15482,2.13321 0.31513,1.83554 0.31514,1.83554 1.08189,2.24896 1.0819,2.24895 1.87991,1.88174 1.87992,1.88173 1.92,0.96676 1.92,0.96675 1.78416,0.41945 1.78417,0.41945 2.51354,-0.12433 2.51354,-0.12433 1.71979,-0.58719 c 0.94589,-0.32295 2.43417,-1.00409 3.30729,-1.51363 l 1.587498,-0.92644 22.655946,-22.76746 22.65593,-22.76746 -0.353,-1.5132 c -0.19416,-0.83225 -0.657,-2.32082 -1.02854,-3.30792 -0.37155,-0.9871 -1.27495,-2.93867 -2.00756,-4.33682 -0.73259,-1.39814 -2.12737,-3.61365 -3.0995,-4.92333 l -1.76751,-2.38125 -2.5809,-2.55558 c -1.4195,-1.40557 -3.53761,-3.27648 -4.70693,-4.15759 -1.16931,-0.8811 -2.98217,-2.10202 -4.02858,-2.71315 -1.0464,-0.61114 -2.92005,-1.54799 -4.16365,-2.08189 -1.2436,-0.533914 -3.03501,-1.197214 -3.98089,-1.474014 l -1.719786,-0.50328 -3.57188,0.005 -3.57187,0.005 -1.18207,0.44323 -1.18206,0.44322 -0.43998,-0.39817 -0.43997,-0.39817 0.53271,-1.64124 0.53271,-1.64124 0.006,-2.64584 0.006,-2.645831 -0.55003,-2.248958 c -0.30252,-1.236927 -0.96542,-3.232965 -1.47311,-4.435639 -0.5077,-1.202677 -1.48763,-3.149658 -2.17764,-4.326628 -0.69001,-1.17697 -2.05314,-3.169526 -3.029168,-4.4279 -0.97604,-1.258377 -2.89567,-3.368894 -4.26585,-4.690041 -1.37019,-1.321147 -3.38087,-3.052575 -4.46819,-3.847618 -1.08732,-0.795047 -2.57493,-1.822498 -3.30581,-2.283228 -0.73088,-0.460729 -2.35093,-1.316646 -3.60012,-1.902034 l -2.27126,-1.064347 -2.4533,-0.656545 c -1.34931,-0.361101 -2.49662,-0.699865 -2.54956,-0.752811 -0.0529,-0.05294 0.70656,-0.741074 1.6878,-1.529178 0.98123,-0.788106 3.21281,-2.388314 4.95906,-3.556024 l 3.175,-2.123101 4.49792,-2.283775 4.49791,-2.283772 3.57188,-1.332669 c 1.964528,-0.732967 5.272408,-1.813139 7.350848,-2.400385 2.07843,-0.587245 4.99546,-1.30067 6.48229,-1.585388 1.48682,-0.284721 4.370186,-0.734748 6.407486,-1.000064 l 3.70417,-0.482394 7.54062,0.01593 7.54063,0.01593 4.39966,0.58861 c 2.41982,0.323737 6.0591,0.930024 8.0873,1.347304 2.0282,0.417282 5.5274,1.301255 7.776,1.964385 2.2486,0.663128 5.26384,1.631194 6.70054,2.151256 1.43669,0.520062 3.91883,1.480741 5.51587,2.134838 1.59703,0.654101 4.6461,2.06257 6.7757,3.129934 2.1296,1.067361 5.20068,2.720586 6.82461,3.673829 1.62394,0.953244 4.06472,2.475659 5.42396,3.383145 1.35925,0.907487 4.02785,2.812884 5.93022,4.234215 1.90238,1.421331 4.58129,3.54585 5.95313,4.72115 l 2.49426,2.136913 1.85208,-1.9548 1.85208,-1.9548 1.07064,-0.534844 c 0.58886,-0.294167 1.50155,-0.615686 2.02821,-0.714486 l 0.95757,-0.179642 1.54367,0.445852 1.54366,0.445855 1.19562,1.234876 1.19562,1.234877 0.32574,1.087207 c 0.17915,0.597961 0.32312,1.609172 0.31992,2.247133 l -0.006,1.159928 -0.53595,1.190625 -0.53594,1.190625 -1.96339,1.984375 -1.96338,1.984375 2.26916,2.645833 c 1.24804,1.455208 3.26975,3.981352 4.49268,5.613651 1.22293,1.6323 3.33322,4.668391 4.68953,6.746871 1.3563,2.07849 3.08686,4.87449 3.84567,6.213344 0.75881,1.33885 2.31118,4.37495 3.44971,6.74687 1.13852,2.37193 2.60987,5.68182 3.26966,7.35531 0.65978,1.67349 1.70349,4.58632 2.31933,6.47296 0.61585,1.88664 1.56973,5.22039 2.11973,7.40834 0.55,2.18794 1.30136,5.82355 1.66971,8.07912 0.36834,2.25557 0.813,5.52979 0.98813,7.27604 l 0.31842,3.175 -10e-4,5.82083 -0.001,5.82084 -0.32031,3.0427 c -0.17617,1.67349 -0.5559,4.47146 -0.84385,6.21771 -0.28795,1.74625 -0.89204,4.66328 -1.34242,6.48229 -0.45039,1.81902 -1.34595,4.84937 -1.99014,6.73413 -0.64419,1.88476 -1.65029,4.56366 -2.23577,5.95312 -0.58549,1.38947 -1.83717,4.0045 -2.7815,5.8112 -0.94433,1.80669 -2.60563,4.64783 -3.69177,6.31363 -1.08613,1.6658 -2.68432,3.9608 -3.55152,5.10001 -0.8672,1.1392 -1.67266,2.13056 -1.78991,2.20303 l -0.21318,0.13175 -0.42631,-1.81652 z"
       id="path37433" /></g></svg>
