<?xml version="1.0" encoding="UTF-8" standalone="no"?>
<!-- Created with Inkscape (http://www.inkscape.org/) -->

<svg
   width="1000"
   height="1000"
   viewBox="0 0 264.58333 264.58333"
   version="1.1"
   id="svg5"
   inkscape:version="1.2.2 (b0a8486541, 2022-12-01)"
   sodipodi:docname="Realpolitik.svg"
   xml:space="preserve"
   xmlns:inkscape="http://www.inkscape.org/namespaces/inkscape"
   xmlns:sodipodi="http://sodipodi.sourceforge.net/DTD/sodipodi-0.dtd"
   xmlns="http://www.w3.org/2000/svg"
   xmlns:svg="http://www.w3.org/2000/svg"><sodipodi:namedview
     id="namedview7"
     pagecolor="#ffffff"
     bordercolor="#000000"
     borderopacity="0.25"
     inkscape:showpageshadow="2"
     inkscape:pageopacity="0.0"
     inkscape:pagecheckerboard="0"
     inkscape:deskcolor="#d1d1d1"
     inkscape:document-units="px"
     showgrid="false"
     inkscape:zoom="0.52787981"
     inkscape:cx="309.7296"
     inkscape:cy="428.12776"
     inkscape:window-width="1920"
     inkscape:window-height="1004"
     inkscape:window-x="0"
     inkscape:window-y="0"
     inkscape:window-maximized="1"
     inkscape:current-layer="layer1" /><defs
     id="defs2"><filter
       id="mask-powermask-path-effect9341_inverse"
       inkscape:label="filtermask-powermask-path-effect9341"
       style="color-interpolation-filters:sRGB"
       height="100"
       width="100"
       x="-50"
       y="-50"><feColorMatrix
         id="mask-powermask-path-effect9341_primitive1"
         values="1"
         type="saturate"
         result="fbSourceGraphic" /><feColorMatrix
         id="mask-powermask-path-effect9341_primitive2"
         values="-1 0 0 0 1 0 -1 0 0 1 0 0 -1 0 1 0 0 0 1 0 "
         in="fbSourceGraphic" /></filter><filter
       id="mask-powermask-path-effect9411_inverse"
       inkscape:label="filtermask-powermask-path-effect9411"
       style="color-interpolation-filters:sRGB"
       height="100"
       width="100"
       x="-50"
       y="-50"><feColorMatrix
         id="mask-powermask-path-effect9411_primitive1"
         values="1"
         type="saturate"
         result="fbSourceGraphic" /><feColorMatrix
         id="mask-powermask-path-effect9411_primitive2"
         values="-1 0 0 0 1 0 -1 0 0 1 0 0 -1 0 1 0 0 0 1 0 "
         in="fbSourceGraphic" /></filter><clipPath
       clipPathUnits="userSpaceOnUse"
       id="clipPath9423"><circle
         style="fill:#427328;fill-opacity:0;stroke:#000000;stroke-width:5.29167;stroke-dasharray:none;stroke-opacity:1;paint-order:normal"
         id="circle9425"
         cx="132.29167"
         cy="132.29167"
         r="125.37917" /></clipPath></defs><g
     inkscape:label="Layer 1"
     inkscape:groupmode="layer"
     id="layer1"><circle
       style="fill:#ffffff;fill-opacity:1;stroke:#ffffff;stroke-width:0;stroke-dasharray:none;stroke-opacity:0.9921568;paint-order:stroke markers fill"
       id="path236"
       r="125.37917"
       cy="132.29167"
       cx="132.29167" /><circle
       style="fill:#427328;fill-opacity:0;stroke:#000000;stroke-width:5.29167;stroke-dasharray:none;stroke-opacity:1;paint-order:normal"
       id="circle9421"
       cx="132.29167"
       cy="132.29167"
       r="125.37917" /><path
       style="fill:#000000;stroke-width:0.842709"
       d="M 110.32417,256.95336 C 57.510111,247.65609 15.911863,206.03603 6.9113005,153.48629 l -1.6381204,-9.5642 v -11.6304 -11.63042 l 1.6381204,-9.5642 C 14.807863,64.993016 47.418179,27.23086 92.307344,12.210019 l 8.784316,-2.9394267 9.89991,-1.6924752 9.89996,-1.692477 h 11.63039 11.6304 l 9.89995,1.692477 9.89994,1.6924752 8.78689,2.9402797 c 11.01836,3.686977 24.95309,10.773826 34.49165,17.541575 l 7.33822,5.20658 8.06415,8.033524 8.06417,8.033522 5.66696,7.977906 c 10.03886,14.132589 17.14557,30.242784 21.10925,47.852481 l 1.83665,8.15971 -0.0196,17.27552 -0.0196,17.2755 -1.81763,8.15971 c -2.58822,11.61921 -5.53512,19.97718 -10.7907,30.60479 l -4.58412,9.26977 -5.69117,7.95647 c -7.03243,9.83154 -17.62567,20.61363 -27.55368,28.04491 l -7.53646,5.64111 -9.79945,5.06512 -9.79944,5.06507 -8.87364,2.96932 -8.87361,2.96928 -9.89993,1.69248 -9.89988,1.69247 -12.34618,-0.068 -12.34618,-0.068 z m 30.27708,0.1051 6.81523,-0.78378 7.70697,-3.08465 7.70699,-3.08465 5.71203,-4.0114 c 11.30055,-7.93608 19.90647,-19.43932 24.30006,-32.48105 l 2.27112,-6.74167 0.41232,-10.13854 0.41229,-10.13858 -1.79719,-7.1069 c -4.22992,-16.7271 -13.14412,-29.39752 -26.97906,-38.34727 l -6.11601,-3.95644 -6.88833,-2.51678 -6.88836,-2.51682 -10.95519,-0.80503 c -6.02535,-0.44276 -13.42009,-1.38949 -16.43279,-2.10382 l -5.47759,-1.29882 -8.00572,-3.88699 -8.005706,-3.88701 -8.077613,-8.0536 -8.077625,-8.05363 -3.518122,-7.162995 -3.518135,-7.163026 -1.784779,-7.141732 -1.78475,-7.141743 0.468269,-9.712395 0.468269,-9.71241 1.615837,-5.05623 C 80.306698,31.810183 94.320066,17.043661 113.05175,10.013415 l 6.40823,-2.4050957 -3.79218,0.4789312 C 108.5287,8.9888797 94.657254,12.580725 87.216315,15.454422 77.04403,19.382956 71.003354,22.529682 61.741459,28.724865 l -7.879824,5.270723 -8.781984,8.458573 -8.781998,8.458602 -5.388598,7.191872 -5.388598,7.191874 -4.974844,9.746061 -4.974843,9.746076 -2.961673,9.214846 C 10.980166,99.071638 8.9879148,107.01053 8.181833,111.6454 l -1.4655338,8.42706 v 12.21927 12.21924 l 1.4503051,8.42705 c 2.8759737,16.7109 9.9676457,34.42698 19.7338577,49.29835 l 4.704073,7.16303 10.562131,10.59486 10.562161,10.59491 8.474165,5.60521 c 17.788483,11.76619 37.803798,18.86954 58.521058,20.76893 10.40492,0.95394 12.32957,0.96315 19.8772,0.0951 z M 125.1696,214.326 l -3.56016,-1.26064 -3.65442,-4.06462 -3.65443,-4.06461 -1.00179,-3.34375 c -1.26375,-4.21792 -1.27108,-7.95291 -0.0251,-12.11589 l 0.97801,-3.26432 2.90468,-3.3935 c 1.5976,-1.86642 4.47566,-4.21964 6.39568,-5.22935 l 3.49096,-1.83586 h 5.4776 5.4776 l 3.49096,1.83586 c 1.92002,1.00971 4.79808,3.36293 6.39567,5.22935 l 2.90473,3.3935 0.978,3.26432 c 1.3254,4.42375 1.22929,8.35133 -0.31523,12.88431 l -1.29328,3.79551 -3.55231,3.48274 -3.55231,3.48273 -3.68744,1.29896 c -4.53841,1.59873 -9.5099,1.56553 -14.19872,-0.0949 z M 144.05153,85.223786 c 5.77683,-2.97079 9.82986,-8.600774 10.86873,-15.097655 l 0.53617,-3.352982 -1.33473,-4.5913 -1.33474,-4.5913 -3.00875,-3.09805 c -4.02732,-4.146769 -7.32023,-5.728228 -12.99965,-6.243229 l -4.73985,-0.429797 -4.42994,1.905712 -4.42994,1.905696 -2.7775,3.244898 c -3.18424,3.720063 -4.73353,8.142944 -4.73353,13.513133 v 3.739633 l 2.19387,4.402555 2.1939,4.402555 2.8386,2.165085 c 1.56119,1.190831 4.46092,2.693054 6.44384,3.338323 l 3.60527,1.173205 3.94522,-0.365846 3.94522,-0.365876 z"
       id="path12627" /></g></svg>
