<?xml version="1.0" encoding="UTF-8" standalone="no"?>
<!-- Created with Inkscape (http://www.inkscape.org/) -->

<svg
   width="1000"
   height="1000"
   viewBox="0 0 264.58333 264.58333"
   version="1.1"
   id="svg5"
   inkscape:version="1.2.2 (b0a8486541, 2022-12-01)"
   sodipodi:docname="social_progressivism.svg"
   xml:space="preserve"
   xmlns:inkscape="http://www.inkscape.org/namespaces/inkscape"
   xmlns:sodipodi="http://sodipodi.sourceforge.net/DTD/sodipodi-0.dtd"
   xmlns="http://www.w3.org/2000/svg"
   xmlns:svg="http://www.w3.org/2000/svg"><sodipodi:namedview
     id="namedview7"
     pagecolor="#ffffff"
     bordercolor="#000000"
     borderopacity="0.25"
     inkscape:showpageshadow="2"
     inkscape:pageopacity="0.0"
     inkscape:pagecheckerboard="0"
     inkscape:deskcolor="#d1d1d1"
     inkscape:document-units="px"
     showgrid="false"
     inkscape:zoom="0.52787981"
     inkscape:cx="331.51485"
     inkscape:cy="490.64199"
     inkscape:window-width="1920"
     inkscape:window-height="1004"
     inkscape:window-x="0"
     inkscape:window-y="0"
     inkscape:window-maximized="1"
     inkscape:current-layer="layer1" /><defs
     id="defs2" /><g
     inkscape:label="Layer 1"
     inkscape:groupmode="layer"
     id="layer1"><circle
       style="fill:#ee0000;fill-opacity:1;stroke:#000000;stroke-width:0;stroke-dasharray:none;stroke-opacity:1;paint-order:stroke markers fill"
       id="path236"
       cx="132.29167"
       cy="132.29167"
       r="125.37917" /><circle
       style="fill:#ffffff;fill-opacity:0;stroke:#ffffff;stroke-width:5.29167;stroke-dasharray:none;stroke-opacity:1;paint-order:normal"
       id="path236-3"
       cx="132.29167"
       cy="132.29167"
       r="125.37917" /><path
       style="fill:#ffffff;fill-opacity:1;stroke-width:0.27843"
       d="m 82.587136,206.33161 c 2.954132,-3.94328 9.287402,-12.41613 14.073925,-18.82856 l 8.702769,-11.65896 0.21499,0.24329 c 0.11825,0.13382 1.3778,1.96609 2.799,4.07172 1.42121,2.10564 2.63462,3.82843 2.69648,3.82843 0.0619,0 4.52497,-2.98553 9.91801,-6.63452 5.39302,-3.64899 13.31374,-8.99421 17.60158,-11.87828 4.28784,-2.88406 9.48753,-6.39256 11.55488,-7.79664 2.06735,-1.40408 7.64292,-5.1721 12.39017,-8.37338 4.74724,-3.20127 11.26253,-7.59862 14.4784,-9.77189 3.21588,-2.17326 8.91675,-6.01878 12.66861,-8.54558 3.75185,-2.5268 10.01655,-6.75008 13.92154,-9.38506 3.905,-2.63499 9.39718,-6.34117 12.20487,-8.23597 l 5.10489,-3.44508 0.26911,0.16632 c 0.14802,0.0914 1.57676,2.12543 3.175,4.51989 l 2.90588,4.35358 -0.3446,0.31433 c -0.18953,0.17289 -3.4143,2.37939 -7.16616,4.90332 -3.75186,2.52394 -10.14184,6.82945 -14.19997,9.5678 -4.05813,2.73836 -10.76135,7.26102 -14.89606,10.05038 -4.13469,2.78935 -12.49754,8.43147 -18.58411,12.53805 -6.08657,4.10656 -13.66685,9.22253 -16.84507,11.36881 -3.17821,2.14628 -10.53974,7.11399 -16.35896,11.03936 -5.8192,3.92537 -12.89097,8.70038 -15.71503,10.61113 -2.82407,1.91075 -5.31162,3.58572 -5.5279,3.72213 l -0.39321,0.24804 2.67398,3.9423 c 1.47068,2.16827 2.67396,4.06134 2.67396,4.20684 v 0.26452 l -4.5245,1.15253 c -2.48847,0.6339 -6.6545,1.72058 -9.25782,2.41487 -2.60333,0.69428 -7.05127,1.87408 -9.884297,2.62177 -2.833039,0.74768 -7.280973,1.92334 -9.884297,2.61256 -2.603335,0.68922 -6.174209,1.63672 -7.935285,2.10556 -1.761076,0.46883 -3.354945,0.85322 -3.541935,0.8542 l -0.339989,0.002 5.371149,-7.1696 z M 57.332245,183.63949 c 0.116736,-0.19142 5.215857,-7.05127 11.331387,-15.24409 6.115531,-8.19283 12.323436,-16.49891 13.79534,-18.45797 l 2.676188,-3.56191 0.566105,0.70646 c 0.311355,0.38857 1.564299,2.20738 2.784305,4.04181 l 2.218211,3.33533 0.278427,-0.1 c 0.153136,-0.055 2.745979,-1.77447 5.761862,-3.82106 3.015882,-2.04657 7.81106,-5.28721 10.65592,-7.20143 2.84487,-1.91421 7.67244,-5.17185 10.72791,-7.2392 3.05548,-2.06735 8.07039,-5.45029 11.14425,-7.51764 3.07386,-2.06734 8.26889,-5.57557 11.54451,-7.79606 3.27562,-2.22048 8.46965,-5.72871 11.5423,-7.79606 3.07266,-2.06734 7.9018,-5.32499 10.73144,-7.2392 2.82964,-1.91421 7.65887,-5.17185 10.73161,-7.239198 3.07274,-2.067354 8.08713,-5.450288 11.14311,-7.517638 3.05597,-2.067349 7.77914,-5.262344 10.49593,-7.099987 2.71678,-1.837644 5.07439,-3.377264 5.23911,-3.421378 l 0.29951,-0.08021 2.98348,4.477544 c 1.64092,2.462649 2.91947,4.58111 2.84124,4.70769 -0.0782,0.126583 -3.27793,2.345125 -7.11044,4.930097 -3.83252,2.584972 -9.94328,6.70561 -13.57947,9.15696 -3.63618,2.45135 -10.87124,7.32761 -16.0779,10.83611 -5.20666,3.5085 -10.97018,7.40185 -12.80782,8.65186 -1.83764,1.25002 -6.66146,4.50811 -10.71959,7.2402 -4.05814,2.73209 -9.44577,6.36556 -11.97253,8.07437 -2.52676,1.70881 -7.09999,4.79817 -10.16273,6.86526 -3.06273,2.06707 -8.70096,5.86869 -12.52939,8.44805 -3.82842,2.57934 -8.52694,5.74886 -10.44115,7.04337 -1.914211,1.29451 -3.661375,2.52337 -3.882576,2.73079 l -0.402193,0.37713 2.728184,4.06023 c 1.500495,2.23313 2.683825,4.09614 2.629635,4.14004 -0.0542,0.0439 -1.66472,0.47654 -3.578927,0.96145 -1.914212,0.48491 -5.547742,1.42874 -8.074498,2.09741 -2.526756,0.66866 -7.287929,1.92992 -10.580377,2.80279 -3.292436,0.87287 -7.865672,2.08365 -10.162724,2.69063 -2.297052,0.60697 -6.068208,1.59902 -8.38035,2.20455 -2.312143,0.60552 -4.292915,1.10095 -4.401716,1.10095 H 57.119999 Z M 37.593453,154.40425 c 0.152547,-0.19142 2.767741,-3.68519 5.811531,-7.76392 3.043791,-4.07874 9.230333,-12.37471 13.74788,-18.4355 4.517536,-6.06077 8.280178,-11.02434 8.361418,-11.03015 0.08124,-0.005 1.371837,1.80969 2.867966,4.03444 l 2.720249,4.04499 0.333991,-0.19648 c 0.183696,-0.10807 2.96516,-1.96952 6.181039,-4.13656 3.215879,-2.16704 9.543224,-6.435 14.06076,-9.48433 4.517536,-3.04934 10.813813,-7.29945 13.991713,-9.4447 3.1779,-2.145228 10.75818,-7.260181 16.84507,-11.366543 6.08689,-4.106363 14.51264,-9.790162 18.72391,-12.630666 4.21127,-2.840504 11.29037,-7.614722 15.73134,-10.609377 4.44098,-2.994651 9.39008,-6.340115 10.99802,-7.434363 1.60794,-1.094247 5.21579,-3.537483 8.01745,-5.429413 l 5.09392,-3.439873 0.36565,0.39514 c 0.20111,0.217326 1.57621,2.188158 3.0558,4.379623 1.47957,2.191465 2.71894,4.093883 2.75413,4.227594 0.0352,0.133714 -1.94071,1.603046 -4.3909,3.265186 -2.45019,1.662143 -7.71253,5.220298 -11.69409,7.907014 -3.98156,2.686715 -10.74744,7.25321 -15.03527,10.147763 -4.28783,2.894557 -10.99106,7.417236 -14.89605,10.050402 -3.90499,2.633168 -9.10469,6.139724 -11.55487,7.792348 -2.4502,1.652625 -13.35077,9.009975 -24.2235,16.349665 -10.872716,7.3397 -21.616667,14.58458 -23.875446,16.09974 -2.258768,1.51516 -4.106851,2.8233 -4.106851,2.90698 0,0.0837 1.190288,1.90304 2.645092,4.04303 1.454803,2.14 2.644533,3.97682 2.64386,4.0818 -5.58e-4,0.10502 -2.600525,0.86242 -5.777436,1.68319 -3.176922,0.82076 -7.091795,1.84606 -8.699734,2.27846 -1.60794,0.43238 -5.053523,1.34877 -7.656847,2.03639 -2.603335,0.68764 -7.17656,1.89416 -10.162725,2.68117 -2.986175,0.78701 -7.009912,1.8616 -8.941656,2.38795 -1.931733,0.52637 -3.669857,0.95704 -3.862508,0.95704 h -0.350271 z"
       id="path30589" /></g></svg>
