<?xml version="1.0" encoding="UTF-8" standalone="no"?>
<!-- Created with Inkscape (http://www.inkscape.org/) -->

<svg
   width="1000"
   height="1000"
   viewBox="0 0 264.58333 264.58333"
   version="1.1"
   id="svg5"
   inkscape:version="1.2.2 (b0a8486541, 2022-12-01)"
   sodipodi:docname="stratocracy.svg"
   xml:space="preserve"
   xmlns:inkscape="http://www.inkscape.org/namespaces/inkscape"
   xmlns:sodipodi="http://sodipodi.sourceforge.net/DTD/sodipodi-0.dtd"
   xmlns="http://www.w3.org/2000/svg"
   xmlns:svg="http://www.w3.org/2000/svg"><sodipodi:namedview
     id="namedview7"
     pagecolor="#ffffff"
     bordercolor="#000000"
     borderopacity="0.25"
     inkscape:showpageshadow="2"
     inkscape:pageopacity="0.0"
     inkscape:pagecheckerboard="0"
     inkscape:deskcolor="#d1d1d1"
     inkscape:document-units="px"
     showgrid="false"
     inkscape:zoom="0.52787981"
     inkscape:cx="219.74699"
     inkscape:cy="490.64199"
     inkscape:window-width="1920"
     inkscape:window-height="1004"
     inkscape:window-x="0"
     inkscape:window-y="0"
     inkscape:window-maximized="1"
     inkscape:current-layer="layer1" /><defs
     id="defs2" /><g
     inkscape:label="Layer 1"
     inkscape:groupmode="layer"
     id="layer1"><circle
       style="fill:#2a387a;fill-opacity:1;stroke:#ea8a12;stroke-width:0;stroke-dasharray:none;stroke-opacity:1;paint-order:stroke markers fill"
       id="path236"
       cx="132.29167"
       cy="132.29167"
       r="125.37917" /><circle
       style="fill:#427328;fill-opacity:0;stroke:#fffcf4;stroke-width:5.29167;stroke-dasharray:none;stroke-opacity:1;paint-order:normal"
       id="path236-3"
       cx="132.29167"
       cy="132.29167"
       r="125.37917" /><path
       style="fill:#ffffff;fill-opacity:1;stroke-width:0.31282"
       d="m 140.47066,216.1019 c -1.06757,-0.63745 -2.16882,-1.7663 -2.18279,-2.23747 -0.0139,-0.46477 0.86673,-0.21933 2.0194,0.5629 0.64636,0.43862 1.24048,0.73221 1.32027,0.65241 0.24982,-0.24982 -0.49139,-1.37318 -1.35351,-2.05132 -1.10806,-0.8716 -2.48779,-0.81844 -4.66829,0.17981 l -1.81232,0.82972 -0.7142,-0.89569 c -0.39281,-0.49263 -0.7671,-0.83081 -0.83176,-0.7515 -0.42694,0.52357 -1.1614,1.72651 -1.1614,1.90221 0,0.1161 0.45749,0.19038 1.01667,0.16501 1.5259,-0.0692 1.29431,0.76815 -0.39103,1.41386 -1.54367,0.59143 -3.75384,0.75008 -3.75384,0.26947 0,-0.16713 0.4575,-0.42981 1.01666,-0.58372 l 1.01667,-0.27984 -0.87724,-0.23649 c -0.48248,-0.13009 -1.35024,-0.15976 -1.92836,-0.066 -1.05205,0.17072 -2.0431,-0.44513 -2.0431,-1.26959 0,-1.16236 -2.63921,-1.82409 -3.43772,-0.86195 -0.5819,0.70115 -0.18197,1.30525 1.14787,1.73377 1.43167,0.46135 1.97703,0.85766 1.97703,1.43672 0,0.56719 -0.80681,0.5444 -2.6219,-0.074 -1.09872,-0.37437 -1.67625,-0.81259 -2.23279,-1.69422 -0.91468,-1.44895 -1.21993,-1.65449 -2.06073,-1.38763 -0.48692,0.15455 -0.61684,0.39885 -0.50981,0.95866 0.13399,0.70092 0.0515,0.75126 -1.23074,0.75126 -1.74964,0 -3.55251,-0.74693 -3.76509,-1.55992 -0.20726,-0.79251 -0.47233,-0.79345 -1.18661,-0.004 -0.78111,0.86311 -1.94943,0.79005 -5.19689,-0.32497 -1.52274,-0.52283 -3.15829,-0.95119 -3.63457,-0.95192 -1.74743,-0.002 -3.231515,0.41583 -3.543735,0.9992 -0.21191,0.39598 -0.656688,0.5905 -1.350161,0.5905 -0.568786,0 -1.725181,0.20963 -2.569765,0.46585 -2.073187,0.62892 -2.07087,0.62934 -3.614661,-0.66046 l -1.356194,-1.13306 -3.131079,0.224 c -4.814867,0.34444 -5.457016,0.29782 -6.497958,-0.47178 -0.62056,-0.4588 -1.801251,-0.8222 -3.478573,-1.07066 -2.786766,-0.4128 -3.729269,-0.85061 -4.238845,-1.969 -0.387964,-0.85148 -0.146925,-1.44087 1.045328,-2.55607 0.589809,-0.55168 0.81077,-1.07388 0.81077,-1.91601 0,-2.15483 -0.381519,-3.0823 -2.069895,-5.03192 -0.926164,-1.06947 -1.683943,-2.07678 -1.683943,-2.23845 0,-0.27324 1.715676,-0.17111 4.770508,0.28399 1.523715,0.227 1.548757,-0.3211 0.101203,-2.21741 -0.589487,-0.77228 -1.161064,-1.68539 -1.270168,-2.02914 -0.12056,-0.37985 -0.681757,-0.76984 -1.430762,-0.99424 -0.941805,-0.28217 -1.232382,-0.52904 -1.232382,-1.04697 0,-0.81137 1.122569,-4.10855 2.51967,-7.40072 0.557921,-1.31468 0.927488,-2.6168 0.821282,-2.89359 -0.280363,-0.73062 -2.147752,-0.64437 -6.186503,0.28575 -3.81401,0.87834 -4.66213,0.75408 -4.66213,-0.6831 0,-1.94567 3.981096,-7.99173 6.940195,-10.54004 0.828103,-0.71313 1.505708,-1.3875 1.505791,-1.49857 8.4e-5,-0.11114 -2.780026,-0.26514 -6.178036,-0.34232 -6.415048,-0.14572 -7.95197,-0.41955 -8.541955,-1.52194 -0.475501,-0.88847 0.02566,-1.62251 3.532095,-5.17336 l 3.133231,-3.17293 -1.05591,-0.21855 c -1.755614,-0.36338 -5.347876,-1.48106 -6.843087,-2.12912 -3.67039,-1.59083 -4.464962,-3.28919 -2.230606,-4.76781 1.378929,-0.91253 3.726975,-1.87763 6.436714,-2.64561 1.022971,-0.28993 1.913713,-0.6884 1.979402,-0.88549 0.06798,-0.20383 -2.63114,-1.71059 -6.258848,-3.49405 -8.195331,-4.029 -10.167368,-5.79293 -7.825363,-6.99959 0.981969,-0.50594 4.671205,-1.11428 7.404756,-1.22103 1.018714,-0.0397 1.903166,-0.22703 1.96545,-0.41613 0.175348,-0.53232 -1.595375,-2.10771 -5.694578,-5.06632 -8.066117,-5.82178 -8.739679,-7.86529 -2.811595,-8.5301 1.295411,-0.14527 2.493163,-0.34934 2.661654,-0.45348 0.69689,-0.43069 0.145484,-1.27785 -2.978253,-4.57575 -3.646721,-3.85001 -6.185486,-7.06005 -6.000832,-7.58752 0.212556,-0.60722 3.394368,-0.30823 6.15724,0.5786 1.462435,0.46942 3.468392,0.93057 4.457692,1.02479 2.935879,0.27961 2.717246,-0.12439 -3.706476,-6.8491 -3.924444,-4.10834 -6.448868,-7.648177 -7.158563,-10.037982 -0.421801,-1.420358 -0.424142,-1.669482 -0.01951,-2.074164 0.387184,-0.387187 0.696725,-0.399648 1.95747,-0.07874 6.815338,1.734628 7.397047,1.749029 6.548975,0.16213 -0.26505,-0.495971 -1.129036,-1.676 -1.919955,-2.622274 -0.790907,-0.946287 -2.281694,-2.75679 -3.312859,-4.02335 -2.696355,-3.311922 -3.919244,-5.90146 -3.526279,-7.467145 0.172476,-0.687207 0.298534,-0.733649 1.478883,-0.544825 0.709682,0.113525 2.522614,0.555448 4.028725,0.982041 3.768391,1.067357 4.007006,0.970485 2.633066,-1.068948 -0.608678,-0.903518 -2.142301,-2.874283 -3.408036,-4.379478 -3.254808,-3.870586 -4.601343,-5.807734 -5.281751,-7.598414 -0.688921,-1.8131 -0.795091,-3.576835 -0.200897,-3.337399 7.351823,2.962511 18.093711,8.239431 24.321741,11.947993 15.271428,9.093563 27.878204,19.919778 36.434732,31.288745 4.05801,5.39186 8.97482,14.54565 10.75732,20.02727 1.96245,6.03511 1.94455,9.97867 -0.0557,12.25678 -1.36449,1.55405 -2.66692,2.00833 -6.30502,2.19918 -1.72512,0.0904 -3.3949,0.29799 -3.71061,0.46109 -0.83513,0.43146 -1.7575,2.68641 -1.76409,4.31275 -0.0139,3.40622 3.64087,5.99931 9.45376,6.70772 3.26625,0.39806 7.05406,-0.79448 8.36321,-2.633 1.81985,-2.55578 4.04023,-7.86459 5.31561,-12.70942 2.30257,-8.7469 2.23665,-21.74571 -0.13659,-26.93182 -1.34424,-2.9375 -4.30425,-5.32994 -10.96045,-8.858914 -3.72886,-1.976939 -4.22307,-2.366415 -4.22307,-3.328072 0,-0.863299 0.0498,-0.870051 2.05475,-0.278115 4.81847,1.422604 7.01702,1.62777 7.01702,0.654846 0,-1.169695 -4.04775,-3.292228 -6.28747,-3.29698 -1.04682,-0.0023 -2.00075,0.295187 -3.5019,1.091816 -2.31185,1.226826 -2.72343,1.316469 -2.72343,0.593178 0,-0.911207 2.25113,-4.805354 3.32082,-5.744546 2.10048,-1.844228 4.19058,-1.883812 8.75495,-0.165784 1.17675,0.442929 2.91781,0.884287 3.86903,0.980799 1.505,0.152707 1.9549,0.05604 3.46569,-0.744466 2.28228,-1.209327 3.20538,-1.415346 4.62675,-1.032608 2.77578,0.747434 4.91341,3.553936 9.68407,12.714136 1.69347,3.25165 3.6685,6.84405 4.38897,7.98311 1.23451,1.95178 4.07713,4.96742 4.68243,4.96742 0.23733,0 1.00207,1.32425 1.00207,1.73522 0,0.44533 -1.64704,-0.0137 -3.99167,-1.11241 -1.47191,-0.68975 -2.73723,-1.19306 -2.81184,-1.11844 -0.29824,0.29824 0.3436,1.48875 2.14621,3.98083 1.85847,2.56937 1.8775,2.61648 1.09596,2.71266 -0.43744,0.0538 -1.46634,-0.19892 -2.28642,-0.56168 -1.42798,-0.63166 -1.50916,-0.6358 -1.91854,-0.0979 -0.7073,0.92937 -0.24177,5.78003 1.32985,13.85652 1.66538,8.55825 2.31061,10.87365 3.59173,12.88893 1.8348,2.88625 5.44859,4.72587 9.25752,4.7126 1.92969,-0.007 3.90567,-0.63817 4.94876,-1.58144 2.24536,-2.0305 2.71523,-7.21246 0.86133,-9.49947 -0.56629,-0.69858 -0.78051,-0.73345 -4.50567,-0.73345 -3.46126,0 -4.01083,-0.0742 -4.77818,-0.64497 -1.94232,-1.44479 -2.15753,-2.04778 -2.15094,-6.02625 0.006,-3.42217 0.0834,-3.87807 1.23484,-7.24926 2.2779,-6.66898 7.04973,-15.31961 11.92829,-21.62427 12.32923,-15.93332 33.95215,-31.880576 54.01161,-39.834423 3.87003,-1.534515 4.78789,-1.600847 5.09722,-0.368373 0.33431,1.332028 -1.14332,3.89843 -5.78952,10.055381 -2.68942,3.563906 -3.38303,4.71243 -3.04816,5.047301 0.10772,0.107779 1.10977,-0.03359 2.22663,-0.314141 2.21707,-0.556909 4.77692,-0.660937 5.46979,-0.222281 0.58522,0.370501 0.51284,1.915068 -0.15019,3.205037 -0.86198,1.677036 -2.66986,4.231669 -5.7105,8.069329 -1.56238,1.971894 -2.81115,3.614814 -2.77504,3.650922 0.0361,0.03606 1.19119,-0.203666 2.56687,-0.532833 3.29903,-0.789393 4.98061,-0.782926 5.7858,0.02222 0.82267,0.822688 0.79523,1.12562 -0.30037,3.312848 -1.11408,2.224097 -3.84569,5.671103 -8.1122,10.236733 -4.93667,5.28279 -4.88319,5.54068 0.7978,3.84731 4.59659,-1.37012 6.08085,-1.61637 6.94744,-1.15258 1.60087,0.85677 0.21401,3.3655 -3.99636,7.22911 -1.58653,1.45586 -3.30391,3.2101 -3.81638,3.89831 l -0.93181,1.25128 2.1902,0.2249 c 3.96986,0.40767 5.57089,1.62899 4.746,3.62042 -0.79914,1.92932 -6.09611,6.24858 -10.89737,8.88592 -1.24737,0.68518 -2.26793,1.35877 -2.26793,1.49686 0,0.44724 0.95601,0.63839 4.7383,0.94741 3.60673,0.29468 5.5846,0.80087 6.04593,1.5473 0.41075,0.66465 -0.52004,2.19281 -1.98574,3.26012 -1.90054,1.38395 -3.45751,2.16112 -8.17286,4.07957 -4.85408,1.97491 -5.33058,2.24634 -4.69229,2.67293 0.25807,0.17247 1.80653,0.75789 3.44101,1.30091 3.43136,1.14002 6.17644,2.44621 6.95648,3.31012 0.52142,0.57745 0.50219,0.64158 -0.46922,1.56539 -0.55711,0.52979 -1.72508,1.31875 -2.5955,1.75324 -1.54454,0.77099 -5.59185,1.77841 -7.14472,1.77841 -0.42722,0 -0.86742,0.14667 -0.9782,0.32593 -0.11079,0.17925 1.12877,1.62213 2.75458,3.20639 4.32746,4.2169 4.88952,5.77165 2.50299,6.92377 -0.95673,0.46188 -2.0839,0.58555 -5.89684,0.64699 -5.07896,0.0818 -6.07827,0.3342 -6.07827,1.53495 0,0.90449 0.70966,1.85391 3.76458,5.03629 3.78861,3.94672 4.26503,5.45965 2.05853,6.53698 -1.20337,0.58754 -1.24814,0.58648 -4.53589,-0.1064 -1.82631,-0.38488 -3.75798,-0.77055 -4.29261,-0.85704 -1.67638,-0.2712 -1.59259,0.56183 0.47564,4.72834 2.34569,4.72544 2.57494,5.79157 1.48065,6.88584 -0.43966,0.43967 -1.07784,0.79938 -1.41816,0.79938 -0.34211,0 -0.70674,0.27715 -0.8155,0.61985 -0.10819,0.34091 -0.74775,1.35315 -1.4212,2.24944 -0.67346,0.8963 -1.1883,1.66578 -1.14411,1.70999 0.0443,0.0443 1.0218,-0.0808 2.17243,-0.27801 1.15065,-0.19708 2.18375,-0.26668 2.29578,-0.15462 0.44776,0.44774 -0.25946,1.8023 -1.90218,3.64334 -1.31407,1.47271 -1.66563,2.06537 -1.46513,2.46997 2.90918,5.87068 2.98749,6.06382 2.66705,6.57647 -0.37238,0.59574 -4.04738,2.50701 -4.88013,2.53802 -0.30109,0.0106 -0.84687,0.31984 -1.21286,0.68582 -0.62315,0.62314 -0.83681,0.64826 -3.36281,0.39519 -1.48357,-0.14863 -4.80893,-0.25912 -7.38968,-0.24554 -4.50057,0.0238 -4.80094,0.066 -7.35127,1.03479 -3.09557,1.1759 -4.02623,1.11781 -5.53613,-0.34565 -0.94075,-0.91181 -1.08285,-0.95607 -1.8855,-0.58732 -1.21931,0.56016 -4.94105,0.73335 -9.1091,0.42387 -3.69154,-0.2741 -4.74101,-0.0476 -4.74101,1.02312 0,0.51802 -0.72197,0.58938 -1.539,0.15211 -0.43721,-0.23399 -0.75304,-0.0973 -1.44566,0.62563 -1.04776,1.09362 -1.78861,1.15452 -3.27174,0.26893 z m 18.45636,-3.82425 c 0,-0.79346 -0.45855,-0.37424 -0.79201,0.72407 -0.21185,0.69778 -0.1827,0.73479 0.27766,0.35272 0.2829,-0.23479 0.51435,-0.71933 0.51435,-1.07679 z m -28.31683,-0.83758 c 0.10877,-0.44544 0.016,-1.02118 -0.21579,-1.33762 -0.44992,-0.61459 -3.27073,-1.46826 -4.8707,-1.47404 -1.12606,-0.003 -1.63255,0.68162 -1.1125,1.50608 0.47034,0.74563 0.94657,0.77387 1.1314,0.0672 0.25937,-0.99184 0.82862,-0.75711 1.43196,0.59049 l 0.5502,1.22892 0.34579,-0.9161 c 0.47046,-1.2464 0.91212,-1.15077 1.17576,0.2546 0.12079,0.64388 0.29389,1.29085 0.38466,1.4377 0.23778,0.38475 0.95564,-0.4414 1.17922,-1.35711 z m -18.97685,-0.65234 c 0.54799,-0.19102 0.99635,-0.45506 0.99635,-0.58673 0,-0.13169 -0.69781,-0.89214 -1.5507,-1.68991 -1.85402,-1.73422 -2.78446,-1.85576 -4.10412,-0.53609 -1.05989,1.05987 -1.25918,2.52662 -0.34329,2.52662 0.31412,0 0.90173,-0.35193 1.30582,-0.78206 1.02398,-1.08998 1.25127,-0.9858 1.25127,0.57351 0,1.60861 0.23592,1.9392 0.93339,1.308 0.28322,-0.2563 0.96329,-0.62229 1.51128,-0.81334 z m 45.19592,-0.34301 c -0.48634,-0.81932 -0.79959,-1.02447 -1.48697,-0.97388 -0.47894,0.0352 -0.95429,0.14759 -1.05633,0.24963 -0.33176,0.33175 0.44003,1.2377 1.52654,1.79192 1.39967,0.71394 1.81529,0.27753 1.01676,-1.06767 z m 17.41957,0.38217 c 0.77792,-1.52486 0.83338,-2.1331 0.14215,-1.55944 -0.6836,0.56734 -1.45067,2.12945 -1.22498,2.49463 0.29669,0.48005 0.41135,0.38102 1.08283,-0.93519 z m -31.66664,-0.24578 c 0.56065,-0.73396 0.48436,-1.44054 -0.25732,-2.38346 -1.20352,-1.53004 -2.47986,-0.78953 -2.47986,1.43879 0,0.57907 0.17548,1.22833 0.38995,1.4428 0.48227,0.48227 1.81426,0.1996 2.34723,-0.49813 z m -1.99609,0.0831 c -0.27642,-0.72037 0.44287,-2.23184 0.86244,-1.81227 0.42506,0.42505 0.2245,2.03547 -0.27388,2.19913 -0.21497,0.0705 -0.47981,-0.10344 -0.58856,-0.38686 z m 25.80343,-0.39709 c 0.32624,-0.64518 1.33511,-3.07345 2.24194,-5.39613 3.26835,-8.37137 4.68526,-10.34703 4.68526,-6.53283 v 1.91332 l 1.24431,-1.12415 c 0.68437,-0.61829 1.77534,-1.34699 2.42435,-1.61935 2.44445,-1.02579 7.59286,-1.78649 7.59286,-1.12187 0,0.25326 -5.09253,2.48446 -6.88203,3.01526 -1.53749,0.45601 -3.04152,1.38048 -3.57796,2.19919 -0.29994,0.45774 -0.66728,1.6272 -0.81634,2.59877 -0.14906,0.97159 -0.36444,2.08534 -0.47862,2.47501 -0.24642,0.84095 -0.39815,0.88037 4.17715,-1.08499 2.31377,-0.99391 3.54091,-1.35327 4.37947,-1.28253 l 1.16501,0.0983 -2.36227,1.15618 c -3.29803,1.61418 -4.17625,2.48051 -3.94696,3.89347 0.0985,0.60654 0.34642,1.30457 0.55107,1.55116 0.32234,0.38839 0.46934,0.38466 1.099,-0.0279 0.92665,-0.60716 2.12509,-0.61038 2.62582,-0.007 0.21419,0.25808 0.78463,0.46922 1.26767,0.46922 0.79246,0 0.93384,-0.17345 1.44758,-1.7761 0.60261,-1.87986 1.35141,-2.58267 1.35141,-1.26842 0,1.09621 0.59882,2.65448 1.09293,2.84409 0.4417,0.16948 4.22501,-1.65058 4.22501,-2.03257 0,-0.12019 -0.4927,-0.52304 -1.09487,-0.89521 -1.20926,-0.74737 -1.3425,-1.08161 -0.59734,-1.49862 0.96954,-0.54258 0.39292,-1.72753 -1.27958,-2.62949 -0.86026,-0.46394 -1.5641,-0.9852 -1.5641,-1.15838 0,-0.17317 0.90929,-0.77898 2.02067,-1.34623 2.99645,-1.52942 2.85196,-1.81341 -0.92267,-1.81341 -2.8242,0 -3.1658,-0.0593 -3.07461,-0.53276 0.0565,-0.29303 1.01695,-1.049 2.13447,-1.67997 2.42428,-1.36873 3.75238,-2.52249 3.75238,-3.25981 0,-0.68533 -0.96409,-0.56736 -4.90001,0.59959 -2.84679,0.84405 -4.80278,0.9639 -5.01779,0.30747 -0.0617,-0.18833 1.29106,-1.8499 3.00609,-3.69236 3.16795,-3.40334 4.40915,-5.33618 4.40915,-6.8661 0,-1.38724 -0.76434,-1.29353 -2.91893,0.35788 -4.16762,3.19429 -7.24224,4.17451 -13.34769,4.25533 l -4.22306,0.0559 -2.98036,2.04675 c -3.68059,2.52762 -5.61584,3.33599 -6.74971,2.81936 -0.43796,-0.19954 -0.90373,-0.29641 -1.03505,-0.21525 -0.13131,0.0812 -0.13063,0.94434 0.001,1.91818 0.24759,1.82445 -0.0947,3.44961 -0.65375,3.10409 -0.17241,-0.10652 -0.31345,-0.61599 -0.31345,-1.13216 0,-0.54597 -0.13083,-0.85759 -0.31282,-0.74512 -0.17204,0.10629 -0.31283,0.49111 -0.31283,0.85504 v 0.66171 l -0.72705,-0.68303 c -0.39986,-0.37567 -0.8196,-0.59046 -0.93276,-0.47732 -0.2975,0.29751 0.10018,1.74167 0.65545,2.38078 0.69804,0.80331 1.50024,0.66985 2.24292,-0.37314 0.5147,-0.72286 0.97282,-0.96169 2.13283,-1.11195 2.51508,-0.32581 2.70974,-0.40798 4.90751,-2.07174 1.1762,-0.8904 3.13787,-2.02333 4.35929,-2.51764 l 2.22076,-0.89872 -1.56409,0.19375 c -1.88791,0.23389 -2.1345,0.35754 -5.34594,2.6808 -2.65262,1.919 -3.25661,2.16384 -3.25661,1.3202 0,-1.15367 4.18791,-4.24705 6.71948,-4.96332 0.86363,-0.24435 3.53043,-0.5957 5.92623,-0.78078 5.34156,-0.41263 6.74928,-0.71546 8.8121,-1.89568 1.6131,-0.92292 2.62931,-1.16949 2.62931,-0.63797 0,0.52956 -4.33111,4.29653 -5.68818,4.94726 -0.74264,0.3561 -2.82834,1.09777 -4.63487,1.64811 -1.80654,0.55037 -4.23501,1.43061 -5.39661,1.95611 -1.92187,0.86945 -2.1418,1.06609 -2.44294,2.18444 -0.182,0.67594 -0.28738,1.53481 -0.23414,1.9086 0.0807,0.56726 0.23799,0.43941 0.9509,-0.77332 1.09092,-1.85573 2.69673,-3.2552 3.17929,-2.77076 0.84569,0.84906 0.0668,6.3463 -1.21894,8.60318 -0.55638,0.97658 -1.71959,4.1891 -1.71959,4.74907 0,0.38939 0.39144,-0.081 0.89328,-1.07345 z m 11.93232,-1.90783 c 0,-0.65804 1.34203,-1.548 3.1282,-2.07443 0.43013,-0.12677 1.67507,-0.58208 2.76653,-1.0118 2.38297,-0.93822 3.18775,-0.60647 1.5532,0.64027 -1.40167,1.0691 -4.91899,2.69578 -6.32095,2.92328 -0.99587,0.16161 -1.12698,0.10606 -1.12698,-0.47732 z m -4.01198,-3.66344 c 0.19491,-1.64356 2.4661,-2.59582 7.75101,-3.24984 1.69801,-0.21012 2.75211,-0.21924 2.9459,-0.0254 0.36407,0.36409 0.33702,0.37524 -3.72088,1.53282 -1.72477,0.492 -3.69553,1.17708 -4.37949,1.52237 -0.68394,0.34529 -1.57084,0.7291 -1.9709,0.8529 -0.65227,0.20186 -0.71687,0.13651 -0.62564,-0.63276 z m -80.449369,6.03168 c 0,-0.21993 -0.485244,-1.41238 -1.078316,-2.6499 -0.682169,-1.42344 -1.156584,-2.97166 -1.291379,-4.21424 -0.46038,-4.24414 -1.241545,-3.37881 -0.999147,1.10679 0.157613,2.91677 0.660983,4.65593 1.627215,5.62218 0.626436,0.62641 1.741627,0.71297 1.741627,0.13517 z m 23.975529,-0.0733 c 0.0999,-0.26026 3.1e-4,-0.69146 -0.22093,-0.95822 -0.35233,-0.42452 -0.43478,-0.42738 -0.66113,-0.0229 -0.29192,0.52162 -0.0282,1.45435 0.41131,1.45435 0.15904,0 0.37088,-0.21295 0.47075,-0.47322 z m 5.11684,0.0822 c 6e-5,-0.21506 -1.03826,-1.37641 -2.30738,-2.58077 l -2.3075,-2.18972 -0.1863,-3.91025 c -0.20585,-4.32075 -0.95484,-7.77619 -2.26594,-10.45378 -0.83354,-1.70236 -3.81058,-5.36261 -4.11446,-5.05874 -0.0864,0.0864 0.43741,0.83194 1.16411,1.65665 1.57279,1.78493 2.0327,2.62778 3.02357,5.54107 1.0344,3.04128 1.27032,5.24013 0.62009,5.77977 -0.27522,0.2284 -0.73307,0.326 -1.01745,0.21687 -0.31545,-0.12106 -0.66848,0.0178 -0.9054,0.35601 -0.24103,0.34413 -0.78806,0.55445 -1.44205,0.55445 h -1.0537 l -0.0892,-3.20641 c -0.0675,-2.42709 -0.19102,-3.20639 -0.50833,-3.20639 -0.55047,0 -0.8102,1.40117 -0.8102,4.37071 0,1.96659 -0.11635,2.54968 -0.62564,3.13696 -0.64369,0.74219 -0.87475,3.1904 -0.37527,3.97635 0.3608,0.56773 4.17287,2.9662 4.38201,2.75705 0.0997,-0.0997 -0.69608,-1.06652 -1.76842,-2.1485 l -1.94971,-1.96719 0.662,-0.8416 c 0.3641,-0.46289 0.93951,-0.99012 1.2787,-1.17165 1.60099,-0.85683 4.17345,1.28371 6.60443,5.49553 0.69513,1.20435 1.47717,2.43608 1.73789,2.73717 0.54397,0.62821 2.25391,0.74687 2.2541,0.15641 z m 10.45851,-0.41941 c 0.14459,-0.57612 -0.0311,-1.21052 -0.60749,-2.19413 -1.09322,-1.86544 -0.74203,-2.20243 0.74527,-0.71512 2.07773,2.07773 2.37619,1.37081 0.48967,-1.15981 -0.3974,-0.53309 -0.93133,-1.44808 -1.1865,-2.03334 -0.38617,-0.88566 -0.46823,-0.94606 -0.48947,-0.36023 -0.0259,0.7129 -0.76255,0.97002 -1.1204,0.39103 -0.53166,-0.86029 -0.84858,-0.19326 -0.72434,1.52452 0.1025,1.41739 0.32565,2.06641 0.97615,2.83949 0.46379,0.55118 0.92885,1.34322 1.03349,1.76009 0.24781,0.98737 0.6283,0.96476 0.88362,-0.0524 z m -50.696775,-0.47163 c 0.386639,-1.10417 -0.007,-2.97141 -0.776766,-3.68898 -0.347777,-0.324 -1.432252,-0.81693 -2.409941,-1.09541 -2.492264,-0.70984 -2.813924,-0.95145 -2.322414,-1.7445 0.440849,-0.71128 0.0083,-0.88004 -0.854953,-0.33388 -0.39696,0.25103 -0.364576,0.49077 0.232242,1.7192 l 0.69352,1.42748 -1.258026,0.50337 c -1.937879,0.77539 -2.385183,1.95006 -1.07056,2.81144 1.06265,0.69627 2.051594,0.24031 3.10786,-1.43292 0.438589,-0.69477 0.925512,-1.26321 1.082062,-1.26321 0.15655,0 0.455142,0.52788 0.663536,1.17306 0.709955,2.19797 1.219898,2.93955 1.949325,2.83479 0.399573,-0.0575 0.796747,-0.43245 0.964115,-0.91044 z m 68.504575,-0.64129 c -1.91809,-2.0037 -5.57643,-3.55658 -6.52469,-2.76958 -0.87775,0.72847 -0.36887,3.48627 0.72043,3.90428 0.63067,0.242 0.91352,-0.26567 1.16442,-2.08997 0.1135,-0.82547 0.31521,-1.50085 0.44818,-1.50085 0.13297,0 0.53496,0.70553 0.89333,1.56787 0.70562,1.6979 1.35414,2.1717 2.11185,1.54286 0.40149,-0.33319 0.59702,-0.28556 1.16692,0.28436 1.03867,1.03866 1.05729,0.14507 0.0194,-0.93897 z m 12.16338,0.71634 c -0.19276,-1.76501 -2.22062,-3.3053 -2.70156,-2.052 -0.34105,0.88878 -0.20239,1.39802 0.59884,2.19925 1.01104,1.01105 2.21998,0.92639 2.10272,-0.14725 z m -63.705995,-0.20445 c 0.211637,-0.84322 -1.049439,-3.82139 -1.926256,-4.54908 -0.819897,-0.68045 -1.128918,0.0449 -0.757317,1.77765 0.626388,2.92076 2.230349,4.57722 2.683573,2.77143 z m 1.223295,-4.39309 c -1.449545,-2.40331 -1.421813,-3.72177 0.0952,-4.53215 l 1.03468,-0.55267 -1.03468,-0.77402 c -1.206094,-0.90226 -3.26726,-1.69287 -3.585006,-1.37512 -0.12095,0.12095 0.08666,0.76538 0.461361,1.43207 0.922178,1.64079 0.880811,2.47429 -0.14209,2.8632 -1.518702,0.57741 -1.98834,0.15135 -2.023194,-1.8355 -0.05403,-3.07831 -0.03027,-3.05187 -3.950319,-4.40799 -3.963214,-1.37106 -6.917525,-3.25133 -8.511873,-5.41738 -0.985514,-1.33889 -1.496852,-2.62267 -1.173443,-2.94608 0.09482,-0.0948 0.931803,0.11173 1.859964,0.45901 0.928162,0.34726 4.703447,1.50069 8.389515,2.56316 7.027835,2.02567 9.702365,3.16236 13.872295,5.89575 1.4064,0.9219 2.59583,1.50661 2.7504,1.35206 0.14978,-0.14979 0.62494,-1.66195 1.05593,-3.36039 0.78766,-3.10397 1.0451,-3.72209 1.2792,-3.07139 0.22797,0.63362 2.61564,3.69676 3.08734,3.96074 0.87275,0.48842 0.8854,-0.73972 0.0256,-2.49269 -2.09361,-4.26877 -7.54525,-8.2206 -13.51848,-9.79936 -4.375603,-1.15652 -7.637567,-2.89878 -7.637567,-4.07935 0,-0.74252 -0.179878,-0.74318 2.577277,0.009 1.249289,0.341 4.55624,0.95993 7.34879,1.3754 3.98203,0.59248 5.52694,0.96584 7.16152,1.73074 2.79366,1.30731 5.77535,3.47089 8.28991,6.01529 2.05546,2.07989 2.07524,2.09084 2.41764,1.33934 0.68417,-1.50156 1.43572,-0.65718 1.78962,2.0106 0.26629,2.00734 0.65796,2.32347 0.94119,0.75962 0.11775,-0.64997 0.40636,-1.56188 0.64144,-2.02649 0.64939,-1.28339 0.54258,-1.81424 -0.36504,-1.81424 -0.43584,0 -1.47278,-0.34476 -2.30431,-0.76613 -1.75432,-0.88898 -6.29268,-3.93518 -7.77795,-5.22066 -2.20827,-1.91121 -4.39832,-2.55007 -11.14143,-3.25007 -5.887406,-0.61115 -8.072968,-1.10649 -10.503202,-2.38038 -1.425795,-0.74737 -2.000328,-0.91119 -2.265533,-0.64599 -0.906087,0.90609 2.465262,5.30516 5.093248,6.64586 0.678197,0.34598 2.955684,0.99309 5.061087,1.43802 5.78894,1.22334 8.90696,2.96422 9.4933,5.30039 0.53726,2.1406 -1.11725,4.82253 -2.97509,4.82253 -0.56003,0 -2.43116,-0.77233 -4.5218,-1.86644 -4.955442,-2.59336 -6.011198,-2.96313 -11.657578,-4.08277 -3.760377,-0.74566 -5.507868,-1.25672 -7.192649,-2.10353 -2.521196,-1.26722 -3.248874,-1.21279 -3.248874,0.24297 0,1.40864 0.414401,2.03594 3.3244,5.0323 1.440551,1.48329 2.619173,2.90975 2.619173,3.16992 0,0.61571 -0.927747,0.84268 -2.553283,0.62465 -1.190469,-0.15968 -1.283139,-0.12293 -1.060604,0.42063 0.747753,1.82635 0.483245,2.09318 -1.203156,1.2137 -1.109753,-0.57873 -1.418938,-0.36485 -0.669578,0.46318 0.926625,1.02392 0.403463,1.6813 -1.164399,1.46314 -5.021098,-0.6987 -5.186787,-0.66647 -4.014691,0.781 0.569542,0.70336 0.622333,0.71178 1.197704,0.19107 0.744194,-0.67349 1.979568,-0.69107 4.109631,-0.0586 1.669222,0.49571 2.278609,1.15459 1.649608,1.7836 -0.25921,0.25922 -0.782158,0.17204 -2.002705,-0.33384 -1.806418,-0.74873 -2.296864,-0.82716 -2.55553,-0.40862 -0.397541,0.64323 1.072415,1.81382 2.797348,2.22762 2.081294,0.49929 2.147538,0.44471 2.658297,-2.19085 0.609718,-3.14616 0.620442,-3.17432 1.169235,-3.06862 1.04716,0.20167 1.868098,2.04668 2.55813,5.74932 0.699645,3.7542 1.441569,6.07825 1.940421,6.07825 0.164365,0 0.258572,-2.36058 0.221577,-5.55255 -0.08063,-6.95989 0.373634,-8.16494 2.299596,-6.09999 1.302835,1.39686 1.583256,2.23339 1.80397,5.38162 0.194774,2.77815 0.293059,3.11201 1.410029,4.78974 0.660368,0.99188 1.246641,1.75744 1.302848,1.70123 0.05616,-0.0561 -0.03299,-0.93257 -0.198156,-1.94749 -0.197327,-1.21245 -0.191912,-2.24795 0.01573,-3.01927 0.309033,-1.14766 1.279746,-2.13532 2.098685,-2.13532 0.365937,0 2.431951,3.85843 3.545471,6.62142 l 0.4202,1.04266 0.1025,-1.73791 c 0.0905,-1.53524 -0.0283,-1.95473 -1.01907,-3.59743 z m -14.555075,4.31866 c -0.0047,-0.30109 -0.282336,-1.74397 -0.617604,-3.2064 -0.335267,-1.46243 -0.613193,-3.24892 -0.617616,-3.96999 -0.0047,-0.72106 -0.136922,-1.39069 -0.294465,-1.48804 -0.264236,-0.16332 -0.964838,2.3562 -0.964838,3.46974 0,0.3889 0.66576,2.89074 1.423964,5.3511 0.183861,0.59664 1.079687,0.46576 1.070559,-0.15641 z m 84.094005,0.17204 c 0.20646,-0.20645 0.37539,-0.72095 0.37539,-1.14334 0,-0.72419 -0.0326,-0.73845 -0.57207,-0.25025 -0.31464,0.28473 -0.72188,0.51771 -0.90499,0.51771 -0.39255,0 -0.75267,0.7942 -0.48258,1.06428 0.31309,0.31309 1.18666,0.20921 1.58425,-0.1884 z m -31.5343,-2.61829 c 0.003,-0.61556 2.27752,-3.00201 3.72881,-3.91365 l 1.43479,-0.90128 -0.95862,-0.006 c -0.71959,-0.005 -1.51186,0.45973 -3.17734,1.86165 -1.87875,1.58143 -2.25105,2.059 -2.42975,3.11673 -0.28803,1.70484 0.0771,2.18388 0.81329,1.06716 0.32272,-0.48947 0.58768,-1.04059 0.58882,-1.22468 z m 20.15162,0.88216 c -0.263,-1.45467 -0.31392,-1.51232 -0.90358,-1.02295 -0.57503,0.47724 -0.63073,1.76894 -0.0857,1.98885 1.00828,0.40683 1.20313,0.21658 0.98935,-0.9659 z m -54.41135,-0.37549 c 0.76202,-1.4736 0.57612,-2.24498 -0.92719,-3.84759 -2.38006,-2.53723 -2.65996,-1.84059 -0.8635,2.14919 0.6452,1.4329 1.20465,2.6089 1.24325,2.61331 0.0386,0.005 0.28494,-0.40731 0.54744,-0.91491 z m 48.45645,-1.27659 c -0.0433,-1.91778 -1.01526,-4.35262 -2.59192,-6.49316 -1.3336,-1.81053 -1.72083,-1.4724 -1.49733,1.3075 0.22441,2.79114 0.95309,4.91193 2.11508,6.15585 1.37154,1.46825 2.02203,1.14857 1.97417,-0.97019 z m -2.47845,-2.00185 c -0.35436,-0.54082 -0.45349,-1.07807 -0.30662,-1.66173 l 0.21705,-0.86253 0.7728,0.89733 c 0.78277,0.90893 0.89033,2.08058 0.21151,2.30399 -0.20411,0.0672 -0.60674,-0.23751 -0.89474,-0.67706 z m -33.92641,2.9088 c 0,-1.11789 -2.50537,-3.71257 -3.58476,-3.71257 -0.8753,0 -0.50411,0.72514 1.23196,2.40666 1.68702,1.63401 2.3528,2.00354 2.3528,1.30591 z m 39.47991,-1.93116 c -0.44527,-1.23136 -0.48211,-2.6957 -0.0837,-3.32538 0.46479,-0.73454 1.27032,0.18616 1.27032,1.45195 0,0.72603 0.12881,1.04033 0.39103,0.95423 0.48894,-0.16054 1.79871,-2.06453 1.79871,-2.61475 0,-0.47964 -1.44969,-2.00129 -1.90667,-2.00129 -0.78005,0 -2.0863,0.9846 -2.61931,1.97432 -0.50635,0.94023 -0.53063,1.21279 -0.18289,2.0523 0.24027,0.58007 0.31786,1.41112 0.19361,2.07348 -0.28336,1.51044 0.0493,1.94595 0.86401,1.13121 0.5805,-0.5805 0.61075,-0.76714 0.27485,-1.69607 z m 9.76986,-0.036 c 0.84626,-1.48626 1.29201,-3.72623 0.70687,-3.55211 -0.53451,0.15904 -2.40804,3.94441 -2.40804,4.8653 0,0.66328 0.0686,0.71495 0.48727,0.36744 0.26799,-0.22242 0.81424,-0.9787 1.2139,-1.68063 z m -40.17799,1.04818 c 0,-0.48659 -0.16874,-0.62257 -0.67935,-0.54743 -0.86162,0.12678 -1.09997,0.78266 -0.35463,0.97586 0.98169,0.25448 1.03398,0.23281 1.03398,-0.42843 z m -2.41412,-1.21999 c 1.94916,-2.16796 2.18587,-3.50458 0.52742,-2.97822 -0.68464,0.21731 -2.4851,3.09919 -2.48986,3.98536 -0.004,0.88998 0.48082,0.64077 1.96244,-1.00714 z m 5.10458,-1.40303 c -0.13245,-0.52777 -0.40437,-0.67111 -1.27304,-0.67111 -0.63057,0 -1.1046,0.15601 -1.1046,0.36353 0,0.19994 0.52787,1.01664 1.17307,1.81487 l 1.17307,1.45134 0.10008,-1.14377 c 0.055,-0.62907 0.0241,-1.44576 -0.0684,-1.81486 z m 42.04277,1.35658 c 0,-0.17205 -0.14077,-0.22583 -0.31282,-0.11948 -0.17205,0.10629 -0.31283,0.33409 -0.31283,0.50614 0,0.17205 0.14078,0.22582 0.31283,0.1195 0.17205,-0.1063 0.31282,-0.33411 0.31282,-0.50616 z m -62.56876,-1.60538 c 0.005,-0.91901 -0.52179,-1.16956 -0.82081,-0.39033 -0.0992,0.25847 -0.0851,0.84939 0.0313,1.31317 0.16598,0.66133 0.27346,0.74553 0.49818,0.39033 0.15759,-0.2491 0.2887,-0.84003 0.29132,-1.31317 z m 13.12968,-2.13853 c 0.35155,-1.26861 0.63918,-2.64337 0.63918,-3.05502 0,-0.62798 -0.0751,-0.6861 -0.46668,-0.36111 -0.39334,0.32643 -0.56194,0.17268 -1.07276,-0.97837 -0.68458,-1.54251 -0.83445,-0.96832 -0.28423,1.08891 0.29875,1.11698 0.2708,1.84365 -0.15202,3.95172 -0.87618,4.36848 0.0742,3.90902 1.33651,-0.64613 z m 14.51123,1.20478 c -0.34174,-0.6768 -0.35337,-0.9814 -0.0557,-1.45804 0.2915,-0.46676 0.29275,-0.88127 0.006,-1.83972 -0.20388,-0.68047 -0.37069,-1.52931 -0.37069,-1.8863 0,-0.81318 -0.52294,-1.16069 -1.06706,-0.7091 -0.52584,0.43641 -0.94931,-0.0368 -1.37908,-1.54102 l -0.31281,-1.09487 -0.0311,1.5641 c -0.0206,1.03486 0.33324,2.62258 1.04567,4.69229 0.59222,1.72052 1.16524,3.5391 1.2734,4.04132 l 0.19664,0.91312 0.56357,-0.91312 c 0.49664,-0.80469 0.51227,-1.0147 0.13159,-1.76866 z m 11.81994,1.9286 c 0.43294,-0.23171 0.53132,-0.44821 0.3198,-0.70384 -0.41299,-0.49919 -1.13181,-5.32571 -0.88784,-5.96149 0.1272,-0.33149 0.56625,-0.50771 1.26486,-0.50771 0.58851,0 1.40135,-0.26829 1.80628,-0.59618 0.66475,-0.53828 0.75517,-0.92644 0.93116,-3.99688 0.34588,-6.03471 1.80141,-7.62025 8.56854,-9.3339 l 2.81538,-0.71294 -1.51591,-0.22776 c -4.11323,-0.61794 -8.50005,1.26729 -10.11145,4.34538 -0.6582,1.25732 -1.34889,4.05361 -1.38585,5.61063 -0.0487,2.05127 -0.37367,2.86536 -1.19092,2.98303 -0.41409,0.0596 -0.79919,0.37982 -0.89432,0.74359 -0.16299,0.6233 -0.1806,0.62094 -0.72216,-0.097 l -0.55511,-0.73591 -0.19577,0.93078 c -0.46204,2.19676 -0.66497,2.76602 -1.0293,2.88746 -0.28774,0.0959 -0.39452,-0.65633 -0.41837,-2.94727 -0.0351,-3.37481 -0.3526,-2.83041 -0.73611,1.26231 l -0.21135,2.25531 1.58461,1.02679 c 0.87154,0.56473 1.58461,1.13295 1.58461,1.26273 0,0.12975 -0.35192,0.56654 -0.78205,0.97063 -1.11594,1.04835 -1.03781,1.87691 0.17697,1.87691 0.52746,0 1.2404,-0.15059 1.5843,-0.33464 z m 16.38228,-0.60383 c 0.5298,-1.0245 0.31674,-1.26486 -0.3466,-0.39102 -0.40804,0.53753 -0.57904,1.32948 -0.28707,1.32948 0.0816,0 0.36675,-0.4223 0.63367,-0.93846 z m -58.93056,-1.03665 c -0.35278,-0.57081 -0.94797,-1.31011 -1.32267,-1.6429 l -0.68126,-0.60506 0.40858,0.78206 c 0.85375,1.63413 2.00869,3.18796 2.12041,2.85277 0.0639,-0.19197 -0.17228,-0.81608 -0.52506,-1.38687 z m 33.74856,-0.068 c 0,-0.83268 -0.77746,-1.37117 -1.26939,-0.87923 -0.31604,0.31603 0.47403,1.67109 0.97431,1.67109 0.1623,0 0.29508,-0.35633 0.29508,-0.79186 z m 23.68772,-1.70117 c 0.21388,-1.27896 0.62773,-2.56025 0.93845,-2.90555 0.5341,-0.59356 0.53269,-0.61321 -0.0359,-0.50314 -0.32552,0.063 -1.00556,0.62611 -1.51122,1.25133 -0.80286,0.99271 -0.86882,1.21774 -0.52046,1.77555 0.29173,0.46714 0.31128,0.83407 0.0728,1.36578 -0.37668,0.83963 -0.20998,1.59436 0.3141,1.42211 0.19785,-0.0651 0.53192,-1.14777 0.74237,-2.40608 z m 9.37514,-0.23819 c -0.0794,-0.30436 -0.14942,-0.13107 -0.15579,0.38508 -0.006,0.51615 0.0585,0.76518 0.14421,0.55338 0.0857,-0.21178 0.0909,-0.63408 0.0118,-0.93846 z m -44.32437,-0.6143 c 0,-0.22582 -0.28153,-0.93586 -0.62564,-1.57789 -0.37505,-0.69975 -0.63286,-1.79564 -0.64366,-2.73603 -0.009,-0.8628 -0.14439,-2.13182 -0.29883,-2.82002 -0.20221,-0.90107 -0.25633,-0.0693 -0.19338,2.97179 0.0959,4.63392 0.51929,6.27156 1.33347,5.15812 0.23541,-0.32197 0.42804,-0.77015 0.42804,-0.99597 z m 3.02148,-0.49752 c 0.13198,-0.81325 0.0411,-1.27239 -0.32418,-1.63765 -0.27915,-0.27916 -0.50756,-0.9902 -0.50756,-1.58009 0,-0.58989 -0.14077,-1.07252 -0.31282,-1.07252 -0.42697,0 -0.40233,4.56615 0.0289,5.37208 0.43929,0.8208 0.87548,0.39782 1.11558,-1.08182 z m -25.66911,0.43523 c -0.81161,-0.84713 -4.89755,-3.47422 -5.403494,-3.47422 -0.208452,0 5.815124,4.26765 6.134054,4.34592 0.0752,0.0184 -0.25355,-0.37381 -0.73056,-0.8717 z m 37.19531,-0.35093 c 0.23355,-0.73584 -0.43014,-2.99335 -0.76574,-2.60465 -0.30115,0.3488 -0.0287,3.2352 0.30536,3.2352 0.14314,0 0.35031,-0.28374 0.46038,-0.63055 z m -35.37301,-0.96078 c -2.40288,-2.51707 -6.545017,-4.50623 -12.646389,-6.07309 -1.806537,-0.46393 -4.179245,-1.11115 -5.272695,-1.43826 -2.356913,-0.70508 -2.896661,-0.73982 -2.678951,-0.17244 0.332892,0.86747 6.105302,3.77805 8.73369,4.4037 1.627156,0.38732 0.47082,-0.36579 -1.859319,-1.21097 -3.399358,-1.233 -3.723996,-1.96665 -0.618006,-1.39661 3.177904,0.58322 8.32868,2.96313 13.47073,6.22413 1.76522,1.11946 2.12729,0.97959 0.87094,-0.33646 z m 17.28828,-0.20143 c -0.0794,-0.30436 -0.14944,-0.13109 -0.15581,0.38507 -0.006,0.51616 0.0586,0.76518 0.14421,0.55339 0.0857,-0.21179 0.0909,-0.6341 0.0119,-0.93846 z m 15.6379,0.48283 c -0.0999,-0.24954 -0.174,-0.17543 -0.189,0.18899 -0.0136,0.32976 0.0603,0.51453 0.1643,0.41059 0.10397,-0.10397 0.11504,-0.37377 0.0247,-0.59958 z m 0.4223,-4.03322 c 0.25239,-0.16633 0.7806,-0.24727 1.17379,-0.17986 0.90656,0.1554 1.19229,-0.37693 1.48507,-2.76672 0.12647,-1.0323 0.33782,-2.16586 0.46966,-2.51901 0.26066,-0.69824 -0.0534,-1.46788 -1.0464,-2.56431 -1.21787,-1.34474 -1.37288,-0.87155 -0.74572,2.27641 0.32655,1.63914 0.51084,3.31055 0.40952,3.71424 -0.17277,0.68837 -1.88482,1.72737 -2.24796,1.36424 -0.31061,-0.31062 -0.52847,-5.47917 -0.30602,-7.25975 0.17433,-1.39524 0.361,-1.84543 0.81439,-1.96398 1.33411,-0.34888 1.06693,-2.06514 -1.10914,-7.12473 -1.0899,-2.53413 -1.39292,-3.66286 -1.59568,-5.94357 -0.24521,-2.75849 -0.25398,-2.78173 -0.43421,-1.15021 -0.25744,2.3305 0.15552,6.32976 0.9586,9.28352 1.0337,3.80198 1.03368,4.06985 -6.2e-4,8.6957 -1.19886,5.36188 -1.19999,5.69167 -0.0235,6.79077 0.51725,0.48319 1.04229,1.34909 1.16673,1.92422 0.21575,0.99707 0.23431,0.9685 0.39938,-0.61444 0.0988,-0.94731 0.37013,-1.78996 0.63198,-1.96252 z m -41.771803,0.96367 c -0.106289,-0.17205 -0.642526,-0.30292 -1.191533,-0.29082 -0.841427,0.0186 -0.89994,0.0642 -0.37257,0.29082 0.873102,0.37518 1.795978,0.37518 1.564103,0 z m -19.864062,-0.90023 c 0,-0.40002 -0.919814,-1.09969 -1.147007,-0.87248 -0.227193,0.22719 0.472476,1.147 0.872487,1.147 0.150993,0 0.27452,-0.12353 0.27452,-0.27452 z M 153.52405,192.397 c -0.28283,-4.53331 0.0331,-4.78693 8.80321,-7.06665 5.73711,-1.4913 7.88515,-2.40146 9.51557,-4.03189 1.20536,-1.20537 2.41236,-3.5796 2.41236,-4.74526 0,-0.72821 -0.0603,-0.76442 -0.70384,-0.42254 -0.38711,0.20565 -1.45107,0.981 -2.36434,1.72297 l -1.6605,1.34905 -5.84717,-0.0518 c -9.86251,-0.0872 -13.49431,1.33677 -15.9857,6.26797 -0.97736,1.93446 -1.71702,2.74096 -2.68709,2.92987 -0.76908,0.14978 -0.7102,0.57821 0.42234,3.07316 l 0.87559,1.92888 0.8072,-1.82579 c 0.44396,-1.0042 1.26635,-2.94158 1.82753,-4.30529 1.28102,-3.113 3.2373,-5.26308 5.29552,-5.82008 0.96061,-0.25999 2.8645,-0.32673 5.99465,-0.21018 4.2532,0.15836 4.76051,0.11564 6.97215,-0.58665 3.84786,-1.22192 4.70127,-0.91085 2.20779,0.80472 -1.89148,1.30137 -4.51696,2.4977 -5.48966,2.50145 -2.21708,0.008 -7.34498,1.95623 -9.52193,3.61666 -2.25101,1.71693 -2.96548,4.32461 -1.89007,6.89843 0.78214,1.8719 1.20681,1.02496 1.01639,-2.0271 z m 16.00722,2.45134 c 0.75683,-0.34339 1.30859,-0.69181 1.22613,-0.77428 -0.20527,-0.20525 -3.02815,0.77642 -3.24594,1.1288 -0.28422,0.4599 0.54593,0.31418 2.01981,-0.35452 z m -87.557927,-1.53511 c 0,-0.33499 -0.679096,-1.50629 -1.509113,-2.60288 -0.830007,-1.0966 -1.599821,-2.2302 -1.710687,-2.51914 -0.333943,-0.87022 -1.604171,-0.60802 -2.832202,0.58462 -1.657388,1.60964 -1.515261,1.8299 1.02815,1.59352 2.584342,-0.24019 3.195089,0.21041 1.29619,0.95631 -1.183469,0.46488 -1.235704,0.53365 -0.693685,0.9133 0.705876,0.4944 3.482533,1.64239 4.030321,1.66628 0.215063,0.009 0.391026,-0.25702 0.391026,-0.59201 z m 36.781157,-1.38514 c -0.52106,-1.7924 -1.11969,-2.58027 -1.11969,-1.47364 0,0.68065 1.28457,3.53882 1.49563,3.32778 0.0695,-0.0695 -0.0997,-0.90387 -0.37594,-1.85414 z m 55.3169,1.4922 c 0.82986,-0.31844 0.21604,-0.74926 -1.06749,-0.74926 -1.17203,0 -1.76203,0.32342 -1.34704,0.73841 0.25324,0.25325 1.76514,0.26005 2.41453,0.0106 z m 13.00941,-0.61169 0.78205,-0.40567 -1.16303,-0.4916 c -0.63966,-0.27037 -1.29213,-0.49159 -1.44991,-0.49159 -0.33759,0 -1.29731,1.39087 -1.29731,1.88009 0,0.41231 1.9883,0.10008 3.1282,-0.49123 z m -79.26527,-0.68609 c 0.77426,-1.0199 0.5115,-2.20896 -0.79744,-3.60846 -0.805,-0.86068 -1.3352,-1.20894 -1.52947,-1.00455 -0.32439,0.34125 -1.30508,3.57368 -1.30508,4.30161 0,1.15559 2.80833,1.39636 3.63199,0.3114 z m 23.75569,-7.89762 c -0.0958,-1.80654 -0.25965,-5.04437 -0.3642,-7.19518 l -0.19009,-3.91057 1.56911,-2.34583 c 1.81077,-2.70707 3.71829,-4.77789 4.23947,-4.60238 0.1983,0.0668 0.31905,0.53143 0.26835,1.03257 -0.0713,0.70457 -0.0191,0.80478 0.22984,0.44194 0.4132,-0.60217 0.42588,-3.77789 0.0192,-4.84717 -0.38389,-1.00973 -0.81961,-0.79395 -1.10956,0.54948 -0.35322,1.63663 -1.18337,3.02599 -3.81245,6.38062 -1.36259,1.73869 -2.79675,3.90342 -3.18697,4.81052 l -0.70951,1.6493 0.55901,3.361 c 0.53636,3.2248 0.53641,3.43518 0.001,5.19143 -1.06973,3.51267 -1.75051,6.16016 -1.61806,6.29259 0.0734,0.0735 0.54284,-0.32477 1.04323,-0.88482 0.5004,-0.56004 1.06031,-0.92524 1.24424,-0.81156 0.18395,0.11373 0.43914,0.94557 0.5671,1.84865 l 0.23267,1.64195 0.5955,-2.65897 c 0.46722,-2.08617 0.558,-3.36654 0.42141,-5.94357 z m 8.89943,7.15793 c 0,-0.54599 -0.13083,-0.85761 -0.31282,-0.74514 -0.17205,0.10629 -0.31283,0.61564 -0.31283,1.13181 0,0.54598 0.13083,0.8576 0.31283,0.74512 0.17204,-0.10629 0.31282,-0.61563 0.31282,-1.13179 z m 19.31457,0.50101 c 2.08672,-0.6197 3.27948,-1.96822 3.14655,-3.55745 -0.0859,-1.0261 -0.18903,-1.1388 -1.12513,-1.22877 -1.61321,-0.15507 -4.81188,1.0549 -5.98304,2.26323 -1.16403,1.20097 -1.17092,2.01259 -0.022,2.59387 1.03082,0.52153 2.04981,0.50341 3.98363,-0.0709 z m -25.94811,-3.39535 c 0.0865,-1.209 -0.0274,-4.63405 -0.25328,-7.61124 -0.22581,-2.97718 -0.32749,-5.49613 -0.22596,-5.59767 0.30146,-0.30146 1.07243,1.46807 1.44413,3.31456 0.19046,0.94627 0.49091,3.1282 0.66763,4.84871 0.42149,4.10355 0.5781,4.79625 0.95107,4.20675 0.54858,-0.86711 0.30942,-4.89402 -0.48554,-8.17528 -0.5627,-2.32264 -0.78176,-4.09136 -0.78205,-6.31462 -3.1e-4,-3.51263 -0.29645,-3.64831 -1.60105,-0.73389 -0.6593,1.47287 -0.73145,2.09113 -0.73813,6.32474 -0.0118,7.21477 0.26123,12.99922 0.58567,12.42879 0.15414,-0.27097 0.35101,-1.48186 0.43751,-2.69085 z m 56.99753,2.63347 c 0,-0.31292 -2.29522,-1.96758 -3.16829,-2.28408 -0.75733,-0.27453 -1.25304,0.35508 -0.8591,1.09116 0.5619,1.04992 4.02739,2.07641 4.02739,1.19292 z m -87.93951,-1.71765 c 0.69532,-2.7614 0.4202,-3.14171 -2.52297,-3.48762 -1.527037,-0.17947 -1.782889,-0.11799 -2.691866,0.64684 -0.552434,0.46485 -1.003994,1.00862 -1.003462,1.2084 0.0012,0.41909 4.594248,3.00338 5.358048,3.01465 0.34514,0.005 0.62356,-0.44227 0.86025,-1.38227 z m 87.57967,-3.58135 c -0.7321,-1.73919 -1.43671,-3.16216 -1.56579,-3.16216 -0.32819,0 -0.88592,2.13468 -0.88801,3.39883 -10e-4,0.8155 0.26256,1.29801 1.17133,2.14161 1.39093,1.29117 2.38185,1.75561 2.51895,1.18062 0.052,-0.2182 -0.50438,-1.81971 -1.23648,-3.5589 z m -75.3429,1.20091 c -1.95857,-1.69257 -2.35831,-1.53072 -0.52914,0.21425 0.82712,0.78903 1.60121,1.33726 1.72019,1.21829 0.11898,-0.11898 -0.417,-0.76363 -1.19105,-1.43254 z m -39.167556,0.77778 c 0.854586,-0.59858 1.942336,-2.65609 1.942336,-3.67401 0,-1.13429 -0.650969,-2.76154 -1.052234,-2.63029 -0.308512,0.10082 -2.701604,5.90768 -2.701604,6.55538 0,0.41081 1.080301,0.26108 1.811502,-0.25108 z m 97.433576,0.20758 c 0.8189,-0.13477 1.5915,-0.34765 1.7169,-0.47304 0.1254,-0.12539 -0.59201,-1.00351 -1.59425,-1.95137 l -1.82226,-1.72336 -1.77155,0.7028 c -2.99934,1.18989 -4.79066,2.1773 -4.66245,2.57003 0.32162,0.98511 4.64094,1.44975 8.13361,0.87494 z m -77.997488,-1.52943 c 1.120027,-0.83622 1.125442,-1.22662 0.02625,-1.89507 -1.159564,-0.70517 -2.533781,-0.51437 -4.044834,0.56159 -1.776978,1.26532 -0.902848,2.33266 1.692148,2.06614 0.857813,-0.0881 1.904708,-0.41779 2.326426,-0.73266 z m 86.100808,-2.04631 c 0.23377,-0.43037 0.16869,-0.73333 -0.26088,-1.21425 -0.91526,-1.02466 -4.84162,-3.68664 -5.43773,-3.68664 -0.62545,0 -2.3262,1.81938 -2.64773,2.83242 -0.29379,0.92568 0.57105,2.0456 2.68715,3.47964 l 1.69774,1.15053 1.82498,-0.99413 c 1.00374,-0.54676 1.96515,-1.25217 2.13647,-1.56757 z m -55.10879,1.40493 c 1.38462,-1.38461 1.71274,-3.10216 1.0425,-5.45704 -1.2058,-4.23665 -0.66781,-5.90252 3.64608,-11.28999 3.2673,-4.08041 3.53694,-4.68745 3.39975,-7.65395 -0.14253,-3.08229 0.29612,-3.2308 2.69104,-0.91114 l 1.73472,1.68021 0.0137,6.08228 c 0.0106,4.78958 0.11904,6.34822 0.50919,7.33355 0.92794,2.34361 2.26687,6.5661 2.44394,7.70734 0.21651,1.39551 1.38575,3.1975 2.17311,3.34913 0.43765,0.0843 0.53161,-0.0195 0.37868,-0.41792 -0.11184,-0.29151 -0.29538,-0.89655 -0.40781,-1.34452 l -0.20443,-0.81452 0.87359,0.68716 c 0.48048,0.37794 1.03139,0.68717 1.22426,0.68717 0.19287,0 0.65772,-0.66866 1.033,-1.4859 1.41789,-3.08772 4.15605,-5.26487 7.33738,-5.83403 1.31107,-0.23456 2.76891,-1.26431 2.76891,-1.95583 0,-0.36519 0.22019,-0.423 0.97753,-0.25666 1.59023,0.34927 1.95939,-0.9685 1.033,-3.68732 -0.69138,-2.02906 -1.10292,-2.30163 -2.68626,-1.77909 -1.24435,0.41068 -1.30236,0.39807 -2.02319,-0.43995 -0.40815,-0.47451 -0.74211,-1.07403 -0.74211,-1.33227 0,-0.41225 0.0847,-0.41013 0.69526,0.0174 2.08141,1.45787 2.62122,-0.31604 1.01538,-3.33686 -0.61495,-1.15681 -1.24223,-2.18002 -1.39398,-2.2738 -0.15171,-0.0938 -0.65367,0.32482 -1.11543,0.93022 -1.03824,1.36121 -1.91631,1.40975 -3.10261,0.17152 -0.78473,-0.81908 -0.82625,-0.95378 -0.35032,-1.1364 0.29696,-0.11398 0.69939,-0.0477 0.89428,0.14717 0.61165,0.61164 1.33644,0.39008 2.0993,-0.64177 l 0.73646,-0.99609 -0.71137,-1.27184 c -0.39127,-0.69951 -1.46459,-2.53877 -2.38518,-4.08722 -0.9206,-1.54846 -2.75004,-5.34836 -4.06545,-8.4442 -2.93192,-6.90033 -3.36839,-7.76536 -4.53306,-8.98408 -1.04054,-1.08882 -1.24975,-2.01212 -0.37427,-1.65171 1.41323,0.58179 1.71862,0.57492 1.5264,-0.0344 -0.37703,-1.19511 -2.04577,-9.80533 -2.52212,-13.01337 -0.87364,-5.88371 -0.54309,-9.14256 0.87228,-8.59943 0.69091,0.26512 0.66271,-0.29268 -0.15016,-2.96885 -0.57388,-1.88937 -0.60403,-2.24873 -0.22078,-2.63197 0.38324,-0.38325 0.58837,-0.3372 1.50247,0.33719 0.58226,0.42959 1.11653,0.72317 1.18728,0.65242 0.0708,-0.0707 -0.48225,-1.01795 -1.22888,-2.10488 -0.74663,-1.08694 -2.38259,-4.01875 -3.63546,-6.51513 -1.6363,-3.260343 -2.22709,-4.208442 -2.09736,-3.365794 0.0993,0.645192 0.12102,1.173064 0.0482,1.173064 -0.59607,0 -2.32448,-1.028644 -2.6628,-1.584722 -0.79106,-1.300304 -1.58284,-3.401886 -1.33854,-3.552878 0.13422,-0.083 0.76148,0.217356 1.39392,0.667343 0.63243,0.449988 1.23655,0.731496 1.34246,0.625584 0.25085,-0.250839 -1.69224,-2.873866 -3.22108,-4.34822 -1.42518,-1.374406 -2.57403,-1.87807 -3.32509,-1.457758 -1.17376,0.656869 -0.53493,2.209814 2.30905,5.613014 1.06502,1.274425 2.11654,2.739443 2.33672,3.255595 0.81045,1.899812 1.70528,5.206372 1.70528,6.301262 0,1.66889 -0.66486,0.92863 -1.88536,-2.09915 -1.0986,-2.72539 -1.93592,-3.610649 -3.69891,-3.910675 -3.84446,-0.654244 -4.24378,-1.151294 -3.17791,-3.955604 1.14832,-3.021277 0.64276,-4.695882 -1.07742,-3.56877 -0.71578,0.468988 -0.7351,0.553392 -0.31232,1.363878 0.24786,0.47516 0.45152,0.969519 0.45258,1.098557 0.006,0.652576 -1.4869,0.04883 -3.96602,-1.604574 -3.9388,-2.626933 -5.06206,-3.165937 -6.59755,-3.165937 -1.36316,0 -3.39456,0.825891 -4.08876,1.662341 -0.32796,0.395167 -0.10019,0.434408 1.68827,0.290852 1.96564,-0.157791 2.19732,-0.100026 4.70735,1.172628 2.81278,1.42621 5.13045,3.383645 5.13045,4.333017 0,0.832295 -0.90721,1.534076 -2.82644,2.186448 l -1.67931,0.570806 1.53849,0.757333 c 2.4972,1.22925 5.61447,4.39204 6.87587,6.97629 1.61375,3.30615 2.07009,5.43051 2.25916,10.51706 0.17375,4.67436 -0.32481,10.20197 -1.38253,15.328 -1.01845,4.93585 -1.00428,4.99314 1.31474,5.31124 l 1.25127,0.17164 -0.86644,0.8764 c -0.72464,0.73296 -1.08304,0.86026 -2.18975,0.77778 l -1.32328,-0.0986 -0.68352,2.03332 c -0.73326,2.18124 -0.54294,2.61702 0.82354,1.8857 0.84755,-0.4536 0.85509,0.10724 0.0199,1.47712 -0.637,1.04475 -1.47288,1.299 -2.12539,0.64649 -0.20359,-0.20358 -0.42475,-0.30917 -0.49146,-0.23461 -0.43627,0.48757 -2.74512,4.88068 -2.90967,5.53633 -0.17498,0.6972 -0.12359,0.77028 0.39295,0.55874 1.73975,-0.71238 1.79879,-0.6752 1.10069,0.69319 -0.54936,1.07684 -0.83546,1.29837 -1.91153,1.48017 -1.37936,0.23305 -2.52317,1.40756 -3.16568,3.25066 -0.44739,1.28339 -0.26019,1.45139 0.74032,0.66442 0.44051,-0.34651 1.02508,-0.63004 1.29903,-0.63004 0.94973,0 0.48935,0.88584 -1.051,2.02227 -0.79554,0.58693 -1.17659,0.69571 -1.61502,0.46107 -0.47875,-0.25621 -0.75531,-0.0597 -1.6689,1.18554 -1.33149,1.81494 -1.40784,2.51008 -0.29053,2.64494 0.80588,0.0974 0.78971,0.1329 -0.93771,2.0651 -1.7022,1.90399 -3.00848,3.99635 -3.01245,4.82526 -9.3e-4,0.22192 -0.20386,0.7906 -0.45068,1.26374 -0.53251,1.02082 -0.33946,1.06995 0.92185,0.23461 2.10417,-1.39353 1.90201,-0.23343 -0.31283,1.79521 -1.00844,0.92364 -1.72051,1.84002 -1.72051,2.21413 0,1.0825 1.71358,2.41016 2.64796,2.0516 0.27994,-0.10747 0.77163,0.0494 1.10725,0.35312 0.57269,0.51827 1.00919,0.51842 2.26657,9.4e-4 0.45966,-0.18924 0.54744,-0.0509 0.54744,0.86312 0,0.89215 0.25851,1.32678 1.43307,2.40946 1.05859,0.97578 1.60877,1.27503 2.10533,1.14518 0.45613,-0.11929 0.93124,0.0723 1.47776,0.59592 l 0.80551,0.77172 1.06019,-0.78217 c 0.5831,-0.43021 1.17361,-0.78218 1.31222,-0.78218 0.50691,0 0.23155,0.9148 -0.55766,1.85275 l -0.80974,0.96231 0.73152,0.29314 c 0.40235,0.16123 1.34063,0.30207 2.08507,0.31298 1.08532,0.0159 1.52973,-0.15636 2.24258,-0.86921 z m -6.84887,-6.2566 c -0.66198,-0.58025 -1.11746,-2.1111 -0.70413,-2.36655 0.14767,-0.0913 0.5884,0.17456 0.97937,0.59073 l 0.71086,0.75667 1.12773,-0.76632 c 0.62025,-0.42146 1.23582,-0.76631 1.36794,-0.76631 0.95631,0 -1.06435,2.59273 -2.26545,2.90682 -0.34627,0.0906 -0.88852,-0.0677 -1.21632,-0.35504 z m 22.72043,-1.22229 c -0.5943,-0.65947 -1.04149,-2.26795 -0.63053,-2.26795 0.16071,0 0.62281,0.35192 1.02689,0.78205 0.88835,0.94558 1.28976,0.98038 1.80433,0.15641 0.39515,-0.63274 1.32388,-0.86902 1.32388,-0.33682 0,0.15885 -0.36444,0.72192 -0.80986,1.25128 -0.91085,1.08249 -1.96761,1.24405 -2.71471,0.41503 z m 6.84896,-1.4077 c -0.57539,-0.9124 -0.93056,-2.11152 -0.62542,-2.11152 0.13123,0 0.6334,0.37825 1.11596,0.84056 l 0.87737,0.84057 0.93846,-0.8991 c 0.80903,-0.77509 0.93846,-0.81788 0.93846,-0.31024 0,0.75962 -1.51466,2.34359 -2.24106,2.34359 -0.30794,0 -0.75964,-0.31673 -1.00377,-0.70386 z m -34.52494,-4.37961 c -0.42345,-0.53765 -0.74063,-1.9737 -0.49104,-2.2233 0.11256,-0.11256 0.58079,0.24592 1.04051,0.79659 l 0.83586,1.00124 0.87291,-0.68662 c 1.01444,-0.79797 1.41418,-0.86543 1.41418,-0.2387 0,1.15358 -2.96791,2.24524 -3.67242,1.35079 z m 8.15967,-0.0692 c -0.71464,-0.50056 -1.14344,-1.94534 -0.66509,-2.24098 0.16351,-0.10113 0.67959,0.27424 1.14686,0.83395 0.74025,0.8867 0.93551,0.9717 1.51714,0.66041 0.8961,-0.47957 1.64713,-0.45141 1.64713,0.0617 0,0.49493 -1.30093,1.14509 -2.29125,1.14509 -0.38376,0 -0.9934,-0.2071 -1.35479,-0.46022 z m 16.78448,-0.10652 c 0,-0.48432 1.51511,-1.93576 2.02066,-1.93576 0.38457,0 0.11992,0.63607 -0.64077,1.5401 -0.91832,1.09136 -1.37989,1.2237 -1.37989,0.39566 z m 5.16901,-1.38832 c -0.56641,-1.33436 -0.12346,-1.74556 0.96124,-0.89235 l 0.85692,0.67406 0.82481,-0.79021 c 1.45925,-1.39805 1.77092,-0.73735 0.46184,0.97898 -1.11324,1.45951 -2.49225,1.47263 -3.10481,0.0295 z m -26.2666,-5.30933 c -0.50065,-0.71479 -0.66031,-1.80732 -0.26411,-1.80732 0.12257,0 0.52916,0.38412 0.90351,0.85361 0.63436,0.79556 0.73619,0.82389 1.49717,0.41663 1.03486,-0.55384 1.40537,-0.21577 0.6628,0.60477 -0.76726,0.84781 -2.18209,0.8136 -2.79937,-0.0677 z m 22.40526,-0.0189 c -0.18316,-0.22071 -0.47844,-0.78377 -0.65619,-1.25127 -0.39669,-1.0434 0.0693,-1.12871 1.22545,-0.22437 0.8832,0.69086 1.59078,0.78665 2.09393,0.28348 0.1882,-0.18819 0.60347,-0.28919 0.92282,-0.22447 0.51336,0.10408 0.47565,0.21625 -0.32527,0.9678 -0.98419,0.92353 -2.67374,1.1561 -3.26074,0.44883 z m -15.69737,-0.53716 c -0.56585,-0.56584 -0.89242,-2.18974 -0.44037,-2.18974 0.10187,0 0.54936,0.28639 0.99434,0.63643 0.65211,0.51293 1.07218,0.59698 2.16494,0.43311 1.10964,-0.16641 1.32419,-0.12089 1.18162,0.25065 -0.18935,0.49343 -2.07622,1.4952 -2.81629,1.4952 -0.25223,0 -0.74015,-0.28155 -1.08424,-0.62565 z m -3.07182,-5.40639 c -0.18316,-0.22071 -0.47655,-0.7788 -0.65198,-1.24021 -0.45923,-1.20789 0.1457,-1.42227 1.19003,-0.42175 0.83356,0.79862 0.88347,0.80699 1.871,0.31436 1.37051,-0.6837 1.59307,-0.32387 0.50322,0.81367 -0.95312,0.99486 -2.32151,1.24574 -2.91227,0.53393 z m 23.72863,-1.2015 c -1.30188,-1.42538 -1.25647,-1.874 0.14615,-1.44352 0.83953,0.25766 1.27771,0.23854 1.87645,-0.0819 0.42961,-0.22994 0.86451,-0.33467 0.96644,-0.23274 0.29855,0.29855 -0.59283,1.84956 -1.34672,2.34336 -0.6445,0.42214 -0.75975,0.38107 -1.64232,-0.58522 z m -15.09638,-0.20706 c -0.77343,-0.82954 -1.64779,-2.25683 -1.38254,-2.25683 0.0733,0 0.73883,0.27113 1.47898,0.60251 1.20177,0.53804 1.438,0.55478 2.20837,0.15641 1.07045,-0.55355 1.20652,-0.55514 1.20652,-0.014 0,0.3699 -1.22807,1.48595 -2.37648,2.15972 -0.18874,0.11078 -0.69942,-0.18079 -1.13485,-0.64781 z m 7.39388,-0.23201 c -0.46287,-0.60687 -0.76218,-1.18279 -0.66514,-1.27984 0.31872,-0.31871 1.46878,0.22319 1.80434,0.85019 0.32581,0.60879 0.33609,0.6086 1.13672,-0.0211 0.44437,-0.34954 0.92974,-0.63553 1.07857,-0.63553 0.49186,0 0.28126,0.92783 -0.35499,1.56411 -0.96488,0.96487 -2.02835,0.79548 -2.9995,-0.47775 z m -11.61879,-6.01326 c -0.32119,-0.47316 -0.75006,-1.24738 -0.95305,-1.72051 -0.52986,-1.23506 0.33644,-1.17203 1.07498,0.0781 0.64976,1.1 1.0524,1.16892 1.82715,0.31283 0.51995,-0.57454 1.40769,-0.86065 1.40769,-0.45369 0,0.50301 -1.02583,2.04254 -1.54677,2.32134 -0.90292,0.48323 -1.17066,0.4036 -1.81,-0.53817 z m 7.32566,0.46922 c -0.64827,-0.47814 -1.23196,-2.33894 -0.81458,-2.5969 0.16107,-0.0996 0.65422,0.24849 1.09591,0.77341 0.78394,0.93166 0.82555,0.94278 1.74651,0.46652 0.51889,-0.26833 1.00407,-0.42726 1.07815,-0.35318 0.29118,0.29119 -0.25683,1.06562 -1.11118,1.57029 -1.07412,0.63451 -1.30245,0.65052 -1.99481,0.13986 z m 7.63096,-0.97539 c -1.11959,-1.81152 -0.80444,-2.25679 0.72891,-1.02986 l 0.91083,0.72883 0.86204,-0.96478 c 1.42539,-1.5953 1.64802,-0.26256 0.25248,1.51156 -0.90214,1.14689 -1.95142,1.05328 -2.75426,-0.24575 z m -11.89764,-6.27583 c -0.52442,-0.76221 -0.95349,-1.53644 -0.95349,-1.72051 0,-0.62518 0.9218,-0.33808 1.43646,0.4474 0.64798,0.98892 1.09144,0.98355 2.29337,-0.0277 0.6532,-0.54962 0.96247,-0.66824 0.96247,-0.36913 0,0.50366 -2.0979,3.05591 -2.51191,3.05591 -0.15038,0 -0.70248,-0.62365 -1.2269,-1.38585 z m 8.97854,0.41978 c -0.48173,-0.27834 -1.4859,-1.8347 -1.4859,-2.303 0,-0.44374 0.9033,-0.0932 1.55923,0.60492 l 0.72984,0.77687 1.00393,-0.62046 c 0.55215,-0.34125 1.09288,-0.62046 1.20162,-0.62046 0.44955,0 0.14955,0.87346 -0.50617,1.47362 -0.91231,0.83502 -1.8178,1.08414 -2.50255,0.68851 z m -4.77436,-6.12092 c -0.50953,-0.50953 -1.09101,-1.74495 -1.09101,-2.31797 0,-0.53512 0.92735,-0.30174 1.32387,0.33318 0.46511,0.74475 1.05021,0.79882 1.69261,0.15642 0.94654,-0.94656 1.37003,-0.40302 0.68626,0.88082 -0.75989,1.42675 -1.76709,1.79219 -2.61173,0.94755 z m -4.67071,-6.43386 c -0.54359,-0.7761 -0.65567,-2.12014 -0.17679,-2.12014 0.1706,0 0.48599,0.28154 0.70089,0.62563 0.49513,0.79284 0.93217,0.79089 1.6546,-0.007 0.70432,-0.77826 1.30241,-0.35175 0.80639,0.57506 -0.91261,1.70522 -2.16707,2.09471 -2.98509,0.92684 z m 8.62544,0.40752 c -0.41397,-0.25584 -1.33034,-2.58822 -1.10626,-2.81565 0.0713,-0.0723 0.49042,0.20736 0.93138,0.62162 l 0.80172,0.75317 0.58332,-0.77335 c 0.77098,-1.02208 1.09307,-0.63344 0.63226,0.76286 -0.39788,1.20558 -1.20778,1.84357 -1.84242,1.45135 z m -6.87767,-5.75806 c -0.55661,-0.67068 -1.35053,-2.76326 -1.1312,-2.9816 0.11089,-0.11043 0.63064,0.33345 1.15491,0.98643 l 0.95318,1.18726 0.58875,-0.96812 c 0.58524,-0.96235 1.20475,-1.02023 1.20475,-0.11256 0,0.51956 -1.64757,2.30363 -2.12738,2.30363 -0.16421,0 -0.45357,-0.18677 -0.64301,-0.41503 z m 6.14121,-0.13241 c -0.47876,-0.54602 -1.4939,-2.39545 -1.4939,-2.72165 0,-0.49036 0.99126,-0.0694 1.43645,0.61012 0.6184,0.94379 1.23961,1.00124 1.69174,0.1564 0.45399,-0.84828 0.93846,-0.78931 0.93846,0.11421 0,0.84238 -1.09698,2.38835 -1.69472,2.38835 -0.21893,0 -0.61405,-0.24635 -0.87803,-0.54744 z m -1.34459,-6.03326 c -0.11019,-0.17837 -0.10617,-0.88222 0.009,-1.5641 0.26449,-1.5655 0.80354,-1.59175 2.28401,-0.11127 l 1.12852,1.12853 -1.23801,0.43086 c -1.49293,0.51959 -1.92009,0.5423 -2.18357,0.11599 z m -6.65596,-2.86647 c -0.432,-0.43199 -0.49485,-2.39273 -0.0968,-3.02086 0.31869,-0.50298 1.99083,-0.23344 2.52195,0.40651 0.45806,0.55194 -0.0453,1.8388 -0.97343,2.48895 -0.85671,0.60006 -0.96745,0.60963 -1.45167,0.1254 z m 4.78614,-6.17668 c -0.3441,-0.13842 -0.74695,-0.18087 -0.89522,-0.0943 -0.43547,0.25415 -0.81535,-0.6153 -0.82051,-1.87794 -0.004,-1.02603 0.0879,-1.17307 0.73461,-1.17307 1.03524,0 2.3888,1.44219 2.3888,2.54521 0,0.92437 -0.29214,1.04892 -1.40768,0.60015 z m -8.64455,-9.03533 c -0.82522,-0.73733 -0.99555,-1.12415 -1.0216,-2.31995 -0.0398,-1.831379 0.3152,-2.173034 1.16842,-1.12422 0.37247,0.45789 1.14756,1.41389 1.72241,2.12447 0.58191,0.7193 0.96756,1.4942 0.87007,1.74825 -0.28422,0.74068 -1.67405,0.52325 -2.7393,-0.42855 z m -37.288045,82.19577 c 2.166916,-0.92885 3.545503,-2.06335 3.545503,-2.91776 0,-0.99208 -2.572792,-3.8127 -3.159254,-3.46355 -0.241001,0.14347 -1.52913,1.08622 -2.862529,2.09499 -3.205151,2.42483 -3.281515,3.37231 -0.358145,4.44362 0.670122,0.24559 1.241923,0.45642 1.270666,0.46856 0.02873,0.0122 0.732441,-0.26952 1.563759,-0.62586 z m 23.587755,-0.90455 c 0.36159,0.19351 0.7187,0.2906 0.79356,0.21574 0.0749,-0.0748 -0.74661,-0.53386 -1.82551,-1.01997 -2.09058,-0.94195 -5.24622,-1.80174 -5.24622,-1.42939 0,0.12329 0.99428,0.70518 2.20954,1.29309 1.21525,0.58789 2.3689,1.26092 2.56368,1.49562 0.29028,0.34976 0.39864,0.30646 0.60082,-0.24012 0.20949,-0.56631 0.34579,-0.61379 0.90413,-0.31497 z m -28.928905,-2.54594 c 0.327205,-0.36157 1.462697,-1.29455 2.523313,-2.0733 2.455376,-1.80288 2.998671,-2.79709 2.866903,-5.24624 -0.09364,-1.73953 -0.158465,-1.88363 -0.886201,-1.96867 -0.835965,-0.0977 -3.024246,1.3017 -6.502853,4.15841 -2.382428,1.95651 -2.453769,2.7632 -0.435682,4.92691 0.961077,1.03044 1.634794,1.08658 2.43452,0.20289 z m 102.421785,0.0307 c 2.19604,-1.12033 2.27344,-2.37707 0.26291,-4.26857 -1.02575,-0.96506 -4.55584,-3.40591 -6.71895,-4.64577 l -1.0915,-0.62565 -0.63899,0.77838 c -0.84512,1.02945 -0.64451,3.14715 0.406,4.28587 1.57343,1.70554 5.61609,5.1024 6.07246,5.1024 0.26384,0 1.03248,-0.28199 1.70807,-0.62666 z m 12.64087,-2.30093 c -0.0898,-0.23377 -1.10586,-1.12549 -2.25812,-1.98158 -2.98527,-2.218 -16.29452,-11.04465 -16.65363,-11.04465 -0.58738,0 -0.29572,2.53248 0.46441,4.0325 1.09068,2.15237 3.53215,4.19307 7.17887,6.00047 5.0221,2.48909 11.76201,4.27942 11.26847,2.99325 z M 74.262015,178.38998 c 3.347666,-1.05027 8.222087,-3.56362 10.07575,-5.19528 0.813548,-0.71613 1.737441,-1.87056 2.053071,-2.56543 0.632714,-1.3929 0.77802,-3.29672 0.251631,-3.29672 -0.344454,0 -12.703885,7.62197 -14.685782,9.05663 -2.049395,1.48349 -3.434579,2.67285 -3.43459,2.94902 -1.2e-5,0.42158 2.901699,-0.0578 5.73992,-0.94822 z m 123.980765,-1.33019 c -1.04821,-1.58394 -5.45608,-5.93857 -7.8414,-7.74669 -4.06982,-3.08499 -9.08715,-4.73228 -10.22774,-3.35797 -0.3472,0.41836 -0.33762,0.54257 0.059,0.76451 0.26045,0.14575 3.69725,2.41962 7.63734,5.05306 9.49221,6.34424 10.91273,7.22076 11.04745,6.81661 0.0622,-0.18657 -0.24139,-0.87485 -0.67463,-1.52952 z m -122.99506,-4.096 c 4.93765,-2.94346 7.774747,-4.8818 8.895578,-6.07757 1.110995,-1.18529 0.557188,-1.52827 -2.221148,-1.37558 -3.826965,0.21032 -7.976486,2.72786 -11.473148,6.9608 -1.137313,1.37679 -3.178194,4.79163 -3.178194,5.31781 0,0.11138 0.809421,-0.34139 1.79872,-1.00613 0.989288,-0.66475 3.769481,-2.38344 6.178192,-3.81933 z m 89.62287,4.00455 c 0,-0.35768 -0.80941,-1.83082 -1.7987,-3.27365 -0.9893,-1.44281 -2.11313,-3.14782 -2.49742,-3.78889 -0.91027,-1.51851 -0.89548,-0.89328 0.0375,1.5854 1.04845,2.78547 2.00672,4.61685 2.93323,5.60584 0.8686,0.92715 1.32541,0.8828 1.32541,-0.1287 z m -61.48182,-0.94675 c 0.99956,-1.16776 3.61217,-6.75423 3.61078,-7.72087 -0.001,-0.82717 -1.22569,0.63025 -4.0845,4.86135 -1.67927,2.48535 -2.64145,4.1808 -2.41542,4.25615 0.84441,0.28147 1.88215,-0.22018 2.88914,-1.39663 z m 2.69867,-0.65586 c 0.17983,-0.66786 0.26339,-1.27788 0.18569,-1.35559 -0.29423,-0.29423 -1.4635,2.03817 -1.45398,2.90034 0.009,0.86606 0.0283,0.8773 0.47562,0.28556 0.25612,-0.3388 0.61282,-1.16243 0.79267,-1.83031 z m 62.84981,0.097 c 0,-1.83388 -0.84611,-4.17093 -1.86263,-5.14483 -0.73412,-0.70333 -1.30686,-0.93002 -2.62599,-1.03942 -0.99004,-0.082 -1.77061,-0.005 -1.88923,0.18716 -0.29058,0.47015 3.05382,5.96013 4.39886,7.22092 1.07533,1.00797 1.15789,1.03382 1.55726,0.48766 0.23196,-0.31722 0.42173,-1.08739 0.42173,-1.71149 z m -69.709179,0.0813 c 1.477779,-1.53148 4.642669,-6.05337 4.642669,-6.63331 0,-0.47325 -1.71937,-0.40117 -2.97838,0.12488 -3.091011,1.29151 -5.763117,4.2724 -5.340216,5.95733 0.207283,0.8259 1.335929,2.03698 1.898319,2.03698 0.189099,0 0.989015,-0.66866 1.777608,-1.48588 z m 72.461169,0.0285 c 0.0512,-0.34451 -0.19049,-0.96695 -0.53703,-1.38319 l -0.63004,-0.7568 -0.006,0.78205 c -0.0148,1.87728 0.93316,2.97443 1.17323,1.35794 z m -77.515919,-0.4195 c 0,-0.65976 -0.455123,-0.84181 -0.782056,-0.3128 -0.228104,0.36908 0.06774,0.93845 0.487691,0.93845 0.161895,0 0.294365,-0.28154 0.294365,-0.62565 z m -1.720516,-1.56408 c 0,-0.72157 -1.837654,-0.62862 -1.977982,0.1 -0.09115,0.47337 0.06621,0.55242 0.934179,0.46924 0.674816,-0.0647 1.043803,-0.26593 1.043803,-0.56929 z m 81.176745,0.1564 c 0,-0.25807 -0.21115,-0.46922 -0.46922,-0.46922 -0.25808,0 -0.46924,0.21115 -0.46924,0.46922 0,0.25809 0.21116,0.46924 0.46924,0.46924 0.25807,0 0.46922,-0.21115 0.46922,-0.46924 z m -79.542459,-2.1931 c 1.607097,-0.47727 3.527252,-2.17626 3.527252,-3.12099 0,-0.72857 -0.699136,-2.03716 -1.088376,-2.03716 -1.02893,0 -7.044948,4.33192 -7.044948,5.07282 0,0.19216 0.07934,0.27009 0.1762,0.17318 0.09695,-0.0969 0.55441,-0.062 1.016658,0.0774 1.242916,0.375 1.662365,0.3547 3.413214,-0.16525 z m 81.257779,0.1682 c 0.10344,-0.16743 -1.24525,-1.37116 -2.99717,-2.67498 -3.36826,-2.50674 -4.41357,-2.83126 -4.6114,-1.43162 -0.30241,2.13964 2.81574,4.26604 6.42223,4.37958 0.549,0.0172 1.08287,-0.10558 1.18634,-0.27298 z m 1.72199,-1.65072 c -0.002,-0.38711 -0.20818,-1.47809 -0.45807,-2.42435 -0.79349,-3.00462 -2.55654,-3.80283 -5.47526,-2.47891 l -1.40115,0.63556 1.08832,0.6768 c 0.59859,0.37223 2.04215,1.49082 3.20792,2.48577 2.28444,1.94969 3.04415,2.22603 3.03824,1.10513 z m -85.161488,-2.18988 c 1.591474,-1.1782 2.893593,-2.24916 2.893593,-2.3799 0,-0.42204 -2.974605,-1.20982 -3.639477,-0.96387 -1.422688,0.52629 -3.576563,4.29028 -3.126363,5.46348 0.228258,0.59482 0.141109,0.64252 3.872247,-2.11971 z m 72.172088,0.0964 c 0.10029,-0.16217 -0.80042,-1.26781 -2.00143,-2.45697 -3.014,-2.98424 -5.33638,-4.05311 -4.25253,-1.95721 1.2814,2.47798 5.57683,5.50979 6.25396,4.41418 z m -58.83337,-1.56174 c 1.24346,-0.76966 2.86396,-2.45648 2.60688,-2.71356 -0.5671,-0.5671 -2.52982,0.32896 -4.2899,1.95847 -1.03404,0.95735 -1.88007,1.85999 -1.88007,2.00588 0,0.33973 2.29513,-0.46596 3.56309,-1.25079 z m 98.13242,0.70139 c 0.71496,-0.71497 -0.49818,-1.094 -11.91623,-3.72306 -1.97859,-0.45558 -4.4026,-1.16318 -5.38672,-1.57245 -3.33678,-1.3877 -4.41498,-0.70848 -2.19915,1.38538 2.49905,2.36147 4.17524,3.13338 8.68075,3.99761 2.64318,0.507 10.28867,0.4452 10.82135,-0.0875 z M 102.0046,165.15368 c 1.19843,-1.19842 2.17895,-2.329 2.17895,-2.51237 0,-1.74544 -5.028099,0.86028 -5.570963,2.88705 -0.679268,2.53605 0.625387,2.39195 3.392013,-0.37468 z m 64.4301,0.95044 c 0,-0.99636 -1.14492,-2.13571 -3.4454,-3.42865 -1.21968,-0.68551 -1.24689,-0.6872 -1.24689,-0.0772 0,0.77889 3.42158,4.4216 4.15319,4.4216 0.38747,0 0.5391,-0.25755 0.5391,-0.91569 z m -89.76621,-0.60553 c 2.335881,-0.7459 4.538278,-2.4446 5.189152,-4.00233 0.235682,-0.56409 0.428517,-1.16204 0.428517,-1.32881 0,-1.13498 -16.75822,3.35155 -19.381218,5.18876 -0.710663,0.49778 -0.71765,0.53519 -0.145447,0.77935 0.330586,0.14107 3.134914,0.20249 6.231825,0.1365 4.617977,-0.0984 5.998845,-0.23752 7.677171,-0.77347 z m 103.80369,-0.77748 c 0.50624,-0.60998 -0.27588,-1.18354 -3.20548,-2.35082 -3.77234,-1.50302 -5.18148,-1.13802 -2.9333,0.75979 2.08809,1.76268 5.30449,2.59629 6.13878,1.59103 z m 24.91612,0.0967 c 0.82026,-1.32719 -9.75871,-6.86984 -13.11213,-6.86984 -1.8501,0 -6.78491,0.88299 -7.29342,1.30501 -1.1391,0.94537 1.97385,2.03392 11.92415,4.16965 3.59783,0.77225 6.61263,1.4752 6.69957,1.56214 0.28585,0.28587 1.57673,0.1649 1.78183,-0.16696 z M 89.112327,164.03559 c 1.731791,-0.51428 2.720924,-1.54632 2.366716,-2.46936 -0.242693,-0.63245 -0.840801,-0.53174 -3.874943,0.65248 -2.763841,1.07872 -3.653791,1.65885 -3.091247,2.01513 0.670796,0.42485 2.812068,0.33256 4.599474,-0.19825 z m 81.840803,-0.24898 c 0.53899,-0.39413 0.52023,-0.45411 -0.33124,-1.05909 -2.17087,-1.54242 -4.95884,-2.13721 -5.34167,-1.13958 -0.65337,1.70266 3.92471,3.47699 5.67291,2.19867 z M 64.299017,163.29873 c 4.014069,-1.06708 10.308445,-2.89738 11.502462,-3.34476 0.648675,-0.24304 1.448933,-0.44189 1.778349,-0.44189 0.329427,0 0.995222,-0.15803 1.479568,-0.35118 l 0.88062,-0.35118 -0.814718,-0.35266 c -0.448085,-0.19397 -1.068277,-0.56382 -1.378185,-0.8219 -0.848959,-0.70696 -4.5606,-0.55867 -7.207274,0.28793 -3.581433,1.14561 -8.116063,3.87841 -8.916109,5.37332 -0.404622,0.75605 -0.160806,0.75626 2.675287,0.002 z m 33.332127,0.28052 c 2.140254,-0.59457 3.280156,-2.52277 1.630672,-2.75834 -1.1278,-0.16106 -5.088495,2.02327 -5.088495,2.80632 0,0.35983 2.094429,0.33077 3.457823,-0.048 z m 15.040676,-3.53219 c 3.97214,-5.61696 4.76657,-7.4755 3.40992,-7.97736 -0.33804,-0.12503 -1.90828,-0.0936 -3.48943,0.0701 -3.52065,0.36425 -6.0168,-0.17806 -8.54562,-1.8566 -4.421552,-2.93486 -5.092532,-7.97188 -1.53689,-11.53757 0.86472,-0.86716 0.96546,-0.88922 3.32872,-0.72846 5.60393,0.38118 7.37269,-1.51749 7.01105,-7.52594 -0.23597,-3.92043 -1.06753,-6.78466 -3.21013,-11.05687 C 102.3842,104.96785 91.118757,92.440031 75.039763,80.957539 68.846651,76.534852 59.039293,70.880104 52.411859,67.910687 48.93318,66.352066 47.875982,66.061026 47.875982,66.662001 c 0,0.876968 3.427756,3.752388 15.428309,12.94225 8.701022,6.663122 10.054946,7.726083 12.256244,9.622374 12.8008,11.027125 24.332135,24.691865 29.629745,35.111545 l 1.6462,3.23783 -1.08738,1.12187 c -0.60011,0.61917 -2.70138,1.9458 -4.68926,2.96058 -5.201572,2.65527 -6.141071,3.41579 -7.255215,5.87296 -1.38931,3.06407 -2.165722,6.42564 -2.186756,9.46793 -0.02175,3.13823 0.178931,3.72264 2.425145,7.06386 2.549978,3.79307 4.270336,4.99514 9.358496,6.53904 3.23556,0.98178 4.75564,1.69566 5.60103,2.63044 0.32775,0.36242 0.67968,0.65332 0.78205,0.64647 0.10239,-0.007 1.40163,-1.73127 2.88723,-3.83205 z m 68.34647,1.82447 c -0.66078,-1.00848 -3.53684,-2.66551 -4.6331,-2.66933 -2.08022,-0.007 -1.03938,1.51668 1.57673,2.30858 0.80013,0.2422 1.87068,0.66051 2.37897,0.92956 1.15023,0.60885 1.34299,0.44699 0.6774,-0.56881 z m -95.715086,0.10782 c 2.596262,-0.80012 4.490631,-1.73011 4.490631,-2.20458 0,-0.61559 -1.059658,-1.18099 -2.232593,-1.19124 -1.501003,-0.0131 -3.998305,1.6534 -4.555516,3.04004 -0.224699,0.55916 -0.282195,1.01667 -0.127773,1.01667 0.154422,0 1.24579,-0.2974 2.425251,-0.66089 z m 10.199602,-0.99672 c 0.645188,-0.35603 1.173078,-0.83257 1.173078,-1.05896 0,-0.94531 -3.482455,-0.006 -3.887077,1.04844 -0.464803,1.21126 0.531106,1.21512 2.713999,0.0106 z m 63.737034,0.39859 c 2.65104,-0.14643 3.23711,-0.29574 5.42998,-1.38347 3.04384,-1.50984 5.89137,-4.22626 7.58475,-7.23555 1.17993,-2.09686 1.21846,-2.25977 1.21502,-5.13732 -0.006,-4.90492 -1.85727,-9.29304 -5.35522,-12.69266 -1.40389,-1.36443 -2.15107,-1.79043 -5.74633,-3.27627 -1.83734,-0.75934 -3.60428,-2.19457 -3.84768,-3.12535 -0.47433,-1.81378 5.73588,-13.25338 10.5222,-19.38256 8.03825,-10.293481 17.36455,-18.752381 37.58949,-34.093364 8.53829,-6.476463 11.41792,-8.77145 11.41792,-9.0998 0,-0.725484 -1.71941,-0.06995 -7.29317,2.78059 -7.50009,3.835706 -10.85877,5.794467 -17.57601,10.250219 -20.01274,13.275073 -34.41135,30.204335 -40.17164,47.232045 -1.81765,5.37306 -1.72731,8.8274 0.27972,10.69724 0.97163,0.90521 2.50719,1.10633 5.10913,0.66913 2.62187,-0.44055 3.69071,-0.0844 5.01991,1.67252 2.83295,3.74469 0.98284,9.99994 -3.70883,12.53963 -1.08519,0.58743 -1.74958,0.67734 -5.00513,0.67734 h -3.75383 l -0.0898,0.93846 c -0.0606,0.63315 0.24474,1.46998 0.93846,2.5723 2.82417,4.48764 3.87095,5.93775 4.15642,5.758 0.17205,-0.10831 1.65011,-0.27085 3.2846,-0.36113 z m 12.51279,-0.26679 c 0,-0.82683 -0.70768,-1.31816 -2.18377,-1.51614 -1.02868,-0.13796 -1.23656,-0.0836 -1.0945,0.28668 0.19212,0.50066 2.26224,1.79813 2.88725,1.80962 0.21507,0.003 0.39102,-0.25711 0.39102,-0.58016 z m -77.626731,-2.50492 c 0.231993,-0.14703 0.367238,-0.53198 0.300555,-0.85546 -0.15065,-0.73085 -1.51484,-0.70185 -2.672702,0.0569 -0.623928,0.40881 -0.699786,0.57625 -0.358867,0.79217 0.552814,0.35012 2.182641,0.35399 2.731014,0.006 z m 79.628201,0.0156 c 0.19814,-0.32057 -1.79052,-1.30281 -2.63772,-1.30281 -0.76263,0 -0.80649,0.79584 -0.0676,1.22622 0.66464,0.38712 2.48162,0.43856 2.70532,0.0766 z m 10.59197,-0.30449 c 2.95233,-1.12126 2.65672,-1.39531 -2.89602,-2.68469 -3.13171,-0.7272 -4.80215,-0.77206 -5.19311,-0.13945 -0.28747,0.46511 0.73456,1.76885 1.83121,2.33595 2.28845,1.18339 4.06292,1.32183 6.25792,0.48819 z m -97.664894,-0.84995 c 0.706159,-0.36516 0.922924,-0.69439 0.922924,-1.40173 0,-1.62515 -1.114517,-1.5815 -7.507675,0.29402 -0.430125,0.12617 -0.782052,0.35847 -0.782052,0.51617 0,0.97735 5.730851,1.43753 7.366803,0.59155 z m 88.719924,-0.61761 c 0.0567,-0.17204 -0.17602,-0.77031 -0.51691,-1.32949 -0.94645,-1.55247 -2.48571,-1.28668 -2.07293,0.35797 0.27417,1.09241 2.30013,1.85239 2.58984,0.97152 z M 74.152852,156.1802 c 0.774225,-0.35078 2.077037,-1.32828 2.895125,-2.17222 l 1.48743,-1.53443 -2.113073,-0.10155 c -2.199193,-0.10569 -18.825,0.83971 -19.245075,1.09434 -0.501111,0.30374 0.170737,0.70038 2.820711,1.66521 3.896732,1.41877 6.362636,1.86516 9.7754,1.76964 2.184793,-0.0612 3.344569,-0.2521 4.379482,-0.72099 z M 203.65769,155.772 c 1.46102,-0.52377 2.7209,-0.95231 2.79973,-0.95231 0.0788,0 -0.0261,-0.16949 -0.2333,-0.37664 -0.25126,-0.25127 -2.48507,-0.45736 -6.71,-0.61907 -3.48333,-0.13333 -7.13625,-0.33265 -8.11759,-0.44293 -4.80389,-0.53988 -4.32402,1.38474 0.69881,2.80266 2.48542,0.70164 3.28952,0.78618 6.24698,0.65686 1.95304,-0.0854 3.36422,-0.36911 5.31537,-1.06857 z m -110.950109,0.0268 c 0.527229,-0.52723 0.565181,-0.71293 0.228613,-1.11848 -0.546311,-0.65827 -1.528339,-0.60976 -2.751333,0.13591 -0.985102,0.60063 -1.265711,1.21095 -0.782051,1.70095 0.415003,0.42042 2.652301,-0.0659 3.304771,-0.71838 z m 94.060399,-1.12751 c 0,-0.58384 -1.35049,-1.28656 -3.597,-1.8717 -1.42081,-0.37008 -1.97037,-0.38462 -2.90938,-0.077 -1.72852,0.56629 -1.49361,1.24864 0.57024,1.65638 0.95037,0.18775 1.93576,0.42298 2.18974,0.52273 0.25398,0.0998 1.20084,0.19249 2.1041,0.20608 1.24974,0.0188 1.6423,-0.0856 1.6423,-0.43651 z M 84.866931,154.19365 c 1.085669,-0.52104 1.087928,-1.02639 0.0083,-1.87555 -0.662638,-0.52123 -1.093662,-0.62469 -1.940575,-0.46582 -1.483776,0.27836 -3.148896,1.17031 -4.089613,2.19068 l -0.782041,0.84826 2.971787,-0.14235 c 1.634487,-0.0783 3.358898,-0.32814 3.832036,-0.55522 z m 92.448209,-1.8282 c 0.14941,-0.44821 -2.93349,-0.506 -3.20904,-0.0602 -0.24979,0.40418 1.71193,0.9081 2.47913,0.63683 0.33525,-0.11854 0.6637,-0.37803 0.72991,-0.57668 z m -86.770561,0.38962 c 0.586698,-0.22513 0.189052,-1.18893 -0.618384,-1.49876 -0.602293,-0.23112 -2.947738,0.41146 -2.947738,0.80759 0,0.62922 2.476646,1.10924 3.566122,0.69117 z m 118.100771,-0.0875 c 0.68412,-0.19106 0.57219,-0.29617 -1.09486,-1.02826 -1.0213,-0.44849 -3.66931,-1.41199 -5.88446,-2.14109 -3.333,-1.09704 -4.29206,-1.29434 -5.56126,-1.14402 -1.68484,0.19954 -4.82555,1.72884 -5.90056,2.87315 l -0.68487,0.729 1.3615,0.19383 c 3.73513,0.53174 16.393,0.90041 17.76451,0.51739 z M 71.470271,151.55095 c 2.051629,-0.25805 3.844166,-0.58311 3.983407,-0.72235 0.139252,-0.13926 -0.935905,-0.8674 -2.389239,-1.61809 -2.581541,-1.33347 -2.694935,-1.36086 -4.921866,-1.189 -1.984912,0.15316 -6.978667,1.56667 -10.725589,3.0359 -0.917355,0.35972 -0.92439,0.37877 -0.312828,0.847 0.526188,0.40288 1.421328,0.45016 5.630758,0.29738 2.752827,-0.0999 6.683727,-0.39279 8.735357,-0.65084 z m 116.680679,-0.78506 c 0.7018,-0.3271 1.62793,-0.88508 2.05805,-1.23996 0.66735,-0.55058 0.71323,-0.69311 0.31282,-0.97168 -0.25807,-0.17957 -0.96191,-0.25098 -1.56409,-0.15871 -0.60218,0.0922 -2.75181,0.25993 -4.77694,0.37258 -5.22206,0.29048 -5.99066,1.05394 -2.36164,2.34583 1.96953,0.70112 4.36306,0.56955 6.3318,-0.34806 z m -10.0011,-0.30047 c 0.27718,-0.44849 -0.72977,-1.2765 -1.5524,-1.2765 -0.99259,0 -1.32368,0.62028 -0.60974,1.14232 0.66051,0.48299 1.89907,0.55985 2.16214,0.13418 z m -93.296881,-0.59654 c 0.332169,-0.33756 0.282939,-0.51135 -0.273811,-0.96664 -1.112178,-0.90948 -9.487847,-1.21033 -9.487847,-0.34077 0,1.39828 8.545899,2.54286 9.761658,1.30741 z m 5.148326,-0.1575 c 0.366198,-0.3662 -0.205072,-1.1481 -0.838814,-1.1481 -0.786816,0 -2.49684,0.84462 -2.49684,1.23325 0,0.15329 0.172333,0.33615 0.382951,0.40637 0.446606,0.14886 2.68491,-0.22373 2.952703,-0.49152 z m 88.076795,-2.2616 c 0.78749,-0.26831 1.69237,-0.77821 2.01085,-1.13308 0.5783,-0.64439 0.57723,-0.64493 -0.82864,-0.41328 -2.27521,0.37492 -3.58142,0.90061 -3.69429,1.48679 -0.13344,0.69305 0.60177,0.71048 2.51208,0.0596 z m 12.57978,-0.13003 c 1.11134,-0.42254 1.00516,-0.83006 -0.40349,-1.54869 -1.6093,-0.82101 -3.97947,-1.10566 -5.59164,-0.67156 -1.42142,0.38276 -3.3212,1.78385 -3.03867,2.24102 0.2363,0.38233 8.02064,0.36442 9.0338,-0.0208 z M 84.15829,147.07738 c -0.01987,-0.97101 -2.224412,-2.47965 -4.23284,-2.8966 -1.477002,-0.30662 -1.824364,-0.26703 -3.320071,0.37836 -2.577438,1.11217 -2.982332,1.4014 -2.559715,1.82851 0.199112,0.20123 0.832583,0.47712 1.407683,0.6131 1.351275,0.31947 8.711221,0.38427 8.704943,0.0766 z m 5.890322,-0.46831 c 0.123704,-0.6528 -0.678009,-1.00437 -3.021315,-1.32492 -1.523159,-0.20836 -1.662033,-0.17708 -1.56318,0.35215 0.258276,1.38272 4.342582,2.24934 4.584495,0.97277 z m 108.031568,-0.0546 c 4.07188,-0.78863 12.8895,-4.33287 14.80826,-5.95218 0.59534,-0.50242 0.51727,-0.52039 -1.61188,-0.37098 -1.23063,0.0863 -4.60909,0.74409 -7.50767,1.46161 -2.8986,0.71752 -6.60746,1.53684 -8.24195,1.82071 -2.69437,0.46795 -2.98143,0.58412 -3.07513,1.24452 -0.12109,0.85348 0.66746,1.83773 1.62191,2.02441 1.24628,0.24379 1.70488,0.21768 4.00646,-0.22809 z m -125.380459,-1.41075 0.983895,-0.99573 -0.708973,-0.58388 c -0.90753,-0.74742 -3.537499,-1.33115 -10.552546,-2.3422 -3.096909,-0.44635 -6.193831,-1.00758 -6.882031,-1.24717 -3.006098,-1.04659 -4.302349,-0.85164 -2.917294,0.43873 1.541024,1.43568 9.678541,4.84429 13.487751,5.64969 0.724189,0.15313 2.281635,0.23292 3.461003,0.17734 1.930951,-0.091 2.242183,-0.20013 3.128195,-1.09678 z M 180.35125,144.924 c 0.92941,-0.35665 0.4716,-0.98228 -0.85633,-1.17021 -1.22551,-0.17344 -3.49422,0.14426 -3.89547,0.54551 -0.0937,0.0937 -0.0796,0.40664 0.0313,0.69552 0.17196,0.44815 0.49853,0.49483 2.22445,0.31799 1.11259,-0.11397 2.23581,-0.28895 2.49606,-0.38881 z m -90.929098,-0.90341 c -0.09541,-0.0954 -0.972534,-0.40085 -1.94904,-0.67865 -1.376316,-0.39152 -1.85948,-0.42107 -2.14911,-0.13144 -0.517853,0.51785 0.235149,0.96081 1.654455,0.97323 0.602186,0.005 1.304845,0.14233 1.56149,0.30458 0.467226,0.2954 1.237135,-0.1128 0.882205,-0.46772 z M 186.526,143.7441 c 2.96488,-0.75211 5.062,-1.63789 6.45691,-2.72724 0.65965,-0.51514 0.68169,-0.60097 0.20159,-0.7852 -0.29646,-0.11373 -1.47433,0.005 -2.61751,0.26395 -2.33219,0.52825 -8.8892,2.2273 -9.09211,2.35594 -0.23348,0.14802 1.32273,1.64504 1.7101,1.64504 0.20601,0 1.70947,-0.33863 3.34102,-0.75249 z M 82.207961,143.36097 c 0.796156,-0.21337 0.932123,-1.10087 0.254764,-1.66303 -0.246984,-0.20498 -1.619482,-0.58654 -3.049984,-0.8479 -1.430514,-0.26139 -3.352491,-0.74437 -4.271063,-1.07331 -1.818655,-0.65126 -2.865745,-0.76327 -2.865745,-0.30656 0,0.70359 4.07227,2.91098 6.651966,3.60571 1.885384,0.50777 2.311063,0.54477 3.280062,0.28509 z M 177.4944,142.5024 c 1.16089,-0.48506 3.33001,-2.28575 3.33001,-2.76443 0,-0.59925 -3.93843,0.85964 -5.44393,2.01656 -1.29065,0.99181 0.23677,1.53219 2.11392,0.74787 z m -87.704431,-0.11729 c -0.01064,-0.62157 -4.535203,-2.83825 -4.949036,-2.42443 -0.3048,0.30481 1.640563,2.04872 2.595007,2.3263 1.212744,0.35267 2.359019,0.40046 2.354029,0.0982 z m 110.828201,-1.17478 c 5.18553,-0.94681 10.84349,-2.25403 11.4856,-2.65364 0.77052,-0.47952 0.0239,-0.81839 -2.65634,-1.20556 -1.72662,-0.24943 -3.29178,-0.27013 -5.04794,-0.0669 -5.95848,0.69002 -9.81101,2.38632 -9.81101,4.31987 0,0.65581 0.11044,0.72931 0.86025,0.57264 0.47315,-0.0988 2.7994,-0.53381 5.16944,-0.96654 z m -130.401161,-0.0317 c 0.786473,-0.3018 0.5764,-0.82788 -0.780598,-1.95485 -2.053969,-1.70581 -4.273858,-2.07834 -12.384737,-2.07834 -4.030085,0 -5.210019,0.15969 -4.729599,0.64012 0.270347,0.27034 8.531036,2.29882 11.976942,2.94103 3.33949,0.62238 5.119743,0.75836 5.917992,0.45204 z m 117.077101,-0.88639 c 6.09984,-1.23967 7.08079,-1.89532 5.02643,-3.35964 -2.46595,-1.75768 -8.3547,-0.0755 -9.9102,2.831 -0.48648,0.90901 -0.20402,1.70431 0.52406,1.47556 0.30194,-0.0948 2.26382,-0.52097 4.35971,-0.94692 z m -104.383478,0.0596 c -0.0023,-0.86678 -1.302635,-2.43974 -2.567317,-3.10629 -1.023421,-0.53939 -1.861289,-0.70708 -3.531505,-0.70677 -2.738066,6.3e-4 -4.616203,0.36275 -4.454664,0.85922 0.202045,0.62096 1.69839,1.18791 5.991563,2.27012 4.825437,1.2164 4.563401,1.17712 4.561923,0.68372 z m 7.508847,-0.19865 c 0,-0.40406 -0.578848,-0.88591 -1.839109,-1.53093 -2.910862,-1.48982 -4.790287,-1.66967 -3.244215,-0.31047 0.900934,0.79203 3.892725,2.27284 4.848706,2.3999 0.129037,0.0171 0.234618,-0.23418 0.234618,-0.5585 z M 178.974,138.85238 c 0.68578,-0.34986 1.16605,-0.76686 1.06729,-0.92668 -0.37343,-0.60421 -3.86068,0.59605 -5.23128,1.80051 -1.4935,1.31244 0.83731,0.82332 4.16399,-0.87383 z m -87.928878,-0.59149 c 0,-0.40431 -4.721784,-3.77446 -5.288241,-3.77446 -0.648923,0 1.005331,1.69279 2.937913,3.00638 1.55928,1.05983 2.350328,1.31835 2.350328,0.76808 z m 86.437538,-1.30971 c 0.83608,-0.42869 2.7161,-2.17942 2.7161,-2.52931 0,-0.14006 -0.73902,0.21806 -1.6423,0.79583 -0.90326,0.57775 -2.02941,1.28629 -2.50254,1.5745 -1.10494,0.67306 -1.14384,1.22759 -0.0571,0.81442 0.44171,-0.16793 1.11035,-0.46288 1.48589,-0.65544 z m 21.23204,-0.15615 c 3.03059,-1.08629 8.06077,-3.60754 10.54024,-5.28304 2.45478,-1.65883 6.29247,-4.82999 6.29247,-5.19961 0,-0.89524 -5.2992,0.67475 -12.01446,3.55952 -2.42472,1.04161 -5.95703,2.49509 -7.84959,3.22995 -2.43941,0.94719 -3.44103,1.48558 -3.44103,1.84962 0,0.42208 3.11392,2.48252 3.96982,2.62676 0.11878,0.02 1.24493,-0.33243 2.50255,-0.7832 z m -22.58259,-1.23174 c 1.76991,-1.28245 2.98884,-2.57178 2.70229,-2.85833 -0.73045,-0.73044 -5.66347,1.86449 -6.49378,3.41593 -0.81876,1.52985 1.35098,1.21077 3.79149,-0.5576 z m -92.732663,0.9745 c 0.600189,-0.44595 0.599975,-0.45847 -0.01844,-1.08059 -0.73853,-0.74298 -10.881755,-5.9759 -11.583385,-5.9759 -1.885397,0 5.372645,5.73962 8.924426,7.05739 1.451784,0.53864 1.9515,0.53847 2.677379,-9.4e-4 z M 185.77617,136.1668 c 2.85735,-1.12572 6.81561,-3.4988 7.9085,-4.74132 1.12932,-1.28392 1.23609,-2.3989 0.19996,-2.08807 -1.77466,0.53238 -11.13342,5.74269 -11.83632,6.58964 -0.18661,0.22485 -0.2485,0.55575 -0.1375,0.73534 0.335,0.54206 1.66416,0.37164 3.86536,-0.49559 z m -112.993415,0.0445 c 0.626044,-0.26158 1.056501,-0.63769 0.984592,-0.86026 -0.199385,-0.61703 -6.566568,-3.72378 -10.719605,-5.23043 -2.064612,-0.749 -5.741705,-2.11427 -8.17132,-3.03394 -6.060161,-2.2939 -6.535118,-2.24316 -3.794036,0.40531 3.237156,3.12779 9.117274,6.65972 13.802997,8.29089 2.91588,1.01505 6.082275,1.18682 7.897372,0.42843 z m 19.513643,-0.0975 c 0,-0.7508 -4.860115,-4.44297 -5.848409,-4.44297 -0.723516,0 -0.436686,0.68106 0.765086,1.81668 2.153627,2.03507 5.083323,3.54869 5.083323,2.62629 z m 80.895202,-2.21331 c 2.52955,-1.86306 5.47937,-5.11301 5.03979,-5.55259 -0.0964,-0.0964 -0.44485,-0.0897 -0.77441,0.015 -0.79261,0.25157 -6.33582,5.54319 -6.33254,6.04514 0.005,0.63747 0.76676,0.45023 2.06716,-0.50753 z m -79.956743,-0.039 c 0,-0.74021 -6.334574,-6.5962 -6.719216,-6.21157 -0.329829,0.32984 3.207244,4.48002 4.64121,5.44571 1.681955,1.1327 2.078006,1.27866 2.078006,0.76586 z m -9.69741,-0.37122 c 0,-0.6235 -3.011572,-3.31436 -4.600385,-4.11052 -0.824781,-0.41328 -2.273833,-0.92377 -3.220119,-1.1344 -0.946274,-0.21062 -1.966846,-0.45054 -2.267945,-0.53314 -0.320961,-0.0881 -0.546298,0.0204 -0.544691,0.26193 0.0036,0.50542 2.580856,2.15931 6.679349,4.28591 3.150351,1.63462 3.953791,1.88461 3.953791,1.23022 z m 104.379133,-2.29056 c 5.21114,-2.63793 6.25027,-3.32516 5.89555,-3.8991 -0.54707,-0.8852 -3.74722,0.25192 -7.66978,2.72531 -1.79575,1.13233 -3.75384,2.83826 -3.75384,3.2704 0,0.56174 1.10273,0.14351 5.52807,-2.09661 z m -15.74496,0.27506 c 0.54379,-0.45665 2.01826,-1.79094 3.2766,-2.9651 2.1763,-2.03068 2.25012,-2.14429 1.51369,-2.32912 -2.16415,-0.54317 -8.02466,4.25778 -8.02466,6.57384 0,0.43973 0.11303,0.44172 1.12285,0.0199 0.61755,-0.25804 1.56774,-0.84278 2.11152,-1.29942 z m -76.12138,1.119 c 0,-1.15064 -3.235234,-4.70507 -5.179674,-5.69071 -1.467012,-0.74364 -3.266466,-0.98432 -3.266466,-0.43689 0,0.57205 2.622852,2.94941 5.445205,4.93553 2.12269,1.49377 3.000935,1.84263 3.000935,1.19207 z m -24.915841,-0.68831 c -2.531044,-4.12383 -3.872341,-5.11817 -10.485496,-7.77325 -3.108935,-1.24818 -3.371183,-1.29907 -6.891574,-1.33714 -2.618275,-0.0284 -3.774717,0.0754 -4.064041,0.36446 -0.330632,0.33036 -0.321494,0.45529 0.05013,0.68496 0.582029,0.3597 21.007357,8.36341 21.534325,8.43827 0.0532,0.007 -0.01183,-0.16224 -0.143331,-0.3773 z m 97.348371,-1.22798 c 2.02507,-1.77805 5.14678,-6.94498 5.14678,-8.51878 0,-1.93224 -1.47564,-0.8928 -3.86596,2.72317 -1.96937,2.97919 -3.69859,6.31501 -3.41868,6.59493 0.40221,0.4022 1.04174,0.16309 2.13786,-0.79932 z m 16.71427,-1.03581 c 4.0991,-2.49006 8.63109,-6.21699 9.88262,-8.12706 1.63192,-2.49064 -2.22728,-0.45439 -10.65782,5.62341 -4.16152,3.00016 -4.68869,3.50257 -4.24111,4.04187 0.51008,0.6146 2.45334,0.0187 5.01631,-1.53822 z m 12.76465,1.28762 c 0.81152,-0.40784 4.15012,-1.69362 7.41907,-2.85727 6.27921,-2.23519 10.47947,-4.05597 10.47947,-4.54277 0,-0.99432 -6.92789,-0.75278 -10.16712,0.35448 -2.75225,0.94078 -8.2226,3.95356 -8.81208,4.85322 -0.48583,0.74149 -0.93611,2.93389 -0.60257,2.93389 0.11421,0 0.87171,-0.33369 1.68323,-0.74155 z m -99.584351,-0.27511 c -0.359698,-1.1633 -1.3081,-2.81687 -2.395708,-4.17698 -4.062072,-5.07987 -4.404551,-5.42425 -4.783979,-4.81031 -0.50772,0.82151 2.978649,6.67487 5.259836,8.83089 1.154326,1.09099 2.236056,1.17912 1.919851,0.1564 z m -13.588617,0.0628 c 0.385859,-0.26206 0.135741,-0.6279 -1.407696,-2.05895 -2.143707,-1.98764 -11.620427,-8.46321 -11.931009,-8.15264 -0.909457,0.90946 7.100961,8.19167 10.915464,9.92317 1.529673,0.69435 1.781483,0.72432 2.423241,0.28842 z m 80.658288,-1.59568 c 0.55441,-0.54203 1.7945,-2.26645 2.75577,-3.83204 0.96128,-1.56558 2.08342,-3.29538 2.49366,-3.84396 1.28993,-1.72498 -0.28704,-1.80772 -2.59459,-0.13613 -2.02166,1.46448 -5.90607,7.89548 -5.19716,8.60437 0.47103,0.47105 1.61474,0.11469 2.54232,-0.79224 z m -64.07883,-0.25403 c 0,-0.33765 -0.30319,-1.42425 -0.67375,-2.41465 -0.843779,-2.25522 -3.172437,-4.66078 -5.641481,-5.82782 -2.098051,-0.99168 -2.443735,-1.03081 -2.443735,-0.27665 0,1.01076 1.899954,3.6018 4.689949,6.39585 2.757157,2.76118 4.069017,3.44572 4.069017,2.12327 z m 60.35049,-0.71558 c 0.24178,-0.38712 1.2108,-2.04116 2.1534,-3.67563 3.36226,-5.83023 7.53959,-10.87118 16.35445,-19.73555 2.75844,-2.77394 4.95382,-5.105045 4.87862,-5.18024 -0.2238,-0.2238 -5.68078,1.92445 -7.30931,2.87745 -0.82902,0.48515 -2.64569,2.01962 -4.03704,3.40993 -4.34895,4.34571 -13.89331,19.5122 -13.89331,22.07721 0,0.75775 0.13133,0.93067 0.70681,0.93067 0.39417,0 0.90122,-0.3113 1.14638,-0.70384 z m -56.79348,-0.39851 c 0.0876,-0.22829 0.0106,-0.95346 -0.17045,-1.61148 -1.92198,-6.97372 -15.748572,-23.36048 -21.999346,-26.07281 -1.753922,-0.761056 -2.746697,-0.950869 -3.272754,-0.62575 -0.751454,0.46442 0.09647,1.59853 3.679352,4.92095 6.19226,5.74217 14.796676,15.64687 18.151038,20.89402 0.7699,1.20435 1.59797,2.42081 1.84013,2.70324 0.48489,0.56549 1.52189,0.44368 1.77203,-0.20817 z m 79.96588,-2.30108 c 1.11833,-0.78227 2.31486,-1.68631 2.65897,-2.00896 0.34409,-0.32267 1.32948,-0.94504 2.18974,-1.38306 2.33128,-1.18702 4.22306,-2.56111 4.22306,-3.06744 0,-0.67831 -1.36928,-0.88212 -3.11421,-0.46352 -3.89345,0.93404 -9.41885,5.75092 -10.20397,8.89552 l -0.2285,0.91526 1.22079,-0.73274 c 0.67143,-0.40302 2.13579,-1.37278 3.25412,-2.15506 z m -100.150315,1.6973 c 0.136924,-0.70633 -3.766795,-4.56098 -6.315621,-6.23625 -1.005226,-0.66072 -2.553686,-1.39461 -3.441011,-1.63087 -2.011702,-0.53563 -2.082559,-0.53547 -2.082559,0.004 0,0.47057 2.798874,2.64549 7.279739,5.65686 1.509113,1.01422 2.976917,2.10155 3.261771,2.41632 0.605179,0.66872 1.144182,0.58123 1.297681,-0.21061 z m -12.152006,-0.92652 c 0,-1.0275 -2.944983,-2.87762 -12.632077,-7.93586 -11.598508,-6.05631 -12.379011,-6.4425 -12.591307,-6.23021 -0.306726,0.30672 3.40158,4.33469 5.753067,6.24899 1.159847,0.94422 3.103035,2.35664 4.318202,3.13874 4.933407,3.17521 15.152115,6.39776 15.152115,4.77834 z M 200.6454,124.92314 c 7.75301,-3.49559 9.71717,-4.75798 14.16792,-9.10592 2.2249,-2.1735 2.38591,-2.40988 1.72061,-2.526 -1.05083,-0.18339 -7.10441,2.89518 -14.907,7.58106 -7.02467,4.21867 -7.75664,4.73773 -7.01578,4.97518 0.24561,0.0787 0.65772,0.21354 0.91579,0.29962 1.10594,0.36885 2.12762,0.12455 5.11846,-1.22394 z M 89.481019,124.53409 c 0,-1.03552 -3.589615,-4.84283 -9.492575,-10.06827 -6.954212,-6.15605 -8.283462,-6.89305 -7.456979,-4.13449 0.603547,2.01444 4.104157,6.94752 6.920848,9.75291 2.819824,2.80852 5.054333,4.246 7.28293,4.68521 2.221481,0.43778 2.745776,0.39285 2.745776,-0.23536 z m 89.851161,0.0436 c 2.87557,-1.12789 7.495,-5.11302 10.52959,-9.08378 1.30829,-1.71189 3.16262,-5.27781 3.16262,-6.08181 0,-0.59435 -0.0844,-0.58001 -1.54282,0.26201 -2.7589,1.59284 -6.39831,4.69448 -11.40034,9.71577 -4.37781,4.39468 -4.84793,4.96711 -4.3677,5.31825 0.73806,0.53969 2.02879,0.49316 3.61865,-0.13044 z m -109.893463,-3.8369 c -1.533351,-3.56437 -6.516041,-6.33411 -16.084165,-8.94077 -1.645813,-0.44836 -3.340609,-0.77103 -3.766217,-0.71702 -0.620938,0.0787 -0.236238,0.37629 1.947325,1.50588 3.680169,1.90382 12.128207,6.46789 15.563098,8.40802 1.539854,0.86976 2.851758,1.52934 2.915343,1.46575 0.06361,-0.0636 -0.19533,-0.83842 -0.575384,-1.72186 z m 20.310651,0.22593 C 88.852066,116.7595 81.06553,108.766 76.561692,107.42851 c -1.54223,-0.45799 -2.096025,-0.40596 -2.096025,0.19694 0,0.54569 3.41844,3.95156 7.976901,7.94756 2.408722,2.11151 5.074845,4.55293 5.924726,5.42539 0.84988,0.87247 1.578977,1.55257 1.620204,1.51133 0.04126,-0.0412 -0.06585,-0.73559 -0.23813,-1.54301 z m 107.513722,1.04037 c 0.16345,-0.15356 4.59062,-2.63074 9.83819,-5.50484 5.24755,-2.8741 9.68176,-5.35988 9.85383,-5.52398 0.89767,-0.85611 -7.02626,1.10665 -11.18104,2.76956 -2.69888,1.08021 -5.95619,2.96184 -7.3571,4.24995 -0.56252,0.51721 -2.26439,3.65122 -2.26439,4.1699 0,0.23224 0.81837,0.11387 1.11051,-0.16059 z m -14.40536,-6.76298 c 5.80266,-5.4027 7.952,-7.66034 7.29288,-7.66034 -1.02582,0 -4.58649,1.20282 -5.72877,1.93523 -2.15808,1.38373 -7.87678,7.045 -8.57647,8.49036 -0.63423,1.31015 -0.86921,3.32952 -0.43768,3.76107 0.11776,0.11776 0.64562,-0.18848 1.17308,-0.68044 0.52747,-0.49197 3.3521,-3.12262 6.27696,-5.84588 z m -9.01823,1.99568 c 2.09724,-1.35934 6.31261,-5.57058 8.56951,-8.56115 2.86122,-3.79135 5.09097,-7.97691 4.24948,-7.97691 -0.67489,0 -6.72097,5.65507 -10.68279,9.99191 -3.9317,4.30388 -6.23024,7.37497 -5.90891,7.89492 0.30514,0.4937 1.69868,-0.004 3.77271,-1.34877 z m -80.442453,0.9705 c 0.424107,-0.68624 -1.658641,-3.35078 -7.024714,-8.98697 -6.650748,-6.98553 -8.394504,-8.69702 -8.625599,-8.46592 -0.09518,0.0951 0.172535,1.12517 0.59494,2.28887 1.208783,3.33018 2.017437,4.37712 10.009079,12.95848 1.033293,1.10954 2.014765,1.83191 2.840443,2.09059 1.588744,0.49776 1.957388,0.51696 2.205851,0.11493 z m -18.942552,-0.72962 c -2.473974,-2.30164 -14.293981,-11.64726 -22.538828,-17.820583 -5.721996,-4.284353 -6.581169,-4.630971 -4.770294,-1.924555 1.407293,2.103257 3.228051,4.233168 6.5053,7.609828 7.619121,7.85024 14.888388,12.47558 19.708954,12.54053 1.325667,0.0179 1.485894,-0.0414 1.094868,-0.40522 z m 124.075375,-1.29589 c 2.61223,-1.27805 6.31595,-4.16425 10.33558,-8.05422 3.45974,-3.34812 9.33897,-10.030544 10.13722,-11.522089 0.83087,-1.552505 -6.5191,3.185682 -12.71991,8.199929 -1.56853,1.26837 -5.2711,4.2769 -8.22799,6.68562 l -5.37612,4.37946 0.85502,0.73746 c 1.06375,0.91749 2.50034,0.79495 4.9962,-0.42616 z M 71.520128,112.19786 c -0.111728,-0.38711 -0.540588,-1.97006 -0.953037,-3.51767 -0.859682,-3.22576 -0.369721,-2.69957 -7.159857,-7.68922 -5.61606,-4.126896 -9.05765,-5.918192 -13.170874,-6.855221 -4.804877,-1.094583 -4.575592,-0.543638 1.722579,4.139268 4.443895,3.304183 7.549802,5.738543 14.060594,11.020433 4.241777,3.44115 5.910137,4.32147 5.500595,2.90241 z M 204.2859,104.91497 c 5.4196,-4.15344 11.04687,-8.382948 12.50504,-9.398908 1.55934,-1.086437 2.45056,-1.885846 2.16398,-1.941035 -0.92914,-0.178932 -7.64298,1.846308 -10.13313,3.056664 -3.65256,1.775341 -11.39525,7.114219 -12.72273,8.772769 -1.00199,1.25192 -2.05656,4.01345 -2.3499,6.15354 -0.16306,1.18962 -0.12066,1.39492 0.24267,1.17507 0.24213,-0.14651 4.87446,-3.66467 10.29407,-7.8181 z m -14.75387,1.54644 c 3.70702,-0.88328 4.24088,-1.11269 6.46414,-2.77797 1.20436,-0.9021 3.66781,-2.66441 5.47434,-3.916252 4.63314,-3.210539 8.21674,-6.1345 10.99983,-8.975065 2.62246,-2.676622 6.1304,-7.372581 5.63161,-7.538847 -0.99507,-0.331687 -8.08821,4.207768 -14.16823,9.06733 -4.19814,3.355446 -14.2102,11.743254 -16.06245,13.456624 -1.42341,1.31669 -1.266,1.38154 1.66076,0.68418 z M 76.1655,105.7403 c 0.385351,-0.62351 -8.73106,-8.719333 -17.353944,-15.411171 -10.649195,-8.264374 -12.812493,-9.637186 -12.812493,-8.13071 0,1.027151 1.842561,3.224855 6.996752,8.345348 9.236817,9.17642 18.034021,15.402573 21.84241,15.458843 0.635044,0.009 1.232312,-0.10866 1.327275,-0.26231 z m 115.37695,-4.83016 c 7.53052,-6.359163 14.7467,-11.897242 26.02171,-19.970446 l 1.2347,-0.884079 h -0.94331 c -2.2759,0 -7.86874,2.291447 -12.96792,5.313089 -7.78785,4.614884 -14.23616,10.473842 -16.57669,15.061636 -0.60853,1.19284 -1.14939,3.71241 -0.79692,3.71241 0.11019,0 1.923,-1.45468 4.02843,-3.23261 z m -114.713709,1.74672 c -0.769295,-3.192389 -2.678857,-5.739026 -6.742555,-8.991978 -1.118325,-0.895222 -3.792937,-3.14287 -5.943577,-4.994783 -4.765258,-4.103366 -8.703064,-6.744171 -11.858214,-7.952469 -2.433327,-0.931871 -5.901661,-1.775605 -6.17507,-1.502198 -0.148995,0.148994 9.816706,7.83558 15.131371,11.670886 1.459765,1.053442 4.903487,3.939204 7.652703,6.412811 4.787959,4.307951 7.197142,6.217981 7.842991,6.217981 0.16861,0 0.208998,-0.37621 0.09234,-0.86025 z M 183.27302,98.657471 c 3.16579,-1.486268 6.32194,-3.603858 13.97444,-9.375987 9.30593,-7.019275 10.79439,-8.257858 15.01641,-12.495507 3.32401,-3.33631 6.9476,-7.830014 7.52297,-9.329427 0.1785,-0.465147 -9.86366,6.872965 -22.06721,16.125182 -7.65297,5.802163 -18.45933,15.31494 -18.45933,16.249645 0,0.461373 1.40516,0.05035 4.01272,-1.173906 z M 82.911803,98.1721 c 0,-1.064694 -8.519581,-8.610586 -17.987143,-15.931427 -7.276404,-5.62651 -10.758381,-8.461234 -15.282565,-12.441715 -3.747997,-3.29757 -4.538775,-3.791977 -4.802005,-3.002287 -0.192314,0.576924 1.726493,3.077131 5.614229,7.315368 3.770461,4.11039 11.619269,11.738822 12.687487,12.33126 0.292361,0.162145 2.291194,1.7279 4.44183,3.479447 5.994341,4.881991 9.730349,7.295454 12.825604,8.285359 1.160001,0.370985 2.502563,0.351663 2.502563,-0.03606 z"
       id="path856" /></g></svg>
