<?xml version="1.0" encoding="UTF-8" standalone="no"?>
<!-- Created with Inkscape (http://www.inkscape.org/) -->

<svg
   width="1000"
   height="1000"
   viewBox="0 0 264.58333 264.58333"
   version="1.1"
   id="svg5"
   inkscape:version="1.2.2 (b0a8486541, 2022-12-01)"
   sodipodi:docname="syndicalism.svg"
   xml:space="preserve"
   xmlns:inkscape="http://www.inkscape.org/namespaces/inkscape"
   xmlns:sodipodi="http://sodipodi.sourceforge.net/DTD/sodipodi-0.dtd"
   xmlns="http://www.w3.org/2000/svg"
   xmlns:svg="http://www.w3.org/2000/svg"><sodipodi:namedview
     id="namedview7"
     pagecolor="#ffffff"
     bordercolor="#000000"
     borderopacity="0.25"
     inkscape:showpageshadow="2"
     inkscape:pageopacity="0.0"
     inkscape:pagecheckerboard="0"
     inkscape:deskcolor="#d1d1d1"
     inkscape:document-units="px"
     showgrid="false"
     inkscape:zoom="0.52787981"
     inkscape:cx="77.669195"
     inkscape:cy="490.64199"
     inkscape:window-width="1920"
     inkscape:window-height="1004"
     inkscape:window-x="0"
     inkscape:window-y="0"
     inkscape:window-maximized="1"
     inkscape:current-layer="layer1" /><defs
     id="defs2" /><g
     inkscape:label="Layer 1"
     inkscape:groupmode="layer"
     id="layer1"><circle
       style="fill:#000000;fill-opacity:1;stroke:#eecc0e;stroke-width:0;stroke-dasharray:none;stroke-opacity:1;paint-order:stroke markers fill"
       id="path236"
       cx="132.29167"
       cy="132.29167"
       r="125.37917" /><circle
       style="fill:#427328;fill-opacity:0;stroke:#df0d0d;stroke-width:5.29167;stroke-dasharray:none;stroke-opacity:1;paint-order:normal"
       id="path236-3"
       cx="132.29167"
       cy="132.29167"
       r="125.37917" /><path
       style="fill:#df0d0d;fill-opacity:1;stroke-width:0.0955065"
       d="m 127.32976,229.9973 c -2.09443,-0.12941 -2.76044,-0.33284 -3.00487,-0.91783 -0.30209,-0.723 -1.07545,-3.81438 -1.43205,-5.72426 -0.48469,-2.59603 -0.57977,-3.28008 -0.67704,-4.87084 -0.0322,-0.52528 -0.18504,-1.69872 -0.33982,-2.60762 -0.15479,-0.90891 -0.38881,-2.30569 -0.52005,-3.10396 -0.13124,-0.79828 -0.30469,-1.81672 -0.38545,-2.26321 -0.0808,-0.44649 -0.26258,-1.49789 -0.40404,-2.33646 l -0.2572,-1.52463 -0.28613,-0.0719 c -0.15736,-0.0395 -1.03824,-0.22738 -1.95749,-0.41742 -2.96608,-0.61319 -5.66666,-1.32971 -8.28991,-2.19946 -1.6436,-0.54494 -3.19608,-0.89967 -3.93745,-0.89967 h -0.58936 l -0.83042,0.83569 c -0.82583,0.83106 -1.69772,1.81965 -1.86451,2.11409 -0.048,0.0848 -0.11359,0.17567 -0.14572,0.20194 -0.0322,0.0262 -0.20658,0.24116 -0.38772,0.47753 -0.18113,0.23638 -0.35593,0.45127 -0.38842,0.47753 -0.0326,0.0262 -0.21871,0.2584 -0.41381,0.51585 -0.38802,0.51203 -1.03048,1.31851 -1.11072,1.39429 -0.0278,0.0262 -0.391051,0.45603 -0.807196,0.95506 -0.416158,0.49903 -1.040453,1.22964 -1.387326,1.62361 -0.346874,0.39397 -0.983968,1.14608 -1.415755,1.67136 -0.431788,0.52529 -0.949313,1.14847 -1.150053,1.38486 -0.20074,0.23637 -0.572852,0.68763 -0.826913,1.00281 -0.588829,0.73046 -1.21122,1.4921 -1.33416,1.6327 -0.05248,0.0601 -0.287584,0.34046 -0.522349,0.6231 -0.585883,0.70536 -1.924005,2.0869 -2.12827,2.1973 -0.126323,0.0683 -0.407552,-0.0273 -1.146091,-0.38961 -1.021427,-0.50112 -2.672204,-1.36301 -3.652802,-1.90719 -0.315176,-0.17491 -0.787935,-0.43079 -1.050576,-0.56861 -0.262641,-0.13783 -0.499014,-0.27647 -0.525282,-0.30809 -0.02624,-0.0316 -0.327114,-0.20618 -0.668546,-0.38792 -0.341432,-0.18175 -0.74973,-0.40504 -0.907312,-0.49621 -0.541105,-0.31303 -3.3429,-1.90302 -3.772513,-2.14088 -0.236373,-0.13086 -0.666154,-0.39337 -0.955063,-0.58336 l -0.525282,-0.34542 -0.02882,-0.55252 c -0.0566,-1.08791 0.537053,-2.88547 4.107153,-12.43636 0.314161,-0.84046 0.849322,-2.30172 1.189236,-3.24722 0.339914,-0.94552 0.748096,-2.06295 0.907055,-2.48317 0.456125,-1.20578 0.522065,-1.3833 0.833615,-2.24441 0.537065,-1.48443 1.073139,-0.73693 -4.385874,-6.11562 -2.637215,-2.5984 -5.079722,-5.01438 -5.427805,-5.36885 -0.34807,-0.35446 -0.707627,-0.64457 -0.798999,-0.64467 -0.09133,0 -0.435196,0.10484 -0.764047,0.23306 -0.328864,0.12825 -1.672376,0.62807 -2.985593,1.11065 -1.313205,0.48257 -2.602547,0.9619 -2.865188,1.0652 -0.262641,0.1033 -0.713917,0.26732 -1.002826,0.36451 -0.288909,0.0973 -0.826129,0.29019 -1.193829,0.42889 -0.367699,0.1387 -0.883436,0.32767 -1.146077,0.41994 -0.262641,0.0922 -1.616444,0.58871 -3.008453,1.1032 -1.392008,0.51451 -3.71487,1.3376 -5.16191,1.82911 -2.699578,0.91695 -3.668521,1.13581 -3.959475,0.89434 -0.15407,-0.12787 -0.715796,-0.92543 -0.715796,-1.01633 0,-0.0287 -0.07976,-0.16616 -0.177302,-0.30559 -0.155974,-0.22303 -1.063029,-1.81941 -1.826317,-3.21422 -0.143715,-0.26264 -0.489636,-0.88582 -0.768704,-1.38484 -0.279068,-0.49903 -0.571811,-1.03625 -0.650537,-1.19383 -0.07873,-0.15758 -0.423401,-0.78077 -0.765926,-1.38485 -0.342538,-0.60408 -0.722665,-1.28435 -0.84473,-1.51173 -0.122077,-0.22737 -0.350501,-0.64445 -0.507619,-0.92686 -0.607032,-1.09101 -0.977163,-1.90161 -1.022444,-2.23913 -0.04348,-0.32407 -0.01454,-0.37703 0.369141,-0.6762 0.490575,-0.38252 1.5464,-1.25271 5.573655,-4.59371 0.809959,-0.67195 2.4758,-2.09015 3.291805,-2.80249 0.541554,-0.47275 1.274651,-1.09594 1.629101,-1.38485 0.84401,-0.68793 5.188821,-4.3209 5.250529,-4.39027 0.02624,-0.0295 0.316206,-0.26792 0.644324,-0.52976 0.69165,-0.55198 0.709183,-0.62987 0.39721,-1.76542 -0.406279,-1.47878 -0.464809,-1.6864 -0.646241,-2.29216 -0.423169,-1.41287 -1.089322,-3.69008 -1.131529,-3.86801 -0.02495,-0.1051 -0.148706,-0.55632 -0.275093,-1.00283 -0.243859,-0.86141 -1.223106,-5.11142 -1.393552,-6.04806 -0.07667,-0.42151 -0.150584,-0.57702 -0.304654,-0.64127 -0.111916,-0.0467 -1.922526,-0.36994 -4.023666,-0.71841 -6.828523,-1.13252 -9.73238,-1.63182 -14.134963,-2.4304 -2.74868,-0.49859 -3.79945,-0.70836 -4.106793,-0.81987 -0.455045,-0.16509 -0.642149,-0.59314 -0.830965,-1.90109 -0.178704,-1.2378 -0.172671,-10.91004 0.0077,-12.17709 0.152256,-1.07023 0.413366,-1.69435 0.765925,-1.83073 0.407501,-0.15764 3.928448,-0.85023 6.695176,-1.31699 0.288909,-0.0487 0.904688,-0.15633 1.368391,-0.2391 1.146515,-0.20463 7.517831,-1.28296 8.230012,-1.39289 0.315177,-0.0486 0.830901,-0.13438 1.146078,-0.19049 0.315176,-0.0561 0.787922,-0.13612 1.050576,-0.17778 2.525608,-0.40051 3.741871,-0.62782 3.831622,-0.71608 0.05879,-0.0577 0.246266,-0.64231 0.416647,-1.29892 0.959462,-3.69766 1.156227,-4.4442 1.434819,-5.44387 0.168337,-0.60409 0.411347,-1.50663 0.539998,-2.00564 0.128665,-0.49903 0.321545,-1.22966 0.428623,-1.62361 0.53376,-1.96373 0.650911,-2.39154 0.826682,-3.01887 0.313273,-1.11801 0.104969,-1.72649 -0.924112,-2.69958 -0.493894,-0.46702 -1.659255,-1.44766 -2.572832,-2.16501 -0.331565,-0.26035 -0.766376,-0.6023 -0.966241,-0.75989 -0.405893,-0.32002 -2.701804,-2.253774 -2.77644,-2.33847 -0.02624,-0.02984 -0.327115,-0.289449 -0.668547,-0.576981 -0.341444,-0.287533 -0.642278,-0.545517 -0.668546,-0.573303 -0.10111,-0.107027 -3.261523,-2.77617 -4.48881,-3.791101 C 47.636801,93.431528 46.927657,92.836357 46.770075,92.695357 46.612493,92.554356 46.000058,92.052885 45.409107,91.580976 44.511404,90.8641 44.334655,90.68 44.334655,90.461842 c 0,-0.24813 1.099433,-2.563608 1.764198,-3.715513 0.577766,-1.00114 1.769549,-3.162239 1.769549,-3.208768 0,-0.02547 0.193395,-0.373334 0.429781,-0.773155 0.236373,-0.399821 0.42978,-0.742076 0.42978,-0.760587 0,-0.01852 0.356213,-0.627392 0.791602,-1.353076 0.435377,-0.725686 0.854403,-1.426873 0.931188,-1.558194 0.0768,-0.131322 0.161196,-0.260256 0.187606,-0.28652 0.02637,-0.02627 0.174845,-0.241154 0.329841,-0.477533 0.15501,-0.236378 0.429627,-0.616397 0.610261,-0.844486 0.321699,-0.406206 0.337238,-0.413384 0.758426,-0.350223 1.183781,0.177518 6.571001,2.092915 19.598902,6.968278 0.919096,0.343953 1.696985,0.625363 1.728643,0.625363 0.05943,0 5.390294,-5.33367 8.113813,-8.118049 0.847778,-0.866722 1.842165,-1.881766 2.209736,-2.255655 l 0.668328,-0.679797 -0.777915,-2.137646 c -0.427851,-1.175705 -0.837834,-2.288068 -0.911055,-2.471918 -0.07319,-0.18385 -0.438014,-1.193832 -0.810653,-2.244403 -0.372653,-1.050573 -0.758066,-2.125021 -0.856487,-2.387663 -1.433919,-3.826304 -4.30231,-12.21073 -4.30231,-12.575824 0,-0.0607 1.275333,-0.880898 2.070974,-1.331881 0.174177,-0.09873 0.456371,-0.25959 0.627087,-0.357466 0.170716,-0.09788 0.78315,-0.446393 1.360968,-0.774482 0.577818,-0.328089 1.257581,-0.720766 1.510574,-0.872615 0.253006,-0.15185 0.48188,-0.27609 0.508624,-0.27609 0.02676,0 0.335476,-0.166015 0.686079,-0.368923 0.750489,-0.434345 1.329079,-0.755456 2.308814,-1.281382 0.393968,-0.21148 0.995661,-0.544786 1.337093,-0.740678 0.341432,-0.195892 1.148419,-0.620007 1.793283,-0.94248 0.889097,-0.444604 1.212275,-0.564379 1.337093,-0.495558 0.2824,0.155712 1.910473,1.906576 2.751677,2.959219 0.100467,0.125692 0.294814,0.362065 0.431942,0.525286 0.137129,0.16322 0.683842,0.833988 1.2149,1.490595 0.53107,0.656608 1.023678,1.258298 1.094673,1.337092 0.147806,0.164027 1.679696,1.976725 1.855107,2.195177 0.06393,0.0796 1.026573,1.24067 2.139233,2.580149 1.11265,1.339479 2.16346,2.607328 2.33512,2.817442 0.17167,0.210114 0.85919,1.043028 1.52784,1.85092 l 1.21573,1.468893 0.67102,-0.06236 c 0.89095,-0.0828 2.46379,-0.450815 3.95842,-0.926177 2.30131,-0.731925 4.4315,-1.331807 6.42143,-1.808335 2.50599,-0.60011 3.63067,-0.97047 4.27128,-1.406546 0.0642,-0.04371 0.182,-0.528938 0.26174,-1.078284 0.17365,-1.196297 0.27775,-1.859919 0.47126,-3.004447 0.0799,-0.472757 0.21282,-1.289338 0.29533,-1.814624 0.0824,-0.525285 0.21213,-1.298888 0.28807,-1.719116 0.0759,-0.42023 0.24448,-1.408723 0.37453,-2.196651 0.13005,-0.787929 0.30209,-1.802142 0.38231,-2.253806 0.0803,-0.451663 0.27453,-1.569089 0.43179,-2.483169 0.87803,-5.103355 1.26911,-7.119303 1.45724,-7.51182 0.1608,-0.335481 0.70445,-0.58976 1.55328,-0.726507 0.96967,-0.156212 11.26637,-0.145827 12.43245,0.01248 0.85382,0.115955 1.3523,0.272758 1.67373,0.526499 0.20036,0.158161 0.37412,0.828825 0.74762,2.88561 0.16216,0.892986 0.35889,1.967435 0.43717,2.387663 0.0782,0.42023 0.22416,1.2583 0.32416,1.862378 0.0999,0.604079 0.2511,1.485127 0.33576,1.957883 0.0846,0.472758 0.32588,1.869541 0.53606,3.103963 0.21017,1.234422 0.57631,3.383318 0.81365,4.775327 0.44405,2.604379 0.62521,3.704585 0.82196,4.991834 0.1132,0.740488 0.11398,0.741935 0.45186,0.821792 0.18615,0.04399 0.96165,0.2221 1.7233,0.395779 2.51291,0.573011 5.26397,1.286239 7.92704,2.055127 3.01012,0.869087 4.60559,1.286121 4.92041,1.286121 0.25658,0 0.38689,-0.114025 1.00604,-0.880265 0.39119,-0.484144 1.29301,-1.569337 2.00403,-2.411539 1.05001,-1.243716 3.69668,-4.403083 4.60313,-5.494798 0.10909,-0.13132 0.42075,-0.496634 0.69272,-0.811804 0.27195,-0.315172 0.74641,-0.873886 1.05432,-1.241586 0.30792,-0.367699 0.9061,-1.058037 1.32928,-1.534083 0.4232,-0.476045 0.93645,-1.056248 1.14056,-1.289338 0.57544,-0.657131 1.86741,-2.086586 2.41157,-2.668204 0.27031,-0.288908 0.60742,-0.664964 0.74913,-0.835682 0.14172,-0.170719 0.30168,-0.310397 0.35548,-0.310397 0.0538,0 0.4905,0.222726 0.97046,0.494945 0.47995,0.272221 1.15199,0.652278 1.49343,0.844573 0.34144,0.192296 1.09355,0.620536 1.67137,0.951644 0.57782,0.331109 1.26545,0.720589 1.52811,0.865511 0.26264,0.144923 1.26959,0.71883 2.23766,1.275348 0.96808,0.556519 1.77882,1.011851 1.80163,1.011851 0.0228,0 0.35179,0.193402 0.73105,0.42978 0.37926,0.236379 0.71483,0.429779 0.74573,0.429779 0.0309,0 0.39261,0.208545 0.8038,0.463433 0.4976,0.308464 0.77794,0.548629 0.83835,0.718217 0.19998,0.561527 -0.33112,2.565093 -1.76274,6.649885 -0.32218,0.919251 -0.641,1.821788 -0.70849,2.005638 -0.0675,0.18385 -0.25399,0.699585 -0.41444,1.146078 -0.38208,1.063183 -3.49273,9.567531 -3.86018,10.553472 -0.15659,0.420229 -0.35447,0.970018 -0.43971,1.221753 l -0.15497,0.457701 5.5347,5.535333 c 3.0441,3.044432 5.59204,5.535333 5.6621,5.535333 0.0701,0 0.86528,-0.317209 1.76718,-0.704912 0.9019,-0.387703 2.02661,-0.856191 2.49937,-1.04107 0.47276,-0.18488 1.46124,-0.571669 2.19665,-0.859523 0.7354,-0.287854 1.61645,-0.617283 1.95788,-0.73207 0.34143,-0.114784 0.70675,-0.247614 0.81181,-0.295173 0.3672,-0.166234 4.69846,-1.698429 6.87197,-2.430981 2.5133,-0.847071 4.36166,-1.385778 4.75474,-1.385778 0.41675,0 0.95667,0.322478 1.44002,0.860096 0.4125,0.458791 1.67906,2.392519 2.18908,3.342191 0.12697,0.236378 0.65439,1.181893 1.17208,2.101143 1.59603,2.83407 1.7673,3.148951 2.63918,4.852431 0.47681,0.931586 0.84603,1.771157 0.84603,1.923774 0,0.231575 -0.16946,0.40676 -1.16995,1.209437 -0.64348,0.516252 -1.2774,1.031397 -1.40872,1.144766 -0.59466,0.513396 -2.05492,1.732334 -2.33409,1.948356 -0.16972,0.131314 -0.5413,0.437036 -0.82575,0.679378 -0.28443,0.242329 -0.94694,0.797597 -1.47222,1.233925 -0.5253,0.436328 -1.1055,0.933799 -1.28935,1.105479 -0.27415,0.256017 -1.12741,0.975761 -2.62876,2.21743 -1.06577,0.881408 -1.91649,1.594308 -1.95555,1.638718 -0.0262,0.0298 -0.39157,0.32831 -0.81181,0.6632 -1.98293,1.5803 -3.29073,2.70828 -3.34753,2.88723 -0.13592,0.42822 0.1987,2.12072 0.77118,3.90062 0.28397,0.88291 0.50353,1.78613 1.05637,4.34555 0.22632,1.04773 0.31885,1.36337 0.71402,2.43542 0.20376,0.55276 0.52852,1.77434 0.72363,2.72193 0.1947,0.94552 0.36396,1.7329 0.37613,1.74974 0.0129,0.0168 0.76764,0.15497 1.67879,0.30696 12.88832,2.14975 20.0963,3.43358 20.81767,3.70783 0.15077,0.0574 0.32154,0.25401 0.44043,0.50728 0.38762,0.82571 0.45282,1.89594 0.45282,7.43338 0,6.05987 -0.0813,7.03765 -0.64422,7.74997 -0.12913,0.16338 -1.62548,0.56711 -2.77413,0.74848 -0.35792,0.0565 -1.32492,0.22775 -2.14889,0.38053 -0.82397,0.15278 -2.74449,0.49372 -4.26782,0.75766 -4.19764,0.72732 -5.77685,1.00327 -7.49726,1.31002 -0.44649,0.0796 -1.04819,0.18216 -1.3371,0.22788 -2.03693,0.32233 -4.37262,0.94011 -4.92651,1.30304 -0.16171,0.106 -0.21875,0.2688 -0.27027,0.77163 -0.13724,1.33957 -0.95474,4.98396 -1.60195,7.14143 -0.15758,0.52528 -0.32945,1.10549 -0.38196,1.28934 -0.0525,0.18385 -0.28824,0.95746 -0.52388,1.71911 -0.56559,1.82823 -0.89047,3.04836 -0.89077,3.3454 0,0.13277 0.075,0.30476 0.16689,0.38218 0.092,0.0774 0.38079,0.31261 0.64191,0.52264 0.55264,0.44449 0.89222,0.7248 1.04216,0.86026 0.0587,0.053 0.75135,0.63238 1.53928,1.28747 0.78793,0.65509 1.45409,1.21468 1.48035,1.24353 0.0262,0.0288 0.7354,0.62919 1.57586,1.33409 0.84046,0.70488 1.54959,1.3053 1.57586,1.33426 0.0591,0.0651 0.64042,0.56792 1.38594,1.19871 0.31042,0.26265 0.76325,0.64945 1.00627,0.85957 0.85582,0.7399 1.46666,1.24552 1.96153,1.6236 0.51335,0.39221 2.7316,2.19252 3.23302,2.62388 0.65852,0.56654 1.70019,1.58584 1.78768,1.74933 0.0753,0.14059 -0.0545,0.47228 -0.62866,1.60696 -0.73255,1.44777 -1.18465,2.30122 -1.81552,3.42724 -0.19129,0.34143 -0.42134,0.77121 -0.5112,0.95506 -0.0899,0.18385 -0.18487,0.35579 -0.21114,0.38209 -0.0262,0.0264 -0.11693,0.17674 -0.20134,0.33428 -0.0845,0.15753 -0.32489,0.58729 -0.53424,0.95499 -0.20934,0.3677 -0.93533,1.65113 -1.61328,2.85209 -0.67793,1.20094 -1.35936,2.31285 -1.51424,2.47091 -0.26483,0.27024 -0.31363,0.28403 -0.81851,0.23125 -0.82877,-0.0866 -2.1996,-0.46756 -4.43926,-1.23361 -2.11281,-0.72267 -5.11802,-1.78401 -5.34837,-1.88888 -0.21021,-0.0957 -8.75648,-3.25217 -9.5984,-3.54508 -0.28891,-0.10046 -0.61124,-0.22269 -0.7163,-0.27153 -0.24629,-0.11448 -1.30959,-0.47753 -1.39859,-0.47753 -0.0374,0 -0.12491,0.0597 -0.19433,0.13281 -0.0695,0.0731 -1.75936,1.78141 -3.75545,3.79639 -4.22703,4.26705 -5.2745,5.35515 -6.28471,6.52851 -0.65982,0.76638 -0.73338,0.89031 -0.6802,1.14608 0.0623,0.29926 0.77125,2.13581 1.14314,2.96096 0.49889,1.10698 0.94662,2.23411 1.99165,5.01409 0.24682,0.65661 0.51353,1.36574 0.59265,1.57586 0.24548,0.65181 0.89866,2.44394 1.2009,3.29498 0.15858,0.44649 0.34757,0.96223 0.42001,1.14608 0.63215,1.60455 2.33287,6.83999 2.33287,7.18142 0,0.14216 -0.29858,0.35263 -1.6617,1.17132 -0.83475,0.50134 -0.89801,0.53798 -2.39733,1.38851 -0.57782,0.32778 -1.25103,0.71577 -1.49605,0.86219 -0.24501,0.14643 -0.5351,0.29468 -0.64467,0.32945 -0.1096,0.0347 -0.1992,0.1033 -0.1992,0.1523 0,0.049 -0.0445,0.089 -0.0988,0.089 -0.0543,0 -0.43156,0.18881 -0.83824,0.41956 -0.40667,0.23076 -1.0391,0.58029 -1.4054,0.77676 -0.36629,0.19645 -0.85939,0.46654 -1.09578,0.6002 -0.7244,0.40957 -3.28469,1.73456 -3.46236,1.79181 -0.31043,0.10008 -1.42897,-1.10414 -4.22027,-4.54339 -1.31498,-1.62024 -1.74552,-2.14466 -1.96019,-2.38767 -0.11603,-0.13131 -0.38986,-0.44961 -0.60853,-0.70734 -0.2187,-0.2577 -0.50506,-0.58622 -0.63639,-0.73002 -0.13132,-0.14381 -0.38918,-0.44869 -0.57302,-0.67752 -0.18383,-0.22882 -0.50743,-0.60943 -0.71908,-0.84582 -0.21166,-0.23637 -0.59847,-0.68728 -0.85958,-1.00199 -0.65879,-0.79405 -0.84192,-1.01246 -0.95227,-1.13573 -0.0525,-0.0587 -0.21306,-0.26412 -0.35672,-0.45655 -0.14365,-0.19245 -0.31734,-0.40734 -0.38597,-0.47754 -0.0686,-0.0702 -0.54968,-0.65972 -1.06902,-1.31001 -1.13629,-1.42277 -2.18605,-2.49188 -2.68907,-2.73858 -0.55,-0.26974 -1.04089,-0.21557 -2.9965,0.33078 -1.97432,0.55156 -5.44484,1.45348 -8.70757,2.2629 -1.19097,0.29546 -2.29614,0.61671 -2.45595,0.71389 -0.31428,0.19112 -0.71038,0.88708 -0.9346,1.6421 -0.1554,0.5233 -0.56608,2.41105 -0.70079,3.22131 -0.0481,0.28891 -0.15513,0.8906 -0.23797,1.33709 -0.0828,0.44649 -0.40756,2.33751 -0.7216,4.20228 -0.31403,1.86477 -0.65354,3.84176 -0.75447,4.39331 -0.10098,0.55155 -0.36027,2.01279 -0.57628,3.24722 -0.45219,2.58405 -0.62527,3.45135 -0.8469,4.24362 -0.14572,0.52087 -0.19354,0.58408 -0.59216,0.78288 -0.23851,0.11899 -0.77533,0.26438 -1.19294,0.32318 -0.91655,0.12906 -9.50263,0.20452 -11.21724,0.0985 z m 10.52997,-39.97347 c 5.42279,-0.44056 9.22673,-1.30669 15.03686,-3.4238 0.56759,-0.20682 2.65137,-1.08123 3.27614,-1.37474 1.01931,-0.4789 4.03457,-2.00452 4.39329,-2.2229 0.0789,-0.048 0.70198,-0.41555 1.38486,-0.81685 1.00245,-0.58915 3.39102,-2.1226 3.82025,-2.45262 0.0525,-0.0404 0.74018,-0.55317 1.52811,-1.13953 1.26955,-0.94477 2.47608,-1.91624 3.47714,-2.79975 1.14325,-1.00899 1.54513,-1.38891 2.87755,-2.72028 1.51889,-1.51767 1.8834,-1.90571 2.96283,-3.15406 0.81914,-0.94732 2.3432,-2.86461 2.84691,-3.58149 0.8752,-1.24558 1.73176,-2.54254 1.73176,-2.62213 0,-0.0462 0.0337,-0.0983 0.0747,-0.11577 0.0412,-0.0175 0.24528,-0.31272 0.45366,-0.65603 0.20839,-0.34331 0.43038,-0.70862 0.4933,-0.8118 0.0629,-0.10317 0.25149,-0.44549 0.419,-0.76067 0.16753,-0.31516 0.48578,-0.89536 0.70722,-1.28933 0.22145,-0.39396 0.53397,-0.99566 0.69452,-1.33709 0.96354,-2.04931 1.4886,-3.23684 1.89898,-4.29491 0.13304,-0.34302 0.30253,-0.75911 0.37665,-0.92463 0.0741,-0.16553 0.13478,-0.33093 0.13478,-0.3676 0,-0.0367 0.0629,-0.20206 0.13965,-0.36759 0.15391,-0.33172 0.95208,-2.62996 1.14933,-3.3094 0.0686,-0.23638 0.2335,-0.79629 0.36639,-1.24426 0.55911,-1.88465 1.20431,-4.72616 1.49574,-6.58727 0.0617,-0.39397 0.15134,-0.90971 0.19925,-1.14609 0.0478,-0.23638 0.15529,-1.07444 0.23866,-1.86238 0.67205,-6.35199 0.30168,-12.71958 -1.09712,-18.86254 -0.36201,-1.58984 -0.48504,-2.06697 -0.9604,-3.72476 -0.25619,-0.89343 -0.92754,-2.99151 -1.10019,-3.43823 -0.071,-0.18385 -0.37306,-0.97894 -0.67115,-1.76686 -0.29806,-0.78794 -0.59915,-1.56154 -0.66907,-1.71913 -0.0699,-0.15758 -0.26336,-0.60885 -0.4299,-1.00281 -0.5994,-1.41795 -2.17473,-4.51957 -2.72755,-5.3702 -0.12736,-0.19585 -0.23144,-0.37956 -0.23144,-0.40825 0,-0.0579 -0.77278,-1.30884 -0.85527,-1.38454 -0.0287,-0.0262 -0.13477,-0.19818 -0.23586,-0.38203 -0.10111,-0.18385 -0.20855,-0.35577 -0.23877,-0.38202 -0.0302,-0.0262 -0.26447,-0.366917 -0.52055,-0.757 -0.25606,-0.390083 -0.50319,-0.75539 -0.54915,-0.811798 -0.0459,-0.05647 -0.43409,-0.575335 -0.86252,-1.15314 -0.74132,-0.999829 -1.99181,-2.535951 -2.99328,-3.677012 -0.7246,-0.825588 -4.3211,-4.384064 -5.06979,-5.016193 -0.37192,-0.314019 -0.90512,-0.764344 -1.18489,-1.000717 -1.47296,-1.244498 -3.86087,-2.997067 -5.58841,-4.101531 -0.52528,-0.335823 -1.10549,-0.707099 -1.28934,-0.82506 -1.2674,-0.813136 -4.57057,-2.573564 -6.34321,-3.380621 -6.25975,-2.849988 -12.54509,-4.47156 -19.68231,-5.07789 -1.76991,-0.150359 -7.08125,-0.149051 -8.88212,0.0022 -7.52094,0.631609 -14.53559,2.531233 -20.94604,5.672361 -0.87643,0.429445 -1.89434,0.947114 -2.26204,1.150374 -0.3677,0.20326 -0.9479,0.522173 -1.28934,0.708692 -0.34144,0.186525 -0.68526,0.389748 -0.76405,0.451598 -0.0789,0.06188 -0.45973,0.302904 -0.84652,0.53565 -0.38679,0.232758 -0.77435,0.466159 -0.86123,0.518695 -0.7361,0.445038 -3.758738,2.583046 -4.181534,2.957718 -0.0611,0.05416 -0.251977,0.205937 -0.424121,0.337251 -2.362276,1.802056 -6.328865,5.602952 -8.073279,7.736033 -0.150352,0.18385 -0.352713,0.420236 -0.449694,0.525295 -0.260544,0.282258 -1.997316,2.465804 -2.163787,2.720405 -0.07885,0.120534 -0.234199,0.331321 -0.345355,0.468475 -0.111144,0.137141 -0.718304,1.022958 -1.349236,1.968455 -3.61744,5.42116 -6.244891,11.34297 -7.797029,17.57321 -0.643204,2.58183 -0.905948,3.88191 -1.156999,5.72517 -0.08541,0.62746 -0.170407,1.16514 -0.188764,1.19484 -0.0184,0.0297 -0.111658,0.89162 -0.207313,1.91536 -0.217322,2.32575 -0.248619,8.76587 -0.05249,10.79123 0.35948,3.71112 1.128789,7.88796 2.022916,10.98325 0.113845,0.39397 0.250227,0.86672 0.303149,1.05057 0.41846,1.45364 1.390323,4.09311 2.249962,6.11066 1.028721,2.41436 3.295625,6.73185 4.097003,7.80305 0.125036,0.16722 0.227433,0.32857 0.227433,0.35857 0,0.03 0.285705,0.47008 0.634894,0.97796 0.349189,0.50789 0.725495,1.05565 0.83624,1.21729 0.423374,0.61789 2.017512,2.70675 2.482977,3.25357 1.433212,1.6837 1.818329,2.10112 3.613619,3.91677 1.675386,1.6944 3.318149,3.17068 5.031419,4.52152 0.555795,0.43821 1.096488,0.86859 1.201547,0.95641 0.105097,0.0879 0.341444,0.26442 0.525294,0.39247 0.18385,0.12799 0.355762,0.25891 0.382018,0.29078 0.215173,0.26119 5.3321,3.53273 5.52546,3.53273 0.0602,0 0.10947,0.043 0.10947,0.0954 0,0.0525 0.0377,0.0956 0.0839,0.0956 0.0462,0 0.44369,0.20007 0.88344,0.44462 3.16965,1.76262 7.3597,3.54726 10.93771,4.65866 1.06362,0.33037 4.38822,1.15283 5.38165,1.33132 2.17768,0.39129 4.97277,0.70115 7.44951,0.82588 2.13537,0.10754 7.24916,0.0286 9.3839,-0.14485 z m 18.82728,-16.7403 c -0.68755,-0.56976 -5.07192,-4.32266 -5.81489,-4.97739 -0.1576,-0.13887 -0.67332,-0.57393 -1.14608,-0.96683 -0.47276,-0.3929 -0.88106,-0.73599 -0.90731,-0.76242 -0.0262,-0.0264 -0.30526,-0.26296 -0.61997,-0.5256 -0.98091,-0.81859 -1.02635,-0.857 -1.13573,-0.96017 -0.10419,-0.0983 -2.31942,-1.97848 -3.24701,-2.75592 -0.25636,-0.21488 -0.51527,-0.43367 -0.57533,-0.48619 -0.67914,-0.5939 -1.54157,-1.32712 -1.96699,-1.67231 -0.28889,-0.23442 -0.54676,-0.45013 -0.57303,-0.47935 -0.0409,-0.0455 -2.63159,-2.22781 -6.06467,-5.10864 -2.44757,-2.05385 -4.21366,-3.50237 -4.33143,-3.55258 -0.0826,-0.0353 -4.02401,3.83973 -10.93565,10.75116 -5.94358,5.94341 -10.84942,10.80601 -10.90186,10.80577 -0.0525,0 -2.01469,-1.94497 -4.36055,-4.32167 -2.34587,-2.37668 -4.295895,-4.35159 -4.333393,-4.38867 -0.03756,-0.037 3.240583,-3.36787 7.284613,-7.40175 7.34059,-7.32217 10.51016,-10.5786 11.9725,-12.30067 0.17842,-0.21012 0.35126,-0.40351 0.38409,-0.42978 0.0328,-0.0262 0.17132,-0.21308 0.30778,-0.41516 l 0.2481,-0.36737 -0.17892,-0.34892 c -0.43063,-0.83975 -2.4244,-2.77139 -5.83959,-5.65762 -2.908,-2.45757 -4.55523,-3.50805 -6.04137,-3.85271 -0.80062,-0.18567 -2.194,-0.19162 -3.03692,-0.013 -0.34821,0.0738 -1.10034,0.29229 -1.67136,0.48549 -1.22362,0.41404 -1.72383,0.4162 -2.30999,0.0103 -0.20233,-0.14022 -0.896299,-0.77776 -1.54214,-1.41678 l -1.174263,-1.16183 0.3677,-0.29265 c 0.687135,-0.5469 1.325708,-1.12558 2.904143,-2.6318 0.86672,-0.82707 1.76925,-1.68815 2.00564,-1.91351 0.97745,-0.93191 5.72202,-5.53348 7.63642,-7.40629 2.51842,-2.4637 4.3914,-4.27365 5.38995,-5.20853 0.92433,-0.86541 1.35772,-1.2729 2.15917,-2.03011 1.46084,-1.38019 4.04058,-3.65906 4.84265,-4.27786 0.44838,-0.34593 0.54206,-0.38135 0.85368,-0.3229 0.21561,0.0404 0.48641,0.2005 0.70511,0.41672 1.00832,0.99695 1.32243,2.80689 0.80679,4.64887 -0.47764,1.70623 -0.63274,2.39918 -0.68404,3.0562 -0.0506,0.64786 -0.0392,0.69367 0.36752,1.48036 0.83007,1.60549 3.55201,5.4676 5.87815,8.34042 1.65973,2.04977 2.93916,3.40933 3.53951,3.76115 0.32733,0.19184 0.4789,0.22612 0.76442,0.17298 0.96242,-0.17913 2.74898,-1.64959 6.22078,-5.12014 3.95552,-3.95407 6.65858,-7.09785 7.4488,-8.66324 0.78257,-1.55028 1.10232,-3.11649 1.1056,-5.4154 0.003,-1.50794 -0.0242,-1.81094 -0.21413,-2.46653 -0.53988,-1.86308 -1.99874,-3.09677 -4.7095,-3.98262 -2.00587,-0.65547 -3.61636,-0.8527 -7.53692,-0.92296 -1.98813,-0.0356 -3.14487,-0.0902 -3.05622,-0.14427 0.70678,-0.43069 3.70245,-1.92621 4.49326,-2.243132 4.52286,-1.812617 9.36399,-1.771659 14.49922,0.122721 3.8023,1.402621 7.79493,4.063401 11.03987,7.357241 1.373,1.39368 1.89181,1.99914 2.31683,2.70376 0.3758,0.62302 0.39578,0.90234 0.0794,1.10966 -0.95838,0.62795 -0.86688,3.01731 0.20204,5.27574 0.98256,2.07599 2.93845,4.13177 4.29136,4.51056 0.5107,0.14298 1.33486,0.0224 1.94346,-0.28443 0.57577,-0.29026 1.9239,-0.67323 2.36989,-0.67323 0.54184,0 0.89862,0.17293 1.67074,0.80982 0.96993,0.80005 1.82883,2.00821 1.94622,2.73767 0.0435,0.27039 -0.0264,0.44 -0.44651,1.08457 -0.27397,0.42024 -0.52503,0.78555 -0.55796,0.81181 -0.0329,0.0263 -0.29537,0.32712 -0.58323,0.66855 -0.82472,0.9782 -1.45261,1.64314 -3.29545,3.48982 -1.76228,1.76594 -2.19068,2.16773 -3.1042,2.91133 -0.2889,0.23516 -0.53961,0.4598 -0.55712,0.49919 -0.0175,0.0394 -0.0693,0.0717 -0.11513,0.0717 -0.0458,0 -0.24163,0.10742 -0.43514,0.23877 -0.44106,0.2993 -0.78189,0.30146 -1.35507,0.009 -1.14663,-0.58597 -3.1335,-2.29373 -3.50444,-3.01217 -0.1898,-0.36759 -0.12452,-0.68223 0.27852,-1.34193 0.49897,-0.81673 1.13999,-2.35732 1.18055,-2.83721 0.0562,-0.66516 -0.19374,-1.07926 -1.2855,-2.12985 -2.03538,-1.95865 -2.91514,-2.67902 -3.85282,-3.15484 -0.85331,-0.43301 -1.91612,-0.50462 -2.79553,-0.18838 -1.19064,0.42816 -2.88808,1.64328 -4.79665,3.43366 -1.7693,1.65971 -6.05888,5.9452 -7.69734,7.68996 -0.44182,0.47051 -0.94735,1.00772 -1.12341,1.19384 -0.60222,0.63666 -1.64319,1.7998 -1.85435,2.07202 -0.11603,0.14959 -0.32676,0.40092 -0.46825,0.55852 -0.58038,0.64635 -1.1958,1.465 -1.31173,1.74486 -0.10458,0.25257 -0.0992,0.37093 0.0352,0.77583 0.21614,0.65072 0.99215,1.86141 1.96431,3.0646 0.44483,0.55054 0.85984,1.06628 0.92223,1.14608 0.0624,0.0798 0.52334,0.66083 1.02431,1.29117 0.50096,0.63034 0.9444,1.18906 0.98541,1.24158 0.041,0.0525 0.30407,0.38994 0.58459,0.74979 0.28053,0.35986 0.56842,0.72516 0.63977,0.81182 0.0714,0.0867 0.39778,0.50134 0.72538,0.92156 0.86456,1.10897 1.47482,1.88193 2.33191,2.95369 0.41699,0.52142 0.80115,1.02265 0.85368,1.11384 0.0525,0.0912 0.22444,0.30975 0.38202,0.48569 0.15759,0.17594 0.56463,0.68469 0.90456,1.13055 0.60019,0.78728 2.22214,2.84444 2.94229,3.73181 0.19549,0.24088 0.46288,0.58043 0.59421,0.75456 0.28242,0.37449 1.71432,2.19452 1.8581,2.36178 0.0549,0.0638 0.14275,0.17274 0.19529,0.24201 0.0525,0.0692 0.28879,0.36087 0.52501,0.64799 0.23624,0.28712 0.48071,0.5865 0.54326,0.66529 0.11809,0.1487 0.94457,1.18152 1.14644,1.43261 0.19489,0.24242 1.59799,2.01696 2.74594,3.47289 0.81185,1.02965 0.80907,1.01504 0.30769,1.61681 -0.11358,0.13632 -0.3999,0.51824 -0.63628,0.8487 -0.56722,0.793 -1.60636,2.07522 -1.90825,2.35464 -0.13235,0.12247 -0.47703,0.44639 -0.76592,0.71971 -1.16432,1.10156 -2.72042,2.06905 -3.31912,2.06363 -0.18126,-10e-4 -0.50202,-0.20097 -1.03744,-0.64467 z m -61.638458,-48.9346 c -0.446491,-0.0462 -1.091162,-0.17578 -1.432594,-0.28811 -0.51885,-0.1707 -0.724363,-0.30923 -1.251394,-0.84354 -0.747183,-0.7575 -0.916999,-1.16855 -1.002466,-2.42652 -0.0903,-1.32891 0.293836,-6.55881 0.600471,-8.17538 0.165467,-0.87235 0.34129,-1.24213 0.589923,-1.24065 0.08593,4.7e-4 0.344853,0.15093 0.575489,0.33426 0.230636,0.18335 0.496325,0.33336 0.590411,0.33336 0.381362,0 0.7049,-0.80648 1.417685,-3.53375 0.730975,-2.79688 0.863987,-3.64867 0.865003,-5.53937 8.62e-4,-1.58114 -0.161518,-2.4925 -0.721275,-4.048368 -0.130169,-0.361822 -0.224718,-0.665665 -0.210092,-0.675197 0.09815,-0.06393 9.077627,0.524034 10.962087,0.717827 5.11995,0.526504 8.05927,1.319378 9.8798,2.665068 0.72123,0.5331 1.18568,1.09647 1.57008,1.90446 l 0.34517,0.72555 -10e-4,1.38484 c -0.001,1.1702 -0.036,1.49586 -0.22161,2.10114 -0.44525,1.4518 -0.7881,2.22911 -1.20055,2.72194 l -0.2398,0.28651 -0.31413,-0.33572 c -0.17279,-0.18466 -0.38374,-0.46401 -0.4688,-0.62079 -0.085,-0.15679 -0.28344,-0.52145 -0.44086,-0.81036 -0.1574,-0.28891 -0.49183,-0.93357 -0.74315,-1.43259 -0.77357,-1.53597 -1.38362,-2.47951 -2.04171,-3.15788 -0.63923,-0.65891 -0.96438,-0.82673 -1.39322,-0.7191 -0.41023,0.10291 -0.53633,0.52569 -0.67701,2.2695 -0.19885,2.46474 -0.84753,5.95843 -1.31328,7.07299 -0.30608,0.73249 -0.71981,0.9752 -1.6407,0.96249 -1.01719,-0.014 -2.57249,-0.61129 -3.69858,-1.42029 -0.73231,-0.52612 -1.70585,-1.0089 -1.9707,-0.97728 -0.17007,0.0203 -0.26003,0.106 -0.3103,0.29546 -0.15841,0.59699 -0.31097,2.90554 -0.31373,4.74723 -0.003,1.71041 0.0207,2.02335 0.1845,2.47584 0.16314,0.45087 0.24824,0.55049 0.65711,0.76918 0.4597,0.24585 0.64854,0.49945 0.55588,0.74645 -0.10123,0.26967 -0.79341,0.50715 -1.62866,0.55872 -1.369807,0.0845 -1.673419,0.25911 -1.454142,0.83584 0.107542,0.28298 0.08323,0.24999 0.816416,1.10842 0.494546,0.57909 0.712966,0.98946 0.591336,1.11108 -0.20977,0.20978 -3.861567,0.28714 -5.510698,0.11668 z"
       id="path14515" /></g></svg>
