<?xml version="1.0" encoding="UTF-8" standalone="no"?>
<!-- Created with Inkscape (http://www.inkscape.org/) -->

<svg
   width="1000"
   height="1000"
   viewBox="0 0 264.58333 264.58333"
   version="1.1"
   id="svg5"
   inkscape:version="1.2.2 (b0a8486541, 2022-12-01)"
   sodipodi:docname="technocracy.svg"
   xml:space="preserve"
   xmlns:inkscape="http://www.inkscape.org/namespaces/inkscape"
   xmlns:sodipodi="http://sodipodi.sourceforge.net/DTD/sodipodi-0.dtd"
   xmlns="http://www.w3.org/2000/svg"
   xmlns:svg="http://www.w3.org/2000/svg"><sodipodi:namedview
     id="namedview7"
     pagecolor="#ffffff"
     bordercolor="#000000"
     borderopacity="0.25"
     inkscape:showpageshadow="2"
     inkscape:pageopacity="0.0"
     inkscape:pagecheckerboard="0"
     inkscape:deskcolor="#d1d1d1"
     inkscape:document-units="px"
     showgrid="false"
     inkscape:zoom="0.52787981"
     inkscape:cx="608.09296"
     inkscape:cy="475.48702"
     inkscape:window-width="1920"
     inkscape:window-height="1004"
     inkscape:window-x="0"
     inkscape:window-y="0"
     inkscape:window-maximized="1"
     inkscape:current-layer="layer1" /><defs
     id="defs2"><inkscape:perspective
       sodipodi:type="inkscape:persp3d"
       inkscape:vp_x="0 : 552.5 : 1"
       inkscape:vp_y="0 : 1000 : 0"
       inkscape:vp_z="815 : 552.5 : 1"
       inkscape:persp3d-origin="407.5 : 368.33333 : 1"
       id="perspective11259" /><linearGradient
       id="linearGradient5938"><stop
         style="stop-color:#000000;stop-opacity:1;"
         offset="0"
         id="stop5940" /><stop
         id="stop5946"
         offset="0.5"
         style="stop-color:#000000;stop-opacity:0;" /><stop
         style="stop-color:#000000;stop-opacity:1;"
         offset="1"
         id="stop5942" /></linearGradient><linearGradient
       id="linearGradient5196"><stop
         style="stop-color:#860909;stop-opacity:1;"
         offset="0"
         id="stop5198" /><stop
         style="stop-color:#bb0d0d;stop-opacity:1;"
         offset="1"
         id="stop5200" /></linearGradient><linearGradient
       id="linearGradient7546"><stop
         style="stop-color:#6d0000;stop-opacity:1;"
         offset="0"
         id="stop7548" /><stop
         style="stop-color:#8a0000;stop-opacity:0;"
         offset="1"
         id="stop7550" /></linearGradient><linearGradient
       id="linearGradient13829"><stop
         id="stop13831"
         offset="0.00000000"
         style="stop-color:#ffffff;stop-opacity:1.0000000;" /><stop
         id="stop13833"
         offset="1.0000000"
         style="stop-color:#c9c9c9;stop-opacity:1.0000000;" /></linearGradient><linearGradient
       id="linearGradient15699"><stop
         style="stop-color:black;stop-opacity:0.78431374;"
         offset="0"
         id="stop15701" /><stop
         style="stop-color:black;stop-opacity:0;"
         offset="1"
         id="stop15703" /></linearGradient><polygon
       id="XMLID_5_"
       points="469.75879,342.92773 529.12402,342.16113 529.12402,440.2207 469.75879,440.2207 469.75879,342.92773 " /></defs><g
     inkscape:label="Layer 1"
     inkscape:groupmode="layer"
     id="layer1"><circle
       style="fill:#e6e6e6;fill-opacity:1;stroke:#606060;stroke-width:0;stroke-dasharray:none;stroke-opacity:1;paint-order:stroke markers fill"
       id="path236"
       cx="132.29167"
       cy="132.29167"
       r="125.37917" /><circle
       style="fill:#ffffff;fill-opacity:0;stroke:#ff0000;stroke-width:5.29167;stroke-dasharray:none;stroke-opacity:1;paint-order:normal"
       id="path236-3"
       cx="132.29167"
       cy="132.29167"
       r="125.37917" /><path
       style="fill:#ff0000;fill-opacity:1;stroke-width:1.12535"
       d="m 116.5368,256.73731 c -4.33259,-0.5412 -12.43509,-2.26188 -18.00557,-3.82377 l -10.12813,-2.83976 -10.628,-5.09384 c -5.845394,-2.80162 -13.815946,-7.36872 -17.712323,-10.14912 -3.896376,-2.7804 -10.139185,-7.88354 -13.872906,-11.3403 -3.733735,-3.45676 -9.893512,-10.39811 -13.688423,-15.42518 L 25.601621,198.9252 20.175483,187.67173 14.749346,176.41825 11.939883,166.55657 9.130408,156.6949 7.8037342,144.46296 6.4770734,132.23104 7.8300927,120.2068 l 1.3530324,-12.02423 2.7831039,-9.770731 2.783117,-9.770726 5.426137,-11.253479 5.426138,-11.253479 6.899827,-9.140136 c 3.794911,-5.027075 9.954688,-11.968403 13.688423,-15.425173 3.733721,-3.45677 9.97653,-8.559905 13.872906,-11.340304 3.896377,-2.780397 11.866929,-7.345043 17.712323,-10.143656 5.845394,-2.798612 15.024826,-6.342843 20.398716,-7.876067 l 9.770724,-2.7876808 12.02424,-1.3530258 12.02424,-1.3530259 12.23193,1.3266687 12.23193,1.3266673 9.86167,2.8140385 c 5.42393,1.547721 14.64427,5.103813 20.48968,7.902425 5.84539,2.798613 13.81594,7.363259 17.71232,10.143656 3.89638,2.780399 10.13919,7.883534 13.87291,11.340304 3.73373,3.45677 9.89351,10.398098 13.68842,15.425173 l 6.89983,9.140136 5.42612,11.253479 5.42615,11.253479 2.80946,9.861682 2.80948,9.861685 1.32667,12.23193 1.32666,12.23192 -1.35301,12.02423 -1.35302,12.02425 -2.78313,9.77073 -2.78311,9.77071 -5.42615,11.25348 -5.42612,11.25347 -6.89983,9.14014 c -3.79491,5.02707 -9.95469,11.96842 -13.68842,15.42518 -3.73372,3.45676 -9.97653,8.5599 -13.87291,11.3403 -3.89638,2.7804 -11.86693,7.34505 -17.71232,10.14366 -5.84541,2.79861 -14.93245,6.31563 -20.19345,7.8156 -5.261,1.49997 -14.12312,3.28574 -19.6936,3.96838 -5.57046,0.68264 -12.91336,1.17855 -16.31754,1.10199 -3.40418,-0.0765 -9.73426,-0.58196 -14.06684,-1.12314 z m 34.37724,-4.13802 c 3.43394,-1.20625 8.49802,-3.3396 11.25347,-4.74078 l 5.00994,-2.54757 8.46822,-8.56334 8.46822,-8.56335 3.05773,-6.3818 c 1.68175,-3.50999 3.82134,-9.31346 4.75462,-12.89659 l 1.69689,-6.5148 v -8.52992 -8.52991 l -1.71998,-6.60343 c -0.94598,-3.63188 -3.53849,-10.06406 -5.76112,-14.29374 l -4.04114,-7.69031 -7.63083,-7.19853 -7.63085,-7.19856 -7.14564,-3.50905 -7.14564,-3.50905 -7.87743,-1.66125 c -4.33259,-0.91367 -10.91588,-1.67603 -14.62953,-1.69412 l -6.75209,-0.0329 -6.13838,-1.63355 c -3.37611,-0.89848 -9.40737,-3.24288 -13.40279,-5.20983 l -7.264391,-3.57627 -6.858,-6.87433 -6.857998,-6.87432 -4.272603,-8.150583 -4.272602,-8.150597 -1.611409,-7.604283 c -0.886281,-4.182354 -1.611422,-9.883109 -1.611422,-12.668345 0,-2.785237 0.728274,-8.500975 1.618381,-12.701643 l 1.61838,-7.637576 3.70748,-7.55462 3.70748,-7.554619 7.314762,-7.354941 7.314764,-7.354943 6.843758,-3.582098 c 3.76406,-1.970155 9.79099,-4.349757 13.39317,-5.288008 3.60219,-0.93825 6.78873,-1.945203 7.0812,-2.2376736 0.29247,-0.2924701 -1.43001,-0.2675372 -3.82772,0.055407 -2.39773,0.3229436 -8.15755,1.3714316 -12.7996,2.3299736 -4.64207,0.958542 -12.424845,3.191246 -17.29508,4.961565 -4.870232,1.770318 -12.213128,5.049656 -16.31754,7.287416 -4.104425,2.237761 -11.141736,6.86841 -15.638497,10.290331 -4.496748,3.421921 -11.467256,9.776641 -15.490021,14.121601 -4.022764,4.34496 -9.604951,11.34582 -12.404844,15.557467 -2.799906,4.211647 -6.823884,11.40872 -8.942176,15.993497 -2.118291,4.584775 -5.159275,12.843171 -6.757733,18.351987 l -2.906293,10.016035 -1.2744011,11.63931 -1.2744006,11.63933 1.2656406,11.99299 1.2656401,11.99299 2.915054,10.01603 c 1.603275,5.50881 4.648202,13.76721 6.766493,18.35198 2.118292,4.58478 6.14227,11.78185 8.942176,15.9935 2.799893,4.21164 8.430998,11.26535 12.513555,15.67489 4.082571,4.40954 11.478549,11.07341 16.435508,14.8086 l 9.012674,6.79125 10.308002,4.98718 c 5.669397,2.74296 14.842966,6.29056 20.3857,7.8836 5.542733,1.59303 13.392033,3.35845 17.442893,3.92317 l 7.36519,1.02674 10.69081,-0.41323 10.69081,-0.41323 z"
       id="path67015" /></g></svg>
