<?xml version="1.0" encoding="UTF-8" standalone="no"?>
<!-- Created with Inkscape (http://www.inkscape.org/) -->

<svg
   width="1000"
   height="1000"
   viewBox="0 0 264.58333 264.58333"
   version="1.1"
   id="svg5"
   inkscape:version="1.2.2 (b0a8486541, 2022-12-01)"
   sodipodi:docname="Tribalism.svg"
   xml:space="preserve"
   xmlns:inkscape="http://www.inkscape.org/namespaces/inkscape"
   xmlns:sodipodi="http://sodipodi.sourceforge.net/DTD/sodipodi-0.dtd"
   xmlns="http://www.w3.org/2000/svg"
   xmlns:svg="http://www.w3.org/2000/svg"><sodipodi:namedview
     id="namedview7"
     pagecolor="#ffffff"
     bordercolor="#000000"
     borderopacity="0.25"
     inkscape:showpageshadow="2"
     inkscape:pageopacity="0.0"
     inkscape:pagecheckerboard="0"
     inkscape:deskcolor="#d1d1d1"
     inkscape:document-units="px"
     showgrid="false"
     inkscape:zoom="0.52787981"
     inkscape:cx="219.74699"
     inkscape:cy="490.64199"
     inkscape:window-width="1920"
     inkscape:window-height="1004"
     inkscape:window-x="0"
     inkscape:window-y="0"
     inkscape:window-maximized="1"
     inkscape:current-layer="layer1" /><defs
     id="defs2" /><g
     inkscape:label="Layer 1"
     inkscape:groupmode="layer"
     id="layer1"><circle
       style="fill:#079425;fill-opacity:1;stroke:#ea8a12;stroke-width:0;stroke-dasharray:none;stroke-opacity:1;paint-order:stroke markers fill"
       id="path236"
       cx="132.29167"
       cy="132.29167"
       r="125.37917" /><circle
       style="fill:#427328;fill-opacity:0;stroke:#fefefe;stroke-width:5.29167;stroke-dasharray:none;stroke-opacity:1;paint-order:normal"
       id="path236-3"
       cx="132.29167"
       cy="132.29167"
       r="125.37917" /><path
       style="fill:#ffffff;fill-opacity:1;stroke-width:0.212308"
       d="m 77.477961,217.869 c -1.059129,-0.53213 -1.76491,-1.66103 -1.639242,-2.622 0.133178,-1.01839 38.310771,-67.19786 39.094381,-67.76868 0.30371,-0.22125 0.90859,-0.44891 1.34417,-0.50592 1.02247,-0.13384 2.12071,0.57245 2.68649,1.72773 0.37732,0.77046 0.38417,0.89939 0.09,1.69567 -0.3999,1.08257 -38.064048,66.29218 -38.665369,66.94308 -0.242886,0.26291 -0.783095,0.57287 -1.200452,0.68882 -0.958545,0.26627 -0.842755,0.27702 -1.710008,-0.1587 z M 179.38034,161.36787 c -0.94347,-0.30771 -1.78963,-0.82239 -2.36702,-1.43975 -0.31007,-0.33155 -3.92617,-5.52305 -8.03576,-11.53668 -4.10959,-6.01363 -7.59352,-11.0615 -7.74206,-11.21749 -0.22458,-0.23584 -0.41003,-0.21221 -1.10101,0.14031 -2.29834,1.17252 -8.694,3.00144 -13.44825,3.84571 -9.94422,1.7659 -15.25528,2.2257 -25.68931,2.22404 -9.12223,-0.002 -12.40696,-0.24289 -18.71442,-1.37555 -8.638405,-1.55125 -16.532422,-4.74763 -21.741131,-8.80325 -6.201791,-4.82884 -10.691824,-12.87016 -12.325377,-22.07388 -0.453739,-2.55642 -0.456548,-7.30398 -0.0056,-9.67511 1.692852,-8.903823 7.935502,-15.620744 18.01782,-19.386694 2.511622,-0.938141 4.279501,-1.324254 7.418813,-1.6203 14.639775,-1.380576 37.323305,9.019584 58.983975,27.043524 3.80674,3.16761 9.90118,9.24235 11.46465,11.4276 0.64223,0.89764 1.24991,1.63807 1.35039,1.64539 0.10048,0.007 5.78504,-2.67444 12.63234,-5.95947 10.83612,-5.19869 12.60882,-5.98627 13.67775,-6.07684 1.61256,-0.13662 2.84177,0.33722 3.92592,1.51338 0.98878,1.07271 1.26331,2.11902 0.82579,3.14735 -0.16408,0.38564 -2.89128,5.32792 -6.06045,10.98284 l -5.76211,10.28166 -0.19578,12.36495 c -0.21562,13.61842 -0.1705,13.21172 -1.56112,14.07116 -0.78629,0.48596 -2.72245,0.74632 -3.54791,0.4771 z M 92.558207,102.05515 c 1.789288,-0.91431 2.57775,-1.91353 2.703153,-3.425687 0.262474,-3.165146 -2.301628,-6.025849 -4.954934,-5.528086 -1.068517,0.200455 -2.909802,1.480695 -3.55033,2.468536 -0.300669,0.463701 -0.609995,1.217923 -0.687397,1.676049 -0.294763,1.744704 1.168034,4.510348 2.749999,5.199298 1.110436,0.4836 2.265502,0.36311 3.739509,-0.39011 z m 53.573213,-4.890381 c -0.60042,-0.550246 -0.78193,-0.897232 -0.8607,-1.645389 -0.0971,-0.922599 0.0866,-1.27067 6.83324,-12.943514 3.81319,-6.59748 7.06798,-12.253248 7.23289,-12.568371 l 0.29983,-0.572953 -2.9819,-1.626987 c -1.64005,-0.894843 -2.95362,-1.708517 -2.91906,-1.808164 0.0785,-0.226297 22.12011,-19.712875 22.20424,-19.63035 0.069,0.06771 -4.4366,29.265635 -4.53378,29.38032 -0.0343,0.04043 -1.56459,-0.747761 -3.40074,-1.751544 -1.83615,-1.003781 -3.4048,-1.825057 -3.48589,-1.825057 -0.0811,0 -3.37341,5.590704 -7.31627,12.423787 -3.94286,6.833082 -7.40961,12.613176 -7.70388,12.844651 -0.36743,0.289019 -0.8596,0.420866 -1.57107,0.420866 -0.87509,0 -1.15422,-0.10832 -1.79691,-0.697295 z"
       id="path8925" /></g></svg>
