<?xml version="1.0" encoding="UTF-8" standalone="no"?>
<!-- Created with Inkscape (http://www.inkscape.org/) -->

<svg
   width="1000"
   height="1000"
   viewBox="0 0 264.58333 264.58333"
   version="1.1"
   id="svg5"
   inkscape:version="1.2.2 (b0a8486541, 2022-12-01)"
   sodipodi:docname="welfare_capitalism.svg"
   xml:space="preserve"
   xmlns:inkscape="http://www.inkscape.org/namespaces/inkscape"
   xmlns:sodipodi="http://sodipodi.sourceforge.net/DTD/sodipodi-0.dtd"
   xmlns="http://www.w3.org/2000/svg"
   xmlns:svg="http://www.w3.org/2000/svg"><sodipodi:namedview
     id="namedview7"
     pagecolor="#ffffff"
     bordercolor="#000000"
     borderopacity="0.25"
     inkscape:showpageshadow="2"
     inkscape:pageopacity="0.0"
     inkscape:pagecheckerboard="0"
     inkscape:deskcolor="#d1d1d1"
     inkscape:document-units="px"
     showgrid="false"
     inkscape:zoom="0.52787981"
     inkscape:cx="187.54269"
     inkscape:cy="528.5294"
     inkscape:window-width="1920"
     inkscape:window-height="1004"
     inkscape:window-x="0"
     inkscape:window-y="0"
     inkscape:window-maximized="1"
     inkscape:current-layer="layer1" /><defs
     id="defs2" /><g
     inkscape:label="Layer 1"
     inkscape:groupmode="layer"
     id="layer1"><circle
       style="fill:#80b7e5;stroke:#eecc0e;stroke-width:0;stroke-dasharray:none;stroke-opacity:1;paint-order:stroke markers fill;fill-opacity:1"
       id="path236"
       cx="132.29167"
       cy="132.29167"
       r="125.37917" /><circle
       style="fill:#427328;stroke:#ffffff;stroke-width:5.2916666;fill-opacity:0;stroke-opacity:1;stroke-dasharray:none;paint-order:normal"
       id="path236-3"
       cx="132.29167"
       cy="132.29167"
       r="125.37917" /><path
       style="fill:#ffffff;fill-opacity:1;stroke-width:0.508954"
       d="M 130.31246,212.94041 C 128.28433,212.0504 62.460331,145.99145 58.943885,141.31712 48.213095,127.05286 46.142334,106.9611 53.720875,90.640523 c 2.582016,-5.560412 5.138641,-9.333024 9.29505,-13.71586 14.052451,-14.817973 36.033878,-19.387175 55.150705,-11.463969 2.89949,1.201732 8.63716,4.414863 9.82624,5.502756 0.12388,0.113301 -7.80204,8.273385 -17.61306,18.133536 -21.088335,21.193864 -20.783635,20.763184 -20.783635,29.378974 0,4.70608 0.158509,5.67816 1.328411,8.14326 4.732462,9.97239 16.422694,14.13719 26.327084,9.37938 2.35303,-1.13034 5.87202,-4.35784 19.18097,-17.59215 l 16.29926,-16.20784 21.21374,21.24423 c 14.4296,14.45033 21.46503,21.84937 21.9995,23.13647 1.54623,3.72346 0.60165,8.74613 -2.10517,11.19391 -2.40816,2.17772 -7.11113,3.054 -10.18147,1.89706 -0.78802,-0.29693 -7.27873,-6.3662 -14.42378,-13.48725 -10.47849,-10.44331 -13.25369,-12.94742 -14.34909,-12.94742 -1.3944,0 -2.94263,1.58725 -2.94263,3.01679 0,0.41498 5.70177,6.49053 12.67061,13.50126 6.96883,7.01075 13.03809,13.47976 13.48727,14.37561 1.67377,3.33828 0.64985,8.99388 -2.07428,11.45732 -1.47429,1.33322 -4.4969,2.43819 -6.63559,2.42578 -3.68016,-0.0213 -5.60928,-1.53038 -18.46203,-14.44138 -12.75142,-12.80925 -13.6919,-13.52094 -15.49063,-11.72222 -2.01621,2.01622 -1.38317,2.87598 12.12915,16.473 10.68377,10.75072 13.0254,13.3635 13.48443,15.04578 0.6865,2.51585 0.68958,3.07997 0.0298,5.45546 -1.5021,5.40856 -7.83738,8.4191 -13.09951,6.22488 -1.23157,-0.51354 -6.33921,-5.22254 -14.62901,-13.48728 -13.01054,-12.97115 -14.16044,-13.84437 -15.91732,-12.08748 -1.78709,1.78709 -0.92423,2.94775 12.12539,16.31038 7.63735,7.82053 13.03684,13.76132 13.48727,14.83936 1.9662,4.70578 -0.46776,10.14791 -5.47414,12.2397 -2.28068,0.95293 -5.19663,0.98419 -7.26198,0.0779 z m 61.48207,-79.30507 c -7.81434,-8.1977 -19.31864,-20.28709 -25.56509,-26.86532 -6.24647,-6.57823 -11.77268,-12.160679 -12.28045,-12.405439 -0.50779,-0.244759 -1.49624,-0.301201 -2.19657,-0.125417 -0.78934,0.198109 -7.89484,7.281236 -18.69513,18.636306 -12.21339,12.84073 -18.05281,18.62219 -19.53241,19.33845 -7.94821,3.84766 -17.066202,-2.76106 -16.446938,-11.92076 0.114839,-1.69927 0.602661,-3.9054 1.083993,-4.90257 1.150428,-2.38326 36.460075,-39.57125 41.200025,-43.391709 4.65051,-3.748348 12.52094,-7.625375 18.43401,-9.080717 6.76532,-1.665093 16.50541,-1.57993 23.18724,0.202741 18.73189,4.997568 32.708,20.37229 36.67115,40.340945 0.97943,4.93481 0.88788,16.29475 -0.17042,21.14381 -1.7089,7.83035 -5.08277,15.40412 -9.46377,21.24459 l -2.0178,2.68998 z"
       id="path12017" /></g></svg>
