<?xml version="1.0" encoding="UTF-8" standalone="no"?>
<!-- Created with Inkscape (http://www.inkscape.org/) -->

<svg
   width="1000"
   height="1000"
   viewBox="0 0 264.58333 264.58333"
   version="1.1"
   id="svg5"
   inkscape:version="1.2.2 (b0a8486541, 2022-12-01)"
   sodipodi:docname="corporatism.svg"
   xml:space="preserve"
   xmlns:inkscape="http://www.inkscape.org/namespaces/inkscape"
   xmlns:sodipodi="http://sodipodi.sourceforge.net/DTD/sodipodi-0.dtd"
   xmlns="http://www.w3.org/2000/svg"
   xmlns:svg="http://www.w3.org/2000/svg"><sodipodi:namedview
     id="namedview7"
     pagecolor="#ffffff"
     bordercolor="#000000"
     borderopacity="0.25"
     inkscape:showpageshadow="2"
     inkscape:pageopacity="0.0"
     inkscape:pagecheckerboard="0"
     inkscape:deskcolor="#d1d1d1"
     inkscape:document-units="px"
     showgrid="false"
     inkscape:zoom="0.74653479"
     inkscape:cx="482.22803"
     inkscape:cy="483.56755"
     inkscape:window-width="1920"
     inkscape:window-height="1004"
     inkscape:window-x="0"
     inkscape:window-y="0"
     inkscape:window-maximized="1"
     inkscape:current-layer="layer1" /><defs
     id="defs2" /><g
     inkscape:label="Layer 1"
     inkscape:groupmode="layer"
     id="layer1"><circle
       style="fill:#ffffff;stroke:#eecc0e;stroke-width:0;stroke-dasharray:none;stroke-opacity:1;paint-order:stroke markers fill;fill-opacity:1"
       id="path236"
       cx="132.29167"
       cy="132.29167"
       r="125.37917" /><circle
       style="fill:#427328;stroke:#df2121;stroke-width:5.2916666;fill-opacity:0;stroke-opacity:1;stroke-dasharray:none;paint-order:normal"
       id="path236-3"
       cx="132.29167"
       cy="132.29167"
       r="125.37917" /><path
       style="fill:#000000;stroke-width:0.264583"
       d="m 99.229368,220.6086 c -0.22317,-0.10677 -0.63989,-0.37273 -0.92604,-0.59101 -1.19577,-0.91217 -1.31001,-1.29668 -1.44631,-4.86794 l -0.13229,-3.46643 -2.66677,-0.13229 c -2.427748,-0.12044 -2.756413,-0.20069 -3.666823,-0.89533 -2.605884,-1.98829 -2.605884,-6.01064 0,-7.99893 0.91041,-0.69464 1.239075,-0.77489 3.666823,-0.89533 l 2.66677,-0.13229 V 132.04363 62.458222 l -2.66677,-0.132292 c -2.427748,-0.120433 -2.756413,-0.200683 -3.666823,-0.895326 -1.181741,-0.901671 -1.989159,-2.52509 -1.989159,-3.999465 0,-1.474375 0.807418,-3.097795 1.989159,-3.999466 0.91041,-0.694642 1.239075,-0.774893 3.666823,-0.895326 l 2.66677,-0.132291 0.13229,-3.175 c 0.14715,-3.531647 0.33002,-4.007552 1.87315,-4.874838 1.24044,-0.69717 2.421602,-0.69717 3.662042,0 1.54313,0.867286 1.726,1.343191 1.87315,4.874838 l 0.13229,3.175 h 4.10104 4.10104 l 0.13229,-3.175 c 0.14715,-3.531647 0.33002,-4.007552 1.87315,-4.874838 1.24044,-0.69717 2.4216,-0.69717 3.66204,0 1.54313,0.867286 1.726,1.343191 1.87315,4.874838 l 0.13229,3.175 h 4.10104 4.10104 l 0.13229,-3.175 c 0.14715,-3.531647 0.33002,-4.007552 1.87315,-4.874838 1.24044,-0.69717 2.4216,-0.69717 3.66204,0 1.54313,0.867286 1.726,1.343191 1.87315,4.874838 l 0.13229,3.175 h 4.10104 4.10104 l 0.13229,-3.175 c 0.14715,-3.531647 0.33002,-4.007552 1.87315,-4.874838 1.24044,-0.69717 2.4216,-0.69717 3.66204,0 1.54313,0.867286 1.726,1.343191 1.87315,4.874838 l 0.13229,3.175 h 4.10104 4.10104 l 0.13229,-3.175 c 0.14715,-3.531647 0.33002,-4.007552 1.87315,-4.874838 1.24044,-0.69717 2.4216,-0.69717 3.66204,0 1.54313,0.867286 1.726,1.343191 1.87315,4.874838 l 0.13229,3.175 2.66677,0.132291 c 2.40744,0.119428 2.76126,0.20438 3.6383,0.873572 2.62507,2.002949 2.64071,6.027587 0.0312,8.018669 -0.9135,0.697 -1.2399,0.776817 -3.66947,0.897342 l -2.66677,0.132292 v 69.585408 69.58542 l 2.66677,0.13229 c 2.40744,0.11943 2.76126,0.20438 3.6383,0.87357 2.62507,2.00295 2.64071,6.02759 0.0312,8.01867 -0.9135,0.697 -1.2399,0.77682 -3.66947,0.89735 l -2.66677,0.13229 -0.13229,3.43958 c -0.13938,3.62369 -0.27676,4.0702 -1.54668,5.02708 -0.50418,0.3799 -1.11276,0.52917 -2.15749,0.52917 -1.04473,0 -1.65331,-0.14927 -2.15749,-0.52917 -1.26993,-0.95688 -1.40731,-1.40339 -1.54668,-5.02708 l -0.13229,-3.43958 h -4.10104 -4.10104 l -0.13229,3.43958 c -0.13938,3.62369 -0.27676,4.0702 -1.54668,5.02708 -0.50418,0.3799 -1.11276,0.52917 -2.15749,0.52917 -1.04473,0 -1.65331,-0.14927 -2.15749,-0.52917 -1.26993,-0.95688 -1.4073,-1.40339 -1.54668,-5.02708 l -0.13229,-3.43958 h -4.10104 -4.10104 l -0.13229,3.43958 c -0.13938,3.62369 -0.27675,4.0702 -1.54668,5.02708 -0.50418,0.3799 -1.11276,0.52917 -2.15749,0.52917 -1.04473,0 -1.65331,-0.14927 -2.15749,-0.52917 -1.26993,-0.95688 -1.4073,-1.40339 -1.54668,-5.02708 l -0.13229,-3.43958 h -4.10104 -4.10104 l -0.13229,3.43958 c -0.13938,3.62369 -0.27675,4.0702 -1.54668,5.02708 -0.50418,0.3799 -1.11276,0.52917 -2.15749,0.52917 -1.04473,0 -1.65331,-0.14927 -2.15749,-0.52917 -1.26992,-0.95688 -1.4073,-1.40339 -1.54668,-5.02708 l -0.13229,-3.43958 h -4.10104 -4.10104 l -0.13229,3.43958 c -0.13885,3.6101 -0.28056,4.07634 -1.52077,5.00364 -0.70599,0.52787 -2.815022,0.81715 -3.515222,0.48216 z M 112.59973,132.04363 V 62.458222 h -4.10104 -4.10104 l -0.0678,69.320828 c -0.0373,38.12646 -0.01,69.47278 0.0605,69.65848 0.098,0.25799 1.08163,0.32041 4.16882,0.26459 l 4.04054,-0.0731 z m 15.875,0 V 62.458222 h -4.10104 -4.10104 l -0.0678,69.320828 c -0.0373,38.12646 -0.0101,69.47278 0.0605,69.65848 0.098,0.25799 1.08163,0.32041 4.16882,0.26459 l 4.04054,-0.0731 z m 15.875,0 V 62.458222 h -4.10104 -4.10104 l -0.0678,69.320828 c -0.0373,38.12646 -0.0101,69.47278 0.0605,69.65848 0.098,0.25799 1.08163,0.32041 4.16882,0.26459 l 4.04054,-0.0731 z m 15.875,0 V 62.458222 h -4.10104 -4.10104 l -0.0678,69.320828 c -0.0373,38.12646 -0.0101,69.47278 0.0605,69.65848 0.098,0.25799 1.08163,0.32041 4.16882,0.26459 l 4.04054,-0.0731 z"
       id="path4969" /></g></svg>
