<?xml version="1.0" encoding="UTF-8" standalone="no"?>
<!-- Created with Inkscape (http://www.inkscape.org/) -->

<svg
   width="1000"
   height="1000"
   viewBox="0 0 264.58333 264.58333"
   version="1.1"
   id="svg5"
   inkscape:version="1.2.2 (b0a8486541, 2022-12-01)"
   sodipodi:docname="guild_socialism.svg"
   xml:space="preserve"
   xmlns:inkscape="http://www.inkscape.org/namespaces/inkscape"
   xmlns:sodipodi="http://sodipodi.sourceforge.net/DTD/sodipodi-0.dtd"
   xmlns="http://www.w3.org/2000/svg"
   xmlns:svg="http://www.w3.org/2000/svg"><sodipodi:namedview
     id="namedview7"
     pagecolor="#ffffff"
     bordercolor="#000000"
     borderopacity="0.25"
     inkscape:showpageshadow="2"
     inkscape:pageopacity="0.0"
     inkscape:pagecheckerboard="0"
     inkscape:deskcolor="#d1d1d1"
     inkscape:document-units="px"
     showgrid="false"
     inkscape:zoom="0.52787981"
     inkscape:cx="161.0215"
     inkscape:cy="538.00125"
     inkscape:window-width="1920"
     inkscape:window-height="1004"
     inkscape:window-x="0"
     inkscape:window-y="0"
     inkscape:window-maximized="1"
     inkscape:current-layer="layer1" /><defs
     id="defs2" /><g
     inkscape:label="Layer 1"
     inkscape:groupmode="layer"
     id="layer1"><circle
       style="fill:#9c2121;stroke:#ee0e0e;stroke-width:0;stroke-dasharray:none;stroke-opacity:1;paint-order:stroke markers fill;fill-opacity:1"
       id="path236"
       cx="132.29167"
       cy="132.29167"
       r="125.37917" /><circle
       style="fill:#427328;stroke:#313131;stroke-width:5.2916666;fill-opacity:0;stroke-opacity:1;stroke-dasharray:none;paint-order:normal"
       id="path236-3"
       cx="132.29167"
       cy="132.29167"
       r="125.37917" /><path
       id="path306"
       style="fill:#313131;stroke-width:0.290919;fill-opacity:1"
       d="m 144.86183,46.631319 c -2.36219,0 -3.54226,1.024086 -5.1962,4.509253 -0.6834,1.440041 -2.01985,4.254708 -2.97,6.254768 -0.95014,2.000061 -1.97461,4.198116 -2.27621,4.884266 l -0.54832,1.247204 -2.15973,-0.08353 -2.15974,-0.08409 -3.32342,-7.272988 c -1.82779,-4.000121 -3.66945,-7.634999 -4.09275,-8.077561 -1.58212,-1.654112 -2.9739,-1.63929 -10.16287,0.107963 -5.52135,1.341919 -8.57008,2.440904 -9.30431,3.354665 -0.71682,0.892104 -1.18833,2.671797 -1.10743,4.178559 0.03,0.560021 0.14148,3.178306 0.24774,5.818391 0.10621,2.640087 0.26993,5.983003 0.36365,7.428676 l 0.17046,2.628501 -1.43187,0.779573 -1.432439,0.779 -6.911042,-5.35871 c -3.801274,-2.947499 -7.176674,-5.443302 -7.500837,-5.546219 -0.863778,-0.274159 -2.311227,-0.2217 -3.185342,0.115913 -1.162028,0.448815 -6.236702,4.634516 -9.483862,7.82244 -4.488605,4.406686 -4.480237,4.717305 0.356263,13.024328 1.583681,2.720093 3.512679,6.03961 4.286517,7.376396 1.442272,2.491576 1.493996,2.859833 0.568203,4.059243 l -0.518769,0.67218 -2.749531,-0.450019 c -1.512197,-0.247572 -4.647223,-0.787313 -6.967295,-1.198903 -2.320071,-0.411579 -5.2364,-0.926856 -6.480345,-1.144927 -3.446947,-0.604296 -4.952303,0.04937 -6.309886,2.73873 -2.409131,4.772498 -5.076736,12.715299 -4.874038,14.513589 0.255554,2.26728 0.06782,2.11161 10.973121,9.06396 6.04948,3.85668 6.25714,4.02089 6.341704,5.00415 0.05037,0.58569 -0.07294,1.14208 -0.290919,1.31198 -0.208097,0.16219 -4.239829,1.5689 -8.959981,3.12625 -4.72014,1.55734 -8.909403,3.0402 -9.309423,3.29501 -1.858079,1.18354 -2.187567,2.58257 -1.759155,7.47583 0.431402,4.92756 1.361113,10.1797 2.063143,11.6561 1.074232,2.25913 1.544608,2.3484 18.5643,3.52229 l 2.722826,0.18807 0.404559,0.96878 c 0.222656,0.53288 0.405128,1.09013 0.405128,1.23869 0,0.14856 -1.746425,2.08405 -3.88082,4.30072 -2.134397,2.21661 -4.947014,5.14307 -6.250224,6.50307 -4.101741,4.28063 -4.214752,5.40399 -1.043788,10.37991 2.383523,3.74033 5.790821,8.33999 7.053094,9.52137 0.773941,0.72437 1.145746,0.84928 2.585319,0.86764 1.679691,0.0214 3.062395,-0.4566 8.518488,-2.94555 0.880025,-0.40145 2.123712,-0.9583 2.763736,-1.23755 2.810585,-1.22622 4.135692,-1.82147 5.032566,-2.25974 l 0.960262,-0.46933 1.144358,1.14436 1.14436,1.14493 -2.356335,8.00028 c -2.53333,8.60103 -2.78651,10.24167 -1.789837,11.59588 1.129347,1.53447 10.300342,6.7344 14.133463,8.01391 1.678368,0.56025 3.304788,0.36938 4.372318,-0.51308 0.69699,-0.57616 2.30634,-2.55544 8.05085,-9.90434 1.74733,-2.23529 2.29778,-2.7603 2.76374,-2.63474 0.32,0.0862 1.2006,0.31277 1.95746,0.50342 1.60032,0.40312 1.23288,-0.70592 3.27738,9.89013 1.59039,8.24245 1.81441,8.62443 5.38372,9.19748 0.88003,0.14129 4.22728,0.27224 7.43834,0.29093 6.52222,0.0379 8.18641,-0.24804 9.49295,-1.63188 0.78305,-0.82938 1.09917,-2.12192 3.1683,-12.95274 0.54297,-2.84221 0.74015,-3.4183 1.17163,-3.4183 0.28542,0 1.27295,-0.19638 2.19439,-0.43638 0.92145,-0.24001 1.81985,-0.43638 1.9961,-0.43638 0.17625,0 2.25891,2.48858 4.62801,5.53031 2.3691,3.04177 4.68863,5.85178 5.15472,6.24398 1.0202,0.85844 2.49143,1.30457 3.62968,1.1006 1.3132,-0.23531 7.24041,-2.98482 10.84357,-5.02973 3.36434,-1.90937 4.06305,-2.56759 4.65073,-4.38083 0.30943,-0.95465 0.15454,-1.68553 -1.79893,-8.47757 l -2.13814,-7.43323 2.26428,-1.91597 2.26429,-1.91598 4.26151,1.89153 c 6.288,2.79092 6.88,3.05658 7.83551,3.52002 2.24659,1.08967 4.64707,0.75938 6.1667,-0.84832 1.19202,-1.26112 4.43381,-5.61761 6.38829,-8.58554 2.12739,-3.2304 2.51988,-4.38232 2.08418,-6.11272 -0.34419,-1.36687 -0.55214,-1.60612 -9.19635,-10.56514 l -1.85519,-1.92281 0.89719,-2.10745 c 0.49334,-1.15934 0.89719,-2.26594 0.89719,-2.45861 0,-0.72317 0.80314,-1.40602 1.76654,-1.50234 0.54833,-0.0548 3.81189,-0.30103 7.25196,-0.54661 7.08404,-0.50572 8.00398,-0.69343 9.12136,-1.85973 0.93649,-0.97743 1.66286,-4.05623 2.36656,-10.03558 0.51507,-4.37664 0.54256,-5.7716 0.14319,-7.20934 -0.55441,-1.99592 -1.23189,-2.36381 -9.32705,-5.06212 -6.72725,-2.24233 -7.54277,-2.5815 -7.55993,-3.14386 -0.011,-0.34669 -0.18382,-1.79008 -0.38466,-3.20751 l -0.36479,-2.57679 1.47505,-0.95742 c 0.8114,-0.52643 3.5703,-2.26455 6.13033,-3.86263 5.79466,-3.6173 6.4511,-4.1597 6.85536,-5.66101 0.48537,-1.80255 -0.16825,-4.30271 -2.83305,-10.838452 -2.42147,-5.938812 -3.33123,-6.981802 -6.05874,-6.943428 -1.07463,0.01517 -14.66493,2.274692 -15.49487,2.57623 -0.21476,0.07807 -1.03127,-0.874804 -1.96769,-2.296672 l -1.60006,-2.4302 3.24898,-5.634859 c 1.78699,-3.099334 3.53581,-6.09363 3.88651,-6.653647 0.78576,-1.254815 1.10681,-2.864528 0.84719,-4.248451 -0.28312,-1.509127 -4.22248,-5.522992 -9.24977,-9.424766 -0.30924,-0.240008 -1.03307,-0.847062 -1.608,-1.348913 -1.99361,-1.740129 -4.3649,-1.794625 -6.315,-0.144892 -0.49819,0.421454 -2.44317,1.944722 -4.32232,3.384776 -1.87917,1.440055 -4.26419,3.305586 -5.3002,4.145612 -1.03598,0.840036 -1.92812,1.527324 -1.98244,1.527324 -0.0543,0 -1.12374,-0.52504 -2.37622,-1.167094 l -2.2768,-1.167654 0.2199,-4.578005 c 0.12106,-2.51803 0.25198,-6.299605 0.29093,-8.403137 l 0.071,-3.824568 -0.8972,-1.121063 c -0.63609,-0.795162 -1.348,-1.273309 -2.45009,-1.644378 -3.5565,-1.197478 -11.90534,-3.11318 -13.56697,-3.11318 z M 131.7591,84.52586 c 4.2379,-0.01242 8.5401,0.455638 12.02258,1.40687 3.71523,1.014797 9.55568,3.529353 11.95271,5.145631 0.44271,0.298524 1.78202,1.187908 2.97624,1.976211 5.73752,3.787324 11.38039,10.653558 14.97893,18.226788 3.52189,7.41174 4.61804,12.39987 4.61892,21.02575 9.9e-4,8.85197 -1.07879,13.66827 -4.75982,21.23713 -2.18345,4.48944 -4.52656,7.99997 -7.76733,11.63678 -3.99372,4.48173 -8.34115,7.67855 -14.39597,10.5856 -3.6792,1.76647 -6.50277,2.72155 -10.44128,3.53251 -3.88523,0.79999 -10.88692,1.01018 -14.80565,0.44434 -6.74192,-0.97351 -13.67659,-3.71684 -19.78252,-7.82585 -3.28544,-2.21098 -9.356451,-8.44208 -11.80724,-12.11861 -4.26883,-6.40396 -6.991806,-13.34563 -7.964489,-20.30414 -0.555819,-3.97633 -0.422389,-11.94683 0.269327,-16.06819 2.038319,-12.14473 9.488508,-23.766943 19.796162,-30.881788 3.66853,-2.532204 9.40938,-5.320688 13.47094,-6.542847 3.22642,-0.97087 7.40057,-1.463782 11.63849,-1.476185 z m 37.39906,21.80077 c -0.23623,0.01 -0.50381,0.0303 -0.80345,0.0597 -3.88891,0.38175 -7.52663,1.11544 -10.50604,2.11883 -10.94057,3.6845 -20.97826,11.89944 -30.04767,24.59122 l -1.60347,2.24383 -5.75077,-5.97238 -5.75078,-5.97237 2.94556,-2.96261 2.94613,-2.9626 1.02958,-3.62457 c 0.56638,-1.99343 1.03015,-3.89787 1.03015,-4.23252 0,-1.33443 -0.83791,-1.39226 -4.36379,-0.30059 -0.72002,0.22294 -2.09364,0.62395 -3.05238,0.89151 -1.72125,0.48038 -1.86546,0.60785 -11.44019,10.13105 -5.333131,5.30441 -9.827018,9.88235 -9.986715,10.17309 -0.212938,0.38766 -0.157109,0.73672 0.209667,1.30913 0.866207,1.35186 5.474096,5.57888 6.082598,5.57975 0.34938,5.6e-4 1.92554,-1.34343 3.99049,-3.40296 l 3.41319,-3.4041 2.2427,2.16769 c 4.50918,4.35768 11.15891,11.14072 11.15891,11.3828 0,0.13676 -0.38568,0.93404 -0.85685,1.77165 -1.24761,2.21796 -4.3742,9.12866 -5.95361,13.15956 -0.75235,1.92007 -1.60975,4.09967 -1.90518,4.84336 -0.3913,0.98497 -0.45005,1.43922 -0.21649,1.67278 0.17634,0.17634 1.07082,0.32047 1.98757,0.32047 h 1.66654 l 3.75979,-6.3275 c 2.06778,-3.48013 4.31893,-7.27886 5.00245,-8.44178 0.68352,-1.16294 1.33234,-2.1695 1.44153,-2.23701 0.10918,-0.0675 3.91748,3.60034 8.46338,8.15086 4.79719,4.80203 8.48844,8.27359 8.7969,8.27359 0.68904,0 5.99485,-5.12821 6.21556,-6.0076 0.14264,-0.5683 -0.62519,-1.49431 -4.95415,-5.97295 l -5.12292,-5.29962 1.6745,-0.61252 c 0.92092,-0.33675 2.24619,-0.97664 2.94556,-1.42221 1.22996,-0.78361 5.27462,-4.72313 5.27462,-5.13768 0,-0.11229 -0.21679,-0.38384 -0.48126,-0.60344 -0.37606,-0.31229 -1.90198,-0.39944 -7.00139,-0.39944 h -6.52126 l 2.41997,-1.11538 c 4.68234,-2.15879 7.35565,-2.91204 10.42026,-2.9359 1.52004,-0.0119 3.16489,0.0818 3.65525,0.20797 0.87912,0.22626 0.91651,0.18891 2.68532,-2.65295 2.1551,-3.46243 2.23285,-3.64643 1.72109,-4.07116 -0.47288,-0.39244 -5.82562,-0.90115 -7.9162,-0.7523 -0.80002,0.057 -2.35324,0.15874 -3.45126,0.22614 l -1.99666,0.12217 1.1239,-0.63752 c 1.47297,-0.83564 5.97328,-2.60897 7.81505,-3.07967 0.80004,-0.2044 2.81105,-0.39233 4.46892,-0.41762 3.48524,-0.0532 3.07641,0.24715 5.31723,-3.90753 0.94708,-1.75592 1.36817,-2.82231 1.18641,-3.00408 -0.16524,-0.16523 -2.05714,-0.24246 -4.57347,-0.18694 l -4.29106,0.0949 2.29156,-1.08867 c 2.42948,-1.15411 6.23836,-2.43251 8.29178,-2.78306 1.14746,-0.19589 1.35666,-0.38582 2.89272,-2.62907 0.91055,-1.3298 2.07884,-2.85451 2.59611,-3.38819 0.9904,-1.02186 1.04513,-1.4789 -5.8e-4,-1.54438 -0.17427,-0.011 -0.37914,-0.0111 -0.61535,-0.001 z" /></g></svg>
