<?xml version="1.0" encoding="UTF-8" standalone="no"?>
<!-- Created with Inkscape (http://www.inkscape.org/) -->

<svg
   width="1000"
   height="1000"
   viewBox="0 0 264.58333 264.58333"
   version="1.1"
   id="svg5"
   inkscape:version="1.2.2 (b0a8486541, 2022-12-01)"
   sodipodi:docname="keynesianism.svg"
   xml:space="preserve"
   xmlns:inkscape="http://www.inkscape.org/namespaces/inkscape"
   xmlns:sodipodi="http://sodipodi.sourceforge.net/DTD/sodipodi-0.dtd"
   xmlns="http://www.w3.org/2000/svg"
   xmlns:svg="http://www.w3.org/2000/svg"><sodipodi:namedview
     id="namedview7"
     pagecolor="#ffffff"
     bordercolor="#000000"
     borderopacity="0.25"
     inkscape:showpageshadow="2"
     inkscape:pageopacity="0.0"
     inkscape:pagecheckerboard="0"
     inkscape:deskcolor="#d1d1d1"
     inkscape:document-units="px"
     showgrid="false"
     inkscape:zoom="0.52787981"
     inkscape:cx="303.0993"
     inkscape:cy="564.52244"
     inkscape:window-width="1920"
     inkscape:window-height="1004"
     inkscape:window-x="0"
     inkscape:window-y="0"
     inkscape:window-maximized="1"
     inkscape:current-layer="layer1" /><defs
     id="defs2"><filter
       id="mask-powermask-path-effect1955_inverse"
       inkscape:label="filtermask-powermask-path-effect1955"
       style="color-interpolation-filters:sRGB"
       height="100"
       width="100"
       x="-50"
       y="-50"><feColorMatrix
         id="mask-powermask-path-effect1955_primitive1"
         values="1"
         type="saturate"
         result="fbSourceGraphic" /><feColorMatrix
         id="mask-powermask-path-effect1955_primitive2"
         values="-1 0 0 0 1 0 -1 0 0 1 0 0 -1 0 1 0 0 0 1 0 "
         in="fbSourceGraphic" /></filter><filter
       id="mask-powermask-path-effect1983_inverse"
       inkscape:label="filtermask-powermask-path-effect1983"
       style="color-interpolation-filters:sRGB"
       height="100"
       width="100"
       x="-50"
       y="-50"><feColorMatrix
         id="mask-powermask-path-effect1983_primitive1"
         values="1"
         type="saturate"
         result="fbSourceGraphic" /><feColorMatrix
         id="mask-powermask-path-effect1983_primitive2"
         values="-1 0 0 0 1 0 -1 0 0 1 0 0 -1 0 1 0 0 0 1 0 "
         in="fbSourceGraphic" /></filter><clipPath
       clipPathUnits="userSpaceOnUse"
       id="clipPath2020"><path
         id="path2022"
         style="fill:#000000;fill-opacity:1;stroke-width:0.246708"
         d="M 4.5525353,4.2133041 V 102.9105 c 0.296472,0.3053 0.5801511,0.64516 0.8495051,1.01767 -7.672e-4,-1.91712 -0.012729,-5.149521 0.00241,-5.166412 0.135305,-0.150852 4.6734766,4.290972 8.1196826,7.947182 6.366563,6.75451 12.8426,14.53743 21.564307,25.91591 9.783196,12.76331 19.924363,21.73247 34.55503,30.56193 7.984027,4.81823 11.853794,8.27569 26.714828,23.869 6.268452,6.57746 7.742222,8.34084 15.027502,17.97788 5.4076,7.1531 7.60886,9.89013 10.66482,13.26056 0.84619,0.93328 2.26018,2.62961 3.14215,3.76904 0.88199,1.13955 2.93583,3.41084 4.5641,5.04692 4.74345,4.76648 9.17715,8.22342 18.50311,14.42712 8.76639,5.83157 13.51803,9.70293 20.74661,16.90384 3.91762,3.90277 11.79925,12.67449 11.58804,12.89676 -0.001,0.003 -0.19849,0.0109 -0.20719,0.0124 1.32603,0.068 2.65041,0.16992 3.97431,0.27321 3.24351,0.20018 6.47984,0.49223 9.71413,0.80518 3.00066,0.35025 6.00005,0.70138 9.01255,0.93191 2.43835,0.24601 4.87968,0.43543 7.328,0.54015 0.46693,-0.004 0.93423,0.007 1.40075,-0.0124 3.29376,-0.13838 6.58675,-0.59812 9.85627,-0.98153 4.21137,-0.49384 6.1834,-0.73988 10.40029,-1.25524 4.17208,-0.52781 8.34005,-1.09021 12.5079,-1.64983 2.66528,-0.35785 4.89971,-0.14576 6.67896,0.4481 v -20.03059 -32.32694 l -4.48604,-5.35771 c -10.24278,-12.23257 -19.05105,-21.81288 -27.66552,-30.09019 -4.95529,-4.76144 -6.75657,-6.11603 -18.17689,-13.67207 -10.89829,-7.21054 -13.06069,-9.00929 -20.86562,-17.35532 -5.69167,-6.08625 -8.39473,-9.37728 -16.51018,-20.10237 -5.6931,-7.52391 -9.05109,-11.7248 -12.19228,-15.25302 -2.65046,-2.97683 -13.93001,-14.29966 -16.05627,-16.11794 -2.70902,-2.316527 -7.03797,-5.417803 -13.50389,-9.673176 C 108.50643,81.719218 105.09283,78.926591 97.826006,70.851944 90.074167,62.238392 85.215097,56.39599 79.438549,48.744108 67.056571,32.342412 53.274277,18.425937 39.401011,8.3167529 37.670573,7.0558119 35.613969,5.6166421 34.831131,5.1187032 L 33.407741,4.2133041 H 18.980138 Z m 59.6291447,0 3.307429,3.3922358 C 75.252,15.567778 81.543569,23.148801 94.522916,40.178712 101.5154,49.353427 103.5454,51.83384 107.0024,55.4298 c 4.78801,4.980601 10.3089,9.445604 16.60654,13.430171 12.57891,7.958888 20.15403,14.029676 29.5852,23.709992 7.29851,7.491337 8.7708,9.235157 19.56752,23.176587 6.51589,8.41379 11.05592,13.89712 15.65536,18.90738 6.78074,7.38625 11.49482,11.22371 23.36402,19.01916 11.37446,7.47051 11.51305,7.5828 20.87526,16.93323 7.66517,7.65554 13.19286,13.59859 17.03539,18.31567 0.79509,0.97609 1.47329,1.78117 1.50723,1.78863 0.0338,0.007 0.0616,-7.75038 0.0616,-17.23968 v -17.25319 l -3.38404,-3.4968 c -6.67881,-6.90082 -12.27598,-11.49889 -21.96618,-18.04583 -9.76478,-6.59721 -14.59185,-10.33415 -21.0839,-16.32127 -4.85271,-4.47521 -8.59421,-8.69705 -13.14588,-14.8338 C 184.24821,93.49905 178.26051,86.598862 168.7565,77.100596 157.53273,65.88354 148.11694,57.816882 136.44257,49.415808 122.30365,39.241309 113.70068,31.345986 106.9147,22.317435 103.57634,17.875918 99.262778,10.25703 97.537856,5.7552293 L 96.947108,4.2133041 H 80.564637 Z m 187.07891,0 -19.67496,0.060232 -19.67497,0.060232 19.55161,0.064568 19.55162,0.064568 V 27.528663 c 0,12.686 0.0555,23.065755 0.12335,23.065755 0.0679,0 0.12335,-10.435894 0.12335,-23.190557 z M 211.94102,15.446712 c -0.0635,0.04373 -0.1688,0.0575 -0.19034,0.131545 -0.0234,0.08048 -0.0411,0.161997 -0.0587,0.243817 0.0807,-0.127853 0.16126,-0.255952 0.24912,-0.375362 z M 5.5075653,44.426716 c 0.4097012,0 5.0994857,2.178254 7.1757347,3.332967 7.839108,4.359785 14.507717,9.491477 22.428749,17.258966 7.921564,7.768016 14.337374,15.289194 24.945462,29.243094 2.217798,2.917291 5.054581,6.580957 6.303584,8.141367 7.247736,9.0548 17.389123,18.33304 26.019508,23.80443 11.564767,7.33184 16.507437,11.23141 25.779547,20.33945 11.54899,11.34461 14.77002,15.09345 24.91992,29.00506 5.13309,7.03534 8.0953,10.54378 13.93467,16.50438 8.4488,8.6242 15.22375,13.96338 24.77489,19.52367 4.637,2.69955 10.62317,7.63753 16.97852,14.00646 5.22999,5.24117 12.63195,13.09366 14.8314,15.73391 2.07262,2.48801 8.69344,9.56784 15.32336,16.38536 2.24326,2.30672 4.07958,4.26107 4.08032,4.34294 7.9e-4,0.0819 -1.19249,0.708 -2.65115,1.39158 -3.41258,1.59925 -8.67229,3.26843 -14.12114,4.48123 -6.15867,1.37078 -5.89712,1.34837 -6.9218,0.5869 -0.48103,-0.35751 -1.36919,-1.32408 -1.97367,-2.1481 -7.41849,-10.11294 -14.36343,-18.0098 -24.46746,-27.82068 -8.15958,-7.92284 -10.08348,-9.46258 -18.66597,-14.94077 -7.48057,-4.77476 -10.33248,-6.80354 -13.36511,-9.5079 -1.40189,-1.25008 -3.3324,-2.94664 -4.28994,-3.77001 -2.51463,-2.16229 -8.28903,-7.99059 -11.2705,-11.37555 -3.7083,-4.20994 -7.753,-9.2987 -14.08405,-17.71913 -3.06047,-4.07069 -6.49095,-8.51143 -7.62289,-9.86833 -2.91591,-3.49533 -11.75137,-12.4023 -17.952823,-18.09834 -4.921104,-4.52007 -5.625864,-5.06975 -10.501003,-8.19004 C 70.981336,136.02312 67.017232,132.89414 57.508033,123.27885 48.876092,114.55063 46.741638,111.99883 36.744081,98.45578 30.572641,90.095754 27.746692,86.529282 24.49734,83.000389 20.845563,79.034488 15.925887,74.642574 12.758951,72.521561 9.5317383,70.360166 6.4315374,67.955281 5.8477525,67.159996 L 5.2926593,66.403971 V 55.415343 c 0,-6.076587 0.09608,-10.988627 0.214906,-10.988627 z M 186.03041,50.726927 c -0.10173,0.09071 -0.20156,0.183546 -0.30116,0.277066 0.0503,0.0058 0.10162,0.0131 0.15178,0.01831 0.0395,-0.08206 0.0797,-0.163962 0.12288,-0.2443 0.009,-0.01664 0.0176,-0.03435 0.0265,-0.05108 z m -2.496,14.330751 c -0.0306,-0.0141 -0.0104,0.03754 0.0173,0.136845 0.0317,0.03749 0.0804,0.067 0.0968,0.111789 0.0619,0.0053 0.12063,0.01029 0.17877,0.01542 -0.002,-0.0019 -0.004,-0.0039 -0.006,-0.0058 -0.17498,-0.164042 -0.25659,-0.244181 -0.28718,-0.25827 z"
         mask="none" /></clipPath></defs><g
     inkscape:label="Layer 1"
     inkscape:groupmode="layer"
     id="layer1"><circle
       style="display:inline;fill:#0053a8;fill-opacity:1;stroke:#000000;stroke-width:0;stroke-dasharray:none;stroke-opacity:1;paint-order:stroke markers fill"
       id="path236-36"
       r="125.37917"
       cy="132.29167"
       cx="132.29167" /><circle
       style="display:inline;fill:#ffffff;fill-opacity:1;stroke:#000000;stroke-width:0;stroke-dasharray:none;stroke-opacity:1;paint-order:stroke markers fill"
       id="path236"
       r="125.37917"
       cy="132.29167"
       cx="132.29167"
       clip-path="url(#clipPath2020)"
       transform="matrix(0.86609814,0,0,0.86609814,17.284929,17.714101)" /><circle
       style="fill:#427328;stroke:#ffffff;stroke-width:5.2916666;fill-opacity:0;stroke-opacity:1;stroke-dasharray:none;paint-order:normal"
       id="path236-3"
       mask="none"
       r="125.37917"
       cy="132.29167"
       cx="132.29167" /></g></svg>
