<?xml version="1.0" encoding="UTF-8" standalone="no"?>
<!-- Created with Inkscape (http://www.inkscape.org/) -->

<svg
   width="1000"
   height="1000"
   viewBox="0 0 264.58333 264.58333"
   version="1.1"
   id="svg5"
   inkscape:version="1.2.2 (b0a8486541, 2022-12-01)"
   sodipodi:docname="mutualism.svg"
   xml:space="preserve"
   xmlns:inkscape="http://www.inkscape.org/namespaces/inkscape"
   xmlns:sodipodi="http://sodipodi.sourceforge.net/DTD/sodipodi-0.dtd"
   xmlns="http://www.w3.org/2000/svg"
   xmlns:svg="http://www.w3.org/2000/svg"><sodipodi:namedview
     id="namedview7"
     pagecolor="#ffffff"
     bordercolor="#000000"
     borderopacity="0.25"
     inkscape:showpageshadow="2"
     inkscape:pageopacity="0.0"
     inkscape:pagecheckerboard="0"
     inkscape:deskcolor="#d1d1d1"
     inkscape:document-units="px"
     showgrid="false"
     inkscape:zoom="0.52787981"
     inkscape:cx="246.26818"
     inkscape:cy="401.60657"
     inkscape:window-width="1920"
     inkscape:window-height="1004"
     inkscape:window-x="0"
     inkscape:window-y="0"
     inkscape:window-maximized="1"
     inkscape:current-layer="layer1" /><defs
     id="defs2" /><g
     inkscape:label="Layer 1"
     inkscape:groupmode="layer"
     id="layer1"><circle
       style="fill:#000000;fill-opacity:1;stroke:#eecc0e;stroke-width:0;stroke-dasharray:none;stroke-opacity:1;paint-order:stroke markers fill"
       id="path236"
       cx="132.29167"
       cy="132.29167"
       r="125.37917" /><circle
       style="fill:#427328;fill-opacity:0;stroke:#ea910f;stroke-width:5.29167;stroke-dasharray:none;stroke-opacity:1;paint-order:normal"
       id="path236-3"
       cx="132.29167"
       cy="132.29167"
       r="125.37917" /><path
       style="fill:#ea910f;fill-opacity:1;stroke-width:0.929652"
       d="M 116.52578,221.65723 C 104.19121,218.30871 91.749572,212.80621 81.649475,206.23267 73.610304,201.00045 59.14367,186.0465 54.637866,178.31114 47.033271,165.25596 41.693503,148.49144 42.325372,139.65536 c 0.245193,-3.42878 0.633142,-4.14626 2.375772,-4.39385 2.543088,-0.36129 3.618933,1.88289 4.420102,9.22014 0.805341,7.37556 5.995074,21.84251 10.700962,29.83011 5.263971,8.93484 19.631808,23.33316 28.491357,28.55178 8.99032,5.29565 18.469995,9.20325 29.558005,12.18404 9.25201,2.48724 11.54646,3.98902 10.45199,6.84114 -0.74487,1.94112 -4.0324,1.87663 -11.79778,-0.23149 z m 18.88074,0.23149 c -1.11926,-2.91674 1.10383,-4.32354 9.51829,-6.02323 29.53706,-5.96644 51.23006,-22.66185 63.25081,-48.67919 3.63107,-7.859 7.33788,-20.19592 8.24636,-27.44546 0.35242,-2.81219 0.84785,-5.84519 1.10098,-6.73998 0.59813,-2.11437 4.8364,-2.16152 5.64176,-0.0628 1.07036,2.78933 -1.46728,16.09141 -5.10914,26.78162 -11.0128,32.32667 -34.76524,53.79897 -68.44421,61.8738 -9.36122,2.24442 -13.42445,2.32888 -14.20485,0.29521 z M 109.08855,207.47304 C 86.006079,201.1282 67.829911,185.25961 59.215008,163.93128 56.601267,157.46031 53.812385,146.96637 52.885302,140.11403 l -0.641282,-4.7399 6.343031,-0.59899 c 3.488669,-0.32945 9.166844,-0.60196 12.618188,-0.6056 5.888219,-0.007 6.275471,0.12231 6.280328,2.08511 0.0082,3.30743 1.932192,9.3704 2.690468,8.47832 0.378071,-0.44477 2.493135,-4.87812 4.700142,-9.85187 l 4.012724,-9.04319 8.723004,12.54676 8.722985,12.54674 -3.27143,10.79144 c -1.79929,5.93527 -3.260707,11.26135 -3.247627,11.8357 0.0137,0.57433 3.882767,3.78616 8.599287,7.1374 6.49497,4.61486 8.55938,6.58838 8.50909,8.13446 -0.0365,1.12272 -0.14112,6.01559 -0.23241,10.87301 -0.18558,9.87267 -0.13614,9.82215 -7.60325,7.76962 z m 37.17951,-3.8186 c -0.004,-2.68436 -0.24594,-7.5999 -0.53844,-10.92341 l -0.53181,-6.04275 8.05247,-5.57791 c 4.42885,-3.06784 8.4633,-6.07173 8.96546,-6.67531 0.61761,-0.74235 -0.17389,-4.73259 -2.44637,-12.33321 -1.84763,-6.17968 -3.04177,-11.75184 -2.65361,-12.38254 1.16105,-1.88663 15.41748,-22.4679 16.12174,-23.27413 0.35809,-0.40993 2.48049,3.45975 4.71642,8.5993 2.23593,5.13955 4.37001,9.34462 4.74239,9.34462 0.75788,0 2.61055,-6.0841 2.61856,-8.59928 0.004,-1.46137 1.16379,-1.62544 11.39343,-1.61266 6.26354,0.007 11.91513,0.34872 12.55908,0.75753 0.93506,0.5936 0.88413,2.3875 -0.25287,8.90756 -4.75145,27.24675 -18.72938,46.98106 -40.89301,57.73351 -7.2444,3.51454 -17.5496,6.95936 -20.81896,6.95936 -0.61938,0 -1.03052,-1.93972 -1.03448,-4.88068 z m -11.7434,-42.44514 c 0.32679,-6.3438 0.59417,-16.86018 0.59417,-23.36972 V 126.00405 L 155.8036,97.570711 c 11.37661,-15.638344 21.12918,-28.444619 21.67233,-28.4584 1.54933,-0.03931 15.04111,13.588935 19.67013,19.869085 8.42972,11.436544 13.27462,23.999294 13.27462,34.420914 v 5.23993 l -11.27262,-0.26102 -11.2726,-0.26103 -2.15785,-6.41149 c -2.2888,-6.80058 -6.7486,-14.77906 -8.29959,-14.84773 -0.51131,-0.0226 -10.17505,14.48489 -21.47498,32.23895 -11.29992,17.75406 -20.87546,32.58688 -21.27894,32.96184 -0.40349,0.37496 -0.46625,-4.50865 -0.13944,-10.85246 z M 106.34991,138.76553 C 90.702431,114.09569 85.402258,106.41501 84.527112,107.14131 82.630588,108.71529 78.210144,117.4246 76.500309,122.956 l -1.596331,5.16419 -11.262096,0.26103 -11.262111,0.26102 v -5.90262 c 0,-14.48072 8.568016,-30.561335 24.582697,-46.13724 6.910432,-6.721094 8.22675,-7.638528 9.336991,-6.507567 0.710855,0.724116 10.303699,13.657706 21.317431,28.741318 l 20.02499,27.424759 0.0198,22.54406 c 0.0109,12.39925 -0.12971,22.54407 -0.31251,22.54407 -0.18282,0 -9.63252,-14.66257 -20.99933,-32.58349 z M 41.532727,129.9081 c -1.543908,-4.02337 2.093311,-22.90501 6.526451,-33.880403 7.220435,-17.875991 21.507303,-33.088853 40.342458,-42.957224 9.264679,-4.854077 22.323434,-9.434588 31.407324,-11.016478 5.42572,-0.944847 6.37815,-0.889921 7.71286,0.444785 2.61196,2.611954 0.28223,4.574781 -7.37382,6.212521 -38.889278,8.318991 -63.593443,31.201475 -70.662666,65.452029 -0.951177,4.60843 -1.734901,9.70436 -1.741619,11.32427 -0.0068,1.61995 -0.266139,3.60708 -0.576498,4.41585 -0.730926,1.90476 -4.904029,1.90821 -5.63449,0.004 z m 175.715303,-4.29959 c -0.5016,-0.66382 -1.66751,-4.55368 -2.59094,-8.64416 -4.90254,-21.716792 -17.41047,-41.497567 -33.52047,-53.011274 -11.35307,-8.113965 -27.76834,-14.634877 -39.99383,-15.887414 -7.0807,-0.725439 -9.36032,-2.248781 -7.78106,-5.199654 0.93331,-1.743887 1.61682,-1.871815 7.40736,-1.386356 19.71556,1.652881 44.1274,14.00365 57.44388,29.062799 9.84108,11.128935 17.98446,26.53765 22.00178,41.631279 2.77414,10.42276 2.74607,13.95577 -0.1141,14.36444 -1.06735,0.15249 -2.35105,-0.26586 -2.85264,-0.92966 z m -92.58778,-8.28777 c -1.91742,-2.34656 -3.48621,-4.53717 -3.48621,-4.86798 0,-0.33083 1.47734,-0.60149 3.28296,-0.60149 3.75047,0 4.40805,1.01756 3.98379,6.1647 l -0.29435,3.57127 z m 9.55394,-0.5888 -0.025,-4.88067 h 3.75132 c 4.26027,0 4.18208,0.5564 -0.91467,6.50757 l -2.78664,3.25378 z m -16.84113,-10.72253 c -0.81228,-1.1331 -4.68993,-6.501679 -8.617,-11.930173 l -7.14015,-9.869963 3.88756,-12.441687 c 2.13816,-6.842924 3.96963,-12.556927 4.0699,-12.697783 0.10029,-0.140855 3.9019,-0.892101 8.44804,-1.669436 4.54615,-0.777333 8.99782,-1.631553 9.89261,-1.898264 1.49997,-0.447097 1.6269,0.631625 1.6269,13.827016 v 14.311947 l -3.85477,8.759603 c -2.12012,4.817771 -4.10877,10.18944 -4.41921,11.93703 -0.6875,3.87017 -1.93422,4.40542 -3.89388,1.67171 z m 24.84783,1.47821 c -0.32696,-0.32697 -0.5945,-1.36829 -0.5945,-2.31402 0,-0.94574 -2.03375,-6.628249 -4.51945,-12.627779 l -4.51947,-10.908257 0.45744,-13.317857 c 0.44597,-12.983769 0.50687,-13.306537 2.42775,-12.866644 1.08366,0.248165 5.10788,0.968929 8.94269,1.601697 3.83482,0.632769 7.45935,1.611808 8.05453,2.175643 0.59517,0.563834 2.76929,6.396759 4.83135,12.962055 l 3.74922,11.936901 -8.46651,11.574023 c -8.88775,12.149868 -9.40697,12.740308 -10.36305,11.784238 z"
       id="path14301" /></g></svg>
