<?xml version="1.0" encoding="UTF-8" standalone="no"?>
<!-- Created with Inkscape (http://www.inkscape.org/) -->

<svg
   width="1000"
   height="1000"
   viewBox="0 0 264.58333 264.58333"
   version="1.1"
   id="svg5"
   inkscape:version="1.2.2 (b0a8486541, 2022-12-01)"
   sodipodi:docname="social_distributism.svg"
   xml:space="preserve"
   xmlns:inkscape="http://www.inkscape.org/namespaces/inkscape"
   xmlns:sodipodi="http://sodipodi.sourceforge.net/DTD/sodipodi-0.dtd"
   xmlns="http://www.w3.org/2000/svg"
   xmlns:svg="http://www.w3.org/2000/svg"><sodipodi:namedview
     id="namedview7"
     pagecolor="#ffffff"
     bordercolor="#000000"
     borderopacity="0.25"
     inkscape:showpageshadow="2"
     inkscape:pageopacity="0.0"
     inkscape:pagecheckerboard="0"
     inkscape:deskcolor="#d1d1d1"
     inkscape:document-units="px"
     showgrid="false"
     inkscape:zoom="0.74653479"
     inkscape:cx="698.56088"
     inkscape:cy="506.33943"
     inkscape:window-width="1920"
     inkscape:window-height="1004"
     inkscape:window-x="0"
     inkscape:window-y="0"
     inkscape:window-maximized="1"
     inkscape:current-layer="layer1" /><defs
     id="defs2" /><g
     inkscape:label="Layer 1"
     inkscape:groupmode="layer"
     id="layer1"><circle
       style="fill:#e30606;fill-opacity:1;stroke:#ea8a12;stroke-width:0;stroke-dasharray:none;stroke-opacity:1;paint-order:stroke markers fill"
       id="path236"
       cx="132.29167"
       cy="132.29167"
       r="125.37917" /><circle
       style="fill:#427328;fill-opacity:0;stroke:#ffcb14;stroke-width:5.29167;stroke-dasharray:none;stroke-opacity:1;paint-order:normal"
       id="path236-3"
       cx="132.29167"
       cy="132.29167"
       r="125.37917" /><path
       style="fill:#ffcb14;fill-opacity:1;stroke-width:0.169582"
       d="m 29.456907,171.69319 c -0.27981,-0.17648 -0.614019,-0.44836 -0.742688,-0.60418 l -0.233932,-0.28329 0.09386,-0.57841 c 0.0516,-0.31812 0.227928,-0.783 0.391778,-1.03308 0.163858,-0.25007 1.036112,-1.01371 1.938351,-1.69699 0.902243,-0.68328 2.02637,-1.67532 2.49806,-2.20455 0.47169,-0.52923 1.629634,-2.08488 2.573206,-3.457 0.943574,-1.37213 2.135767,-3.02428 2.649331,-3.67145 0.513556,-0.64718 1.536195,-1.79116 2.27252,-2.54219 l 1.338772,-1.36549 0.897245,-0.48835 0.897244,-0.48833 1.531454,-0.12813 c 0.842296,-0.0704 2.561667,-0.28329 3.820823,-0.47294 1.259154,-0.18964 3.739307,-0.49672 5.511453,-0.68239 1.772142,-0.18568 6.121955,-0.53392 9.666243,-0.77388 3.544287,-0.23996 6.51327,-0.45674 6.597739,-0.48172 0.08446,-0.025 -0.678658,-0.14028 -1.695829,-0.25623 -1.017178,-0.11594 -4.978221,-0.70126 -8.802326,-1.30071 -3.824098,-0.59947 -7.868655,-1.20353 -8.987905,-1.3424 -1.119248,-0.13885 -3.061392,-0.33178 -4.315874,-0.42871 -1.254483,-0.097 -2.826019,-0.17624 -3.492301,-0.17624 h -1.211429 l -0.990695,0.34085 c -0.544881,0.18746 -1.719064,0.73002 -2.60929,1.20569 -0.890234,0.47565 -2.519034,1.47511 -3.619555,2.22102 l -2.000951,1.35617 -1.572666,1.48052 -1.572665,1.48056 -1.359245,0.36676 c -0.747585,0.20172 -1.688594,0.36676 -2.091138,0.36676 -0.402545,0 -1.024236,-0.0876 -1.381531,-0.19465 -0.357293,-0.10704 -0.881791,-0.39321 -1.165544,-0.63593 l -0.515915,-0.4413 -0.09863,-0.52027 -0.09862,-0.52028 0.459186,-0.54571 c 0.252552,-0.30015 0.680163,-0.65998 0.950251,-0.79965 0.270093,-0.13968 1.157673,-0.48911 1.972403,-0.77654 0.81473,-0.28742 2.01552,-0.7901 2.668412,-1.11707 0.652897,-0.32694 1.807104,-0.99704 2.564905,-1.48909 0.757808,-0.49205 2.525583,-1.81096 3.928398,-2.93092 1.402817,-1.11996 3.034015,-2.30468 3.624881,-2.63271 0.590867,-0.32803 1.494029,-0.71128 2.007015,-0.85163 l 0.932708,-0.25519 5.511455,-0.0882 c 3.031294,-0.0485 7.800824,-0.21133 10.59895,-0.3618 l 5.087495,-0.27359 5.114313,-0.0333 5.114319,-0.0333 0.71591,-0.81332 c 0.393751,-0.44732 1.182958,-1.12649 1.753802,-1.50926 0.570838,-0.3828 1.060436,-0.71306 1.087991,-0.73395 0.02757,-0.0208 -0.179382,-0.81043 -0.459852,-1.75454 -0.280471,-0.9441 -0.627343,-2.33541 -0.770826,-3.09179 l -0.26088,-1.37518 v -1.40488 -1.40486 l 0.344098,-1.11405 0.344091,-1.11406 -0.875742,-1.91391 c -0.481657,-1.05265 -1.712629,-3.97434 -2.735486,-6.49264 l -1.859751,-4.57875 -0.132644,-1.0175 -0.132643,-1.0175 0.16203,-1.52625 0.162038,-1.52626 0.522665,-1.58269 0.522663,-1.5827 0.652257,-1.00916 c 0.358743,-0.55504 0.652258,-1.04476 0.652258,-1.08823 0,-0.0434 -0.162461,-0.0791 -0.361026,-0.0791 -0.198564,0 -1.514953,0.5429 -2.925314,1.20648 -1.410354,0.66356 -3.747122,1.76501 -5.192822,2.44768 -1.445695,0.68267 -2.838396,1.2927 -3.09489,1.35565 l -0.466356,0.11445 v -0.25371 c 0,-0.13955 0.279464,-0.66292 0.621028,-1.16307 0.341567,-0.50012 1.18746,-1.65113 1.879763,-2.55778 0.692302,-0.90665 1.718813,-2.07441 2.281128,-2.59501 0.562318,-0.52062 1.432683,-1.24966 1.934151,-1.62011 0.501462,-0.37045 1.351316,-0.946995 1.888569,-1.281216 0.537245,-0.334232 0.862346,-0.56611 0.72244,-0.515316 -0.139906,0.05089 -1.193695,0.478715 -2.341755,0.950921 -1.148053,0.472201 -2.226159,0.858561 -2.395791,0.858561 -0.169633,0 -0.411648,-0.12438 -0.537811,-0.2764 l -0.229387,-0.2764 0.777824,-0.698696 c 0.427805,-0.3843 1.303885,-1.00714 1.946856,-1.384103 0.642956,-0.376984 1.784555,-0.963335 2.536877,-1.303013 0.752321,-0.339688 2.506798,-0.966084 3.898832,-1.392002 l 2.530979,-0.774384 h 0.729063 0.729067 l 0.666859,0.340209 c 0.366773,0.187123 0.922312,0.564495 1.234527,0.838625 l 0.56766,0.498415 0.751321,-0.260151 c 0.41323,-0.143094 1.285511,-0.361034 1.938407,-0.484304 0.6529,-0.123281 1.997138,-0.277542 2.987199,-0.342795 l 1.800124,-0.118641 0.353647,0.112245 0.353642,0.112255 0.358327,0.579761 0.358325,0.579781 0.589663,0.162824 0.589663,0.162804 0.62908,-0.08655 c 0.345987,-0.04772 1.333817,-0.242228 2.195171,-0.432498 l 1.566095,-0.345942 -0.109807,-0.191669 c -0.06037,-0.105287 -0.530087,-0.793931 -1.043758,-1.53015 -0.513679,-0.736209 -1.109962,-1.766431 -1.325082,-2.28937 l -0.391124,-0.950797 -0.0039,-0.641264 -0.0039,-0.641248 0.255685,-0.09812 0.255686,-0.09812 0.465044,0.300014 c 0.255774,0.164998 1.306942,1.146375 2.335934,2.180828 1.028991,1.034452 2.285264,2.33019 2.791724,2.879399 l 0.92084,0.998577 2.550126,-0.139568 c 1.40258,-0.07674 2.89354,-0.144544 3.31326,-0.150654 l 0.76312,-0.01114 -0.0507,0.339167 c -0.0279,0.18654 -0.0702,0.878883 -0.0942,1.538528 l -0.0435,1.199342 -0.37764,0.530346 c -0.2077,0.291684 -0.69158,0.799079 -1.07531,1.127539 l -0.69768,0.59718 0.1672,0.21686 c 0.092,0.11928 0.69066,0.86552 1.33045,1.65832 0.63979,0.79281 1.17071,1.45773 1.1798,1.47764 0.009,0.0199 0.38978,-0.0762 0.84593,-0.21344 l 0.82938,-0.2496 2.04172,0.26644 2.0417,0.26645 0.85184,-0.11422 c 0.4685,-0.0627 1.11891,-0.22397 1.44536,-0.35808 0.32645,-0.13411 0.88901,-0.52629 1.25012,-0.87149 0.36113,-0.34522 0.90426,-1.00923 1.20695,-1.47557 0.30269,-0.46636 0.98125,-1.801821 1.50792,-2.967708 0.52667,-1.165877 1.23757,-2.577661 1.57977,-3.137282 0.34221,-0.559632 0.87779,-1.360909 1.19014,-1.780625 0.31237,-0.419726 1.1951,-1.398163 1.96162,-2.174314 l 1.39369,-1.411191 1.37548,-0.92054 c 0.75652,-0.506296 2.01611,-1.220738 2.79905,-1.58764 0.78297,-0.366909 2.08853,-0.859801 2.90127,-1.095323 0.81273,-0.235521 2.10962,-0.511244 2.88197,-0.612717 l 1.40429,-0.184483 2.11979,0.05031 2.11979,0.05031 -1.9502,0.660109 c -1.07261,0.363056 -2.63013,1.006655 -3.46115,1.430209 l -1.51092,0.770114 -0.93369,0.943954 c -0.51351,0.519173 -1.33164,1.55444 -1.81805,2.300602 -0.48641,0.746171 -1.20787,2.005318 -1.60328,2.798115 -0.39538,0.792806 -1.13851,2.090118 -1.65138,2.882924 l -0.93251,1.441458 -1.31161,1.282098 c -0.72137,0.70516 -1.44864,1.49128 -1.61617,1.74694 l -0.30457,0.46483 0.17919,0.17918 0.17917,0.17918 0.65155,-0.20891 c 0.35835,-0.11491 1.09865,-0.47711 1.64509,-0.80489 0.54644,-0.32781 1.55468,-1.04193 2.24053,-1.58695 0.68585,-0.545024 1.7872,-1.500533 2.44744,-2.123372 l 1.20041,-1.132413 1.43765,-1.904528 1.43765,-1.904549 1.24398,-1.181643 1.24397,-1.181654 0.97226,-0.459944 c 0.53473,-0.252977 1.48072,-0.580472 2.10219,-0.727768 l 1.12995,-0.267807 9.41187,-0.108024 9.41185,-0.108015 1.13459,-0.308639 1.13458,-0.308644 2.08751,-1.150994 c 1.14811,-0.633048 2.11892,-1.121319 2.15732,-1.085049 0.0383,0.03626 -0.24824,0.810788 -0.63697,1.72116 l -0.70677,1.65522 -0.76171,0.970496 -0.76172,0.970508 -0.89071,0.514171 c -0.48988,0.282794 -1.38673,0.67017 -1.99298,0.860838 -0.60627,0.190669 -1.90357,0.453977 -2.88292,0.585136 -0.97934,0.131148 -3.84107,0.354862 -6.35937,0.497148 l -4.57874,0.25869 -0.67833,0.179173 c -0.37308,0.0986 -0.98358,0.305999 -1.35667,0.461037 -0.37309,0.155028 -1.09804,0.563075 -1.61104,0.906738 -0.51298,0.343683 -1.54321,1.180856 -2.28938,1.860386 -0.74616,0.67954 -2.34872,2.171024 -3.56124,3.314422 -1.21252,1.1434 -2.56841,2.35555 -3.0131,2.69366 -0.44469,0.33812 -1.36043,0.93975 -2.035,1.33697 -0.67456,0.3972 -1.87673,1.00035 -2.67151,1.34028 -0.79477,0.33998 -2.16839,0.8102 -3.0525,1.04497 -0.8841,0.23476 -2.48506,0.57402 -3.55766,0.7539 -1.07263,0.17989 -3.43831,0.45416 -5.25709,0.6095 -1.81878,0.15536 -3.42135,0.32261 -3.56125,0.37169 l -0.25436,0.0893 0.33917,0.13019 c 0.18653,0.0716 1.02596,0.23534 1.8654,0.36385 l 1.52626,0.23367 3.39165,-0.0107 3.39168,-0.0107 2.20457,-0.29154 c 1.21253,-0.16033 2.96771,-0.48278 3.90041,-0.71652 l 1.69584,-0.42503 2.03499,-1.00389 c 1.11924,-0.55213 3.33232,-1.77877 4.91792,-2.72588 1.58559,-0.9471 3.60787,-2.0846 4.49395,-2.52778 0.88607,-0.44318 2.07254,-0.96322 2.63658,-1.15566 0.56405,-0.19245 1.67057,-0.48889 2.45895,-0.65877 l 1.43343,-0.30891 5.34186,0.0211 5.34187,0.0211 4.64793,0.27248 4.64794,0.27248 1.27337,-1.1415 c 0.70034,-0.627826 1.92836,-1.725386 2.72893,-2.439013 0.80056,-0.713617 1.47621,-1.27805 1.50144,-1.254283 0.0251,0.02371 -0.24338,0.760293 -0.59688,1.636683 -0.35351,0.87639 -0.93986,2.039815 -1.30303,2.585403 l -0.66026,0.99194 -0.99056,0.82435 c -0.54479,0.45338 -1.33964,1.02893 -1.76633,1.27899 -0.42668,0.25005 -1.32303,0.67795 -1.99189,0.9509 -0.66883,0.27293 -1.82658,0.64549 -2.57275,0.8279 -0.74617,0.18242 -2.11978,0.44295 -3.05249,0.57897 l -1.69583,0.24732 -1.95022,0.006 -1.95019,0.006 -1.52626,0.23499 c -0.83944,0.12924 -2.29709,0.43158 -3.23924,0.67186 -0.94214,0.24027 -2.92625,0.86367 -4.40916,1.3853 -1.4829,0.52165 -4.10795,1.4388 -5.83345,2.03812 l -3.1373,1.08969 -3.30687,0.8343 c -1.81878,0.45886 -4.26079,0.99128 -5.42666,1.18315 -1.16588,0.19186 -2.91008,0.42706 -3.87599,0.52267 -0.96591,0.0956 -3.1629,0.17384 -4.8822,0.17384 h -3.12602 l -1.64675,-0.18191 c -0.90572,-0.0999 -2.72838,-0.40591 -4.05037,-0.6798 -1.32198,-0.27389 -3.14373,-0.69028 -4.04831,-0.92531 -0.90459,-0.23504 -2.05308,-0.62051 -2.55221,-0.85665 l -0.9075,-0.42931 -0.5719,-0.66815 c -0.31454,-0.36748 -0.65609,-0.66814 -0.759,-0.66814 -0.10293,0 -0.37026,-0.24802 -0.59414,-0.55116 -0.22387,-0.30311 -0.9135,-1.46688 -1.53248,-2.58613 -0.619,-1.11925 -1.19249,-2.13722 -1.27441,-2.26216 l -0.14897,-0.22715 -0.65893,0.3275 c -0.362417,0.18014 -1.154967,0.46093 -1.761227,0.62398 -0.60626,0.16306 -1.784908,0.63791 -2.619226,1.05522 -0.834316,0.41731 -2.169782,1.18181 -2.967706,1.69889 -0.797918,0.51709 -1.701674,1.12879 -2.008348,1.35934 l -0.557576,0.41915 1.320704,0.94577 c 0.726389,0.52016 1.928807,1.40779 2.672052,1.97251 0.743239,0.56472 2.231334,1.78436 3.306868,2.71033 1.075532,0.92596 2.413392,2.12823 2.973009,2.67168 l 1.01751,0.98812 1.59495,0.18002 1.59494,0.18002 1.27087,0.42661 c 0.69898,0.23465 1.77458,0.72988 2.39026,1.10054 0.61567,0.37066 1.23434,0.7559 1.37485,0.85609 l 0.25544,0.18217 3.56017,-1.10666 c 1.95809,-0.60864 4.55224,-1.38465 5.76475,-1.72446 1.21252,-0.33982 3.27295,-0.87212 4.57875,-1.1829 1.30579,-0.31077 3.17544,-0.72215 4.15478,-0.91421 0.97936,-0.19204 2.65822,-0.47998 3.73084,-0.63987 l 1.9502,-0.29075 4.57875,-0.0312 4.57874,-0.0312 1.10229,-0.18731 c 0.60627,-0.10304 2.24718,-0.26358 3.64649,-0.35681 l 2.54419,-0.16948 2.71289,0.16069 c 1.4921,0.0884 3.44972,0.27398 4.35028,0.41245 0.90057,0.13846 2.57944,0.48955 3.73083,0.7802 1.1514,0.29067 2.8184,0.79921 3.70449,1.13013 0.88606,0.33092 2.22152,0.90646 2.96769,1.279 0.74616,0.37253 1.96716,1.07471 2.71333,1.5604 0.74617,0.4857 1.89702,1.38018 2.55745,1.98775 l 1.2008,1.10466 1.51253,0.85258 c 0.8319,0.46893 2.58092,1.38544 3.88671,2.03671 1.3058,0.65127 3.36678,1.57288 4.57997,2.04805 1.21321,0.47519 3.19731,1.13337 4.40916,1.46267 1.21187,0.3293 2.96649,0.72282 3.89919,0.87451 l 1.69584,0.27576 h 2.45895 2.45896 l 1.61808,-0.26631 c 0.88994,-0.14646 2.22541,-0.46752 2.96769,-0.71346 0.74231,-0.24595 1.96015,-0.76347 2.70631,-1.15009 l 1.35666,-0.70292 1.54565,-1.52626 1.54567,-1.52625 0.78043,-1.34342 c 0.42924,-0.73887 1.08587,-2.03986 1.45918,-2.89108 0.3733,-0.85121 0.8049,-2.04002 0.95906,-2.64178 l 0.27999,-1.09472 -0.0927,-2.20459 -0.0928,-2.20458 -0.36321,-1.34299 c -0.19977,-0.73865 -0.58009,-1.82135 -0.84518,-2.40595 -0.26506,-0.58463 -0.73197,-1.43021 -1.03754,-1.87909 -0.30556,-0.44885 -1.09472,-1.3788 -1.75368,-2.06651 -0.65894,-0.6877 -1.57964,-1.53195 -2.046,-1.87607 -0.46634,-0.34412 -1.26764,-0.86082 -1.78062,-1.14821 -0.51299,-0.28739 -1.47505,-0.71581 -2.13791,-0.95205 -0.66288,-0.23623 -1.79398,-0.51141 -2.51362,-0.61149 -0.71965,-0.10004 -1.81801,-0.18188 -2.44084,-0.18175 -0.62284,1.2e-4 -1.74291,0.10869 -2.48908,0.24125 -0.74616,0.13256 -1.9798,0.46264 -2.74139,0.73351 -0.76161,0.27086 -1.8296,0.75371 -2.37335,1.073 l -0.98863,0.58053 -1.02997,1.01751 -1.03,1.01751 -0.48635,0.99914 -0.48633,0.99915 -0.0734,1.39755 -0.0734,1.39756 0.29944,0.91016 c 0.16467,0.5006 0.51753,1.22968 0.78411,1.62017 0.26657,0.39052 0.813,0.97904 1.21427,1.30785 0.40127,0.32881 1.22788,0.83101 1.83687,1.11601 l 1.10732,0.51817 1.51511,0.1398 1.5151,0.13981 0.38831,0.20781 0.3883,0.2078 -0.0532,0.27616 -0.0532,0.27615 -0.59263,0.3461 -0.59264,0.34612 -1.27222,-0.006 -1.27224,-0.006 -0.9327,-0.22192 c -0.513,-0.12205 -1.48335,-0.48229 -2.15639,-0.80051 l -1.22369,-0.57862 -1.0086,-0.93379 c -0.55476,-0.5136 -1.24385,-1.30035 -1.53132,-1.74833 -0.28747,-0.44799 -0.68405,-1.26624 -0.88129,-1.81834 l -0.35861,-1.0038 0.003,-1.52625 0.003,-1.52626 0.37123,-1.18708 c 0.20419,-0.6529 0.60504,-1.59917 0.89077,-2.10286 0.28573,-0.50366 1.02245,-1.45104 1.6372,-2.1053 l 1.11767,-1.18955 1.21771,-0.798112 c 0.66973,-0.438956 1.89072,-1.080025 2.71333,-1.424597 0.82259,-0.344562 2.14428,-0.782344 2.93707,-0.972848 l 1.44146,-0.346361 2.03499,-0.08542 2.03502,-0.08542 1.59427,0.277623 c 0.87685,0.152688 2.16393,0.468844 2.86014,0.702561 0.69625,0.233707 1.88662,0.734636 2.64532,1.113163 0.75869,0.378526 1.91361,1.038386 2.5665,1.466361 l 1.18709,0.77814 1.44762,1.45355 1.44762,1.45356 0.81321,1.30835 c 0.44726,0.71958 1.06952,1.9612 1.38278,2.75915 0.31326,0.79795 0.72557,2.07885 0.91621,2.84645 0.19067,0.76759 0.43142,2.15875 0.535,3.09145 l 0.18834,1.69583 -0.11231,1.35667 c -0.0618,0.74617 -0.22432,1.90797 -0.36125,2.5818 -0.13692,0.67382 -0.43672,1.724 -0.66622,2.33371 -0.2295,0.60973 -0.77077,1.81243 -1.20283,2.6727 -0.43204,0.86026 -1.15892,2.11745 -1.61527,2.79374 -0.45636,0.67629 -1.29513,1.72712 -1.86391,2.33517 -0.56881,0.60805 -1.49789,1.45409 -2.06459,1.8801 -0.56671,0.42601 -1.36771,0.97226 -1.78005,1.21387 -0.4123,0.24163 -1.40855,0.72163 -2.21386,1.06664 -0.80534,0.34504 -2.22736,0.82599 -3.16008,1.06883 -0.93271,0.24282 -2.5964,0.55861 -3.69711,0.70173 l -2.00135,0.26024 h -2.24906 -2.24909 l -1.91775,-0.25294 c -1.05477,-0.13911 -2.57617,-0.40782 -3.38088,-0.59714 -0.80472,-0.1893 -2.1881,-0.5816 -3.07416,-0.87178 -0.88608,-0.29018 -2.37558,-0.88541 -3.31005,-1.32278 -0.93447,-0.43734 -2.14608,-1.08117 -2.69251,-1.43072 l -0.99351,-0.63552 1.74432,1.91951 c 0.95938,1.05573 2.55258,2.87045 3.54043,4.03274 0.98786,1.16226 1.95397,2.2688 2.14691,2.45893 0.19293,0.19016 1.20585,0.94317 2.25093,1.67336 l 1.90014,1.32764 1.12958,0.15995 1.12957,0.15998 1.45259,0.60694 c 0.79896,0.3338 1.98682,0.79531 2.63971,1.02557 l 1.18709,0.41862 1.45281,0.014 1.4528,0.014 1.26054,-0.29992 1.2605,-0.29992 1.52626,-0.71742 1.52624,-0.71742 0.859,-0.86686 0.85898,-0.86685 0.4484,-0.89741 c 0.2466,-0.49357 0.67389,-1.68304 0.94951,-2.64326 0.27564,-0.96022 0.62613,-1.9366 0.77889,-2.16975 0.15277,-0.23314 0.47223,-0.49785 0.70993,-0.58822 l 0.43218,-0.16431 1.41959,0.33715 c 0.78076,0.18543 2.10667,0.60252 2.94645,0.92685 0.83979,0.32432 2.34912,1.00019 3.35406,1.50194 1.00495,0.50175 3.39158,1.81686 5.30362,2.92245 1.91205,1.10561 4.19399,2.34549 5.07099,2.75533 l 1.59453,0.74516 0.77962,0.0205 c 0.42882,0.0113 1.81744,-0.0439 3.08583,-0.12269 l 2.30617,-0.14324 0.87759,0.47765 0.87759,0.47765 0.71665,0.79715 c 0.39414,0.43844 0.93873,1.15987 1.21018,1.6032 0.27144,0.44331 0.59467,1.09959 0.71829,1.45839 l 0.22478,0.65238 -0.14772,0.3862 c -0.0812,0.2124 -0.28997,0.51009 -0.4639,0.66153 -0.17394,0.15142 -0.58333,0.35465 -0.90978,0.45162 -0.32644,0.097 -0.97948,0.22177 -1.45118,0.27732 l -0.85765,0.10095 -1.71671,-0.17615 -1.7167,-0.17617 -0.96989,-0.33369 c -0.53343,-0.18354 -1.4354,-0.59473 -2.0044,-0.9138 -0.56897,-0.31906 -2.29366,-1.46344 -3.83263,-2.54307 l -2.79811,-1.96299 -1.86542,-0.91274 c -1.02598,-0.50201 -2.36144,-1.04655 -2.96771,-1.21009 l -1.10229,-0.29735 -1.54069,-9.4e-4 -1.54072,-9.3e-4 -1.12111,0.3731 -1.12113,0.37308 -1.32339,0.80998 c -0.72784,0.44551 -2.36728,1.47067 -3.6432,2.27817 -1.27589,0.80751 -3.21551,1.96062 -4.31024,2.5625 l -1.99039,1.09432 -1.78489,0.63592 -1.78488,0.63592 0.58363,0.23816 c 0.32099,0.13098 1.12641,0.37696 1.78981,0.54664 l 1.20616,0.30848 1.76158,0.11315 1.76156,0.11319 1.0175,-0.17012 c 0.55961,-0.0935 1.46344,-0.33763 2.00848,-0.54235 l 0.99098,-0.37223 0.87445,-0.71086 0.87442,-0.71087 0.88885,-1.26362 c 0.48887,-0.69499 1.14358,-1.56526 1.45491,-1.93397 l 0.56602,-0.67038 0.61112,0.0174 0.61112,0.0173 1.57656,1.077 1.57657,1.07701 1.76668,1.69583 c 0.97167,0.93271 3.08373,3.22718 4.69341,5.09882 1.6097,1.87163 3.52737,4.01669 4.26152,4.76678 0.73415,0.75011 1.58744,1.49447 1.89621,1.65414 0.30876,0.15966 1.44642,0.51695 2.52812,0.79394 1.08167,0.277 2.20668,0.61752 2.49996,0.75669 0.29329,0.13919 0.80733,0.53672 1.1423,0.88342 0.33497,0.34671 0.80587,1.00422 1.04646,1.46115 0.2406,0.45692 0.43745,0.96587 0.43745,1.13099 0,0.16511 0.12124,0.77343 0.26942,1.35183 l 0.26941,1.05163 -0.10241,0.54598 -0.10239,0.546 -0.4291,0.40311 -0.4291,0.40312 -0.88363,-0.0128 -0.88362,-0.0127 -1.00647,-0.29258 c -0.55356,-0.16093 -1.64153,-0.60593 -2.41773,-0.98891 l -1.41126,-0.69633 -0.91596,-0.81638 c -0.50378,-0.44901 -1.44324,-1.48384 -2.08769,-2.29962 -0.64444,-0.81575 -1.81327,-2.39896 -2.59737,-3.51822 l -1.42565,-2.03499 -1.52956,-1.54633 -1.52954,-1.54634 -0.93271,-0.59324 c -0.51299,-0.32627 -1.50504,-0.8034 -2.20459,-1.06027 l -1.27186,-0.46704 -1.44145,-9.3e-4 -1.44146,-9.4e-4 -3.30687,0.77691 c -1.81879,0.42729 -4.33709,1.00302 -5.59625,1.27937 -1.25916,0.27636 -3.28143,0.63443 -4.49395,0.79573 l -2.20459,0.29327 -6.61374,-0.1038 -6.61374,-0.10378 -1.10229,-0.1805 c -0.60626,-0.0993 -1.86542,-0.41329 -2.79813,-0.6978 l -1.69582,-0.51729 -2.37417,-1.18651 -2.37417,-1.18648 -1.95733,-0.57225 c -1.07652,-0.31472 -2.67908,-0.84665 -3.56124,-1.18205 -0.88217,-0.33541 -2.48152,-1.00285 -3.55413,-1.4832 -1.07262,-0.48034 -2.86596,-1.36801 -3.98521,-1.97258 -1.11924,-0.60454 -2.97395,-1.69452 -4.12157,-2.42215 -1.14763,-0.7276 -2.94095,-1.96104 -3.98521,-2.74095 -1.04425,-0.77993 -2.25106,-1.71609 -2.68181,-2.08037 -0.43074,-0.3643 -1.2829,-1.1049 -1.89369,-1.64577 l -1.11048,-0.9834 -1.01372,0.26267 c -0.55754,0.14455 -1.24132,0.26275 -1.51949,0.26275 h -0.5058 l -0.34094,-0.80551 c -0.1875,-0.44305 -0.55605,-1.47326 -0.81895,-2.28938 l -0.47802,-1.48385 h -0.44685 c -0.24576,0 -0.80974,0.10921 -1.25327,0.2427 l -0.80641,0.2427 -1.49048,0.94487 c -0.81976,0.51969 -1.91657,1.13994 -2.43734,1.37836 l -0.94685,0.43349 -1.47957,1.813 c -0.81376,0.99715 -2.48618,2.95768 -3.71652,4.35673 -1.23031,1.39907 -3.44766,3.72904 -4.92746,5.17772 -1.47979,1.44869 -3.45366,3.24859 -4.38637,3.99979 -0.93271,0.75122 -2.42079,1.86487 -3.30687,2.47478 -0.88607,0.6099 -2.31597,1.50433 -3.17756,1.9876 -0.8616,0.48328 -2.38783,1.22325 -3.39166,1.64434 -1.00383,0.42112 -2.4738,0.9548 -3.2666,1.18598 -0.7928,0.23119 -2.30756,0.56913 -3.36612,0.751 l -1.92466,0.33066 -2.31492,-9.3e-4 -2.314917,-9.4e-4 -1.695829,-0.25542 c -0.93271,-0.14049 -2.572231,-0.48924 -3.643383,-0.77501 -1.07116,-0.28577 -2.617124,-0.77815 -3.435488,-1.09422 l -1.487933,-0.57464 -0.888886,0.14983 c -0.488888,0.0824 -2.529603,0.24412 -4.534926,0.35934 l -3.646038,0.20946 -2.628537,-0.0994 -2.628539,-0.0994 -4.409166,-0.61074 c -2.425036,-0.3359 -5.859096,-0.80322 -7.631242,-1.03848 l -3.222079,-0.42777 -3.900414,-0.0945 -3.90041,-0.0945 -2.106374,0.27906 -2.10638,0.27905 -1.262609,0.42384 -1.262616,0.42386 -0.727158,0.50028 c -0.399935,0.27516 -1.147136,0.97179 -1.660449,1.54805 l -0.933285,1.04771 -2.347434,3.80979 c -1.291091,2.09539 -2.549823,4.04821 -2.797196,4.33958 l -0.449757,0.52977 -1.471717,0.75596 -1.471717,0.75595 -1.046232,0.0588 -1.046227,0.0588 z M 71.598329,98.820537 c 0,-0.04659 -0.03814,-0.08481 -0.08479,-0.08481 -0.04666,0 -0.0848,0.03822 -0.0848,0.08481 0,0.04659 0.03813,0.08471 0.0848,0.08471 0.04666,0 0.08479,-0.03811 0.08479,-0.08471 z m 83.300231,-12.096316 0.0537,-0.278427 1.77876,-1.270653 c 0.97833,-0.698853 2.32127,-1.806475 2.98432,-2.461372 l 1.20557,-1.190721 0.46252,-0.913602 0.46254,-0.913595 0.0867,-0.867027 0.0869,-0.867026 -0.28337,-0.763124 c -0.15584,-0.41972 -0.38919,-1.089286 -0.51855,-1.487927 l -0.23521,-0.724801 0.0961,-0.250301 0.0961,-0.250302 h 0.46517 0.46516 l 0.66138,0.482019 c 0.36376,0.265112 0.9925,0.843127 1.39722,1.28448 0.40471,0.441352 0.87664,1.121114 1.04873,1.510582 0.17208,0.389468 0.36401,1.094527 0.42649,1.566801 l 0.11362,0.858673 -0.28255,1.006741 -0.28255,1.006739 -0.56675,0.780844 c -0.31172,0.429459 -0.89841,1.050751 -1.30376,1.380645 -0.40534,0.329895 -1.30018,0.885433 -1.9885,1.23453 l -1.25154,0.63472 -1.97055,0.240854 c -1.0838,0.13247 -2.26095,0.305839 -2.61587,0.385272 l -0.6453,0.14441 z"
       id="path14708" /></g></svg>
