<?xml version="1.0" encoding="UTF-8" standalone="no"?>
<!-- Created with Inkscape (http://www.inkscape.org/) -->

<svg
   width="1000"
   height="1000"
   viewBox="0 0 264.58333 264.58333"
   version="1.1"
   id="svg5"
   inkscape:version="1.2.2 (b0a8486541, 2022-12-01)"
   sodipodi:docname="yellow_socialism.svg"
   xml:space="preserve"
   xmlns:inkscape="http://www.inkscape.org/namespaces/inkscape"
   xmlns:sodipodi="http://sodipodi.sourceforge.net/DTD/sodipodi-0.dtd"
   xmlns="http://www.w3.org/2000/svg"
   xmlns:svg="http://www.w3.org/2000/svg"><sodipodi:namedview
     id="namedview7"
     pagecolor="#ffffff"
     bordercolor="#000000"
     borderopacity="0.25"
     inkscape:showpageshadow="2"
     inkscape:pageopacity="0.0"
     inkscape:pagecheckerboard="0"
     inkscape:deskcolor="#d1d1d1"
     inkscape:document-units="px"
     showgrid="false"
     inkscape:zoom="0.52787981"
     inkscape:cx="272.78937"
     inkscape:cy="538.00125"
     inkscape:window-width="1920"
     inkscape:window-height="1004"
     inkscape:window-x="0"
     inkscape:window-y="0"
     inkscape:window-maximized="1"
     inkscape:current-layer="layer1" /><defs
     id="defs2" /><g
     inkscape:label="Layer 1"
     inkscape:groupmode="layer"
     id="layer1"><circle
       style="fill:#ffd000;stroke:#eecc0e;stroke-width:0;stroke-dasharray:none;stroke-opacity:1;paint-order:stroke markers fill;fill-opacity:1"
       id="path236"
       cx="132.29167"
       cy="132.29167"
       r="125.37917" /><circle
       style="fill:#427328;stroke:#000000;stroke-width:5.2916666;fill-opacity:0;stroke-opacity:1;stroke-dasharray:none;paint-order:normal"
       id="path236-3"
       cx="132.29167"
       cy="132.29167"
       r="125.37917" /><path
       style="fill:#000000;stroke-width:0.0811373"
       d="m 109.06835,235.84484 c -0.10114,-0.17619 -0.39098,-1.18475 -0.50861,-1.76982 -0.75854,-3.77307 0.12839,-7.63833 2.85703,-12.45108 0.62161,-1.09636 1.34155,-2.25531 2.90341,-4.67378 1.31409,-2.03484 2.20814,-3.50468 2.73905,-4.50312 0.30163,-0.56724 0.37482,-0.79051 0.41234,-1.25764 0.0616,-0.76644 0.3137,-1.46228 0.79947,-2.20642 0.52366,-0.80215 1.05678,-1.3577 2.49984,-2.60502 1.2911,-1.11595 2.28053,-2.05009 2.51823,-2.37749 l 0.15327,-0.21112 -0.78806,0.19068 c -0.96222,0.23281 -2.42582,0.25768 -3.73918,0.0635 -0.94858,-0.14024 -3.03699,-0.66444 -4.67581,-1.17364 -2.06759,-0.64242 -3.91083,-1.14257 -4.98995,-1.35399 -0.99192,-0.19433 -1.29455,-0.21617 -3.20492,-0.23121 -2.35916,-0.0186 -2.55477,-0.0491 -3.89548,-0.60704 -3.230102,-1.34434 -7.251904,-4.7597 -9.246889,-7.8526 -0.55695,-0.86345 -1.061683,-1.98779 -1.22217,-2.72244 -0.391931,-1.79423 0.359166,-3.08543 2.177895,-3.74398 l 0.488991,-0.17706 0.656032,0.30451 c 2.636866,1.22398 7.767121,2.40739 10.129441,2.33656 1.38399,-0.0414 1.69996,-0.29177 1.22805,-0.97275 -0.40693,-0.58718 -2.44714,-1.96968 -3.87431,-2.62527 -0.8439,-0.38768 -2.580882,-0.95454 -4.068488,-1.32775 -2.2661,-0.56852 -4.248721,-0.89414 -9.695908,-1.59239 -3.685156,-0.47236 -5.054095,-0.67815 -6.724826,-1.01086 -4.805749,-0.95702 -8.090272,-2.31715 -10.922549,-4.52306 -0.988502,-0.76989 -3.674752,-3.32953 -4.282701,-4.08084 -1.132634,-1.39974 -2.525929,-3.82742 -3.338891,-5.81772 -0.992994,-2.43103 -1.138073,-4.47629 -0.352383,-4.96734 0.487532,-0.30469 1.283601,-0.22701 2.273472,0.22185 0.729851,0.33097 2.06952,1.18808 2.495583,1.59666 0.692418,0.66402 2.235027,1.8463 3.564138,2.73162 3.857534,2.5695 8.062679,4.41084 10.741775,4.70356 0.438092,0.0478 0.814344,0.0693 0.836101,0.0475 0.04569,-0.0457 -0.92867,-1.45348 -1.5841,-2.289 -2.122902,-2.70627 -5.098519,-5.45804 -8.081225,-7.47335 -2.98282,-2.01538 -5.710101,-3.51041 -9.912328,-5.43373 -1.44931,-0.66333 -4.551666,-1.99473 -5.773836,-2.47788 -2.134075,-0.84363 -5.710537,-4.0497 -8.096095,-7.25763 -0.999482,-1.34404 -1.666611,-2.42527 -2.375486,-3.85004 -1.779848,-3.5773 -2.088629,-6.60416 -0.925445,-9.07171 0.111983,-0.2375 0.251009,-0.45004 0.308998,-0.47228 0.174016,-0.0668 1.329085,0.4376 2.108517,0.92071 1.416854,0.87821 2.769591,2.00044 5.552275,4.60615 1.924378,1.80195 2.699188,2.46419 3.482101,2.97617 0.553583,0.362 1.417559,0.71895 1.511882,0.62463 0.05605,-0.0559 -0.423247,-1.45659 -0.873844,-2.55387 -1.263251,-3.07626 -3.174076,-6.07448 -6.121395,-9.60481 -1.090695,-1.30646 -1.421783,-1.67856 -4.728985,-5.3145 -3.183496,-3.49996 -4.953399,-5.60579 -6.24006,-7.42443 -0.331356,-0.46836 -0.740141,-1.03496 -0.90841,-1.25909 -0.588689,-0.78411 -1.039733,-2.00986 -1.327934,-3.60881 -0.21561,-1.19613 -0.259942,-3.98187 -0.08523,-5.35457 0.323856,-2.54451 1.056153,-4.22166 2.072874,-4.74742 0.913249,-0.47226 2.118806,0.18715 3.351548,1.83322 0.45839,0.61208 0.461142,0.61914 0.461142,1.18477 0,1.1054 0.590455,2.91645 1.469877,4.50841 1.013139,1.83399 2.291723,3.22423 2.789583,3.03319 0.473684,-0.18178 0.30654,-1.65551 -0.454961,-4.01159 -0.791666,-2.44937 -1.888351,-4.77552 -4.291928,-9.103426 -3.088163,-5.560542 -4.180509,-8.143855 -4.786065,-11.318663 -0.14906,-0.781507 -0.35557,-3.170942 -0.284042,-3.286666 0.07014,-0.113571 0.048,-1.819995 -0.03097,-2.382519 -0.54442,-3.878183 3.511998,-9.218684 6.299007,-8.292988 0.465034,0.154462 1.102815,0.764668 1.392309,1.332111 0.274443,0.537948 0.562567,1.75689 0.6552,2.771872 0.204232,2.237802 1.011411,6.404319 1.713349,8.843973 0.315679,1.097202 0.90264,2.328134 1.167752,2.448925 0.737147,0.335869 1.258965,-1.562467 1.499134,-5.453794 0.310727,-5.034468 1.669901,-10.024771 4.220119,-15.494451 1.45955,-3.130419 4.298187,-7.977378 5.491177,-9.376141 1.024195,-1.200855 1.458794,-2.007444 2.590929,-4.808615 1.086408,-2.688029 1.620167,-3.674035 2.441025,-4.509229 0.387618,-0.394387 1.196818,-0.97117 1.495513,-1.065969 0.31573,-0.100208 1.479848,0.962328 2.271937,2.073689 2.675461,3.753876 2.916271,10.500502 0.584925,16.388067 -0.695501,1.75641 -1.728451,3.540032 -2.606224,4.50018 -0.210003,0.229714 -1.021507,1.109355 -1.803358,1.954757 -3.870115,4.184685 -5.54548,6.194645 -7.10561,8.524687 -0.901065,1.345727 -1.542225,2.580012 -1.828352,3.519697 -0.339881,1.116202 -0.21579,2.138922 0.31811,2.621744 0.160219,0.144903 0.165275,0.138969 0.345549,-0.405688 0.853482,-2.578631 3.099937,-5.41485 5.090698,-6.427162 0.846596,-0.4305 1.64383,-0.386009 2.207447,0.123195 0.627632,0.567023 0.876057,1.404731 0.971697,3.27654 0.03763,0.736321 0.130196,1.776908 0.205718,2.312415 0.191217,1.355706 0.133023,3.963579 -0.120303,5.390006 -0.900745,5.072547 -3.64506,9.944603 -9.162141,16.265863 -1.121064,1.28447 -1.362053,1.66492 -1.70201,2.68703 -0.342618,1.0301 -0.445887,1.87822 -0.393773,3.23381 0.06489,1.68909 0.47892,3.05316 1.11011,3.65789 0.990255,0.94872 2.149458,-0.91435 2.724107,-4.37813 0.362161,-2.18296 1.483456,-4.57554 2.512055,-5.36009 0.400005,-0.3051 0.999124,-0.45489 1.388903,-0.34727 0.607668,0.16778 1.242136,0.9747 1.839373,2.33932 0.126701,0.28961 0.498667,0.92858 0.826491,1.41991 2.585886,3.87571 3.818295,8.23726 3.668441,12.98281 -0.106734,3.38082 -0.831839,6.22564 -2.368267,9.29174 -0.69929,1.3955 -0.803172,1.83378 -0.797797,3.36569 0.01651,4.70185 2.837614,11.11582 4.88914,11.11582 0.22727,0 0.467657,-0.058 0.600181,-0.14486 l 0.221088,-0.14485 -0.241693,-0.3014 c -0.643426,-0.8024 -1.326525,-2.31273 -1.602952,-3.5441 -0.200483,-0.89314 -0.179545,-2.52345 0.04262,-3.31314 0.466683,-1.65925 1.391732,-2.67075 2.656302,-2.90453 1.311374,-0.24241 2.959631,0.57661 4.397514,2.18513 0.345229,0.38618 0.919775,0.97428 1.276779,1.30689 1.173357,1.09317 2.311163,2.2872 3.012295,3.1611 3.045507,3.79607 5.035397,8.50441 6.312958,14.93729 0.518695,2.61179 0.929157,5.57053 0.96279,6.94008 0.02445,0.99651 0.05401,1.20018 0.244995,1.68976 0.738861,1.89394 2.761012,3.55223 4.711664,3.86385 1.0957,0.17504 1.714591,-0.11505 1.925159,-0.90233 0.08447,-0.31597 0.07871,-0.46123 -0.03699,-0.93203 -0.172953,-0.70359 -0.570118,-1.54527 -1.099026,-2.32908 -0.226438,-0.33558 -0.643234,-1.09664 -0.926188,-1.69123 -0.282966,-0.59462 -1.038645,-2.06693 -1.67928,-3.27183 -3.970193,-7.46691 -4.715197,-10.4705 -2.799382,-11.2859 0.940649,-0.40037 3.374606,0.16962 4.940815,1.15702 3.399392,2.14313 6.69816,5.00971 9.23161,8.02212 3.01133,3.58063 5.3599,8.13845 6.35348,12.33008 0.10582,0.44625 0.37502,1.35905 0.5983,2.02842 0.22327,0.6694 0.84644,2.9879 1.3848,5.15224 1.0694,4.29924 1.32367,5.20237 1.50767,5.35508 0.30228,0.25087 0.0481,-4.7833 -0.3257,-6.45043 -0.12005,-0.53552 -0.50935,-1.95948 -0.86506,-3.16437 -1.14443,-3.87643 -1.43147,-5.3273 -1.27398,-6.43937 0.0905,-0.63896 0.2864,-0.97452 0.70702,-1.21091 0.7096,-0.39884 1.86606,-0.16009 3.86728,0.79837 0.44625,0.21373 1.13047,0.53499 1.5205,0.71394 2.13213,0.97823 4.20598,2.88186 6.20065,5.69171 0.804,1.13257 1.55615,2.28239 2.86603,4.38143 1.47176,2.35838 2.47883,3.85506 3.1995,4.75501 0.74447,0.92966 2.04303,2.13956 2.63499,2.45505 l 0.49603,0.26439 0.41916,-0.22804 c 0.23052,-0.12542 0.69592,-0.4673 1.03422,-0.75971 1.239,-1.07104 2.41107,-2.6114 4.42431,-5.8146 2.62124,-4.17053 3.57537,-5.54654 4.98345,-7.18681 1.31124,-1.52746 2.9953,-2.85104 4.51835,-3.55112 0.39914,-0.18347 1.12734,-0.52804 1.61822,-0.76571 1.23747,-0.59913 2.067,-0.86876 2.81531,-0.91509 0.56404,-0.0349 0.65937,-0.0183 0.98337,0.17159 0.56914,0.33355 0.66477,0.61203 0.65923,1.91968 -0.005,1.30379 -0.11941,1.81875 -1.26192,5.70898 -0.88875,3.02599 -1.1279,4.10307 -1.17355,5.28514 -0.0189,0.49088 -0.0717,1.53909 -0.11711,2.32935 -0.0805,1.39853 -0.0484,2.133 0.0896,2.04774 0.13959,-0.0862 0.65122,-1.8729 1.36965,-4.78278 0.84199,-3.41034 1.16816,-4.61654 1.62357,-6.00417 0.17576,-0.5355 0.41281,-1.37999 0.52679,-1.87662 0.73155,-3.18776 2.39297,-6.79593 4.56214,-9.90782 2.5779,-3.69823 6.05977,-7.04326 10.22753,-9.82562 1.56753,-1.04648 2.11339,-1.29802 3.56822,-1.64433 2.73133,-0.65023 3.68587,0.51473 2.85426,3.48345 -0.47609,1.69958 -1.64895,4.23536 -3.90833,8.44999 -0.96673,1.80334 -1.76355,3.42058 -1.76355,3.57935 0,0.0448 -0.1775,0.34452 -0.39445,0.66603 -0.21695,0.32152 -0.52778,0.84932 -0.69071,1.17288 -0.86989,1.72742 -0.6508,2.82663 0.61045,3.06281 0.65389,0.12247 2.10902,-0.32572 3.0711,-0.94588 0.81643,-0.52624 1.77144,-1.54368 2.17239,-2.31434 0.47879,-0.92029 0.58909,-1.41674 0.58256,-2.62217 -0.005,-1.02765 0.13808,-2.2688 0.53987,-4.66538 1.17821,-7.02751 3.14172,-12.18766 6.16965,-16.21417 1.01641,-1.35157 2.0392,-2.48114 3.09039,-3.413 0.48662,-0.43139 1.02377,-0.96661 1.19367,-1.1894 0.47282,-0.62 1.72208,-1.75711 2.3219,-2.11346 0.82236,-0.48857 1.3885,-0.66429 2.15487,-0.66889 0.58316,-0.004 0.72035,0.0262 1.19149,0.25817 0.94503,0.46525 1.58301,1.37912 1.93184,2.7673 0.14872,0.59189 0.16659,0.84446 0.13203,1.86615 -0.0327,0.96968 -0.0792,1.31252 -0.25843,1.91141 -0.28006,0.93568 -0.74668,1.92887 -1.26042,2.68274 l -0.40599,0.59575 0.17891,0.1253 c 0.31022,0.21728 0.66285,0.23653 1.06605,0.0582 1.70457,-0.75402 3.64244,-4.82046 4.31759,-9.06002 0.16901,-1.06137 0.19015,-2.87433 0.0416,-3.57005 -0.0596,-0.27949 -0.40926,-1.10885 -0.82083,-1.94728 -1.04492,-2.12874 -1.62469,-3.92818 -2.04238,-6.33888 -0.15924,-0.91906 -0.18116,-1.33234 -0.18236,-3.43818 -0.001,-2.52404 0.0742,-3.27215 0.52272,-5.16799 0.57896,-2.44749 1.83299,-5.28134 3.2134,-7.26164 0.23928,-0.34326 0.57698,-0.95333 0.75045,-1.35569 0.40236,-0.93324 0.74788,-1.46934 1.20815,-1.87449 0.47089,-0.4145 0.79881,-0.5071 1.31834,-0.37234 0.52082,0.1351 0.9011,0.43462 1.3874,1.09268 0.79186,1.07162 1.45403,2.74098 1.77953,4.48623 0.4895,2.62468 1.15821,4.28672 1.87359,4.65665 0.68503,0.35425 1.35753,-0.47054 1.79018,-2.19563 0.1565,-0.62404 0.18246,-0.93625 0.17867,-2.14996 -0.004,-1.26777 -0.0273,-1.50543 -0.21757,-2.21818 -0.30189,-1.13069 -0.67986,-1.83141 -1.45129,-2.69063 -3.19448,-3.55796 -5.89617,-7.32619 -7.39164,-10.30965 -1.1938,-2.381616 -1.96682,-4.827978 -2.293,-7.256586 -0.15233,-1.134222 -0.14755,-3.541596 0.009,-4.62483 0.0679,-0.468568 0.15651,-1.4909 0.19711,-2.271847 0.0997,-1.916613 0.32806,-2.695183 0.95669,-3.261413 0.94206,-0.848536 2.27051,-0.462183 3.94161,1.146318 1.50162,1.445372 2.7923,3.425169 3.33604,5.117177 0.0788,0.245441 0.17121,0.476729 0.2052,0.513973 0.0855,0.09372 0.44458,-0.406233 0.56792,-0.790778 0.16194,-0.504856 0.0605,-1.510558 -0.23317,-2.308542 -0.95159,-2.586922 -3.47526,-5.930246 -8.85478,-11.730671 -0.73634,-0.79393 -1.55347,-1.685718 -1.81587,-1.981749 -1.82805,-2.062337 -3.28333,-5.586317 -3.908,-9.463346 -0.17672,-1.096799 -0.24834,-4.141063 -0.12326,-5.239673 0.39719,-3.488781 1.83389,-6.447595 3.84901,-7.926822 l 0.39756,-0.291839 0.44925,0.235213 c 0.2471,0.129367 0.66482,0.434791 0.92828,0.678718 0.95183,0.88122 1.53702,1.918038 2.66053,4.713812 1.13778,2.831311 1.67661,3.820016 2.68802,4.932334 1.17942,1.297099 4.40519,6.949617 5.91389,10.362894 2.21264,5.005925 3.39635,9.670992 3.72637,14.685864 0.16992,2.58193 0.57591,4.585395 1.03112,5.088401 0.54733,0.604798 1.26186,-0.801552 2.04936,-4.033615 0.59399,-2.437909 1.08524,-5.1398 1.26703,-6.968935 0.13807,-1.389195 0.38811,-2.418529 0.74822,-3.080156 0.3131,-0.575268 0.85467,-1.075989 1.33707,-1.236218 2.25625,-0.749402 5.65015,2.822342 6.23594,6.56271 0.0575,0.367933 0.0697,0.915372 0.0328,1.477104 -0.0323,0.490881 -0.059,0.965535 -0.0593,1.054785 0,0.08926 0.005,0.837743 0.0128,1.663316 0.0145,1.673972 -0.0986,2.675879 -0.48137,4.259712 -0.66176,2.738975 -1.75684,5.203547 -4.50649,10.142165 -2.5811,4.635864 -3.56523,6.730244 -4.34637,9.249674 -0.69217,2.23242 -0.87824,3.48198 -0.57435,3.85726 0.22864,0.28236 0.52438,0.15413 1.18894,-0.51548 1.65974,-1.67242 3.20617,-5.03987 3.20617,-6.98157 0,-0.52265 0,-0.52314 0.56113,-1.24891 2.39917,-3.10431 4.4159,-2.20113 5.20908,2.33287 0.32937,1.88264 0.28755,4.68038 -0.0981,6.57212 -0.37619,1.84467 -0.76699,2.60209 -2.61659,5.07109 -1.40086,1.86998 -2.66347,3.3397 -6.37501,7.42075 -3.64391,4.00666 -4.99521,5.60172 -6.46422,7.63024 -1.63824,2.26223 -2.77815,4.23441 -3.70836,6.41596 -0.43187,1.01288 -0.98856,2.66016 -0.92161,2.72712 0.11378,0.11377 0.8717,-0.20359 1.51064,-0.63248 0.89544,-0.60102 1.7069,-1.29264 3.65184,-3.1125 2.61361,-2.4455 3.98195,-3.5757 5.38445,-4.4474 0.61327,-0.38116 1.83562,-0.9458 2.05494,-0.94922 0.28422,-0.004 0.8656,1.59851 1.01209,2.79045 0.3799,3.09133 -1.321,7.35066 -4.54974,11.39327 -2.27544,2.84904 -5.58835,5.72956 -7.45239,6.47973 -12.20828,4.91311 -18.85838,9.18698 -23.69433,15.22782 -0.58405,0.72955 -1.7194,2.34311 -1.7194,2.44357 0,0.082 1.10764,-0.0418 1.93293,-0.21584 3.66599,-0.77355 9.4645,-3.91227 12.9684,-7.01975 1.14871,-1.01874 2.59316,-1.86733 3.62992,-2.1325 1.29842,-0.33207 1.91537,0.14419 1.91537,1.47859 0,1.08507 -0.41465,2.58453 -1.19953,4.33781 -0.79755,1.7816 -2.10321,3.94646 -3.10968,5.15602 -0.59721,0.71772 -3.0638,3.08957 -3.98416,3.83115 -2.26861,1.8279 -5.23368,3.23355 -8.70492,4.1267 -2.34166,0.60252 -4.3368,0.94232 -9.12795,1.55465 -7.11364,0.90914 -9.99308,1.47633 -12.78353,2.51804 -1.32339,0.49405 -2.75046,1.28953 -3.99717,2.22808 -1.09995,0.82807 -1.33575,1.34825 -0.74496,1.64339 1.24734,0.62312 8.00343,-0.70344 11.24444,-2.20785 l 0.65604,-0.30452 0.489,0.17705 c 1.3113,0.4748 2.01729,1.22837 2.23188,2.38226 0.11685,0.62793 -0.0547,1.5754 -0.45357,2.50752 -1.48088,3.45983 -6.53698,8.07359 -10.49466,9.57651 -1.06883,0.40588 -1.35339,0.44293 -3.5368,0.46042 -2.76628,0.0222 -3.40298,0.14738 -8.33122,1.63858 -3.42696,1.03694 -4.77784,1.28612 -6.64737,1.22618 -0.84107,-0.027 -1.3518,-0.0853 -1.7693,-0.20172 l -0.58691,-0.16379 0.15309,0.2135 c 0.2213,0.30862 1.29348,1.3252 2.27837,2.16024 1.83757,1.558 2.83528,2.73626 3.2456,3.83294 0.0943,0.25203 0.21842,0.77415 0.27581,1.1603 0.0828,0.55677 0.17721,0.83481 0.45642,1.34359 0.66124,1.20499 1.40533,2.42619 2.83806,4.65784 1.75508,2.73377 2.39836,3.78822 3.14319,5.15224 1.09636,2.00772 2.00369,4.30286 2.36009,5.97001 0.51804,2.42322 0.42949,4.98492 -0.24939,7.21481 l -0.11123,0.36512 -0.60404,-0.002 c -1.06471,-0.005 -1.9821,-0.58055 -2.93921,-1.84203 -0.89522,-1.1799 -1.53903,-2.43189 -3.07256,-5.97498 -1.14922,-2.65516 -1.62803,-3.66548 -2.25563,-4.75936 -0.74197,-1.29325 -1.14526,-1.83265 -2.1496,-2.87494 -2.46577,-2.55897 -3.135,-3.17144 -5.76525,-5.2762 -2.55708,-2.04621 -3.61444,-3.04779 -4.27378,-4.04827 -0.76313,-1.158 -1.01028,-1.32467 -2.0044,-1.35172 -0.38479,-0.01 -0.82741,0.0128 -0.9836,0.0516 -0.42867,0.10658 -0.859,0.51094 -1.34431,1.26324 -0.70312,1.08993 -1.25117,1.59175 -5.71465,5.23265 -2.12453,1.73299 -4.99134,4.64611 -5.85757,5.95216 -0.88812,1.33906 -1.87162,3.34005 -3.30998,6.73441 -2.01495,4.75495 -3.65742,6.7975 -5.56451,6.91989 -0.31955,0.0204 -0.5993,0.005 -0.62167,-0.0335 z m 18.11239,-26.47708 c 1.58421,-1.53919 3.31038,-3.2185 3.83594,-3.7318 0.86279,-0.84263 0.97111,-0.92356 1.11564,-0.83329 0.12516,0.0782 0.19417,0.0787 0.31654,0.002 0.17551,-0.10968 -0.40967,-0.65251 5.75944,5.34344 l 3.36009,3.26578 0.65011,-0.58497 c 0.35757,-0.32174 0.92035,-0.84056 1.25061,-1.15293 l 0.60046,-0.56797 -4.51618,-4.4137 -4.51618,-4.4137 0.27061,-0.26422 c 2.13199,-2.08148 4.32553,-4.17434 4.37515,-4.17434 0.0347,0 0.64056,0.55178 1.34645,1.22618 1.87911,1.79526 3.09552,2.79011 3.23771,2.64793 0.22271,-0.22271 0.35555,-3.02789 0.20491,-4.32732 -0.243,-2.09637 -0.92404,-3.70709 -2.00965,-4.75306 -0.21611,-0.20823 -0.71664,-0.56364 -1.11229,-0.7898 -0.93677,-0.53548 -1.80631,-1.16537 -2.61575,-1.89482 -0.35883,-0.32339 -0.73357,-0.65901 -0.83277,-0.74585 l -0.18034,-0.15791 -1.74077,1.73937 c -0.95742,0.95666 -1.74078,1.76787 -1.74078,1.80273 0,0.0348 0.61157,0.70321 1.35905,1.48526 0.74747,0.78203 1.35904,1.45405 1.35904,1.49339 0,0.0393 -0.97796,1.02794 -2.17326,2.19691 -2.1204,2.07369 -2.17717,2.12191 -2.3327,1.98115 -0.15275,-0.13823 -0.16609,-0.13825 -0.31872,0 -0.15536,0.14061 -0.21285,0.0919 -2.3327,-1.97937 -1.19538,-1.16795 -2.1734,-2.15652 -2.1734,-2.19681 0,-0.0403 0.61157,-0.71312 1.35905,-1.49517 0.74748,-0.78203 1.35905,-1.45038 1.35905,-1.48524 0,-0.0348 -0.78229,-0.84501 -1.73842,-1.80036 l -1.73841,-1.737 -0.36597,0.3178 c -0.20128,0.1748 -0.59649,0.52345 -0.87825,0.77478 -0.68563,0.61154 -1.5989,1.25772 -2.46161,1.74166 -1.67394,0.93898 -2.67637,2.68018 -3.0464,5.29157 -0.11455,0.8083 -0.0563,3.79882 0.0828,4.25443 0.051,0.16734 0.13921,0.30428 0.1958,0.30428 0.18279,0 1.76085,-1.32975 3.12426,-2.63263 0.73043,-0.69801 1.36408,-1.25711 1.40812,-1.24243 0.044,0.0147 1.09869,1.01124 2.34365,2.21456 l 2.26361,2.18788 -1.64329,1.62759 c -0.9038,0.89518 -2.93474,2.8887 -4.51319,4.43004 l -2.8699,2.80244 1.24655,1.14308 1.24654,1.14308 0.64971,-0.62211 c 0.35734,-0.34216 1.94588,-1.88146 3.53009,-3.42066 z m 4.40367,-24.13352 c -1.1207,-1.18396 -2.68381,-3.38366 -4.84937,-6.82433 -0.39321,-0.62475 -1.038,-1.6036 -1.43281,-2.17521 -0.39483,-0.5716 -0.71789,-1.05538 -0.71789,-1.07507 0,-0.0197 3.46862,-0.0358 7.70805,-0.0358 4.23944,0 7.70804,0.0165 7.70804,0.0368 0,0.0202 -0.29381,0.45813 -0.65293,0.97307 -0.35911,0.51495 -1.06456,1.58462 -1.56765,2.37704 -1.53811,2.42271 -2.42649,3.74285 -3.31738,4.9297 -0.81772,1.08936 -2.03152,2.47468 -2.16827,2.47468 -0.036,0 -0.3553,-0.30639 -0.70979,-0.68087 z m -9.55589,-13.07323 c -1.25714,-1.2727 -2.50179,-2.22685 -3.73232,-2.86119 -1.20452,-0.62094 -3.23162,-1.5253 -3.93517,-1.75564 l -0.7708,-0.25234 -0.0233,-0.7494 -0.0233,-0.74939 -2.49193,-9e-4 -2.49193,-8.9e-4 -0.35728,-0.62795 c -1.40182,-2.46388 -3.48466,-5.13091 -5.82634,-7.46048 -0.68224,-0.67873 -1.24046,-1.25381 -1.24046,-1.27792 0,-0.024 2.79315,-0.0439 6.20701,-0.0439 h 6.20702 v -4.62483 -4.62483 h -6.97783 -6.977813 v 4.02417 4.02416 l -0.304268,-0.25371 c -0.764168,-0.63722 -2.541716,-1.93437 -3.626243,-2.6462 -1.839615,-1.20746 -3.676287,-1.83794 -5.400281,-1.85379 -1.103941,-0.01 -1.724701,0.16263 -2.476489,0.68926 -0.254823,0.17851 -0.473224,0.3136 -0.48533,0.3002 -0.01152,-0.0135 -0.13758,-0.29821 -0.278846,-0.63291 -0.141266,-0.33469 -0.528742,-1.12863 -0.861071,-1.76431 l -0.604224,-1.15576 V 133.4601 119.05779 h 9.371359 9.371366 v 6.97781 6.97782 h 9.33079 9.33081 v -6.97786 -6.97787 l 13.95553,6.97787 c 7.67554,3.83781 13.97383,6.97786 13.99619,6.97786 0.0224,0 0.0407,-3.14001 0.0407,-6.97782 0,-3.83779 0.0183,-6.97781 0.0405,-6.97781 0.0223,0 6.33881,3.14909 14.03675,6.99799 l 13.99626,6.99799 v 7.39859 7.3986 l -0.60412,1.1615 c -0.33229,0.63884 -0.71977,1.43535 -0.86107,1.77004 -0.14132,0.3347 -0.26872,0.62137 -0.28311,0.63706 -0.0145,0.0158 -0.23268,-0.1194 -0.48512,-0.30012 -0.73751,-0.52812 -1.36343,-0.70367 -2.47254,-0.69349 -1.04361,0.01 -1.85015,0.18653 -3.28606,0.72082 -1.14088,0.42453 -3.2163,1.75933 -5.16192,3.31988 l -0.84226,0.67555 -0.021,-4.00544 -0.021,-4.00544 h -6.97703 -6.97708 v 4.62483 4.62483 h 6.20703 c 3.59355,0 6.207,0.0306 6.207,0.0725 0,0.0399 -0.29841,0.34111 -0.66311,0.66938 -2.06471,1.85835 -5.09271,5.66026 -6.43641,8.08146 l -0.32454,0.58479 -2.49194,0.001 -2.49192,0.001 -0.0233,0.74941 -0.0233,0.7494 -0.77855,0.25308 c -0.69361,0.2255 -2.57883,1.06905 -3.92742,1.75737 -1.21519,0.62022 -2.46128,1.57489 -3.75259,2.87501 l -0.9128,0.919 v -3.65163 -3.65164 h -9.32996 -9.32999 l -0.0211,3.63576 -0.0211,3.63576 -0.89251,-0.90356 z m 19.59467,-20.40473 v -4.62483 h -9.3308 -9.33079 v 4.62483 4.62483 h 9.33079 9.3308 z m -48.713945,18.68099 c -0.755615,-0.39971 -1.493926,-1.1406 -1.842777,-1.84922 -0.272366,-0.55326 -0.275924,-0.57464 -0.28304,-1.69794 -0.0038,-0.6257 -0.03609,-1.24716 -0.07129,-1.38105 -0.04376,-0.16631 -0.03763,-0.21771 0.01933,-0.16226 0.09189,0.0893 1.803648,3.47 1.803648,3.56213 0,0.0317 0.140907,0.26532 0.313132,0.51947 0.374064,0.552 0.679644,1.13677 0.644975,1.2342 -0.01382,0.0386 -0.276529,-0.0627 -0.583941,-0.22533 z m 78.166805,0.22216 c 0,-0.13204 0.31119,-0.72046 0.64264,-1.2152 0.16445,-0.24544 0.34836,-0.57405 0.4087,-0.73023 0.16313,-0.42217 1.71958,-3.42258 1.75637,-3.3858 0.0174,0.0174 -0.004,0.22956 -0.0464,0.47139 -0.043,0.24183 -0.0705,0.84134 -0.0613,1.33223 0.0146,0.77635 -0.008,0.94435 -0.1663,1.29092 -0.27179,0.59151 -0.72881,1.15227 -1.27484,1.56423 -0.56398,0.42549 -1.25883,0.79668 -1.25883,0.67246 z M 85.557275,102.70875 V 95.690355 H 94.928636 104.3 v 7.018395 7.01837 H 94.928636 85.557275 Z M 117.1197,95.665002 c 0,-0.02227 1.2951,-4.029026 2.87799,-8.903784 1.58287,-4.874759 2.86051,-8.891433 2.8392,-8.925942 -0.0214,-0.03451 -3.41934,-2.521209 -7.55114,-5.525998 l -7.51235,-5.463254 9.35764,-0.04057 9.35761,-0.04057 2.87827,-8.864256 c 1.58304,-4.875343 2.89949,-8.864258 2.92544,-8.864258 0.026,0 1.3421,3.988915 2.92476,8.864258 l 2.87759,8.864256 9.35835,0.04057 9.35833,0.04057 -7.51236,5.463254 c -4.1318,3.004789 -7.52975,5.491397 -7.55101,5.525795 -0.0212,0.0344 1.2566,4.053528 2.83968,8.9314 1.58307,4.877872 2.8682,8.878986 2.85581,8.891362 -0.0128,0.0128 -3.40814,-2.439796 -7.54614,-5.449263 -4.13804,-3.009466 -7.56035,-5.471758 -7.60514,-5.471758 -0.0448,0 -3.29206,2.335137 -7.21611,5.189192 -8.44778,6.144262 -7.95642,5.789843 -7.95642,5.738996 z"
       id="path8001" /></g></svg>
