<?xml version="1.0" encoding="UTF-8" standalone="no"?>
<!-- Created with Inkscape (http://www.inkscape.org/) -->

<svg
   width="1000"
   height="1000"
   viewBox="0 0 264.58333 264.58333"
   version="1.1"
   id="svg5"
   inkscape:version="1.2.2 (b0a8486541, 2022-12-01)"
   sodipodi:docname="Confiscatory_Taxation.svg"
   xml:space="preserve"
   xmlns:inkscape="http://www.inkscape.org/namespaces/inkscape"
   xmlns:sodipodi="http://sodipodi.sourceforge.net/DTD/sodipodi-0.dtd"
   xmlns="http://www.w3.org/2000/svg"
   xmlns:svg="http://www.w3.org/2000/svg"><sodipodi:namedview
     id="namedview7"
     pagecolor="#ffffff"
     bordercolor="#000000"
     borderopacity="0.25"
     inkscape:showpageshadow="2"
     inkscape:pageopacity="0.0"
     inkscape:pagecheckerboard="0"
     inkscape:deskcolor="#d1d1d1"
     inkscape:document-units="px"
     showgrid="false"
     inkscape:zoom="0.52787981"
     inkscape:cx="107.97913"
     inkscape:cy="414.86716"
     inkscape:window-width="1920"
     inkscape:window-height="1004"
     inkscape:window-x="0"
     inkscape:window-y="0"
     inkscape:window-maximized="1"
     inkscape:current-layer="layer1" /><defs
     id="defs2" /><g
     inkscape:label="Layer 1"
     inkscape:groupmode="layer"
     id="layer1"><circle
       style="fill:#b11a1a;fill-opacity:1;stroke:#000000;stroke-width:0;stroke-dasharray:none;stroke-opacity:1;paint-order:stroke markers fill"
       id="path236"
       cx="132.29167"
       cy="132.29167"
       r="125.37917" /><circle
       style="fill:#427328;fill-opacity:0;stroke:#fffffc;stroke-width:5.29167;stroke-dasharray:none;stroke-opacity:1;paint-order:normal"
       id="path236-3"
       cx="132.29167"
       cy="132.29167"
       r="125.37917" /><path
       id="path9174"
       style="fill:#ffffff;fill-opacity:1;stroke-width:0.0205293"
       d="m 79.383267,202.38151 c -7.801685,0 -7.617201,-5.6e-4 -9.887768,0.0283 -2.834775,0.036 -4.890629,0.10215 -5.62808,0.18118 -0.244677,0.0262 -0.248732,0.0505 -0.256832,1.7288 -0.0083,1.69633 -0.007,1.70231 0.248047,1.73047 0.140765,0.0155 0.512316,0.0417 0.825789,0.0582 1.089896,0.0572 2.620005,0.0969 4.811076,0.12466 2.272541,0.0288 2.078222,0.0283 9.95133,0.0283 6.822083,0 6.922651,-7e-5 7.979875,-0.008 3.847781,-0.0276 6.696909,-0.10395 7.611938,-0.20405 0.250887,-0.0274 0.252698,-0.0408 0.252698,-1.7282 0,-1.68739 -0.0019,-1.70075 -0.252698,-1.72819 -0.280514,-0.0307 -0.905691,-0.0686 -1.512052,-0.0917 -1.480365,-0.0564 -3.969697,-0.10043 -6.537069,-0.11554 -0.586253,-0.003 -2.330016,-0.004 -7.606254,-0.004 z" /><path
       id="path9174-3"
       style="fill:#ffffff;fill-opacity:1;stroke-width:0.0894244"
       d="m 132.22505,132.64438 c -7.80169,0 -7.6172,-0.0101 -9.88777,0.53641 -2.83478,0.68227 -4.89063,1.93821 -5.62808,3.43784 -0.24468,0.49757 -0.24873,0.95864 -0.25683,32.80259 -0.008,32.18674 -0.007,32.30012 0.24804,32.83447 0.14077,0.29492 0.51232,0.7917 0.82579,1.10395 1.0899,1.08568 2.62001,1.83792 4.81108,2.36527 2.27254,0.54693 2.07822,0.53642 9.95133,0.53642 6.82208,0 6.92265,-0.002 7.97987,-0.14555 3.84778,-0.52316 6.69691,-1.97232 7.61194,-3.87165 0.25089,-0.52066 0.2527,-0.77419 0.2527,-32.79128 0,-32.01708 -0.002,-32.27062 -0.2527,-32.79128 -0.28051,-0.58226 -0.90569,-1.30157 -1.51205,-1.74013 -1.48037,-1.07069 -3.9697,-1.90556 -6.53707,-2.19221 -0.58625,-0.0654 -2.33002,-0.0848 -7.60625,-0.0848 z" /><path
       id="path9174-3-6"
       style="fill:#ffffff;fill-opacity:1;stroke-width:0.138247"
       d="m 184.77421,30.315567 c -7.80169,0 -7.6172,-0.02405 -9.88777,1.282041 -2.83478,1.630635 -4.89063,4.632339 -5.62808,8.216496 -0.24468,1.189182 -0.24873,2.291154 -0.25683,78.398736 -0.008,76.92684 -0.007,77.19784 0.24804,78.47494 0.14077,0.70484 0.51232,1.89216 0.82579,2.63845 1.0899,2.59478 2.62001,4.39266 4.81108,5.65303 2.27254,1.30717 2.07822,1.28204 9.95133,1.28204 6.82208,0 6.92265,-0.005 7.97987,-0.34786 3.84778,-1.25034 6.69691,-4.71388 7.61194,-9.25331 0.25089,-1.24437 0.2527,-1.85031 0.2527,-78.3717 0,-76.521358 -0.002,-77.127319 -0.2527,-78.371688 -0.28051,-1.391631 -0.90569,-3.110797 -1.51205,-4.158952 -1.48037,-2.558966 -3.9697,-4.554308 -6.53707,-5.239407 -0.58625,-0.156424 -2.33002,-0.202816 -7.60625,-0.202816 z" /></g></svg>
