<?xml version="1.0" encoding="UTF-8" standalone="no"?>
<!-- Created with Inkscape (http://www.inkscape.org/) -->

<svg
   width="1000"
   height="1000"
   viewBox="0 0 264.58333 264.58333"
   version="1.1"
   id="svg5"
   inkscape:version="1.2.2 (b0a8486541, 2022-12-01)"
   sodipodi:docname="Progressive_Taxation.svg"
   xml:space="preserve"
   xmlns:inkscape="http://www.inkscape.org/namespaces/inkscape"
   xmlns:sodipodi="http://sodipodi.sourceforge.net/DTD/sodipodi-0.dtd"
   xmlns="http://www.w3.org/2000/svg"
   xmlns:svg="http://www.w3.org/2000/svg"><sodipodi:namedview
     id="namedview7"
     pagecolor="#ffffff"
     bordercolor="#000000"
     borderopacity="0.25"
     inkscape:showpageshadow="2"
     inkscape:pageopacity="0.0"
     inkscape:pagecheckerboard="0"
     inkscape:deskcolor="#d1d1d1"
     inkscape:document-units="px"
     showgrid="false"
     inkscape:zoom="0.74653479"
     inkscape:cx="429.98666"
     inkscape:cy="525.09274"
     inkscape:window-width="1920"
     inkscape:window-height="1004"
     inkscape:window-x="0"
     inkscape:window-y="0"
     inkscape:window-maximized="1"
     inkscape:current-layer="layer1" /><defs
     id="defs2" /><g
     inkscape:label="Layer 1"
     inkscape:groupmode="layer"
     id="layer1"><circle
       style="fill:#28782a;fill-opacity:1;stroke:#000000;stroke-width:0;stroke-dasharray:none;stroke-opacity:1;paint-order:stroke markers fill"
       id="path236"
       cx="132.29167"
       cy="132.29167"
       r="125.37917" /><circle
       style="fill:#427328;fill-opacity:0;stroke:#fffffc;stroke-width:5.29167;stroke-dasharray:none;stroke-opacity:1;paint-order:normal"
       id="path236-3"
       cx="132.29167"
       cy="132.29167"
       r="125.37917" /><path
       id="path9174"
       style="fill:#ffffff;fill-opacity:1;stroke-width:0.0776615"
       d="m 79.383267,150.73791 c -7.801685,0 -7.617201,-0.008 -9.887768,0.40457 -2.834775,0.51458 -4.890629,1.46184 -5.62808,2.59289 -0.244677,0.37527 -0.248732,0.72303 -0.256832,24.74039 -0.0083,24.2759 -0.007,24.36142 0.248047,24.76444 0.140765,0.22242 0.512316,0.59711 0.825789,0.83262 1.089896,0.81884 2.620005,1.3862 4.811076,1.78393 2.272541,0.41251 2.078222,0.40458 9.95133,0.40458 6.822083,0 6.922651,-10e-4 7.979875,-0.10978 3.847781,-0.39457 6.696909,-1.48756 7.611938,-2.92008 0.250887,-0.39269 0.252698,-0.5839 0.252698,-24.73185 0,-24.14795 -0.0019,-24.33917 -0.252698,-24.73186 -0.280514,-0.43916 -0.905691,-0.98168 -1.512052,-1.31244 -1.480365,-0.80754 -3.969697,-1.43721 -6.537069,-1.65341 -0.586253,-0.0494 -2.330016,-0.064 -7.606254,-0.064 z" /><path
       id="path9174-3"
       style="fill:#ffffff;fill-opacity:1;stroke-width:0.104292"
       d="m 132.22505,106.13052 c -7.80169,0 -7.6172,-0.0137 -9.88777,0.72961 -2.83478,0.928 -4.89063,2.63627 -5.62808,4.67601 -0.24468,0.67677 -0.24873,1.3039 -0.25683,44.61676 -0.008,43.7791 -0.007,43.93332 0.24804,44.66012 0.14077,0.40113 0.51232,1.07683 0.82579,1.50155 1.0899,1.47669 2.62001,2.49986 4.81108,3.21714 2.27254,0.74391 2.07822,0.72961 9.95133,0.72961 6.82208,0 6.92265,-0.003 7.97987,-0.19797 3.84778,-0.71157 6.69691,-2.68267 7.61194,-5.26606 0.25089,-0.70818 0.2527,-1.05302 0.2527,-44.60137 0,-43.54834 -0.002,-43.8932 -0.2527,-44.60137 -0.28051,-0.79197 -0.90569,-1.77035 -1.51205,-2.36686 -1.48037,-1.45631 -3.9697,-2.59186 -6.53707,-2.98175 -0.58625,-0.089 -2.33002,-0.11542 -7.60625,-0.11542 z" /><path
       id="path9174-3-6"
       style="fill:#ffffff;fill-opacity:1;stroke-width:0.126768"
       d="m 184.77421,58.322016 c -7.80169,0 -7.6172,-0.02022 -9.88777,1.07797 -2.83478,1.371076 -4.89063,3.894979 -5.62808,6.908622 -0.24468,0.999892 -0.24873,1.926456 -0.25683,65.919492 -0.008,64.68189 -0.007,64.90975 0.24804,65.98357 0.14077,0.59264 0.51232,1.59097 0.82579,2.21847 1.0899,2.18175 2.62001,3.69345 4.81108,4.7532 2.27254,1.0991 2.07822,1.07797 9.95133,1.07797 6.82208,0 6.92265,-0.004 7.97987,-0.29249 3.84778,-1.05132 6.69691,-3.96354 7.61194,-7.7804 0.25089,-1.0463 0.2527,-1.55579 0.2527,-65.89676 0,-64.340951 -0.002,-64.850457 -0.2527,-65.896752 -0.28051,-1.170116 -0.90569,-2.615631 -1.51205,-3.496944 -1.48037,-2.151638 -3.9697,-3.829369 -6.53707,-4.405416 -0.58625,-0.131525 -2.33002,-0.170532 -7.60625,-0.170532 z" /></g></svg>
