<?xml version="1.0" encoding="UTF-8" standalone="no"?>
<!-- Created with Inkscape (http://www.inkscape.org/) -->

<svg
   width="1000"
   height="1000"
   viewBox="0 0 264.58333 264.58333"
   version="1.1"
   id="svg5"
   inkscape:version="1.2.2 (b0a8486541, 2022-12-01)"
   sodipodi:docname="Interventionism.svg"
   xml:space="preserve"
   xmlns:inkscape="http://www.inkscape.org/namespaces/inkscape"
   xmlns:sodipodi="http://sodipodi.sourceforge.net/DTD/sodipodi-0.dtd"
   xmlns="http://www.w3.org/2000/svg"
   xmlns:svg="http://www.w3.org/2000/svg"><sodipodi:namedview
     id="namedview7"
     pagecolor="#ffffff"
     bordercolor="#000000"
     borderopacity="0.25"
     inkscape:showpageshadow="2"
     inkscape:pageopacity="0.0"
     inkscape:pagecheckerboard="0"
     inkscape:deskcolor="#d1d1d1"
     inkscape:document-units="px"
     showgrid="false"
     inkscape:zoom="0.52787981"
     inkscape:cx="318.25426"
     inkscape:cy="428.12776"
     inkscape:window-width="1920"
     inkscape:window-height="1004"
     inkscape:window-x="0"
     inkscape:window-y="0"
     inkscape:window-maximized="1"
     inkscape:current-layer="layer1" /><defs
     id="defs2"><filter
       id="mask-powermask-path-effect9341_inverse"
       inkscape:label="filtermask-powermask-path-effect9341"
       style="color-interpolation-filters:sRGB"
       height="100"
       width="100"
       x="-50"
       y="-50"><feColorMatrix
         id="mask-powermask-path-effect9341_primitive1"
         values="1"
         type="saturate"
         result="fbSourceGraphic" /><feColorMatrix
         id="mask-powermask-path-effect9341_primitive2"
         values="-1 0 0 0 1 0 -1 0 0 1 0 0 -1 0 1 0 0 0 1 0 "
         in="fbSourceGraphic" /></filter><filter
       id="mask-powermask-path-effect9411_inverse"
       inkscape:label="filtermask-powermask-path-effect9411"
       style="color-interpolation-filters:sRGB"
       height="100"
       width="100"
       x="-50"
       y="-50"><feColorMatrix
         id="mask-powermask-path-effect9411_primitive1"
         values="1"
         type="saturate"
         result="fbSourceGraphic" /><feColorMatrix
         id="mask-powermask-path-effect9411_primitive2"
         values="-1 0 0 0 1 0 -1 0 0 1 0 0 -1 0 1 0 0 0 1 0 "
         in="fbSourceGraphic" /></filter><clipPath
       clipPathUnits="userSpaceOnUse"
       id="clipPath9423"><circle
         style="fill:#427328;fill-opacity:0;stroke:#000000;stroke-width:5.29167;stroke-dasharray:none;stroke-opacity:1;paint-order:normal"
         id="circle9425"
         cx="132.29167"
         cy="132.29167"
         r="125.37917" /></clipPath></defs><g
     inkscape:label="Layer 1"
     inkscape:groupmode="layer"
     id="layer1"><circle
       style="fill:#012169;fill-opacity:1;stroke:#327e4c;stroke-width:0;stroke-dasharray:none;stroke-opacity:0.99215686;paint-order:stroke markers fill"
       id="path236"
       r="125.37917"
       cy="132.29167"
       cx="132.29167" /><circle
       style="fill:#427328;fill-opacity:0;stroke:#ffffff;stroke-width:5.29167;stroke-dasharray:none;stroke-opacity:1;paint-order:normal"
       id="circle9421"
       cx="132.29167"
       cy="132.29167"
       r="125.37917" /><path
       id="path9769"
       style="fill:#ffffff;fill-opacity:1;stroke-width:0.529683"
       d="m 132.55657,36.462899 -0.30932,0.309328 c -0.16997,0.170046 -5.11597,16.339534 -10.99095,35.931572 l -10.6816,35.622271 -31.516183,10.0433 c -17.333776,5.52407 -31.615218,10.13235 -31.736537,10.23985 -0.121358,0.10751 -0.0829,0.33299 0.08586,0.50175 l 0.307258,0.30726 33.761115,-7.50765 33.762157,-7.50764 8.5246,8.52564 c 4.68858,4.68845 8.58522,8.5246 8.65909,8.5246 0.0741,0 0.13453,-21.3737 0.13453,-47.495658 z m 2.46221,10.505738 -0.18318,1.059368 -0.18318,1.059366 7.38765,33.105229 7.38867,33.10521 -8.56288,8.60736 -8.56183,8.60736 47.66532,-0.0424 47.66532,-0.0414 -1.32421,-0.48415 c -0.72831,-0.2664 -16.89491,-5.11267 -35.92539,-10.76851 -19.03047,-5.65582 -34.70991,-10.39206 -34.84324,-10.52539 -0.13333,-0.13334 -4.65098,-14.158644 -10.03916,-31.167545 -5.38832,-17.008873 -9.95178,-31.282984 -10.14056,-31.719973 z m -15.02565,12.012016 c -0.0825,-0.002 -0.19399,0.006 -0.33104,0.02002 -1.91966,0.212608 -8.91352,2.055166 -12.53033,3.357077 -5.68269,2.045596 -11.730592,5.177673 -17.152644,8.884623 l -4.704051,3.216379 -5.100278,5.058878 -5.100278,5.058898 -3.237079,4.767152 c -1.780618,2.621939 -4.236019,6.756575 -5.45615,9.188769 l -2.218049,4.422651 -1.823892,5.44994 c -1.003025,2.99753 -1.974701,6.54984 -2.159081,7.89457 l -0.335191,2.44565 2.164254,-0.76453 c 1.190402,-0.41999 2.653218,-1.0242 3.250521,-1.34385 l 1.086264,-0.58141 v -0.94144 c 0,-0.51774 0.692888,-2.99018 1.539386,-5.49444 l 1.538362,-4.55403 2.532552,-4.90268 2.532551,-4.902665 3.166731,-4.283 c 4.021485,-5.437567 8.979264,-10.396087 14.399734,-14.40492 l 4.256094,-3.148092 4.286084,-2.229436 4.28506,-2.229416 5.56169,-1.861129 c 3.05887,-1.023559 5.91083,-1.861136 6.33861,-1.861136 0.42777,0 1.14932,-0.417127 1.6025,-0.926945 0.81137,-0.912771 2.14562,-4.919261 1.76492,-5.299953 -0.0212,-0.02122 -0.0749,-0.03283 -0.15715,-0.03523 z m 25.27585,0.916614 0.0218,0.68589 c 0.012,0.377368 0.54832,1.736374 1.19178,3.018786 l 1.17007,2.330815 3.97263,1.1473 c 7.42931,2.145326 15.68731,6.431769 22.6357,11.749239 l 3.83194,2.932923 3.85882,4.101943 3.85883,4.101944 3.03222,4.509561 3.0312,4.510583 2.37738,5.017519 2.37736,5.01854 1.42457,5.0682 1.42455,5.06717 2.16011,0.52245 c 1.18844,0.28724 2.35053,0.55052 2.58222,0.58555 l 0.42105,0.0641 -0.35795,-1.98632 c -0.68549,-3.79448 -2.94874,-11.01499 -4.77026,-15.22013 -6.9115,-15.955675 -19.11449,-28.746298 -35.0884,-36.777869 l -4.14025,-2.081492 -5.52132,-1.829065 c -3.03649,-1.005481 -6.41519,-1.98768 -7.50765,-2.18287 z m -13.16141,72.085593 -47.579454,0.0414 -47.579452,0.0424 1.32421,0.48623 c 0.728297,0.2678 16.899765,5.11792 35.93573,10.77782 19.035979,5.65977 34.707556,10.38762 34.825666,10.50574 0.11792,0.11791 4.62778,14.13847 10.02157,31.15718 5.39392,17.01872 9.96514,31.30162 10.15813,31.7386 l 0.35072,0.79454 0.18819,-1.05938 0.18718,-1.05937 -7.11348,-31.78102 c -3.91254,-17.47942 -7.19761,-32.32056 -7.29971,-32.98005 l -0.18518,-1.19903 8.38286,-8.73252 z m -0.0807,0.8059 0.0362,47.66635 0.0352,47.66532 0.50796,-1.05936 c 0.27921,-0.58267 5.15091,-16.66134 10.82541,-35.72985 5.67463,-19.06853 10.4945,-34.82735 10.71161,-35.01914 0.21711,-0.19179 14.44752,-4.80004 31.62275,-10.24089 17.1752,-5.44071 31.33838,-10.00207 31.47271,-10.1364 0.13433,-0.13433 0.1045,-0.38375 -0.0663,-0.55452 l -0.31036,-0.31036 -33.70424,7.56042 -33.70422,7.56144 -8.71288,-8.70152 z m -71.682131,11.60751 c -0.148225,-10e-4 -0.248195,0.016 -0.285531,0.0529 -0.498427,0.49843 2.072695,9.98183 4.095735,15.10737 l 1.997694,5.06302 2.537731,4.26644 c 6.847563,11.51154 15.140938,19.85296 26.59798,26.7542 l 4.841642,2.91636 4.16299,1.64389 c 3.61717,1.42759 9.21559,3.19055 12.63791,3.9809 0.58265,0.13453 1.37286,0.27239 1.75666,0.30622 l 0.6983,0.0621 -0.3507,-1.19178 c -0.19299,-0.65548 -0.74583,-2.00182 -1.228,-2.99188 l -0.87626,-1.8001 -4.48472,-1.27558 -4.48473,-1.27455 -5.09405,-2.52634 c -2.8017,-1.3896 -6.861762,-3.69861 -9.022231,-5.13131 l -3.928134,-2.60498 -5.617542,-5.56582 -5.617543,-5.56477 -2.654631,-3.97678 c -1.460005,-2.18711 -3.679952,-6.00098 -4.933715,-8.47493 l -2.280126,-4.49817 -1.961482,-6.08722 -1.961485,-6.08722 -2.280123,-0.66005 c -0.94049,-0.27226 -1.820943,-0.43853 -2.265639,-0.44175 z m 143.983951,1.48974 -2.72602,1.04385 -2.726,1.04282 -1.69768,5.37959 -1.69767,5.37961 -2.71153,5.29683 -2.71153,5.29683 -3.89296,5.16753 -3.89297,5.16856 -4.0678,3.57225 c -9.3276,8.19151 -18.13043,13.09618 -28.62567,15.95155 l -3.51538,0.95695 -0.59796,1.27663 c -0.32858,0.70204 -0.74797,1.9262 -0.93315,2.72083 l -0.33725,1.44525 1.72871,-0.32796 c 3.75799,-0.71205 10.96044,-2.98455 15.23565,-4.80749 7.64686,-3.26064 12.89208,-6.60605 20.09797,-12.82001 l 3.41294,-2.94326 4.00262,-4.8406 4.00265,-4.8406 2.54392,-4.22196 c 1.39911,-2.32227 3.50168,-6.446 4.673,-9.16291 l 2.13012,-4.93992 1.32007,-4.9606 c 0.72623,-2.72854 1.2456,-5.15733 1.15351,-5.39719 z" /></g></svg>
