<?xml version="1.0" encoding="UTF-8" standalone="no"?>
<!-- Created with Inkscape (http://www.inkscape.org/) -->

<svg
   width="1000"
   height="1000"
   viewBox="0 0 264.58333 264.58333"
   version="1.1"
   id="svg5"
   inkscape:version="1.2.2 (b0a8486541, 2022-12-01)"
   sodipodi:docname="Isolationism.svg"
   xml:space="preserve"
   xmlns:inkscape="http://www.inkscape.org/namespaces/inkscape"
   xmlns:sodipodi="http://sodipodi.sourceforge.net/DTD/sodipodi-0.dtd"
   xmlns="http://www.w3.org/2000/svg"
   xmlns:svg="http://www.w3.org/2000/svg"><sodipodi:namedview
     id="namedview7"
     pagecolor="#ffffff"
     bordercolor="#000000"
     borderopacity="0.25"
     inkscape:showpageshadow="2"
     inkscape:pageopacity="0.0"
     inkscape:pagecheckerboard="0"
     inkscape:deskcolor="#d1d1d1"
     inkscape:document-units="px"
     showgrid="false"
     inkscape:zoom="0.52787981"
     inkscape:cx="426.23339"
     inkscape:cy="460.33206"
     inkscape:window-width="1920"
     inkscape:window-height="1004"
     inkscape:window-x="0"
     inkscape:window-y="0"
     inkscape:window-maximized="1"
     inkscape:current-layer="layer1" /><defs
     id="defs2"><filter
       id="mask-powermask-path-effect9341_inverse"
       inkscape:label="filtermask-powermask-path-effect9341"
       style="color-interpolation-filters:sRGB"
       height="100"
       width="100"
       x="-50"
       y="-50"><feColorMatrix
         id="mask-powermask-path-effect9341_primitive1"
         values="1"
         type="saturate"
         result="fbSourceGraphic" /><feColorMatrix
         id="mask-powermask-path-effect9341_primitive2"
         values="-1 0 0 0 1 0 -1 0 0 1 0 0 -1 0 1 0 0 0 1 0 "
         in="fbSourceGraphic" /></filter><filter
       id="mask-powermask-path-effect9411_inverse"
       inkscape:label="filtermask-powermask-path-effect9411"
       style="color-interpolation-filters:sRGB"
       height="100"
       width="100"
       x="-50"
       y="-50"><feColorMatrix
         id="mask-powermask-path-effect9411_primitive1"
         values="1"
         type="saturate"
         result="fbSourceGraphic" /><feColorMatrix
         id="mask-powermask-path-effect9411_primitive2"
         values="-1 0 0 0 1 0 -1 0 0 1 0 0 -1 0 1 0 0 0 1 0 "
         in="fbSourceGraphic" /></filter><clipPath
       clipPathUnits="userSpaceOnUse"
       id="clipPath9423"><circle
         style="fill:#427328;fill-opacity:0;stroke:#000000;stroke-width:5.29167;stroke-dasharray:none;stroke-opacity:1;paint-order:normal"
         id="circle9425"
         cx="132.29167"
         cy="132.29167"
         r="125.37917" /></clipPath></defs><g
     inkscape:label="Layer 1"
     inkscape:groupmode="layer"
     id="layer1"><circle
       style="fill:#327e4c;fill-opacity:0.99215686;stroke:#327e4c;stroke-width:0;stroke-dasharray:none;stroke-opacity:0.99215686;paint-order:stroke markers fill"
       id="path236"
       r="125.37917"
       cy="132.29167"
       cx="132.29167" /><path
       style="fill:#000000;stroke-width:0.297244"
       d="m -56.378972,243.34677 v -13.03886 l 4.532968,-0.18415 c 2.493124,-0.10138 8.893247,-0.27076 14.222488,-0.3766 l 9.689519,-0.19245 0.197909,2.93763 c 0.689081,10.22781 1.078904,17.64433 1.080106,20.54931 l 0.0014,3.34401 h -14.862199 -14.862182 z m 33.447439,12.66733 c -0.535475,-1.62483 -0.823809,-5.97223 -0.961698,-14.49978 l -0.16113,-9.96682 4.82802,-0.53916 c 12.5211196,-1.39825 57.042888,-1.41562 95.244395,-0.0372 6.716652,0.24237 13.181833,0.44188 14.367085,0.44332 l 2.155018,0.004 v 12.48424 12.48424 H 34.865542 c -45.876226,0 -57.699658,-0.0761 -57.797057,-0.37156 z m 117.920522,-11.44389 0.07761,-11.81544 4.310032,-0.35723 c 9.096039,-0.75392 22.443709,-0.98893 56.030449,-0.98648 33.67065,0.001 49.87847,0.27462 50.45097,0.84711 0.82124,0.82123 1.28341,6.73287 1.38085,17.66243 l 0.0578,6.46506 H 151.10395 94.911254 Z m 114.265921,6.53937 c -0.1039,-2.90185 -0.27674,-8.17791 -0.38398,-11.72462 l -0.19497,-6.44853 0.71203,-0.1412 c 1.63713,-0.32467 28.69005,-1.46211 47.08208,-1.97956 14.91028,-0.41949 59.54581,-0.70045 62.103,-0.39092 1.9432,0.23521 2.07287,0.29854 2.2919,1.11906 0.45867,1.71816 1.70231,23.49426 1.36122,23.83533 -0.0714,0.0714 -1.31913,0.32475 -2.77273,0.563 -2.24462,0.36786 -10.73272,0.43393 -56.32621,0.43832 l -53.68334,0.005 z m 60.30103,-24.50148 c -0.1101,-1.52386 -0.2236,-7.48995 -0.25224,-13.25797 -0.0421,-8.44938 0.0248,-10.53507 0.34328,-10.73306 0.56126,-0.34882 3.73225,-0.55589 16.25022,-1.06118 9.41065,-0.37987 33.01035,-1.05208 36.93606,-1.05208 h 1.25976 v 13.6433 13.64328 l -3.64124,0.17927 c -3.54488,0.17451 -20.58708,0.61361 -35.89216,0.92477 -4.16885,0.0847 -9.20509,0.22839 -11.19163,0.31919 l -3.61191,0.16509 z M -56.378972,215.0893 v -13.69375 l 24.596913,0.005 c 32.41383528,0.006 61.995451,0.45987 63.051989,0.96626 1.518353,0.72772 1.663301,1.80436 1.649971,12.25612 -0.01374,11.06481 -0.16216,12.01885 -1.919014,12.37108 -1.156463,0.23182 -21.8993212,0.71324 -49.332663,1.14493 -10.054262,0.15821 -22.727991,0.36787 -28.16384,0.46589 l -9.883356,0.17823 z m 113.045454,13.31909 c -17.27771,-0.2595 -17.601878,-0.29421 -18.261431,-1.95568 -0.416533,-1.04928 -0.118524,-23.83175 0.317365,-24.26771 0.183221,-0.18321 17.62328,-0.29812 47.934245,-0.31581 42.476629,-0.0248 48.468609,0.0287 55.225939,0.4923 4.16885,0.28603 7.88067,0.52012 8.24853,0.52017 l 0.66878,1.2e-4 v 12.93009 12.93011 l -39.16185,-0.048 c -21.539037,-0.0264 -46.276233,-0.15494 -54.971578,-0.28552 z m 101.068448,0.0579 c -1.98942,-0.0937 -3.69966,-0.25302 -3.80052,-0.35424 -0.48981,-0.49159 -0.78764,-6.50912 -0.70239,-14.19114 0.0817,-7.35661 0.16354,-8.63876 0.60323,-9.44177 0.89199,-1.62916 1.97576,-1.84652 11.1531,-2.23695 10.78796,-0.45894 99.9708,-0.40735 100.25837,0.058 0.1058,0.17127 0.36762,4.21785 0.5816,8.99229 0.42951,9.58324 0.33215,15.28011 -0.26752,15.65071 -0.93233,0.57623 -14.87257,1.06628 -42.67928,1.50039 -19.69428,0.30745 -58.80515,0.32109 -65.14659,0.0226 z m -22.83755,-28.6027 c -8.82814,-0.13606 -21.40155,-0.34867 -27.94092,-0.4724 l -11.889736,-0.22497 -0.07748,-13.18273 -0.07748,-13.18276 11.818556,0.17698 c 6.50021,0.0975 31.68187,0.25598 55.95926,0.35257 24.27737,0.0966 44.23091,0.26441 44.34117,0.37293 0.39114,0.38492 0.62841,19.09303 0.27378,21.58498 -0.46227,3.24807 -0.74262,3.59754 -3.21169,4.00343 -5.44533,0.89512 -33.29566,1.12532 -69.19555,0.57197 z m 80.93074,0.0523 c -2.5715,-0.1058 -4.74966,-0.26668 -4.84039,-0.3574 -0.51983,-0.51982 -0.78673,-5.16325 -0.83417,-14.51135 l -0.0536,-10.55215 2.08071,-0.36466 c 3.35745,-0.5884 25.71666,-0.93516 69.73636,-1.08147 l 40.90373,-0.13588 0.18704,4.50659 c 0.10289,2.47863 0.27507,8.20867 0.38265,12.73342 l 0.19563,8.22683 -1.00988,0.15631 c -1.46865,0.22741 -30.62942,1.05845 -48.42019,1.37991 -16.80721,0.30367 -50.94964,0.30361 -58.32796,-1.3e-4 z M 13.621927,199.26373 c -18.6371866,-0.31567 -34.588029,-0.64355 -35.446315,-0.72863 l -1.560526,-0.15459 v -12.4174 -12.41741 l 2.303632,-0.38848 c 3.526712,-0.59473 29.6549668,-0.71285 71.561443,-0.32345 20.108534,0.18683 37.547861,0.41601 38.754056,0.50928 l 2.19309,0.16955 -0.219453,8.66545 c -0.120711,4.766 -0.305012,10.39867 -0.409607,12.51703 l -0.190179,3.85156 -2.823818,0.57388 c -2.587175,0.52577 -4.393208,0.57986 -21.550173,0.64552 -10.299505,0.0393 -33.974964,-0.18661 -52.61215,-0.50227 z m -70.000899,-13.13062 v -13.27289 h 15.04755 15.047553 l -0.17161,10.77508 c -0.166972,10.48228 -0.372025,13.2962 -1.016186,13.94034 -0.569952,0.56997 -9.361883,1.20083 -22.739535,1.63169 l -6.167806,0.19867 z m 341.978932,-15.34997 -17.24013,-0.1522 -0.08,-6.47573 -0.08,-6.47573 -0.98827,0.75379 c -1.2209,0.93123 -1.61543,0.94702 -1.8347,0.0733 -0.27344,-1.08947 0.317,-2.1548 1.77451,-3.20147 0.74656,-0.53615 1.35255,-1.11933 1.34666,-1.29597 -0.0154,-0.46775 -1.22375,-1.82644 -1.96388,-2.20854 -0.52385,-0.27042 -0.82979,-0.19799 -1.72237,0.40772 -0.59695,0.4051 -1.28004,0.73655 -1.51801,0.73655 -0.23798,0 -0.43267,0.12059 -0.43267,0.26817 0,0.14756 -0.40129,0.40805 -0.89174,0.57902 -0.67664,0.23588 -0.89173,0.49383 -0.89173,1.06944 0,0.73049 0.0671,0.75857 1.81605,0.75857 h 1.81607 l -0.14499,5.4247 c -0.15426,5.76682 -0.47308,7.41834 -1.57131,8.13794 -1.13493,0.74362 -5.84314,0.98218 -26.14111,1.32448 -21.86083,0.36866 -70.10659,0.16011 -77.4805,-0.33506 -4.96129,-0.3331 -6.32031,-0.72638 -6.83913,-1.97914 -0.19799,-0.47807 -0.40066,-3.13865 -0.47658,-6.25649 -0.0928,-3.81082 -0.23291,-5.41589 -0.47103,-5.39507 -0.18643,0.0154 -0.67337,0.12248 -1.08209,0.23602 l -0.7431,0.20642 -0.14859,6.82349 -0.14859,6.82352 -43.99206,-0.10049 c -49.422901,-0.11287 -66.899243,-0.36961 -67.476032,-0.99119 -0.767808,-0.82743 -1.102317,-2.61789 -1.258191,-6.73467 -0.157179,-4.15259 -0.17702,-4.25526 -0.788302,-4.09144 -0.344851,0.0924 -1.362686,0.315 -2.261838,0.49458 l -1.634838,0.32651 -0.0052,4.95387 c -0.0034,2.72464 -0.09912,5.18797 -0.213592,5.47406 -0.196879,0.49212 -2.580835,0.52018 -44.209507,0.52018 h -44.001472 v -7.43111 -7.43108 h 2.799855 2.799855 l -0.244427,-0.96605 c -0.134504,-0.53132 -0.326847,-1.33387 -0.427579,-1.78346 -0.238759,-1.06573 -0.857564,-1.05037 -2.995616,0.0745 -0.932375,0.49045 -1.748506,0.89173 -1.813645,0.89173 -0.06511,0 -0.118524,-0.59102 -0.118524,-1.31336 0,-1.1625 0.111483,-1.38229 0.971112,-1.91353 0.534117,-0.33011 1.289936,-0.93955 1.679603,-1.35435 l 0.708511,-0.75416 -1.223682,-1.32752 c -2.269429,-2.46207 -2.00305,-4.18478 0.367251,-2.37493 1.233369,0.94175 1.572516,1.06222 2.601843,0.92416 2.21221,-0.29672 2.972976,-1.81816 1.65765,-3.31508 l -0.668794,-0.76113 -1.43406,0.94277 c -1.197845,0.78747 -1.56506,0.8967 -2.229337,0.6631 -1.19118,-0.41892 -0.972519,-1.01142 0.839579,-2.27506 1.873114,-1.30616 1.991712,-1.50447 1.475958,-2.46815 -0.280983,-0.52502 -0.291547,-0.80614 -0.04157,-1.10728 0.244461,-0.29456 0.246249,-0.49235 0.0068,-0.73197 -0.180576,-0.18057 -0.394752,-1.25667 -0.475936,-2.39134 l -0.147559,-2.063 -1.671994,-0.36931 c -2.005731,-0.44304 -2.415119,-0.73426 -2.415119,-1.71802 v -0.74759 l 2.482972,0.20147 2.482989,0.20147 0.192205,-1.83904 c 0.105643,-1.01147 0.192222,-3.50554 0.192222,-5.54237 0,-2.40846 0.164394,-4.34196 0.470061,-5.52973 0.706379,-2.74463 2.510422,-6.34771 4.263066,-8.51434 1.651501,-2.04162 2.697972,-3.82815 2.697972,-4.606 0,-0.27003 -0.551588,-0.70471 -1.302939,-1.02678 -1.47747,-0.63332 -2.269139,-1.56579 -2.047851,-2.41203 0.192738,-0.737027 1.051402,-0.728887 2.714446,0.0258 1.477675,0.67052 2.717039,0.76618 2.717039,0.20971 0,-0.20806 0.460322,-0.626177 1.022922,-0.929142 0.562598,-0.302989 1.093435,-0.734678 1.179635,-0.959339 0.08623,-0.224648 0.407721,-0.408457 0.714488,-0.408457 0.306766,0 0.799846,-0.267509 1.095755,-0.594477 0.295892,-0.326968 0.784781,-0.59449 1.086411,-0.59449 0.494591,0 0.548427,-0.27723 0.548427,-2.823818 0,-2.731586 0.02182,-2.823654 0.668794,-2.819255 1.395891,0.01011 2.0064,1.13612 2.0064,3.702502 0,1.352515 0.07695,1.572663 0.52017,1.48632 0.2861,-0.05562 2.325946,-0.259496 4.532968,-0.452797 4.626762,-0.405234 5.850718,-0.209506 8.090498,1.293751 2.779861,1.865743 3.774111,5.344752 2.650286,9.273712 -0.327328,1.14439 -0.871513,2.87059 -1.209303,3.83601 -0.33779,0.9654 -0.614167,2.18437 -0.614167,2.70879 v 0.95353 l 1.988671,0.15958 c 1.4376,0.1154 2.096551,0.30716 2.377963,0.692 0.738142,1.00947 0.477894,1.30847 -1.171254,1.34563 -2.628229,0.0593 -3.331603,0.30648 -3.435958,1.20777 -0.05051,0.43686 -0.284659,0.9542 -0.520171,1.14966 -0.235528,0.19548 -0.428215,0.65703 -0.428215,1.02569 0,0.36868 -0.20064,0.83684 -0.445875,1.04036 -0.245216,0.20353 -0.445856,0.5772 -0.445856,0.8304 0,0.25322 -0.2256,0.70967 -0.501325,1.01434 -0.477517,0.52764 -0.410488,0.64564 1.411901,2.48561 1.571828,1.58699 1.833674,1.98486 1.467369,2.22976 -0.861155,0.57568 -2.430063,0.0518 -3.763048,-1.25633 l -1.279613,-1.25585 -0.764063,0.7178 c -0.420227,0.39479 -1.436363,1.96124 -2.258094,3.48104 -2.796248,5.17167 -7.430344,10.48323 -11.304138,12.95667 -0.937356,0.59852 -2.079837,1.66268 -2.578843,2.40206 l -0.895905,1.32748 1.31591,1.07828 c 1.497756,1.2273 1.986765,1.97746 1.728217,2.65123 -0.251761,0.65606 -0.619011,0.59256 -2.594027,-0.4485 -0.954345,-0.50305 -1.793907,-0.85588 -1.865693,-0.7841 -0.17788,0.17788 1.48635,2.61679 3.553337,5.20737 l 1.707673,2.14026 h 3.506561 c 3.472497,0 3.509911,-0.006 3.852768,-0.75987 0.380564,-0.83525 0.938181,-0.72653 0.938181,0.18293 0,0.53531 0.230616,0.57697 3.195364,0.57714 l 3.195381,1.8e-4 -0.09362,-1.41211 c -0.06305,-0.949 0.05893,-1.60704 0.371563,-2.00656 0.448468,-0.57308 0.480401,-0.57492 0.886372,-0.0513 0.231611,0.29874 0.511682,1.20162 0.622378,2.00641 l 0.201242,1.46323 h 2.630289 2.630291 l 3.21237,-2.25712 c 1.766816,-1.24141 5.1058577,-3.38489 7.4201054,-4.76332 3.9497393,-2.35255 6.04719968,-3.98184 6.04719968,-4.69744 0,-0.17039 -0.735686,-0.98896 -1.6348381,-1.81914 -1.20727498,-1.11463 -1.63485448,-1.71985 -1.63485448,-2.31402 v -0.80462 l 1.4763521,0.7481 c 1.65744448,0.83991 2.890865,0.94927 3.7360437,0.33126 0.5297209,-0.38735 0.543171,-0.54009 0.1897494,-2.15504 -0.2092123,-0.95597 -0.5848446,-2.67446 -0.8347521,-3.81883 -0.3035536,-1.39015 -0.3976547,-2.82062 -0.2835244,-4.31004 0.4772415,-6.22804 0.5402511,-9.21457 0.1944388,-9.21457 -0.1929777,0 -0.92897342,0.14551 -1.63552452,0.3235 -1.0548371,0.2656 -1.45056928,0.23765 -2.21233008,-0.15633 -1.6339622,-0.84495 -1.0449781,-1.67835 1.47293428,-2.08416 1.56598762,-0.25238 2.04104752,-0.74014 2.33151122,-2.39369 0.4444323,-2.53014 1.0435864,-4.60669 1.3291548,-4.60669 0.4877199,0 -0.8187766,-1.23351 -2.56867282,-2.42517 -0.9400369,-0.64014 -1.70915028,-1.28926 -1.70915028,-1.44244 0,-0.28795 1.53941358,-1.18553 2.03324868,-1.18553 0.15357172,0 1.07563982,0.58624 2.04894992,1.30273 l 1.7696346,1.30274 0.8032118,-1.00664 c 0.4417868,-0.55366 0.9955563,-1.55178 1.2306385,-2.21802 1.3617747,-3.8597 4.3229319,-7.36326 7.4227859,-8.782399 2.145164,-0.982091 5.139715,-1.051509 6.887911,-0.159591 0.644161,0.328611 2.395999,1.878661 3.892983,3.44454 l 2.721781,2.84703 1.143734,-1.22614 c 1.200094,-1.28656 2.308768,-1.58412 3.186876,-0.85534 0.772774,0.64135 0.501086,1.21444 -1.408275,2.97057 -1.805794,1.66086 -1.843982,1.72693 -1.437359,2.48671 0.312916,0.58468 0.338803,0.95373 0.103242,1.47087 -0.212768,0.46696 -0.217921,0.86307 -0.01546,1.22398 0.203732,0.36403 0.193717,0.76384 -0.03161,1.25823 -0.181589,0.39856 -0.330163,1.09289 -0.330163,1.54294 0,0.45007 -0.154087,0.97231 -0.342239,1.16054 -0.258135,0.25813 -0.06321,0.58313 0.793577,1.32272 3.145168,2.71515 2.975535,2.51364 2.548848,3.02777 -0.721393,0.86924 -2.094523,0.58413 -3.697822,-0.7678 l -1.478997,-1.24718 -0.982295,1.13635 c -0.540267,0.62499 -1.182263,1.82157 -1.426673,2.65903 -0.638939,2.18934 -2.88645,6.45243 -4.783477,9.07329 -0.899066,1.24214 -3.023686,3.76866 -4.721362,5.61449 -1.697656,1.84583 -3.154787,3.61658 -3.23805,3.93499 -0.119219,0.45597 0.172433,0.75327 1.373439,1.39984 1.285676,0.69216 1.607181,1.04366 2.049809,2.24113 l 0.524962,1.42025 -0.870688,1.5522 c -0.733848,1.30826 -0.815254,1.64953 -0.518005,2.17145 0.598364,1.05066 1.487536,2.01712 2.804905,3.04871 l 1.263259,0.98923 1.834139,-1.65979 c 3.125379,-2.8283 3.542858,-2.05806 0.851723,1.57146 l -1.77283,2.39102 0.955411,0.68148 c 0.838118,0.59781 1.411574,0.69972 4.67096,0.8301 4.505587,0.1802 13.228324,-0.16045 15.292596,-0.59733 0.837672,-0.17726 1.952977,-0.69036 2.522327,-1.16042 l 1.020636,-0.84264 -0.937426,-1.18361 c -0.879363,-1.11027 -1.549738,-2.43913 -1.549738,-3.07197 0,-0.58653 0.995625,-0.23529 2.161278,0.76247 0.676972,0.57946 1.540324,1.04035 1.948818,1.04035 1.005949,0 4.307023,-1.21449 4.599054,-1.69202 0.130721,-0.21378 0.513064,-0.38869 0.849638,-0.38869 0.517804,0 0.580675,-0.1245 0.408634,-0.81009 -0.601366,-2.39601 -0.75106,-3.91185 -0.461519,-4.6734 0.168679,-0.44383 0.460937,-0.75556 0.649322,-0.69277 0.188396,0.0628 0.749656,1.34437 1.247237,2.84797 0.840866,2.5409 0.960856,2.73381 1.700514,2.73381 0.566215,0 1.538826,-0.64958 3.371187,-2.25157 2.127793,-1.86021 2.544238,-2.36392 2.396162,-2.89813 -0.322658,-1.16398 -2.483415,-5.38231 -3.220975,-6.28815 l -0.721179,-0.88568 -1.363954,1.25724 c -1.456919,1.34295 -1.690428,1.4287 -2.585746,0.94953 -0.83217,-0.44537 -0.729724,-0.77038 0.767858,-2.43605 1.314279,-1.46178 1.338762,-1.52588 1.152046,-3.01612 -0.104911,-0.83743 -0.307894,-1.64968 -0.451053,-1.80498 -0.143273,-0.1553 -0.260318,-0.64901 -0.260318,-1.09712 0,-0.4481 -0.140694,-0.90168 -0.312646,-1.00795 -0.171953,-0.1063 -0.272275,-0.60138 -0.222929,-1.10021 0.08949,-0.90566 0.08608,-0.90782 -2.362552,-1.4824 -2.008496,-0.47129 -2.452258,-0.67755 -2.452258,-1.13981 0,-0.31042 0.337996,-0.78587 0.751112,-1.05655 0.644795,-0.4225 0.988347,-0.44451 2.42752,-0.15547 2.198992,0.44162 2.368101,0.42975 2.613731,-0.18351 0.114517,-0.2861 0.319055,-2.66033 0.454403,-5.27607 0.382128,-7.38601 1.704724,-10.26566 7.18272,-15.63888 2.815628,-2.761768 3.799312,-4.127832 2.972413,-4.127832 -0.133983,0 -0.802846,-0.478583 -1.486206,-1.063517 -1.31318,-1.124024 -1.600938,-2.133139 -0.79822,-2.799322 0.365735,-0.303533 0.816762,-0.143601 2.55167,0.904596 2.0731,1.252596 2.12103,1.265262 2.945578,0.778185 0.461,-0.272326 1.05635,-0.495141 1.322962,-0.495141 0.266625,0 0.80373,-0.208987 1.193569,-0.464426 0.444265,-0.291083 1.490781,-0.485686 2.803948,-0.521419 l 2.095118,-0.05701 0.874059,-1.336335 c 1.648274,-2.520057 2.312511,-3.157055 2.91466,-2.795151 0.297087,0.178563 0.719448,0.690161 0.938585,1.136879 0.507995,1.035582 0.112747,2.083262 -1.304015,3.456442 l -1.014437,0.983216 2.783636,2.86869 c 3.096953,3.191545 3.667541,4.093845 4.228611,6.686795 0.816787,3.77465 0.205385,8.15869 -1.703346,12.21381 -0.655174,1.39192 -1.269609,3.19258 -1.365394,4.00148 l -0.17419,1.4707 h 1.662722 c 1.385188,0 1.789044,0.12627 2.419355,0.75664 0.416142,0.41612 0.756622,0.86868 0.756622,1.00569 0,0.39311 -1.170476,0.60716 -3.343986,0.61156 -1.761844,0.004 -2.006399,0.0721 -2.006399,0.56112 0,0.51815 -0.404324,1.3056 -2.232185,4.34747 -0.39296,0.65393 -0.720257,1.33202 -0.72736,1.50684 -0.0063,0.17484 0.522152,1.03498 1.176087,1.91146 1.392318,1.86614 1.46305,2.29784 0.419441,2.55978 -0.655452,0.16455 -1.028113,-0.0627 -2.513573,-1.53269 l -1.744021,-1.72583 -1.276296,1.32835 c -0.701967,0.73058 -1.764789,2.12509 -2.361832,3.09887 -0.597043,0.9738 -1.930333,2.69228 -2.962869,3.81887 l -1.877359,2.04831 1.476663,1.3415 c 4.980884,4.52494 7.752411,6.23049 9.681492,5.95782 0.638629,-0.0901 0.716415,-0.25669 0.75039,-1.60561 0.04121,-1.63737 0.825256,-3.50795 1.391446,-3.31995 0.194754,0.0646 0.43634,0.78029 0.536827,1.59022 0.100486,0.80994 0.271403,1.75201 0.379777,2.09345 0.26986,0.85029 2.416385,1.61951 4.698156,1.68358 l 1.854708,0.0521 0.605171,-1.50149 c 0.808015,-2.00478 1.557292,-3.1058 2.113585,-3.1058 0.376781,0 0.42025,0.24838 0.247071,1.41191 -0.115655,0.77654 -0.456362,2.12984 -0.757304,3.00731 -0.300955,0.87747 -0.474209,1.71348 -0.385022,1.85778 0.309309,0.50047 3.560519,0.25311 6.517814,-0.4959 3.379871,-0.85606 10.42863,-2.87054 12.54997,-3.58669 1.80145,-0.60815 3.63302,-1.67321 4.5428,-2.64161 l 0.70823,-0.75388 -0.7263,-0.49832 c -1.37631,-0.94434 -2.65837,-2.40408 -2.65837,-3.02677 0,-0.83688 0.64515,-0.79378 2.25696,0.15082 1.81235,1.0621 2.88372,0.82646 4.91561,-1.08119 0.86544,-0.8125 1.7458,-1.47729 1.95637,-1.47729 0.50926,0 0.52995,0.0694 -0.65751,-2.20868 -1.02225,-1.96122 -1.32406,-3.52576 -0.74875,-3.88133 0.16044,-0.0991 0.97937,0.76241 1.82,1.91453 0.8406,1.15214 1.56949,2.09477 1.61972,2.09477 0.0503,0 -0.0441,-0.43471 -0.2098,-0.96605 -0.76158,-2.44298 -0.87935,-3.47217 -1.14553,-10.01123 -0.16509,-4.05452 -0.41336,-7.09432 -0.59426,-7.27522 -0.21616,-0.21615 -0.77024,-0.14757 -1.82033,0.22541 -1.25937,0.4473 -1.65452,0.47611 -2.38408,0.17395 -1.31356,-0.54411 -0.93842,-1.20022 1.15533,-2.02077 1.01755,-0.39877 1.91296,-0.93906 1.98979,-1.20064 0.0768,-0.26159 0.17144,-1.93833 0.21033,-3.72609 l 0.0705,-3.25045 -2.28515,-1.02685 c -2.3417,-1.05226 -2.73947,-1.57362 -1.76496,-2.31335 0.78386,-0.59505 1.87606,-0.49467 3.58414,0.32932 0.84723,0.40872 1.60523,0.74311 1.68444,0.74311 0.25669,0 1.26631,-2.20044 1.49478,-3.25782 0.65617,-3.036765 3.24978,-6.366721 5.94382,-7.631262 3.10387,-1.456932 7.67099,-0.626759 9.44518,1.716858 0.41553,0.548911 1.31006,2.402494 1.98778,4.119074 0.67774,1.71659 1.3275,3.21691 1.44394,3.33406 0.11641,0.11718 0.91813,-0.27937 1.78157,-0.88118 1.72634,-1.20324 2.18857,-1.15439 3.02554,0.31972 0.40763,0.71792 0.3952,0.83045 -0.15203,1.37775 -0.32777,0.32777 -1.33008,0.96606 -2.22735,1.41839 -1.6268,0.82012 -1.63159,0.82663 -1.70339,2.30844 -0.0951,1.96116 -0.68154,4.95238 -1.06803,5.44714 -0.20023,0.2563 -0.20565,0.46427 -0.0154,0.59448 3.94115,2.69936 4.15427,2.90107 3.67527,3.47826 -0.59234,0.71372 -1.80392,0.50519 -3.63644,-0.6259 l -1.72295,-1.06347 -0.58102,0.69192 c -0.31956,0.38055 -0.80183,1.42758 -1.07171,2.32675 -1.88569,6.28249 -2.44456,7.62767 -4.46478,10.74659 -0.70465,1.08785 -2.35473,3.11206 -3.66689,4.49827 -2.22112,2.34648 -2.37379,2.5894 -2.21253,3.52111 0.39219,2.26596 1.73145,4.41904 2.74873,4.41904 0.23855,0 1.07724,-0.60192 1.86374,-1.33761 0.9191,-0.8597 1.70004,-1.33758 2.18584,-1.33758 0.41571,0 0.75585,0.0824 0.75585,0.1831 0,0.10061 -0.4484,0.80296 -0.99645,1.56055 -1.19679,1.65437 -1.46936,2.5693 -0.90495,3.03771 0.22834,0.18951 0.41517,0.53303 0.41517,0.76338 0,0.23033 0.19859,0.49501 0.44133,0.58815 0.24272,0.0931 0.93766,0.62396 1.5443,1.17962 0.60665,0.55569 1.20614,1.01032 1.33223,1.01032 0.12614,0 0.90696,-0.60192 1.7353,-1.3376 1.41632,-1.2579 2.67519,-1.73646 2.67519,-1.017 0,0.17635 -0.79909,1.29854 -1.77574,2.49377 l -1.77576,2.17314 0.76166,0.76165 c 1.03139,1.0314 2.53813,1.21166 8.2785,0.99047 6.77871,-0.2612 12.49444,-1.76202 13.69634,-3.59634 0.50708,-0.77392 0.50373,-0.78182 -1.0153,-2.38797 -0.83822,-0.88632 -1.52404,-1.81221 -1.52404,-2.05758 0,-0.81691 0.61776,-0.84318 1.72843,-0.0736 1.73626,1.20324 2.91822,1.52742 3.48875,0.95692 0.26011,-0.26011 0.61522,-0.47292 0.78915,-0.47292 0.17394,0 0.62086,-0.30095 0.99319,-0.66881 0.70086,-0.6924 1.79025,-1.56987 2.43976,-1.96512 0.28702,-0.17467 0.20114,-0.65102 -0.37155,-2.0604 -0.75373,-1.85491 -0.97323,-3.74955 -0.47039,-4.06032 0.35848,-0.22155 1.17748,0.96029 2.52139,3.63844 l 1.08707,2.16628 0.91519,-0.53145 c 1.03226,-0.5994 2.51266,-2.26875 2.72207,-3.0695 0.26536,-1.0148 -4.31431,-8.01406 -5.2437,-8.01406 -0.15803,0 -0.74541,0.53503 -1.30514,1.18898 -0.99533,1.1628 -1.77001,1.43416 -2.87917,1.00854 -0.76128,-0.29213 -0.55763,-0.81612 1.01603,-2.61444 1.40912,-1.61029 1.77032,-2.25828 1.25874,-2.25828 -0.24611,0 -1.3259,-2.74499 -1.46159,-3.71555 -0.34613,-2.47591 -0.47799,-2.83334 -1.09325,-2.9633 -0.34978,-0.0738 -1.37165,-0.27693 -2.27082,-0.45118 -2.45759,-0.47627 -2.6871,-0.70687 -1.62583,-1.63354 0.82893,-0.72383 1.01145,-0.75914 2.99578,-0.5799 l 2.11305,0.19089 0.17188,-5.75293 c 0.24921,-8.3418 0.95386,-10.55571 4.95586,-15.570886 1.86384,-2.335718 3.27902,-4.512186 3.27902,-5.042959 0,-0.09417 -0.63537,-0.439854 -1.41192,-0.768427 -1.59748,-0.675916 -2.15501,-1.26358 -2.15501,-2.271419 0,-1.073591 0.66048,-1.097202 2.92236,-0.104405 1.14501,0.502548 2.20511,0.913697 2.35583,0.913697 0.15065,0 0.42638,-0.334387 0.6126,-0.743097 0.18621,-0.408709 0.56691,-0.743109 0.84597,-0.743109 0.27907,0 0.78353,-0.257689 1.12104,-0.572636 0.6128,-0.571852 2.49538,-1.366431 4.18057,-1.764472 0.73273,-0.17309 1.11568,-0.627038 2.14773,-2.545931 0.69078,-1.284411 1.31468,-2.393988 1.38644,-2.465744 0.23678,-0.236795 1.36217,0.520597 1.82649,1.229225 0.52334,0.79875 0.26487,1.65764 -1.02251,3.397566 l -0.73513,0.993543 3.2925,3.167862 c 3.66909,3.530222 4.75156,5.258355 5.75761,9.191939 0.68147,2.664533 0.71667,5.100043 0.1321,9.135363 -0.23687,1.63483 -0.43492,3.48212 -0.44009,4.10509 l -0.0101,1.13266 2.00649,-0.1977 c 1.79321,-0.17672 2.0656,-0.13246 2.56262,0.41678 0.87651,0.96856 0.4202,1.41678 -1.98769,1.95248 -1.83869,0.40908 -2.24576,0.60647 -2.37054,1.14956 -0.24084,1.04821 -0.84113,2.60819 -1.70236,4.42387 l -0.80042,1.68748 1.5918,1.57205 c 1.59932,1.57945 1.97464,2.50446 1.14529,2.82271 -0.82253,0.31563 -1.97148,-0.20367 -3.39344,-1.53374 l -1.41065,-1.3195 -0.77005,0.81144 c -0.42352,0.44629 -1.5241,2.14698 -2.44575,3.77932 -1.90535,3.3746 -2.48939,4.18749 -4.80777,6.69161 -1.94565,2.10154 -1.96056,2.05188 1.23581,4.11628 4.8125,3.10816 5.85208,3.61299 7.44046,3.61299 h 1.50503 l -0.12298,-1.93147 c -0.0923,-1.44876 -0.001,-2.11734 0.36433,-2.6752 0.671,-1.02407 0.96634,-0.93359 1.21087,0.37094 0.38979,2.07937 0.96463,3.04302 2.09766,3.51642 0.59009,0.24654 1.33699,0.36444 1.6598,0.26198 0.32281,-0.10238 0.77068,-0.0339 0.99525,0.15254 0.30713,0.25491 0.55539,0.24701 1.00195,-0.032 0.47212,-0.29485 0.68443,-0.29538 1.03718,-0.004 0.55589,0.46136 0.64493,0.30626 1.08516,-1.89009 0.40584,-2.02472 0.99372,-3.12105 1.67362,-3.12105 0.36875,0 0.43084,0.23096 0.2996,1.11467 -0.091,0.61306 -0.25214,2.01753 -0.358,3.12105 l -0.19246,2.0064 1.29791,-0.001 c 2.59436,-0.005 10.95834,-3.34724 10.95834,-4.37958 0,-0.21652 -0.31727,-1.02458 -0.70508,-1.79568 -1.07622,-2.14007 -1.65604,-4.47998 -2.29026,-9.24241 -0.5863,-4.40261 -1.01914,-6.2787 -1.44859,-6.2787 -0.13004,0 -0.84998,0.27141 -1.59989,0.60313 -1.41129,0.62428 -2.5691,0.56767 -3.1688,-0.15494 -0.44708,-0.53871 0.22162,-1.1401 2.30997,-2.07753 l 1.70088,-0.76349 0.0244,-3.67314 0.0244,-3.67316 -2.17935,-1.10644 c -2.1706,-1.10199 -2.50071,-1.49567 -1.82266,-2.17372 0.56523,-0.56523 2.03677,-0.41286 3.75992,0.38932 0.87452,0.4071 1.64184,0.7402 1.70517,0.7402 0.25731,0 1.05387,-2.31217 1.62661,-4.72147 1.17759,-4.95389 2.18912,-7.110337 4.58545,-9.775652 1.67303,-1.860813 4.53646,-3.816438 6.20036,-4.234602 6.3345,-1.592014 6.12541,-1.454745 5.37877,-3.531043 -0.61839,-1.719702 -0.47112,-2.245962 0.83632,-2.988579 1.07832,-0.612451 1.49038,-0.159059 2.28355,2.512815 0.59079,1.990056 0.73993,2.228722 1.39275,2.228722 0.40212,0 1.09356,0.248335 1.53651,0.551881 0.44295,0.303508 1.17323,0.774759 1.6228,1.047199 0.44958,0.272426 0.81744,0.744386 0.81744,1.048778 0,0.304393 0.33439,0.772548 0.7431,1.040361 0.40871,0.267788 0.74311,0.743426 0.74311,1.056982 0,0.766367 0.16715,0.841094 2.97868,1.331912 1.33834,0.23366 2.51033,0.501789 2.60441,0.595893 0.0942,0.09417 -0.0513,0.637529 -0.32325,1.207674 l -0.49432,1.036632 h -2.4925 -2.49249 l -0.1739,1.071577 c -0.0957,0.58939 -0.0559,1.69395 0.0884,2.45458 0.83231,4.38877 0.59471,10.42984 -0.53983,13.72506 -0.30749,0.89307 -1.24548,3.02824 -2.08443,4.74481 -0.83894,1.71659 -1.5597,3.58711 -1.60171,4.15672 -0.0815,1.10658 -0.0937,1.09975 2.96184,1.67162 0.7558,0.14137 1.39819,1.14208 1.14941,1.79038 -0.13879,0.36187 -0.60987,0.40258 -2.69809,0.23314 l -2.52986,-0.20528 v 0.77353 c 0,0.46932 -0.23381,0.89866 -0.5945,1.09171 -0.32697,0.17497 -0.59692,0.48064 -0.59989,0.67925 -0.006,0.44051 -1.66687,2.93047 -2.16343,3.24456 -0.25883,0.16371 -0.0497,0.79422 0.75693,2.28077 1.38032,2.54414 1.41262,3.00995 0.20873,3.00995 -1.05173,0 -1.9677,-0.85985 -2.82771,-2.65453 -0.31702,-0.66154 -0.68142,-1.20435 -0.80978,-1.20622 -1.08322,-0.0154 -6.14173,5.08218 -6.15131,6.19937 -0.009,0.94053 2.06998,3.01533 3.00573,3.00103 0.50757,-0.009 0.99381,-0.43573 1.74412,-1.53506 1.79774,-2.63398 2.81353,-2.76914 1.90911,-0.25401 -0.39782,1.10634 -0.46538,1.70697 -0.258,2.29372 0.25871,0.73185 2.35297,2.54548 3.40204,2.94614 0.24522,0.0937 0.67785,0.29409 0.96135,0.44541 0.42035,0.22436 0.79123,-0.0757 2.00946,-1.6259 1.56774,-1.99493 2.29787,-2.52109 2.55793,-1.84337 0.19618,0.5112 -0.41863,1.98816 -1.6012,3.84662 -0.50361,0.79146 -0.84909,1.61247 -0.76774,1.82449 0.35824,0.93349 2.59923,1.11906 11.61465,0.96183 9.26377,-0.16164 10.58785,-0.32961 12.08304,-1.53345 l 0.84867,-0.68329 -1.03406,-1.50322 c -2.06199,-2.99759 -1.71661,-4.546 0.52178,-2.33928 1.50557,1.48426 2.41062,1.92409 2.91712,1.41758 0.17973,-0.17971 0.56753,-0.32675 0.8618,-0.32675 0.76193,0 0.69094,-0.29585 -0.76793,-3.20131 -1.7438,-3.47293 -2.47648,-5.97372 -2.86275,-9.77127 -0.17724,-1.7423 -0.51357,-3.62578 -0.74745,-4.1855 -0.45968,-1.10018 -0.75707,-1.11932 -2.62425,-0.16885 -1.03493,0.52683 -2.13923,0.29506 -2.58784,-0.54314 -0.40855,-0.76341 -0.27402,-0.88905 1.89045,-1.76559 2.06807,-0.83749 2.44748,-1.21339 2.02378,-2.00506 -0.16903,-0.31595 -0.23588,-0.64595 -0.14842,-0.73335 0.0875,-0.0875 0.21656,-1.38154 0.28706,-2.87581 l 0.12814,-2.71685 -2.36472,-1.10176 c -1.30062,-0.60598 -2.37081,-1.17325 -2.37822,-1.26061 -0.0244,-0.28729 1.70127,-1.17897 2.2617,-1.16868 0.30174,0.005 1.08366,0.26853 1.7376,0.58441 1.55837,0.75273 2.12558,0.73675 2.63878,-0.0744 0.52688,-0.83275 1.07608,-3.41249 1.07885,-5.06777 0.005,-2.68306 2.08973,-9.53086 3.65414,-11.999813 0.39678,-0.626228 1.61741,-2.264858 2.71251,-3.641388 1.09511,-1.376543 2.1725,-2.853623 2.39423,-3.282418 0.39335,-0.760615 0.36709,-0.799887 -1.07791,-1.612162 -1.70543,-0.958682 -2.27129,-1.865149 -1.76032,-2.819938 0.45016,-0.84108 1.02167,-0.797132 2.66245,0.204703 2.05606,1.255415 2.37038,1.31888 3.22043,0.650231 0.41623,-0.327397 1.04639,-0.595286 1.40037,-0.595286 0.35395,0 0.79694,-0.15341 0.98444,-0.340871 0.18749,-0.187475 1.34304,-0.405183 2.56793,-0.483791 l 2.2271,-0.142918 1.34595,-2.316468 c 0.7403,-1.274058 1.47955,-2.399056 1.64286,-2.499972 0.4198,-0.259458 2.07069,2.11816 1.90657,2.74583 -0.0747,0.285812 -0.6632,1.119777 -1.30766,1.853242 l -1.17176,1.33358 0.81647,0.678482 c 0.44909,0.373179 1.52315,1.087735 2.38678,1.587932 3.16954,1.83566 4.52641,3.55904 5.93438,7.537344 0.7937,2.242561 1.56127,3.226951 1.56127,2.002231 0,-0.31854 0.26753,-0.919274 0.5945,-1.334935 0.32697,-0.415675 0.59448,-0.859814 0.59448,-0.986983 0,-0.127119 0.29046,-0.540392 0.6455,-0.918285 l 0.64548,-0.687102 -0.90174,-1.264137 c -1.23416,-1.730092 -1.9352,-3.15636 -1.72142,-3.502224 0.0981,-0.158719 0.61523,-0.288505 1.14929,-0.288505 1.05337,0 1.70404,0.562967 2.83425,2.452257 0.36674,0.613071 0.76347,1.114671 0.88162,1.114671 0.33981,0 2.76904,-1.622691 3.74949,-2.504612 1.306,-1.17476 3.35928,-2.154386 5.39825,-2.575546 4.43812,-0.916667 9.75028,1.779805 12.78532,6.489918 0.55231,0.857108 1.47726,2.031464 2.05546,2.609687 l 1.05133,1.051306 1.37353,-1.209052 c 1.65705,-1.4586 2.27037,-1.443281 2.39569,0.05979 0.0752,0.903699 -0.0928,1.296162 -0.97111,2.268482 -0.89593,0.9917 -1.01941,1.28833 -0.78872,1.89508 0.38687,1.01755 0.97972,6.15187 0.75275,6.51912 -0.1039,0.16799 0.0933,0.50303 0.4379,0.74446 0.46031,0.32242 0.62671,0.7555 0.62671,1.63111 0,1.25247 -0.0286,1.26369 -1.66153,0.65191 -0.73818,-0.27655 -1.43317,1.79933 -1.75965,5.25608 -0.25565,2.70713 -0.9734,5.72167 -1.83059,7.68881 -1.32244,3.03466 -3.00101,6.17355 -4.37338,8.17809 -0.74349,1.08597 -1.50059,2.52718 -1.68251,3.20269 -0.38449,1.42786 -0.21671,1.62527 1.64537,1.93585 1.41105,0.23537 3.10868,1.71824 2.57639,2.2505 -0.24393,0.24394 -0.83342,0.23912 -2.23045,-0.0182 -2.54032,-0.46808 -2.87066,-0.44589 -2.87066,0.1928 0,0.29846 -0.33439,0.85682 -0.74311,1.24079 -0.4087,0.38396 -0.7431,0.87235 -0.7431,1.08531 0,0.21295 -0.33441,0.60631 -0.74311,0.87411 -0.40872,0.2678 -0.74311,0.69506 -0.74311,0.94948 0,0.25442 -0.20691,0.69121 -0.45978,0.97062 -0.41893,0.46292 -0.36459,0.68121 0.61173,2.45739 0.58932,1.07214 1.03028,2.18039 0.97995,2.46278 -0.12488,0.70057 1.52564,1.11815 3.59201,0.90875 2.18249,-0.22116 2.3501,-0.45483 1.6995,-2.36892 -0.61634,-1.81321 -0.55057,-2.98138 0.17564,-3.11975 0.35077,-0.0669 0.73045,0.3475 1.2401,1.35324 0.40398,0.79725 0.91218,1.59029 1.12929,1.7623 0.50857,0.40293 2.79005,0.69542 3.11678,0.39958 0.13776,-0.12475 0.88166,-0.30783 1.65321,-0.40695 l 1.40279,-0.18023 0.0101,10.69385 0.0101,10.69383 -10.6278,-0.0707 c -5.84527,-0.0388 -18.38584,-0.13914 -27.86791,-0.22293 z M -43.894734,155.3403 c 0,-0.15391 -0.130554,-0.36033 -0.290001,-0.45893 -0.159584,-0.0986 -0.784076,-1.07622 -1.387954,-2.17256 -0.603861,-1.09632 -1.134458,-2.04135 -1.179103,-2.10005 -0.04467,-0.0588 -0.477346,0.17537 -0.961578,0.52017 -0.484233,0.3448 -1.038724,0.62691 -1.232217,0.62691 -0.248962,0 -0.28983,0.36926 -0.13983,1.26329 0.433489,2.58342 0.453329,2.60089 2.953976,2.60089 1.230174,0 2.236689,-0.12589 2.236689,-0.27972 z m 57.962535,-0.1661 c 0,-0.24596 -0.26346,-0.44586 -0.587645,-0.44586 -0.323189,0 -0.806734,-0.33441 -1.074541,-0.74311 -0.267789,-0.40872 -0.620918,-0.7431 -0.784746,-0.7431 -0.372283,0 -2.6062242,-2.27831 -2.6062242,-2.658 0,-0.53882 -0.584089,-0.6323 -1.254876,-0.2008 -0.3724543,0.23959 -1.4545708,0.63589 -2.4046729,0.88066 -2.0421471,0.52611 -2.3080466,0.28139 -1.6991016,-1.56374 0.3139296,-0.95119 0.2964601,-1.26104 -0.1159454,-2.0586 -0.2670332,-0.5164 -0.582405,-0.93802 -0.7008139,-0.93693 -0.4417008,0.004 -1.85241542,1.10765 -4.4143372,3.4535 -3.1237479,2.86027 -4.0252877,3.6113 -5.6046925,4.66909 l -1.1836726,0.79276 H 2.8521871 c 9.7712879,0 11.2156369,-0.0574 11.2156369,-0.44587 z m 61.814172,-0.4925 c 0.512357,-0.69298 0.617065,-1.06219 0.400431,-1.41191 -0.356103,-0.57489 -1.899681,-1.37682 -3.508962,-1.82299 -1.995832,-0.55336 -5.887629,-2.6165 -8.065348,-4.27567 l -2.064012,-1.57252 -2.226889,1.22085 c -2.632589,1.44332 -4.936101,3.06748 -5.153317,3.63349 -0.08696,0.22679 0.427783,0.97921 1.171765,1.71268 0.898112,0.88539 1.326994,1.55897 1.326994,2.08408 0,1.10747 -0.931708,1.01536 -2.675198,-0.26448 -1.563752,-1.14791 -1.95445,-1.22935 -2.806325,-0.58503 -0.317336,0.24 -0.804628,0.4364 -1.082856,0.4364 -0.278241,0 -0.582874,0.20065 -0.676978,0.44586 -0.09417,0.24524 -0.426418,0.44588 -0.738508,0.44588 -0.312078,0 -0.733946,0.20064 -0.937448,0.44586 -0.327998,0.3952 1.147724,0.44587 12.986422,0.44587 H 75.18821 Z m 3.341648,0.58166 c -0.27742,-0.27742 -0.435961,-0.27742 -0.713393,0 -0.27742,0.27744 -0.198143,0.35671 0.356709,0.35671 0.554851,0 0.634116,-0.0794 0.356684,-0.35671 z m 51.620369,-0.90658 c 0.28346,-1.08863 0.26013,-1.30439 -0.16886,-1.56053 -0.81993,-0.48954 -4.52747,-4.37659 -4.70352,-4.93124 -0.1515,-0.47735 -0.32918,-0.46305 -2.45537,0.19746 -2.9223,0.90788 -3.03515,0.90233 -3.03515,-0.1491 0,-1.08577 1.12753,-2.03789 2.71368,-2.29153 2.31373,-0.36998 2.60338,-1.52328 0.59427,-2.36606 -0.99679,-0.41811 -1.10117,-0.41252 -1.37586,0.0737 -0.59457,1.0524 -3.58784,3.69041 -4.38435,3.86401 -0.44959,0.098 -0.81742,0.20689 -0.81742,0.24203 0,0.0353 0.40128,1.22201 0.89173,2.63748 0.49045,1.41547 0.89174,2.64072 0.89174,2.72275 0,0.3319 -1.39617,0.11957 -2.00139,-0.30429 -0.35608,-0.24941 -0.94383,-1.26639 -1.3061,-2.25994 -0.65311,-1.7912 -0.66712,-1.8051 -1.65979,-1.64401 -0.55062,0.0894 -2.16623,0.95274 -3.59024,1.91861 -3.23454,2.19393 -3.91953,2.54566 -6.76991,3.47611 -2.26287,0.73867 -6.333668,1.24242 -11.573138,1.43217 -1.307871,0.0474 6.801769,0.113 18.021408,0.14601 l 20.39935,0.0598 z m 5.83685,0.51367 c -1.50067,-0.70693 -3.4183,-0.96706 -3.4183,-0.46366 0,0.15013 -0.0813,0.48449 -0.18042,0.74309 -0.15649,0.408 0.16765,0.46691 2.45226,0.44546 l 2.63267,-0.0248 -1.48621,-0.70013 z m 25.41433,0.58252 c 0,-0.0919 -0.21602,-0.82756 -0.48007,-1.63483 -0.41444,-1.26704 -0.58718,-1.46749 -1.26328,-1.46586 -0.43078,0.001 -2.05392,0.73588 -3.60703,1.63295 l -2.82382,1.63103 4.08711,10e-4 c 2.24791,0.001 4.08709,-0.0733 4.08709,-0.16508 z m 65.98812,-0.42739 c 0,-0.32698 -0.18258,-0.59449 -0.40578,-0.59449 -0.22318,0 -0.74587,-0.26752 -1.16155,-0.59449 -0.41566,-0.32696 -1.02024,-0.59447 -1.34349,-0.59447 -0.32325,0 -0.80684,-0.3344 -1.07463,-0.74313 -0.26781,-0.40869 -0.6424,-0.74311 -0.83246,-0.74311 -0.19004,0 -0.63817,-0.27491 -0.99585,-0.61093 l -0.65031,-0.61094 -2.2303,1.35405 c -1.22667,0.74474 -2.31369,1.35406 -2.4156,1.35406 -0.10188,0 -0.18529,-0.5342 -0.18529,-1.18713 0,-1.06023 0.13502,-1.28126 1.26328,-2.06812 2.72902,-1.90319 2.52453,-1.60441 1.90189,-2.77883 -0.30271,-0.57097 -1.07231,-1.54777 -1.71023,-2.17069 l -1.15986,-1.13257 -1.70808,0.8465 c -2.51656,1.2472 -4.97481,1.92531 -7.65293,2.11105 -2.83655,0.19672 -6.08633,0.96208 -6.28515,1.4802 -0.0784,0.20434 0.0663,0.87163 0.32179,1.48288 0.78552,1.88003 0.47529,3.71263 -0.56117,3.3149 -0.27006,-0.10352 -0.77176,-0.82537 -1.11487,-1.60384 -1.08341,-2.45802 -1.36708,-2.76737 -2.19275,-2.39116 -0.5191,0.23652 -0.91717,0.23821 -1.42666,0.006 -0.51641,-0.23529 -0.79847,-0.23013 -1.04775,0.0192 -0.25668,0.25667 -0.49302,0.24628 -0.95459,-0.042 -0.66105,-0.41284 -2.67362,-0.54399 -3.21483,-0.2095 -0.18238,0.11262 -0.72689,0.98799 -1.21003,1.94509 -1.03199,2.04436 -1.43026,2.37138 -1.97717,1.62345 -0.62322,-0.85232 -0.4783,-2.29461 0.34233,-3.40692 0.40871,-0.55397 0.74311,-1.24604 0.74311,-1.53791 0,-0.69486 -1.64476,-1.5101 -4.45865,-2.20998 -1.2426,-0.30907 -3.84912,-1.37845 -5.88887,-2.4161 -2.01276,-1.02386 -3.86265,-1.86159 -4.11088,-1.86159 -0.55627,0 -3.97148,3.36878 -3.96868,3.9147 0.001,0.21744 0.50272,0.72202 1.11465,1.12132 0.61196,0.39926 1.27983,0.92645 1.48421,1.17147 0.4424,0.53046 0.49834,2.11534 0.0747,2.11534 -0.16337,0 -1.21551,-0.46815 -2.33828,-1.04035 -1.12276,-0.5722 -2.11163,-1.04036 -2.19746,-1.04036 -0.0858,0 -0.23999,0.3344 -0.34259,0.74311 -0.11439,0.45599 -0.39792,0.74313 -0.73369,0.74313 -0.30095,0 -0.79831,0.33438 -1.10523,0.7431 -0.30694,0.4087 -0.70622,0.7431 -0.8873,0.7431 -0.18109,0 -0.5646,0.26005 -0.85222,0.57788 -0.28763,0.31784 -0.75958,0.6188 -1.04878,0.6688 -0.49705,0.0859 -0.49293,0.20063 0.0752,2.09732 l 0.60113,2.0064 h 31.76079 c 31.56264,0 31.76079,-0.004 31.76079,-0.59449 z m 6.20709,0.29542 c -0.26449,-0.1546 -1.23424,-0.36954 -2.15501,-0.47776 -1.4326,-0.16834 -1.67412,-0.1266 -1.67412,0.29003 0,0.40697 0.35341,0.48531 2.15501,0.47777 1.49807,-0.006 2.00843,-0.0947 1.67412,-0.29004 z m 24.40903,-0.44404 c 0,-0.61709 -0.14224,-0.74311 -0.8388,-0.74311 -0.91307,0 -3.59654,0.81381 -4.05087,1.22848 -0.16146,0.14738 0.82493,0.25774 2.30364,0.25774 2.56025,0 2.58603,-0.006 2.58603,-0.74311 z m 56.39035,0.55807 c -0.10175,-0.10163 -2.51225,-0.28493 -5.35659,-0.40702 -4.4497,-0.19101 -5.50662,-0.33357 -7.57144,-1.02122 l -2.39983,-0.79921 -1.65627,1.09971 c -0.91094,0.60484 -1.65628,1.14764 -1.65628,1.20624 0,0.0585 4.23574,0.10656 9.41273,0.10656 5.17697,0 9.32945,-0.0833 9.22768,-0.18504 z m -27.44306,-1.13276 c 3.5139,-1.27199 8.20818,-3.43725 8.20818,-3.78607 0,-0.14395 -1.27223,-1.56247 -2.82721,-3.15226 l -2.82721,-2.89052 -1.44416,1.63153 c -1.36292,1.53973 -1.49231,1.61413 -2.30024,1.3226 -1.11135,-0.40098 -1.04595,-0.93294 0.36682,-2.98423 1.13339,-1.64565 1.1361,-1.65664 0.6265,-2.54459 -0.28152,-0.49047 -0.51606,-1.11502 -0.52127,-1.38787 -0.005,-0.27285 -0.1917,-0.73638 -0.41442,-1.03008 -0.22276,-0.29369 -0.34296,-0.77121 -0.26713,-1.06112 0.0757,-0.28992 -0.0722,-0.70137 -0.32869,-0.9143 -0.25659,-0.21295 -0.46653,-0.77209 -0.46653,-1.24253 0,-0.76629 -0.10048,-0.85561 -0.96603,-0.85792 -0.53133,-0.001 -1.63635,-0.0832 -2.4556,-0.18162 l -1.48954,-0.17903 -1.5287,2.347 c -1.67907,2.57791 -4.41499,5.50574 -6.45903,6.91208 -1.61857,1.11361 -3.49843,3.26343 -3.38207,3.86775 0.076,0.39464 2.13179,1.78356 2.659,1.79647 0.10996,0.004 0.35372,-0.46118 0.5417,-1.03083 0.34493,-1.04507 1.65515,-2.34932 2.09006,-2.08052 0.12936,0.0799 0.0468,0.84723 -0.18359,1.70511 -0.70252,2.6161 -0.26791,3.31206 2.70235,4.32758 2.37867,0.81328 2.3063,0.84938 3.4812,-1.73704 0.68617,-1.51054 1.24646,-2.36839 1.54684,-2.36839 0.60746,0 0.59442,0.32496 -0.13639,3.40231 -0.33409,1.40662 -0.52682,2.6879 -0.42834,2.84729 0.39694,0.64221 3.38195,0.29057 6.20353,-0.7308 z m 19.34391,-4.1069 c -0.34372,-1.15162 -1.02139,-2.0064 -1.5907,-2.0064 -0.57547,0 -2.11394,1.06604 -2.11394,1.46479 0,0.12798 0.70224,0.4371 1.56053,0.68694 2.22483,0.64764 2.37768,0.63729 2.14411,-0.14533 z M 7.6913488,146.9819 c -0.08967,-0.31702 -0.241284,-0.85169 -0.3370509,-1.18816 -0.1296949,-0.45564 -0.3762339,-0.5884 -0.9660434,-0.52018 -0.6699108,0.0775 -0.7825306,0.22309 -0.7309967,0.94511 0.087266,1.22259 0.8925731,2.0377 1.6256313,1.64539 0.3763877,-0.20144 0.5157717,-0.50246 0.4084597,-0.88216 z M 301.93705,146.9326 c 1.4129,-1.65066 1.29089,-2.22421 -0.71087,-3.34171 -1.14046,-0.63667 -1.6779,-1.14077 -1.83206,-1.7184 -0.24797,-0.92913 -0.0154,-1.0084 1.16737,-0.39704 0.44711,0.23122 1.31861,0.51526 1.93661,0.6312 0.98958,0.18564 1.22163,0.10895 1.9443,-0.64332 0.45133,-0.46977 0.91149,-1.1009 1.02258,-1.40253 0.1111,-0.30161 0.46877,-0.61817 0.79491,-0.70346 0.32615,-0.0852 0.59301,-0.39744 0.59301,-0.69365 0,-0.29624 0.2045,-0.74311 0.45444,-0.99305 0.4078,-0.40779 0.30165,-0.62323 -1.0336,-2.09765 -1.46696,-1.61984 -2.04121,-2.80255 -1.66013,-3.41914 0.28035,-0.45362 0.94128,-0.0326 3.28786,2.09386 l 2.03034,1.83998 0.6448,-0.80866 c 0.35464,-0.44476 1.07469,-2.16949 1.6001,-3.83274 1.29807,-4.10917 2.47619,-7.33129 4.42049,-12.09 1.32084,-3.23284 1.64536,-4.35945 1.66954,-5.79626 l 0.0301,-1.78347 -2.2537,0.0905 c -1.77027,0.0712 -2.33729,-0.0101 -2.64325,-0.37875 -0.49606,-0.5977 -0.28415,-0.7982 1.42333,-1.3467 1.92611,-0.61875 2.30016,-1.45871 1.88756,-4.23874 -0.1711,-1.1524 -0.46377,-2.1897 -0.6505,-2.3051 -0.18672,-0.1154 -1.20687,-0.0281 -2.26701,0.19424 -1.38165,0.28961 -2.09254,0.31573 -2.51016,0.0923 -0.32046,-0.17145 -0.51637,-0.41903 -0.43542,-0.55006 0.17395,-0.28143 2.18785,-1.05139 3.9219,-1.49944 1.72013,-0.44446 1.98895,-0.86066 1.36219,-2.108963 -0.60852,-1.211896 -2.61545,-2.776356 -5.35136,-4.171517 -1.87968,-0.958581 -2.1965,-1.023284 -5.46439,-1.116427 -4.085,-0.116413 -5.74653,0.394692 -6.77686,2.084652 -0.84254,1.381915 -0.77219,1.632639 0.65977,2.351366 1.49995,0.752867 2.60087,1.706799 2.60087,2.253619 0,0.5083 -0.36727,0.49699 -1.68068,-0.0518 -0.58691,-0.24521 -1.37132,-0.44585 -1.74311,-0.44585 -0.80316,0 -2.52107,1.82999 -2.52107,2.68553 0,0.32128 -0.11136,0.58414 -0.24739,0.58414 -0.13605,0 -0.40044,0.49869 -0.58749,1.10821 l -0.34011,1.10823 1.84277,1.66879 c 1.60776,1.45599 1.80588,1.75029 1.55355,2.30786 -0.32837,0.72548 -0.29794,0.73624 -3.54767,-1.25211 -0.97472,-0.59638 -1.91098,-1.03805 -2.08059,-0.98152 -0.45982,0.15323 -1.24394,2.49831 -1.47852,4.42174 l -0.2065,1.69321 1.20836,0.61647 c 1.62161,0.82728 1.63855,1.64858 0.0393,1.90431 -0.74193,0.11869 -1.22781,0.37687 -1.32993,0.7068 -0.38711,1.25067 -1.03921,4.85031 -1.22508,6.76206 -0.18281,1.88052 -0.14207,2.1353 0.42329,2.64695 0.81903,0.7412 0.78991,0.95768 -0.19184,1.42595 -0.65324,0.31157 -0.83658,0.62403 -0.91285,1.55571 -0.10567,1.29183 0.749,3.54459 1.26081,3.32298 0.17648,-0.0765 1.0052,-0.43534 1.84163,-0.79764 1.48819,-0.64463 3.08648,-0.63774 3.08648,0.0138 0,0.1534 -0.60497,0.63357 -1.34437,1.06692 -1.99525,1.16927 -2.35544,2.18482 -1.47945,4.17108 0.24524,0.55604 0.66447,1.51258 0.93166,2.12563 0.26721,0.61307 0.51013,1.14582 0.53986,1.18389 0.0297,0.0382 1.0843,-0.25776 2.34344,-0.65739 2.16479,-0.68709 3.17029,-0.72545 3.17029,-0.12096 0,0.14722 -1.14261,0.83427 -2.53909,1.52687 -3.24269,1.60822 -3.4966,2.20787 -1.61935,3.82465 1.35257,1.16493 4.55387,2.89812 5.39856,2.92282 0.27335,0.009 0.98094,-0.55083 1.57236,-1.2418 z M 11.987089,145.26998 c 0,-0.13398 0.489283,-0.81533 1.087286,-1.51397 1.24268,-1.4518 1.214611,-1.49975 -1.361088,-2.32517 -1.326612,-0.42514 -1.635249,-0.44488 -1.7463072,-0.11161 -0.07421,0.22259 -0.387966,0.65778 -0.697274,0.96709 -0.517628,0.51763 -0.526628,0.63148 -0.113203,1.43102 0.247055,0.47776 0.747246,1.07741 1.1115082,1.33256 0.706207,0.49466 1.719027,0.62437 1.719027,0.22017 z m 257.570631,-2.2475 c 0.72239,-0.83685 2.1425,-2.72538 3.15584,-4.19673 1.01335,-1.47136 3.17453,-4.54782 4.80264,-6.83662 3.10446,-4.36419 3.58777,-5.24589 3.86141,-7.04449 l 0.16731,-1.09962 -1.39076,-0.18517 c -3.87433,-0.51585 -4.92604,-2.19838 -1.39077,-2.22492 1.6159,-0.0126 2.47887,-0.52153 3.01796,-1.78141 0.561,-1.3111 0.99482,-2.84744 0.99482,-3.52304 0,-0.36137 0.20056,-0.73398 0.44563,-0.82803 0.52195,-0.2003 -0.14515,-0.76776 -2.03261,-1.72916 -1.75781,-0.89534 -3.01567,-2.83708 -1.83784,-2.83708 0.24164,0 1.45594,0.47595 2.69845,1.05767 1.24248,0.58172 2.47705,1.01571 2.74341,0.96439 0.87148,-0.16783 1.32299,-2.47309 0.96806,-4.94257 -0.17213,-1.19758 -0.44508,-2.4243 -0.60656,-2.72602 -0.16147,-0.30175 -0.21624,-1.32832 -0.12159,-2.28125 0.14206,-1.43108 0.0154,-2.20424 -0.72342,-4.442254 -1.20295,-3.640264 -2.44169,-5.631357 -3.65434,-5.87389 -1.87816,-0.375631 -1.9452,-0.326235 -2.11609,1.558392 -0.25941,2.86084 -1.4107,4.109329 -1.4107,1.529789 0,-1.449235 -0.68752,-2.210141 -1.75604,-1.943441 -0.42379,0.105796 -1.14897,0.267839 -1.61154,0.360122 -0.46258,0.09227 -0.9116,0.35173 -0.99785,0.576479 -0.0862,0.224774 -0.34315,0.408671 -0.5709,0.408671 -0.60065,0 -0.52001,0.401556 0.47768,2.377948 1.739,3.444904 0.96103,3.613834 -1.41771,0.307856 -0.93684,-1.302044 -1.78562,-2.372121 -1.88619,-2.37796 -0.45748,-0.02667 -1.81761,1.336955 -2.31543,2.321144 -0.30227,0.597599 -1.2882,3.226714 -2.19093,5.842454 -0.90272,2.61575 -2.27339,6.42789 -3.04588,8.47145 -1.32669,3.50947 -1.72786,5.65655 -1.21262,6.4902 0.13949,0.22564 0.95985,0.33168 2.28953,0.29596 1.61347,-0.0432 2.18499,0.0573 2.58172,0.45401 0.62279,0.62294 0.25919,0.92786 -1.4279,1.19765 -2.02602,0.32397 -2.38843,0.87804 -2.79642,4.27562 l -0.36371,3.02858 1.65705,0.45849 c 2.32962,0.64456 3.58913,1.25733 3.58913,1.74611 0,0.61687 -0.57338,0.73596 -2.23308,0.4638 -0.81537,-0.13365 -2.0484,-0.2511 -2.74008,-0.26084 -1.09772,-0.0154 -1.28119,0.0761 -1.44267,0.71949 -0.22715,0.90506 0.72091,4.12146 2.11936,7.19013 1.00532,2.20605 1.04781,2.25208 1.60977,1.7435 0.55858,-0.50552 0.60396,-0.47999 1.409,0.79269 0.45752,0.72328 1.14793,1.99237 1.53428,2.82022 0.86998,1.86414 1.32621,1.81832 3.17064,-0.31832 z m -56.1705,0.24551 c 0.54405,-0.43587 0.53456,-0.44205 -0.1661,-0.10844 -0.90988,0.43333 -1.0785,0.57062 -0.70085,0.57062 0.15942,0 0.54962,-0.20801 0.86697,-0.46226 z m -259.065416,-0.41192 c 0,-0.15391 -0.133819,-0.36235 -0.297251,-0.4634 -0.163535,-0.10099 -0.297232,0.0248 -0.297232,0.2797 0,0.25487 0.133817,0.46341 0.297232,0.46341 0.163536,0 0.297251,-0.12589 0.297251,-0.27971 z m 3.130601,-0.74548 c 1.337588,-0.55887 1.38232,-1.17792 0.06477,-0.89619 -1.123807,0.24029 -1.771798,0.68781 -1.539705,1.06334 0.212922,0.3445 0.264319,0.33868 1.474944,-0.16715 z m 109.227543,-2.5522 c 0,-0.42227 -0.142236,-0.35754 -0.771359,0.35096 -0.563207,0.63433 -0.562651,0.63586 0.102509,0.28678 0.367857,-0.19303 0.668812,-0.48001 0.668812,-0.63774 z m -106.138822,-0.65832 c 0.312264,-0.36786 1.584095,-1.90394 2.826293,-3.41352 1.242198,-1.50959 3.475212,-4.11791 4.962249,-5.79626 2.843196,-3.20896 4.413787,-5.58322 4.41846,-6.6793 0.0018,-0.52704 -0.21543,-0.69147 -1.111886,-0.83993 -1.665552,-0.27579 -2.723756,-0.74546 -3.194796,-1.41797 -0.634353,-0.90565 -0.254288,-1.15529 1.439901,-0.9457 1.72315,0.21312 3.082022,-0.17569 3.378945,-0.96682 0.108222,-0.28856 0.346516,-0.6584 0.529395,-0.82188 0.329854,-0.29489 1.767934,-4.31206 1.583785,-4.42424 -0.745237,-0.45395 -2.592053,-1.94224 -2.984229,-2.40487 -0.280655,-0.3311 -0.514723,-0.90009 -0.520169,-1.26442 -0.0086,-0.61165 0.05273,-0.63505 0.807525,-0.30535 0.449584,0.19637 1.655778,0.86232 2.680434,1.47983 1.024654,0.61754 1.979171,1.1228 2.121148,1.1228 0.675718,0 1.324344,-2.34407 1.455225,-5.25908 0.127804,-2.84437 0.08933,-3.10952 -0.627928,-4.33336 -1.385515,-2.36421 -4.292545,-3.689217 -7.508848,-3.422491 -1.166821,0.09669 -1.836148,0.324844 -2.292501,0.781181 l -0.644522,0.64454 0.95943,1.74521 c 0.878109,1.59728 1.264839,3.30463 0.748536,3.30463 -0.115958,0 -0.779919,-0.61978 -1.475409,-1.37731 -1.19118,-1.29745 -1.331731,-1.36657 -2.423673,-1.19196 -0.747762,0.11958 -1.569183,0.56579 -2.314453,1.25728 -0.635401,0.58956 -1.387732,1.16171 -1.67184,1.27149 -0.456507,0.17636 -0.378742,0.42364 0.668622,2.12644 1.224574,1.99085 1.434903,2.778 0.840506,3.14537 -0.346103,0.21389 -1.140881,-0.54924 -3.273884,-3.14354 l -1.092337,-1.32859 -0.648438,0.58645 c -0.356651,0.32255 -0.894343,1.06824 -1.194873,1.65708 -1.300999,2.54904 -4.645862,14.03447 -5.191267,17.82549 -0.109941,0.76453 -0.04552,1.91543 0.147388,2.63174 0.296149,1.09981 0.431101,1.24993 0.991811,1.10324 3.084325,-0.80693 3.735459,-0.88521 4.194405,-0.50432 0.742661,0.61633 0.568699,0.87227 -1.093109,1.60814 -0.908102,0.40212 -1.707759,0.99085 -1.912676,1.40816 -0.360224,0.73359 -0.402225,4.72992 -0.04965,4.72992 0.107363,0 0.332654,0.39466 0.50081,0.877 0.288815,0.82852 0.409612,0.88289 2.18409,0.98309 1.033107,0.0584 2.180225,0.13176 2.549141,0.16336 0.383243,0.0326 0.914132,-0.22942 1.238522,-0.61152 z m 104.551029,-1.02511 c 5.056774,-4.06736 7.372445,-6.62368 7.172799,-7.91822 -0.05549,-0.35969 -0.598851,-0.75159 -1.530926,-1.10419 -1.598334,-0.6046 -2.567861,-1.34825 -2.567861,-1.96959 0,-0.32662 0.465955,-0.36788 2.365333,-0.20948 2.348459,0.19587 2.367873,0.19167 2.722889,-0.58753 0.196676,-0.43164 0.453644,-0.78479 0.571056,-0.78479 0.117297,0 0.379688,-0.40128 0.582836,-0.89173 0.203147,-0.49045 0.480605,-0.89174 0.616571,-0.89174 0.135879,0 0.386628,-0.5016 0.557039,-1.11466 0.306086,-1.10121 0.290097,-1.13396 -1.323633,-2.71337 -1.071189,-1.04841 -1.633435,-1.84135 -1.633435,-2.30362 0,-0.38773 0.167137,-0.70236 0.371536,-0.6992 0.204374,0.004 1.431791,0.73822 2.727641,1.63346 2.169403,1.49871 2.396895,1.59076 2.871243,1.16147 0.879835,-0.79622 1.461951,-5.0579 1.461281,-10.69801 -6.07e-4,-5.73674 -0.384985,-7.69219 -1.78725,-9.094458 -1.164838,-1.16485 -2.591965,-1.177667 -2.828495,-0.02541 -0.391873,1.908968 -0.77687,3.046758 -1.030969,3.046758 -0.149454,0 -0.355205,-0.5016 -0.457095,-1.11467 -0.317323,-1.909462 -0.350794,-1.947774 -1.556243,-1.782596 -1.477991,0.202506 -3.635828,1.163246 -3.635828,1.618786 0,0.20061 0.267535,1.04344 0.594503,1.87296 0.595185,1.51004 0.801998,3.56692 0.358656,3.56692 -0.129698,0 -0.934022,-1.19701 -1.787376,-2.66007 -0.85338,-1.46304 -1.694435,-2.74835 -1.869042,-2.85628 -1.220782,-0.75449 -5.492735,6.69434 -7.7966,13.59463 -1.690745,5.06392 -1.834725,5.861 -1.292589,7.15547 0.52224,1.24692 0.882754,1.33415 2.78064,0.6729 0.957317,-0.33354 1.45582,-0.35895 2.168518,-0.11047 0.508994,0.17743 0.885914,0.43995 0.837605,0.58338 -0.04828,0.14343 -0.819328,0.63859 -1.713408,1.1004 -1.408736,0.72765 -1.656502,0.98844 -1.85735,1.9551 -0.12746,0.6135 -0.111609,1.34039 0.03501,1.61531 0.146698,0.27492 0.362574,1.26897 0.479695,2.209 l 0.212943,1.70915 h 2.77202 c 1.565307,0 2.853661,0.1321 2.959583,0.30349 0.252544,0.40862 -1.481858,1.10203 -3.389439,1.35508 -1.970868,0.26144 -2.869056,0.9324 -2.558406,1.91115 0.229249,0.72226 3.020342,3.86138 3.433286,3.86138 0.124882,0 1.008268,-0.62849 1.963272,-1.39667 z m 154.816935,-0.35782 c 1.81119,-1.04458 3.71554,-2.90835 3.71554,-3.63632 0,-0.32481 -0.64641,-0.94931 -1.64144,-1.58584 -1.53724,-0.98335 -2.56136,-2.2956 -2.12901,-2.72796 0.10466,-0.10466 0.76621,0.0297 1.47014,0.2985 2.35652,0.89997 3.56073,0.58112 4.47298,-1.18435 0.26431,-0.51151 0.68613,-1.00893 0.93741,-1.10535 0.25126,-0.0963 0.45685,-0.38195 0.45685,-0.63454 0,-0.25257 0.15838,-0.71274 0.35182,-1.02259 0.30507,-0.48845 0.14705,-0.7875 -1.18896,-2.24925 -1.44426,-1.58025 -1.88054,-2.58189 -1.28489,-2.95004 0.1407,-0.087 1.22226,0.57393 2.40331,1.46869 1.18104,0.89476 2.40005,1.62685 2.70888,1.62685 0.31224,0 0.74853,-0.36287 0.98284,-0.81742 0.47427,-0.92017 1.39276,-5.21435 2.11399,-9.88335 0.26514,-1.71659 0.59888,-3.6561 0.74165,-4.31005 0.14276,-0.65393 0.4167,-2.46604 0.60876,-4.02691 0.29974,-2.43597 0.28406,-2.99388 -0.1106,-3.93849 -0.25291,-0.60528 -0.60464,-1.100514 -0.78162,-1.100514 -0.17698,0 -1.12689,0.271224 -2.11093,0.602704 -0.98402,0.33151 -1.91613,0.52424 -2.07133,0.42834 -0.47097,-0.29108 -0.3161,-0.73382 0.25669,-0.73382 0.7221,0 2.13632,-1.513127 2.13632,-2.285713 0,-0.617519 -0.62559,-1.143426 -2.14015,-1.799181 l -0.80255,-0.347457 -0.73825,2.290493 -0.73823,2.290488 -0.0197,-2.898137 -0.0197,-2.898102 h -1.1949 c -1.46222,0 -2.85066,0.846086 -4.9509,3.016993 -1.8876,1.951112 -5.0711,6.686606 -6.68581,9.945236 -1.05409,2.12721 -1.1763,2.58205 -0.99007,3.68437 l 0.21246,1.25755 1.70662,-0.19308 c 1.86625,-0.21114 3.28251,0.15357 3.28251,0.84531 0,0.38666 -1.60755,1.05515 -2.54907,1.06003 -0.17585,9e-4 -0.63076,0.33275 -1.01091,0.73739 -0.60129,0.64004 -0.7096,1.11814 -0.83276,3.67611 l -0.14154,2.9404 1.44276,0.21636 c 2.29427,0.34404 4.56812,1.75471 3.90206,2.42077 -0.0851,0.0851 -1.50242,-0.0138 -3.14967,-0.21909 -1.64724,-0.20559 -3.08745,-0.28131 -3.20047,-0.16835 -0.39032,0.39031 -0.11149,2.55119 0.6091,4.71943 1.82048,5.47826 3.71336,10.05359 4.15774,10.04979 0.17981,-0.001 0.99574,-0.38852 1.81317,-0.85995 z m -253.400299,-2.25831 c 0.383965,-0.40872 0.631243,-0.74311 0.549494,-0.74311 -0.08177,0 -0.462762,0.33439 -0.846725,0.74311 -0.383964,0.4087 -0.631243,0.7431 -0.549493,0.7431 0.08177,0 0.462761,-0.3344 0.846724,-0.7431 z m 211.637549,0.44585 c 0,-0.16354 -0.0589,-0.29723 -0.13107,-0.29723 -0.0722,0 -0.21374,0.13382 -0.31479,0.29723 -0.10099,0.16353 -0.0421,0.29725 0.13107,0.29725 0.17314,0 0.31479,-0.13382 0.31479,-0.29725 z M 12.284339,132.0844 c 2.346474,-3.91196 4.903775,-7.7162 7.842222,-11.66608 1.862001,-2.50291 2.859961,-4.10911 2.862606,-4.60727 0.0018,-0.42064 0.07816,-1.04097 0.168861,-1.37849 0.148419,-0.55282 -0.03625,-0.65073 -1.861674,-0.98707 -1.872892,-0.34511 -3.067163,-0.95501 -3.067163,-1.56637 0,-0.13812 0.859883,-0.25118 1.910854,-0.25118 1.320033,0 2.051665,-0.14086 2.366281,-0.45543 0.58232,-0.58231 0.933783,-2.45114 0.823105,-4.37685 l -0.04707,-0.8195 -2.155008,0.19916 c -1.926676,0.17804 -2.114672,0.1503 -1.774307,-0.26236 0.209401,-0.25382 1.175032,-0.75855 2.145851,-1.12162 2.270153,-0.84897 2.607633,-1.24003 1.944079,-2.25275 -1.244879,-1.89991 -4.965565,-2.46534 -7.702565,-1.17053 -1.827731,0.86466 -4.752574,3.42338 -6.2590062,5.47555 -0.854747,1.16439 -1.061227,1.71263 -1.061227,2.81777 v 1.37208 l 1.411918,0.001 c 1.3787122,0.001 3.3439882,0.85264 3.3439882,1.44895 0,0.37998 -0.769991,0.63065 -1.937052,0.63065 -2.3063462,0 -3.1418022,0.98635 -3.5493182,4.19032 -0.112343,0.88326 -0.2669638,1.82894 -0.3435954,2.10148 -0.1039248,0.36934 0.3603104,0.7415 1.8228524,1.4615 2.0718302,1.01997 3.0300752,1.9627 2.5167592,2.47602 -0.246195,0.24617 -3.1387262,-0.50639 -5.814883,-1.51294 -0.1760061,-0.0661 -0.4985927,0.42072 -0.7168577,1.08206 -0.341621,1.03513 -0.3252157,1.60331 0.1178414,4.08421 0.6025037,3.37315 0.9707846,4.3414 2.6083541,6.85754 l 1.213924,1.8652 0.9262932,-0.70257 c 0.509451,-0.38642 1.528196,-1.70608 2.263882,-2.93258 z m 202.125761,3.48921 c 0,-0.0722 -0.13382,-0.21375 -0.29726,-0.31478 -0.16353,-0.10099 -0.29725,-0.0421 -0.29725,0.13106 0,0.17314 0.13382,0.31479 0.29725,0.31479 0.16354,0 0.29726,-0.0589 0.29726,-0.13107 z m -34.92616,-4.64662 c 4.23939,-4.58599 6.16899,-7.18321 6.0332,-8.12066 -0.067,-0.46224 -0.41156,-0.67335 -1.42499,-0.87291 -1.65134,-0.32516 -2.97337,-1.23003 -2.97337,-2.03512 0,-0.47834 0.14138,-0.57254 0.6688,-0.44592 2.29657,0.55131 2.76767,0.53793 3.58086,-0.10174 0.94804,-0.74573 1.56802,-1.8447 1.94957,-3.45579 0.14927,-0.63022 0.36146,-1.36282 0.47156,-1.62797 0.15066,-0.36274 -0.19048,-0.70406 -1.37751,-1.37843 -0.86775,-0.49296 -1.89874,-1.24228 -2.29106,-1.66516 -1.16314,-1.25367 -0.10175,-1.29053 2.9487,-0.10238 2.99421,1.16617 3.00197,1.16377 3.41924,-1.0605 0.56537,-3.01363 -3.21669,-16.817886 -5.01711,-18.312106 -0.25606,-0.212488 -1.00584,-0.458839 -1.66621,-0.547406 L 182.605,91.039929 v 1.186629 c 0,1.796034 -0.34583,3.944796 -0.63489,3.944796 -0.1412,0 -0.25684,-0.410074 -0.25684,-0.911282 0,-2.193912 -1.47503,-2.725101 -3.28091,-1.18151 -0.56603,0.483803 -1.2086,0.88508 -1.42797,0.891728 -0.26853,0.0088 -0.05,0.646655 0.66882,1.954387 1.01375,1.844343 1.38137,3.408083 0.80116,3.408083 -0.32025,0 -1.65095,-1.4867 -2.86361,-3.199286 -0.48549,-0.685674 -1.09348,-1.249525 -1.35108,-1.253039 -1.3374,-0.01807 -2.94551,3.210522 -5.17859,10.397195 -1.99857,6.43193 -2.59816,10.16205 -1.88505,11.72714 0.39882,0.87533 0.93114,0.93875 2.47269,0.29465 1.23497,-0.516 2.86975,-0.47285 3.05135,0.0805 0.0651,0.19866 -0.56029,0.77885 -1.3899,1.2893 -0.95479,0.58749 -1.57733,1.20271 -1.69618,1.67628 -0.21393,0.85243 0.40269,3.79689 0.98899,4.72252 0.21538,0.34003 0.29079,0.72679 0.16765,0.85951 -0.12311,0.13261 0.31107,0.1503 0.96501,0.0392 3.81684,-0.64875 5.76422,-0.4276 4.48315,0.50914 -0.3119,0.22807 -1.45481,0.70059 -2.5398,1.05003 -2.48941,0.80177 -3.11511,1.24343 -2.86735,2.02403 0.25613,0.80697 3.85906,4.56073 4.37561,4.55877 0.2269,-9e-4 2.15143,-1.88261 4.27673,-4.18164 z m -52.44572,-0.49839 c 1.02575,-1.75744 2.89224,-4.93424 4.14777,-7.05953 3.14324,-5.32077 3.26552,-5.58734 3.26552,-7.11909 v -1.35235 h -1.86593 c -1.20777,0 -2.099,-0.16319 -2.52658,-0.46272 -1.35268,-0.94746 -0.58252,-1.60565 1.88844,-1.61393 1.65528,-0.005 2.43571,-0.88192 2.80759,-3.15279 0.49525,-3.02432 0.47377,-3.0928 -0.97232,-3.09744 -2.66532,-0.009 -3.33317,-0.67355 -1.0388,-1.03435 0.69394,-0.10909 1.76334,-0.32658 2.37641,-0.48321 1.07487,-0.27459 1.11465,-0.33119 1.11465,-1.58565 0,-1.16912 -0.13536,-1.42007 -1.33712,-2.47786 -2.81045,-2.473836 -6.6159,-1.94683 -9.9392,1.37644 -1.47241,1.47244 -1.97413,2.6865 -1.75388,4.24405 0.0952,0.67345 0.21272,0.70925 2.42425,0.73885 1.70777,0.0229 2.45093,0.15786 2.80227,0.50926 0.53716,0.53716 0.53943,0.53562 -1.56868,1.07372 -0.65898,0.16817 -1.43545,0.47935 -1.7255,0.69142 -0.66145,0.48368 -1.17429,2.58412 -0.75442,3.09002 0.20468,0.24663 0.19268,0.56518 -0.0374,0.99521 -0.23437,0.43792 -0.24398,0.74637 -0.0312,1.00274 0.16903,0.20363 0.27861,0.75015 0.24357,1.21447 -0.0597,0.79052 0.0374,0.86753 1.52647,1.20973 1.98192,0.4555 3.13619,1.2875 3.26237,2.35153 0.0799,0.67313 0.001,0.78545 -0.44587,0.64462 -1.19514,-0.37563 -5.26791,-1.36994 -5.61142,-1.36994 -0.68282,0 -0.74866,0.98351 -0.26702,3.98872 0.7039,4.39201 1.9531,10.87347 2.09568,10.87347 0.0306,0 0.89468,-1.43793 1.92043,-3.19539 z m 158.97907,0.59449 c -0.033,-2.32507 -0.56509,-4.88112 -1.04939,-5.04157 -0.59094,-0.19579 -2.54428,3.85078 -2.82985,5.86243 -0.091,0.64084 0.034,0.76424 0.93533,0.92349 0.57221,0.10112 1.47509,0.2014 2.0064,0.22292 l 0.96604,0.0392 z"
       id="path9307"
       clip-path="url(#clipPath9423)" /><circle
       style="fill:#427328;fill-opacity:0;stroke:#000000;stroke-width:5.29167;stroke-dasharray:none;stroke-opacity:1;paint-order:normal"
       id="circle9421"
       cx="132.29167"
       cy="132.29167"
       r="125.37917" /></g></svg>
