<?xml version="1.0" encoding="UTF-8" standalone="no"?>
<!-- Created with Inkscape (http://www.inkscape.org/) -->

<svg
   width="1000"
   height="1000"
   viewBox="0 0 264.58333 264.58333"
   version="1.1"
   id="svg5"
   inkscape:version="1.2.2 (b0a8486541, 2022-12-01)"
   sodipodi:docname="Non_Interventionism.svg"
   xml:space="preserve"
   xmlns:inkscape="http://www.inkscape.org/namespaces/inkscape"
   xmlns:sodipodi="http://sodipodi.sourceforge.net/DTD/sodipodi-0.dtd"
   xmlns="http://www.w3.org/2000/svg"
   xmlns:svg="http://www.w3.org/2000/svg"><sodipodi:namedview
     id="namedview7"
     pagecolor="#ffffff"
     bordercolor="#000000"
     borderopacity="0.25"
     inkscape:showpageshadow="2"
     inkscape:pageopacity="0.0"
     inkscape:pagecheckerboard="0"
     inkscape:deskcolor="#d1d1d1"
     inkscape:document-units="px"
     showgrid="false"
     inkscape:zoom="0.52787981"
     inkscape:cx="318.25426"
     inkscape:cy="428.12776"
     inkscape:window-width="1920"
     inkscape:window-height="1004"
     inkscape:window-x="0"
     inkscape:window-y="0"
     inkscape:window-maximized="1"
     inkscape:current-layer="layer1" /><defs
     id="defs2"><filter
       id="mask-powermask-path-effect9341_inverse"
       inkscape:label="filtermask-powermask-path-effect9341"
       style="color-interpolation-filters:sRGB"
       height="100"
       width="100"
       x="-50"
       y="-50"><feColorMatrix
         id="mask-powermask-path-effect9341_primitive1"
         values="1"
         type="saturate"
         result="fbSourceGraphic" /><feColorMatrix
         id="mask-powermask-path-effect9341_primitive2"
         values="-1 0 0 0 1 0 -1 0 0 1 0 0 -1 0 1 0 0 0 1 0 "
         in="fbSourceGraphic" /></filter><filter
       id="mask-powermask-path-effect9411_inverse"
       inkscape:label="filtermask-powermask-path-effect9411"
       style="color-interpolation-filters:sRGB"
       height="100"
       width="100"
       x="-50"
       y="-50"><feColorMatrix
         id="mask-powermask-path-effect9411_primitive1"
         values="1"
         type="saturate"
         result="fbSourceGraphic" /><feColorMatrix
         id="mask-powermask-path-effect9411_primitive2"
         values="-1 0 0 0 1 0 -1 0 0 1 0 0 -1 0 1 0 0 0 1 0 "
         in="fbSourceGraphic" /></filter><clipPath
       clipPathUnits="userSpaceOnUse"
       id="clipPath9423"><circle
         style="fill:#427328;fill-opacity:0;stroke:#000000;stroke-width:5.29167;stroke-dasharray:none;stroke-opacity:1;paint-order:normal"
         id="circle9425"
         cx="132.29167"
         cy="132.29167"
         r="125.37917" /></clipPath></defs><g
     inkscape:label="Layer 1"
     inkscape:groupmode="layer"
     id="layer1"><circle
       style="fill:#ffffff;fill-opacity:1;stroke:#ffffff;stroke-width:0;stroke-dasharray:none;stroke-opacity:0.9921568;paint-order:stroke markers fill"
       id="path236"
       r="125.37917"
       cy="132.29167"
       cx="132.29167" /><circle
       style="fill:#427328;fill-opacity:0;stroke:#000000;stroke-width:5.29167;stroke-dasharray:none;stroke-opacity:1;paint-order:normal"
       id="circle9421"
       cx="132.29167"
       cy="132.29167"
       r="125.37917" /><path
       style="fill:#000000;stroke-width:0.264583"
       d="m 124.74844,211.93697 c -9.40804,-0.94818 -18.68912,-3.55329 -27.10362,-7.6077 -13.06322,-6.29434 -23.73787,-15.61931 -31.944,-27.90507 l -2.26099,-3.38503 -2.07175,-4.02331 -2.07175,-4.0233 -1.24201,-3.175 c -2.47418,-6.32484 -4.06948,-12.5722 -5.03342,-19.71146 l -0.44655,-3.30729 -0.0143,-6.21771 -0.0143,-6.21771 0.32817,-2.51354 c 0.5663,-4.33743 1.08687,-7.24216 1.87935,-10.48671 5.46648,-22.380696 20.64903,-41.604932 41.02321,-51.943848 11.00099,-5.582473 20.64933,-8.112294 33.86667,-8.879934 l 3.04271,-0.176716 4.23333,0.305385 c 8.73851,0.630386 15.50496,2.041414 23.01875,4.800172 l 2.91042,1.068584 4.7625,2.336894 4.7625,2.336889 2.77812,1.793973 c 9.69418,6.260007 17.38787,13.842172 23.7352,23.391146 6.99852,10.52863 11.17996,22.100255 12.81149,35.454165 l 0.33941,2.77813 -0.0177,6.08541 -0.0177,6.08542 -0.44839,3.30729 c -1.3321,9.82491 -3.88853,18.17807 -8.0779,26.39448 -12.5889,24.6904 -36.24748,40.75234 -64.00498,43.45347 l -2.74002,0.26664 -4.9329,-0.0352 c -2.7131,-0.0194 -5.8854,-0.13119 -7.04957,-0.24852 z m 0.39687,-38.27852 v -24.01016 l -16.80104,16.79948 c -9.24057,9.23971 -16.80104,16.92416 -16.80104,17.07655 v 0.27708 l 2.18281,1.61178 c 6.74909,4.98353 14.99955,8.81396 23.25989,10.79883 2.35394,0.56563 6.54319,1.33136 7.82865,1.43096 l 0.33073,0.0256 z m 18.78542,23.31159 c 9.31949,-1.62846 18.45898,-5.5112 26.52448,-11.26843 l 2.57969,-1.8414 v -0.30648 -0.30648 l -16.80104,-16.79948 -16.80105,-16.79948 v 24.01328 24.01329 l 1.12448,-0.15592 c 0.61847,-0.0858 2.13651,-0.33276 3.37344,-0.5489 z m -40.67221,-45.55276 21.88679,-21.90966 v -31.139302 -31.1393 h -0.6268 c -0.34474,0 -1.68419,0.182142 -2.97656,0.404761 -16.08175,2.770174 -29.86088,10.88028 -40.53742,23.859479 -0.62334,0.757777 -2.1388,2.883376 -3.36768,4.723551 l -2.23434,3.345772 -1.82769,3.743119 c -3.98645,8.16429 -5.90201,15.30834 -6.68401,24.9279 l -0.31694,3.89864 0.32983,4.36793 0.32982,4.36793 0.52642,2.93411 c 1.83512,10.22846 5.77854,19.3953 11.93273,27.73879 0.72452,0.98226 1.39871,1.78594 1.49818,1.78594 0.0995,0 10.02993,-9.85935 22.06767,-21.90966 z m 81.62694,20.12372 c 5.72199,-7.75754 9.71226,-16.70096 11.59455,-25.98697 l 0.6687,-3.29894 0.37308,-3.84481 c 0.4462,-4.59833 0.47288,-7.10152 0.11712,-10.98855 -1.40635,-15.36595 -6.70998,-27.669054 -16.92595,-39.26403 l -1.72494,-1.957777 -3.19941,-2.809382 C 168.61202,77.088836 161.44288,72.959569 152.52969,69.993904 l -3.43958,-1.144445 -3.175,-0.660146 c -1.74625,-0.36308 -3.91914,-0.743059 -4.82865,-0.844393 l -1.65365,-0.184252 V 98.328632 129.4966 l 21.88446,21.91517 c 12.03646,12.05334 21.96691,21.91517 22.06767,21.91517 0.10076,0 0.77599,-0.80368 1.50052,-1.78594 z"
       id="path12123" /></g></svg>
