<?xml version="1.0" encoding="UTF-8" standalone="no"?>
<!-- Created with Inkscape (http://www.inkscape.org/) -->

<svg
   width="1000"
   height="1000"
   viewBox="0 0 264.58333 264.58333"
   version="1.1"
   id="svg5"
   inkscape:version="1.2.2 (b0a8486541, 2022-12-01)"
   sodipodi:docname="Realpolitik.svg"
   xml:space="preserve"
   xmlns:inkscape="http://www.inkscape.org/namespaces/inkscape"
   xmlns:sodipodi="http://sodipodi.sourceforge.net/DTD/sodipodi-0.dtd"
   xmlns="http://www.w3.org/2000/svg"
   xmlns:svg="http://www.w3.org/2000/svg"><sodipodi:namedview
     id="namedview7"
     pagecolor="#ffffff"
     bordercolor="#000000"
     borderopacity="0.25"
     inkscape:showpageshadow="2"
     inkscape:pageopacity="0.0"
     inkscape:pagecheckerboard="0"
     inkscape:deskcolor="#d1d1d1"
     inkscape:document-units="px"
     showgrid="false"
     inkscape:zoom="0.52787981"
     inkscape:cx="-17.049336"
     inkscape:cy="405.39531"
     inkscape:window-width="1920"
     inkscape:window-height="1004"
     inkscape:window-x="0"
     inkscape:window-y="0"
     inkscape:window-maximized="1"
     inkscape:current-layer="layer1" /><defs
     id="defs2"><rect
       x="221.06244"
       y="324.89398"
       width="511.3064"
       height="424.42001"
       id="rect344" /></defs><g
     inkscape:label="Layer 1"
     inkscape:groupmode="layer"
     id="layer1"><circle
       style="fill:#2e2e2e;fill-opacity:1;stroke:#000000;stroke-width:0;stroke-dasharray:none;stroke-opacity:1;paint-order:stroke markers fill"
       id="path236"
       cx="132.29167"
       cy="132.29167"
       r="125.37917" /><circle
       style="fill:#ffffff;fill-opacity:0;stroke:#ffffff;stroke-width:5.29167;stroke-dasharray:none;stroke-opacity:1;paint-order:normal"
       id="path236-3"
       cx="132.29167"
       cy="132.29167"
       r="125.37917" /><path
       style="fill:#ffffff;stroke:#fbc900;stroke-width:0"
       d="m 62.121019,195.80159 v -1.68063 l 4.668203,-0.27851 c 5.104542,-0.30454 7.850478,-1.20148 10.037196,-3.27859 3.309189,-3.1433 3.073678,0.99645 3.226639,-56.71747 C 80.152767,96.225678 80.031547,80.706696 79.6224,78.712312 79.167618,76.495442 78.631596,75.53025 76.9599,73.918051 74.485107,71.531335 72.36848,70.812415 66.484837,70.360162 l -4.363818,-0.335428 v -1.461807 -1.46181 l 40.222811,0.207153 c 27.53038,0.141785 41.48811,0.395613 44.23257,0.804392 6.9996,1.042561 12.40274,2.538063 16.79084,4.647424 3.534,1.698805 5.03192,2.827793 8.78594,6.622008 7.0277,7.10297 9.73663,13.607367 9.75175,23.414876 0.024,15.55821 -8.65511,26.51254 -25.06841,31.64017 -2.18346,0.68213 -3.43538,1.3253 -3.29446,1.69253 0.34201,0.89127 32.1373,45.59185 34.98333,49.1826 1.35889,1.71448 3.46045,3.98843 4.67012,5.05323 2.06423,1.817 6.1954,3.60818 8.32191,3.60818 0.74572,0 0.94489,0.36977 0.94489,1.75427 v 1.75426 h -20.29578 -20.29579 l -2.66028,-3.63383 c -1.46316,-1.99861 -10.98286,-15.41875 -21.1549,-29.82253 l -18.49462,-26.18868 h -4.44136 -4.44135 l 0.15581,24.18381 c 0.1708,26.50763 0.0582,25.51709 3.24369,28.54288 2.17166,2.0628 4.76272,2.9079 9.96285,3.24949 l 4.74255,0.31152 v 1.67867 1.67867 H 95.452077 62.121019 Z m 64.040931,-64.98714 c 2.55557,-0.26922 6.12016,-0.85967 7.9213,-1.3121 7.10982,-1.78594 12.53131,-7.14242 15.07195,-14.89125 1.19984,-3.65944 1.34273,-4.85602 1.35637,-11.35804 0.0231,-11.018931 -1.94116,-17.365955 -6.91169,-22.333493 -5.14274,-5.13964 -10.40439,-6.732559 -23.46277,-7.103155 l -9.39786,-0.266711 v 28.885809 28.88581 l 5.38811,-0.009 c 2.96345,-0.005 7.47902,-0.22896 10.03459,-0.49818 z"
       id="path362" /></g></svg>
