<?xml version="1.0" encoding="UTF-8" standalone="no"?>
<!-- Created with Inkscape (http://www.inkscape.org/) -->

<svg
   width="1000"
   height="1000"
   viewBox="0 0 264.58333 264.58333"
   version="1.1"
   id="svg5"
   inkscape:version="1.2.2 (b0a8486541, 2022-12-01)"
   sodipodi:docname="communitarianism.svg"
   xml:space="preserve"
   xmlns:inkscape="http://www.inkscape.org/namespaces/inkscape"
   xmlns:sodipodi="http://sodipodi.sourceforge.net/DTD/sodipodi-0.dtd"
   xmlns="http://www.w3.org/2000/svg"
   xmlns:svg="http://www.w3.org/2000/svg"><sodipodi:namedview
     id="namedview7"
     pagecolor="#ffffff"
     bordercolor="#000000"
     borderopacity="0.25"
     inkscape:showpageshadow="2"
     inkscape:pageopacity="0.0"
     inkscape:pagecheckerboard="0"
     inkscape:deskcolor="#d1d1d1"
     inkscape:document-units="px"
     showgrid="false"
     inkscape:zoom="0.74653479"
     inkscape:cx="314.78774"
     inkscape:cy="466.15376"
     inkscape:window-width="1920"
     inkscape:window-height="1004"
     inkscape:window-x="0"
     inkscape:window-y="0"
     inkscape:window-maximized="1"
     inkscape:current-layer="layer1" /><defs
     id="defs2"><filter
       id="mask-powermask-path-effect1955_inverse"
       inkscape:label="filtermask-powermask-path-effect1955"
       style="color-interpolation-filters:sRGB"
       height="100"
       width="100"
       x="-50"
       y="-50"><feColorMatrix
         id="mask-powermask-path-effect1955_primitive1"
         values="1"
         type="saturate"
         result="fbSourceGraphic" /><feColorMatrix
         id="mask-powermask-path-effect1955_primitive2"
         values="-1 0 0 0 1 0 -1 0 0 1 0 0 -1 0 1 0 0 0 1 0 "
         in="fbSourceGraphic" /></filter><filter
       id="mask-powermask-path-effect1983_inverse"
       inkscape:label="filtermask-powermask-path-effect1983"
       style="color-interpolation-filters:sRGB"
       height="100"
       width="100"
       x="-50"
       y="-50"><feColorMatrix
         id="mask-powermask-path-effect1983_primitive1"
         values="1"
         type="saturate"
         result="fbSourceGraphic" /><feColorMatrix
         id="mask-powermask-path-effect1983_primitive2"
         values="-1 0 0 0 1 0 -1 0 0 1 0 0 -1 0 1 0 0 0 1 0 "
         in="fbSourceGraphic" /></filter><clipPath
       clipPathUnits="userSpaceOnUse"
       id="clipPath2020"><path
         id="path2022"
         style="fill:#000000;fill-opacity:1;stroke-width:0.246708"
         d="M 4.5525353,4.2133041 V 102.9105 c 0.296472,0.3053 0.5801511,0.64516 0.8495051,1.01767 -7.672e-4,-1.91712 -0.012729,-5.149521 0.00241,-5.166412 0.135305,-0.150852 4.6734766,4.290972 8.1196826,7.947182 6.366563,6.75451 12.8426,14.53743 21.564307,25.91591 9.783196,12.76331 19.924363,21.73247 34.55503,30.56193 7.984027,4.81823 11.853794,8.27569 26.714828,23.869 6.268452,6.57746 7.742222,8.34084 15.027502,17.97788 5.4076,7.1531 7.60886,9.89013 10.66482,13.26056 0.84619,0.93328 2.26018,2.62961 3.14215,3.76904 0.88199,1.13955 2.93583,3.41084 4.5641,5.04692 4.74345,4.76648 9.17715,8.22342 18.50311,14.42712 8.76639,5.83157 13.51803,9.70293 20.74661,16.90384 3.91762,3.90277 11.79925,12.67449 11.58804,12.89676 -0.001,0.003 -0.19849,0.0109 -0.20719,0.0124 1.32603,0.068 2.65041,0.16992 3.97431,0.27321 3.24351,0.20018 6.47984,0.49223 9.71413,0.80518 3.00066,0.35025 6.00005,0.70138 9.01255,0.93191 2.43835,0.24601 4.87968,0.43543 7.328,0.54015 0.46693,-0.004 0.93423,0.007 1.40075,-0.0124 3.29376,-0.13838 6.58675,-0.59812 9.85627,-0.98153 4.21137,-0.49384 6.1834,-0.73988 10.40029,-1.25524 4.17208,-0.52781 8.34005,-1.09021 12.5079,-1.64983 2.66528,-0.35785 4.89971,-0.14576 6.67896,0.4481 v -20.03059 -32.32694 l -4.48604,-5.35771 c -10.24278,-12.23257 -19.05105,-21.81288 -27.66552,-30.09019 -4.95529,-4.76144 -6.75657,-6.11603 -18.17689,-13.67207 -10.89829,-7.21054 -13.06069,-9.00929 -20.86562,-17.35532 -5.69167,-6.08625 -8.39473,-9.37728 -16.51018,-20.10237 -5.6931,-7.52391 -9.05109,-11.7248 -12.19228,-15.25302 -2.65046,-2.97683 -13.93001,-14.29966 -16.05627,-16.11794 -2.70902,-2.316527 -7.03797,-5.417803 -13.50389,-9.673176 C 108.50643,81.719218 105.09283,78.926591 97.826006,70.851944 90.074167,62.238392 85.215097,56.39599 79.438549,48.744108 67.056571,32.342412 53.274277,18.425937 39.401011,8.3167529 37.670573,7.0558119 35.613969,5.6166421 34.831131,5.1187032 L 33.407741,4.2133041 H 18.980138 Z m 59.6291447,0 3.307429,3.3922358 C 75.252,15.567778 81.543569,23.148801 94.522916,40.178712 101.5154,49.353427 103.5454,51.83384 107.0024,55.4298 c 4.78801,4.980601 10.3089,9.445604 16.60654,13.430171 12.57891,7.958888 20.15403,14.029676 29.5852,23.709992 7.29851,7.491337 8.7708,9.235157 19.56752,23.176587 6.51589,8.41379 11.05592,13.89712 15.65536,18.90738 6.78074,7.38625 11.49482,11.22371 23.36402,19.01916 11.37446,7.47051 11.51305,7.5828 20.87526,16.93323 7.66517,7.65554 13.19286,13.59859 17.03539,18.31567 0.79509,0.97609 1.47329,1.78117 1.50723,1.78863 0.0338,0.007 0.0616,-7.75038 0.0616,-17.23968 v -17.25319 l -3.38404,-3.4968 c -6.67881,-6.90082 -12.27598,-11.49889 -21.96618,-18.04583 -9.76478,-6.59721 -14.59185,-10.33415 -21.0839,-16.32127 -4.85271,-4.47521 -8.59421,-8.69705 -13.14588,-14.8338 C 184.24821,93.49905 178.26051,86.598862 168.7565,77.100596 157.53273,65.88354 148.11694,57.816882 136.44257,49.415808 122.30365,39.241309 113.70068,31.345986 106.9147,22.317435 103.57634,17.875918 99.262778,10.25703 97.537856,5.7552293 L 96.947108,4.2133041 H 80.564637 Z m 187.07891,0 -19.67496,0.060232 -19.67497,0.060232 19.55161,0.064568 19.55162,0.064568 V 27.528663 c 0,12.686 0.0555,23.065755 0.12335,23.065755 0.0679,0 0.12335,-10.435894 0.12335,-23.190557 z M 211.94102,15.446712 c -0.0635,0.04373 -0.1688,0.0575 -0.19034,0.131545 -0.0234,0.08048 -0.0411,0.161997 -0.0587,0.243817 0.0807,-0.127853 0.16126,-0.255952 0.24912,-0.375362 z M 5.5075653,44.426716 c 0.4097012,0 5.0994857,2.178254 7.1757347,3.332967 7.839108,4.359785 14.507717,9.491477 22.428749,17.258966 7.921564,7.768016 14.337374,15.289194 24.945462,29.243094 2.217798,2.917291 5.054581,6.580957 6.303584,8.141367 7.247736,9.0548 17.389123,18.33304 26.019508,23.80443 11.564767,7.33184 16.507437,11.23141 25.779547,20.33945 11.54899,11.34461 14.77002,15.09345 24.91992,29.00506 5.13309,7.03534 8.0953,10.54378 13.93467,16.50438 8.4488,8.6242 15.22375,13.96338 24.77489,19.52367 4.637,2.69955 10.62317,7.63753 16.97852,14.00646 5.22999,5.24117 12.63195,13.09366 14.8314,15.73391 2.07262,2.48801 8.69344,9.56784 15.32336,16.38536 2.24326,2.30672 4.07958,4.26107 4.08032,4.34294 7.9e-4,0.0819 -1.19249,0.708 -2.65115,1.39158 -3.41258,1.59925 -8.67229,3.26843 -14.12114,4.48123 -6.15867,1.37078 -5.89712,1.34837 -6.9218,0.5869 -0.48103,-0.35751 -1.36919,-1.32408 -1.97367,-2.1481 -7.41849,-10.11294 -14.36343,-18.0098 -24.46746,-27.82068 -8.15958,-7.92284 -10.08348,-9.46258 -18.66597,-14.94077 -7.48057,-4.77476 -10.33248,-6.80354 -13.36511,-9.5079 -1.40189,-1.25008 -3.3324,-2.94664 -4.28994,-3.77001 -2.51463,-2.16229 -8.28903,-7.99059 -11.2705,-11.37555 -3.7083,-4.20994 -7.753,-9.2987 -14.08405,-17.71913 -3.06047,-4.07069 -6.49095,-8.51143 -7.62289,-9.86833 -2.91591,-3.49533 -11.75137,-12.4023 -17.952823,-18.09834 -4.921104,-4.52007 -5.625864,-5.06975 -10.501003,-8.19004 C 70.981336,136.02312 67.017232,132.89414 57.508033,123.27885 48.876092,114.55063 46.741638,111.99883 36.744081,98.45578 30.572641,90.095754 27.746692,86.529282 24.49734,83.000389 20.845563,79.034488 15.925887,74.642574 12.758951,72.521561 9.5317383,70.360166 6.4315374,67.955281 5.8477525,67.159996 L 5.2926593,66.403971 V 55.415343 c 0,-6.076587 0.09608,-10.988627 0.214906,-10.988627 z M 186.03041,50.726927 c -0.10173,0.09071 -0.20156,0.183546 -0.30116,0.277066 0.0503,0.0058 0.10162,0.0131 0.15178,0.01831 0.0395,-0.08206 0.0797,-0.163962 0.12288,-0.2443 0.009,-0.01664 0.0176,-0.03435 0.0265,-0.05108 z m -2.496,14.330751 c -0.0306,-0.0141 -0.0104,0.03754 0.0173,0.136845 0.0317,0.03749 0.0804,0.067 0.0968,0.111789 0.0619,0.0053 0.12063,0.01029 0.17877,0.01542 -0.002,-0.0019 -0.004,-0.0039 -0.006,-0.0058 -0.17498,-0.164042 -0.25659,-0.244181 -0.28718,-0.25827 z"
         mask="none" /></clipPath></defs><g
     inkscape:label="Layer 1"
     inkscape:groupmode="layer"
     id="layer1"><circle
       style="display:inline;fill:#ff8801;fill-opacity:1;stroke:#ffffff;stroke-width:5.29167;stroke-dasharray:none;stroke-opacity:1;paint-order:normal"
       id="path236-3"
       mask="none"
       r="125.37917"
       cy="132.29167"
       cx="132.29167" /><path
       style="fill:#fafafa;fill-opacity:1;stroke-width:0.212015"
       d="m 93.671771,214.9358 c 0.883857,-1.61748 4.542651,-7.72541 10.653029,-17.78397 l 3.10789,-5.11604 v -3.94764 -3.94763 h 8.79865 8.79865 l -0.007,-3.86928 c -0.004,-2.12811 -0.0935,-10.58394 -0.19903,-18.79072 l -0.19194,-14.92144 3.15147,-6.30022 c 1.7333,-3.46512 3.20228,-6.6251 3.2644,-7.02219 0.0621,-0.39708 0.17388,-7.66283 0.24839,-16.14611 0.13316,-15.16268 0.12849,-15.42414 -0.27525,-15.42414 -0.74028,0 -3.55772,-0.79969 -5.81698,-1.65105 -1.21905,-0.459386 -4.73439,-2.192852 -7.81188,-3.852156 -6.55466,-3.534104 -8.01269,-4.153765 -10.50125,-4.463005 -3.13553,-0.389634 -4.12963,-0.04482 -9.031217,3.132585 -6.08206,3.942633 -9.37499,5.079388 -14.914744,5.148725 -2.514268,0.03147 -2.550121,0.341341 -0.05243,0.453191 1.253857,0.0562 2.311436,0.14159 2.350177,0.18987 0.03874,0.0483 2.148553,6.57545 4.688473,14.50484 2.539921,7.92939 5.602251,17.47009 6.805185,21.20156 1.202929,3.73148 3.348746,10.40997 4.768476,14.84111 1.41974,4.43112 2.64262,8.12119 2.71752,8.20014 0.0749,0.0789 2.7035,0.22207 5.84131,0.31802 l 5.70513,0.17447 -1.98662,2.33218 c -1.09264,1.2827 -2.49152,2.8292 -3.10863,3.43668 -5.08795,5.00856 -12.209586,8.40924 -21.792152,10.40605 -2.745925,0.57219 -2.789804,0.57434 -11.76687,0.57434 -9.935049,0 -9.955892,-0.002 -15.967416,-1.50573 -5.059836,-1.2657 -9.411583,-3.13102 -13.116578,-5.62224 -2.597896,-1.74682 -5.423546,-4.4326 -8.560967,-8.13716 l -1.436459,-1.69613 6.434807,-0.10601 6.434806,-0.106 2.626323,-8.0566 c 1.444476,-4.43113 4.901623,-15.02131 7.682547,-23.53374 2.780923,-8.51243 5.93414,-18.1724 7.007144,-21.46659 l 1.95092,-5.98945 h 2.200343 2.200342 v -0.846248 c 0,-0.805795 -0.05638,-0.878067 -1.179312,-1.511812 -3.376045,-1.905321 -6.211979,-6.084155 -6.591199,-9.712322 -0.114811,-1.098468 -0.07726,-1.267358 0.376228,-1.692023 0.724865,-0.678794 1.425985,-0.459133 3.221936,1.009428 0.837183,0.684571 2.118445,1.588981 2.847248,2.0098 l 1.325099,0.765127 v -0.62939 -0.629389 h 2.968219 2.96822 l 0.0032,1.21909 c 0.0046,1.73728 0.110159,1.838772 1.723857,1.65785 2.537436,-0.284487 3.380444,-0.86812 9.422718,-6.523545 4.387119,-4.106241 5.390265,-4.93048 6.978807,-5.734168 2.144449,-1.084939 3.830089,-1.464365 6.571209,-1.479132 3.89584,-0.02099 7.93318,0.819766 15.47714,3.223021 5.79921,1.847431 10.06812,3.04577 10.23992,2.874475 0.21311,-0.212476 0.32074,-8.050327 0.14898,-10.848901 l -0.14486,-2.360326 -1.73472,-0.564296 c -2.9233,-0.95094 -5.33899,-3.148794 -6.87922,-6.258909 l -0.78203,-1.579121 v -3.207216 -3.207215 l 0.91645,-1.849473 c 2.0836,-4.204889 5.81845,-6.515217 10.5324,-6.515217 3.3752,0 5.95455,1.035945 8.27689,3.324234 1.53381,1.51133 2.93199,4.105932 3.30465,6.132502 0.31888,1.73403 0.11168,4.615642 -0.43085,5.992049 -1.34142,3.403204 -4.22587,6.275279 -7.2814,7.250165 l -0.79506,0.253667 v 6.890914 6.890914 l 0.60425,-0.132716 c 0.5638,-0.123832 7.83305,-2.289676 13.38878,-3.989137 6.94524,-2.124501 13.02539,-2.745404 16.74018,-1.709499 2.62905,0.73314 4.29421,1.88812 8.61165,5.973185 5.95736,5.636715 7.63501,6.895567 9.41873,7.067492 l 0.74206,0.07153 0.0627,-1.431106 0.0627,-1.431106 h 2.95854 2.95853 v 0.850908 0.850908 l 0.79506,-0.328319 c 1.47937,-0.610906 4.10853,-2.318612 6.59177,-4.281519 1.35955,-1.074674 2.50155,-1.868238 2.53779,-1.763477 0.11631,0.33624 -0.7948,4.944677 -1.24594,6.301993 -1.08218,3.255898 -3.94513,6.371133 -7.29643,7.939392 -1.13937,0.533177 -1.38225,0.73646 -1.38225,1.156891 0,0.506087 0.0172,0.510047 2.20888,0.510047 h 2.20888 l 0.42884,1.3251 c 0.23587,0.72881 2.1597,6.7633 4.27518,13.41 2.11547,6.64669 5.18456,16.2351 6.82018,21.30757 1.63563,5.07248 3.82452,11.89408 4.8642,15.15912 1.0397,3.26505 2.04988,6.38963 2.24485,6.94352 l 0.35448,1.00707 h 5.80623 c 3.33148,0 5.77609,0.081 5.73553,0.18992 -0.0389,0.10444 -1.06135,1.34867 -2.27222,2.76493 -4.01364,4.69454 -6.83447,6.88285 -12.18,9.44887 -4.8186,2.31307 -9.38481,3.64426 -15.40665,4.49149 -2.05314,0.28887 -4.10702,0.37365 -9.11667,0.37633 -5.73668,0.003 -6.81344,-0.0518 -9.54071,-0.48607 -6.25431,-0.99594 -10.25023,-2.15859 -14.46514,-4.20878 -5.79775,-2.8201 -9.4632,-5.81042 -13.03604,-10.63498 -0.634,-0.85611 -1.09077,-1.61852 -1.01504,-1.69423 0.0757,-0.0757 2.83266,-0.17284 6.12654,-0.21581 l 5.98887,-0.0781 2.45943,-7.45032 c 2.96703,-8.98801 11.1908,-34.21539 13.31417,-40.84279 0.84062,-2.6237 2.00389,-6.12991 2.58504,-7.79158 l 1.05667,-3.02123 h 2.20302 c 1.21166,0 2.20302,-0.0811 2.20302,-0.18025 0,-0.0991 -1.02562,-0.236311 -2.27916,-0.304832 -4.15652,-0.227205 -7.4596,-1.458025 -12.7146,-4.737819 -1.95668,-1.221222 -4.17775,-2.525353 -4.93571,-2.898073 -1.28797,-0.633345 -1.52371,-0.677322 -3.60427,-0.672338 -2.12024,0.005 -2.32968,0.04757 -4.40193,0.893144 -1.19668,0.488298 -3.62956,1.690726 -5.40639,2.672062 -7.42775,4.102276 -10.56845,5.471816 -14.62647,6.378076 l -0.58305,0.13021 v 15.76222 15.76223 l 1.67376,3.49623 c 0.92056,1.92294 2.315,4.7743 3.09875,6.33638 l 1.42501,2.84013 0.0867,17.38529 c 0.0477,9.5619 0.14062,18.1724 0.20653,19.13441 l 0.11984,1.74913 h 7.61353 7.61352 v 3.76454 3.76453 l 4.90829,6.67724 c 9.20484,12.52228 10.99743,15.0219 11.84322,16.5145 0.46519,0.82091 0.84579,1.5432 0.84579,1.60509 0,0.0619 -18.80187,0.1125 -41.78193,0.1125 H 92.773901 Z M 74.570254,133.53238 c 0,-15.80264 -0.07641,-25.93527 -0.194671,-25.81291 -0.10707,0.11078 -2.402607,6.97531 -5.101193,15.25452 -2.698587,8.27922 -5.896586,18.05844 -7.106667,21.73161 -1.865392,5.66235 -4.119137,12.61939 -4.653271,14.36407 l -0.146044,0.47703 h 8.600923 8.600923 z m 22.986967,25.53729 c -1.201599,-3.78808 -11.626932,-36.36756 -13.043084,-40.76002 -3.055793,-9.47811 -3.39537,-10.48457 -3.574943,-10.59555 -0.334766,-0.2069 -0.481911,14.69704 -0.326814,33.10205 l 0.157839,18.73055 h 8.46916 8.46916 z m 87.984119,-16.32521 c 0.076,-9.24124 0.0612,-21.09556 -0.0329,-26.34295 l -0.1711,-9.54071 -2.18792,6.67849 c -1.20337,3.67318 -3.47522,10.63789 -5.04857,15.47716 -1.57335,4.83925 -4.42642,13.55061 -6.34017,19.35858 -1.91373,5.80797 -3.47952,10.69758 -3.47952,10.86581 0,0.26142 1.24382,0.30586 8.56096,0.30586 h 8.56097 z m 22.81081,16.61686 c 0,-0.23135 -3.54575,-11.43944 -7.41995,-23.45436 -1.6168,-5.01418 -4.00271,-12.45592 -5.30202,-16.53723 -3.6097,-11.33863 -3.68194,-11.55486 -3.86034,-11.55486 -0.0918,0 -0.16693,11.63967 -0.16693,25.86592 v 25.86591 h 8.37462 c 4.6396,0 8.37462,-0.0827 8.37462,-0.18538 z"
       id="path7162" /></g></svg>
