<?xml version="1.0" encoding="UTF-8" standalone="no"?>
<!-- Created with Inkscape (http://www.inkscape.org/) -->

<svg
   width="1000"
   height="1000"
   viewBox="0 0 264.58333 264.58333"
   version="1.1"
   id="svg5"
   inkscape:version="1.2.2 (b0a8486541, 2022-12-01)"
   sodipodi:docname="socialism.svg"
   xml:space="preserve"
   xmlns:inkscape="http://www.inkscape.org/namespaces/inkscape"
   xmlns:sodipodi="http://sodipodi.sourceforge.net/DTD/sodipodi-0.dtd"
   xmlns="http://www.w3.org/2000/svg"
   xmlns:svg="http://www.w3.org/2000/svg"><sodipodi:namedview
     id="namedview7"
     pagecolor="#ffffff"
     bordercolor="#000000"
     borderopacity="0.25"
     inkscape:showpageshadow="2"
     inkscape:pageopacity="0.0"
     inkscape:pagecheckerboard="0"
     inkscape:deskcolor="#d1d1d1"
     inkscape:document-units="px"
     showgrid="false"
     inkscape:zoom="0.74653479"
     inkscape:cx="482.22803"
     inkscape:cy="483.56755"
     inkscape:window-width="1920"
     inkscape:window-height="1004"
     inkscape:window-x="0"
     inkscape:window-y="0"
     inkscape:window-maximized="1"
     inkscape:current-layer="layer1" /><defs
     id="defs2" /><g
     inkscape:label="Layer 1"
     inkscape:groupmode="layer"
     id="layer1"><circle
       style="fill:#c51d1d;stroke:#eecc0e;stroke-width:0;stroke-dasharray:none;stroke-opacity:1;paint-order:stroke markers fill;fill-opacity:1"
       id="path236"
       cx="132.29167"
       cy="132.29167"
       r="125.37917" /><circle
       style="fill:#427328;stroke:#ffd418;stroke-width:5.2916666;fill-opacity:0;stroke-opacity:1;stroke-dasharray:none;paint-order:normal"
       id="path236-3"
       cx="132.29167"
       cy="132.29167"
       r="125.37917" /><path
       style="fill:#ffd418;fill-opacity:1;stroke-width:0.264583"
       d="m 57.804369,202.92021 c -1.60679,-0.6756 -2.80975,-2.87982 -2.40868,-4.41349 0.0806,-0.30824 0.0193,-1.19417 -0.13628,-1.96875 -0.98787,-4.91896 2.84883,-12.79249 8.55973,-17.56596 2.34283,-1.95826 4.10411,-2.98406 7.96374,-4.63822 4.9205,-2.10882 7.35769,-3.69072 10.61764,-6.89155 1.62097,-1.59159 4.0373,-5.00235 5.03838,-7.11192 1.4658,-3.08889 2.97687,-4.51996 5.46994,-5.1804 0.639,-0.16927 1.459483,-0.58809 1.823283,-0.9307 1.49015,-1.40333 4.1051,-2.03552 6.085418,-1.47121 0.55895,0.15928 0.99631,-0.0924 2.82228,-1.62384 l 2.16082,-1.81234 2.2048,2.13724 c 6.41946,6.22271 15.15289,10.42346 24.21646,11.64804 3.86816,0.52263 11.41919,0.20355 14.89772,-0.62952 2.70931,-0.64886 6.22847,-1.78326 8.30909,-2.67843 l 1.03305,-0.44447 -2.63927,-2.69135 c -9.36011,-9.54482 -30.50503,-31.48677 -37.90727,-39.33615 -2.67601,-2.83766 -5.32281,-5.63443 -5.88177,-6.21505 l -1.0163,-1.05568 -9.259668,9.25683 -9.259673,9.25683 -9.84872,-9.84872 -9.84873,-9.84873 1.05182,-1.0874 c 0.5785,-0.59808 9.44601,-9.396934 19.70559,-19.553002 l 18.653781,-18.465581 15.21289,2.07199 c 8.36709,1.139595 16.19099,2.208353 17.38646,2.375014 l 2.17356,0.303022 -12.42617,12.307871 c -6.83439,6.769332 -12.42617,12.391212 -12.42617,12.493062 0,0.10186 11.49813,11.046534 25.5514,24.321484 l 25.55139,24.13628 1.00864,-1.26734 c 1.40247,-1.76217 3.82947,-5.80197 4.90955,-8.17206 1.18674,-2.60413 2.61382,-7.05363 3.21645,-10.02861 0.72262,-3.56729 0.64866,-12.64344 -0.14553,-17.85938 -2.004,-13.161524 -6.98567,-26.206431 -14.04782,-36.785385 -7.08808,-10.617807 -17.20704,-20.32436 -28.12054,-26.974461 -1.27439,-0.776548 -2.26634,-1.46264 -2.20433,-1.52465 0.19864,-0.198637 4.67088,1.258784 8.49016,2.766787 8.06561,3.184616 15.38982,7.409416 22.88646,13.201509 3.72114,2.875045 11.87877,10.927477 14.71441,14.524667 8.42649,10.689503 14.57698,23.465009 17.38653,36.114453 1.39835,6.29578 1.63389,8.63235 1.627,16.13958 -0.006,6.13102 -0.0827,7.43783 -0.6137,10.40689 -1.70827,9.55156 -5.07951,17.91211 -9.92354,24.61007 -0.7466,1.03233 -1.19763,1.88601 -1.04842,1.98437 0.14403,0.095 5.20064,4.83849 11.23692,10.5412 9.80438,9.26258 11.06522,10.54671 11.82025,12.03855 2.21581,4.3781 1.46487,9.14118 -1.98595,12.59646 -3.31243,3.31671 -8.19518,4.08391 -12.35425,1.94115 -1.68307,-0.86713 -2.48674,-1.6229 -8.19686,-7.70827 -3.48195,-3.71078 -8.44016,-8.94735 -11.01825,-11.63681 l -4.68743,-4.88995 -3.16171,1.51262 c -21.79741,10.42822 -49.13041,5.29741 -65.7442,-12.34116 -1.11159,-1.18016 -2.06409,-2.08621 -2.11667,-2.01345 -0.0526,0.0728 -0.439,0.81956 -0.85872,1.65955 -0.83529,1.67169 -1.84289,2.59176 -4.263948,3.89355 -6.927553,3.72494 -11.515503,8.79535 -13.917583,15.38116 -1.59262,4.36649 -3.82747,7.8231 -6.94118,10.73582 -3.28521,3.07316 -7.85362,5.60714 -11.0954,6.15434 -2.54257,0.42918 -7.41072,0.51948 -8.28088,0.1536 z"
       id="path5043" /></g></svg>
