<?xml version="1.0" encoding="UTF-8" standalone="no"?>
<!-- Created with Inkscape (http://www.inkscape.org/) -->

<svg
   width="1000"
   height="1000"
   viewBox="0 0 264.58333 264.58333"
   version="1.1"
   id="svg5"
   inkscape:version="1.2.2 (b0a8486541, 2022-12-01)"
   sodipodi:docname="flat_taxation.svg"
   xml:space="preserve"
   xmlns:inkscape="http://www.inkscape.org/namespaces/inkscape"
   xmlns:sodipodi="http://sodipodi.sourceforge.net/DTD/sodipodi-0.dtd"
   xmlns="http://www.w3.org/2000/svg"
   xmlns:svg="http://www.w3.org/2000/svg"><sodipodi:namedview
     id="namedview7"
     pagecolor="#ffffff"
     bordercolor="#000000"
     borderopacity="0.25"
     inkscape:showpageshadow="2"
     inkscape:pageopacity="0.0"
     inkscape:pagecheckerboard="0"
     inkscape:deskcolor="#d1d1d1"
     inkscape:document-units="px"
     showgrid="false"
     inkscape:zoom="0.52787981"
     inkscape:cx="81.457936"
     inkscape:cy="526.63503"
     inkscape:window-width="1920"
     inkscape:window-height="1004"
     inkscape:window-x="0"
     inkscape:window-y="0"
     inkscape:window-maximized="1"
     inkscape:current-layer="layer1" /><defs
     id="defs2" /><g
     inkscape:label="Layer 1"
     inkscape:groupmode="layer"
     id="layer1"><circle
       style="fill:#283d78;fill-opacity:1;stroke:#000000;stroke-width:0;stroke-dasharray:none;stroke-opacity:1;paint-order:stroke markers fill"
       id="path236"
       cx="132.29167"
       cy="132.29167"
       r="125.37917" /><circle
       style="fill:#427328;fill-opacity:0;stroke:#fffffc;stroke-width:5.29167;stroke-dasharray:none;stroke-opacity:1;paint-order:normal"
       id="path236-3"
       cx="132.29167"
       cy="132.29167"
       r="125.37917" /><path
       style="fill:#ffffff;fill-opacity:1;stroke-width:0.126768"
       d="m 63.867289,66.308477 c 0.737453,-3.013649 2.793443,-5.537266 5.628224,-6.908344 2.270571,-1.098192 2.086275,-1.078098 9.887976,-1.078098 5.276248,0 7.01988,0.03914 7.606135,0.170665 2.567376,0.576049 5.056535,2.253448 6.536902,4.40509 0.606363,0.881315 1.231384,2.327042 1.511898,3.49716 0.250838,1.046297 0.252787,1.555676 0.252787,65.89676 0,64.34109 -0.0019,64.85045 -0.252787,65.89675 -0.915031,3.81688 -3.764177,6.72906 -7.611966,7.78038 -1.057226,0.28886 -1.157488,0.29254 -7.979585,0.29254 -7.873124,0 -7.678815,0.021 -9.95136,-1.0781 -2.191075,-1.05975 -3.721276,-2.57153 -4.811174,-4.75328 -0.313473,-0.6275 -0.685108,-1.62581 -0.825875,-2.21845 -0.255044,-1.07382 -0.255907,-1.30122 -0.247642,-65.98323 0.0081,-63.993165 0.01179,-64.919949 0.256467,-65.919843 z m 52.607281,1.014153 c 0.31638,-2.248613 1.35177,-4.251458 3.08016,-5.958141 1.28284,-1.266729 2.45729,-2.005236 4.00773,-2.520076 1.65001,-0.54791 2.64191,-0.606364 9.45093,-0.556961 l 6.3318,0.04595 1.14092,0.350405 c 3.93922,1.209827 6.65384,4.154612 7.46933,8.102629 0.18088,0.87571 0.20019,7.194805 0.20019,65.505274 0,58.31048 -0.0193,64.62958 -0.20019,65.50529 -0.81549,3.94801 -3.53011,6.89279 -7.46933,8.10262 l -1.14092,0.35041 -6.3318,0.0459 c -6.80902,0.0494 -7.80092,-0.009 -9.45093,-0.55696 -1.59033,-0.52809 -2.72184,-1.2487 -4.0566,-2.58347 -1.7775,-1.77748 -2.70535,-3.61266 -3.03305,-5.999 -0.16608,-1.20931 -0.16435,-128.653341 0.002,-129.833899 z m 52.81213,-0.06338 c 0.70743,-4.17957 3.73369,-7.519221 7.83563,-8.647081 0.97125,-0.26705 1.28614,-0.280738 7.44397,-0.323563 5.38266,-0.03742 6.61536,-0.01269 7.56905,0.151878 2.18942,0.37783 3.95361,1.259049 5.54285,2.768672 1.59907,1.518961 2.67034,3.430422 3.10655,5.54302 0.25338,1.227111 0.25338,129.851954 0,131.079074 -0.72499,3.51113 -3.30736,6.53733 -6.64909,7.79184 -1.77369,0.66586 -2.55263,0.72053 -9.56936,0.67173 -6.18865,-0.043 -6.46785,-0.0553 -7.44397,-0.32721 -3.72279,-1.03699 -6.41226,-3.66497 -7.5715,-7.39844 l -0.28817,-0.92807 -0.0148,-65.03246 c -0.008,-35.767858 0.009,-65.175083 0.0389,-65.34939 z"
       id="path9174" /></g></svg>
