<?xml version="1.0" encoding="UTF-8" standalone="no"?>
<!-- Created with Inkscape (http://www.inkscape.org/) -->

<svg
   width="1000"
   height="1000"
   viewBox="0 0 264.58333 264.58333"
   version="1.1"
   id="svg5"
   inkscape:version="1.2.2 (b0a8486541, 2022-12-01)"
   sodipodi:docname="social_georgism.svg"
   xml:space="preserve"
   xmlns:inkscape="http://www.inkscape.org/namespaces/inkscape"
   xmlns:sodipodi="http://sodipodi.sourceforge.net/DTD/sodipodi-0.dtd"
   xmlns="http://www.w3.org/2000/svg"
   xmlns:svg="http://www.w3.org/2000/svg"><sodipodi:namedview
     id="namedview7"
     pagecolor="#ffffff"
     bordercolor="#000000"
     borderopacity="0.25"
     inkscape:showpageshadow="2"
     inkscape:pageopacity="0.0"
     inkscape:pagecheckerboard="0"
     inkscape:deskcolor="#d1d1d1"
     inkscape:document-units="px"
     showgrid="false"
     inkscape:zoom="0.52787981"
     inkscape:cx="81.457936"
     inkscape:cy="526.63503"
     inkscape:window-width="1920"
     inkscape:window-height="1004"
     inkscape:window-x="0"
     inkscape:window-y="0"
     inkscape:window-maximized="1"
     inkscape:current-layer="layer1" /><defs
     id="defs2" /><g
     inkscape:label="Layer 1"
     inkscape:groupmode="layer"
     id="layer1"><circle
       style="fill:#b00020;fill-opacity:1;stroke:#ea8a12;stroke-width:0;stroke-dasharray:none;stroke-opacity:1;paint-order:stroke markers fill"
       id="path236"
       cx="132.29167"
       cy="132.29167"
       r="125.37917" /><circle
       style="fill:#427328;fill-opacity:0;stroke:#ffffff;stroke-width:5.29167;stroke-dasharray:none;stroke-opacity:1;paint-order:normal"
       id="path236-3"
       cx="132.29167"
       cy="132.29167"
       r="125.37917" /><path
       style="fill:#ffffff;fill-opacity:1;stroke-width:0.0691943"
       d="m 126.34132,211.92789 c -3.37723,-0.12365 -7.96595,-0.76938 -12.282,-1.72834 -3.38593,-0.7523 -5.55753,-1.35573 -8.92607,-2.48031 -15.199474,-5.07436 -28.905675,-14.42719 -39.198242,-26.7481 -8.870171,-10.61819 -14.986941,-22.93939 -17.982771,-36.22323 -0.89222,-3.9562 -1.58513,-8.36437 -1.95779,-12.45499 -0.14761,-1.62028 -0.16917,-5.62058 -0.0364,-6.74644 0.42365,-3.59141 1.5622,-5.87844 3.5876,-7.20652 1.23298,-0.80846 2.66271,-1.25668 4.72973,-1.48276 1.03243,-0.11292 5.306443,-0.11508 6.95403,-0.004 9.488183,0.64247 19.066644,2.743 26.736006,5.86313 0.509589,0.20732 0.93429,0.36833 0.943783,0.35781 0.0095,-0.0105 0.4922,-1.4826 1.072685,-3.27127 8.499542,-26.190101 18.313259,-45.129093 30.386939,-58.642207 1.36124,-1.523527 3.35005,-3.604814 4.31179,-4.512283 3.14491,-2.967421 5.43611,-4.145555 7.8797,-4.051725 2.54465,0.09771 4.9043,1.512864 8.41517,5.046816 3.5043,3.527345 6.92812,7.603505 10.04503,11.958902 7.87392,11.002594 14.77801,24.943316 20.94751,42.297137 0.77997,2.19393 2.51116,7.29309 3.1883,9.39104 0.31323,0.97045 0.57655,1.77214 0.58516,1.78154 0.009,0.009 0.7544,-0.27873 1.6573,-0.64028 7.26914,-2.91078 16.79218,-4.95218 26.02499,-5.57881 1.589,-0.10784 5.99046,-0.10705 6.95403,0.001 3.62494,0.40746 5.78425,1.67522 7.03813,4.13219 0.5719,1.12063 0.87253,2.13316 1.13809,3.83301 0.14178,0.90755 0.15698,1.25098 0.15922,3.5981 0.002,2.61469 -0.0373,3.35274 -0.315,5.84692 -0.63598,5.71136 -1.56329,10.54622 -2.93295,15.29195 -4.62974,16.04162 -13.98173,30.54967 -26.77992,41.54458 -12.11538,10.40831 -26.63773,17.24343 -42.28438,19.90162 -3.10621,0.52772 -5.61522,0.81556 -8.1269,0.93236 -1.71832,0.0799 -9.68142,0.0748 -11.93281,-0.008 z m -3.18368,-18.58826 c -0.28555,-2.87767 -1.62115,-8.92714 -2.7431,-12.42459 -1.87663,-5.85002 -4.26512,-10.87965 -7.51455,-15.824 -8.8052,-13.39803 -22.22353,-23.51236 -37.071223,-27.94316 -1.471293,-0.43906 -3.56656,-0.97668 -4.877516,-1.25152 -2.118592,-0.44416 -6.12792,-1.03141 -6.464688,-0.94688 -0.339412,0.0852 -0.318294,0.4486 0.177324,3.05198 0.657436,3.4534 1.319308,6.06685 2.286866,9.02986 4.255749,13.03267 12.223906,24.34369 23.113821,32.81073 7.375597,5.7346 16.397416,10.14313 25.517026,12.46893 2.78562,0.71043 6.49341,1.47083 7.25361,1.48759 l 0.36878,0.008 z m 20.19297,0.22231 c 6.83236,-1.25999 12.96677,-3.24101 18.82701,-6.07992 9.59578,-4.64853 17.78812,-11.21195 24.27743,-19.45022 7.20594,-9.14805 11.85263,-19.76771 13.79214,-31.52095 0.20689,-1.25374 0.19458,-1.49233 -0.0805,-1.56137 -0.33843,-0.0849 -4.36803,0.50601 -6.46469,0.94808 -16.43728,3.46562 -31.73251,13.96146 -41.53437,28.50154 -3.15001,4.67273 -5.51375,9.36808 -7.3841,14.66784 -0.4098,1.1612 -0.89043,2.78685 -1.41197,4.77577 -0.82804,3.15782 -1.91129,8.64343 -1.91129,9.67889 v 0.2851 h 0.28157 c 0.15486,0 0.87881,-0.11015 1.60877,-0.24476 z M 132.8007,162.32005 c 2.64769,-5.17207 5.75536,-9.82009 9.87507,-14.76977 3.33732,-4.00968 7.61706,-8.32019 11.34328,-11.42485 1.30867,-1.09037 4.94426,-3.8756 5.5489,-4.25101 0.21735,-0.13495 0.24218,-0.32619 0.12354,-0.95158 -0.74513,-3.92802 -7.08764,-20.73936 -11.82667,-31.347571 -3.05461,-6.8377 -10.14853,-18.768336 -13.97464,-23.502748 -0.7344,-0.908742 -1.38577,-1.556873 -1.56466,-1.556873 -0.30428,0 -1.665,1.571707 -3.11509,3.598106 -3.80313,5.314602 -8.90806,13.992735 -11.64124,19.789585 -3.4638,7.346421 -8.95516,21.211251 -11.59246,29.269201 -0.78614,2.40198 -1.25884,4.2513 -1.13943,4.45783 0.0614,0.10627 0.26162,0.2609 1.74903,1.35107 5.02294,3.68143 9.48029,7.79955 13.91545,12.85642 4.44127,5.06383 8.03056,10.22998 10.92479,15.72427 0.77594,1.47302 0.8158,1.53763 0.92774,1.50406 0.0419,-0.0126 0.24274,-0.34832 0.44639,-0.74614 z"
       id="path5851" /></g></svg>
