<?xml version="1.0" encoding="UTF-8" standalone="no"?>
<!-- Created with Inkscape (http://www.inkscape.org/) -->

<svg
   width="1000"
   height="1000"
   viewBox="0 0 264.58333 264.58333"
   version="1.1"
   id="svg5"
   inkscape:version="1.2.2 (b0a8486541, 2022-12-01)"
   sodipodi:docname="Voluntaryism.svg"
   xml:space="preserve"
   xmlns:inkscape="http://www.inkscape.org/namespaces/inkscape"
   xmlns:sodipodi="http://sodipodi.sourceforge.net/DTD/sodipodi-0.dtd"
   xmlns="http://www.w3.org/2000/svg"
   xmlns:svg="http://www.w3.org/2000/svg"><sodipodi:namedview
     id="namedview7"
     pagecolor="#ffffff"
     bordercolor="#000000"
     borderopacity="0.25"
     inkscape:showpageshadow="2"
     inkscape:pageopacity="0.0"
     inkscape:pagecheckerboard="0"
     inkscape:deskcolor="#d1d1d1"
     inkscape:document-units="px"
     showgrid="false"
     inkscape:zoom="0.52787981"
     inkscape:cx="81.457936"
     inkscape:cy="526.63503"
     inkscape:window-width="1920"
     inkscape:window-height="1004"
     inkscape:window-x="0"
     inkscape:window-y="0"
     inkscape:window-maximized="1"
     inkscape:current-layer="layer1" /><defs
     id="defs2" /><g
     inkscape:label="Layer 1"
     inkscape:groupmode="layer"
     id="layer1"><circle
       style="fill:#000000;fill-opacity:1;stroke:#000000;stroke-width:0;stroke-dasharray:none;stroke-opacity:1;paint-order:stroke markers fill"
       id="path236"
       cx="132.29167"
       cy="132.29167"
       r="125.37917" /><circle
       style="fill:#427328;fill-opacity:0;stroke:#f6e807;stroke-width:5.29167;stroke-dasharray:none;stroke-opacity:1;paint-order:normal"
       id="path236-3"
       cx="132.29167"
       cy="132.29167"
       r="125.37917" /><path
       style="fill:#f6e807;stroke-width:0.350939;fill-opacity:1"
       d="m 130.80612,230.47314 c -0.70628,-1.30335 -22.12828,-38.92886 -47.604457,-83.61228 l -46.320285,-81.242563 47.70559,-0.08899 c 26.238062,-0.04894 69.172692,-0.04894 95.410282,0 l 47.7047,0.08899 -20.71869,36.322283 c -11.39526,19.97723 -32.73125,57.40497 -47.41328,83.17272 -14.68202,25.76776 -26.87124,47.04827 -27.08715,47.29001 -0.30179,0.33791 -0.68951,-0.10836 -1.67671,-1.93017 z m 29.38615,-92.96763 c 15.24832,-26.75843 27.77689,-48.786661 27.84121,-48.951638 0.0644,-0.164976 -6.80757,-0.299949 -15.27091,-0.299949 h -15.3879 l -6.69193,10.615922 c -3.68056,5.838765 -9.28456,15.231745 -12.45333,20.873345 -3.16876,5.64158 -5.84061,10.26082 -5.93745,10.26498 -0.0969,0.004 -5.47547,-9.34935 -11.95253,-20.78561 L 108.56298,88.42939 92.497619,88.338136 c -8.835952,-0.05028 -16.012181,0.04284 -15.947188,0.206849 0.36473,0.920247 55.568189,97.620425 55.726689,97.616715 0.10505,-0.003 12.66681,-21.89772 27.91515,-48.65616 z"
       id="path6026" /></g></svg>
